<?xml version="1.0" encoding="UTF-8" standalone="no"?>
<svg
   xmlns:dc="http://purl.org/dc/elements/1.1/"
   xmlns:cc="http://creativecommons.org/ns#"
   xmlns:rdf="http://www.w3.org/1999/02/22-rdf-syntax-ns#"
   xmlns:svg="http://www.w3.org/2000/svg"
   xmlns="http://www.w3.org/2000/svg"
   xmlns:sodipodi="http://sodipodi.sourceforge.net/DTD/sodipodi-0.dtd"
   xmlns:inkscape="http://www.inkscape.org/namespaces/inkscape"
   version="1.0"
   x="0px"
   y="0px"
   viewBox="0 0 96 95.999999"
   enable-background="new 0 0 100 61.284"
   xml:space="preserve"
   id="svg2"
   inkscape:version="0.91 r13725"
   sodipodi:docname="bike.svg"
   width="96"
   height="96"
   shape-rendering="crispEdges"><metadata
     id="metadata10"><rdf:RDF><cc:Work
         rdf:about=""><dc:format>image/svg+xml</dc:format><dc:type
           rdf:resource="http://purl.org/dc/dcmitype/StillImage" /><dc:title></dc:title></cc:Work></rdf:RDF></metadata><defs
     id="defs8" /><sodipodi:namedview
     pagecolor="#c8c8c8"
     bordercolor="#818181"
     borderopacity="1"
     objecttolerance="10"
     gridtolerance="10"
     guidetolerance="10"
     inkscape:pageopacity="0"
     inkscape:pageshadow="2"
     inkscape:window-width="1440"
     inkscape:window-height="824"
     id="namedview6"
     showgrid="false"
     inkscape:zoom="2.7230142"
     inkscape:cx="-5.8601662"
     inkscape:cy="29.5628"
     inkscape:window-x="0"
     inkscape:window-y="24"
     inkscape:window-maximized="1"
     inkscape:current-layer="svg2"
     showborder="true"
     inkscape:showpageshadow="false" /><path
     d="m 77.414447,41.964511 c -2.060153,0 -4.039609,0.345574 -5.890898,0.972164 -1.435462,-3.182319 -3.113015,-6.905784 -5.07728,-11.276726 l 1.25318,-3.446246 4.307334,-0.0788 0,-3.602894 -16.213498,0 c -1.418373,1.940531 0.574374,1.931987 7.754529,3.524096 l -1.253181,3.525045 -32.034902,0 c 2.15794,-7.537122 0.938937,-6.988381 10.652036,-6.971292 l 0,-3.680743 c -13.371057,0.130065 -11.052673,-1.3766 -18.212891,21.65534 -1.095584,-0.204117 -2.224397,-0.316144 -3.379791,-0.316144 -10.1574087,0 -18.42080529,8.264346 -18.42080529,18.421755 0,10.157408 8.26339659,18.420804 18.42080529,18.420804 10.158357,0 18.421755,-8.263396 18.421755,-18.420804 0,-7.60073 -4.628224,-14.141004 -11.214067,-16.951166 0.400638,-1.260776 0.831656,-2.606995 1.294004,-4.045305 26.949078,28.425363 16.839139,23.817076 31.340905,24.393349 0.0693,0 0.135761,-9.49e-4 0.205066,-0.0019 1.717427,8.391563 9.157713,14.722973 18.0477,14.722973 10.158357,-4.2e-5 18.421753,-8.263438 18.421753,-18.420846 0,-10.157409 -8.263396,-18.422704 -18.421753,-18.422704 z m -43.98284,18.725556 c 0,7.781112 -6.330461,14.111572 -14.111573,14.111572 -7.781112,0 -14.1125221,-6.33046 -14.1125221,-14.111572 0,-7.781112 6.3304611,-14.111573 14.1115731,-14.111573 0.701591,0 1.39084,0.05316 2.0649,0.15285 -4.495311,14.17613 -3.956064,12.562186 -3.983596,13.757454 -0.02183,1.008241 0.791783,1.807618 1.815213,1.876923 1.834201,-0.186078 1.421221,0.117723 6.004824,-14.488476 4.841834,2.236737 8.211181,7.136483 8.211181,12.812822 z M 51.621712,59.811891 29.333137,35.522973 60.680689,35.46696 51.621712,59.811891 Z m 7.372879,0.509816 -3.427259,-0.01044 8.892835,-23.343336 3.450044,7.644402 c -5.322219,3.218395 -8.891885,9.05328 -8.91562,15.709377 z m 10.70615,-11.742871 5.320321,11.788442 -11.717239,-0.03323 c 0.01899,-4.913986 2.562375,-9.242206 6.396918,-11.755213 z m 7.713706,25.919951 c -6.507045,0 -11.998255,-4.429803 -13.621693,-10.431779 14.687845,0.01424 15.997989,0.767099 16.203055,-1.781035 -0.01994,-0.742414 -0.296207,-1.251282 -6.689326,-15.398931 1.2997,-0.39684 2.679148,-0.612349 4.107014,-0.612349 7.781112,0 14.111573,6.33046 14.111573,14.112522 0,7.782061 -6.329511,14.111572 -14.110623,14.111572 z"
     id="path4"
     style="fill:#ffffff"
     inkscape:connector-curvature="0" /></svg>