<?xml version="1.0" encoding="UTF-8" standalone="no"?>
<svg
   xmlns:dc="http://purl.org/dc/elements/1.1/"
   xmlns:cc="http://creativecommons.org/ns#"
   xmlns:rdf="http://www.w3.org/1999/02/22-rdf-syntax-ns#"
   xmlns:svg="http://www.w3.org/2000/svg"
   xmlns="http://www.w3.org/2000/svg"
   xmlns:sodipodi="http://sodipodi.sourceforge.net/DTD/sodipodi-0.dtd"
   xmlns:inkscape="http://www.inkscape.org/namespaces/inkscape"
   version="1.1"
   x="0px"
   y="0px"
   viewBox="0 0 40 40"
   enable-background="new 0 0 40 40"
   xml:space="preserve"
   id="svg2"
   inkscape:version="0.91 r13725"
   sodipodi:docname="noroute.svg"
   width="40"
   height="40"><metadata
     id="metadata66"><rdf:RDF><cc:Work
         rdf:about=""><dc:format>image/svg+xml</dc:format><dc:type
           rdf:resource="http://purl.org/dc/dcmitype/StillImage" /><dc:title></dc:title></cc:Work></rdf:RDF></metadata><defs
     id="defs64" /><sodipodi:namedview
     pagecolor="#ffffff"
     bordercolor="#666666"
     borderopacity="1"
     objecttolerance="10"
     gridtolerance="10"
     guidetolerance="10"
     inkscape:pageopacity="0"
     inkscape:pageshadow="2"
     inkscape:window-width="1440"
     inkscape:window-height="824"
     id="namedview62"
     showgrid="false"
     inkscape:zoom="18.88"
     inkscape:cx="26.51607"
     inkscape:cy="18.344922"
     inkscape:window-x="0"
     inkscape:window-y="24"
     inkscape:window-maximized="1"
     inkscape:current-layer="svg2" /><g
     id="g4"><circle
       cx="6.1999998"
       cy="6.1999998"
       r="6.1999998"
       id="circle6"
       style="fill:#ffffff" /><g
       id="g8"><path
         d="M 9.2,9.3 7.8,9.3 7.3,7.8 5,7.8 4.5,9.3 3.2,9.3 5.4,3 6.9,3 9.2,9.3 Z M 7,6.8 6.1,4.2 5.3,6.8 7,6.8 Z"
         id="path10"
         inkscape:connector-curvature="0"
         style="fill:#ffffff" /></g><circle
       cx="33.799999"
       cy="33.799999"
       r="6.1999998"
       id="circle12"
       style="fill:#ffffff" /><g
       id="g14"><path
         d="m 36.4,35 c 0,0.6 -0.2,1 -0.6,1.3 -0.4,0.3 -0.9,0.5 -1.7,0.5 l -2.4,0 0,-6 2.3,0 c 0.3,0 0.6,0 0.9,0.1 0.3,0.1 0.5,0.2 0.7,0.3 0.2,0.1 0.3,0.3 0.4,0.5 0.1,0.2 0.1,0.4 0.1,0.6 0,0.6 -0.3,1 -0.9,1.3 0.4,0.1 0.6,0.3 0.8,0.5 0.3,0.3 0.4,0.6 0.4,0.9 z m -3.4,-1.8 1,0 c 0.3,0 0.6,-0.1 0.7,-0.2 0.1,-0.1 0.2,-0.3 0.2,-0.6 0,-0.2 -0.1,-0.4 -0.2,-0.6 -0.1,-0.1 -0.4,-0.2 -0.8,-0.2 l -1,0 0,1.6 z m 0,2.6 1,0 c 0.4,0 0.6,-0.1 0.8,-0.2 0.2,-0.1 0.3,-0.3 0.3,-0.6 0,-0.1 0,-0.3 -0.1,-0.4 0,-0.1 -0.1,-0.2 -0.2,-0.2 -0.1,-0.1 -0.2,-0.1 -0.3,-0.1 -0.1,0 -0.3,0 -0.5,0 l -1,0 0,1.5 z"
         id="path16"
         inkscape:connector-curvature="0"
         style="fill:#ffffff" /></g><g
       display="none"
       id="g18"
       style="display:none"><g
         display="inline"
         id="g20"
         style="display:inline"><line
           stroke-miterlimit="10"
           x1="33.799999"
           y1="35"
           x2="33.799999"
           y2="32"
           id="line22"
           style="fill:none;stroke:#000000;stroke-width:3;stroke-miterlimit:10" /><path
           stroke-miterlimit="10"
           d="m 33.8,30 0,-18 c 0,-3.8 -3.1,-6.9 -6.9,-6.9 l 0,0 C 23.1,5 20,8.1 20,11.9 l 0,16 c 0,3.8 -3.1,6.9 -6.9,6.9 l 0,0 c -3.8,0 -6.9,-3.1 -6.9,-6.9 l 0,-17.8"
           id="path24"
           inkscape:connector-curvature="0"
           style="fill:none;stroke:#000000;stroke-width:3;stroke-miterlimit:10;stroke-dasharray:6.0068, 2.0023" /><line
           stroke-miterlimit="10"
           x1="6.1999998"
           y1="9.1000004"
           x2="6.1999998"
           y2="6.0999999"
           id="line26"
           style="fill:none;stroke:#000000;stroke-width:3;stroke-miterlimit:10" /></g></g></g><g
     id="g28"><path
       d="M 21.8,20 25,23.2 23.2,25 20,21.8 16.9,24.9 15,23.1 18.1,20 15,16.9 l 1.8,-1.8 3.1,3.1 3.2,-3.2 1.8,1.8 -3.1,3.2 z"
       id="path30"
       inkscape:connector-curvature="0"
       style="fill:#ffffff" /></g><g
     id="g32"><rect
       x="4.6999998"
       y="19.200001"
       width="3"
       height="6"
       id="rect34"
       style="fill:#ffffff" /><path
       d="m 7.7,27.9 0,-0.7 -3,0 0,0.7 c 0,2.2 0.8,4.2 2.3,5.8 l 2.2,-2.1 c -1,-1 -1.5,-2.3 -1.5,-3.7 z"
       id="path36"
       inkscape:connector-curvature="0"
       style="fill:#ffffff" /><path
       d="m 10.4,32.6 -1.5,2.6 c 1.3,0.7 2.7,1.1 4.2,1.1 1,0 2,-0.2 2.9,-0.5 L 15,33 c -1.5,0.5 -3.2,0.4 -4.6,-0.4 z"
       id="path38"
       inkscape:connector-curvature="0"
       style="fill:#ffffff" /><rect
       x="4.6999998"
       y="11.2"
       width="3"
       height="6"
       id="rect40"
       style="fill:#ffffff" /><polygon
       points="18.5,13.3 20,14.8 21.5,13.2 21.5,12.3 18.5,12.3 "
       id="polygon42"
       style="fill:#ffffff" /><path
       d="M 24.5,7.1 23.2,4.4 C 21,5.5 19.4,7.5 18.8,9.9 l 2.9,0.7 C 22,9.1 23.1,7.8 24.5,7.1 Z"
       id="path44"
       inkscape:connector-curvature="0"
       style="fill:#ffffff" /><rect
       x="32.299999"
       y="24"
       width="3"
       height="6"
       id="rect46"
       style="fill:#ffffff" /><rect
       x="32.299999"
       y="15.9"
       width="3"
       height="6"
       id="rect48"
       style="fill:#ffffff" /><path
       d="M 33.9,7.3 31.4,9 c 0.6,0.9 0.9,1.9 0.9,3 l 0,2 3,0 0,-2 c 0,-1.7 -0.5,-3.3 -1.4,-4.7 z"
       id="path50"
       inkscape:connector-curvature="0"
       style="fill:#ffffff" /><path
       d="m 25.5,3.7 0.5,3 c 1.5,-0.3 3.2,0.2 4.4,1.2 L 32.3,5.6 C 30.4,3.9 27.9,3.2 25.5,3.7 Z"
       id="path52"
       inkscape:connector-curvature="0"
       style="fill:#ffffff" /><path
       d="m 16.3,32.2 1.8,2.4 c 2,-1.5 3.2,-3.8 3.3,-6.2 l -3,-0.2 c 0,1.6 -0.8,3.1 -2.1,4 z"
       id="path54"
       inkscape:connector-curvature="0"
       style="fill:#ffffff" /><polygon
       points="21.5,26.7 20,25.2 18.5,26.6 18.5,27.3 21.5,27.3 "
       id="polygon56"
       style="fill:#ffffff" /></g></svg>