<?xml version="1.0" encoding="UTF-8" standalone="no"?>
<svg
   xmlns:dc="http://purl.org/dc/elements/1.1/"
   xmlns:cc="http://creativecommons.org/ns#"
   xmlns:rdf="http://www.w3.org/1999/02/22-rdf-syntax-ns#"
   xmlns:svg="http://www.w3.org/2000/svg"
   xmlns="http://www.w3.org/2000/svg"
   xmlns:sodipodi="http://sodipodi.sourceforge.net/DTD/sodipodi-0.dtd"
   xmlns:inkscape="http://www.inkscape.org/namespaces/inkscape"
   version="1.2"
   x="0px"
   y="0px"
   viewBox="0 0 100 100"
   xml:space="preserve"
   id="svg2"
   inkscape:version="0.91 r13725"
   sodipodi:docname="noun_605854_cc.svg"
   width="100"
   height="100"><metadata
     id="metadata18"><rdf:RDF><cc:Work
         rdf:about=""><dc:format>image/svg+xml</dc:format><dc:type
           rdf:resource="http://purl.org/dc/dcmitype/StillImage" /><dc:title></dc:title></cc:Work></rdf:RDF></metadata><defs
     id="defs16" /><sodipodi:namedview
     pagecolor="#ffffff"
     bordercolor="#666666"
     borderopacity="1"
     objecttolerance="10"
     gridtolerance="10"
     guidetolerance="10"
     inkscape:pageopacity="0"
     inkscape:pageshadow="2"
     inkscape:window-width="1440"
     inkscape:window-height="824"
     id="namedview14"
     showgrid="false"
     inkscape:zoom="1.888"
     inkscape:cx="66.155484"
     inkscape:cy="62.5"
     inkscape:window-x="0"
     inkscape:window-y="24"
     inkscape:window-maximized="1"
     inkscape:current-layer="svg2" /><path
     d="m 83.18319,-0.402542 c -9.145505,0 -16.585971,7.440467 -16.585971,16.58597 0,7.87502 5.156025,14.894203 9.415303,19.3503 l -37.058588,0 c -1.117895,0 -2.126322,0.673391 -2.554239,1.706143 -0.427918,1.032754 -0.191292,2.221415 0.599306,3.012013 L 90.369338,93.62222 29.843813,93.96721 c 6.060514,-5.86149 14.638779,-16.23767 14.638779,-28.025868 0,-12.194007 -9.920623,-22.114627 -22.114629,-22.114627 -12.194006,0 -22.11462805,9.92062 -22.11462805,22.114627 0,17.836558 19.64442305,32.448798 20.47925205,33.062478 0.464407,0.34168 1.07477,0.53517 1.650856,0.53517 l 74.637975,-0.4257 c 1.114577,-0.007 2.11637,-0.68224 2.540973,-1.71389 0.423496,-1.03164 0.185765,-2.21699 -0.602625,-3.00537 l -53.332743,-53.331645 37.556167,0 c 0.576086,0 1.180921,-0.200137 1.644223,-0.541808 0.610363,-0.452244 14.941752,-11.208799 14.941752,-24.337149 0,-9.145503 -7.440471,-16.58597 -16.585975,-16.58597 z M 22.365752,93.24074 C 17.888645,89.51111 5.7819919,78.28352 5.7819919,65.941342 c 0,-9.145504 7.4404661,-16.585971 16.5859711,-16.585971 9.145504,0 16.585971,7.440467 16.585971,16.585971 0,12.310108 -12.113288,23.563138 -16.588182,27.299398 z M 83.179872,34.728756 C 79.74326,31.755445 72.125876,24.256374 72.125876,16.183428 c 0,-6.097002 4.960311,-11.057313 11.057314,-11.057313 6.097004,0 11.057314,4.960311 11.057314,11.057313 0,8.045302 -7.625124,15.566487 -11.060632,18.545328 z"
     id="path4"
     inkscape:connector-curvature="0"
     style="fill:#ffffff" /><path
     d="m 22.367963,55.309735 c -6.097003,0 -11.057314,4.96031 -11.057314,11.057313 0,6.097004 4.960311,11.057312 11.057314,11.057312 6.097004,0 11.057314,-4.960308 11.057314,-11.057312 0,-6.097003 -4.96031,-11.057313 -11.057314,-11.057313 z m 0,16.58597 c -3.048502,0 -5.528658,-2.480155 -5.528658,-5.528657 0,-3.048501 2.480156,-5.528656 5.528658,-5.528656 3.048501,0 5.528657,2.480155 5.528657,5.528656 0,3.048502 -2.480156,5.528657 -5.528657,5.528657 z"
     id="path6"
     inkscape:connector-curvature="0"
     style="fill:#ffffff" /><path
     d="m 83.18319,10.654772 c -3.048502,0 -5.528658,2.480155 -5.528658,5.528656 0,3.048503 2.480156,5.528658 5.528658,5.528658 3.048501,0 5.528657,-2.480155 5.528657,-5.528658 0,-3.048501 -2.480156,-5.528656 -5.528657,-5.528656 z"
     id="path8"
     inkscape:connector-curvature="0"
     style="fill:#ffffff" /></svg>