<?xml version="1.0" encoding="UTF-8" standalone="no"?>
<svg
   xmlns:dc="http://purl.org/dc/elements/1.1/"
   xmlns:cc="http://creativecommons.org/ns#"
   xmlns:rdf="http://www.w3.org/1999/02/22-rdf-syntax-ns#"
   xmlns:svg="http://www.w3.org/2000/svg"
   xmlns="http://www.w3.org/2000/svg"
   xmlns:sodipodi="http://sodipodi.sourceforge.net/DTD/sodipodi-0.dtd"
   xmlns:inkscape="http://www.inkscape.org/namespaces/inkscape"
   version="1.1"
   x="0px"
   y="0px"
   viewBox="0 0 35.8 49.25"
   enable-background="new 0 0 43.8 60.2"
   xml:space="preserve"
   id="svg2"
   inkscape:version="0.91 r13725"
   sodipodi:docname="truck.svg"
   width="35.799999"
   height="49.25"><metadata
     id="metadata18"><rdf:RDF><cc:Work
         rdf:about=""><dc:format>image/svg+xml</dc:format><dc:type
           rdf:resource="http://purl.org/dc/dcmitype/StillImage" /><dc:title></dc:title></cc:Work></rdf:RDF></metadata><defs
     id="defs16" /><sodipodi:namedview
     pagecolor="#ffffff"
     bordercolor="#666666"
     borderopacity="1"
     objecttolerance="10"
     gridtolerance="10"
     guidetolerance="10"
     inkscape:pageopacity="0"
     inkscape:pageshadow="2"
     inkscape:window-width="1440"
     inkscape:window-height="842"
     id="namedview14"
     showgrid="false"
     inkscape:zoom="4.4352744"
     inkscape:cx="15.617932"
     inkscape:cy="40.569322"
     inkscape:window-x="0"
     inkscape:window-y="0"
     inkscape:window-maximized="1"
     inkscape:current-layer="svg2" /><path
     d="m 10.673729,47.10678 c 2,0.6 3.1,0 3.1,0 l 0,-3 -3.1,-0.1 0,3.1 z"
     id="path4"
     inkscape:connector-curvature="0"
     style="fill:#ffffff" /><path
     d="m 22.273729,47.10678 c 0,0 1.1,0.6 3.1,0 l 0,-3.1 -3.1,0.1 0,3 z"
     id="path6"
     inkscape:connector-curvature="0"
     style="fill:#ffffff" /><path
     d="m 33.573729,19.50678 -0.2,-18 c 0,0 -0.2,-1.3 -2.5,-1.4 l -12.9,0 -0.1,0 -12.7000002,0 c -2.3,0.1 -2.5,1.4 -2.5,1.4 l -0.2,18 c -1.3,0 -2.29999999,0.1 -2.29999999,1.3 l 0,5.2 c 0,1.2 0.89999999,1.3 2.09999999,1.3 l 0,1.1 0,0.4 0.1,0 0,2.7 2.1,0 c 0,-1 0,-1.9 0,-2.7 l 0.9,0 0.1,3.1 c 0,0 -3.3,0.4 -3.2,2.9 l -0.1,6.6 c 0,0 0.2,1.1 1.2,1.8 l 0.1,5.1 c 0,0 4.1,1.7 6.8000002,0.2 l 0,-4.8 c 0,0 5.2,0.2 7.8,0 2.6,0.2 7.8,0 7.8,0 l 0,4.7 c 2.7,1.5 6.8,-0.2 6.8,-0.2 l 0.1,-5.1 c 1,-0.7 1.2,-1.8 1.2,-1.8 l 0,-6.6 c 0.1,-2.5 -3.2,-2.9 -3.2,-2.9 l 0.1,-3.1 0.9,0 c 0,0.8 0,1.7 0,2.7 l 2.1,0 0,-2.7 0.1,0 0,-0.3 0,-1.2 c 1.2,0 2.1,-0.1 2.1,-1.3 l 0,-5.2 c -0.2,-1.2 -1.2,-1.2 -2.5,-1.2 z m -28.0000002,18.4 c -1.3,0 -2.3,-1 -2.3,-2.3 0,-1.3 1,-2.3 2.3,-2.3 1.3,0 2.3,1 2.3,2.3 0,1.3 -1,2.3 -2.3,2.3 z m 2.3,-14.5 c 0,0 0.2,-1.2 1.3,-1.5 l 8.7000002,0 0,9.1 c 0,0 -6.2,0.1 -9.4000002,0.7 l -0.6,-8.3 z m 16.7000002,12.6 -12.7,0 c -0.3,0 -0.5,-0.3 -0.5,-0.7 0,-0.4 0.2,-0.7 0.5,-0.7 l 12.7,0 c 0.3,0 0.5,0.3 0.5,0.7 0,0.3 -0.3,0.7 -0.5,0.7 z m 1.3,1.5 c 0.3,0 0.6,0.3 0.6,0.7 0,0.4 -0.3,0.7 -0.6,0.7 l -15.4,0 c -0.3,0 -0.6000002,-0.3 -0.6000002,-0.7 0,-0.4 0.3000002,-0.7 0.6000002,-0.7 l 15.4,0 z m 0.9,4 -17.1000002,0 c -0.4,0 -0.7,-0.3 -0.7,-0.7 0,-0.4 0.3,-0.7 0.7,-0.7 l 17.1000002,0 c 0.4,0 0.7,0.3 0.7,0.7 0,0.4 -0.3,0.7 -0.7,0.7 z m -8.1,-10.5 0,-9.1 8.7,0 c 1.1,0.3 1.3,1.5 1.3,1.5 l -0.6,8.2 c -3.2,-0.5 -9.4,-0.6 -9.4,-0.6 z m 12,2.3 c 1.3,0 2.3,1 2.3,2.3 0,1.3 -1,2.3 -2.3,2.3 -1.3,0 -2.3,-1 -2.3,-2.3 0,-1.3 1,-2.3 2.3,-2.3 z m 1,-4.9 -0.9,0 0.1,-7.9 c 0,0 0,-1.6 -1.8,-1.5 l -10.7,0 -0.2,0 -0.2,0 -10.7000002,0 c -1.8,-0.1 -1.8,1.5 -1.8,1.5 l -0.1,7.9 -0.9,0 c 0,-0.6 0,-1.1 0,-1.6 0.2,-0.2 0.3,-0.5 0.3,-0.9 l 0,-5.2 c 0,-0.3 -0.1,-0.6 -0.2,-0.8 0.5,-3.5 3,-1.8 13.6000002,-2 10.6,0.2 13,-1.4 13.4,1.9 -0.2,0.2 -0.3,0.5 -0.3,0.9 l 0,5.2 c 0,0.4 0.1,0.7 0.3,0.9 0.1,0.6 0.1,1.1 0.1,1.6 z"
     id="path8"
     inkscape:connector-curvature="0"
     style="fill:#ffffff" /></svg>