<?xml version="1.0" encoding="UTF-8" standalone="no"?>
<svg
   xmlns:dc="http://purl.org/dc/elements/1.1/"
   xmlns:cc="http://creativecommons.org/ns#"
   xmlns:rdf="http://www.w3.org/1999/02/22-rdf-syntax-ns#"
   xmlns:svg="http://www.w3.org/2000/svg"
   xmlns="http://www.w3.org/2000/svg"
   xmlns:sodipodi="http://sodipodi.sourceforge.net/DTD/sodipodi-0.dtd"
   xmlns:inkscape="http://www.inkscape.org/namespaces/inkscape"
   version="1.0"
   x="0px"
   y="0px"
   viewBox="0 0 95.999997 96"
   enable-background="new 0 0 55.74 100"
   xml:space="preserve"
   id="svg2"
   inkscape:version="0.91 r13725"
   sodipodi:docname="walk.svg"
   width="96"
   height="96"><metadata
     id="metadata12"><rdf:RDF><cc:Work
         rdf:about=""><dc:format>image/svg+xml</dc:format><dc:type
           rdf:resource="http://purl.org/dc/dcmitype/StillImage" /><dc:title /></cc:Work></rdf:RDF></metadata><defs
     id="defs10" /><sodipodi:namedview
     pagecolor="#858585"
     bordercolor="#666666"
     borderopacity="1"
     objecttolerance="10"
     gridtolerance="10"
     guidetolerance="10"
     inkscape:pageopacity="0"
     inkscape:pageshadow="2"
     inkscape:window-width="1366"
     inkscape:window-height="744"
     id="namedview8"
     showgrid="false"
     inkscape:zoom="2.36"
     inkscape:cx="-89.079151"
     inkscape:cy="50"
     inkscape:window-x="0"
     inkscape:window-y="0"
     inkscape:window-maximized="1"
     inkscape:current-layer="svg2" /><path
     d="m 44.51332,14.66748 c -3.55304,0 -6.33328,-2.783 -6.33328,-6.3342 C 38.18004,4.78024 40.96028,2 44.51332,2 c 3.5512,0 6.3342,2.78024 6.3342,6.33328 0,3.5512 -2.783,6.3342 -6.3342,6.3342 z"
     id="path4"
     style="fill:#ffffff"
     inkscape:connector-curvature="0" /><path
     d="M 72.13172,49.58608 67.98068,49.19876 67.88684,34.43 60.32076,29.64232 c 0,0 1.22636,9.7014 1.22636,14.7982 0,4.44452 0.15824,8.03712 0.15824,8.03712 L 71.39112,91.16456 64.55092,94 53.7032,58.62508 46.1638,68.21516 37.57192,92.4452 29.84944,89.3586 38.52044,63.6308 48.03048,48.6118 45.36156,28.92472 39.41836,41.3852 24.12612,46.63656 22,42.77348 36.01528,34.59744 c 0,0 3.39572,-9.03348 6.17412,-14.68504 0.94484,-1.92372 4.78032,-2.55208 6.34248,-2.66892 4.50432,-0.33304 6.83376,1.19232 10.56896,3.15744 3.7306,1.9596 14.17996,9.86884 14.17996,9.86884 l -1.14908,19.31632 z"
     id="path6"
     style="fill:#ffffff"
     inkscape:connector-curvature="0" /></svg>