<?xml version="1.0" encoding="UTF-8" standalone="no"?>
<svg
   xmlns:dc="http://purl.org/dc/elements/1.1/"
   xmlns:cc="http://creativecommons.org/ns#"
   xmlns:rdf="http://www.w3.org/1999/02/22-rdf-syntax-ns#"
   xmlns:svg="http://www.w3.org/2000/svg"
   xmlns="http://www.w3.org/2000/svg"
   xmlns:sodipodi="http://sodipodi.sourceforge.net/DTD/sodipodi-0.dtd"
   xmlns:inkscape="http://www.inkscape.org/namespaces/inkscape"
   version="1.0"
   x="0px"
   y="0px"
   viewBox="0 0 95.999997 96"
   enable-background="new 0 0 55.74 100"
   xml:space="preserve"
   id="svg2"
   inkscape:version="0.92.5 (2060ec1f9f, 2020-04-08)"
   sodipodi:docname="walk.svg"
   width="96"
   height="96"><metadata
     id="metadata12"><rdf:RDF><cc:Work
         rdf:about=""><dc:format>image/svg+xml</dc:format><dc:type
           rdf:resource="http://purl.org/dc/dcmitype/StillImage" /><dc:title /></cc:Work></rdf:RDF></metadata><defs
     id="defs10" /><sodipodi:namedview
     pagecolor="#858585"
     bordercolor="#666666"
     borderopacity="1"
     objecttolerance="10"
     gridtolerance="10"
     guidetolerance="10"
     inkscape:pageopacity="0"
     inkscape:pageshadow="2"
     inkscape:window-width="1440"
     inkscape:window-height="824"
     id="namedview8"
     showgrid="false"
     inkscape:zoom="2.36"
     inkscape:cx="-117.32203"
     inkscape:cy="50"
     inkscape:window-x="0"
     inkscape:window-y="0"
     inkscape:window-maximized="1"
     inkscape:current-layer="svg2" /><g
     id="g10"
     transform="translate(5e-7,-10.642632)"><path
       inkscape:connector-curvature="0"
       style="fill:#ffffff;stroke-width:0.76863843"
       id="path4"
       d="m 47.999647,33.021977 c -2.731004,0 -4.868003,-2.139121 -4.868003,-4.86871 0,-2.731003 2.136999,-4.868002 4.868003,-4.868002 2.729588,0 4.868709,2.136999 4.868709,4.868002 0,2.729589 -2.139121,4.86871 -4.868709,4.86871 z" /><path
       inkscape:connector-curvature="0"
       style="fill:#ffffff;stroke-width:0.76863843"
       id="path6"
       d="M 66.824969,59.861755 63.63432,59.564046 63.56219,48.212209 57.746611,44.532214 c 0,0 0.942628,7.456869 0.942628,11.374465 0,3.416229 0.121628,6.17764 0.121628,6.17764 L 66.255715,91.820572 60.998075,94 52.6601,66.809477 46.865028,74.180781 40.260979,92.804921 34.325184,90.432442 40.990048,70.657066 48.29983,59.112886 46.248395,43.980639 41.680225,53.558243 29.92602,57.59464 28.291803,54.625328 39.064486,48.34091 c 0,0 2.610081,-6.94348 4.745666,-11.287486 0.726241,-1.478645 3.674338,-1.961627 4.875074,-2.051434 3.462193,-0.255988 5.25269,0.916463 8.123708,2.426929 2.867483,1.506224 10.899262,7.58557 10.899262,7.58557 z" /></g></svg>