<?xml version="1.0" encoding="UTF-8" standalone="no"?>
<svg
   xmlns:dc="http://purl.org/dc/elements/1.1/"
   xmlns:cc="http://creativecommons.org/ns#"
   xmlns:rdf="http://www.w3.org/1999/02/22-rdf-syntax-ns#"
   xmlns:svg="http://www.w3.org/2000/svg"
   xmlns="http://www.w3.org/2000/svg"
   xmlns:sodipodi="http://sodipodi.sourceforge.net/DTD/sodipodi-0.dtd"
   xmlns:inkscape="http://www.inkscape.org/namespaces/inkscape"
   version="1.1"
   x="0px"
   y="0px"
   viewBox="0 0 24 24"
   enable-background="new 0 0 65 65"
   xml:space="preserve"
   id="svg10"
   sodipodi:docname="geoEnabled.svg"
   width="24"
   height="24"
   inkscape:version="0.92.5 (2060ec1f9f, 2020-04-08)"><metadata
     id="metadata16"><rdf:RDF><cc:Work
         rdf:about=""><dc:format>image/svg+xml</dc:format><dc:type
           rdf:resource="http://purl.org/dc/dcmitype/StillImage" /><dc:title /></cc:Work></rdf:RDF></metadata><defs
     id="defs14" /><sodipodi:namedview
     pagecolor="#ffffff"
     bordercolor="#666666"
     borderopacity="1"
     objecttolerance="10"
     gridtolerance="10"
     guidetolerance="10"
     inkscape:pageopacity="0"
     inkscape:pageshadow="2"
     inkscape:window-width="1680"
     inkscape:window-height="974"
     id="namedview12"
     showgrid="false"
     inkscape:zoom="32.861972"
     inkscape:cx="13.499515"
     inkscape:cy="9.5640081"
     inkscape:window-x="0"
     inkscape:window-y="0"
     inkscape:window-maximized="1"
     inkscape:current-layer="g69" /><g
     id="g20"
     transform="translate(-2.0656779,-38.831038)"><g
       id="g69"
       transform="matrix(0.45964057,0,0,0.45964057,31.475717,31.771697)"><path
         style="fill:#2a7fff"
         d="m -12.127914,39.85164 -3.717593,-0.06086 c -0.741,-10.986 -9.546,-19.791 -20.532,-20.532 v -3.900174 l -3.060861,-0.01522 0.06086,3.915389 c -10.986,0.741 -19.791,9.546 -20.532,20.532 l -3.717593,0.06086 v 2.817418 l 3.717593,0.121722 c 0.741,10.986 9.546,19.791 20.532,20.532 l 0.06455,4.18401 2.996311,0.08133 -0.06086,-4.26534 c 10.986,-0.741 19.791,-9.546 20.532,-20.532 l 3.656732,0.06086 z m -25.749593,20.528139 c -10.526,0 -19.089,-8.563 -19.089,-19.089 0,-10.526 8.563,-19.089 19.089,-19.089 10.525,0 19.089,8.563 19.089,19.089 0,10.525 -8.564,19.089 -19.089,19.089 z"
         id="path4"
         inkscape:connector-curvature="0"
         sodipodi:nodetypes="cccccccccccccccccsssss" /></g></g></svg>