<?xml version="1.0" encoding="UTF-8" standalone="no"?>
<svg
   xmlns:dc="http://purl.org/dc/elements/1.1/"
   xmlns:cc="http://creativecommons.org/ns#"
   xmlns:rdf="http://www.w3.org/1999/02/22-rdf-syntax-ns#"
   xmlns:svg="http://www.w3.org/2000/svg"
   xmlns="http://www.w3.org/2000/svg"
   xmlns:sodipodi="http://sodipodi.sourceforge.net/DTD/sodipodi-0.dtd"
   xmlns:inkscape="http://www.inkscape.org/namespaces/inkscape"
   height="44px"
   width="30px"
   version="1.1"
   viewBox="0 0 29.988946 43.988056"
   id="svg16"
   sodipodi:docname="new_ATM.svg"
   inkscape:version="0.92.5 (2060ec1f9f, 2020-04-08)">
  <metadata
     id="metadata20">
    <rdf:RDF>
      <cc:Work
         rdf:about="">
        <dc:format>image/svg+xml</dc:format>
        <dc:type
           rdf:resource="http://purl.org/dc/dcmitype/StillImage" />
        <dc:title />
      </cc:Work>
    </rdf:RDF>
  </metadata>
  <sodipodi:namedview
     pagecolor="#ffffff"
     bordercolor="#666666"
     borderopacity="1"
     objecttolerance="10"
     gridtolerance="10"
     guidetolerance="10"
     inkscape:pageopacity="0"
     inkscape:pageshadow="2"
     inkscape:window-width="1680"
     inkscape:window-height="974"
     id="namedview18"
     showgrid="false"
     inkscape:zoom="4.0678609"
     inkscape:cx="21.700314"
     inkscape:cy="78.830613"
     inkscape:window-x="0"
     inkscape:window-y="0"
     inkscape:window-maximized="1"
     inkscape:current-layer="svg14" />
  <defs
     id="defs7">
    <radialGradient
       id="a"
       gradientUnits="userSpaceOnUse"
       cy="127.6"
       cx="-42.75"
       gradientTransform="matrix(4.2749643,0,0,0.98162997,197.99835,-83.706911)"
       r="2.3840001">
      <stop
         stop-color="#010101"
         offset="0"
         id="stop2" />
      <stop
         stop-opacity="0"
         stop-color="#090909"
         offset="1"
         id="stop4" />
    </radialGradient>
  </defs>
  <path
     d="m 14.994475,0.0864983 c -8.2386816,0 -14.91684362,6.6781619 -14.91684362,14.9168417 0.008545,2.561815 0.67294669,5.079165 1.93504232,7.306643 L 15.595595,40.920764 27.955752,22.365563 C 29.233667,20.121838 29.907468,17.585676 29.911315,15.00334 29.911273,6.7646602 23.233154,0.0864983 14.994475,0.0864983 Z"
     id="path9"
     inkscape:connector-curvature="0"
     style="fill:#FF4300;stroke-width:4.27539158" />
  <circle
     cy="15.050359"
     cx="14.994473"
     r="9.4272394"
     id="circle11"
     style="fill:#f9f3f3;stroke-width:4.27539158" />
  <ellipse
     rx="10.192533"
     ry="2.3394945"
     cy="41.562065"
     cx="14.994473"
     id="ellipse13"
     style="opacity:0.4;fill:url(#a);stroke-width:4.27496433" />
  <rect
     id="replace"
     rx="0"
     ry="0"
     height="13.36915"
     width="13.471761"
     y="8.2097387"
     x="8.2585926"
     style="fill:none;stroke-width:4.27539158" />
  <svg
     inkscape:version="0.92.5 (2060ec1f9f, 2020-04-08)"
     height="100"
     width="100"
     sodipodi:docname="ATM.svg"
     id="svg14"
     version="1.1"
     y="10"
     x="8.5"
     viewBox="0 0 100 100"
     data-name="Layer 1">
    <metadata
       id="metadata314">
      <rdf:RDF>
        <cc:Work
           rdf:about="">
          <dc:format>image/svg+xml</dc:format>
          <dc:type
             rdf:resource="http://purl.org/dc/dcmitype/StillImage" />
          <dc:title>97</dc:title>
        </cc:Work>
      </rdf:RDF>
    </metadata>
    <defs
       id="defs18" />
    <sodipodi:namedview
       inkscape:current-layer="svg14"
       inkscape:window-maximized="0"
       inkscape:window-y="0"
       inkscape:window-x="0"
       inkscape:cy="62.5"
       inkscape:cx="63.516675"
       inkscape:zoom="1.888"
       showgrid="false"
       id="namedview16"
       inkscape:window-height="480"
       inkscape:window-width="691"
       inkscape:pageshadow="2"
       inkscape:pageopacity="0"
       guidetolerance="10"
       gridtolerance="10"
       objecttolerance="10"
       borderopacity="1"
       bordercolor="#666666"
       pagecolor="#ffffff" />
    <title
       id="title2">97</title>
    <g
       transform="matrix(0.14239618,0,0,0.14239618,-0.62533591,1.9029838)"
       id="g25">
      <path
         d="M 93,-20 H 7 a 2.0001,2.0001 0 0 0 -2,2 v 30 a 2.0001,2.0001 0 0 0 2,2 h 9 V 10 H 9 v -26 h 82 v 26 h -7 v 4 h 9 a 2.0001,2.0001 0 0 0 2,-2 v -30 a 2.0001,2.0001 0 0 0 -2,-2 z"
         id="path4"
         inkscape:connector-curvature="0" />
      <path
         d="M 81.99866,-8 H 18.00134 A 1.00132,1.00132 0 0 0 17,-6.99866 V 0.99866 A 1.00132,1.00132 0 0 0 18.00134,2 H 22 V 60.99609 A 9.014,9.014 0 0 0 31.00391,70 H 68.99609 A 9.014,9.014 0 0 0 78,60.99609 V 2 h 3.99866 A 1.00132,1.00132 0 0 0 83,0.99866 V -6.99866 A 1.00132,1.00132 0 0 0 81.99866,-8 Z M 26,60.99609 V 2 h 9 V 66 H 31.00391 A 5.01006,5.01006 0 0 1 26,60.99609 Z m 48,0 A 5.01006,5.01006 0 0 1 68.99609,66 H 43 V 2 h 31 z"
         id="path6"
         inkscape:connector-curvature="0" />
      <rect
         x="52"
         y="7"
         width="13"
         height="13"
         rx="2.3636501"
         id="rect8" />
    </g>
  </svg>
</svg>
