<?xml version="1.0" encoding="UTF-8" standalone="no"?>
<svg
   xmlns:dc="http://purl.org/dc/elements/1.1/"
   xmlns:cc="http://creativecommons.org/ns#"
   xmlns:rdf="http://www.w3.org/1999/02/22-rdf-syntax-ns#"
   xmlns:svg="http://www.w3.org/2000/svg"
   xmlns="http://www.w3.org/2000/svg"
   xmlns:sodipodi="http://sodipodi.sourceforge.net/DTD/sodipodi-0.dtd"
   xmlns:inkscape="http://www.inkscape.org/namespaces/inkscape"
   height="44px"
   width="30px"
   version="1.1"
   viewBox="0 0 29.988946 43.988056"
   id="svg476"
   sodipodi:docname="Bicycle Shop.svg"
   inkscape:version="0.92.5 (2060ec1f9f, 2020-04-08)">
  <metadata
     id="metadata20">
    <rdf:RDF>
      <cc:Work
         rdf:about="">
        <dc:format>image/svg+xml</dc:format>
        <dc:type
           rdf:resource="http://purl.org/dc/dcmitype/StillImage" />
        <dc:title />
      </cc:Work>
    </rdf:RDF>
  </metadata>
  <sodipodi:namedview
     pagecolor="#ffffff"
     bordercolor="#666666"
     borderopacity="1"
     objecttolerance="10"
     gridtolerance="10"
     guidetolerance="10"
     inkscape:pageopacity="0"
     inkscape:pageshadow="2"
     inkscape:window-width="1680"
     inkscape:window-height="974"
     id="namedview18"
     showgrid="false"
     inkscape:zoom="11.505648"
     inkscape:cx="0.55526217"
     inkscape:cy="45.471444"
     inkscape:window-x="0"
     inkscape:window-y="0"
     inkscape:window-maximized="1"
     inkscape:current-layer="g10" />
  <defs
     id="defs7">
    <radialGradient
       id="a"
       gradientUnits="userSpaceOnUse"
       cy="127.6"
       cx="-42.75"
       gradientTransform="matrix(4.2749643,0,0,0.98162997,197.99835,-82.088795)"
       r="2.3840001">
      <stop
         stop-color="#010101"
         offset="0"
         id="stop2" />
      <stop
         stop-opacity="0"
         stop-color="#090909"
         offset="1"
         id="stop4" />
    </radialGradient>
  </defs>
  <g
     id="g26"
     transform="translate(-2.0760358e-7,-1.6181156)">
    <path
       style="fill:#FF4300;stroke-width:4.27539158"
       inkscape:connector-curvature="0"
       id="path9"
       d="m 14.994475,1.7046139 c -8.2386814,0 -14.91684341,6.6781619 -14.91684341,14.9168421 0.008545,2.561815 0.67294669,5.079165 1.93504231,7.306643 L 15.595595,42.53888 27.955752,23.983679 c 1.277915,-2.243725 1.951716,-4.779887 1.955563,-7.362223 C 29.911273,8.3827758 23.233154,1.7046139 14.994475,1.7046139 Z" />
    <circle
       style="fill:#f9f3f3;stroke-width:4.27539158"
       id="circle11"
       r="9.4272394"
       cx="14.994473"
       cy="16.668474" />
    <ellipse
       style="opacity:0.4;fill:url(#a);stroke-width:4.27496433"
       id="ellipse13"
       cx="14.994473"
       cy="43.18018"
       ry="2.3394945"
       rx="10.192533" />
    <rect
       style="fill:none;stroke-width:4.27539158"
       x="8.2585926"
       y="9.8278542"
       width="13.471761"
       height="13.36915"
       ry="0"
       rx="0"
       id="replace" />
    <svg
       viewBox="0 0 60 60"
       version="1.1"
       x="8.5"
       y="10"
       id="svg16"
       sodipodi:docname="Bicycle Shop.svg"
       width="60"
       height="60"
       inkscape:version="0.92.5 (2060ec1f9f, 2020-04-08)">
      <metadata
         id="metadata22">
        <rdf:RDF>
          <cc:Work
             rdf:about="">
            <dc:format>image/svg+xml</dc:format>
            <dc:type
               rdf:resource="http://purl.org/dc/dcmitype/StillImage" />
            <dc:title>bike black</dc:title>
          </cc:Work>
        </rdf:RDF>
      </metadata>
      <defs
         id="defs20" />
      <sodipodi:namedview
         pagecolor="#ffffff"
         bordercolor="#666666"
         borderopacity="1"
         objecttolerance="10"
         gridtolerance="10"
         guidetolerance="10"
         inkscape:pageopacity="0"
         inkscape:pageshadow="2"
         inkscape:window-width="1440"
         inkscape:window-height="824"
         id="namedview467"
         showgrid="false"
         inkscape:zoom="5.2444444"
         inkscape:cx="30"
         inkscape:cy="22.5"
         inkscape:window-x="0"
         inkscape:window-y="0"
         inkscape:window-maximized="1"
         inkscape:current-layer="svg16" />
      <title
         id="title2">bike black</title>
      <desc
         id="desc4">Created with Sketch.</desc>
      <g
         id="g10"
         style="fill:none;fill-rule:evenodd;stroke:none;stroke-width:1"
         transform="matrix(0.28519385,0,0,0.28519385,-2.0613422,0.81132761)">
        <g
           transform="matrix(0.74610766,0,0,0.74610766,-104.29938,-8.9655029)"
           id="g8"
           style="fill:#000000;fill-rule:nonzero">
          <path
             d="m 197.5274,32.011948 c -1.83298,0 -3.56862,0.408002 -5.13823,1.122414 l -2.77769,-4.818188 c -0.002,-0.0033 -0.003,-0.0057 -0.005,-0.009 l -2.78342,-4.829658 h 5.10715 c 0.63226,0 1.14674,0.515327 1.14674,1.148631 0,0.633304 -0.51448,1.14945 -1.14674,1.14945 -0.67806,0 -1.22689,0.550557 -1.22689,1.228921 0,0.678364 0.54883,1.228921 1.22689,1.228921 1.98512,0 3.60053,-1.618898 3.60053,-3.607292 0,-1.904008 -1.48536,-3.451628 -3.3527,-3.581894 -0.0802,-0.01639 -0.16276,-0.0254 -0.24783,-0.0254 h -7.13479 c -0.67807,0 -1.2269,0.550557 -1.2269,1.228921 0,0.0213 0.005,0.04096 0.007,0.06227 -0.0213,0.242507 0.0278,0.493207 0.15786,0.720148 l 2.67544,4.641223 h -14.23196 l -2.42843,-4.213559 h 1.43464 c 0.67807,0 1.2269,-0.550556 1.2269,-1.22892 C 172.40962,21.550556 171.86079,21 171.18272,21 h -7.11925 c -0.67806,0 -1.22689,0.550556 -1.22689,1.228921 0,0.678364 0.54883,1.22892 1.22689,1.22892 h 2.8513 l 3.13676,5.44248 -2.43988,4.233222 c -1.56879,-0.714413 -3.30525,-1.122414 -5.13823,-1.122414 -6.87797,0 -12.47342,5.604697 -12.47342,12.494026 0,6.889328 5.59545,12.494026 12.47342,12.494026 6.46327,0 11.7929,-4.950912 12.41125,-11.265106 h 5.57746 c 0,0 0,0 8.2e-4,0 0,0 0,0 8.2e-4,0 0.002,0 0.002,-8.19e-4 0.004,-8.19e-4 0.0965,-8.19e-4 0.18976,-0.01475 0.27974,-0.03605 0.0114,-0.0025 0.0237,-0.0033 0.0352,-0.0066 0.0172,-0.0049 0.0319,-0.01393 0.0491,-0.01966 0.0695,-0.02212 0.1366,-0.04998 0.2004,-0.08357 0.0139,-0.0074 0.0294,-0.0098 0.0434,-0.01802 0.002,-0.0016 0.005,-0.0041 0.007,-0.0049 0.01,-0.0057 0.0188,-0.01393 0.0286,-0.01966 0.0368,-0.02294 0.0703,-0.04916 0.10469,-0.07619 0.0294,-0.02294 0.0589,-0.04588 0.0859,-0.07046 0.0123,-0.01229 0.0262,-0.02294 0.0376,-0.03523 0.0131,-0.01311 0.0237,-0.02949 0.036,-0.04342 0.002,-0.0033 0.005,-0.0066 0.007,-0.009 0.0262,-0.03031 0.0523,-0.05899 0.0753,-0.09176 0.0229,-0.03195 0.0417,-0.06636 0.0613,-0.100772 0.002,-0.0049 0.006,-0.009 0.008,-0.01393 0.007,-0.01147 0.0164,-0.01966 0.0229,-0.03195 l 7.03992,-13.610706 1.67512,2.905988 c -3.14985,2.270226 -5.21267,5.963542 -5.21267,10.138595 C 185.05316,51.395303 190.64862,57 197.52658,57 204.40455,57 210,51.395303 210,44.505974 210,37.616645 204.40537,32.011948 197.5274,32.011948 Z m -35.05317,22.530211 c -5.52511,0 -10.01963,-4.501946 -10.01963,-10.036185 0,-5.534239 4.49452,-10.036185 10.01963,-10.036185 1.38639,0 2.70735,0.28429 3.90971,0.796341 l -4.9722,8.625384 c -0.2192,0.380146 -0.2192,0.848774 0,1.22892 0.21921,0.380146 0.62408,0.614461 1.06249,0.614461 h 9.93621 c -0.60772,4.955007 -4.82742,8.807264 -9.93621,8.807264 z m 2.12498,-11.265106 3.90153,-6.769714 c 2.11107,1.600055 3.57107,4.010378 3.9097,6.769714 z m 10.28628,0 c -0.35907,-3.667099 -2.3131,-6.865569 -5.1505,-8.909674 l 1.73401,-3.008398 6.86979,11.918072 z m 5.51857,-1.330511 -6.8109,-11.816481 h 12.92328 z m 17.12334,12.595617 c -5.52511,0 -10.01963,-4.501946 -10.01963,-10.036185 0,-3.266471 1.57288,-6.165085 3.99313,-7.998635 l 4.96483,8.613095 c 0.22738,0.394074 0.63962,0.614461 1.06331,0.614461 0.20775,0 0.41878,-0.05243 0.61262,-0.164676 0.58646,-0.339182 0.78767,-1.090462 0.44905,-1.678705 l -4.97137,-8.625384 c 1.20153,-0.512051 2.52331,-0.796341 3.9097,-0.796341 5.52511,0 10.01963,4.501946 10.01963,10.036185 0,5.534239 -4.49616,10.036185 -10.02127,10.036185 z"
             id="path6"
             inkscape:connector-curvature="0" />
        </g>
      </g>
    </svg>
  </g>
</svg>
