<?xml version="1.0" encoding="UTF-8" standalone="no"?>
<svg
   xmlns:dc="http://purl.org/dc/elements/1.1/"
   xmlns:cc="http://creativecommons.org/ns#"
   xmlns:rdf="http://www.w3.org/1999/02/22-rdf-syntax-ns#"
   xmlns:svg="http://www.w3.org/2000/svg"
   xmlns="http://www.w3.org/2000/svg"
   xmlns:sodipodi="http://sodipodi.sourceforge.net/DTD/sodipodi-0.dtd"
   xmlns:inkscape="http://www.inkscape.org/namespaces/inkscape"
   height="44px"
   width="30px"
   version="1.1"
   viewBox="0 0 29.988946 43.988056"
   id="svg16"
   sodipodi:docname="new_Cemetery.svg"
   inkscape:version="0.92.5 (2060ec1f9f, 2020-04-08)">
  <metadata
     id="metadata20">
    <rdf:RDF>
      <cc:Work
         rdf:about="">
        <dc:format>image/svg+xml</dc:format>
        <dc:type
           rdf:resource="http://purl.org/dc/dcmitype/StillImage" />
        <dc:title />
      </cc:Work>
    </rdf:RDF>
  </metadata>
  <sodipodi:namedview
     pagecolor="#ffffff"
     bordercolor="#666666"
     borderopacity="1"
     objecttolerance="10"
     gridtolerance="10"
     guidetolerance="10"
     inkscape:pageopacity="0"
     inkscape:pageshadow="2"
     inkscape:window-width="1680"
     inkscape:window-height="974"
     id="namedview18"
     showgrid="false"
     inkscape:zoom="4.0678609"
     inkscape:cx="0.9366743"
     inkscape:cy="83.987249"
     inkscape:window-x="0"
     inkscape:window-y="0"
     inkscape:window-maximized="1"
     inkscape:current-layer="svg2" />
  <defs
     id="defs7">
    <radialGradient
       id="a"
       gradientUnits="userSpaceOnUse"
       cy="127.6"
       cx="-42.75"
       gradientTransform="matrix(4.2749643,0,0,0.98162997,197.99835,-82.088795)"
       r="2.3840001">
      <stop
         stop-color="#010101"
         offset="0"
         id="stop2" />
      <stop
         stop-opacity="0"
         stop-color="#090909"
         offset="1"
         id="stop4" />
    </radialGradient>
  </defs>
  <g
     id="g26"
     transform="translate(-2.0760358e-7,-1.6181156)">
    <path
       style="fill:#7b65ff;stroke-width:4.27539158"
       inkscape:connector-curvature="0"
       id="path9"
       d="m 14.994475,1.7046139 c -8.2386814,0 -14.91684341,6.6781619 -14.91684341,14.9168421 0.008545,2.561815 0.67294669,5.079165 1.93504231,7.306643 L 15.595595,42.53888 27.955752,23.983679 c 1.277915,-2.243725 1.951716,-4.779887 1.955563,-7.362223 C 29.911273,8.3827758 23.233154,1.7046139 14.994475,1.7046139 Z" />
    <circle
       style="fill:#f9f3f3;stroke-width:4.27539158"
       id="circle11"
       r="9.4272394"
       cx="14.994473"
       cy="16.668474" />
    <ellipse
       style="opacity:0.4;fill:url(#a);stroke-width:4.27496433"
       id="ellipse13"
       cx="14.994473"
       cy="43.18018"
       ry="2.3394945"
       rx="10.192533" />
    <rect
       style="fill:none;stroke-width:4.27539158"
       x="8.2585926"
       y="9.8278542"
       width="13.471761"
       height="13.36915"
       ry="0"
       rx="0"
       id="replace" />
    <svg
       version="1.1"
       x="8.5"
       y="10"
       viewBox="0 0 90 112.5"
       enable-background="new 0 0 90 90"
       xml:space="preserve"
       id="svg2"
       inkscape:version="0.91 r13725"
       sodipodi:docname="Cemetery.svg"><metadata
         id="metadata16"><rdf:RDF><cc:Work
             rdf:about=""><dc:format>image/svg+xml</dc:format><dc:type
               rdf:resource="http://purl.org/dc/dcmitype/StillImage" /></cc:Work></rdf:RDF></metadata><defs
         id="defs14" /><sodipodi:namedview
         pagecolor="#ffffff"
         bordercolor="#666666"
         borderopacity="1"
         objecttolerance="10"
         gridtolerance="10"
         guidetolerance="10"
         inkscape:pageopacity="0"
         inkscape:pageshadow="2"
         inkscape:window-width="668"
         inkscape:window-height="480"
         id="namedview12"
         showgrid="false"
         inkscape:zoom="2.0977778"
         inkscape:cx="45"
         inkscape:cy="56.25"
         inkscape:window-x="75"
         inkscape:window-y="34"
         inkscape:window-maximized="0"
         inkscape:current-layer="svg2" /><g
         id="g658"
         transform="matrix(0.43163391,0,0,0.43163391,0.06707498,-10.216782)"><polygon
           id="polygon4"
           points="57.813,32.726 57.813,40.554 48.796,40.554 48.796,64.247 40.97,64.247 40.97,40.554 31.954,40.554 31.954,32.726 40.97,32.726 40.97,22.628 48.796,22.628 48.796,32.726 " /><path
           id="path6"
           d="M 80.964,69.614 V 37.675 c 0,-19.893 -16.186,-36.08 -36.078,-36.08 -19.898,0 -36.08,16.188 -36.08,36.08 v 31.951 c -3.23,0.205 -5.787,2.893 -5.787,6.176 v 6.41 c 0,3.42 2.771,6.193 6.191,6.193 h 5.787 59.775 6.018 c 3.42,0 6.191,-2.773 6.191,-6.193 v -6.41 c 0,-3.362 -2.677,-6.098 -6.017,-6.188 z M 44.886,7.786 c 16.504,0 29.887,13.382 29.887,29.889 V 72.706 H 14.997 V 37.675 C 14.997,21.168 28.378,7.786 44.886,7.786 Z M 80.79,82.212 H 9.21 v -6.41 h 71.58 z"
           inkscape:connector-curvature="0" /></g></svg>  </g>
</svg>
