<?xml version="1.0" encoding="UTF-8" standalone="no"?>
<svg
   xmlns:dc="http://purl.org/dc/elements/1.1/"
   xmlns:cc="http://creativecommons.org/ns#"
   xmlns:rdf="http://www.w3.org/1999/02/22-rdf-syntax-ns#"
   xmlns:svg="http://www.w3.org/2000/svg"
   xmlns="http://www.w3.org/2000/svg"
   xmlns:sodipodi="http://sodipodi.sourceforge.net/DTD/sodipodi-0.dtd"
   xmlns:inkscape="http://www.inkscape.org/namespaces/inkscape"
   height="44px"
   width="30px"
   version="1.1"
   viewBox="0 0 29.988946 43.988056"
   id="svg16"
   sodipodi:docname="new_Church.svg"
   inkscape:version="0.92.5 (2060ec1f9f, 2020-04-08)">
  <metadata
     id="metadata20">
    <rdf:RDF>
      <cc:Work
         rdf:about="">
        <dc:format>image/svg+xml</dc:format>
        <dc:type
           rdf:resource="http://purl.org/dc/dcmitype/StillImage" />
        <dc:title />
      </cc:Work>
    </rdf:RDF>
  </metadata>
  <sodipodi:namedview
     pagecolor="#ffffff"
     bordercolor="#666666"
     borderopacity="1"
     objecttolerance="10"
     gridtolerance="10"
     guidetolerance="10"
     inkscape:pageopacity="0"
     inkscape:pageshadow="2"
     inkscape:window-width="1680"
     inkscape:window-height="974"
     id="namedview18"
     showgrid="false"
     inkscape:zoom="11.505648"
     inkscape:cx="15.883548"
     inkscape:cy="26.166617"
     inkscape:window-x="0"
     inkscape:window-y="0"
     inkscape:window-maximized="1"
     inkscape:current-layer="svg8" />
  <defs
     id="defs7">
    <radialGradient
       id="a"
       gradientUnits="userSpaceOnUse"
       cy="127.6"
       cx="-42.75"
       gradientTransform="matrix(4.2749643,0,0,0.98162997,197.99835,-82.088795)"
       r="2.3840001">
      <stop
         stop-color="#010101"
         offset="0"
         id="stop2" />
      <stop
         stop-opacity="0"
         stop-color="#090909"
         offset="1"
         id="stop4" />
    </radialGradient>
  </defs>
  <g
     id="g26"
     transform="translate(-2.0760358e-7,-1.6181156)">
    <path
       style="fill:#7b65ff;stroke-width:4.27539158"
       inkscape:connector-curvature="0"
       id="path9"
       d="m 14.994475,1.7046139 c -8.2386814,0 -14.91684341,6.6781619 -14.91684341,14.9168421 0.008545,2.561815 0.67294669,5.079165 1.93504231,7.306643 L 15.595595,42.53888 27.955752,23.983679 c 1.277915,-2.243725 1.951716,-4.779887 1.955563,-7.362223 C 29.911273,8.3827758 23.233154,1.7046139 14.994475,1.7046139 Z" />
    <circle
       style="fill:#f9f3f3;stroke-width:4.27539158"
       id="circle11"
       r="9.4272394"
       cx="14.994473"
       cy="16.668474" />
    <ellipse
       style="opacity:0.4;fill:url(#a);stroke-width:4.27496433"
       id="ellipse13"
       cx="14.994473"
       cy="43.18018"
       ry="2.3394945"
       rx="10.192533" />
    <rect
       style="fill:none;stroke-width:4.27539158"
       x="8.2585926"
       y="9.8278542"
       width="13.471761"
       height="13.36915"
       ry="0"
       rx="0"
       id="replace" />
    <svg
       version="1.1"
       x="8.5"
       y="10"
       viewBox="0 0 100 100"
       xml:space="preserve"
       id="svg8"
       sodipodi:docname="Church.svg"
       width="100"
       height="100"
       inkscape:version="0.92.5 (2060ec1f9f, 2020-04-08)"><metadata
         id="metadata14"><rdf:RDF><cc:Work
             rdf:about=""><dc:format>image/svg+xml</dc:format><dc:type
               rdf:resource="http://purl.org/dc/dcmitype/StillImage" /><dc:title /></cc:Work></rdf:RDF></metadata><defs
         id="defs12" /><sodipodi:namedview
         pagecolor="#ffffff"
         bordercolor="#666666"
         borderopacity="1"
         objecttolerance="10"
         gridtolerance="10"
         guidetolerance="10"
         inkscape:pageopacity="0"
         inkscape:pageshadow="2"
         inkscape:window-width="1680"
         inkscape:window-height="884"
         id="namedview10"
         showgrid="false"
         inkscape:zoom="1.475"
         inkscape:cx="357.22885"
         inkscape:cy="144.02759"
         inkscape:window-x="0"
         inkscape:window-y="0"
         inkscape:window-maximized="1"
         inkscape:current-layer="svg8" /><path
         d="M 12.065887,7.6132706 C 11.798977,7.4467701 11.530796,7.2802695 11.263887,7.1124969 10.825392,6.8392319 10.385627,6.5646964 9.9471307,6.2914314 9.8772237,6.2482184 9.8073217,6.2037326 9.7374167,6.1605188 V 5.7207532 c 0,-0.2847044 0.0089,-0.569408 0.00129,-0.8541119 0,-0.00381 0,-0.00763 0,-0.01271 0,-0.00508 -0.00129,-0.0089 -0.00129,-0.013981 0,0 0,0 0,0 0,-0.045756 -0.019065,-0.090241 -0.054649,-0.1207449 C 9.3383232,4.4179784 8.9951529,4.1167516 8.6507121,3.816796 8.1029114,3.33763 7.5551109,2.8584635 7.0073104,2.379297 6.9640966,2.341167 6.9208828,2.3043073 6.8776682,2.2661774 V 1.4679903 h 0.4334109 c 0.1995468,0 0.3901963,-0.1753978 0.3813,-0.3812996 -0.0089,-0.20717268 -0.1677718,-0.38129958 -0.3813,-0.38129958 H 6.8763978 V 0.30248453 c 0,-0.19954681 -0.1753977,-0.39019661 -0.3812999,-0.38129951 -0.2071727,0.0089 -0.3813,0.1677717 -0.3813,0.38129951 V 0.70539112 H 5.6803878 c -0.1995475,0 -0.3901971,0.1753979 -0.3812999,0.38129958 0.0089,0.2071727 0.167771,0.3812996 0.3812999,0.3812996 H 6.1137979 V 2.2661774 C 6.0172027,2.351335 5.9193354,2.4352209 5.8227394,2.5203778 5.4414394,2.8546505 5.0588691,3.1889232 4.6762979,3.5231957 4.324232,3.8307775 3.972165,4.1383592 3.6200983,4.4472119 3.5285864,4.5272848 3.4370745,4.6073577 3.3455624,4.6887017 3.2870964,4.7395414 3.2540506,4.8030914 3.2540506,4.8831644 V 6.1630605 C 3.0100186,6.3155804 2.7647158,6.4681004 2.5206841,6.6206204 2.0821894,6.8938846 1.6424238,7.16842 1.2039291,7.4416851 1.1060624,7.502694 1.0081955,7.5637014 0.90905734,7.6247095 c -0.06355,0.0305 -0.1093058,0.092782 -0.1093058,0.1703127 V 11.87366 c 0,0.10295 0.092783,0.183023 0.1957338,0.183023 H 5.3511981 V 9.9277595 c 0,-0.324104 -0.00251,-0.6482095 -0.00129,-0.9723136 0,-0.00638 -0.00129,-0.011444 -0.00129,-0.017796 0,-0.035592 0.00129,-0.071176 0.0038,-0.1067636 0.00129,-0.020334 0.0038,-0.039398 0.00509,-0.05974 -0.00129,0.0038 -0.00129,0.00638 -0.00129,0.00638 0,-0.00129 0.00129,-0.013981 0.00251,-0.016519 0,0 0,0 0,0 0,0 0,0.0038 -0.00129,0.0089 0,0 0,0.00129 0,0.00129 v -0.00251 c 0.00251,-0.013981 0.00509,-0.027963 0.0076,-0.043213 0.016519,-0.087699 0.041944,-0.1703143 0.073721,-0.252929 0,-0.00129 0.00129,-0.00251 0.00129,-0.00251 0,0 0,0.00129 -0.00129,0.00129 -0.00251,0.00509 -0.0038,0.0076 -0.0038,0.0076 0.00129,-0.00251 0.010167,-0.024148 0.00509,-0.010159 0.0038,-0.00889 0.0089,-0.019065 0.012713,-0.027963 0.0076,-0.017796 0.016519,-0.035592 0.025417,-0.052111 0.020334,-0.039398 0.043213,-0.077528 0.067361,-0.1156616 0.012713,-0.019065 0.024148,-0.036861 0.03813,-0.054657 0.00509,-0.0076 0.011436,-0.016519 0.017796,-0.024148 -0.00129,0.00251 -0.0038,0.0038 -0.0038,0.00509 0.00129,-0.00129 0.00251,-0.0038 0.0038,-0.00509 0,0 0,-0.00129 0.00129,-0.00129 0.00129,-0.00129 0.00129,-0.00129 0.00251,-0.00251 0.027963,-0.034315 0.057194,-0.067361 0.087699,-0.099138 0.026694,-0.027963 0.054649,-0.054657 0.085156,-0.080074 0.013981,-0.012713 0.029232,-0.024148 0.043213,-0.035592 h 0.00129 v 0 c 0,0 0.036861,-0.027963 0.041944,-0.031777 0.071176,-0.049565 0.1461653,-0.09024 0.224967,-0.1270998 0,0 0,0 0,0 0.0038,-0.00129 0.012713,-0.00509 0.01525,-0.00638 0.00509,-0.00251 0.010167,-0.0038 0.016527,-0.00638 0.019065,-0.0076 0.036861,-0.013981 0.055925,-0.019065 0.043213,-0.013981 0.087699,-0.025417 0.1321839,-0.035584 0.022879,-0.00509 0.044482,-0.0089 0.067361,-0.012713 0.00251,0 0.00509,-0.00129 0.0089,-0.00129 0,0 0.00129,0 0.00129,0 0,0 0,0 0.00129,0 0,0 0.00129,0 0.00129,0 0,0 0.00129,0 0.00251,0 0,0 0.00129,0 0.00129,0 0,0 0,0 0.00129,0 0,0 0,0 0,0 0,0 0,0 0.00129,0 v 0 c 0,0 0.00129,0 0.00129,0 0,0 0.00129,0 0.00129,0 0.00251,0 0.0038,0 0.00509,0 0.047028,-0.00509 0.094054,-0.0076 0.1410811,-0.0089 0.047028,0 0.095325,0.00129 0.1423516,0.00509 0.00638,0 0.031777,0.0038 0.043213,0.00509 -0.00129,0 -0.00251,0 -0.0038,-0.00129 -0.00129,0 -0.00251,0 -0.00251,0 0.00129,0 0.0038,0 0.0076,0.00129 0.00129,0 0.00251,0 0.00251,0 0,0 -0.00129,0 -0.00129,0 0.00638,0.00129 0.013981,0.00251 0.016527,0.00251 0.013981,0.00251 0.027963,0.00509 0.041944,0.0076 0.041944,0.00889 0.083886,0.019065 0.124558,0.031777 0.019065,0.00638 0.03813,0.011444 0.057194,0.017796 0.010167,0.0038 0.021603,0.0076 0.031777,0.011444 0.00251,0 0.012713,0.00509 0.021611,0.0076 0,0 0,0 0,0 0,0 0.00129,0 0.0038,0.00129 0.00129,0 0.00251,0.00129 0.0038,0.00129 -0.00129,0 -0.0038,-0.00129 -0.00638,-0.00251 0.00638,0.0038 0.034315,0.01525 0.040675,0.017796 0.020334,0.010175 0.040675,0.019065 0.05974,0.030509 0.039398,0.020334 0.077528,0.043213 0.1143904,0.06863 0.019065,0.012713 0.036861,0.024148 0.054657,0.036861 0.00251,0.00129 0.0076,0.0076 0.010167,0.0076 v 0 c 0,0 0,0.00129 0,0.00129 0,0 0,0 0,0.00129 0,0 0,0 0.00129,0.00129 0,0 0.00129,0.00129 0.00129,0.00129 0,0 0,0 0,0 0.00251,0.00129 0.0038,0.0038 0.00638,0.00509 0.034315,0.027963 0.067361,0.057194 0.099138,0.08897 0.029232,0.029232 0.057194,0.05974 0.085157,0.091512 0.0038,0.00509 0.029232,0.036861 0.029232,0.036861 0.011436,0.01525 0.021611,0.029232 0.031777,0.04449 0.048296,0.069907 0.08897,0.1448932 0.1232867,0.2224236 0,0.00129 0.011436,0.029232 0.013981,0.036861 0.0076,0.02161 0.01525,0.043213 0.021611,0.063547 0.013981,0.043213 0.025417,0.0877 0.034315,0.1321856 0.0038,0.019065 0.0076,0.039398 0.011436,0.05974 0.00129,0.0038 0.00129,0.00638 0.00129,0.00889 0,0 0,0 0,0 0.00129,0.00889 0.00251,0.017796 0.00251,0.026694 0.00509,0.047028 0.00638,0.094054 0.00638,0.1410811 0,0.011444 0.00129,0.024148 0.0038,0.035584 v 3.0796508 h 1.0167995 c 0.2465735,0 0.4944183,0.01144 0.7397213,0.0038 0.0038,0 0.00638,-0.0013 0.010167,-0.0013 0.0076,0 0.013981,-0.0025 0.021611,-0.0025 h 2.4250704 c 0.102951,0 0.195734,-0.08007 0.195734,-0.183023 V 7.7926082 c 0,-0.076259 -0.05211,-0.1512487 -0.123287,-0.1792107 z M 7.3581059,5.142448 C 7.3466703,5.5364584 7.0645056,5.9012351 6.6692251,5.9736822 6.3095325,6.0397745 5.942214,5.8859833 5.7528349,5.5695043 5.5634549,5.251754 5.6079408,4.8501184 5.8405337,4.5679567 6.0616878,4.2997759 6.45951,4.193012 6.784886,4.3162989 7.1229713,4.443399 7.3492087,4.7560645 7.3593772,5.1182991 c 0,0.00381 0,0.00763 0,0.011439 -0.00129,0.00381 -0.00129,0.00763 -0.00129,0.01271 z"
         id="path2"
         inkscape:connector-curvature="0"
         style="stroke-width:0.01270999" /></svg>  </g>
</svg>
