<?xml version="1.0" encoding="UTF-8" standalone="no"?>
<svg
   xmlns:dc="http://purl.org/dc/elements/1.1/"
   xmlns:cc="http://creativecommons.org/ns#"
   xmlns:rdf="http://www.w3.org/1999/02/22-rdf-syntax-ns#"
   xmlns:svg="http://www.w3.org/2000/svg"
   xmlns="http://www.w3.org/2000/svg"
   xmlns:sodipodi="http://sodipodi.sourceforge.net/DTD/sodipodi-0.dtd"
   xmlns:inkscape="http://www.inkscape.org/namespaces/inkscape"
   height="44px"
   width="30px"
   version="1.1"
   viewBox="0 0 29.988946 43.988056"
   id="svg16"
   sodipodi:docname="new_Cafe.svg"
   inkscape:version="0.92.5 (2060ec1f9f, 2020-04-08)">
  <metadata
     id="metadata20">
    <rdf:RDF>
      <cc:Work
         rdf:about="">
        <dc:format>image/svg+xml</dc:format>
        <dc:type
           rdf:resource="http://purl.org/dc/dcmitype/StillImage" />
        <dc:title />
      </cc:Work>
    </rdf:RDF>
  </metadata>
  <sodipodi:namedview
     pagecolor="#ffffff"
     bordercolor="#666666"
     borderopacity="1"
     objecttolerance="10"
     gridtolerance="10"
     guidetolerance="10"
     inkscape:pageopacity="0"
     inkscape:pageshadow="2"
     inkscape:window-width="1680"
     inkscape:window-height="974"
     id="namedview18"
     showgrid="false"
     inkscape:zoom="4.0678609"
     inkscape:cx="67.481393"
     inkscape:cy="88.043417"
     inkscape:window-x="0"
     inkscape:window-y="0"
     inkscape:window-maximized="1"
     inkscape:current-layer="svg10" />
  <defs
     id="defs7">
    <radialGradient
       id="a"
       gradientUnits="userSpaceOnUse"
       cy="127.6"
       cx="-42.75"
       gradientTransform="matrix(4.2749643,0,0,0.98162997,197.99835,-83.706911)"
       r="2.3840001">
      <stop
         stop-color="#010101"
         offset="0"
         id="stop2" />
      <stop
         stop-opacity="0"
         stop-color="#090909"
         offset="1"
         id="stop4" />
    </radialGradient>
  </defs>
  <path
     d="m 14.994475,0.0864983 c -8.2386816,0 -14.91684362,6.6781619 -14.91684362,14.9168417 0.008545,2.561815 0.67294669,5.079165 1.93504232,7.306643 L 15.595595,40.920764 27.955752,22.365563 C 29.233667,20.121838 29.907468,17.585676 29.911315,15.00334 29.911273,6.7646602 23.233154,0.0864983 14.994475,0.0864983 Z"
     id="path9"
     inkscape:connector-curvature="0"
     style="fill:#FF4300;stroke-width:4.27539158" />
  <circle
     cy="15.050359"
     cx="14.994473"
     r="9.4272394"
     id="circle11"
     style="fill:#f9f3f3;stroke-width:4.27539158" />
  <ellipse
     rx="10.192533"
     ry="2.3394945"
     cy="41.562065"
     cx="14.994473"
     id="ellipse13"
     style="opacity:0.4;fill:url(#a);stroke-width:4.27496433" />
  <rect
     id="replace"
     rx="0"
     ry="0"
     height="13.36915"
     width="13.471761"
     y="8.2097387"
     x="8.2585926"
     style="fill:none;stroke-width:4.27539158" />
  <svg
     inkscape:version="0.92.5 (2060ec1f9f, 2020-04-08)"
     height="100"
     width="100"
     sodipodi:docname="Cafe.svg"
     id="svg10"
     version="1.1"
     y="10"
     x="8.5"
     viewBox="0 0 100 100"
     data-name="Layer 1">
    <metadata
       id="metadata16">
      <rdf:RDF>
        <cc:Work
           rdf:about="">
          <dc:format>image/svg+xml</dc:format>
          <dc:type
             rdf:resource="http://purl.org/dc/dcmitype/StillImage" />
          <dc:title>Artboard 12</dc:title>
        </cc:Work>
      </rdf:RDF>
    </metadata>
    <defs
       id="defs14" />
    <sodipodi:namedview
       inkscape:current-layer="svg10"
       inkscape:window-maximized="0"
       inkscape:window-y="0"
       inkscape:window-x="0"
       inkscape:cy="62.5"
       inkscape:cx="56.620763"
       inkscape:zoom="1.888"
       showgrid="false"
       id="namedview12"
       inkscape:window-height="480"
       inkscape:window-width="691"
       inkscape:pageshadow="2"
       inkscape:pageopacity="0"
       guidetolerance="10"
       gridtolerance="10"
       objecttolerance="10"
       borderopacity="1"
       bordercolor="#666666"
       pagecolor="#ffffff" />
    <title
       id="title2">Artboard 12</title>
    <path
       inkscape:connector-curvature="0"
       id="path4"
       d="m 6.9716647,0.8838845 a 0.52921772,0.52921772 0 0 0 -0.049059,0.037167 c -0.074328,0.060951 -0.1486566,0.1248714 -0.214066,0.1917669 l -0.013377,0.014868 C 6.6371887,1.1960684 6.5836699,1.2674241 6.5316399,1.3402655 l -0.00892,0.013377 c -0.023784,0.041621 -0.046083,0.083247 -0.068382,0.1293312 l -0.011892,0.025268 a 0.75963555,0.75963555 0 0 0 -0.049059,0.1144658 c -0.014868,0.044598 -0.028245,0.089194 -0.038652,0.133791 l -0.016353,0.066897 a 0.59462665,0.59462665 0 0 0 -0.00892,0.065412 v 0.016353 a 1.0405967,1.0405967 0 0 0 0,0.2794746 v 0.025269 a 0.91572507,0.91572507 0 0 0 0.019323,0.1040593 v 0.017838 c 0.00892,0.031214 0.017838,0.062436 0.025268,0.081761 a 0.96329521,0.96329521 0 0 0 0.078788,0.1783875 l 0.016353,0.02973 a 1.3602085,1.3602085 0 0 0 0.10406,0.1486566 l 0.011892,0.013376 0.014868,0.016353 a 1.1431698,1.1431698 0 0 0 0.096627,0.09514 l 0.014868,0.011892 a 0.97816087,0.97816087 0 0 0 0.084735,0.06392 0.96626832,0.96626832 0 0 0 0.1486565,0.083248 l 0.017838,0.00743 a 0.47421476,0.47421476 0 0 0 0.086221,0.028245 h 0.00743 A 0.21109246,0.21109246 0 0 0 7.228831,3.0498035 0.20663276,0.20663276 0 0 0 7.307619,2.9011469 v -0.059466 c 0,-0.017838 0,-0.041621 0,-0.069866 L 7.319511,2.6514025 7.335864,2.5592355 A 0.67044155,0.67044155 0 0 1 7.381947,2.422473 C 7.389377,2.409096 7.396815,2.395713 7.402761,2.383821 L 7.413168,2.370444 7.429521,2.34963 7.457766,2.321385 v 0 0 L 7.496418,2.29314 h 0.00892 L 7.555882,2.260434 A 0.7715281,0.7715281 0 0 0 7.625748,2.218813 0.50840579,0.50840579 0 0 0 7.717915,2.171246 L 7.769944,2.144486 7.854678,2.099888 8.0271204,2.004748 A 1.8032053,1.8032053 0 0 0 8.4507898,1.6405383 1.5296771,1.5296771 0 0 0 8.7391833,1.1291592 1.427104,1.427104 0 0 0 8.8105386,0.5925082 1.3973726,1.3973726 0 0 0 8.7094523,0.1465385 1.33791,1.33791 0 0 0 8.3467298,-0.3618676 1.0049191,1.0049191 0 0 0 8.2159117,-0.4584941 l -0.019323,-0.011892 A 0.52921772,0.52921772 0 0 0 8.1222607,-0.5105231 0.2096059,0.2096059 0 0 0 7.9453593,-0.5001161 0.20663276,0.20663276 0 0 0 7.8413,-0.3514596 l -0.010407,0.060951 c 0,0.014868 0,0.034191 -0.010407,0.05649 l -0.013377,0.066897 A 2.6431155,2.6431155 0 0 1 7.7015622,0.2178992 0.97964742,0.97964742 0 0 1 7.6212882,0.3873679 0.68233408,0.68233408 0 0 1 7.5261482,0.5092664 1.1401966,1.1401966 0 0 1 7.4057365,0.6148125 c -0.047567,0.035676 -0.101087,0.072841 -0.1605491,0.1100059 l -0.090681,0.044598 -0.023784,0.014868 -0.037167,0.023784 -0.078788,0.053513 z m 0.457863,1.4642681 z M 7.0801846,-1.7369326 a 1.9711873,1.9711873 0 0 1 0.011892,0.7432835 2.1153843,2.1153843 0 0 1 -0.2973138,0.7566628 2.4989185,2.4989185 0 0 1 -0.5098922,0.5857067 L 6.0648587,0.516703 5.9563396,0.596977 5.8834976,0.649006 A 0.65557588,0.65557588 0 0 1 5.7675458,0.73374 1.094113,1.094113 0 0 1 5.6724058,0.809555 c -0.019323,0.019322 -0.041622,0.038652 -0.063921,0.05649 l -0.016353,0.013377 a 0.60651918,0.60651918 0 0 1 -0.046083,0.047567 c 0,0 -0.00892,0.00892 -0.013377,0.014868 l -0.038652,0.049059 a 0.37610136,0.37610136 0 0 1 -0.019323,0.035675 l -0.011892,0.020814 v 0.014868 c 0,0.019322 -0.011892,0.03716 -0.020814,0.057975 a 1.0123519,1.0123519 0 0 0 -0.041621,0.2244717 v 0.136764 l -0.00594,0.1798744 c 0,0.043113 0,0.080275 0.00892,0.107033 l 0.010407,0.081761 A 0.21852529,0.21852529 0 0 1 5.1967156,2.0954367 H 5.1803625 A 0.69571319,0.69571319 0 0 1 5.0658968,2.0746224 H 5.0435978 A 1.2903398,1.2903398 0 0 1 4.820613,1.9928614 1.3765607,1.3765607 0 0 1 4.6897949,1.9215061 L 4.6689806,1.9096142 A 1.4999457,1.4999457 0 0 1 4.5203241,1.8025813 l -0.02676,-0.020814 -0.013377,-0.011892 A 1.8998322,1.8998322 0 0 1 4.3107116,1.5914904 l -0.02676,-0.035675 A 1.327504,1.327504 0 0 1 4.1442144,1.3343174 C 4.1293461,1.3060724 4.1115083,1.2674204 4.0936705,1.2257976 l -0.010407,-0.025269 a 1.2026324,1.2026324 0 0 1 -0.044598,-0.133791 l -0.010407,-0.037167 a 1.4434562,1.4434562 0 0 1 -0.05649,-0.3775884 v -0.031214 a 0.78044748,0.78044748 0 0 1 0,-0.084734 l 0.00892,-0.09514 c 0,-0.06392 0.014868,-0.1278444 0.02676,-0.1932538 a 1.0316772,1.0316772 0 0 1 0.041621,-0.162036 l 0.011892,-0.038652 c 0.020814,-0.065405 0.043113,-0.1278444 0.066897,-0.1902801 l 0.00743,-0.016353 c 0.055005,-0.1114927 0.1174387,-0.2229848 0.1828481,-0.3300178 l 0.011892,-0.017838 c 0.080274,-0.1070322 0.1679818,-0.2110922 0.2586624,-0.3106917 a 0.66449528,0.66449528 0 0 1 0.05649,-0.057975 l 0.055005,-0.052029 c 0.031221,-0.02973 0.065412,-0.059466 0.0996,-0.090681 l 0.059459,-0.053513 0.013377,-0.011892 0.1278444,-0.1025732 c 0.078788,-0.066897 0.1486566,-0.1323042 0.2110923,-0.1947399 a 1.7363098,1.7363098 0 0 0 0.1560893,-0.1828474 1.0569489,1.0569489 0 0 0 0.1174394,-0.2081193 1.4761607,1.4761607 0 0 0 0.083247,-0.269069 3.8546673,3.8546673 0 0 0 0.071355,-0.5767877 c 0,-0.032706 0,-0.066897 0,-0.098113 0,-0.031214 0,-0.06392 0,-0.087708 v -0.084734 a 0.22001186,0.22001186 0 0 1 0.2809608,-0.2066332 0.68828035,0.68828035 0 0 1 0.1055461,0.037167 l 0.028245,0.011892 a 1.4092652,1.4092652 0 0 1 0.1947399,0.1040593 1.8433426,1.8433426 0 0 1 0.594627,0.6184121 1.9191575,1.9191575 0 0 1 0.2363642,0.5871934 z m 6.4383194,8.440726 A 2.4632409,2.4632409 0 0 0 11.128105,3.6459255 H 1.2156798 A 0.64665648,0.64665648 0 0 0 0.56902293,4.3282594 16.824961,16.824961 0 0 0 1.1725694,7.8172315 4.730255,4.730255 0 0 0 2.5535896,10.035189 H 1.7003001 a 0.718755,0.718755 0 1 0 0,1.43751 h 8.0839488 a 0.718755,0.718755 0 0 0 0,-1.43751 H 8.9294733 A 4.7317416,4.7317416 0 0 0 10.023586,8.5724068 h 1.104519 A 2.4632409,2.4632409 0 0 0 13.518504,6.7037934 Z M 12.070588,6.3440439 A 0.96924142,0.96924142 0 0 1 11.128105,7.0873274 H 10.499288 A 17.244173,17.244173 0 0 0 10.842685,5.144385 h 0.28542 a 0.97072804,0.97072804 0 0 1 0.942483,1.2056055 z"
       style="stroke-width:0.14865667" />
  </svg>
</svg>
