<?xml version="1.0" encoding="UTF-8" standalone="no"?>
<svg
   xmlns:dc="http://purl.org/dc/elements/1.1/"
   xmlns:cc="http://creativecommons.org/ns#"
   xmlns:rdf="http://www.w3.org/1999/02/22-rdf-syntax-ns#"
   xmlns:svg="http://www.w3.org/2000/svg"
   xmlns="http://www.w3.org/2000/svg"
   xmlns:sodipodi="http://sodipodi.sourceforge.net/DTD/sodipodi-0.dtd"
   xmlns:inkscape="http://www.inkscape.org/namespaces/inkscape"
   height="44px"
   width="30px"
   version="1.1"
   viewBox="0 0 29.988946 43.988056"
   id="svg16"
   sodipodi:docname="new_Drinking Water.svg"
   inkscape:version="0.92.5 (2060ec1f9f, 2020-04-08)">
  <metadata
     id="metadata20">
    <rdf:RDF>
      <cc:Work
         rdf:about="">
        <dc:format>image/svg+xml</dc:format>
        <dc:type
           rdf:resource="http://purl.org/dc/dcmitype/StillImage" />
        <dc:title />
      </cc:Work>
    </rdf:RDF>
  </metadata>
  <sodipodi:namedview
     pagecolor="#ffffff"
     bordercolor="#666666"
     borderopacity="1"
     objecttolerance="10"
     gridtolerance="10"
     guidetolerance="10"
     inkscape:pageopacity="0"
     inkscape:pageshadow="2"
     inkscape:window-width="1680"
     inkscape:window-height="974"
     id="namedview18"
     showgrid="false"
     inkscape:zoom="2.876412"
     inkscape:cx="89.097158"
     inkscape:cy="157.98593"
     inkscape:window-x="0"
     inkscape:window-y="0"
     inkscape:window-maximized="1"
     inkscape:current-layer="svg4" />
  <defs
     id="defs7">
    <radialGradient
       id="a"
       gradientUnits="userSpaceOnUse"
       cy="127.6"
       cx="-42.75"
       gradientTransform="matrix(4.2749643,0,0,0.98162997,197.99835,-82.088795)"
       r="2.3840001">
      <stop
         stop-color="#010101"
         offset="0"
         id="stop2" />
      <stop
         stop-opacity="0"
         stop-color="#090909"
         offset="1"
         id="stop4" />
    </radialGradient>
  </defs>
  <g
     id="g26"
     transform="translate(-2.0760358e-7,-1.6181156)">
    <path
       style="fill:#7b65ff;stroke-width:4.27539158"
       inkscape:connector-curvature="0"
       id="path9"
       d="m 14.994475,1.7046139 c -8.2386814,0 -14.91684341,6.6781619 -14.91684341,14.9168421 0.008545,2.561815 0.67294669,5.079165 1.93504231,7.306643 L 15.595595,42.53888 27.955752,23.983679 c 1.277915,-2.243725 1.951716,-4.779887 1.955563,-7.362223 C 29.911273,8.3827758 23.233154,1.7046139 14.994475,1.7046139 Z" />
    <circle
       style="fill:#f9f3f3;stroke-width:4.27539158"
       id="circle11"
       r="9.4272394"
       cx="14.994473"
       cy="16.668474" />
    <ellipse
       style="opacity:0.4;fill:url(#a);stroke-width:4.27496433"
       id="ellipse13"
       cx="14.994473"
       cy="43.18018"
       ry="2.3394945"
       rx="10.192533" />
    <rect
       style="fill:none;stroke-width:4.27539158"
       x="8.2585926"
       y="9.8278542"
       width="13.471761"
       height="13.36915"
       ry="0"
       rx="0"
       id="replace" />
    <svg
       height="100px"
       width="100px"
       fill="#000000"
       version="1.0"
       x="8.5"
       y="10"
       viewBox="0 0 76.536 100"
       enable-background="new 0 0 76.536 100"
       xml:space="preserve"
       id="svg4"
       sodipodi:docname="Drinking Water.svg"
       inkscape:version="0.92.5 (2060ec1f9f, 2020-04-08)"><metadata
         id="metadata10"><rdf:RDF><cc:Work
             rdf:about=""><dc:format>image/svg+xml</dc:format><dc:type
               rdf:resource="http://purl.org/dc/dcmitype/StillImage" /><dc:title /></cc:Work></rdf:RDF></metadata><defs
         id="defs8" /><sodipodi:namedview
         pagecolor="#ffffff"
         bordercolor="#666666"
         borderopacity="1"
         objecttolerance="10"
         gridtolerance="10"
         guidetolerance="10"
         inkscape:pageopacity="0"
         inkscape:pageshadow="2"
         inkscape:window-width="691"
         inkscape:window-height="480"
         id="namedview6"
         showgrid="false"
         inkscape:zoom="2.36"
         inkscape:cx="50"
         inkscape:cy="50"
         inkscape:window-x="0"
         inkscape:window-y="0"
         inkscape:window-maximized="0"
         inkscape:current-layer="svg4" /><path
         d="M -8.8520251,5.7342784 V 3.4947591 c 0.2617601,-1.047744 1.0083602,-1.5715456 2.2393783,-1.5715456 h 1.5716861 c 0,-0.3254772 0.2638699,-0.5893472 0.5892064,-0.5893472 v 0 -1.57154541 h -1.5714048 c -0.2604941,0 -0.4716183,-0.2109835 -0.4716183,-0.4714778 0,-0.2603536 0.2111242,-0.47147769 0.4716183,-0.47147769 h 4.1252892 c 0.2604945,0 0.4716184,0.21112409 0.4716184,0.47147769 0,0.2604943 -0.2111239,0.4714778 -0.4716184,0.4714778 H -3.469415 V 1.3338663 c 0.3254768,0 0.5893468,0.2637293 0.5893468,0.5893472 v 0 h 2.16075226 V 0.54802326 c 0,-0.15190812 0.12321449,-0.27512243 0.2751226,-0.27512243 H 0.14501314 V 4.9876783 h -0.58920648 c -0.15190811,0 -0.2751226,-0.1230742 -0.2751226,-0.2751226 V 3.3375058 H -2.8800682 c 0,0.3254775 -0.26387,0.5893475 -0.5893468,0.5893475 v 0 h -0.9821983 c -0.3253366,0 -0.5892066,-0.26387 -0.5892066,-0.5893475 v 0 h -1.5718269 c -0.39046,0 -0.7070759,0.3166161 -0.7070759,0.7072168 v 1.6894149 h -1.5323024 z m -1.7680419,1.2964225 0.6679732,5.8542281 h 3.5751859 l 0.6679736,-5.8540872 h -4.9111327 z m 0.549964,0.5108617 h 3.8112051 l -0.11801,1.1786941 h -3.5359419"
         id="path2"
         inkscape:connector-curvature="0"
         style="stroke-width:0.14065564" /></svg>  </g>
</svg>
