<?xml version="1.0" encoding="UTF-8" standalone="no"?>
<svg
   xmlns:dc="http://purl.org/dc/elements/1.1/"
   xmlns:cc="http://creativecommons.org/ns#"
   xmlns:rdf="http://www.w3.org/1999/02/22-rdf-syntax-ns#"
   xmlns:svg="http://www.w3.org/2000/svg"
   xmlns="http://www.w3.org/2000/svg"
   xmlns:sodipodi="http://sodipodi.sourceforge.net/DTD/sodipodi-0.dtd"
   xmlns:inkscape="http://www.inkscape.org/namespaces/inkscape"
   height="44px"
   width="30px"
   version="1.1"
   viewBox="0 0 29.988946 43.988056"
   id="svg16"
   sodipodi:docname="new_Gifts.svg"
   inkscape:version="0.92.5 (2060ec1f9f, 2020-04-08)">
  <metadata
     id="metadata20">
    <rdf:RDF>
      <cc:Work
         rdf:about="">
        <dc:format>image/svg+xml</dc:format>
        <dc:type
           rdf:resource="http://purl.org/dc/dcmitype/StillImage" />
        <dc:title />
      </cc:Work>
    </rdf:RDF>
  </metadata>
  <sodipodi:namedview
     pagecolor="#ffffff"
     bordercolor="#666666"
     borderopacity="1"
     objecttolerance="10"
     gridtolerance="10"
     guidetolerance="10"
     inkscape:pageopacity="0"
     inkscape:pageshadow="2"
     inkscape:window-width="1680"
     inkscape:window-height="974"
     id="namedview18"
     showgrid="false"
     inkscape:zoom="4.0678609"
     inkscape:cx="0.9366743"
     inkscape:cy="83.987249"
     inkscape:window-x="0"
     inkscape:window-y="0"
     inkscape:window-maximized="1"
     inkscape:current-layer="svg16" />
  <defs
     id="defs7">
    <radialGradient
       id="a"
       gradientUnits="userSpaceOnUse"
       cy="127.6"
       cx="-42.75"
       gradientTransform="matrix(4.2749643,0,0,0.98162997,197.99835,-82.088795)"
       r="2.3840001">
      <stop
         stop-color="#010101"
         offset="0"
         id="stop2" />
      <stop
         stop-opacity="0"
         stop-color="#090909"
         offset="1"
         id="stop4" />
    </radialGradient>
  </defs>
  <g
     id="g26"
     transform="translate(-2.0760358e-7,-1.6181156)">
    <path
       style="fill:#7b65ff;stroke-width:4.27539158"
       inkscape:connector-curvature="0"
       id="path9"
       d="m 14.994475,1.7046139 c -8.2386814,0 -14.91684341,6.6781619 -14.91684341,14.9168421 0.008545,2.561815 0.67294669,5.079165 1.93504231,7.306643 L 15.595595,42.53888 27.955752,23.983679 c 1.277915,-2.243725 1.951716,-4.779887 1.955563,-7.362223 C 29.911273,8.3827758 23.233154,1.7046139 14.994475,1.7046139 Z" />
    <circle
       style="fill:#f9f3f3;stroke-width:4.27539158"
       id="circle11"
       r="9.4272394"
       cx="14.994473"
       cy="16.668474" />
    <ellipse
       style="opacity:0.4;fill:url(#a);stroke-width:4.27496433"
       id="ellipse13"
       cx="14.994473"
       cy="43.18018"
       ry="2.3394945"
       rx="10.192533" />
    <rect
       style="fill:none;stroke-width:4.27539158"
       x="8.2585926"
       y="9.8278542"
       width="13.471761"
       height="13.36915"
       ry="0"
       rx="0"
       id="replace" />
    <svg
       version="1.1"
       x="8.5"
       y="10"
       viewBox="0 0 52.124996 58.934373"
       enable-background="new 0 0 100 100"
       xml:space="preserve"
       id="svg2"
       inkscape:version="0.48.4 r9939"
       width="13"
       height="13"
       sodipodi:docname="Jewelry.svg"><metadata
         id="metadata30"><rdf:RDF><cc:Work
             rdf:about=""><dc:format>image/svg+xml</dc:format><dc:type
               rdf:resource="http://purl.org/dc/dcmitype/StillImage" /><dc:title /></cc:Work></rdf:RDF></metadata><defs
         id="defs28"><style
           id="style10827"
           type="text/css">
   
    .fil1 {fill:none}
    .fil0 {fill:black}
    .fil2 {fill:black;fill-rule:nonzero}
   
  </style><style
           id="style11273"
           type="text/css">
   
    .str3 {stroke:#0A0B0C;stroke-width:0.755909}
    .str2 {stroke:#0A0B0C;stroke-width:2.83466}
    .str1 {stroke:#0A0B0C;stroke-width:3.77955}
    .str0 {stroke:#0A0B0C;stroke-width:5.66932}
    .fil0 {fill:none}
    .fil1 {fill:#0A0B0C}
    .fil2 {fill:white}
   
  </style></defs><sodipodi:namedview
         pagecolor="#ffffff"
         bordercolor="#666666"
         borderopacity="1"
         objecttolerance="10"
         gridtolerance="10"
         guidetolerance="10"
         inkscape:pageopacity="0"
         inkscape:pageshadow="2"
         inkscape:window-width="902"
         inkscape:window-height="812"
         id="namedview26"
         showgrid="false"
         fit-margin-top="0"
         fit-margin-left="0"
         fit-margin-right="0"
         fit-margin-bottom="0"
         inkscape:zoom="5.12"
         inkscape:cx="17.38985"
         inkscape:cy="15.858612"
         inkscape:window-x="74"
         inkscape:window-y="59"
         inkscape:window-maximized="0"
         inkscape:current-layer="g11488" /><g
         id="g3217"
         transform="translate(-1268.1116,7659.462)"><g
           id="g3355"
           transform="translate(0.52596752,-1.51338)"><g
             id="g3394"
             transform="translate(-1.304037,6.1068216)"><g
               id="g3432"
               transform="translate(1.3243604,-7.0685396)"><g
                 id="g3490"
                 transform="translate(14.50543,16.201175)"><g
                   id="g3544"
                   transform="translate(1.7832223,7.9070624)"><g
                     id="g3595"
                     transform="translate(9.5264836,-0.46901412)"><g
                       id="g3646"
                       transform="translate(-52.35165,-3.5880634)"><g
                         id="g3767"
                         transform="translate(6.0048559,8.7552768)"><g
                           id="g4075"
                           transform="translate(0.55239017,0.07303033)"><g
                             id="g4264"
                             transform="translate(3.0880737,-2.6377741)"><g
                               id="g4355"
                               transform="translate(8.4601992,5.328404)"><g
                                 id="g4421"
                                 transform="translate(-6.5255081,7.0858766)"><g
                                   id="g4462"
                                   transform="translate(25.518018,13.531166)"><g
                                   id="g4500"
                                   transform="translate(80.26127,-61.023322)"><g
                                   id="g5344"
                                   transform="translate(-17.614831,53.929153)"><g
                                   id="g5294"
                                   display="none"
                                   style="display:none"><rect
                                   id="rect5296"
                                   height="196"
                                   width="394.5"
                                   display="inline"
                                   y="-80.754997"
                                   x="-43.5"
                                   style="fill:#000000;display:inline" /></g><g
                                   id="g5316"
                                   display="none"
                                   style="display:none"><g
                                   id="g5318"
                                   display="inline"
                                   style="display:inline"><path
                                   id="path5320"
                                   d="M 1.581,10.718 H 30.418 L 16,1.051 1.581,10.718 z M 17.592,6.594 c 0,0.879 -0.713,1.592 -1.592,1.592 -0.879,0 -1.592,-0.713 -1.592,-1.592 0,-0.879 0.713,-1.592 1.592,-1.592 0.879,0 1.592,0.712 1.592,1.592 z"
                                   inkscape:connector-curvature="0" /><rect
                                   id="rect5322"
                                   height="3.0209999"
                                   width="31"
                                   y="28.030001"
                                   x="0.5" /><rect
                                   id="rect5324"
                                   height="11.875"
                                   width="3.0209999"
                                   y="13.363"
                                   x="3.6670001" /><rect
                                   id="rect5326"
                                   height="11.875"
                                   width="3.0209999"
                                   y="13.363"
                                   x="8.349" /><rect
                                   id="rect5328"
                                   height="11.875"
                                   width="3.0209999"
                                   y="13.363"
                                   x="20.629999" /><rect
                                   id="rect5330"
                                   height="11.875"
                                   width="3.0209999"
                                   y="13.363"
                                   x="25.312" /></g><path
                                   id="path5332"
                                   d="m 19.055,22.809 c -0.386,0.262 -1.035,0.524 -1.857,0.524 -1.01,0 -1.907,-0.386 -2.53,-1.11 -0.474,-0.524 -0.785,-1.246 -0.897,-2.144 h -0.773 v -0.611 h 0.711 c 0,-0.062 0,-0.125 0,-0.187 0,-0.2 0.012,-0.387 0.025,-0.561 h -0.735 v -0.624 h 0.823 c 0.15,-0.872 0.524,-1.595 1.022,-2.106 0.636,-0.66 1.446,-1.035 2.468,-1.035 0.735,0 1.309,0.212 1.658,0.399 l -0.249,0.822 c -0.312,-0.187 -0.835,-0.349 -1.396,-0.349 -0.673,0 -1.221,0.237 -1.645,0.685 -0.374,0.361 -0.623,0.922 -0.748,1.583 h 3.478 v 0.624 h -3.59 c -0.013,0.162 -0.025,0.349 -0.025,0.523 0,0.075 0,0.137 0,0.225 h 3.615 v 0.611 h -3.53 c 0.1,0.723 0.349,1.259 0.685,1.633 0.461,0.486 1.085,0.723 1.757,0.723 0.661,0 1.234,-0.249 1.521,-0.411 l 0.212,0.786 z"
                                   display="inline"
                                   inkscape:connector-curvature="0"
                                   style="display:inline" /></g><g
                                   id="g5453"
                                   transform="translate(-52.625356,-10.750909)"><g
                                   id="g5403"
                                   display="none"
                                   style="display:none"><rect
                                   id="rect5405"
                                   height="196"
                                   width="394.5"
                                   display="inline"
                                   y="-80.754997"
                                   x="-43.5"
                                   style="fill:#000000;display:inline" /></g><g
                                   id="g5425"
                                   display="none"
                                   style="display:none"><g
                                   id="g5427"
                                   display="inline"
                                   style="display:inline"><path
                                   id="path5429"
                                   d="M 1.581,10.718 H 30.418 L 16,1.051 1.581,10.718 z M 17.592,6.594 c 0,0.879 -0.713,1.592 -1.592,1.592 -0.879,0 -1.592,-0.713 -1.592,-1.592 0,-0.879 0.713,-1.592 1.592,-1.592 0.879,0 1.592,0.712 1.592,1.592 z"
                                   inkscape:connector-curvature="0" /><rect
                                   id="rect5431"
                                   height="3.0209999"
                                   width="31"
                                   y="28.030001"
                                   x="0.5" /><rect
                                   id="rect5433"
                                   height="11.875"
                                   width="3.0209999"
                                   y="13.363"
                                   x="3.6670001" /><rect
                                   id="rect5435"
                                   height="11.875"
                                   width="3.0209999"
                                   y="13.363"
                                   x="8.349" /><rect
                                   id="rect5437"
                                   height="11.875"
                                   width="3.0209999"
                                   y="13.363"
                                   x="20.629999" /><rect
                                   id="rect5439"
                                   height="11.875"
                                   width="3.0209999"
                                   y="13.363"
                                   x="25.312" /></g><path
                                   id="path5441"
                                   d="m 19.055,22.809 c -0.386,0.262 -1.035,0.524 -1.857,0.524 -1.01,0 -1.907,-0.386 -2.53,-1.11 -0.474,-0.524 -0.785,-1.246 -0.897,-2.144 h -0.773 v -0.611 h 0.711 c 0,-0.062 0,-0.125 0,-0.187 0,-0.2 0.012,-0.387 0.025,-0.561 h -0.735 v -0.624 h 0.823 c 0.15,-0.872 0.524,-1.595 1.022,-2.106 0.636,-0.66 1.446,-1.035 2.468,-1.035 0.735,0 1.309,0.212 1.658,0.399 l -0.249,0.822 c -0.312,-0.187 -0.835,-0.349 -1.396,-0.349 -0.673,0 -1.221,0.237 -1.645,0.685 -0.374,0.361 -0.623,0.922 -0.748,1.583 h 3.478 v 0.624 h -3.59 c -0.013,0.162 -0.025,0.349 -0.025,0.523 0,0.075 0,0.137 0,0.225 h 3.615 v 0.611 h -3.53 c 0.1,0.723 0.349,1.259 0.685,1.633 0.461,0.486 1.085,0.723 1.757,0.723 0.661,0 1.234,-0.249 1.521,-0.411 l 0.212,0.786 z"
                                   display="inline"
                                   inkscape:connector-curvature="0"
                                   style="display:inline" /></g><g
                                   id="g5911"
                                   transform="translate(34.803917,-34.731522)"><g
                                   id="g5969"
                                   transform="translate(-76.820846,20.463898)"><g
                                   id="g6024"
                                   transform="translate(-1.5269147,1.6004891)"><g
                                   id="g6071"
                                   transform="translate(7.3886843,1.0351706)"><g
                                   id="g6187"
                                   transform="translate(-0.71000052,-4.6322855)"><g
                                   id="g6263"
                                   transform="translate(-0.66737304,-5.3488176)"><g
                                   id="g6319"
                                   transform="translate(0.79720466,3.5647493)"><g
                                   id="g6384"
                                   transform="translate(-9.1472004,2.261335)"><g
                                   id="g6488"
                                   transform="translate(-2.0348122,-3.4042665)"><g
                                   id="g6516"
                                   transform="translate(-0.63832329,-2.3294036)"><g
                                   id="g6769"
                                   transform="translate(1565.7794,-3801.8487)"><g
                                   id="g6910"
                                   transform="translate(-308.09512,-3790.9493)"><g
                                   id="g6983"
                                   transform="translate(-14.231122,-15.611848)"><g
                                   id="g7151"
                                   transform="translate(33.267081,-22.491026)"><g
                                   id="g7382"
                                   transform="translate(-23.229266,23.886871)"><g
                                   id="g7549"
                                   transform="translate(14.444681,15.529545)"><g
                                   id="g7800"
                                   transform="translate(-10.517025,-15.548079)"><g
                                   id="g7999"
                                   transform="matrix(0.53445343,0,0,0.59502607,5.6563057,11.962949)"><g
                                   id="g8217"
                                   transform="matrix(0.65157633,0,0,0.66199506,14.891666,27.68312)"><g
                                   id="g8341"
                                   transform="matrix(0.81955739,0,0,0.8373697,16.904811,-6.2861215)"><g
                                   id="g8463"
                                   transform="matrix(1.0901467,0,0,0.7755316,14.691042,9.5565496)"><g
                                   id="g8628"
                                   transform="matrix(3.2141084,0,0,3.9092417,-42.983003,-211.13796)"><g
                                   id="g8709"
                                   transform="matrix(0.28046364,0,0,0.26137124,8.2602788,58.166419)"><g
                                   id="g8982"
                                   transform="matrix(0.85470616,0,0,0.82928987,-24.416347,-291.09779)"><g
                                   id="g9029"
                                   transform="matrix(0.56179905,0,0,0.59146659,71.827756,364.20217)"><g
                                   id="g9231"
                                   transform="matrix(1.6434845,0,0,1.6275903,-1.9010194,-26.060019)"><g
                                   id="g9437"
                                   transform="matrix(0.71903998,0,0,0.65801134,3.2171324,7.0571502)"><g
                                   id="g9598"
                                   transform="matrix(0.80108296,0,0,0.9233293,9.6403445,4.2821143)"><g
                                   id="g9708"
                                   transform="matrix(0.94363907,0,0,1.1480868,25.922318,9.4839725)"><g
                                   id="g9819"
                                   transform="matrix(1.095798,0,0,0.98226973,-24.771036,-19.505567)"><g
                                   id="g9923"
                                   transform="matrix(1.4565749,0,0,1.1402449,-4.0661436,-21.558968)"><g
                                   id="g10097"
                                   transform="matrix(0.11168619,0,0,0.17855319,5.2962471,-4.487068)"><g
                                   id="g10271"
                                   transform="matrix(13.365969,0,0,8.1997528,-133.46038,-213.50307)"><g
                                   style="fill-rule:evenodd"
                                   id="g10860"
                                   transform="matrix(3.4886731,0,0,4.1898505,17.112225,-334.18238)"><g
                                   id="g10926"
                                   transform="translate(-3.4835301,11.933542)"><g
                                   id="g10977"
                                   transform="translate(-23.300771,-27.486778)"><g
                                   id="g11027"
                                   transform="matrix(0.43252474,0,0,0.37672697,-8.3080623,-3.9894485)"><g
                                   id="g11075"
                                   transform="matrix(2.3120065,0,0,2.6544423,31.801403,32.696975)"><g
                                   id="g11120"
                                   transform="matrix(0.80941525,0,0,0.85267959,9.9659797,8.8655352)"><g
                                   id="g11165"
                                   transform="matrix(1.2354598,0,0,1.1727735,63.229892,29.359769)"><g
                                   id="g11232"
                                   transform="translate(-34.923095,-12.499473)"><g
                                   style="fill-rule:evenodd"
                                   id="g11310"
                                   transform="translate(-21.549182,-35.279603)"><g
                                   id="g11372"
                                   transform="translate(-5.4679176,-5.8668947)"><g
                                   id="g11436"
                                   transform="translate(2.7982997,0.93576032)"><g
                                   id="g11488"
                                   transform="translate(-3.587236,-5.6258516)"><g
                                   id="g11472"
                                   transform="matrix(0.60260114,0,0,0.62896877,22.127891,23.452926)"><path
                                   id="path11474"
                                   d="m 52.5,29.8 0,0 c 0,0 0,0 0,0 0,0 0,0 0,0 z m 0.3,-0.1 c 0.3,-0.1 0.6,-0.3 0.9,-0.4 v -0.1 c -0.4,0.2 -0.7,0.4 -0.9,0.5 z m 0.9,-2 c 0,0 0,0.1 0,0 l 0,0 c 0,0 0,0 0,0 z M 52.2,26 h -0.5 c 0.3,0 0.5,0.1 0.8,0.2 C 52.4,26.1 52.3,26 52.2,26 z m -1.3,3.8 c 0,0 0,0 0,0 l 0,0 c 0,0 0,0 0,0 z m -1.2,-0.7 v 0.1 c 0.3,0.2 0.6,0.3 0.9,0.4 -0.1,0 -0.5,-0.2 -0.9,-0.5 z m 0,-1.3 0,0 c 0,0 0,-0.1 0,0 0,-0.1 0,-0.1 0,0 z"
                                   inkscape:connector-curvature="0" /><path
                                   id="path11476"
                                   d="M 88,26 H 60.5 c 17.1,-7.6 27.5,-7.4 27.6,-7.4 1.1,0 2,-0.8 2.1,-1.9 0,-1.1 -0.8,-2 -1.9,-2.1 -0.4,0 -8.5,-0.2 -22,4.8 3.5,-3.6 5.2,-6.7 5.2,-9.4 C 71.5,8.3 70.7,6 67.6,4.3 66.2,3.6 64.9,3.2 63.5,3.2 57.3,3.2 53.8,11.1 51.9,17.9 49.8,11 46.2,3.2 40.1,3.2 38.8,3.2 37.4,3.6 36,4.3 32.9,6 32.1,8.3 32.1,10 c -0.1,2.7 1.6,5.8 5.2,9.4 -13.6,-5 -21.6,-4.8 -22,-4.8 -1.1,0 -2,1 -1.9,2.1 0,1.1 1,2 2.1,1.9 0.1,0 10.4,-0.2 27.6,7.4 H 15.5 c -3.9,0 -7,3.1 -7,7 v 9.2 c 0,3.9 3.1,7 7,7 H 18 v 39.7 c 0,4.4 3.6,8 8,8 h 49.5 c 4.4,0 8,-3.6 8,-8 V 49.2 H 88 c 3.9,0 7,-3.1 7,-7 V 33 c 0,-3.9 -3.2,-7 -7,-7 z M 63.3,7.2 c 0.7,0 1.4,0.2 2.2,0.6 1.8,1 1.8,1.9 1.8,2.2 0.1,3.5 -6.6,9.4 -12.9,13.8 C 55.9,16.6 59,7.2 63.3,7.2 z m -9.6,20.6 0,0 c 0,0 0,-0.1 0,0 0,-0.1 0,-0.1 0,0 z m -4,0 c 0,-0.1 0,-0.1 0,0 0,-0.1 0,0 0,0 l 0,0 z M 36.1,10 c 0,-0.3 0,-1.3 1.8,-2.2 0.8,-0.4 1.5,-0.6 2.2,-0.6 4.4,0 7.5,9.5 8.9,16.7 C 42.7,19.5 36,13.5 36.1,10 z M 49.7,92.8 H 26 c -2.2,0 -4,-1.8 -4,-4 V 49.2 h 27.8 v 43.6 z m 0,-47.6 H 15.5 c -1.6,0 -3,-1.3 -3,-3 V 33 c 0,-1.7 1.4,-3 3,-3 h 34.2 v 15.2 z m 0.9,-15.5 m 1.9,0.1 c 0,0 0,0 0,0 m 27,59 c 0,2.2 -1.8,4 -4,4 H 53.7 V 49.2 H 79.5 V 88.8 z M 91,42.2 c 0,1.7 -1.3,3 -3,3 H 53.7 V 30 H 88 c 1.7,0 3,1.3 3,3 v 9.2 z"
                                   inkscape:connector-curvature="0" /></g></g></g></g></g></g></g></g></g></g></g></g></g></g></g></g></g></g></g></g></g></g></g></g></g></g></g></g></g></g></g></g></g></g></g></g></g></g></g></g></g></g></g></g></g></g></g></g></g></g></g></g></g></g></g></g></g></g></g></g></g></g></g></svg>  </g>
</svg>
