<?xml version="1.0" encoding="UTF-8" standalone="no"?>
<svg
   xmlns:dc="http://purl.org/dc/elements/1.1/"
   xmlns:cc="http://creativecommons.org/ns#"
   xmlns:rdf="http://www.w3.org/1999/02/22-rdf-syntax-ns#"
   xmlns:svg="http://www.w3.org/2000/svg"
   xmlns="http://www.w3.org/2000/svg"
   xmlns:sodipodi="http://sodipodi.sourceforge.net/DTD/sodipodi-0.dtd"
   xmlns:inkscape="http://www.inkscape.org/namespaces/inkscape"
   height="44px"
   width="30px"
   version="1.1"
   viewBox="0 0 29.988946 43.988056"
   id="svg16"
   sodipodi:docname="new_Hospital.svg"
   inkscape:version="0.92.5 (2060ec1f9f, 2020-04-08)">
  <metadata
     id="metadata20">
    <rdf:RDF>
      <cc:Work
         rdf:about="">
        <dc:format>image/svg+xml</dc:format>
        <dc:type
           rdf:resource="http://purl.org/dc/dcmitype/StillImage" />
        <dc:title />
      </cc:Work>
    </rdf:RDF>
  </metadata>
  <sodipodi:namedview
     pagecolor="#ffffff"
     bordercolor="#666666"
     borderopacity="1"
     objecttolerance="10"
     gridtolerance="10"
     guidetolerance="10"
     inkscape:pageopacity="0"
     inkscape:pageshadow="2"
     inkscape:window-width="1680"
     inkscape:window-height="974"
     id="namedview18"
     showgrid="false"
     inkscape:zoom="4.0678609"
     inkscape:cx="0.9366743"
     inkscape:cy="83.987249"
     inkscape:window-x="0"
     inkscape:window-y="0"
     inkscape:window-maximized="1"
     inkscape:current-layer="svg2" />
  <defs
     id="defs7">
    <radialGradient
       id="a"
       gradientUnits="userSpaceOnUse"
       cy="127.6"
       cx="-42.75"
       gradientTransform="matrix(4.2749643,0,0,0.98162997,197.99835,-82.088795)"
       r="2.3840001">
      <stop
         stop-color="#010101"
         offset="0"
         id="stop2" />
      <stop
         stop-opacity="0"
         stop-color="#090909"
         offset="1"
         id="stop4" />
    </radialGradient>
  </defs>
  <g
     id="g26"
     transform="translate(-2.0760358e-7,-1.6181156)">
    <path
       style="fill:#1462cb;stroke-width:4.27539158"
       inkscape:connector-curvature="0"
       id="path9"
       d="m 14.994475,1.7046139 c -8.2386814,0 -14.91684341,6.6781619 -14.91684341,14.9168421 0.008545,2.561815 0.67294669,5.079165 1.93504231,7.306643 L 15.595595,42.53888 27.955752,23.983679 c 1.277915,-2.243725 1.951716,-4.779887 1.955563,-7.362223 C 29.911273,8.3827758 23.233154,1.7046139 14.994475,1.7046139 Z" />
    <circle
       style="fill:#f9f3f3;stroke-width:4.27539158"
       id="circle11"
       r="9.4272394"
       cx="14.994473"
       cy="16.668474" />
    <ellipse
       style="opacity:0.4;fill:url(#a);stroke-width:4.27496433"
       id="ellipse13"
       cx="14.994473"
       cy="43.18018"
       ry="2.3394945"
       rx="10.192533" />
    <rect
       style="fill:none;stroke-width:4.27539158"
       x="8.2585926"
       y="9.8278542"
       width="13.471761"
       height="13.36915"
       ry="0"
       rx="0"
       id="replace" />
    <svg
       version="1.1"
       x="8.5"
       y="10"
       viewBox="-120 78.1 43.326271 42.265946"
       xml:space="preserve"
       id="svg2"
       inkscape:version="0.48.4 r9939"
       width="13"
       height="13"
       sodipodi:docname="Doctor.svg"><metadata
         id="metadata18"><rdf:RDF><cc:Work
             rdf:about=""><dc:format>image/svg+xml</dc:format><dc:type
               rdf:resource="http://purl.org/dc/dcmitype/StillImage" /><dc:title /></cc:Work></rdf:RDF></metadata><defs
         id="defs16" /><sodipodi:namedview
         pagecolor="#ffffff"
         bordercolor="#666666"
         borderopacity="1"
         objecttolerance="10"
         gridtolerance="10"
         guidetolerance="10"
         inkscape:pageopacity="0"
         inkscape:pageshadow="2"
         inkscape:window-width="725"
         inkscape:window-height="735"
         id="namedview14"
         showgrid="false"
         fit-margin-top="0"
         fit-margin-left="0"
         fit-margin-right="0"
         fit-margin-bottom="0"
         inkscape:zoom="3.776"
         inkscape:cx="15.059726"
         inkscape:cy="21.307196"
         inkscape:window-x="114"
         inkscape:window-y="170"
         inkscape:window-maximized="0"
         inkscape:current-layer="g4372" /><g
         id="g3032"
         transform="translate(-155.56163,70.646133)"><g
           id="g3082"
           transform="translate(-11.778449,-19.681681)"><g
             id="g3297"
             transform="translate(113.35527,48.840676)"><g
               id="g3451"
               transform="translate(-110.35024,-41.106017)"><g
                 id="g3508"
                 transform="translate(37.661621,37.801481)"><g
                   id="g3556"
                   transform="translate(-33.173714,-53.557494)"><g
                     id="g3600"
                     transform="translate(1.6437441,2.3337983)"><g
                       id="g3673"
                       transform="translate(3.1326802,-1.9259882)"><g
                         id="g3728"
                         transform="translate(16.15499,5.0801784)"><g
                           id="g3774"
                           transform="matrix(1.3062103,0,0,1.1506075,-1.2423141,14.177607)"><g
                             id="g3814"
                             transform="matrix(0.76557355,0,0,0.86910615,-9.6088369,-25.571004)"><g
                               id="g3898"
                               transform="translate(-253.23308,-590.39679)"><g
                                 id="g4071"
                                 transform="translate(255.74688,596.01847)"><g
                                   id="g4160"
                                   transform="translate(-2.9830857,2.4410756)"><g
                                   id="g4272"
                                   transform="matrix(0.87809547,0,0,0.86067766,11.546476,7.0690494)"><g
                                   id="g4327"
                                   transform="matrix(1.1388283,0,0,1.1618751,13.689337,21.712146)"><g
                                   id="g4372"
                                   transform="translate(0.89151921,1.2290808)"><g
                                   id="g4410"
                                   transform="matrix(0.43326271,0,0,0.4226637,8.7199452,9.8654478)"><polygon
                                   id="polygon4400"
                                   points="42.2,57.8 42.2,87.456 57.801,87.456 57.801,57.8 87.457,57.8 87.457,42.199 57.801,42.199 57.801,12.543 42.2,12.543 42.2,42.199 12.544,42.199 12.544,57.8 " /><path
                                   id="path4402"
                                   d="M 50,99.999 C 22.429,99.999 0,77.57 0,50 0,22.43 22.429,0 50,0 c 27.57,0 50,22.43 50,50 0,27.57 -22.429,49.999 -50,49.999 l 0,0 z M 50,5.4 C 25.406,5.4 5.4,25.407 5.4,50 5.4,74.593 25.406,94.6 50,94.6 74.592,94.6 94.599,74.593 94.599,50 94.599,25.407 74.592,5.4 50,5.4 l 0,0 z"
                                   inkscape:connector-curvature="0" /></g></g></g></g></g></g></g></g></g></g></g></g></g></g></g></g></g></g></svg>  </g>
</svg>
