<?xml version="1.0" encoding="UTF-8" standalone="no"?>
<svg
   xmlns:dc="http://purl.org/dc/elements/1.1/"
   xmlns:cc="http://creativecommons.org/ns#"
   xmlns:rdf="http://www.w3.org/1999/02/22-rdf-syntax-ns#"
   xmlns:svg="http://www.w3.org/2000/svg"
   xmlns="http://www.w3.org/2000/svg"
   xmlns:sodipodi="http://sodipodi.sourceforge.net/DTD/sodipodi-0.dtd"
   xmlns:inkscape="http://www.inkscape.org/namespaces/inkscape"
   height="44px"
   width="30px"
   version="1.1"
   viewBox="0 0 29.988946 43.988056"
   id="svg16"
   sodipodi:docname="new_Hotel.svg"
   inkscape:version="0.92.5 (2060ec1f9f, 2020-04-08)">
  <metadata
     id="metadata20">
    <rdf:RDF>
      <cc:Work
         rdf:about="">
        <dc:format>image/svg+xml</dc:format>
        <dc:type
           rdf:resource="http://purl.org/dc/dcmitype/StillImage" />
        <dc:title />
      </cc:Work>
    </rdf:RDF>
  </metadata>
  <sodipodi:namedview
     pagecolor="#ffffff"
     bordercolor="#666666"
     borderopacity="1"
     objecttolerance="10"
     gridtolerance="10"
     guidetolerance="10"
     inkscape:pageopacity="0"
     inkscape:pageshadow="2"
     inkscape:window-width="1680"
     inkscape:window-height="974"
     id="namedview18"
     showgrid="false"
     inkscape:zoom="16.271444"
     inkscape:cx="15.151662"
     inkscape:cy="40.165536"
     inkscape:window-x="0"
     inkscape:window-y="0"
     inkscape:window-maximized="1"
     inkscape:current-layer="svg10" />
  <defs
     id="defs7">
    <radialGradient
       id="a"
       gradientUnits="userSpaceOnUse"
       cy="127.6"
       cx="-42.75"
       gradientTransform="matrix(4.2749643,0,0,0.98162997,197.99835,-82.088795)"
       r="2.3840001">
      <stop
         stop-color="#010101"
         offset="0"
         id="stop2" />
      <stop
         stop-opacity="0"
         stop-color="#090909"
         offset="1"
         id="stop4" />
    </radialGradient>
  </defs>
  <g
     id="g26"
     transform="translate(-2.0760358e-7,-1.6181156)">
    <path
       style="fill:#7b65ff;stroke-width:4.27539158"
       inkscape:connector-curvature="0"
       id="path9"
       d="m 14.994475,1.7046139 c -8.2386814,0 -14.91684341,6.6781619 -14.91684341,14.9168421 0.008545,2.561815 0.67294669,5.079165 1.93504231,7.306643 L 15.595595,42.53888 27.955752,23.983679 c 1.277915,-2.243725 1.951716,-4.779887 1.955563,-7.362223 C 29.911273,8.3827758 23.233154,1.7046139 14.994475,1.7046139 Z" />
    <circle
       style="fill:#f9f3f3;stroke-width:4.27539158"
       id="circle11"
       r="9.4272394"
       cx="14.994473"
       cy="16.668474" />
    <ellipse
       style="opacity:0.4;fill:url(#a);stroke-width:4.27496433"
       id="ellipse13"
       cx="14.994473"
       cy="43.18018"
       ry="2.3394945"
       rx="10.192533" />
    <rect
       style="fill:none;stroke-width:4.27539158"
       x="8.2585926"
       y="9.8278542"
       width="13.471761"
       height="13.36915"
       ry="0"
       rx="0"
       id="replace" />
    <svg
       data-name="Layer 1"
       viewBox="0 0 98 102.25"
       x="8.5"
       y="10"
       version="1.1"
       id="svg10"
       sodipodi:docname="Hotel.svg"
       inkscape:version="0.92.5 (2060ec1f9f, 2020-04-08)">
      <metadata
         id="metadata16">
        <rdf:RDF>
          <cc:Work
             rdf:about="">
            <dc:format>image/svg+xml</dc:format>
            <dc:type
               rdf:resource="http://purl.org/dc/dcmitype/StillImage" />
            <dc:title>200 Hotel 2 stars</dc:title>
          </cc:Work>
        </rdf:RDF>
      </metadata>
      <defs
         id="defs14" />
      <sodipodi:namedview
         pagecolor="#ffffff"
         bordercolor="#666666"
         borderopacity="1"
         objecttolerance="10"
         gridtolerance="10"
         guidetolerance="10"
         inkscape:pageopacity="0"
         inkscape:pageshadow="2"
         inkscape:window-width="691"
         inkscape:window-height="480"
         id="namedview12"
         showgrid="false"
         inkscape:zoom="2.3080685"
         inkscape:cx="54.415784"
         inkscape:cy="51.125"
         inkscape:window-x="0"
         inkscape:window-y="0"
         inkscape:window-maximized="0"
         inkscape:current-layer="svg10" />
      <title
         id="title2">200 Hotel 2 stars</title>
      <g
         id="g19"
         transform="matrix(0.44937085,0,0,0.44937085,-0.79607315,-17.184105)">
        <path
           id="path4"
           transform="translate(-1,-9.16)"
           d="M 89.84,39 H 83.17 V 19.61 h 7.6 A 1.2751961,1.2751961 0 0 0 91,17.07 H 4.85 v -6.76 a 1.27,1.27 0 0 0 -2.53,0 v 16 a 1.27,1.27 0 1 0 2.53,0 v -6.7 H 17.93 V 39 H 10.16 A 9.17,9.17 0 0 0 1,48.18 V 81.79 A 9.17,9.17 0 0 0 10.16,91 H 89.84 A 9.17,9.17 0 0 0 99,81.79 V 48.18 A 9.17,9.17 0 0 0 89.84,39 Z M 20.47,19.61 H 80.63 V 39 H 20.47 Z M 48.2,62 42.14,66.4 A 0.38,0.38 0 0 0 42,66.82 l 2.3,7.12 a 0.38,0.38 0 0 1 -0.58,0.42 L 37.66,70 a 0.38,0.38 0 0 0 -0.45,0 l -6.06,4.4 a 0.38,0.38 0 0 1 -0.58,-0.42 l 2.32,-7.13 A 0.38,0.38 0 0 0 32.75,66.43 L 26.69,62 a 0.38,0.38 0 0 1 0.22,-0.69 h 7.48 a 0.38,0.38 0 0 0 0.36,-0.26 l 2.32,-7.13 a 0.38,0.38 0 0 1 0.72,0 L 40.11,61 a 0.38,0.38 0 0 0 0.36,0.26 H 48 a 0.38,0.38 0 0 1 0.2,0.7 z m 25,0 -6.06,4.4 A 0.38,0.38 0 0 0 67,66.82 l 2.3,7.12 a 0.38,0.38 0 0 1 -0.58,0.42 L 62.66,70 a 0.38,0.38 0 0 0 -0.45,0 l -6.06,4.4 a 0.38,0.38 0 0 1 -0.58,-0.42 l 2.32,-7.13 A 0.38,0.38 0 0 0 57.75,66.43 L 51.69,62 a 0.38,0.38 0 0 1 0.22,-0.69 h 7.48 a 0.38,0.38 0 0 0 0.36,-0.26 l 2.32,-7.13 a 0.38,0.38 0 0 1 0.72,0 L 65.11,61 a 0.38,0.38 0 0 0 0.36,0.26 H 73 a 0.38,0.38 0 0 1 0.2,0.7 z"
           inkscape:connector-curvature="0" />
      </g>
    </svg>
  </g>
</svg>
