<?xml version="1.0" encoding="UTF-8" standalone="no"?>
<svg
   xmlns:dc="http://purl.org/dc/elements/1.1/"
   xmlns:cc="http://creativecommons.org/ns#"
   xmlns:rdf="http://www.w3.org/1999/02/22-rdf-syntax-ns#"
   xmlns:svg="http://www.w3.org/2000/svg"
   xmlns="http://www.w3.org/2000/svg"
   xmlns:sodipodi="http://sodipodi.sourceforge.net/DTD/sodipodi-0.dtd"
   xmlns:inkscape="http://www.inkscape.org/namespaces/inkscape"
   height="44px"
   width="30px"
   version="1.1"
   viewBox="0 0 29.988946 43.988056"
   id="svg16"
   sodipodi:docname="Ice Cream.svg"
   inkscape:version="0.92.5 (2060ec1f9f, 2020-04-08)">
  <metadata
     id="metadata20">
    <rdf:RDF>
      <cc:Work
         rdf:about="">
        <dc:format>image/svg+xml</dc:format>
        <dc:type
           rdf:resource="http://purl.org/dc/dcmitype/StillImage" />
        <dc:title />
      </cc:Work>
    </rdf:RDF>
  </metadata>
  <sodipodi:namedview
     pagecolor="#ffffff"
     bordercolor="#666666"
     borderopacity="1"
     objecttolerance="10"
     gridtolerance="10"
     guidetolerance="10"
     inkscape:pageopacity="0"
     inkscape:pageshadow="2"
     inkscape:window-width="1680"
     inkscape:window-height="974"
     id="namedview18"
     showgrid="false"
     inkscape:zoom="16.271444"
     inkscape:cx="12.570271"
     inkscape:cy="22.059005"
     inkscape:window-x="0"
     inkscape:window-y="0"
     inkscape:window-maximized="1"
     inkscape:current-layer="g20" />
  <defs
     id="defs7">
    <radialGradient
       id="a"
       gradientUnits="userSpaceOnUse"
       cy="127.6"
       cx="-42.75"
       gradientTransform="matrix(4.2749643,0,0,0.98162997,197.99835,-82.088795)"
       r="2.3840001">
      <stop
         stop-color="#010101"
         offset="0"
         id="stop2" />
      <stop
         stop-opacity="0"
         stop-color="#090909"
         offset="1"
         id="stop4" />
    </radialGradient>
  </defs>
  <g
     id="g26"
     transform="translate(-2.0760358e-7,-1.6181156)">
    <path
       style="fill:#f98400;stroke-width:4.27539158"
       inkscape:connector-curvature="0"
       id="path9"
       d="m 14.994475,1.7046139 c -8.2386814,0 -14.91684341,6.6781619 -14.91684341,14.9168421 0.008545,2.561815 0.67294669,5.079165 1.93504231,7.306643 L 15.595595,42.53888 27.955752,23.983679 c 1.277915,-2.243725 1.951716,-4.779887 1.955563,-7.362223 C 29.911273,8.3827758 23.233154,1.7046139 14.994475,1.7046139 Z" />
    <circle
       style="fill:#f9f3f3;stroke-width:4.27539158"
       id="circle11"
       r="9.4272394"
       cx="14.994473"
       cy="16.668474" />
    <ellipse
       style="opacity:0.4;fill:url(#a);stroke-width:4.27496433"
       id="ellipse13"
       cx="14.994473"
       cy="43.18018"
       ry="2.3394945"
       rx="10.192533" />
    <rect
       style="fill:none;stroke-width:4.27539158"
       x="8.2585926"
       y="9.8278542"
       width="13.471761"
       height="13.36915"
       ry="0"
       rx="0"
       id="replace" />
    <svg
       version="1.1"
       x="8.5"
       y="10"
       viewBox="0 0 100 100"
       enable-background="new 0 0 32 32"
       xml:space="preserve"
       id="svg10"
       sodipodi:docname="Ice Cream.svg"
       width="100"
       height="100"
       inkscape:version="0.92.5 (2060ec1f9f, 2020-04-08)"><metadata
         id="metadata16"><rdf:RDF><cc:Work
             rdf:about=""><dc:format>image/svg+xml</dc:format><dc:type
               rdf:resource="http://purl.org/dc/dcmitype/StillImage" /><dc:title /></cc:Work></rdf:RDF></metadata><defs
         id="defs14" /><sodipodi:namedview
         pagecolor="#ffffff"
         bordercolor="#666666"
         borderopacity="1"
         objecttolerance="10"
         gridtolerance="10"
         guidetolerance="10"
         inkscape:pageopacity="0"
         inkscape:pageshadow="2"
         inkscape:window-width="1680"
         inkscape:window-height="884"
         id="namedview12"
         showgrid="false"
         inkscape:zoom="1.475"
         inkscape:cx="1.024849"
         inkscape:cy="-10.747255"
         inkscape:window-x="0"
         inkscape:window-y="0"
         inkscape:window-maximized="1"
         inkscape:current-layer="svg10" /><g
         id="g20"
         transform="matrix(0.15786486,0,0,0.15786486,0.75180772,0.00955942)"><g
           id="g23"
           transform="matrix(0.85331105,0,0,0.85331105,5.3361183,7.60666)"><path
             d="m 66.764196,34.322259 c 0,-4.869221 -2.613716,-9.38934 -6.766518,-11.854307 0.07589,-0.746776 0.11232,-1.441946 0.11232,-2.115865 0,-13.0867914 -10.646109,-23.7329005 -23.729865,-23.7329005 -13.083755,0 -23.7329,10.6430734 -23.7329,23.7298645 0,0.67392 0.03643,1.363018 0.109285,2.115865 C 8.6067511,24.932919 5.99,29.450002 5.99,34.322259 c 0,4.8419 2.5105025,9.097915 6.289917,11.559847 l 18.975999,41.576592 c 1.666585,3.648881 3.922091,4.195302 5.121182,4.195302 1.199091,0 3.454597,-0.546421 5.121182,-4.195302 L 60.468207,45.888177 c 3.785486,-2.468003 6.295989,-6.727054 6.295989,-11.565918 z m -57.1344227,0 c 0,-3.909948 2.3010407,-7.519365 5.8588507,-9.18595 0.722491,-0.33696 1.141414,-1.114092 1.032129,-1.903368 -0.16089,-1.111056 -0.230711,-2.02783 -0.230711,-2.88389 0,-11.0771748 9.009881,-20.09009124 20.087056,-20.09009124 11.077175,0 20.087055,9.01291644 20.087055,20.09009124 0,0.865167 -0.07286,1.778905 -0.230711,2.871748 -0.115356,0.795346 0.303568,1.575515 1.029094,1.912474 3.560845,1.669621 5.861886,5.272966 5.861886,9.18595 0,5.597783 -4.556547,10.151294 -10.15433,10.151294 -2.634965,0 -5.130289,-1.007843 -7.030621,-2.844426 -0.352138,-0.33696 -0.810525,-0.509993 -1.265876,-0.509993 -0.452315,0 -0.910702,0.173033 -1.26284,0.509993 -1.903368,1.833547 -4.398692,2.844426 -7.030622,2.844426 -2.634965,0 -5.130289,-1.007843 -7.030621,-2.844426 -0.70124,-0.679991 -1.821404,-0.679991 -2.528716,0 -1.900332,1.833547 -4.398692,2.844426 -7.030622,2.844426 -5.603854,0 -10.1604007,-4.553511 -10.1604007,-10.148258 z M 38.180288,85.943897 c -0.643563,1.41766 -1.387303,2.064258 -1.80319,2.064258 -0.415888,0 -1.159628,-0.646598 -1.803191,-2.064258 L 30.50914,77.040265 c 3.390848,1.202127 6.875802,2.158364 10.403255,2.914247 z m 4.280301,-9.380233 C 37.627796,75.580106 32.89518,74.15941 28.353811,72.31372 L 22.458532,59.399963 c 6.135097,2.935497 14.425523,5.916528 24.491819,7.331153 z M 48.525866,63.273483 C 35.96121,61.688861 26.198483,57.484452 20.01785,54.054141 l -2.826213,-6.18974 c 0.837846,0.160891 1.706049,0.251961 2.592466,0.251961 3.023532,0 5.913493,-0.977487 8.296497,-2.780677 2.376933,1.80319 5.266895,2.780677 8.293462,2.780677 3.020496,0 5.910458,-0.977487 8.293462,-2.780677 2.379968,1.80319 5.26993,2.780677 8.296497,2.780677 0.886417,0 1.748548,-0.09107 2.58943,-0.251961 z"
             id="path2"
             inkscape:connector-curvature="0"
             style="stroke-width:3.0356741" /><path
             d="m 21.754256,22.173491 c 1.004808,0 1.821404,-0.816596 1.821404,-1.82444 0,-7.060978 5.746531,-12.8075091 12.804473,-12.8075091 1.007844,0 1.821405,-0.8135606 1.821405,-1.8214044 0,-1.0078438 -0.813561,-1.8214045 -1.821405,-1.8214045 -9.067558,0 -16.447282,7.379724 -16.447282,16.447282 -0.003,1.01088 0.813561,1.827476 1.821405,1.827476 z"
             id="path4"
             inkscape:connector-curvature="0"
             style="stroke-width:3.0356741" /></g></g></svg>  </g>
</svg>
