<?xml version="1.0" encoding="UTF-8" standalone="no"?>
<svg
   xmlns:dc="http://purl.org/dc/elements/1.1/"
   xmlns:cc="http://creativecommons.org/ns#"
   xmlns:rdf="http://www.w3.org/1999/02/22-rdf-syntax-ns#"
   xmlns:svg="http://www.w3.org/2000/svg"
   xmlns="http://www.w3.org/2000/svg"
   xmlns:sodipodi="http://sodipodi.sourceforge.net/DTD/sodipodi-0.dtd"
   xmlns:inkscape="http://www.inkscape.org/namespaces/inkscape"
   height="44px"
   width="30px"
   version="1.1"
   viewBox="0 0 29.988946 43.988056"
   id="svg16"
   sodipodi:docname="Optician.svg"
   inkscape:version="0.92.5 (2060ec1f9f, 2020-04-08)">
  <metadata
     id="metadata20">
    <rdf:RDF>
      <cc:Work
         rdf:about="">
        <dc:format>image/svg+xml</dc:format>
        <dc:type
           rdf:resource="http://purl.org/dc/dcmitype/StillImage" />
        <dc:title />
      </cc:Work>
    </rdf:RDF>
  </metadata>
  <sodipodi:namedview
     pagecolor="#ffffff"
     bordercolor="#666666"
     borderopacity="1"
     objecttolerance="10"
     gridtolerance="10"
     guidetolerance="10"
     inkscape:pageopacity="0"
     inkscape:pageshadow="2"
     inkscape:window-width="1680"
     inkscape:window-height="974"
     id="namedview18"
     showgrid="false"
     inkscape:zoom="4.0678609"
     inkscape:cx="0.9366743"
     inkscape:cy="83.987249"
     inkscape:window-x="0"
     inkscape:window-y="0"
     inkscape:window-maximized="1"
     inkscape:current-layer="svg2" />
  <defs
     id="defs7">
    <radialGradient
       id="a"
       gradientUnits="userSpaceOnUse"
       cy="127.6"
       cx="-42.75"
       gradientTransform="matrix(4.2749643,0,0,0.98162997,197.99835,-82.088795)"
       r="2.3840001">
      <stop
         stop-color="#010101"
         offset="0"
         id="stop2" />
      <stop
         stop-opacity="0"
         stop-color="#090909"
         offset="1"
         id="stop4" />
    </radialGradient>
  </defs>
  <g
     id="g26"
     transform="translate(-2.0760358e-7,-1.6181156)">
    <path
       style="fill:#0066ff;stroke-width:4.27539158"
       inkscape:connector-curvature="0"
       id="path9"
       d="m 14.994475,1.7046139 c -8.2386814,0 -14.91684341,6.6781619 -14.91684341,14.9168421 0.008545,2.561815 0.67294669,5.079165 1.93504231,7.306643 L 15.595595,42.53888 27.955752,23.983679 c 1.277915,-2.243725 1.951716,-4.779887 1.955563,-7.362223 C 29.911273,8.3827758 23.233154,1.7046139 14.994475,1.7046139 Z" />
    <circle
       style="fill:#f9f3f3;stroke-width:4.27539158"
       id="circle11"
       r="9.4272394"
       cx="14.994473"
       cy="16.668474" />
    <ellipse
       style="opacity:0.4;fill:url(#a);stroke-width:4.27496433"
       id="ellipse13"
       cx="14.994473"
       cy="43.18018"
       ry="2.3394945"
       rx="10.192533" />
    <rect
       style="fill:none;stroke-width:4.27539158"
       x="8.2585926"
       y="9.8278542"
       width="13.471761"
       height="13.36915"
       ry="0"
       rx="0"
       id="replace" />
    <svg
       version="1.1"
       x="8.5"
       y="10"
       viewBox="0 0 86.000001 87.437001"
       enable-background="new 0 0 100 100"
       xml:space="preserve"
       id="svg2"
       inkscape:version="0.92.5 (2060ec1f9f, 2020-04-08)"
       width="13"
       height="13"
       sodipodi:docname="Optician.svg"><metadata
         id="metadata30"><rdf:RDF><cc:Work
             rdf:about=""><dc:format>image/svg+xml</dc:format><dc:type
               rdf:resource="http://purl.org/dc/dcmitype/StillImage" /><dc:title /></cc:Work></rdf:RDF></metadata><defs
         id="defs28" /><sodipodi:namedview
         pagecolor="#ffffff"
         bordercolor="#666666"
         borderopacity="1"
         objecttolerance="10"
         gridtolerance="10"
         guidetolerance="10"
         inkscape:pageopacity="0"
         inkscape:pageshadow="2"
         inkscape:window-width="1440"
         inkscape:window-height="824"
         id="namedview26"
         showgrid="false"
         fit-margin-top="0"
         fit-margin-left="0"
         fit-margin-right="0"
         fit-margin-bottom="0"
         inkscape:zoom="3.6203867"
         inkscape:cx="37.226252"
         inkscape:cy="36.210015"
         inkscape:window-x="0"
         inkscape:window-y="0"
         inkscape:window-maximized="1"
         inkscape:current-layer="g6983" /><g
         id="g3217"
         transform="translate(-1223.0264,7591.7825)"><g
           id="g3355"
           transform="translate(0.52596752,-1.51338)"><g
             id="g3394"
             transform="translate(-1.304037,6.1068216)"><g
               id="g3432"
               transform="translate(1.3243604,-7.0685396)"><g
                 id="g3490"
                 transform="translate(14.50543,16.201175)"><g
                   id="g3544"
                   transform="translate(1.7832223,7.9070624)"><g
                     id="g3595"
                     transform="translate(9.5264836,-0.46901412)"><g
                       id="g3646"
                       transform="translate(-52.35165,-3.5880634)"><g
                         id="g3767"
                         transform="translate(6.0048559,8.7552768)"><g
                           id="g4075"
                           transform="translate(0.55239017,0.07303033)"><g
                             id="g4264"
                             transform="translate(3.0880737,-2.6377741)"><g
                               id="g4355"
                               transform="translate(8.4601992,5.328404)"><g
                                 id="g4421"
                                 transform="translate(-6.5255081,7.0858766)"><g
                                   id="g4462"
                                   transform="translate(25.518018,13.531166)"><g
                                   id="g4500"
                                   transform="translate(80.26127,-61.023322)"><g
                                   id="g5344"
                                   transform="translate(-17.614831,53.929153)"><g
                                   id="g5294"
                                   display="none"
                                   style="display:none"><rect
                                   id="rect5296"
                                   height="196"
                                   width="394.5"
                                   display="inline"
                                   y="-80.754997"
                                   x="-43.5"
                                   style="fill:#000000;display:inline" /></g><g
                                   id="g5316"
                                   display="none"
                                   style="display:none"><g
                                   id="g5318"
                                   display="inline"
                                   style="display:inline"><path
                                   id="path5320"
                                   d="M 1.581,10.718 H 30.418 L 16,1.051 1.581,10.718 z M 17.592,6.594 c 0,0.879 -0.713,1.592 -1.592,1.592 -0.879,0 -1.592,-0.713 -1.592,-1.592 0,-0.879 0.713,-1.592 1.592,-1.592 0.879,0 1.592,0.712 1.592,1.592 z"
                                   inkscape:connector-curvature="0" /><rect
                                   id="rect5322"
                                   height="3.0209999"
                                   width="31"
                                   y="28.030001"
                                   x="0.5" /><rect
                                   id="rect5324"
                                   height="11.875"
                                   width="3.0209999"
                                   y="13.363"
                                   x="3.6670001" /><rect
                                   id="rect5326"
                                   height="11.875"
                                   width="3.0209999"
                                   y="13.363"
                                   x="8.349" /><rect
                                   id="rect5328"
                                   height="11.875"
                                   width="3.0209999"
                                   y="13.363"
                                   x="20.629999" /><rect
                                   id="rect5330"
                                   height="11.875"
                                   width="3.0209999"
                                   y="13.363"
                                   x="25.312" /></g><path
                                   id="path5332"
                                   d="m 19.055,22.809 c -0.386,0.262 -1.035,0.524 -1.857,0.524 -1.01,0 -1.907,-0.386 -2.53,-1.11 -0.474,-0.524 -0.785,-1.246 -0.897,-2.144 h -0.773 v -0.611 h 0.711 c 0,-0.062 0,-0.125 0,-0.187 0,-0.2 0.012,-0.387 0.025,-0.561 h -0.735 v -0.624 h 0.823 c 0.15,-0.872 0.524,-1.595 1.022,-2.106 0.636,-0.66 1.446,-1.035 2.468,-1.035 0.735,0 1.309,0.212 1.658,0.399 l -0.249,0.822 c -0.312,-0.187 -0.835,-0.349 -1.396,-0.349 -0.673,0 -1.221,0.237 -1.645,0.685 -0.374,0.361 -0.623,0.922 -0.748,1.583 h 3.478 v 0.624 h -3.59 c -0.013,0.162 -0.025,0.349 -0.025,0.523 0,0.075 0,0.137 0,0.225 h 3.615 v 0.611 h -3.53 c 0.1,0.723 0.349,1.259 0.685,1.633 0.461,0.486 1.085,0.723 1.757,0.723 0.661,0 1.234,-0.249 1.521,-0.411 l 0.212,0.786 z"
                                   display="inline"
                                   inkscape:connector-curvature="0"
                                   style="display:inline" /></g><g
                                   id="g5453"
                                   transform="translate(-52.625356,-10.750909)"><g
                                   id="g5403"
                                   display="none"
                                   style="display:none"><rect
                                   id="rect5405"
                                   height="196"
                                   width="394.5"
                                   display="inline"
                                   y="-80.754997"
                                   x="-43.5"
                                   style="fill:#000000;display:inline" /></g><g
                                   id="g5425"
                                   display="none"
                                   style="display:none"><g
                                   id="g5427"
                                   display="inline"
                                   style="display:inline"><path
                                   id="path5429"
                                   d="M 1.581,10.718 H 30.418 L 16,1.051 1.581,10.718 z M 17.592,6.594 c 0,0.879 -0.713,1.592 -1.592,1.592 -0.879,0 -1.592,-0.713 -1.592,-1.592 0,-0.879 0.713,-1.592 1.592,-1.592 0.879,0 1.592,0.712 1.592,1.592 z"
                                   inkscape:connector-curvature="0" /><rect
                                   id="rect5431"
                                   height="3.0209999"
                                   width="31"
                                   y="28.030001"
                                   x="0.5" /><rect
                                   id="rect5433"
                                   height="11.875"
                                   width="3.0209999"
                                   y="13.363"
                                   x="3.6670001" /><rect
                                   id="rect5435"
                                   height="11.875"
                                   width="3.0209999"
                                   y="13.363"
                                   x="8.349" /><rect
                                   id="rect5437"
                                   height="11.875"
                                   width="3.0209999"
                                   y="13.363"
                                   x="20.629999" /><rect
                                   id="rect5439"
                                   height="11.875"
                                   width="3.0209999"
                                   y="13.363"
                                   x="25.312" /></g><path
                                   id="path5441"
                                   d="m 19.055,22.809 c -0.386,0.262 -1.035,0.524 -1.857,0.524 -1.01,0 -1.907,-0.386 -2.53,-1.11 -0.474,-0.524 -0.785,-1.246 -0.897,-2.144 h -0.773 v -0.611 h 0.711 c 0,-0.062 0,-0.125 0,-0.187 0,-0.2 0.012,-0.387 0.025,-0.561 h -0.735 v -0.624 h 0.823 c 0.15,-0.872 0.524,-1.595 1.022,-2.106 0.636,-0.66 1.446,-1.035 2.468,-1.035 0.735,0 1.309,0.212 1.658,0.399 l -0.249,0.822 c -0.312,-0.187 -0.835,-0.349 -1.396,-0.349 -0.673,0 -1.221,0.237 -1.645,0.685 -0.374,0.361 -0.623,0.922 -0.748,1.583 h 3.478 v 0.624 h -3.59 c -0.013,0.162 -0.025,0.349 -0.025,0.523 0,0.075 0,0.137 0,0.225 h 3.615 v 0.611 h -3.53 c 0.1,0.723 0.349,1.259 0.685,1.633 0.461,0.486 1.085,0.723 1.757,0.723 0.661,0 1.234,-0.249 1.521,-0.411 l 0.212,0.786 z"
                                   display="inline"
                                   inkscape:connector-curvature="0"
                                   style="display:inline" /></g><g
                                   id="g5911"
                                   transform="translate(34.803917,-34.731522)"><g
                                   id="g5969"
                                   transform="translate(-76.820846,20.463898)"><g
                                   id="g6024"
                                   transform="translate(-1.5269147,1.6004891)"><g
                                   id="g6071"
                                   transform="translate(7.3886843,1.0351706)"><g
                                   id="g6187"
                                   transform="translate(-0.71000052,-4.6322855)"><g
                                   id="g6263"
                                   transform="translate(-0.66737304,-5.3488176)"><g
                                   id="g6319"
                                   transform="translate(0.79720466,3.5647493)"><g
                                   id="g6384"
                                   transform="translate(-9.1472004,2.261335)"><g
                                   id="g6488"
                                   transform="translate(-2.0348122,-3.4042665)"><g
                                   id="g6516"
                                   transform="translate(-0.63832329,-2.3294036)"><g
                                   id="g6769"
                                   transform="translate(1565.7794,-3801.8487)"><g
                                   id="g6910"
                                   transform="translate(-308.09512,-3790.9493)"><g
                                   id="g6983"
                                   transform="translate(-14.231122,-15.611848)"><g
                                   transform="matrix(0.80941524,0,0,0.85267958,9.8943591,7.9946124)"
                                   style="fill-rule:evenodd"
                                   id="g11106"><path
                                   id="path11108"
                                   d="m 25.523,32.351 c 0,0 1.177,0.739 2.065,-0.147 0.884,-0.886 2.357,-3.099 -1.033,-4.866 -3.388,-1.772 -5.746,-5.16 -8.399,-3.099 L 0.534,47.403 c -0.097,0.046 -0.204,0.083 -0.296,0.13 -0.533,0.269 -0.02,6.508 0.086,6.756 0.168,0.417 1.806,3.34 3.685,10.43 1.255,6.59 5.363,11.687 17.504,11.687 8.152,0 14.408,-2.504 18.253,-7.03 0.015,-0.019 0.026,-0.029 0.039,-0.046 6.071,-6.887 3.427,-13.94 10.195,-13.94 6.77,0 4.118,7.054 10.186,13.94 0.02,0.017 0.038,0.027 0.047,0.046 3.842,4.526 10.1,7.03 18.251,7.03 12.144,0 16.25,-5.097 17.51,-11.687 h 0.004 c 1.872,-7.09 3.51,-10.013 3.678,-10.43 0.102,-0.248 0.622,-6.487 0.088,-6.756 -0.101,-0.046 -0.209,-0.084 -0.309,-0.134 L 81.838,24.239 c -2.656,-2.062 -5.012,1.327 -8.406,3.099 -3.389,1.768 -1.917,3.98 -1.032,4.866 0.883,0.886 2.067,0.147 2.067,0.147 2.21,-5.308 4.866,-6.49 6.338,-4.424 0.208,0.29 5.669,9.643 10.159,17.345 -5.238,-0.67 -10.694,-0.653 -13.096,-0.653 -0.027,0 -0.047,0.004 -0.072,0.008 -0.239,-0.004 -0.474,-0.008 -0.715,-0.008 -2.996,0 -5.579,0.191 -7.816,0.527 -0.025,0 -0.047,0 -0.067,0.004 -0.057,0.004 -0.111,0.019 -0.159,0.028 -1.643,0.256 -3.087,0.594 -4.358,0.99 -4.435,1.235 -8.662,2.87 -14.679,2.87 -6.021,0 -10.245,-1.635 -14.675,-2.87 -1.274,-0.396 -2.726,-0.734 -4.354,-0.99 -0.061,-0.009 -0.109,-0.017 -0.163,-0.028 -0.027,-0.004 -0.047,-0.004 -0.074,-0.004 -2.229,-0.342 -4.813,-0.527 -7.808,-0.527 -0.247,0 -0.479,0.004 -0.72,0.008 -0.027,-0.004 -0.049,-0.008 -0.073,-0.008 -2.402,0 -7.864,-0.017 -13.109,0.657 4.491,-7.702 9.956,-17.06 10.161,-17.349 1.469,-2.066 4.125,-0.884 6.336,4.424 z M 77.08,46.74 c 15.222,0 17.299,4.544 17.299,11.656 0,8.607 -1.586,15.89 -15.896,15.89 -15.224,0 -20.481,-8.872 -20.481,-18.01 0,-5.606 5.167,-9.536 19.078,-9.536 z m -54.154,0 c 13.906,0 19.073,3.93 19.073,9.536 0,9.138 -5.257,18.01 -20.486,18.01 -14.299,0 -15.89,-7.282 -15.89,-15.89 0,-7.112 2.074,-11.656 17.303,-11.656 z"
                                   inkscape:connector-curvature="0" /></g></g></g></g></g></g></g></g></g></g></g></g></g></g></g></g></g></g></g></g></g></g></g></g></g></g></g></g></g></g></g></svg>  </g>
</svg>
