<?xml version="1.0" encoding="UTF-8" standalone="no"?>
<svg
   xmlns:dc="http://purl.org/dc/elements/1.1/"
   xmlns:cc="http://creativecommons.org/ns#"
   xmlns:rdf="http://www.w3.org/1999/02/22-rdf-syntax-ns#"
   xmlns:svg="http://www.w3.org/2000/svg"
   xmlns="http://www.w3.org/2000/svg"
   xmlns:sodipodi="http://sodipodi.sourceforge.net/DTD/sodipodi-0.dtd"
   xmlns:inkscape="http://www.inkscape.org/namespaces/inkscape"
   height="44px"
   width="30px"
   version="1.1"
   viewBox="0 0 29.988946 43.988056"
   id="svg16"
   sodipodi:docname="Parking.svg"
   inkscape:version="0.92.5 (2060ec1f9f, 2020-04-08)">
  <metadata
     id="metadata20">
    <rdf:RDF>
      <cc:Work
         rdf:about="">
        <dc:format>image/svg+xml</dc:format>
        <dc:type
           rdf:resource="http://purl.org/dc/dcmitype/StillImage" />
        <dc:title />
      </cc:Work>
    </rdf:RDF>
  </metadata>
  <sodipodi:namedview
     pagecolor="#ffffff"
     bordercolor="#666666"
     borderopacity="1"
     objecttolerance="10"
     gridtolerance="10"
     guidetolerance="10"
     inkscape:pageopacity="0"
     inkscape:pageshadow="2"
     inkscape:window-width="1680"
     inkscape:window-height="974"
     id="namedview18"
     showgrid="false"
     inkscape:zoom="8.1357218"
     inkscape:cx="13.169233"
     inkscape:cy="51.072176"
     inkscape:window-x="0"
     inkscape:window-y="0"
     inkscape:window-maximized="1"
     inkscape:current-layer="svg12" />
  <defs
     id="defs7">
    <radialGradient
       id="a"
       gradientUnits="userSpaceOnUse"
       cy="127.6"
       cx="-42.75"
       gradientTransform="matrix(4.2749643,0,0,0.98162997,197.99835,-82.088795)"
       r="2.3840001">
      <stop
         stop-color="#010101"
         offset="0"
         id="stop2" />
      <stop
         stop-opacity="0"
         stop-color="#090909"
         offset="1"
         id="stop4" />
    </radialGradient>
  </defs>
  <g
     id="g26"
     transform="translate(-2.0760358e-7,-1.6181156)">
    <path
       style="fill:#f98400;stroke-width:4.27539158"
       inkscape:connector-curvature="0"
       id="path9"
       d="m 14.994475,1.7046139 c -8.2386814,0 -14.91684341,6.6781619 -14.91684341,14.9168421 0.008545,2.561815 0.67294669,5.079165 1.93504231,7.306643 L 15.595595,42.53888 27.955752,23.983679 c 1.277915,-2.243725 1.951716,-4.779887 1.955563,-7.362223 C 29.911273,8.3827758 23.233154,1.7046139 14.994475,1.7046139 Z" />
    <circle
       style="fill:#f9f3f3;stroke-width:4.27539158"
       id="circle11"
       r="9.4272394"
       cx="14.994473"
       cy="16.668474" />
    <ellipse
       style="opacity:0.4;fill:url(#a);stroke-width:4.27496433"
       id="ellipse13"
       cx="14.994473"
       cy="43.18018"
       ry="2.3394945"
       rx="10.192533" />
    <rect
       style="fill:none;stroke-width:4.27539158"
       x="8.2585926"
       y="9.8278542"
       width="13.471761"
       height="13.36915"
       ry="0"
       rx="0"
       id="replace" />
    <svg
       version="1.1"
       x="8.5"
       y="10"
       viewBox="0 0 100 100"
       enable-background="new 0 0 100 100"
       xml:space="preserve"
       id="svg12"
       sodipodi:docname="Parking.svg"
       width="100"
       height="100"
       inkscape:version="0.92.5 (2060ec1f9f, 2020-04-08)"><metadata
         id="metadata18"><rdf:RDF><cc:Work
             rdf:about=""><dc:format>image/svg+xml</dc:format><dc:type
               rdf:resource="http://purl.org/dc/dcmitype/StillImage" /><dc:title /></cc:Work></rdf:RDF></metadata><defs
         id="defs16" /><sodipodi:namedview
         pagecolor="#ffffff"
         bordercolor="#666666"
         borderopacity="1"
         objecttolerance="10"
         gridtolerance="10"
         guidetolerance="10"
         inkscape:pageopacity="0"
         inkscape:pageshadow="2"
         inkscape:window-width="691"
         inkscape:window-height="480"
         id="namedview14"
         showgrid="false"
         inkscape:zoom="1.888"
         inkscape:cx="56.620763"
         inkscape:cy="62.5"
         inkscape:window-x="0"
         inkscape:window-y="0"
         inkscape:window-maximized="0"
         inkscape:current-layer="svg12" /><g
         id="g6"
         transform="matrix(0.12209417,0,0,0.12209417,0.51185888,0.56750389)"><path
           d="M 52.183,33 H 43 v 15 h 9.033 c 2.529,0 4.455,-0.463 5.779,-1.729 1.327,-1.262 1.99,-2.962 1.99,-5.266 0,-2.529 -0.684,-4.368 -2.045,-5.88 C 56.395,33.614 54.537,33 52.183,33 Z"
           id="path2"
           inkscape:connector-curvature="0" /><path
           d="M 82.997,3 H 15.265 C 8.073,3 2,9.048 2,16.242 V 83.974 C 2,91.168 8.073,97 15.265,97 H 82.997 C 90.191,97 96,91.168 96,83.975 V 16.242 C 96,9.048 90.191,3 82.997,3 Z M 67.367,53.465 C 63.587,56.625 58.4,58 51.81,58 H 43 V 77 H 30 V 23 h 22.033 c 4.137,0 7.802,0.588 10.983,2.113 3.186,1.523 5.65,3.605 7.398,6.417 1.743,2.813 2.618,5.856 2.618,9.425 0.001,5.278 -1.887,9.353 -5.665,12.51 z"
           id="path4"
           inkscape:connector-curvature="0" /></g></svg>  </g>
</svg>
