<?xml version="1.0" encoding="UTF-8" standalone="no"?>
<svg
   xmlns:dc="http://purl.org/dc/elements/1.1/"
   xmlns:cc="http://creativecommons.org/ns#"
   xmlns:rdf="http://www.w3.org/1999/02/22-rdf-syntax-ns#"
   xmlns:svg="http://www.w3.org/2000/svg"
   xmlns="http://www.w3.org/2000/svg"
   xmlns:sodipodi="http://sodipodi.sourceforge.net/DTD/sodipodi-0.dtd"
   xmlns:inkscape="http://www.inkscape.org/namespaces/inkscape"
   height="44px"
   width="30px"
   version="1.1"
   viewBox="0 0 29.988946 43.988056"
   id="svg16"
   sodipodi:docname="Pub.svg"
   inkscape:version="0.92.5 (2060ec1f9f, 2020-04-08)">
  <metadata
     id="metadata20">
    <rdf:RDF>
      <cc:Work
         rdf:about="">
        <dc:format>image/svg+xml</dc:format>
        <dc:type
           rdf:resource="http://purl.org/dc/dcmitype/StillImage" />
        <dc:title />
      </cc:Work>
    </rdf:RDF>
  </metadata>
  <sodipodi:namedview
     pagecolor="#ffffff"
     bordercolor="#666666"
     borderopacity="1"
     objecttolerance="10"
     gridtolerance="10"
     guidetolerance="10"
     inkscape:pageopacity="0"
     inkscape:pageshadow="2"
     inkscape:window-width="1680"
     inkscape:window-height="974"
     id="namedview18"
     showgrid="false"
     inkscape:zoom="4.0678609"
     inkscape:cx="0.9366743"
     inkscape:cy="83.987249"
     inkscape:window-x="0"
     inkscape:window-y="0"
     inkscape:window-maximized="1"
     inkscape:current-layer="svg2" />
  <defs
     id="defs7">
    <radialGradient
       id="a"
       gradientUnits="userSpaceOnUse"
       cy="127.6"
       cx="-42.75"
       gradientTransform="matrix(4.2749643,0,0,0.98162997,197.99835,-82.088795)"
       r="2.3840001">
      <stop
         stop-color="#010101"
         offset="0"
         id="stop2" />
      <stop
         stop-opacity="0"
         stop-color="#090909"
         offset="1"
         id="stop4" />
    </radialGradient>
  </defs>
  <g
     id="g26"
     transform="translate(-2.0760358e-7,-1.6181156)">
    <path
       style="fill:#1462cb;stroke-width:4.27539158"
       inkscape:connector-curvature="0"
       id="path9"
       d="m 14.994475,1.7046139 c -8.2386814,0 -14.91684341,6.6781619 -14.91684341,14.9168421 0.008545,2.561815 0.67294669,5.079165 1.93504231,7.306643 L 15.595595,42.53888 27.955752,23.983679 c 1.277915,-2.243725 1.951716,-4.779887 1.955563,-7.362223 C 29.911273,8.3827758 23.233154,1.7046139 14.994475,1.7046139 Z" />
    <circle
       style="fill:#f9f3f3;stroke-width:4.27539158"
       id="circle11"
       r="9.4272394"
       cx="14.994473"
       cy="16.668474" />
    <ellipse
       style="opacity:0.4;fill:url(#a);stroke-width:4.27496433"
       id="ellipse13"
       cx="14.994473"
       cy="43.18018"
       ry="2.3394945"
       rx="10.192533" />
    <rect
       style="fill:none;stroke-width:4.27539158"
       x="8.2585926"
       y="9.8278542"
       width="13.471761"
       height="13.36915"
       ry="0"
       rx="0"
       id="replace" />
    <svg
       version="1.1"
       x="8.5"
       y="10"
       viewBox="0 0 51.423624 71.484374"
       enable-background="new 0 0 100 100"
       xml:space="preserve"
       id="svg2"
       inkscape:version="0.92.5 (2060ec1f9f, 2020-04-08)"
       width="13"
       height="13"
       sodipodi:docname="Pub.svg"><metadata
         id="metadata30"><rdf:RDF><cc:Work
             rdf:about=""><dc:format>image/svg+xml</dc:format><dc:type
               rdf:resource="http://purl.org/dc/dcmitype/StillImage" /><dc:title /></cc:Work></rdf:RDF></metadata><defs
         id="defs28" /><sodipodi:namedview
         pagecolor="#ffffff"
         bordercolor="#666666"
         borderopacity="1"
         objecttolerance="10"
         gridtolerance="10"
         guidetolerance="10"
         inkscape:pageopacity="0"
         inkscape:pageshadow="2"
         inkscape:window-width="1322"
         inkscape:window-height="812"
         id="namedview26"
         showgrid="false"
         fit-margin-top="0"
         fit-margin-left="0"
         fit-margin-right="0"
         fit-margin-bottom="0"
         inkscape:zoom="5.12"
         inkscape:cx="-8.4841888"
         inkscape:cy="41.297875"
         inkscape:window-x="356"
         inkscape:window-y="71"
         inkscape:window-maximized="0"
         inkscape:current-layer="g7133" /><g
         id="g3217"
         transform="translate(-1243.5079,7583.8358)"
         inkscape:transform-center-x="-11.305085"
         inkscape:transform-center-y="1.9661017"><g
           id="g3355"
           transform="translate(0.52596752,-1.51338)"><g
             id="g3394"
             transform="translate(-1.304037,6.1068216)"><g
               id="g3432"
               transform="translate(1.3243604,-7.0685396)"><g
                 id="g3490"
                 transform="translate(14.50543,16.201175)"><g
                   id="g3544"
                   transform="translate(1.7832223,7.9070624)"><g
                     id="g3595"
                     transform="translate(9.5264836,-0.46901412)"><g
                       id="g3646"
                       transform="translate(-52.35165,-3.5880634)"><g
                         id="g3767"
                         transform="translate(6.0048559,8.7552768)"><g
                           id="g4075"
                           transform="translate(0.55239017,0.07303033)"><g
                             id="g4264"
                             transform="translate(3.0880737,-2.6377741)"><g
                               id="g4355"
                               transform="translate(8.4601992,5.328404)"><g
                                 id="g4421"
                                 transform="translate(-6.5255081,7.0858766)"><g
                                   id="g4462"
                                   transform="translate(25.518018,13.531166)"><g
                                   id="g4500"
                                   transform="translate(80.26127,-61.023322)"><g
                                   id="g5344"
                                   transform="translate(-17.614831,53.929153)"><g
                                   id="g5294"
                                   display="none"
                                   style="display:none"><rect
                                   id="rect5296"
                                   height="196"
                                   width="394.5"
                                   display="inline"
                                   y="-80.754997"
                                   x="-43.5"
                                   style="display:inline;fill:#000000" /></g><g
                                   id="g5316"
                                   display="none"
                                   style="display:none"><g
                                   id="g5318"
                                   display="inline"
                                   style="display:inline"><path
                                   id="path5320"
                                   d="M 1.581,10.718 H 30.418 L 16,1.051 Z M 17.592,6.594 c 0,0.879 -0.713,1.592 -1.592,1.592 -0.879,0 -1.592,-0.713 -1.592,-1.592 0,-0.879 0.713,-1.592 1.592,-1.592 0.879,0 1.592,0.712 1.592,1.592 z"
                                   inkscape:connector-curvature="0" /><rect
                                   id="rect5322"
                                   height="3.0209999"
                                   width="31"
                                   y="28.030001"
                                   x="0.5" /><rect
                                   id="rect5324"
                                   height="11.875"
                                   width="3.0209999"
                                   y="13.363"
                                   x="3.6670001" /><rect
                                   id="rect5326"
                                   height="11.875"
                                   width="3.0209999"
                                   y="13.363"
                                   x="8.349" /><rect
                                   id="rect5328"
                                   height="11.875"
                                   width="3.0209999"
                                   y="13.363"
                                   x="20.629999" /><rect
                                   id="rect5330"
                                   height="11.875"
                                   width="3.0209999"
                                   y="13.363"
                                   x="25.312" /></g><path
                                   id="path5332"
                                   d="m 19.055,22.809 c -0.386,0.262 -1.035,0.524 -1.857,0.524 -1.01,0 -1.907,-0.386 -2.53,-1.11 -0.474,-0.524 -0.785,-1.246 -0.897,-2.144 h -0.773 v -0.611 h 0.711 c 0,-0.062 0,-0.125 0,-0.187 0,-0.2 0.012,-0.387 0.025,-0.561 h -0.735 v -0.624 h 0.823 c 0.15,-0.872 0.524,-1.595 1.022,-2.106 0.636,-0.66 1.446,-1.035 2.468,-1.035 0.735,0 1.309,0.212 1.658,0.399 l -0.249,0.822 c -0.312,-0.187 -0.835,-0.349 -1.396,-0.349 -0.673,0 -1.221,0.237 -1.645,0.685 -0.374,0.361 -0.623,0.922 -0.748,1.583 h 3.478 v 0.624 h -3.59 c -0.013,0.162 -0.025,0.349 -0.025,0.523 0,0.075 0,0.137 0,0.225 h 3.615 v 0.611 h -3.53 c 0.1,0.723 0.349,1.259 0.685,1.633 0.461,0.486 1.085,0.723 1.757,0.723 0.661,0 1.234,-0.249 1.521,-0.411 z"
                                   display="inline"
                                   inkscape:connector-curvature="0"
                                   style="display:inline" /></g><g
                                   id="g5453"
                                   transform="translate(-52.625356,-10.750909)"><g
                                   id="g5403"
                                   display="none"
                                   style="display:none"><rect
                                   id="rect5405"
                                   height="196"
                                   width="394.5"
                                   display="inline"
                                   y="-80.754997"
                                   x="-43.5"
                                   style="display:inline;fill:#000000" /></g><g
                                   id="g5425"
                                   display="none"
                                   style="display:none"><g
                                   id="g5427"
                                   display="inline"
                                   style="display:inline"><path
                                   id="path5429"
                                   d="M 1.581,10.718 H 30.418 L 16,1.051 Z M 17.592,6.594 c 0,0.879 -0.713,1.592 -1.592,1.592 -0.879,0 -1.592,-0.713 -1.592,-1.592 0,-0.879 0.713,-1.592 1.592,-1.592 0.879,0 1.592,0.712 1.592,1.592 z"
                                   inkscape:connector-curvature="0" /><rect
                                   id="rect5431"
                                   height="3.0209999"
                                   width="31"
                                   y="28.030001"
                                   x="0.5" /><rect
                                   id="rect5433"
                                   height="11.875"
                                   width="3.0209999"
                                   y="13.363"
                                   x="3.6670001" /><rect
                                   id="rect5435"
                                   height="11.875"
                                   width="3.0209999"
                                   y="13.363"
                                   x="8.349" /><rect
                                   id="rect5437"
                                   height="11.875"
                                   width="3.0209999"
                                   y="13.363"
                                   x="20.629999" /><rect
                                   id="rect5439"
                                   height="11.875"
                                   width="3.0209999"
                                   y="13.363"
                                   x="25.312" /></g><path
                                   id="path5441"
                                   d="m 19.055,22.809 c -0.386,0.262 -1.035,0.524 -1.857,0.524 -1.01,0 -1.907,-0.386 -2.53,-1.11 -0.474,-0.524 -0.785,-1.246 -0.897,-2.144 h -0.773 v -0.611 h 0.711 c 0,-0.062 0,-0.125 0,-0.187 0,-0.2 0.012,-0.387 0.025,-0.561 h -0.735 v -0.624 h 0.823 c 0.15,-0.872 0.524,-1.595 1.022,-2.106 0.636,-0.66 1.446,-1.035 2.468,-1.035 0.735,0 1.309,0.212 1.658,0.399 l -0.249,0.822 c -0.312,-0.187 -0.835,-0.349 -1.396,-0.349 -0.673,0 -1.221,0.237 -1.645,0.685 -0.374,0.361 -0.623,0.922 -0.748,1.583 h 3.478 v 0.624 h -3.59 c -0.013,0.162 -0.025,0.349 -0.025,0.523 0,0.075 0,0.137 0,0.225 h 3.615 v 0.611 h -3.53 c 0.1,0.723 0.349,1.259 0.685,1.633 0.461,0.486 1.085,0.723 1.757,0.723 0.661,0 1.234,-0.249 1.521,-0.411 z"
                                   display="inline"
                                   inkscape:connector-curvature="0"
                                   style="display:inline" /></g><g
                                   id="g5911"
                                   transform="translate(34.803917,-34.731522)"><g
                                   id="g5969"
                                   transform="translate(-76.820846,20.463898)"><g
                                   id="g6024"
                                   transform="translate(-1.5269147,1.6004891)"><g
                                   id="g6071"
                                   transform="translate(7.3886843,1.0351706)"><g
                                   id="g6187"
                                   transform="translate(-0.71000052,-4.6322855)"><g
                                   id="g6263"
                                   transform="translate(-0.66737304,-5.3488176)"><g
                                   id="g6319"
                                   transform="translate(0.79720466,3.5647493)"><g
                                   id="g6384"
                                   transform="translate(-9.1472004,2.261335)"><g
                                   id="g6488"
                                   transform="translate(-2.0348122,-3.4042665)"><g
                                   id="g6516"
                                   transform="translate(-0.63832329,-2.3294036)"><g
                                   id="g6769"
                                   transform="translate(1565.7794,-3801.8487)"><g
                                   id="g6910"
                                   transform="translate(-308.09512,-3790.9493)"><g
                                   id="g6983"
                                   transform="translate(-14.231122,-15.611848)"><g
                                   id="g7151"
                                   transform="translate(33.267081,-22.491026)"><g
                                   id="g7133"
                                   transform="matrix(0.70532211,0,0,0.71484375,-17.82259,36.71875)"><path
                                   id="path7135"
                                   d="m 75.504619,30.771036 0.298935,-6.102347 c 0.01359,-0.2704 -0.02853,-0.52993 -0.104627,-0.773154 2.49067,-1.361513 4.160629,-3.172786 4.160629,-5.713732 0,-3.305947 -2.689055,-5.995002 -5.996361,-5.995002 -0.438891,0 -0.875064,0.04756 -1.300366,0.142673 -1.656371,-3.9472986 -5.587364,-6.6540176 -9.974912,-6.6540176 -1.271832,0 -2.534152,0.2269187 -3.723098,0.6644506 C 56.810322,2.9592258 53.1375,0.85037635 49.097803,0.85037635 c -5.05064,0 -9.428676,3.29235965 -10.898892,8.00737715 -3.146969,0.1549026 -6.342854,2.0354745 -8.24109,4.8767145 -1.751486,2.625191 -2.122437,5.65938 -1.012302,8.328053 0.311164,0.747337 0.707932,1.396841 1.165846,1.97297 -0.04892,0.201101 -0.07066,0.413073 -0.05979,0.63048 l 0.28127,5.720526 c 0.0054,0.125009 -0.03533,0.413074 -0.133161,0.731032 -1.977047,2.428166 -3.019242,5.179725 -3.019242,7.982918 0,3.193168 1.33026,6.270838 3.849465,8.92864 0.130444,0.328829 0.198384,0.626405 0.203819,0.762284 l 2.127873,43.340115 c 0.111424,6.819791 17.567859,7.018175 19.563929,7.018175 1.996069,0 19.453863,-0.198384 19.563926,-7.016816 L 74.63499,48.423138 c 0.0082,-0.14675 0.07745,-0.468784 0.210614,-0.820712 2.266469,-2.558611 3.46085,-5.488172 3.46085,-8.50062 0,-2.621115 -0.918546,-5.216413 -2.661879,-7.527722 -0.104627,-0.347852 -0.148109,-0.669886 -0.139956,-0.803048 z M 32.695792,15.566123 c 1.366948,-2.047703 3.746197,-3.422803 5.920269,-3.422803 0.230995,0 0.464708,0.01087 0.695703,0.03533 0.85604,0.0856 1.63463,-0.500036 1.786815,-1.346565 0.69842,-3.8739244 4.061437,-6.6852706 7.997865,-6.6852706 3.282848,0 6.227356,1.9566643 7.501906,4.9840589 0.182078,0.4320963 0.538082,0.7663603 0.982408,0.9185457 0.444326,0.152185 0.933492,0.108703 1.339772,-0.1209334 1.118288,-0.626404 2.386043,-0.9579501 3.664669,-0.9579501 3.501614,0 6.587437,2.4798005 7.336133,5.8985285 0.115497,0.525853 0.481013,0.962026 0.978332,1.168563 0.49596,0.205178 1.062577,0.156261 1.516415,-0.133162 0.434814,-0.277194 0.93485,-0.423944 1.44304,-0.423944 1.490597,0 2.701283,1.210686 2.701283,2.699925 0,3.339918 -8.576712,5.10771 -14.255115,6.277632 -3.462208,0.713367 -6.450198,1.33026 -8.083469,2.248805 -6.124088,3.447262 -5.145756,9.393348 -4.282921,14.636936 0.323393,1.966176 0.629122,3.823649 0.596511,5.492248 -0.154903,3.550531 -1.879213,5.513989 -3.012448,5.513989 v 0 c -0.76636,0 -1.892801,-0.914468 -2.746124,-3.478514 -0.798971,-2.396914 -0.46199,-4.852256 -0.105986,-7.45163 0.414432,-3.024677 0.843811,-6.149905 -0.373669,-9.540098 -1.391405,-3.869847 -4.524786,-5.485454 -7.287216,-6.910829 -2.250164,-1.160411 -4.19324,-2.163202 -5.024822,-4.168783 -0.929416,-2.236576 0.0462,-4.239439 0.710649,-5.234077 z m 20.229736,79.115821 c -8.942228,0 -14.195328,-1.845243 -15.108438,-2.867057 L 35.694652,48.573964 c -0.04212,-0.854682 -0.327469,-1.876496 -0.782666,-2.801835 -0.107344,-0.217407 -0.250018,-0.41715 -0.421226,-0.589717 -1.297649,-1.303084 -2.843957,-3.417368 -2.843957,-6.080606 0,-1.87106 0.743261,-3.687769 2.2094,-5.397132 0.154903,-0.18072 0.279912,-0.38318 0.369592,-0.601946 0.394051,-0.956592 0.604664,-2.047704 0.565259,-2.926844 l -0.133162,-2.71759 c 0.28127,0.149468 0.562541,0.294859 0.839735,0.437532 2.546381,1.313955 4.744911,2.44719 5.697426,5.096839 0.271759,0.756849 0.432097,1.508262 0.51906,2.263752 -2.231141,-0.30437 -2.405067,-0.690268 -4.420159,-1.160411 -1.254168,1.595225 -1.896878,3.276054 -1.896878,5.0058 0,2.663238 1.547667,4.777522 2.843957,6.080606 0.171209,0.172567 0.313882,0.370951 0.421227,0.589717 0.456555,0.925339 0.740543,1.947153 0.782666,2.801835 l 0.158979,43.240923 c 0.880499,0.987844 5.814282,2.743407 14.212992,2.860263 -0.290782,0.0041 -0.588358,0.0068 -0.891369,0.0068 z m 0.02718,-58.672755 c -0.115498,0 -0.228278,-0.0041 -0.342417,-0.0041 -0.09919,-2.87521 0.596511,-4.946013 3.229855,-6.427099 1.186228,-0.667168 4.073667,-1.26232 7.132314,-1.892801 2.70536,-0.557106 5.648509,-1.165846 8.30767,-1.993352 l -0.239148,4.865844 c -0.03941,0.861476 0.160338,1.949871 0.535366,2.910538 0.0462,0.118215 0.104627,0.229637 0.169849,0.336981 -5.471866,1.395483 -11.901683,2.203965 -18.793489,2.203965 z"
                                   inkscape:connector-curvature="0"
                                   style="stroke-width:1.35879469" /></g></g></g></g></g></g></g></g></g></g></g></g></g></g></g></g></g></g></g></g></g></g></g></g></g></g></g></g></g></g></g></g></svg>  </g>
</svg>
