<?xml version="1.0" encoding="UTF-8" standalone="no"?>
<svg
   xmlns:dc="http://purl.org/dc/elements/1.1/"
   xmlns:cc="http://creativecommons.org/ns#"
   xmlns:rdf="http://www.w3.org/1999/02/22-rdf-syntax-ns#"
   xmlns:svg="http://www.w3.org/2000/svg"
   xmlns="http://www.w3.org/2000/svg"
   xmlns:sodipodi="http://sodipodi.sourceforge.net/DTD/sodipodi-0.dtd"
   xmlns:inkscape="http://www.inkscape.org/namespaces/inkscape"
   height="44px"
   width="30px"
   version="1.1"
   viewBox="0 0 29.988946 43.988056"
   id="svg16"
   sodipodi:docname="School.svg"
   inkscape:version="0.92.5 (2060ec1f9f, 2020-04-08)">
  <metadata
     id="metadata20">
    <rdf:RDF>
      <cc:Work
         rdf:about="">
        <dc:format>image/svg+xml</dc:format>
        <dc:type
           rdf:resource="http://purl.org/dc/dcmitype/StillImage" />
        <dc:title />
      </cc:Work>
    </rdf:RDF>
  </metadata>
  <sodipodi:namedview
     pagecolor="#ffffff"
     bordercolor="#666666"
     borderopacity="1"
     objecttolerance="10"
     gridtolerance="10"
     guidetolerance="10"
     inkscape:pageopacity="0"
     inkscape:pageshadow="2"
     inkscape:window-width="1680"
     inkscape:window-height="974"
     id="namedview18"
     showgrid="false"
     inkscape:zoom="16.271444"
     inkscape:cx="9.24576"
     inkscape:cy="31.845274"
     inkscape:window-x="0"
     inkscape:window-y="0"
     inkscape:window-maximized="1"
     inkscape:current-layer="svg12" />
  <defs
     id="defs7">
    <radialGradient
       id="a"
       gradientUnits="userSpaceOnUse"
       cy="127.6"
       cx="-42.75"
       gradientTransform="matrix(4.2749643,0,0,0.98162997,197.99835,-82.088795)"
       r="2.3840001">
      <stop
         stop-color="#010101"
         offset="0"
         id="stop2" />
      <stop
         stop-opacity="0"
         stop-color="#090909"
         offset="1"
         id="stop4" />
    </radialGradient>
  </defs>
  <g
     id="g26"
     transform="translate(-2.0760358e-7,-1.6181156)">
    <path
       style="fill:#1462cb;stroke-width:4.27539158"
       inkscape:connector-curvature="0"
       id="path9"
       d="m 14.994475,1.7046139 c -8.2386814,0 -14.91684341,6.6781619 -14.91684341,14.9168421 0.008545,2.561815 0.67294669,5.079165 1.93504231,7.306643 L 15.595595,42.53888 27.955752,23.983679 c 1.277915,-2.243725 1.951716,-4.779887 1.955563,-7.362223 C 29.911273,8.3827758 23.233154,1.7046139 14.994475,1.7046139 Z" />
    <circle
       style="fill:#f9f3f3;stroke-width:4.27539158"
       id="circle11"
       r="9.4272394"
       cx="14.994473"
       cy="16.668474" />
    <ellipse
       style="opacity:0.4;fill:url(#a);stroke-width:4.27496433"
       id="ellipse13"
       cx="14.994473"
       cy="43.18018"
       ry="2.3394945"
       rx="10.192533" />
    <rect
       style="fill:none;stroke-width:4.27539158"
       x="8.2585926"
       y="9.8278542"
       width="13.471761"
       height="13.36915"
       ry="0"
       rx="0"
       id="replace" />
    <svg
       viewBox="0 0 100 100"
       x="8.5"
       y="10"
       version="1.1"
       id="svg12"
       sodipodi:docname="School.svg"
       width="100"
       height="100"
       inkscape:version="0.92.5 (2060ec1f9f, 2020-04-08)">
      <metadata
         id="metadata18">
        <rdf:RDF>
          <cc:Work
             rdf:about="">
            <dc:format>image/svg+xml</dc:format>
            <dc:type
               rdf:resource="http://purl.org/dc/dcmitype/StillImage" />
            <dc:title>Artboard 14</dc:title>
          </cc:Work>
        </rdf:RDF>
      </metadata>
      <defs
         id="defs16" />
      <sodipodi:namedview
         pagecolor="#ffffff"
         bordercolor="#666666"
         borderopacity="1"
         objecttolerance="10"
         gridtolerance="10"
         guidetolerance="10"
         inkscape:pageopacity="0"
         inkscape:pageshadow="2"
         inkscape:window-width="1680"
         inkscape:window-height="884"
         id="namedview14"
         showgrid="false"
         inkscape:zoom="2.085965"
         inkscape:cx="-7.0234571"
         inkscape:cy="21.044464"
         inkscape:window-x="0"
         inkscape:window-y="0"
         inkscape:window-maximized="1"
         inkscape:current-layer="svg12" />
      <title
         id="title2">Artboard 14</title>
      <g
         data-name="14-school"
         id="g6"
         transform="matrix(0.50222278,0,0,0.50222278,-1.5537207,-1.8500806)">
        <path
           d="M 28,22.18 V 12 a 1,1 0 0 0 -0.07,-0.35 v -0.08 a 1.26,1.26 0 0 0 -0.19,-0.28 v 0 a 0.75,0.75 0 0 0 -0.2,-0.15 l -12,-7 a 1,1 0 0 0 -1,0 l -12,7 a 1,1 0 0 0 0,1.72 L 5,14.32 V 20 a 1,1 0 0 0 0.45,0.83 17.17,17.17 0 0 0 19.1,0 A 1,1 0 0 0 25,20 v -5.68 l 1,-0.58 v 8.44 a 3,3 0 1 0 2,0 z m -5,-2.73 a 15.18,15.18 0 0 1 -16,0 v -4 l 7.5,4.37 a 1,1 0 0 0 1,0 L 23,15.49 Z M 15,17.84 5,12 15,6.16 25,12 Z M 27,26 a 1,1 0 1 1 1,-1 1,1 0 0 1 -1,1 z"
           id="path4"
           inkscape:connector-curvature="0" />
      </g>
    </svg>
  </g>
</svg>
