<?xml version="1.0" encoding="UTF-8" standalone="no"?>
<svg
   xmlns:dc="http://purl.org/dc/elements/1.1/"
   xmlns:cc="http://creativecommons.org/ns#"
   xmlns:rdf="http://www.w3.org/1999/02/22-rdf-syntax-ns#"
   xmlns:svg="http://www.w3.org/2000/svg"
   xmlns="http://www.w3.org/2000/svg"
   xmlns:sodipodi="http://sodipodi.sourceforge.net/DTD/sodipodi-0.dtd"
   xmlns:inkscape="http://www.inkscape.org/namespaces/inkscape"
   height="44px"
   width="30px"
   version="1.1"
   viewBox="0 0 29.988946 43.988056"
   id="svg16"
   sodipodi:docname="Taxi.svg"
   inkscape:version="0.92.5 (2060ec1f9f, 2020-04-08)">
  <metadata
     id="metadata20">
    <rdf:RDF>
      <cc:Work
         rdf:about="">
        <dc:format>image/svg+xml</dc:format>
        <dc:type
           rdf:resource="http://purl.org/dc/dcmitype/StillImage" />
        <dc:title />
      </cc:Work>
    </rdf:RDF>
  </metadata>
  <sodipodi:namedview
     pagecolor="#ffffff"
     bordercolor="#666666"
     borderopacity="1"
     objecttolerance="10"
     gridtolerance="10"
     guidetolerance="10"
     inkscape:pageopacity="0"
     inkscape:pageshadow="2"
     inkscape:window-width="1680"
     inkscape:window-height="974"
     id="namedview18"
     showgrid="false"
     inkscape:zoom="4.0678609"
     inkscape:cx="0.9366743"
     inkscape:cy="83.987249"
     inkscape:window-x="0"
     inkscape:window-y="0"
     inkscape:window-maximized="1"
     inkscape:current-layer="svg2" />
  <defs
     id="defs7">
    <radialGradient
       id="a"
       gradientUnits="userSpaceOnUse"
       cy="127.6"
       cx="-42.75"
       gradientTransform="matrix(4.2749643,0,0,0.98162997,197.99835,-82.088795)"
       r="2.3840001">
      <stop
         stop-color="#010101"
         offset="0"
         id="stop2" />
      <stop
         stop-opacity="0"
         stop-color="#090909"
         offset="1"
         id="stop4" />
    </radialGradient>
  </defs>
  <g
     id="g26"
     transform="translate(-2.0760358e-7,-1.6181156)">
    <path
       style="fill:#1462cb;stroke-width:4.27539158"
       inkscape:connector-curvature="0"
       id="path9"
       d="m 14.994475,1.7046139 c -8.2386814,0 -14.91684341,6.6781619 -14.91684341,14.9168421 0.008545,2.561815 0.67294669,5.079165 1.93504231,7.306643 L 15.595595,42.53888 27.955752,23.983679 c 1.277915,-2.243725 1.951716,-4.779887 1.955563,-7.362223 C 29.911273,8.3827758 23.233154,1.7046139 14.994475,1.7046139 Z" />
    <circle
       style="fill:#f9f3f3;stroke-width:4.27539158"
       id="circle11"
       r="9.4272394"
       cx="14.994473"
       cy="16.668474" />
    <ellipse
       style="opacity:0.4;fill:url(#a);stroke-width:4.27496433"
       id="ellipse13"
       cx="14.994473"
       cy="43.18018"
       ry="2.3394945"
       rx="10.192533" />
    <rect
       style="fill:none;stroke-width:4.27539158"
       x="8.2585926"
       y="9.8278542"
       width="13.471761"
       height="13.36915"
       ry="0"
       rx="0"
       id="replace" />
    <svg
       version="1.1"
       x="8.5"
       y="10"
       viewBox="0 0 97.702572 99.309127"
       enable-background="new 0 0 100 100"
       xml:space="preserve"
       id="svg2"
       inkscape:version="0.92.5 (2060ec1f9f, 2020-04-08)"
       width="13"
       height="13"
       sodipodi:docname="Taxi.svg"><metadata
         id="metadata30"><rdf:RDF><cc:Work
             rdf:about=""><dc:format>image/svg+xml</dc:format><dc:type
               rdf:resource="http://purl.org/dc/dcmitype/StillImage" /><dc:title /></cc:Work></rdf:RDF></metadata><defs
         id="defs28" /><sodipodi:namedview
         pagecolor="#ffffff"
         bordercolor="#666666"
         borderopacity="1"
         objecttolerance="10"
         gridtolerance="10"
         guidetolerance="10"
         inkscape:pageopacity="0"
         inkscape:pageshadow="2"
         inkscape:window-width="1322"
         inkscape:window-height="812"
         id="namedview26"
         showgrid="false"
         fit-margin-top="0"
         fit-margin-left="0"
         fit-margin-right="0"
         fit-margin-bottom="0"
         inkscape:zoom="3.776"
         inkscape:cx="23.70692"
         inkscape:cy="38.882595"
         inkscape:window-x="118"
         inkscape:window-y="12"
         inkscape:window-maximized="0"
         inkscape:current-layer="g6516" /><g
         id="g3217"
         transform="translate(27.250922,-7.2038625)"><g
           id="g3355"
           transform="translate(0.52596752,-1.51338)"><g
             id="g3394"
             transform="translate(-1.304037,6.1068216)"><g
               id="g3432"
               transform="translate(1.3243604,-7.0685396)"><g
                 id="g3490"
                 transform="translate(14.50543,16.201175)"><g
                   id="g3544"
                   transform="translate(1.7832223,7.9070624)"><g
                     id="g3595"
                     transform="translate(9.5264836,-0.46901412)"><g
                       id="g3646"
                       transform="translate(-52.35165,-3.5880634)"><g
                         id="g3767"
                         transform="translate(6.0048559,8.7552768)"><g
                           id="g4075"
                           transform="translate(0.55239017,0.07303033)"><g
                             id="g4264"
                             transform="translate(3.0880737,-2.6377741)"><g
                               id="g4355"
                               transform="translate(8.4601992,5.328404)"><g
                                 id="g4421"
                                 transform="translate(-6.5255081,7.0858766)"><g
                                   id="g4462"
                                   transform="translate(25.518018,13.531166)"><g
                                   id="g4500"
                                   transform="translate(80.26127,-61.023322)"><g
                                   id="g5344"
                                   transform="translate(-17.614831,53.929153)"><g
                                   id="g5294"
                                   display="none"
                                   style="display:none"><rect
                                   id="rect5296"
                                   height="196"
                                   width="394.5"
                                   display="inline"
                                   y="-80.754997"
                                   x="-43.5"
                                   style="fill:#000000;display:inline" /></g><g
                                   id="g5316"
                                   display="none"
                                   style="display:none"><g
                                   id="g5318"
                                   display="inline"
                                   style="display:inline"><path
                                   id="path5320"
                                   d="M 1.581,10.718 H 30.418 L 16,1.051 1.581,10.718 z M 17.592,6.594 c 0,0.879 -0.713,1.592 -1.592,1.592 -0.879,0 -1.592,-0.713 -1.592,-1.592 0,-0.879 0.713,-1.592 1.592,-1.592 0.879,0 1.592,0.712 1.592,1.592 z"
                                   inkscape:connector-curvature="0" /><rect
                                   id="rect5322"
                                   height="3.0209999"
                                   width="31"
                                   y="28.030001"
                                   x="0.5" /><rect
                                   id="rect5324"
                                   height="11.875"
                                   width="3.0209999"
                                   y="13.363"
                                   x="3.6670001" /><rect
                                   id="rect5326"
                                   height="11.875"
                                   width="3.0209999"
                                   y="13.363"
                                   x="8.349" /><rect
                                   id="rect5328"
                                   height="11.875"
                                   width="3.0209999"
                                   y="13.363"
                                   x="20.629999" /><rect
                                   id="rect5330"
                                   height="11.875"
                                   width="3.0209999"
                                   y="13.363"
                                   x="25.312" /></g><path
                                   id="path5332"
                                   d="m 19.055,22.809 c -0.386,0.262 -1.035,0.524 -1.857,0.524 -1.01,0 -1.907,-0.386 -2.53,-1.11 -0.474,-0.524 -0.785,-1.246 -0.897,-2.144 h -0.773 v -0.611 h 0.711 c 0,-0.062 0,-0.125 0,-0.187 0,-0.2 0.012,-0.387 0.025,-0.561 h -0.735 v -0.624 h 0.823 c 0.15,-0.872 0.524,-1.595 1.022,-2.106 0.636,-0.66 1.446,-1.035 2.468,-1.035 0.735,0 1.309,0.212 1.658,0.399 l -0.249,0.822 c -0.312,-0.187 -0.835,-0.349 -1.396,-0.349 -0.673,0 -1.221,0.237 -1.645,0.685 -0.374,0.361 -0.623,0.922 -0.748,1.583 h 3.478 v 0.624 h -3.59 c -0.013,0.162 -0.025,0.349 -0.025,0.523 0,0.075 0,0.137 0,0.225 h 3.615 v 0.611 h -3.53 c 0.1,0.723 0.349,1.259 0.685,1.633 0.461,0.486 1.085,0.723 1.757,0.723 0.661,0 1.234,-0.249 1.521,-0.411 l 0.212,0.786 z"
                                   display="inline"
                                   inkscape:connector-curvature="0"
                                   style="display:inline" /></g><g
                                   id="g5453"
                                   transform="translate(-52.625356,-10.750909)"><g
                                   id="g5403"
                                   display="none"
                                   style="display:none"><rect
                                   id="rect5405"
                                   height="196"
                                   width="394.5"
                                   display="inline"
                                   y="-80.754997"
                                   x="-43.5"
                                   style="fill:#000000;display:inline" /></g><g
                                   id="g5425"
                                   display="none"
                                   style="display:none"><g
                                   id="g5427"
                                   display="inline"
                                   style="display:inline"><path
                                   id="path5429"
                                   d="M 1.581,10.718 H 30.418 L 16,1.051 1.581,10.718 z M 17.592,6.594 c 0,0.879 -0.713,1.592 -1.592,1.592 -0.879,0 -1.592,-0.713 -1.592,-1.592 0,-0.879 0.713,-1.592 1.592,-1.592 0.879,0 1.592,0.712 1.592,1.592 z"
                                   inkscape:connector-curvature="0" /><rect
                                   id="rect5431"
                                   height="3.0209999"
                                   width="31"
                                   y="28.030001"
                                   x="0.5" /><rect
                                   id="rect5433"
                                   height="11.875"
                                   width="3.0209999"
                                   y="13.363"
                                   x="3.6670001" /><rect
                                   id="rect5435"
                                   height="11.875"
                                   width="3.0209999"
                                   y="13.363"
                                   x="8.349" /><rect
                                   id="rect5437"
                                   height="11.875"
                                   width="3.0209999"
                                   y="13.363"
                                   x="20.629999" /><rect
                                   id="rect5439"
                                   height="11.875"
                                   width="3.0209999"
                                   y="13.363"
                                   x="25.312" /></g><path
                                   id="path5441"
                                   d="m 19.055,22.809 c -0.386,0.262 -1.035,0.524 -1.857,0.524 -1.01,0 -1.907,-0.386 -2.53,-1.11 -0.474,-0.524 -0.785,-1.246 -0.897,-2.144 h -0.773 v -0.611 h 0.711 c 0,-0.062 0,-0.125 0,-0.187 0,-0.2 0.012,-0.387 0.025,-0.561 h -0.735 v -0.624 h 0.823 c 0.15,-0.872 0.524,-1.595 1.022,-2.106 0.636,-0.66 1.446,-1.035 2.468,-1.035 0.735,0 1.309,0.212 1.658,0.399 l -0.249,0.822 c -0.312,-0.187 -0.835,-0.349 -1.396,-0.349 -0.673,0 -1.221,0.237 -1.645,0.685 -0.374,0.361 -0.623,0.922 -0.748,1.583 h 3.478 v 0.624 h -3.59 c -0.013,0.162 -0.025,0.349 -0.025,0.523 0,0.075 0,0.137 0,0.225 h 3.615 v 0.611 h -3.53 c 0.1,0.723 0.349,1.259 0.685,1.633 0.461,0.486 1.085,0.723 1.757,0.723 0.661,0 1.234,-0.249 1.521,-0.411 l 0.212,0.786 z"
                                   display="inline"
                                   inkscape:connector-curvature="0"
                                   style="display:inline" /></g><g
                                   id="g5911"
                                   transform="translate(34.803917,-34.731522)"><g
                                   id="g5969"
                                   transform="translate(-76.820846,20.463898)"><g
                                   id="g6024"
                                   transform="translate(-1.5269147,1.6004891)"><g
                                   id="g6071"
                                   transform="translate(7.3886843,1.0351706)"><g
                                   id="g6187"
                                   transform="translate(-0.71000052,-4.6322855)"><g
                                   id="g6263"
                                   transform="translate(-0.66737304,-5.3488176)"><g
                                   id="g6319"
                                   transform="translate(0.79720466,3.5647493)"><g
                                   id="g6384"
                                   transform="translate(-9.1472004,2.261335)"><g
                                   id="g6488"
                                   transform="translate(-2.0348122,-3.4042665)"><g
                                   id="g6516"
                                   transform="translate(-0.63832329,-2.3294036)"><path
                                   id="path9425"
                                   d="m 96.367094,40.33405 v -3.811837 c 0,-0.322361 -0.306015,-0.587301 -0.679665,-0.587301 H 87.31192 c -0.05101,0 -0.104052,0.0053 -0.154018,0.017 L 84.626595,25.303898 C 83.618041,21.066424 79.403738,18.100457 74.390093,18.100457 H 64.250389 v -3.544249 c 0,-3.068327 -2.9091,-5.5781283 -6.464559,-5.5781283 H 41.265874 c -3.556498,0 -6.46664,2.5106973 -6.46664,5.5781283 V 18.09956 H 24.705318 c -5.013645,0 -9.227947,2.965961 -10.235463,7.203435 L 11.93545,35.960889 c -0.06344,-0.017 -0.129036,-0.02616 -0.197773,-0.02616 H 3.3632124 c -0.3725897,-1.3e-5 -0.6786203,0.264874 -0.6786203,0.587235 v 3.811838 c 0,0.323277 0.3060111,0.586385 0.6786203,0.586385 h 7.3940126 l -0.02158,0.08888 c -4.4994954,1.676487 -7.6625611,5.544 -7.6625611,10.030214 V 74.08991 H 9.086966 v 9.53006 c 0,1.628899 2.124322,2.964172 4.720138,2.964172 h 6.610275 c 2.59581,0 4.720132,-1.334378 4.720132,-2.964172 v -9.53006 h 47.474063 v 9.53006 c 0,1.628899 2.125363,2.964172 4.72014,2.964172 h 6.609234 c 2.597897,0 4.722218,-1.334378 4.722218,-2.964172 v -9.53006 h 7.595939 V 51.039537 c 0,-4.567029 -3.278595,-8.492912 -7.908183,-10.119115 h 7.336764 c 0.37364,0 0.679665,-0.264023 0.679654,-0.586385 z M 40.095988,11.244629 h 3.771943 v 3.254209 h 3.77195 v -3.253314 h 3.771943 v 3.25421 h 3.769863 v -3.25421 h 3.771949 v 3.25421 h -3.770903 v 3.253312 h -3.770909 v -3.254208 h -3.771943 v 3.253313 h -3.77195 v -3.25421 H 40.095988 Z M 19.975814,27.796735 c 0.848271,-3.372742 4.401643,-5.733482 8.627391,-5.733482 h 41.886916 c 4.226787,0 7.78016,2.36074 8.630517,5.733482 l 3.102694,12.324501 H 16.872079 Z m 7.99353,33.335871 c 0,0.511833 -0.48292,0.927603 -1.073092,0.927603 H 8.2686261 c -0.5901131,0 -1.0730924,-0.41576 -1.0730924,-0.927603 v -6.736494 c 0,-0.510062 0.4829207,-0.927595 1.0730924,-0.927595 H 26.895211 c 0.590114,0 1.073094,0.417585 1.073094,0.927595 v 6.736494 z m 39.723047,1.203269 H 32.896602 v -1.663021 h 34.795789 z m 0,-3.753472 H 32.896602 v -1.663022 h 34.795789 z m 0,-3.652906 H 32.896602 v -1.663024 h 34.795789 z m 23.358171,-1.46098 c 0.59011,0 1.074134,0.417585 1.074134,0.927595 v 6.736494 c 0,0.511833 -0.483972,0.927603 -1.074134,0.927603 h -18.62762 c -0.591225,0 -1.075173,-0.41576 -1.075173,-0.927603 v -6.736494 c 0,-0.510062 0.483968,-0.927595 1.075173,-0.927595 z"
                                   inkscape:connector-curvature="0"
                                   style="clip-rule:evenodd;fill-rule:evenodd;stroke-width:0.96675682" /></g></g></g></g></g></g></g></g></g></g></g></g></g></g></g></g></g></g></g></g></g></g></g></g></g></g></g></svg>  </g>
</svg>
