<?xml version="1.0" encoding="UTF-8" standalone="no"?>
<svg
   xmlns:dc="http://purl.org/dc/elements/1.1/"
   xmlns:cc="http://creativecommons.org/ns#"
   xmlns:rdf="http://www.w3.org/1999/02/22-rdf-syntax-ns#"
   xmlns:svg="http://www.w3.org/2000/svg"
   xmlns="http://www.w3.org/2000/svg"
   xmlns:sodipodi="http://sodipodi.sourceforge.net/DTD/sodipodi-0.dtd"
   xmlns:inkscape="http://www.inkscape.org/namespaces/inkscape"
   height="44px"
   width="30px"
   version="1.1"
   viewBox="0 0 29.988946 43.988056"
   id="svg46"
   sodipodi:docname="Toilet.svg"
   inkscape:version="0.92.5 (2060ec1f9f, 2020-04-08)">
  <metadata
     id="metadata20">
    <rdf:RDF>
      <cc:Work
         rdf:about="">
        <dc:format>image/svg+xml</dc:format>
        <dc:type
           rdf:resource="http://purl.org/dc/dcmitype/StillImage" />
        <dc:title />
      </cc:Work>
    </rdf:RDF>
  </metadata>
  <sodipodi:namedview
     pagecolor="#ffffff"
     bordercolor="#666666"
     borderopacity="1"
     objecttolerance="10"
     gridtolerance="10"
     guidetolerance="10"
     inkscape:pageopacity="0"
     inkscape:pageshadow="2"
     inkscape:window-width="1680"
     inkscape:window-height="974"
     id="namedview18"
     showgrid="false"
     inkscape:zoom="16.271444"
     inkscape:cx="12.376906"
     inkscape:cy="26.477962"
     inkscape:window-x="0"
     inkscape:window-y="0"
     inkscape:window-maximized="1"
     inkscape:current-layer="g39" />
  <defs
     id="defs7">
    <radialGradient
       id="a"
       gradientUnits="userSpaceOnUse"
       cy="127.6"
       cx="-42.75"
       gradientTransform="matrix(4.2749643,0,0,0.98162997,197.99835,-82.088795)"
       r="2.3840001">
      <stop
         stop-color="#010101"
         offset="0"
         id="stop2" />
      <stop
         stop-opacity="0"
         stop-color="#090909"
         offset="1"
         id="stop4" />
    </radialGradient>
  </defs>
  <g
     id="g44"
     transform="translate(-2.0760358e-7,-1.6181156)">
    <path
       style="fill:#7b65ff;stroke-width:4.27539158"
       inkscape:connector-curvature="0"
       id="path9"
       d="m 14.994475,1.7046139 c -8.2386814,0 -14.91684341,6.6781619 -14.91684341,14.9168421 0.008545,2.561815 0.67294669,5.079165 1.93504231,7.306643 L 15.595595,42.53888 27.955752,23.983679 c 1.277915,-2.243725 1.951716,-4.779887 1.955563,-7.362223 C 29.911273,8.3827758 23.233154,1.7046139 14.994475,1.7046139 Z" />
    <circle
       style="fill:#f9f3f3;stroke-width:4.27539158"
       id="circle11"
       r="9.4272394"
       cx="14.994473"
       cy="16.668474" />
    <ellipse
       style="opacity:0.4;fill:url(#a);stroke-width:4.27496433"
       id="ellipse13"
       cx="14.994473"
       cy="43.18018"
       ry="2.3394945"
       rx="10.192533" />
    <rect
       style="fill:none;stroke-width:4.27539158"
       x="8.2585926"
       y="9.8278542"
       width="13.471761"
       height="13.36915"
       ry="0"
       rx="0"
       id="replace" />
    <svg
       version="1.1"
       x="8.5"
       y="10"
       viewBox="0 0 100 100"
       enable-background="new 0 0 100 100"
       xml:space="preserve"
       id="svg16"
       sodipodi:docname="Toilet.svg"
       width="100"
       height="100"
       inkscape:version="0.92.5 (2060ec1f9f, 2020-04-08)"><metadata
         id="metadata22"><rdf:RDF><cc:Work
             rdf:about=""><dc:format>image/svg+xml</dc:format><dc:type
               rdf:resource="http://purl.org/dc/dcmitype/StillImage" /><dc:title /></cc:Work></rdf:RDF></metadata><defs
         id="defs20" /><sodipodi:namedview
         pagecolor="#ffffff"
         bordercolor="#666666"
         borderopacity="1"
         objecttolerance="10"
         gridtolerance="10"
         guidetolerance="10"
         inkscape:pageopacity="0"
         inkscape:pageshadow="2"
         inkscape:window-width="1680"
         inkscape:window-height="884"
         id="namedview33"
         showgrid="false"
         inkscape:zoom="1.888"
         inkscape:cx="56.620763"
         inkscape:cy="62.5"
         inkscape:window-x="0"
         inkscape:window-y="0"
         inkscape:window-maximized="1"
         inkscape:current-layer="svg16" /><g
         id="g39"
         transform="translate(-9.2206904)"><g
           id="g276"
           transform="matrix(0.16115623,0,0,0.16115623,6.4785838,-1.6746343)"><g
             id="g30"
             transform="translate(-48)"><circle
               id="circle2"
               r="6.7789998"
               cy="13.279"
               cx="78.560997" /><path
               id="path6"
               d="M 93.814,30.045 C 93.467,26.008 90.086,22.838 85.959,22.838 H 71.163 c -4.127,0 -7.508,3.17 -7.855,7.207 h -0.034 v 24.238 c 0,1.416 1.148,2.564 2.564,2.564 1.416,0 2.564,-1.148 2.564,-2.564 V 30.728 h 1.42 v 24.847 0.589 33.429 c 0,2.157 1.749,3.905 3.905,3.905 2.157,0 3.905,-1.749 3.905,-3.905 V 56.165 h 1.857 v 33.429 c 0,2.157 1.749,3.905 3.905,3.905 2.156,0 3.905,-1.749 3.905,-3.905 V 56.165 55.576 30.728 h 1.42 v 23.555 c 0,1.416 1.148,2.564 2.564,2.564 1.416,0 2.564,-1.148 2.564,-2.564 V 30.045 Z"
               inkscape:connector-curvature="0" /></g><g
             id="g26"
             transform="translate(56)"><circle
               id="circle4"
               r="6.7789998"
               cy="13.279"
               cx="26.659" /><path
               id="path8"
               d="M 41.859,29.615 C 41.317,25.787 38.035,22.839 34.057,22.839 H 19.261 c -3.978,0 -7.26,2.948 -7.802,6.777 L 6.216,52.671 c -0.314,1.381 0.551,2.755 1.932,3.069 1.381,0.314 2.755,-0.551 3.069,-1.932 l 5.249,-23.08 h 3.493 l -7.153,32.304 h 6.914 v 27.631 c 0,1.567 1.27,2.836 2.836,2.836 h 0.406 c 1.566,0 2.836,-1.27 2.836,-2.836 v -27.63 h 0.86 0.585 v 27.631 c 0,1.567 1.27,2.836 2.836,2.836 h 0.406 c 1.566,0 2.836,-1.27 2.836,-2.836 V 63.033 h 6.914 L 33.36,30.728 h 3.493 l 5.249,23.08 c 0.314,1.381 1.688,2.246 3.069,1.932 1.381,-0.314 2.246,-1.688 1.932,-3.069 z"
               inkscape:connector-curvature="0" /></g><rect
             x="53.220001"
             y="6.5"
             width="4"
             height="87"
             id="rect10" /></g></g></svg>  </g>
</svg>
