<?xml version="1.0" encoding="UTF-8" standalone="no"?>
<svg
   xmlns:dc="http://purl.org/dc/elements/1.1/"
   xmlns:cc="http://creativecommons.org/ns#"
   xmlns:rdf="http://www.w3.org/1999/02/22-rdf-syntax-ns#"
   xmlns:svg="http://www.w3.org/2000/svg"
   xmlns="http://www.w3.org/2000/svg"
   xmlns:sodipodi="http://sodipodi.sourceforge.net/DTD/sodipodi-0.dtd"
   xmlns:inkscape="http://www.inkscape.org/namespaces/inkscape"
   height="44px"
   width="30px"
   version="1.1"
   viewBox="0 0 29.988946 43.988056"
   id="svg16"
   sodipodi:docname="Town Hall.svg"
   inkscape:version="0.92.5 (2060ec1f9f, 2020-04-08)">
  <metadata
     id="metadata20">
    <rdf:RDF>
      <cc:Work
         rdf:about="">
        <dc:format>image/svg+xml</dc:format>
        <dc:type
           rdf:resource="http://purl.org/dc/dcmitype/StillImage" />
        <dc:title />
      </cc:Work>
    </rdf:RDF>
  </metadata>
  <sodipodi:namedview
     pagecolor="#ffffff"
     bordercolor="#666666"
     borderopacity="1"
     objecttolerance="10"
     gridtolerance="10"
     guidetolerance="10"
     inkscape:pageopacity="0"
     inkscape:pageshadow="2"
     inkscape:window-width="1680"
     inkscape:window-height="974"
     id="namedview18"
     showgrid="false"
     inkscape:zoom="23.011296"
     inkscape:cx="25.456207"
     inkscape:cy="29.429816"
     inkscape:window-x="0"
     inkscape:window-y="0"
     inkscape:window-maximized="1"
     inkscape:current-layer="svg22" />
  <defs
     id="defs7">
    <radialGradient
       id="a"
       gradientUnits="userSpaceOnUse"
       cy="127.6"
       cx="-42.75"
       gradientTransform="matrix(4.2749643,0,0,0.98162997,197.99835,-82.088795)"
       r="2.3840001">
      <stop
         stop-color="#010101"
         offset="0"
         id="stop2" />
      <stop
         stop-opacity="0"
         stop-color="#090909"
         offset="1"
         id="stop4" />
    </radialGradient>
  </defs>
  <g
     id="g26"
     transform="translate(-2.0760358e-7,-1.6181156)">
    <path
       style="fill:#FF4300;stroke-width:4.27539158"
       inkscape:connector-curvature="0"
       id="path9"
       d="m 14.994475,1.7046139 c -8.2386814,0 -14.91684341,6.6781619 -14.91684341,14.9168421 0.008545,2.561815 0.67294669,5.079165 1.93504231,7.306643 L 15.595595,42.53888 27.955752,23.983679 c 1.277915,-2.243725 1.951716,-4.779887 1.955563,-7.362223 C 29.911273,8.3827758 23.233154,1.7046139 14.994475,1.7046139 Z" />
    <circle
       style="fill:#f9f3f3;stroke-width:4.27539158"
       id="circle11"
       r="9.4272394"
       cx="14.994473"
       cy="16.668474" />
    <ellipse
       style="opacity:0.4;fill:url(#a);stroke-width:4.27496433"
       id="ellipse13"
       cx="14.994473"
       cy="43.18018"
       ry="2.3394945"
       rx="10.192533" />
    <rect
       style="fill:none;stroke-width:4.27539158"
       x="8.2585926"
       y="9.8278542"
       width="13.471761"
       height="13.36915"
       ry="0"
       rx="0"
       id="replace" />
    <svg
       version="1.1"
       x="8.5"
       y="10"
       viewBox="0 0 100 100"
       enable-background="new 0 0 100 100"
       xml:space="preserve"
       id="svg22"
       sodipodi:docname="Town Hall.svg"
       width="100"
       height="100"
       inkscape:version="0.92.5 (2060ec1f9f, 2020-04-08)"><metadata
         id="metadata28"><rdf:RDF><cc:Work
             rdf:about=""><dc:format>image/svg+xml</dc:format><dc:type
               rdf:resource="http://purl.org/dc/dcmitype/StillImage" /><dc:title /></cc:Work></rdf:RDF></metadata><defs
         id="defs26" /><sodipodi:namedview
         pagecolor="#ffffff"
         bordercolor="#666666"
         borderopacity="1"
         objecttolerance="10"
         gridtolerance="10"
         guidetolerance="10"
         inkscape:pageopacity="0"
         inkscape:pageshadow="2"
         inkscape:window-width="691"
         inkscape:window-height="480"
         id="namedview24"
         showgrid="false"
         inkscape:zoom="1.888"
         inkscape:cx="56.620763"
         inkscape:cy="62.5"
         inkscape:window-x="0"
         inkscape:window-y="0"
         inkscape:window-maximized="0"
         inkscape:current-layer="svg22" /><g
         id="g38"
         transform="matrix(0.18658534,0,0,0.18658534,-3.2394041,-3.4758873)"><path
           id="path2"
           d="M 43.494,37.254 V 55.812 H 60.841 V 37.254 Z m 8.676,12.089 c -2.618,0 -4.737,-2.124 -4.737,-4.74 0,-2.616 2.119,-4.736 4.737,-4.736 2.615,0 4.73,2.121 4.73,4.736 0,2.615 -2.115,4.74 -4.73,4.74 z"
           inkscape:connector-curvature="0"
           style="fill:#000000" /><path
           id="path4"
           d="m 52.17,41.769 c -1.566,0 -2.837,1.272 -2.837,2.834 0,1.562 1.271,2.839 2.837,2.839 1.561,0 2.836,-1.277 2.836,-2.839 0,-1.562 -1.276,-2.834 -2.836,-2.834 z m 0,4.43 c -0.882,0 -1.598,-0.717 -1.598,-1.596 0,-0.878 0.716,-1.595 1.598,-1.595 0.88,0 1.594,0.717 1.594,1.595 0,0.879 -0.714,1.596 -1.594,1.596 z"
           inkscape:connector-curvature="0"
           style="fill:#000000" /><polygon
           id="polygon6"
           points="55.265,10.613 65.721,10.613 62.082,14.252 65.721,17.893 55.265,17.893 "
           style="fill:#000000" /><path
           id="path8"
           d="m 51.477,19.271 h 0.032 V 15.835 8.153 C 50.939,7.899 50.54,7.33 50.54,6.666 c 0,-0.897 0.729,-1.626 1.63,-1.626 0.897,0 1.627,0.729 1.627,1.626 0,0.665 -0.4,1.234 -0.97,1.487 v 7.683 3.436 h 0.032 l 7.095,10.509 H 44.382 Z"
           inkscape:connector-curvature="0"
           style="fill:#000000" /><rect
           id="rect10"
           height="2.5829999"
           width="21.427"
           y="32.287998"
           x="41.456001"
           style="fill:#000000" /><rect
           id="rect12"
           height="2.5829999"
           width="55.213001"
           y="64.069"
           x="24.561001"
           style="fill:#000000" /><path
           id="path14"
           d="M 78.341,90.203 V 69.159 H 25.995 v 21.044 h -2.346 v 3.289 h 2.346 52.346 2.347 v -3.289 z m -37.578,0 H 36.325 V 76.165 h 4.438 z m 9.083,0 H 45.409 V 76.165 h 4.437 z m 9.083,0 H 54.491 V 76.165 h 4.438 z m 9.083,0 H 63.573 V 76.165 h 4.439 z"
           inkscape:connector-curvature="0"
           style="fill:#000000" /><polygon
           id="polygon16"
           points="24.561,61.561 79.774,61.561 69.833,52.88 63.362,52.88 63.362,58.271 40.973,58.271 40.973,52.88 34.501,52.88 "
           style="fill:#000000" /></g></svg>  </g>
</svg>
