<?xml version="1.0" encoding="UTF-8" standalone="no"?>
<svg
   xmlns:dc="http://purl.org/dc/elements/1.1/"
   xmlns:cc="http://creativecommons.org/ns#"
   xmlns:rdf="http://www.w3.org/1999/02/22-rdf-syntax-ns#"
   xmlns:svg="http://www.w3.org/2000/svg"
   xmlns="http://www.w3.org/2000/svg"
   xmlns:sodipodi="http://sodipodi.sourceforge.net/DTD/sodipodi-0.dtd"
   xmlns:inkscape="http://www.inkscape.org/namespaces/inkscape"
   height="44px"
   width="30px"
   version="1.1"
   viewBox="0 0 29.988946 43.988056"
   id="svg16"
   sodipodi:docname="new_University.svg"
   inkscape:version="0.92.5 (2060ec1f9f, 2020-04-08)">
  <metadata
     id="metadata20">
    <rdf:RDF>
      <cc:Work
         rdf:about="">
        <dc:format>image/svg+xml</dc:format>
        <dc:type
           rdf:resource="http://purl.org/dc/dcmitype/StillImage" />
        <dc:title />
      </cc:Work>
    </rdf:RDF>
  </metadata>
  <sodipodi:namedview
     pagecolor="#ffffff"
     bordercolor="#666666"
     borderopacity="1"
     objecttolerance="10"
     gridtolerance="10"
     guidetolerance="10"
     inkscape:pageopacity="0"
     inkscape:pageshadow="2"
     inkscape:window-width="1680"
     inkscape:window-height="974"
     id="namedview18"
     showgrid="false"
     inkscape:zoom="4.0678609"
     inkscape:cx="0.9366743"
     inkscape:cy="83.987249"
     inkscape:window-x="0"
     inkscape:window-y="0"
     inkscape:window-maximized="1"
     inkscape:current-layer="svg2" />
  <defs
     id="defs7">
    <radialGradient
       id="a"
       gradientUnits="userSpaceOnUse"
       cy="127.6"
       cx="-42.75"
       gradientTransform="matrix(4.2749643,0,0,0.98162997,197.99835,-82.088795)"
       r="2.3840001">
      <stop
         stop-color="#010101"
         offset="0"
         id="stop2" />
      <stop
         stop-opacity="0"
         stop-color="#090909"
         offset="1"
         id="stop4" />
    </radialGradient>
  </defs>
  <g
     id="g26"
     transform="translate(-2.0760358e-7,-1.6181156)">
    <path
       style="fill:#dba135;stroke-width:4.27539158"
       inkscape:connector-curvature="0"
       id="path9"
       d="m 14.994475,1.7046139 c -8.2386814,0 -14.91684341,6.6781619 -14.91684341,14.9168421 0.008545,2.561815 0.67294669,5.079165 1.93504231,7.306643 L 15.595595,42.53888 27.955752,23.983679 c 1.277915,-2.243725 1.951716,-4.779887 1.955563,-7.362223 C 29.911273,8.3827758 23.233154,1.7046139 14.994475,1.7046139 Z" />
    <circle
       style="fill:#f9f3f3;stroke-width:4.27539158"
       id="circle11"
       r="9.4272394"
       cx="14.994473"
       cy="16.668474" />
    <ellipse
       style="opacity:0.4;fill:url(#a);stroke-width:4.27496433"
       id="ellipse13"
       cx="14.994473"
       cy="43.18018"
       ry="2.3394945"
       rx="10.192533" />
    <rect
       style="fill:none;stroke-width:4.27539158"
       x="8.2585926"
       y="9.8278542"
       width="13.471761"
       height="13.36915"
       ry="0"
       rx="0"
       id="replace" />
    <svg
       version="1.1"
       x="8.5"
       y="10"
       viewBox="-120 78.1 76.235371 73.725649"
       xml:space="preserve"
       id="svg2"
       inkscape:version="0.48.4 r9939"
       width="13"
       height="13"
       sodipodi:docname="Nursery School.svg"><metadata
         id="metadata18"><rdf:RDF><cc:Work
             rdf:about=""><dc:format>image/svg+xml</dc:format><dc:type
               rdf:resource="http://purl.org/dc/dcmitype/StillImage" /><dc:title /></cc:Work></rdf:RDF></metadata><defs
         id="defs16" /><sodipodi:namedview
         pagecolor="#ffffff"
         bordercolor="#666666"
         borderopacity="1"
         objecttolerance="10"
         gridtolerance="10"
         guidetolerance="10"
         inkscape:pageopacity="0"
         inkscape:pageshadow="2"
         inkscape:window-width="725"
         inkscape:window-height="735"
         id="namedview14"
         showgrid="false"
         fit-margin-top="0"
         fit-margin-left="0"
         fit-margin-right="0"
         fit-margin-bottom="0"
         inkscape:zoom="3.776"
         inkscape:cx="30.838359"
         inkscape:cy="30.679669"
         inkscape:window-x="114"
         inkscape:window-y="170"
         inkscape:window-maximized="0"
         inkscape:current-layer="g4272" /><g
         id="g3032"
         transform="translate(-139.783,92.733364)"><g
           id="g3082"
           transform="translate(-11.778449,-19.681681)"><g
             id="g3297"
             transform="translate(113.35527,48.840676)"><g
               id="g3451"
               transform="translate(-110.35024,-41.106017)"><g
                 id="g3508"
                 transform="translate(37.661621,37.801481)"><g
                   id="g3556"
                   transform="translate(-33.173714,-53.557494)"><g
                     id="g3600"
                     transform="translate(1.6437441,2.3337983)"><g
                       id="g3673"
                       transform="translate(3.1326802,-1.9259882)"><g
                         id="g3728"
                         transform="translate(16.15499,5.0801784)"><g
                           id="g3774"
                           transform="matrix(1.3062103,0,0,1.1506075,-1.2423141,14.177607)"><g
                             id="g3814"
                             transform="matrix(0.76557355,0,0,0.86910615,-9.6088369,-25.571004)"><g
                               id="g3898"
                               transform="translate(-253.23308,-590.39679)"><g
                                 id="g4071"
                                 transform="translate(255.74688,596.01847)"><g
                                   id="g4160"
                                   transform="translate(-2.9830857,2.4410756)"><g
                                   id="g4272"
                                   transform="matrix(0.87809547,0,0,0.86067766,11.546476,7.0690494)"><path
                                   id="path4238"
                                   d="M 46.276,13.185 73.332,30.092 H 19.22 L 46.276,13.185 m 0,-4.245 -39.61,24.752 H 85.887 L 46.276,8.94 l 0,0 z"
                                   inkscape:connector-curvature="0" /><rect
                                   id="rect4240"
                                   height="36.541"
                                   width="7.1999998"
                                   y="42.013"
                                   x="16.108" /><rect
                                   id="rect4242"
                                   height="36.541"
                                   width="7.1999998"
                                   y="42.013"
                                   x="29.392" /><rect
                                   id="rect4244"
                                   height="36.541"
                                   width="7.1999998"
                                   y="42.013"
                                   x="42.676998" /><rect
                                   id="rect4246"
                                   height="3.5999999"
                                   width="67.363998"
                                   y="36.057999"
                                   x="12.594" /><circle
                                   id="circle4248"
                                   r="4.3099999"
                                   cy="21.316"
                                   cx="46.276001"
                                   d="m 50.586001,21.316 c 0,2.380347 -1.929653,4.31 -4.31,4.31 -2.380347,0 -4.31,-1.929653 -4.31,-4.31 0,-2.380347 1.929653,-4.31 4.31,-4.31 2.380347,0 4.31,1.929653 4.31,4.31 z"
                                   sodipodi:ry="4.3099999"
                                   sodipodi:rx="4.3099999"
                                   sodipodi:cy="21.316"
                                   sodipodi:cx="46.276001" /><rect
                                   id="rect4250"
                                   height="8.5699997"
                                   width="7.1999998"
                                   y="42.013"
                                   x="69.244003" /><rect
                                   id="rect4252"
                                   height="8.5699997"
                                   width="7.1999998"
                                   y="42.013"
                                   x="55.960999" /><rect
                                   id="rect4254"
                                   height="3.5999999"
                                   width="41.041"
                                   y="80.908997"
                                   x="12.594" /><rect
                                   id="rect4256"
                                   height="3.5999999"
                                   width="45.505001"
                                   y="86.834"
                                   x="8.1309996" /><polygon
                                   id="polygon4258"
                                   points="79.958,86.834 79.958,90.434 93.485,90.434 93.485,52.908 55.961,52.908 55.961,90.434 69.244,90.434 69.244,86.834 59.561,86.834 59.561,56.508 89.885,56.508 89.885,86.834 " /><path
                                   id="path4260"
                                   d="m 82.337,65.64 h -0.149 c -1.69,0 -3.187,-1.088 -3.709,-2.695 l -0.047,-0.143 c -1.167,-3.593 -6.25,-3.593 -7.418,0 l -0.046,0.143 c -0.522,1.607 -2.019,2.695 -3.709,2.695 H 67.11 c -3.778,0 -5.349,4.834 -2.293,7.055 l 0.122,0.088 c 1.367,0.993 1.939,2.753 1.416,4.36 l -0.046,0.143 c -1.038,3.195 2.096,5.888 4.952,4.89 V 94.6 l 3.147,-3.843 3.41,3.843 V 81.99 c 2.947,1.388 6.404,-1.369 5.321,-4.704 l -0.047,-0.143 c -0.522,-1.607 0.05,-3.367 1.418,-4.36 l 0.12,-0.088 c 3.056,-2.22 1.486,-7.055 -2.293,-7.055 z m -7.613,11.143 c -2.634,0 -4.769,-2.135 -4.769,-4.769 0,-2.634 2.135,-4.769 4.769,-4.769 2.633,0 4.769,2.135 4.769,4.769 0,2.634 -2.136,4.769 -4.769,4.769 z"
                                   inkscape:connector-curvature="0" /></g></g></g></g></g></g></g></g></g></g></g></g></g></g></g></svg>  </g>
</svg>
