<?xml version="1.0" encoding="UTF-8" standalone="no"?>
<svg
   xmlns:sketch="http://www.bohemiancoding.com/sketch/ns"
   xmlns:dc="http://purl.org/dc/elements/1.1/"
   xmlns:cc="http://creativecommons.org/ns#"
   xmlns:rdf="http://www.w3.org/1999/02/22-rdf-syntax-ns#"
   xmlns:svg="http://www.w3.org/2000/svg"
   xmlns="http://www.w3.org/2000/svg"
   xmlns:sodipodi="http://sodipodi.sourceforge.net/DTD/sodipodi-0.dtd"
   xmlns:inkscape="http://www.inkscape.org/namespaces/inkscape"
   viewBox="0 0 100 77.75"
   version="1.1"
   x="0px"
   y="0px"
   id="svg2"
   inkscape:version="0.91 r13725"
   sodipodi:docname="no_favorites.svg"
   width="100"
   height="77.75">
  <metadata
     id="metadata22">
    <rdf:RDF>
      <cc:Work
         rdf:about="">
        <dc:format>image/svg+xml</dc:format>
        <dc:type
           rdf:resource="http://purl.org/dc/dcmitype/StillImage" />
        <dc:title>ic_error_no_favorite</dc:title>
      </cc:Work>
    </rdf:RDF>
  </metadata>
  <defs
     id="defs20" />
  <sodipodi:namedview
     pagecolor="#ffffff"
     bordercolor="#666666"
     borderopacity="1"
     objecttolerance="10"
     gridtolerance="10"
     guidetolerance="10"
     inkscape:pageopacity="0"
     inkscape:pageshadow="2"
     inkscape:window-width="1440"
     inkscape:window-height="824"
     id="namedview18"
     showgrid="false"
     inkscape:zoom="5.0346666"
     inkscape:cx="30.182694"
     inkscape:cy="54.179745"
     inkscape:window-x="0"
     inkscape:window-y="24"
     inkscape:window-maximized="1"
     inkscape:current-layer="svg2" />
  <title
     id="title4">ic_error_no_favorite</title>
  <desc
     id="desc6">Created with Sketch.</desc>
  <g
     sketch:type="MSPage"
     id="g8"
     transform="translate(0.39724576,0.670551)"
     style="fill:none;fill-rule:evenodd;stroke:none;stroke-width:1">
    <g
       sketch:type="MSArtboardGroup"
       transform="translate(-201,-20)"
       id="g10"
       style="fill:#000000">
      <path
         d="M 240.68862,80.276316 265.21618,95 258.70725,67.25 280.37723,48.578947 251.84112,46.171053 240.68862,20 229.53611,46.171053 201,48.578947 222.66998,67.25 216.16105,95 240.68862,80.276316 Z m 38.09177,-50.013158 c 0.0738,0 -6.95067,8.178802 -6.95067,8.178802 l -1.08495,1.294882 1.69474,0 7.93772,0 0,-1.578947 -6.24601,0 6.85581,-8.178802 1.08494,-1.294883 -1.69474,0 -7.93772,0 0,1.578948 6.34088,0 z m 11.99563,-3.608239 -4.96785,5.846061 -0.7755,0.925559 1.21137,0 5.67374,0 0,-1.128604 -4.56675,0 5.00262,-5.846061 0.7755,-0.925558 -1.21137,0 -5.67374,0 0,1.128603 4.53198,0 z m 8.83779,-2.030859 -3.00335,3.505201 -0.46497,0.554949 0.72631,0 3.40188,0 0,-0.676691 -2.68761,0 2.94895,-3.505201 0.46498,-0.55495 -0.72632,0 -3.40188,0 0,0.676692 2.74201,0 z m -40.44164,29.323308 -6.80376,0 -0.56698,0 0,1.578948 0.56698,0 6.80376,0 0.56698,0 0,-1.578948 -0.56698,0 z m -30.61693,3.157895 6.80376,0 0.56698,0 0,-1.578947 -0.56698,0 -6.80376,0 -0.56698,0 0,1.578947 0.56698,0 z M 248.34487,68.75 c -0.98637,0 -3.06273,-0.299027 -3.06273,-1.60707 0,-1.308043 2.07636,-3.129772 3.06273,-3.129772 0.98637,0 1.78599,1.060378 1.78599,2.368421 0,1.308043 -0.79962,2.368421 -1.78599,2.368421 z"
         sketch:type="MSShapeGroup"
         id="path12"
         inkscape:connector-curvature="0" />
    </g>
  </g>
  <path
     style="fill:#ffff00;fill-rule:evenodd;stroke:#000000;stroke-width:1;stroke-opacity:1"
     inkscape:connector-curvature="0"
     id="path12-3"
     sketch:type="MSShapeGroup"
     d="m 42.704762,61.685484 24.52756,14.723684 -6.50893,-27.75 21.66998,-18.671053 -28.53611,-2.407894 -11.1525,-26.171053 -11.15251,26.171053 -28.53611,2.407894 21.66998,18.671053 -6.50893,27.75 z m 18.48355,-26.328948 -6.80376,0 -0.56698,0 0,1.578948 0.56698,0 6.80376,0 0.56698,0 0,-1.578948 z m -30.61693,3.157895 6.80376,0 0.56698,0 0,-1.578947 -0.56698,0 -6.80376,0 -0.56698,0 0,1.578947 z m 19.78963,11.644737 c -0.98637,0 -3.06273,-0.299027 -3.06273,-1.60707 0,-1.308043 2.07636,-3.129772 3.06273,-3.129772 0.98637,0 1.78599,1.060378 1.78599,2.368421 0,1.308043 -0.79962,2.368421 -1.78599,2.368421 z"
     sodipodi:nodetypes="cccccccccccccccccccccccccccccsssss" />
</svg>
