<?xml version="1.0" encoding="UTF-8"?>
<svg xmlns="http://www.w3.org/2000/svg" xmlns:xlink="http://www.w3.org/1999/xlink" width="30px" height="46px" viewBox="0 0 30 46" version="1.1">
<defs>
<clipPath id="clip1">
  <path d="M 7.550781 7 L 22.445312 7 L 22.445312 21.769531 L 7.550781 21.769531 Z M 7.550781 7 "/>
</clipPath>
</defs>
<g id="surface1">
<path style="fill-rule:nonzero;fill:rgb(100%,40.000001%,0%);fill-opacity:1;stroke-width:1;stroke-linecap:round;stroke-linejoin:miter;stroke:rgb(83.137256%,33.333334%,0%);stroke-opacity:1;stroke-miterlimit:4;" d="M 13.040625 0.638587 C 6.25625 0.638587 0.609375 6.287364 0.609375 12.418478 C 0.609375 15.17663 2.224219 18.678668 3.388802 21.097147 L 13 38.828125 L 22.560417 21.097147 C 23.725 18.678668 25.383854 15.353261 25.383854 12.418478 C 25.383854 6.290761 19.828385 0.638587 13.04401 0.638587 Z M 13.040625 2.099185 C 18.934635 2.136549 23.721615 6.756114 23.721615 12.428668 C 23.721615 18.108016 18.938021 22.659647 13.040625 22.700408 C 7.146615 22.663043 2.369792 18.11481 2.369792 12.428668 C 2.369792 6.752717 7.15 2.129755 13.040625 2.099185 Z M 13.040625 2.099185 " transform="matrix(1.153846,0,0,1.15,0,0)"/>
<path style="fill-rule:nonzero;fill:rgb(100%,100%,100%);fill-opacity:1;stroke-width:1.00275;stroke-linecap:butt;stroke-linejoin:miter;stroke:rgb(100%,100%,100%);stroke-opacity:1;stroke-miterlimit:4;" d="M 23.010677 12.374321 C 23.010677 17.703804 18.528385 22.02106 13.003385 22.02106 C 7.478385 22.02106 2.996094 17.703804 2.996094 12.374321 C 2.996094 7.048234 7.478385 2.727582 13.003385 2.727582 C 18.528385 2.727582 23.010677 7.048234 23.010677 12.374321 Z M 23.010677 12.374321 " transform="matrix(1.153846,0,0,1.15,0,0)"/>
<g clip-path="url(#clip1)" clip-rule="nonzero">
<path style=" stroke:none;fill-rule:evenodd;fill:rgb(0%,0%,0%);fill-opacity:1;" d="M 10.320312 8.273438 L 14.59375 12.589844 L 10.421875 14.234375 L 8.4375 13.199219 C 8.195312 13.292969 7.792969 13.398438 7.550781 13.492188 C 8.160156 14.109375 8.765625 14.734375 9.367188 15.355469 C 9.300781 16.011719 9.441406 17.015625 9.375 17.664062 C 9.675781 17.558594 9.976562 17.441406 10.28125 17.332031 L 10.882812 15.695312 L 15.253906 14.085938 C 15.238281 16.214844 14.863281 17.632812 14.851562 19.761719 C 14.25 23.375 16.511719 19.527344 16.722656 18.351562 C 17.859375 18.308594 19.199219 17.179688 16.964844 17.382812 C 17.105469 16.855469 17.25 16.332031 17.390625 15.804688 C 18.980469 15.78125 19.835938 14.644531 17.984375 14.871094 C 18.144531 14.175781 18.304688 13.484375 18.460938 12.792969 C 23.1875 11.128906 24.492188 8.984375 18.019531 11.296875 C 17.347656 10.921875 16.847656 10.480469 16.167969 10.097656 C 17.375 8.476562 15.414062 9.394531 14.910156 9.703125 C 14.484375 9.417969 14.058594 9.128906 13.628906 8.84375 C 15.269531 8.007812 14.550781 7.574219 12.925781 8.242188 C 12.492188 8.035156 8.167969 6.480469 10.320312 8.273438 Z M 10.320312 8.273438 "/>
</g>
</g>
</svg>
