<?xml version="1.0" encoding="UTF-8"?>
<svg xmlns="http://www.w3.org/2000/svg" xmlns:xlink="http://www.w3.org/1999/xlink" width="30px" height="46px" viewBox="0 0 30 46" version="1.1">
<defs>
<clipPath id="clip1">
  <path d="M 16 10 L 22.445312 10 L 22.445312 19 L 16 19 Z M 16 10 "/>
</clipPath>
<clipPath id="clip2">
  <path d="M 7.550781 13 L 16 13 L 16 21.769531 L 7.550781 21.769531 Z M 7.550781 13 "/>
</clipPath>
</defs>
<g id="surface1">
<path style="fill-rule:nonzero;fill:rgb(100%,40.000001%,0%);fill-opacity:1;stroke-width:1;stroke-linecap:round;stroke-linejoin:miter;stroke:rgb(83.137256%,33.333334%,0%);stroke-opacity:1;stroke-miterlimit:4;" d="M 13.040625 0.638587 C 6.25625 0.638587 0.609375 6.287364 0.609375 12.418478 C 0.609375 15.17663 2.224219 18.678668 3.388802 21.097147 L 13 38.828125 L 22.560417 21.097147 C 23.725 18.678668 25.383854 15.353261 25.383854 12.418478 C 25.383854 6.290761 19.828385 0.638587 13.04401 0.638587 Z M 13.040625 2.099185 C 18.934635 2.136549 23.721615 6.756114 23.721615 12.428668 C 23.721615 18.108016 18.938021 22.659647 13.040625 22.700408 C 7.146615 22.663043 2.369792 18.11481 2.369792 12.428668 C 2.369792 6.752717 7.15 2.129755 13.040625 2.099185 Z M 13.040625 2.099185 " transform="matrix(1.153846,0,0,1.15,0,0)"/>
<path style="fill-rule:nonzero;fill:rgb(100%,100%,100%);fill-opacity:1;stroke-width:1.00275;stroke-linecap:butt;stroke-linejoin:miter;stroke:rgb(100%,100%,100%);stroke-opacity:1;stroke-miterlimit:4;" d="M 23.010677 12.374321 C 23.010677 17.703804 18.528385 22.02106 13.003385 22.02106 C 7.478385 22.02106 2.996094 17.703804 2.996094 12.374321 C 2.996094 7.048234 7.478385 2.727582 13.003385 2.727582 C 18.528385 2.727582 23.010677 7.048234 23.010677 12.374321 Z M 23.010677 12.374321 " transform="matrix(1.153846,0,0,1.15,0,0)"/>
<g clip-path="url(#clip1)" clip-rule="nonzero">
<path style=" stroke:none;fill-rule:evenodd;fill:rgb(0%,0%,0%);fill-opacity:1;" d="M 21.828125 10.351562 C 21.210938 10.351562 20.589844 10.945312 19.355469 10.945312 C 18.117188 10.945312 17.5 10.351562 16.882812 10.351562 C 16.589844 10.351562 16.261719 10.648438 16.261719 10.945312 L 16.261719 15.097656 C 16.261719 16.410156 16.882812 18.0625 19.355469 18.0625 C 21.828125 18.0625 22.445312 16.410156 22.445312 15.097656 L 22.445312 10.945312 C 22.445312 10.648438 22.121094 10.351562 21.828125 10.351562 Z M 17.191406 13.167969 C 17.191406 12.757812 17.535156 12.425781 17.964844 12.425781 C 18.390625 12.425781 18.738281 12.757812 18.738281 13.167969 C 18.738281 13.578125 18.390625 13.910156 17.964844 13.910156 C 17.535156 13.910156 17.191406 13.578125 17.191406 13.167969 Z M 19.355469 16.878906 C 17.808594 16.878906 17.5 15.691406 17.5 15.691406 L 21.210938 15.691406 C 21.210938 15.691406 20.898438 16.878906 19.355469 16.878906 Z M 20.746094 13.910156 C 20.320312 13.910156 19.972656 13.578125 19.972656 13.167969 C 19.972656 12.757812 20.320312 12.425781 20.746094 12.425781 C 21.171875 12.425781 21.519531 12.757812 21.519531 13.167969 C 21.519531 13.578125 21.171875 13.910156 20.746094 13.910156 Z M 20.746094 13.910156 "/>
</g>
<path style=" stroke:none;fill-rule:evenodd;fill:rgb(0%,0%,0%);fill-opacity:1;" d="M 14.542969 15.074219 C 14.695312 15.089844 14.855469 15.097656 15.027344 15.097656 C 15.25 15.097656 15.449219 15.085938 15.644531 15.058594 L 15.644531 13.316406 L 13.171875 13.316406 C 13.171875 13.316406 13.480469 12.128906 15.027344 12.128906 C 15.335938 12.128906 15.457031 12.175781 15.644531 12.242188 L 15.644531 10.945312 C 15.644531 10.398438 15.871094 9.945312 16.261719 9.757812 C 16.882812 9.460938 17.132812 9.582031 17.5 9.757812 C 18.117188 10.054688 18.117188 10.054688 18.117188 10.054688 L 18.117188 7.976562 C 18.117188 7.679688 17.792969 7.382812 17.5 7.382812 C 16.882812 7.382812 16.261719 7.976562 15.027344 7.976562 C 13.789062 7.976562 13.171875 7.382812 12.554688 7.382812 C 12.261719 7.382812 11.9375 7.679688 11.9375 7.976562 L 11.9375 12.128906 C 11.9375 12.65625 12.039062 13.238281 12.316406 13.746094 C 12.425781 13.789062 12.535156 13.835938 12.644531 13.890625 C 13.390625 14.253906 14.023438 14.652344 14.542969 15.074219 Z M 13.636719 9.460938 C 14.0625 9.460938 14.410156 9.792969 14.410156 10.203125 C 14.410156 10.613281 14.0625 10.945312 13.636719 10.945312 C 13.207031 10.945312 12.863281 10.613281 12.863281 10.203125 C 12.863281 9.792969 13.207031 9.460938 13.636719 9.460938 Z M 13.636719 9.460938 "/>
<g clip-path="url(#clip2)" clip-rule="nonzero">
<path style=" stroke:none;fill-rule:evenodd;fill:rgb(0%,0%,0%);fill-opacity:1;" d="M 10.566406 13.832031 C 9.210938 13.832031 8.09375 14.484375 7.796875 15.046875 C 7.371094 15.851562 7.46875 16.664062 8.308594 17.074219 C 9.148438 17.484375 9.460938 17.890625 9.140625 18.496094 C 8.714844 19.300781 9.023438 20.214844 9.863281 20.625 C 10.84375 21.105469 11.730469 21.308594 12.5 21.308594 C 13.875 21.308594 14.871094 20.65625 15.351562 19.753906 C 16.636719 17.335938 14.960938 15.5 12.441406 14.269531 C 11.800781 13.957031 11.160156 13.832031 10.566406 13.832031 Z M 9.632812 16.070312 C 9.53125 16.265625 9.324219 16.378906 9.109375 16.378906 C 9.019531 16.378906 8.925781 16.359375 8.84375 16.316406 C 8.550781 16.175781 8.4375 15.835938 8.585938 15.558594 C 8.6875 15.363281 8.894531 15.25 9.109375 15.25 C 9.199219 15.25 9.289062 15.269531 9.375 15.3125 C 9.667969 15.453125 9.78125 15.792969 9.632812 16.070312 Z M 11.242188 19.523438 C 11.117188 19.757812 10.867188 19.894531 10.609375 19.894531 C 10.503906 19.894531 10.394531 19.871094 10.289062 19.820312 C 9.941406 19.648438 9.804688 19.242188 9.980469 18.90625 C 10.105469 18.671875 10.355469 18.535156 10.613281 18.535156 C 10.71875 18.535156 10.828125 18.558594 10.933594 18.609375 C 11.28125 18.78125 11.417969 19.1875 11.242188 19.523438 Z M 11.746094 15.578125 C 11.640625 15.777344 11.433594 15.890625 11.222656 15.890625 C 11.128906 15.890625 11.039062 15.871094 10.953125 15.828125 C 10.664062 15.683594 10.546875 15.34375 10.695312 15.066406 C 10.800781 14.871094 11.007812 14.757812 11.222656 14.757812 C 11.3125 14.757812 11.402344 14.777344 11.488281 14.820312 C 11.777344 14.960938 11.894531 15.300781 11.746094 15.578125 Z M 13.628906 17.515625 C 13.734375 17.320312 13.941406 17.207031 14.15625 17.207031 C 14.246094 17.207031 14.335938 17.226562 14.421875 17.269531 C 14.710938 17.410156 14.828125 17.75 14.679688 18.027344 C 14.574219 18.226562 14.367188 18.335938 14.152344 18.335938 C 14.0625 18.335938 13.972656 18.316406 13.886719 18.277344 C 13.597656 18.132812 13.480469 17.792969 13.628906 17.515625 Z M 12.902344 15.578125 C 12.992188 15.578125 13.082031 15.597656 13.167969 15.640625 C 13.460938 15.78125 13.574219 16.121094 13.425781 16.402344 C 13.324219 16.597656 13.117188 16.710938 12.902344 16.710938 C 12.8125 16.710938 12.71875 16.691406 12.632812 16.648438 C 12.34375 16.507812 12.230469 16.167969 12.375 15.886719 C 12.480469 15.691406 12.6875 15.578125 12.902344 15.578125 Z M 12.902344 15.578125 "/>
</g>
</g>
</svg>
