<?xml version="1.0" encoding="UTF-8"?>
<svg xmlns="http://www.w3.org/2000/svg" xmlns:xlink="http://www.w3.org/1999/xlink" width="30px" height="46px" viewBox="0 0 30 46" version="1.1">
<defs>
<clipPath id="clip1">
  <path d="M 8 6.921875 L 22 6.921875 L 22 21.769531 L 8 21.769531 Z M 8 6.921875 "/>
</clipPath>
</defs>
<g id="surface1">
<path style="fill-rule:nonzero;fill:rgb(100%,40.000001%,0%);fill-opacity:1;stroke-width:1;stroke-linecap:round;stroke-linejoin:miter;stroke:rgb(83.137256%,33.333334%,0%);stroke-opacity:1;stroke-miterlimit:4;" d="M 13.040625 0.638587 C 6.25625 0.638587 0.609375 6.287364 0.609375 12.418478 C 0.609375 15.17663 2.224219 18.678668 3.388802 21.097147 L 13 38.828125 L 22.560417 21.097147 C 23.725 18.678668 25.383854 15.353261 25.383854 12.418478 C 25.383854 6.290761 19.828385 0.638587 13.04401 0.638587 Z M 13.040625 2.099185 C 18.934635 2.136549 23.721615 6.756114 23.721615 12.428668 C 23.721615 18.108016 18.938021 22.659647 13.040625 22.700408 C 7.146615 22.663043 2.369792 18.11481 2.369792 12.428668 C 2.369792 6.752717 7.15 2.129755 13.040625 2.099185 Z M 13.040625 2.099185 " transform="matrix(1.153846,0,0,1.15,0,0)"/>
<path style="fill-rule:nonzero;fill:rgb(100%,100%,100%);fill-opacity:1;stroke-width:1.00275;stroke-linecap:butt;stroke-linejoin:miter;stroke:rgb(100%,100%,100%);stroke-opacity:1;stroke-miterlimit:4;" d="M 23.010677 12.374321 C 23.010677 17.703804 18.528385 22.02106 13.003385 22.02106 C 7.478385 22.02106 2.996094 17.703804 2.996094 12.374321 C 2.996094 7.048234 7.478385 2.727582 13.003385 2.727582 C 18.528385 2.727582 23.010677 7.048234 23.010677 12.374321 Z M 23.010677 12.374321 " transform="matrix(1.153846,0,0,1.15,0,0)"/>
<path style=" stroke:none;fill-rule:evenodd;fill:rgb(0%,0%,0%);fill-opacity:1;" d="M 15.179688 10.386719 C 15.546875 10.476562 16.117188 10.753906 16.324219 11.316406 C 16.445312 11.644531 16.4375 12.367188 16.410156 12.914062 C 16.3125 13.492188 16.085938 13.914062 15.734375 14.171875 C 15.265625 14.515625 14.679688 14.480469 14.394531 14.433594 C 14.007812 14.242188 13.78125 13.648438 13.679688 13.164062 C 13.566406 12.601562 13.636719 12.304688 13.636719 12.304688 L 13.636719 12.09375 C 13.53125 11.8125 13.625 10.976562 13.761719 10.691406 C 13.898438 10.410156 14.335938 10.40625 14.460938 10.304688 C 14.632812 10.164062 14.867188 9.550781 14.9375 9.363281 C 13.507812 9.550781 13.152344 10.789062 13.082031 11.117188 C 12.910156 11.285156 12.769531 11.585938 12.914062 11.910156 C 12.863281 11.976562 12.8125 12.070312 12.789062 12.183594 C 12.773438 12.28125 12.773438 12.425781 12.855469 12.589844 C 12.710938 12.875 12.410156 13.664062 12.742188 14.789062 C 13.0625 15.875 12.925781 16.164062 12.835938 16.296875 C 12.621094 16.382812 11.910156 16.714844 11.613281 17.386719 C 11.527344 17.425781 11.433594 17.488281 11.34375 17.578125 L 11.34375 19.34375 L 18.671875 19.34375 L 18.671875 16.300781 C 18.457031 15.980469 18.207031 15.628906 17.992188 15.402344 C 17.933594 15.050781 17.636719 13.285156 17.628906 12.667969 C 17.621094 12.320312 17.609375 11.507812 17.320312 10.769531 C 16.984375 9.910156 16.371094 9.421875 15.53125 9.351562 L 15.078125 9.351562 C 14.546875 10.25 15.0625 10.359375 15.179688 10.386719 Z M 16.519531 15.984375 C 16.519531 16.078125 16.554688 16.164062 16.613281 16.230469 C 16.5625 16.273438 16.53125 16.339844 16.53125 16.414062 C 16.53125 16.449219 16.535156 16.480469 16.546875 16.511719 C 16.472656 16.582031 16.425781 16.683594 16.425781 16.796875 C 16.425781 16.867188 16.445312 16.929688 16.472656 16.988281 C 16.398438 17.054688 16.347656 17.152344 16.347656 17.261719 C 16.347656 17.320312 16.359375 17.375 16.382812 17.421875 C 16.050781 17.578125 15.671875 18.0625 15.671875 18.0625 C 14.917969 18.121094 13.1875 17.839844 13.121094 17.25 C 13.050781 16.660156 14.6875 15.402344 14.6875 15.402344 C 14.6875 15.328125 14.648438 15 14.617188 14.761719 C 14.660156 14.761719 14.707031 14.765625 14.753906 14.765625 C 15.089844 14.765625 15.523438 14.695312 15.902344 14.417969 C 16.082031 14.285156 16.234375 14.117188 16.359375 13.914062 C 16.386719 14.671875 16.550781 15.589844 16.550781 15.589844 L 16.664062 15.695312 C 16.574219 15.757812 16.519531 15.867188 16.519531 15.984375 Z M 16.519531 15.984375 "/>
<g clip-path="url(#clip1)" clip-rule="nonzero">
<path style=" stroke:none;fill-rule:evenodd;fill:rgb(0%,0%,0%);fill-opacity:1;" d="M 20.542969 20.6875 C 20.582031 20.664062 20.617188 20.632812 20.652344 20.597656 C 20.921875 20.320312 20.921875 19.871094 20.652344 19.59375 C 20.578125 19.519531 20.488281 19.460938 20.394531 19.429688 C 20.507812 19.03125 20.71875 17.964844 20.300781 16.429688 C 20.558594 16.382812 20.753906 16.152344 20.753906 15.875 C 20.753906 15.707031 20.683594 15.554688 20.566406 15.453125 C 20.832031 15.25 21.011719 14.832031 21.011719 14.347656 C 21.011719 13.863281 20.832031 13.441406 20.566406 13.238281 C 20.683594 13.136719 20.753906 12.984375 20.753906 12.816406 C 20.753906 12.539062 20.558594 12.308594 20.300781 12.261719 C 20.671875 10.898438 20.550781 9.910156 20.4375 9.425781 C 20.515625 9.390625 20.589844 9.339844 20.652344 9.273438 C 20.921875 9 20.921875 8.550781 20.652344 8.273438 C 20.617188 8.238281 20.582031 8.207031 20.542969 8.179688 C 20.601562 8.152344 20.660156 8.109375 20.710938 8.054688 C 20.929688 7.835938 20.949219 7.496094 20.757812 7.296875 C 20.5625 7.101562 20.234375 7.121094 20.019531 7.34375 C 19.96875 7.394531 19.925781 7.457031 19.898438 7.519531 C 19.871094 7.476562 19.84375 7.4375 19.808594 7.402344 C 19.539062 7.128906 19.105469 7.128906 18.835938 7.402344 C 18.785156 7.453125 18.746094 7.511719 18.714844 7.570312 C 18.4375 7.46875 17.835938 7.324219 16.992188 7.542969 C 16.910156 7.335938 16.714844 7.1875 16.484375 7.1875 C 16.320312 7.1875 16.171875 7.261719 16.074219 7.382812 C 15.875 7.109375 15.46875 6.921875 14.996094 6.921875 C 14.527344 6.921875 14.121094 7.109375 13.921875 7.382812 C 13.824219 7.261719 13.675781 7.1875 13.511719 7.1875 C 13.28125 7.1875 13.085938 7.335938 13.003906 7.542969 C 12.160156 7.324219 11.558594 7.46875 11.28125 7.570312 C 11.25 7.511719 11.210938 7.453125 11.160156 7.402344 C 10.890625 7.128906 10.457031 7.128906 10.1875 7.402344 C 10.152344 7.4375 10.125 7.476562 10.097656 7.519531 C 10.070312 7.457031 10.027344 7.394531 9.976562 7.34375 C 9.761719 7.121094 9.433594 7.101562 9.238281 7.296875 C 9.046875 7.496094 9.066406 7.835938 9.285156 8.058594 C 9.335938 8.109375 9.394531 8.152344 9.453125 8.179688 C 9.414062 8.207031 9.378906 8.238281 9.34375 8.273438 C 9.074219 8.550781 9.074219 9 9.34375 9.273438 C 9.40625 9.339844 9.480469 9.390625 9.558594 9.425781 C 9.445312 9.910156 9.320312 10.902344 9.695312 12.265625 C 9.4375 12.308594 9.242188 12.539062 9.242188 12.816406 C 9.242188 12.984375 9.3125 13.136719 9.429688 13.242188 C 9.164062 13.441406 8.984375 13.863281 8.984375 14.347656 C 8.984375 14.832031 9.164062 15.25 9.429688 15.453125 C 9.3125 15.554688 9.242188 15.707031 9.242188 15.875 C 9.242188 16.152344 9.4375 16.382812 9.695312 16.429688 C 9.273438 17.964844 9.484375 19.03125 9.601562 19.429688 C 9.507812 19.460938 9.417969 19.519531 9.34375 19.59375 C 9.074219 19.871094 9.074219 20.320312 9.34375 20.597656 C 9.378906 20.632812 9.414062 20.664062 9.453125 20.6875 C 9.394531 20.71875 9.335938 20.761719 9.28125 20.8125 C 9.066406 21.035156 9.046875 21.375 9.238281 21.570312 C 9.429688 21.769531 9.761719 21.75 9.976562 21.527344 C 10.027344 21.476562 10.070312 21.414062 10.097656 21.351562 C 10.125 21.390625 10.152344 21.429688 10.1875 21.464844 C 10.457031 21.742188 10.890625 21.742188 11.160156 21.464844 C 11.25 21.375 11.308594 21.261719 11.339844 21.140625 C 11.640625 21.242188 12.214844 21.351562 13.003906 21.148438 C 13.085938 21.359375 13.28125 21.503906 13.511719 21.503906 C 13.675781 21.503906 13.824219 21.429688 13.921875 21.3125 C 14.121094 21.582031 14.527344 21.769531 14.996094 21.769531 C 15.46875 21.769531 15.875 21.582031 16.074219 21.3125 C 16.171875 21.429688 16.320312 21.503906 16.484375 21.503906 C 16.714844 21.503906 16.910156 21.359375 16.992188 21.152344 C 17.78125 21.355469 18.355469 21.242188 18.65625 21.144531 C 18.6875 21.261719 18.746094 21.375 18.835938 21.464844 C 19.101562 21.742188 19.539062 21.742188 19.808594 21.464844 C 19.839844 21.429688 19.871094 21.390625 19.898438 21.351562 C 19.925781 21.414062 19.964844 21.476562 20.019531 21.527344 C 20.234375 21.75 20.5625 21.769531 20.753906 21.570312 C 20.945312 21.375 20.925781 21.035156 20.710938 20.8125 C 20.660156 20.761719 20.601562 20.71875 20.542969 20.6875 Z M 19.128906 19.832031 L 10.886719 19.832031 L 10.886719 8.894531 L 19.128906 8.894531 Z M 19.128906 19.832031 "/>
</g>
</g>
</svg>
