<?xml version="1.0" encoding="UTF-8"?>
<svg xmlns="http://www.w3.org/2000/svg" xmlns:xlink="http://www.w3.org/1999/xlink" width="30px" height="46px" viewBox="0 0 30 46" version="1.1">
<defs>
<clipPath id="clip1">
  <path d="M 7.550781 8 L 24 8 L 24 16 L 7.550781 16 Z M 7.550781 8 "/>
</clipPath>
</defs>
<g id="surface1">
<path style="fill-rule:nonzero;fill:rgb(100%,40.000001%,0%);fill-opacity:1;stroke-width:1;stroke-linecap:round;stroke-linejoin:miter;stroke:rgb(83.137256%,33.333334%,0%);stroke-opacity:1;stroke-miterlimit:4;" d="M 13.040625 0.638587 C 6.25625 0.638587 0.609375 6.287364 0.609375 12.418478 C 0.609375 15.17663 2.224219 18.678668 3.388802 21.097147 L 13 38.828125 L 22.560417 21.097147 C 23.725 18.678668 25.383854 15.353261 25.383854 12.418478 C 25.383854 6.290761 19.828385 0.638587 13.04401 0.638587 Z M 13.040625 2.099185 C 18.934635 2.136549 23.721615 6.756114 23.721615 12.428668 C 23.721615 18.108016 18.938021 22.659647 13.040625 22.700408 C 7.146615 22.663043 2.369792 18.11481 2.369792 12.428668 C 2.369792 6.752717 7.15 2.129755 13.040625 2.099185 Z M 13.040625 2.099185 " transform="matrix(1.153846,0,0,1.15,0,0)"/>
<path style="fill-rule:nonzero;fill:rgb(100%,100%,100%);fill-opacity:1;stroke-width:1.00275;stroke-linecap:butt;stroke-linejoin:miter;stroke:rgb(100%,100%,100%);stroke-opacity:1;stroke-miterlimit:4;" d="M 23.010677 12.374321 C 23.010677 17.703804 18.528385 22.02106 13.003385 22.02106 C 7.478385 22.02106 2.996094 17.703804 2.996094 12.374321 C 2.996094 7.048234 7.478385 2.727582 13.003385 2.727582 C 18.528385 2.727582 23.010677 7.048234 23.010677 12.374321 Z M 23.010677 12.374321 " transform="matrix(1.153846,0,0,1.15,0,0)"/>
<path style=" stroke:none;fill-rule:nonzero;fill:rgb(0%,0%,0%);fill-opacity:1;" d="M 21.609375 20.179688 L 18.863281 11.335938 L 18.382812 11.335938 L 20.453125 19.273438 L 10.472656 19.273438 L 12.429688 11.335938 L 11.960938 11.335938 L 9.214844 20.179688 Z M 21.609375 20.179688 "/>
<g clip-path="url(#clip1)" clip-rule="nonzero">
<path style=" stroke:none;fill-rule:nonzero;fill:rgb(0%,0%,0%);fill-opacity:1;" d="M 21.351562 8.300781 L 9.472656 8.300781 C 8.414062 8.300781 7.550781 9.160156 7.550781 10.21875 L 7.550781 13.652344 C 7.550781 14.707031 8.414062 15.566406 9.472656 15.566406 L 10.050781 15.566406 L 10.433594 14.472656 L 9.472656 14.472656 C 9.019531 14.472656 8.648438 14.105469 8.648438 13.652344 L 8.648438 10.21875 C 8.648438 9.765625 9.019531 9.394531 9.472656 9.394531 L 21.351562 9.394531 C 21.804688 9.394531 22.175781 9.765625 22.175781 10.21875 L 22.175781 13.652344 C 22.175781 14.105469 21.804688 14.472656 21.351562 14.472656 L 20.386719 14.472656 L 20.769531 15.566406 L 21.351562 15.566406 C 22.410156 15.566406 23.273438 14.707031 23.273438 13.652344 L 23.273438 10.21875 C 23.273438 9.160156 22.410156 8.300781 21.351562 8.300781 Z M 21.351562 8.300781 "/>
</g>
<path style=" stroke:none;fill-rule:nonzero;fill:rgb(0%,0%,0%);fill-opacity:1;" d="M 17.816406 11.335938 L 12.992188 11.335938 L 11.171875 18.726562 L 19.742188 18.726562 Z M 15.410156 17.886719 C 15.023438 17.886719 14.710938 17.683594 14.710938 17.429688 C 14.710938 17.179688 15.023438 16.976562 15.410156 16.976562 C 15.796875 16.976562 16.113281 17.179688 16.113281 17.429688 C 16.113281 17.683594 15.796875 17.886719 15.410156 17.886719 Z M 17.65625 14.785156 L 16.742188 14.617188 C 16.789062 14.472656 16.894531 14.234375 16.796875 13.898438 C 16.722656 13.621094 16.523438 13.539062 16.34375 13.539062 C 16.136719 13.539062 16.023438 13.679688 15.859375 14.050781 C 15.613281 14.667969 15.195312 14.949219 14.480469 14.949219 C 13.777344 14.949219 13.28125 14.582031 13.308594 14 L 12.613281 14 L 12.792969 13.582031 L 13.394531 13.582031 C 13.496094 13.328125 13.667969 13.101562 13.832031 12.976562 L 14.480469 13.074219 C 14.324219 13.214844 14.160156 13.429688 14.113281 13.6875 C 14.070312 13.933594 14.1875 14.113281 14.46875 14.113281 C 14.730469 14.113281 14.90625 13.964844 15.082031 13.644531 C 15.300781 13.242188 15.578125 12.996094 16.132812 12.996094 C 16.632812 12.996094 17.105469 13.203125 17.386719 13.601562 L 17.996094 13.601562 L 18.210938 14.027344 L 17.605469 14.023438 C 17.714844 14.351562 17.707031 14.59375 17.65625 14.785156 Z M 17.65625 14.785156 "/>
</g>
</svg>
