<?xml version="1.0" encoding="UTF-8" standalone="no"?>
<svg
   xmlns:dc="http://purl.org/dc/elements/1.1/"
   xmlns:cc="http://creativecommons.org/ns#"
   xmlns:rdf="http://www.w3.org/1999/02/22-rdf-syntax-ns#"
   xmlns:svg="http://www.w3.org/2000/svg"
   xmlns="http://www.w3.org/2000/svg"
   xmlns:sodipodi="http://sodipodi.sourceforge.net/DTD/sodipodi-0.dtd"
   xmlns:inkscape="http://www.inkscape.org/namespaces/inkscape"
   height="40"
   width="26"
   version="1.1"
   id="svg13"
   sodipodi:docname="new_ATM.svg"
   inkscape:version="0.92.5 (2060ec1f9f, 2020-04-08)">
  <metadata
     id="metadata19" />
  <defs
     id="defs17" />
  <sodipodi:namedview
     pagecolor="#ffffff"
     bordercolor="#666666"
     borderopacity="1"
     objecttolerance="10"
     gridtolerance="10"
     guidetolerance="10"
     inkscape:pageopacity="0"
     inkscape:pageshadow="2"
     inkscape:window-width="640"
     inkscape:window-height="480"
     id="namedview15"
     showgrid="false"
     inkscape:zoom="5.9"
     inkscape:cx="13"
     inkscape:cy="20"
     inkscape:window-x="0"
     inkscape:window-y="0"
     inkscape:window-maximized="0"
     inkscape:current-layer="svg2" />
  <path
     d="m13.04 0.6387c-6.783 0-12.43 5.649-12.43 11.78 0 2.757 1.613 6.26 2.779 8.68l9.611 17.73 9.56-17.73c1.166-2.42 2.824-5.747 2.824-8.68 0-6.128-5.555-11.78-12.34-11.78zm0 1.461c5.895 0.0373 10.68 4.656 10.68 10.33 0 5.678-4.781 10.23-10.68 10.27-5.895-0.0373-10.67-4.585-10.67-10.27 0-5.678 4.779-10.3 10.67-10.33z"
     stroke="#d45500"
     stroke-linecap="round"
     fill="#f60"
     id="path2" />
  <ellipse
     style="fill:#ffffff;stroke:#ffffff;stroke-width:1.00274992"
     id="path13"
     cx="13.003574"
     cy="12.374899"
     rx="10.005984"
     ry="9.6464386" />
  <svg
     version="1.1"
     x="6.543"
     y="6.02"
     viewBox="0 0 64 80"
     enable-background="new 0 0 64 64"
     xml:space="preserve"
     id="svg2"
     inkscape:version="0.92.5 (2060ec1f9f, 2020-04-08)"
     sodipodi:docname="ATMs.svg"><metadata
       id="metadata20"><rdf:RDF><cc:Work
           rdf:about=""><dc:format>image/svg+xml</dc:format><dc:type
             rdf:resource="http://purl.org/dc/dcmitype/StillImage" /></cc:Work></rdf:RDF></metadata><defs
       id="defs18" /><sodipodi:namedview
       pagecolor="#ffffff"
       bordercolor="#666666"
       borderopacity="1"
       objecttolerance="10"
       gridtolerance="10"
       guidetolerance="10"
       inkscape:pageopacity="0"
       inkscape:pageshadow="2"
       inkscape:window-width="1680"
       inkscape:window-height="974"
       id="namedview16"
       showgrid="false"
       inkscape:zoom="2.95"
       inkscape:cx="32"
       inkscape:cy="40"
       inkscape:window-x="0"
       inkscape:window-y="0"
       inkscape:window-maximized="1"
       inkscape:current-layer="svg2" /><g
       id="g4"
       transform="matrix(0.52411995,0,0,0.52411995,4.3676668e-8,-10.340861)"><polygon
         points="57.227,56.256 46.045,20.139 44.094,20.139 52.518,52.563 11.895,52.563 19.858,20.139 17.954,20.139 6.773,56.256 "
         id="polygon6" /><path
         d="M 56.174,7.744 H 7.827 C 3.512,7.744 0,11.256 0,15.57 v 14.027 c 0,4.316 3.512,7.828 7.827,7.828 h 2.357 L 11.74,32.952 H 7.827 c -1.85,0 -3.354,-1.506 -3.354,-3.355 V 15.57 c 0,-1.85 1.505,-3.354 3.354,-3.354 h 48.347 c 1.85,0 3.354,1.504 3.354,3.354 v 14.027 c 0,1.85 -1.504,3.355 -3.354,3.355 h -3.916 l 1.557,4.473 h 2.359 C 60.488,37.425 64,33.913 64,29.597 V 15.57 C 64,11.256 60.488,7.744 56.174,7.744 Z"
         id="path8"
         inkscape:connector-curvature="0" /><path
         d="M 41.785,20.139 H 22.159 l -7.412,30.188 h 34.88 z M 32,46.898 c -1.578,0 -2.855,-0.834 -2.855,-1.865 0,-1.029 1.277,-1.863 2.855,-1.863 1.576,0 2.853,0.834 2.853,1.863 10e-4,1.031 -1.277,1.865 -2.853,1.865 z m 9.137,-12.679 -3.725,-0.684 c 0.193,-0.58 0.617,-1.551 0.234,-2.934 -0.311,-1.125 -1.127,-1.469 -1.846,-1.469 -0.85,0 -1.301,0.574 -1.971,2.102 -1.013,2.508 -2.708,3.67 -5.611,3.668 C 25.347,34.9 23.325,33.394 23.447,31.021 H 20.61 l 0.729,-1.713 2.459,0.002 c 0.402,-1.039 1.113,-1.963 1.77,-2.465 l 2.65,0.395 c -0.637,0.58 -1.305,1.453 -1.5,2.5 -0.182,1.004 0.305,1.742 1.439,1.742 1.076,0 1.783,-0.607 2.496,-1.908 0.9,-1.652 2.033,-2.652 4.281,-2.652 2.043,0 3.957,0.844 5.111,2.473 h 2.473 l 0.871,1.729 -2.463,-0.002 c 0.453,1.339 0.418,2.323 0.211,3.097 z"
         id="path10"
         inkscape:connector-curvature="0" /></g></svg></svg>
