<?xml version="1.0" encoding="UTF-8" standalone="no"?>
<svg
   xmlns:dc="http://purl.org/dc/elements/1.1/"
   xmlns:cc="http://creativecommons.org/ns#"
   xmlns:rdf="http://www.w3.org/1999/02/22-rdf-syntax-ns#"
   xmlns:svg="http://www.w3.org/2000/svg"
   xmlns="http://www.w3.org/2000/svg"
   xmlns:sodipodi="http://sodipodi.sourceforge.net/DTD/sodipodi-0.dtd"
   xmlns:inkscape="http://www.inkscape.org/namespaces/inkscape"
   height="44px"
   width="30px"
   version="1.1"
   viewBox="0 0 29.988946 43.988056"
   id="svg16"
   sodipodi:docname="Attraction.svg"
   inkscape:version="0.92.5 (2060ec1f9f, 2020-04-08)">
  <metadata
     id="metadata20">
    <rdf:RDF>
      <cc:Work
         rdf:about="">
        <dc:format>image/svg+xml</dc:format>
        <dc:type
           rdf:resource="http://purl.org/dc/dcmitype/StillImage" />
        <dc:title />
      </cc:Work>
    </rdf:RDF>
  </metadata>
  <sodipodi:namedview
     pagecolor="#ffffff"
     bordercolor="#666666"
     borderopacity="1"
     objecttolerance="10"
     gridtolerance="10"
     guidetolerance="10"
     inkscape:pageopacity="0"
     inkscape:pageshadow="2"
     inkscape:window-width="1680"
     inkscape:window-height="974"
     id="namedview18"
     showgrid="false"
     inkscape:zoom="11.505648"
     inkscape:cx="-4.8803799"
     inkscape:cy="39.306866"
     inkscape:window-x="0"
     inkscape:window-y="0"
     inkscape:window-maximized="1"
     inkscape:current-layer="g8" />
  <defs
     id="defs7">
    <radialGradient
       id="a"
       gradientUnits="userSpaceOnUse"
       cy="127.6"
       cx="-42.75"
       gradientTransform="matrix(4.2749643,0,0,0.98162997,197.99835,-83.706911)"
       r="2.3840001">
      <stop
         stop-color="#010101"
         offset="0"
         id="stop2" />
      <stop
         stop-opacity="0"
         stop-color="#090909"
         offset="1"
         id="stop4" />
    </radialGradient>
  </defs>
  <path
     d="m 14.994475,0.0864983 c -8.2386816,0 -14.91684362,6.6781619 -14.91684362,14.9168417 0.008545,2.561815 0.67294669,5.079165 1.93504232,7.306643 L 15.595595,40.920764 27.955752,22.365563 C 29.233667,20.121838 29.907468,17.585676 29.911315,15.00334 29.911273,6.7646602 23.233154,0.0864983 14.994475,0.0864983 Z"
     id="path9"
     inkscape:connector-curvature="0"
     style="fill:#FF8C00;stroke-width:4.27539158" />
  <circle
     cy="15.050359"
     cx="14.994473"
     r="9.4272394"
     id="circle11"
     style="fill:#f9f3f3;stroke-width:4.27539158" />
  <ellipse
     rx="10.192533"
     ry="2.3394945"
     cy="41.562065"
     cx="14.994473"
     id="ellipse13"
     style="opacity:0.4;fill:url(#a);stroke-width:4.27496433" />
  <rect
     id="replace"
     rx="0"
     ry="0"
     height="13.36915"
     width="13.471761"
     y="8.2097387"
     x="8.2585926"
     style="fill:none;stroke-width:4.27539158" />
  <svg
     inkscape:version="0.92.5 (2060ec1f9f, 2020-04-08)"
     height="100"
     width="100"
     sodipodi:docname="Attraction.svg"
     id="svg14"
     xml:space="preserve"
     viewBox="0 0 100 100"
     y="10"
     x="8.5"
     version="1.1"><metadata
       id="metadata336"><rdf:RDF><cc:Work
           rdf:about=""><dc:format>image/svg+xml</dc:format><dc:type
             rdf:resource="http://purl.org/dc/dcmitype/StillImage" /><dc:title /></cc:Work></rdf:RDF></metadata><defs
       id="defs18" /><sodipodi:namedview
       inkscape:current-layer="svg14"
       inkscape:window-maximized="1"
       inkscape:window-y="0"
       inkscape:window-x="0"
       inkscape:cy="93.75"
       inkscape:cx="84.931144"
       inkscape:zoom="1.2586667"
       showgrid="false"
       id="namedview16"
       inkscape:window-height="884"
       inkscape:window-width="1680"
       inkscape:pageshadow="2"
       inkscape:pageopacity="0"
       guidetolerance="10"
       gridtolerance="10"
       objecttolerance="10"
       borderopacity="1"
       bordercolor="#666666"
       pagecolor="#ffffff" /><g
       transform="matrix(0.14178549,0,0,0.14178549,-4.8048382,-4.2610171)"
       id="g8"><path
         inkscape:connector-curvature="0"
         id="path6"
         d="m 114.97975,58.523223 h -3.8111 c -0.74862,-4.968047 -2.65416,-9.595818 -5.5125,-13.679144 1.0889,-1.088889 1.76945,-2.654163 1.76945,-4.35555 v -2.38194 c 0,-0.748609 -0.6125,-1.361109 -1.36111,-1.361109 h -8.7111 c -3.47083,-2.381941 -7.418044,-4.015271 -11.569427,-4.831937 0,-0.136111 0,-0.340277 0,-0.476388 v -2.313886 c 0,-0.748609 -0.612499,-1.361108 -1.361109,-1.361108 h -9.595818 c -0.74861,0 -1.361109,0.612499 -1.361109,1.361108 v 2.381942 c 0,0.13611 0,0.340277 0,0.476387 -4.151382,0.816666 -8.030543,2.449997 -11.569425,4.831937 h -8.574988 c -0.74861,0 -1.361109,0.612499 -1.361109,1.361109 v 2.381941 c 0,1.701386 0.680555,3.266662 1.769443,4.355549 -2.858329,4.083327 -4.763882,8.711097 -5.512492,13.679144 h -3.811105 c -0.748611,0 -1.361109,0.6125 -1.361109,1.361109 v 2.381942 c 0,3.062495 2.245829,5.648602 5.172214,6.124989 0.680555,4.355549 2.177774,8.438876 4.423604,12.11387 -0.408332,0.204166 -0.680555,0.680555 -0.680555,1.156943 v 2.381943 c 0,3.402768 2.790274,6.193045 6.193046,6.193045 1.020832,0 1.973608,-0.272227 2.858329,-0.680556 3.811105,2.790278 8.234709,4.695829 12.86248,5.580559 0.816666,2.38193 3.13055,4.15137 5.852769,4.15137 2.722217,0 4.968047,-1.70139 5.852768,-4.15137 4.55971,-0.81668 8.915273,-2.722231 12.658323,-5.444448 0.81667,0.340277 1.63332,0.544445 2.5861,0.544445 3.40277,0 6.19305,-2.790277 6.19305,-6.193045 v -2.381943 c 0,-0.340277 -0.13611,-0.680554 -0.40834,-0.952777 2.38194,-3.743049 3.94722,-7.962487 4.55972,-12.386091 2.92639,-0.476389 5.17221,-2.994439 5.17221,-6.124991 v -2.38194 c 0,-0.74861 -0.6125,-1.361109 -1.36111,-1.361109 z M 98.71451,46.137131 c 0.74861,0.340278 1.56528,0.544445 2.44999,0.544445 0.74861,0 1.42916,-0.136112 2.10972,-0.340278 2.5861,3.606939 4.35555,7.826378 5.03611,12.24998 h -3.0625 c -0.74862,0 -1.36111,0.6125 -1.36111,1.361109 v 2.24583 H 86.464517 c -0.204166,-0.952776 -0.544443,-1.769442 -1.020831,-2.51805 z M 85.035353,34.567706 c 3.538883,0.680554 6.941654,1.973608 10.004157,3.947216 v 1.973607 c 0,1.565276 0.54445,2.926385 1.49723,4.015272 L 83.538133,57.638502 c -0.74861,-0.476388 -1.565275,-0.884721 -2.518051,-1.020831 V 37.49409 c 1.701386,-0.340278 3.13055,-1.429164 4.015271,-2.926384 z m -1.156942,28.923565 c 0,2.381941 -1.905553,4.287493 -4.219439,4.287493 -2.313884,0 -4.219436,-1.905552 -4.219436,-4.287493 0,-2.381941 1.905552,-4.287493 4.219436,-4.287493 2.313886,0 4.219439,1.905552 4.219439,4.287493 z M 64.278442,40.488529 v -1.973607 c 3.062494,-1.905553 6.465268,-3.266662 10.00415,-3.947216 0.884721,1.49722 2.313885,2.518051 4.015272,2.926384 v 19.123581 c -0.884721,0.204166 -1.769441,0.544443 -2.518052,1.020831 L 62.781221,44.503801 c 0.952777,-1.088887 1.497221,-2.449996 1.497221,-4.015272 z m -8.234709,5.784714 c 0.680554,0.204166 1.361109,0.340277 2.109718,0.340277 0.884721,0 1.701386,-0.204167 2.449997,-0.544444 L 73.87426,59.476 c -0.476388,0.748609 -0.884721,1.63333 -1.020832,2.518052 h -17.49025 v -2.245831 c 0,-0.74861 -0.612499,-1.361109 -1.361109,-1.361109 h -3.062495 c 0.74861,-4.287493 2.518051,-8.438875 5.104159,-12.113869 z m -5.104159,21.913854 c 1.701386,-0.476388 3.130551,-1.701386 3.87916,-3.334717 h 18.034694 c 0.204167,0.952776 0.544444,1.769442 1.020832,2.518052 L 61.079836,80.300967 H 55.77151 c -2.51805,-3.674995 -4.151382,-7.758322 -4.831936,-12.11387 z m 23.887462,21.097189 c -0.74861,0 -1.361109,0.612497 -1.361109,1.36111 v 1.565268 c -3.743049,-0.816654 -7.213878,-2.381931 -10.412483,-4.559707 0.748609,-1.02083 1.224998,-2.313884 1.224998,-3.674998 V 81.59402 c 0,-0.204166 -0.06806,-0.408332 -0.136112,-0.612499 L 75.711757,69.344039 68.157602,87.446788 c 0.816666,0.408338 1.63333,0.748614 2.518051,1.088892 l 7.622211,-18.238864 c 0,0 0,0 0,0 v 18.919417 h -3.470828 z m 11.024983,2.926378 v -1.565268 c 0,-0.748613 -0.612499,-1.36111 -1.36111,-1.36111 H 81.020082 V 70.364871 c 0,0 0,0 0,0 l 7.62221,18.238862 c 0.884721,-0.340276 1.701385,-0.680553 2.518055,-1.088891 L 83.606189,69.412095 94.83535,80.777354 c -0.20417,0.204167 -0.34028,0.544444 -0.34028,0.884722 v 2.381937 c 0,1.497223 0.54444,2.790276 1.36111,3.879167 -2.994453,2.041662 -6.397222,3.47083 -10.004161,4.287484 z M 103.54644,80.300967 H 98.23812 L 85.443686,67.370432 c 0.476388,-0.74861 0.88472,-1.633331 1.020831,-2.518052 h 18.034693 c 0.74862,1.633331 2.17778,2.858329 3.87917,3.334717 -0.68056,4.355548 -2.31389,8.438875 -4.83194,12.11387 z"
         style="stroke-width:0.68055439" /></g></svg></svg>
