<?xml version="1.0" encoding="UTF-8"?>
<svg xmlns="http://www.w3.org/2000/svg" xmlns:xlink="http://www.w3.org/1999/xlink" width="30px" height="46px" viewBox="0 0 30 46" version="1.1">
<defs>
<clipPath id="clip1">
  <path d="M 13 6.921875 L 17 6.921875 L 17 9 L 13 9 Z M 13 6.921875 "/>
</clipPath>
</defs>
<g id="surface1">
<path style="fill-rule:nonzero;fill:rgb(100%,40.000001%,0%);fill-opacity:1;stroke-width:1;stroke-linecap:round;stroke-linejoin:miter;stroke:rgb(83.137256%,33.333334%,0%);stroke-opacity:1;stroke-miterlimit:4;" d="M 13.040625 0.638587 C 6.25625 0.638587 0.609375 6.287364 0.609375 12.418478 C 0.609375 15.17663 2.224219 18.678668 3.388802 21.097147 L 13 38.828125 L 22.560417 21.097147 C 23.725 18.678668 25.383854 15.353261 25.383854 12.418478 C 25.383854 6.290761 19.828385 0.638587 13.04401 0.638587 Z M 13.040625 2.099185 C 18.934635 2.136549 23.721615 6.756114 23.721615 12.428668 C 23.721615 18.108016 18.938021 22.659647 13.040625 22.700408 C 7.146615 22.663043 2.369792 18.11481 2.369792 12.428668 C 2.369792 6.752717 7.15 2.129755 13.040625 2.099185 Z M 13.040625 2.099185 " transform="matrix(1.153846,0,0,1.15,0,0)"/>
<path style="fill-rule:nonzero;fill:rgb(100%,100%,100%);fill-opacity:1;stroke-width:1.00275;stroke-linecap:butt;stroke-linejoin:miter;stroke:rgb(100%,100%,100%);stroke-opacity:1;stroke-miterlimit:4;" d="M 23.010677 12.374321 C 23.010677 17.703804 18.528385 22.02106 13.003385 22.02106 C 7.478385 22.02106 2.996094 17.703804 2.996094 12.374321 C 2.996094 7.048234 7.478385 2.727582 13.003385 2.727582 C 18.528385 2.727582 23.010677 7.048234 23.010677 12.374321 Z M 23.010677 12.374321 " transform="matrix(1.153846,0,0,1.15,0,0)"/>
<path style=" stroke:none;fill-rule:evenodd;fill:rgb(0%,0%,0%);fill-opacity:1;" d="M 10.378906 11.246094 L 10.15625 11.171875 C 9.765625 12.339844 9.796875 13.605469 10.242188 14.753906 L 10.460938 14.671875 C 10.035156 13.574219 10.003906 12.359375 10.378906 11.246094 Z M 10.378906 11.246094 "/>
<path style=" stroke:none;fill-rule:evenodd;fill:rgb(0%,0%,0%);fill-opacity:1;" d="M 11.3125 16.085938 L 11.132812 16.238281 C 11.808594 17.039062 12.703125 17.621094 13.710938 17.910156 L 13.773438 17.6875 C 12.8125 17.410156 11.957031 16.851562 11.3125 16.085938 Z M 11.3125 16.085938 "/>
<path style=" stroke:none;fill-rule:evenodd;fill:rgb(0%,0%,0%);fill-opacity:1;" d="M 16.539062 17.6875 L 16.601562 17.914062 C 17.578125 17.636719 18.457031 17.085938 19.125 16.328125 L 18.949219 16.171875 C 18.308594 16.898438 17.472656 17.425781 16.539062 17.6875 Z M 16.539062 17.6875 "/>
<path style=" stroke:none;fill-rule:evenodd;fill:rgb(0%,0%,0%);fill-opacity:1;" d="M 19.871094 14.65625 L 20.089844 14.742188 C 20.535156 13.585938 20.558594 12.308594 20.152344 11.136719 L 19.929688 11.210938 C 20.316406 12.332031 20.296875 13.550781 19.871094 14.65625 Z M 19.871094 14.65625 "/>
<path style=" stroke:none;fill-rule:evenodd;fill:rgb(0%,0%,0%);fill-opacity:1;" d="M 19.085938 9.683594 L 19.269531 9.539062 C 18.582031 8.695312 17.652344 8.085938 16.601562 7.789062 L 16.539062 8.015625 C 17.539062 8.296875 18.429688 8.878906 19.085938 9.683594 Z M 19.085938 9.683594 "/>
<path style=" stroke:none;fill-rule:evenodd;fill:rgb(0%,0%,0%);fill-opacity:1;" d="M 13.828125 8.003906 L 13.765625 7.78125 C 12.679688 8.078125 11.714844 8.714844 11.019531 9.597656 L 11.203125 9.742188 C 11.871094 8.898438 12.789062 8.289062 13.828125 8.003906 Z M 13.828125 8.003906 "/>
<path style=" stroke:none;fill-rule:evenodd;fill:rgb(0%,0%,0%);fill-opacity:1;" d="M 20.324219 12.933594 L 20.324219 12.699219 L 10.003906 12.699219 L 10.003906 12.933594 Z M 20.324219 12.933594 "/>
<path style=" stroke:none;fill-rule:evenodd;fill:rgb(0%,0%,0%);fill-opacity:1;" d="M 17.84375 8.457031 L 17.640625 8.339844 L 12.480469 17.25 L 12.683594 17.367188 Z M 17.84375 8.457031 "/>
<path style=" stroke:none;fill-rule:evenodd;fill:rgb(0%,0%,0%);fill-opacity:1;" d="M 17.84375 8.457031 L 17.640625 8.339844 L 11.273438 19.339844 L 11.476562 19.457031 Z M 17.84375 8.457031 "/>
<path style=" stroke:none;fill-rule:evenodd;fill:rgb(0%,0%,0%);fill-opacity:1;" d="M 12.683594 8.339844 L 12.480469 8.457031 L 18.875 19.492188 L 19.078125 19.375 Z M 12.683594 8.339844 "/>
<path style=" stroke:none;fill-rule:evenodd;fill:rgb(0%,0%,0%);fill-opacity:1;" d="M 12.683594 8.339844 L 12.480469 8.457031 L 18.875 19.492188 L 19.078125 19.375 Z M 12.683594 8.339844 "/>
<path style=" stroke:none;fill-rule:evenodd;fill:rgb(0%,0%,0%);fill-opacity:1;" d="M 21.492188 19.597656 C 21.496094 19.597656 21.496094 20.179688 21.496094 20.179688 C 21.496094 20.179688 8.832031 20.179688 8.832031 20.179688 C 8.832031 20.179688 8.832031 19.597656 8.832031 19.597656 C 8.832031 19.597656 21.492188 19.597656 21.492188 19.597656 Z M 8.597656 20.179688 C 8.597656 20.308594 8.703125 20.414062 8.832031 20.414062 L 21.492188 20.414062 C 21.625 20.414062 21.730469 20.308594 21.730469 20.179688 L 21.730469 19.597656 C 21.730469 19.46875 21.625 19.363281 21.492188 19.363281 L 8.832031 19.363281 C 8.703125 19.363281 8.597656 19.46875 8.597656 19.597656 Z M 8.597656 20.179688 "/>
<path style=" stroke:none;fill-rule:evenodd;fill:rgb(0%,0%,0%);fill-opacity:1;" d="M 17.039062 12.851562 C 17.039062 11.820312 16.199219 10.984375 15.164062 10.984375 C 14.128906 10.984375 13.289062 11.820312 13.289062 12.851562 C 13.289062 13.882812 14.128906 14.71875 15.164062 14.71875 C 16.199219 14.71875 17.039062 13.882812 17.039062 12.851562 Z M 13.523438 12.851562 C 13.523438 11.949219 14.257812 11.21875 15.164062 11.21875 C 16.070312 11.21875 16.804688 11.949219 16.804688 12.851562 C 16.804688 13.753906 16.070312 14.488281 15.164062 14.488281 C 14.257812 14.488281 13.523438 13.753906 13.523438 12.851562 Z M 13.523438 12.851562 "/>
<path style=" stroke:none;fill-rule:evenodd;fill:rgb(0%,0%,0%);fill-opacity:1;" d="M 16.453125 17.257812 C 16.453125 17.257812 16.457031 17.261719 16.457031 17.261719 C 16.460938 17.261719 16.460938 17.265625 16.460938 17.269531 L 16.460938 17.945312 C 16.460938 18.273438 16.191406 18.542969 15.859375 18.542969 L 14.460938 18.542969 C 14.136719 18.542969 13.875 18.28125 13.875 17.957031 L 13.875 17.257812 C 13.875 17.257812 16.453125 17.257812 16.453125 17.257812 Z M 13.640625 17.257812 L 13.640625 17.957031 C 13.640625 18.410156 14.007812 18.777344 14.460938 18.777344 L 15.859375 18.777344 C 16.320312 18.777344 16.695312 18.402344 16.695312 17.945312 L 16.695312 17.269531 C 16.695312 17.203125 16.667969 17.140625 16.625 17.097656 C 16.578125 17.050781 16.515625 17.023438 16.453125 17.023438 L 13.871094 17.023438 C 13.742188 17.023438 13.640625 17.128906 13.640625 17.257812 Z M 13.640625 17.257812 "/>
<g clip-path="url(#clip1)" clip-rule="nonzero">
<path style=" stroke:none;fill-rule:evenodd;fill:rgb(0%,0%,0%);fill-opacity:1;" d="M 16.445312 7.207031 C 16.449219 7.207031 16.453125 7.210938 16.453125 7.21875 L 16.453125 7.875 C 16.453125 8.214844 16.175781 8.492188 15.832031 8.492188 L 14.460938 8.492188 C 14.136719 8.492188 13.875 8.230469 13.875 7.910156 L 13.875 7.183594 C 13.875 7.199219 13.863281 7.207031 13.851562 7.207031 Z M 13.640625 7.183594 L 13.640625 7.910156 C 13.640625 8.359375 14.007812 8.726562 14.460938 8.726562 L 15.832031 8.726562 C 16.304688 8.726562 16.6875 8.34375 16.6875 7.875 L 16.6875 7.21875 C 16.6875 7.082031 16.578125 6.972656 16.445312 6.972656 L 13.851562 6.972656 C 13.734375 6.972656 13.640625 7.066406 13.640625 7.183594 Z M 13.640625 7.183594 "/>
</g>
<path style=" stroke:none;fill-rule:evenodd;fill:rgb(0%,0%,0%);fill-opacity:1;" d="M 12.039062 9.777344 C 12.015625 9.777344 11.996094 9.761719 11.996094 9.738281 L 11.996094 10.441406 C 11.996094 10.78125 11.71875 11.058594 11.375 11.058594 L 10.054688 11.058594 C 9.886719 11.058594 9.722656 10.992188 9.605469 10.875 C 9.484375 10.753906 9.417969 10.589844 9.417969 10.421875 L 9.417969 9.753906 C 9.417969 9.769531 9.40625 9.777344 9.394531 9.777344 Z M 9.183594 9.753906 L 9.183594 10.421875 C 9.183594 10.652344 9.273438 10.875 9.4375 11.039062 C 9.601562 11.203125 9.824219 11.292969 10.054688 11.292969 L 11.375 11.292969 C 11.847656 11.292969 12.230469 10.910156 12.230469 10.441406 L 12.230469 9.738281 C 12.230469 9.632812 12.144531 9.546875 12.039062 9.546875 L 9.394531 9.546875 C 9.277344 9.546875 9.183594 9.640625 9.183594 9.753906 Z M 9.183594 9.753906 "/>
<path style=" stroke:none;fill-rule:evenodd;fill:rgb(0%,0%,0%);fill-opacity:1;" d="M 20.851562 9.777344 C 20.820312 9.777344 20.792969 9.753906 20.792969 9.71875 L 20.792969 10.445312 C 20.792969 10.789062 20.515625 11.066406 20.171875 11.066406 L 18.871094 11.066406 C 18.570312 11.066406 18.328125 10.824219 18.328125 10.527344 L 18.328125 9.753906 C 18.328125 9.769531 18.320312 9.777344 18.304688 9.777344 Z M 18.09375 9.753906 L 18.09375 10.527344 C 18.09375 10.953125 18.441406 11.296875 18.871094 11.296875 L 20.171875 11.296875 C 20.644531 11.296875 21.027344 10.917969 21.027344 10.445312 L 21.027344 9.71875 C 21.027344 9.625 20.949219 9.546875 20.851562 9.546875 L 18.304688 9.546875 C 18.191406 9.546875 18.09375 9.640625 18.09375 9.753906 Z M 18.09375 9.753906 "/>
<path style=" stroke:none;fill-rule:evenodd;fill:rgb(0%,0%,0%);fill-opacity:1;" d="M 12.039062 14.804688 C 12.015625 14.804688 11.996094 14.785156 11.996094 14.765625 L 11.996094 15.480469 C 11.996094 15.816406 11.722656 16.089844 11.386719 16.089844 L 10.054688 16.089844 C 9.703125 16.089844 9.417969 15.804688 9.417969 15.453125 L 9.417969 14.792969 C 9.417969 14.800781 9.414062 14.804688 9.40625 14.804688 Z M 9.183594 14.792969 L 9.183594 15.453125 C 9.183594 15.933594 9.574219 16.324219 10.054688 16.324219 L 11.386719 16.324219 C 11.851562 16.324219 12.230469 15.945312 12.230469 15.480469 L 12.230469 14.765625 C 12.230469 14.65625 12.144531 14.570312 12.039062 14.570312 L 9.40625 14.570312 C 9.28125 14.570312 9.183594 14.671875 9.183594 14.792969 Z M 9.183594 14.792969 "/>
<path style=" stroke:none;fill-rule:evenodd;fill:rgb(0%,0%,0%);fill-opacity:1;" d="M 20.851562 14.804688 C 20.820312 14.804688 20.792969 14.777344 20.792969 14.746094 L 20.792969 15.480469 C 20.792969 15.816406 20.519531 16.089844 20.179688 16.089844 L 18.871094 16.089844 C 18.570312 16.089844 18.328125 15.847656 18.328125 15.550781 L 18.328125 14.792969 C 18.328125 14.800781 18.324219 14.804688 18.316406 14.804688 Z M 18.09375 14.792969 L 18.09375 15.550781 C 18.09375 15.980469 18.441406 16.324219 18.871094 16.324219 L 20.179688 16.324219 C 20.648438 16.324219 21.027344 15.945312 21.027344 15.480469 L 21.027344 14.746094 C 21.027344 14.648438 20.949219 14.570312 20.851562 14.570312 L 18.316406 14.570312 C 18.195312 14.570312 18.09375 14.671875 18.09375 14.792969 Z M 18.09375 14.792969 "/>
<path style=" stroke:none;fill-rule:evenodd;fill:rgb(0%,0%,0%);fill-opacity:1;" d="M 17.914062 12.851562 C 17.914062 11.339844 16.683594 10.109375 15.164062 10.109375 C 13.644531 10.109375 12.414062 11.339844 12.414062 12.851562 C 12.414062 14.367188 13.644531 15.59375 15.164062 15.59375 C 16.683594 15.59375 17.914062 14.367188 17.914062 12.851562 Z M 12.648438 12.851562 C 12.648438 11.46875 13.773438 10.34375 15.164062 10.34375 C 16.554688 10.34375 17.679688 11.46875 17.679688 12.851562 C 17.679688 14.238281 16.554688 15.359375 15.164062 15.359375 C 13.773438 15.359375 12.648438 14.238281 12.648438 12.851562 Z M 12.648438 12.851562 "/>
</g>
</svg>
