<?xml version="1.0" encoding="UTF-8" standalone="no"?>
<svg
   xmlns:dc="http://purl.org/dc/elements/1.1/"
   xmlns:cc="http://creativecommons.org/ns#"
   xmlns:rdf="http://www.w3.org/1999/02/22-rdf-syntax-ns#"
   xmlns:svg="http://www.w3.org/2000/svg"
   xmlns="http://www.w3.org/2000/svg"
   xmlns:sodipodi="http://sodipodi.sourceforge.net/DTD/sodipodi-0.dtd"
   xmlns:inkscape="http://www.inkscape.org/namespaces/inkscape"
   height="44px"
   width="30px"
   version="1.1"
   viewBox="0 0 29.988946 43.988056"
   id="svg16"
   sodipodi:docname="new_Attraction.svg"
   inkscape:version="0.92.5 (2060ec1f9f, 2020-04-08)">
  <metadata
     id="metadata20">
    <rdf:RDF>
      <cc:Work
         rdf:about="">
        <dc:format>image/svg+xml</dc:format>
        <dc:type
           rdf:resource="http://purl.org/dc/dcmitype/StillImage" />
        <dc:title />
      </cc:Work>
    </rdf:RDF>
  </metadata>
  <sodipodi:namedview
     pagecolor="#ffffff"
     bordercolor="#666666"
     borderopacity="1"
     objecttolerance="10"
     gridtolerance="10"
     guidetolerance="10"
     inkscape:pageopacity="0"
     inkscape:pageshadow="2"
     inkscape:window-width="1680"
     inkscape:window-height="974"
     id="namedview18"
     showgrid="false"
     inkscape:zoom="2.876412"
     inkscape:cx="-7.3293017"
     inkscape:cy="89.401789"
     inkscape:window-x="0"
     inkscape:window-y="0"
     inkscape:window-maximized="1"
     inkscape:current-layer="g8" />
  <defs
     id="defs7">
    <radialGradient
       id="a"
       gradientUnits="userSpaceOnUse"
       cy="127.6"
       cx="-42.75"
       gradientTransform="matrix(4.2749643,0,0,0.98162997,197.99835,-83.706911)"
       r="2.3840001">
      <stop
         stop-color="#010101"
         offset="0"
         id="stop2" />
      <stop
         stop-opacity="0"
         stop-color="#090909"
         offset="1"
         id="stop4" />
    </radialGradient>
  </defs>
  <path
     d="m 14.994475,0.0864983 c -8.2386816,0 -14.91684362,6.6781619 -14.91684362,14.9168417 0.008545,2.561815 0.67294669,5.079165 1.93504232,7.306643 L 15.595595,40.920764 27.955752,22.365563 C 29.233667,20.121838 29.907468,17.585676 29.911315,15.00334 29.911273,6.7646602 23.233154,0.0864983 14.994475,0.0864983 Z"
     id="path9"
     inkscape:connector-curvature="0"
     style="fill:#5846c5;stroke-width:4.27539158" />
  <circle
     cy="15.050359"
     cx="14.994473"
     r="9.4272394"
     id="circle11"
     style="fill:#f9f3f3;stroke-width:4.27539158" />
  <ellipse
     rx="10.192533"
     ry="2.3394945"
     cy="41.562065"
     cx="14.994473"
     id="ellipse13"
     style="opacity:0.4;fill:url(#a);stroke-width:4.27496433" />
  <rect
     id="replace"
     rx="0"
     ry="0"
     height="13.36915"
     width="13.471761"
     y="8.2097387"
     x="8.2585926"
     style="fill:none;stroke-width:4.27539158" />
  <svg
     inkscape:version="0.92.5 (2060ec1f9f, 2020-04-08)"
     height="100"
     width="100"
     sodipodi:docname="Attraction.svg"
     id="svg14"
     xml:space="preserve"
     viewBox="0 0 100 100"
     y="10"
     x="8.5"
     version="1.1"><metadata
       id="metadata336"><rdf:RDF><cc:Work
           rdf:about=""><dc:format>image/svg+xml</dc:format><dc:type
             rdf:resource="http://purl.org/dc/dcmitype/StillImage" /><dc:title /></cc:Work></rdf:RDF></metadata><defs
       id="defs18" /><sodipodi:namedview
       inkscape:current-layer="svg14"
       inkscape:window-maximized="1"
       inkscape:window-y="0"
       inkscape:window-x="0"
       inkscape:cy="93.75"
       inkscape:cx="84.931144"
       inkscape:zoom="1.2586667"
       showgrid="false"
       id="namedview16"
       inkscape:window-height="884"
       inkscape:window-width="1680"
       inkscape:pageshadow="2"
       inkscape:pageopacity="0"
       guidetolerance="10"
       gridtolerance="10"
       objecttolerance="10"
       borderopacity="1"
       bordercolor="#666666"
       pagecolor="#ffffff" /><g
       transform="matrix(0.14178549,0,0,0.14178549,-4.8048382,-4.2610171)"
       id="g8"><path
         inkscape:connector-curvature="0"
         id="path6"
         d="m 135.35617,60.483598 h -5.8762 c -1.15426,-7.660047 -4.09236,-14.795433 -8.49951,-21.091361 1.67892,-1.678915 2.72824,-4.092354 2.72824,-6.715658 v -3.672625 c 0,-1.154253 -0.94439,-2.098643 -2.09864,-2.098643 h -13.43132 c -5.35154,-3.672625 -11.437605,-6.190996 -17.838466,-7.450182 0,-0.209864 0,-0.524661 0,-0.734525 v -3.567693 c 0,-1.154254 -0.944389,-2.098643 -2.098643,-2.098643 H 73.446198 c -1.154253,0 -2.098643,0.944389 -2.098643,2.098643 v 3.672625 c 0,0.209864 0,0.524661 0,0.734525 -6.400861,1.259186 -12.381993,3.777557 -17.838464,7.450182 H 40.28764 c -1.154254,0 -2.098643,0.94439 -2.098643,2.098643 v 3.672625 c 0,2.623304 1.049322,5.036744 2.728236,6.715658 -4.40715,6.295929 -7.34525,13.431315 -8.499504,21.091361 h -5.8762 c -1.154254,0 -2.098643,0.94439 -2.098643,2.098643 v 3.672625 c 0,4.721947 3.462761,8.709368 7.974843,9.443893 1.049322,6.715658 3.357829,13.011587 6.82059,18.677922 -0.629593,0.314797 -1.049322,1.049322 -1.049322,1.783847 v 3.672628 c 0,5.246602 4.302218,9.548822 9.548825,9.548822 1.573983,0 3.043033,-0.41973 4.407151,-1.04932 5.8762,4.30222 12.696789,7.24032 19.832175,8.60444 1.259186,3.67262 4.826879,6.40086 9.024165,6.40086 4.197286,0 7.660047,-2.62331 9.024164,-6.40086 7.030454,-1.25919 13.746113,-4.19729 19.517383,-8.39457 1.25919,0.52466 2.51837,0.83945 3.98742,0.83945 5.24661,0 9.54883,-4.30222 9.54883,-9.548822 V 96.26546 c 0,-0.524661 -0.20987,-1.049321 -0.6296,-1.46905 3.67263,-5.771268 6.08607,-12.277061 7.03046,-19.097651 4.51208,-0.734525 7.97484,-4.617014 7.97484,-9.443893 v -3.672625 c 0,-1.154254 -0.94439,-2.098643 -2.09864,-2.098643 z M 110.27739,41.385947 c 1.15425,0.524661 2.41344,0.839458 3.77755,0.839458 1.15426,0 2.20358,-0.209865 3.2529,-0.524661 3.98742,5.561404 6.71566,12.067197 7.76498,18.887786 h -4.72195 c -1.15425,0 -2.09864,0.94439 -2.09864,2.098643 v 3.462761 H 91.389595 c -0.314796,-1.46905 -0.839457,-2.728236 -1.573982,-3.882489 z M 89.18602,23.547483 c 5.456472,1.049321 10.703079,3.043032 15.42503,6.086064 v 3.043032 c 0,2.41344 0.83946,4.512083 2.30851,6.190997 L 86.877513,59.11948 C 85.723259,58.384955 84.464074,57.755362 82.995024,57.545498 V 28.059565 c 2.623303,-0.524661 4.826878,-2.203575 6.190996,-4.512082 z m -1.783846,44.596162 c 0,3.672625 -2.9381,6.610725 -6.505793,6.610725 -3.567693,0 -6.505793,-2.9381 -6.505793,-6.610725 0,-3.672625 2.9381,-6.610725 6.505793,-6.610725 3.567693,0 6.505793,2.9381 6.505793,6.610725 z M 57.181716,32.676579 v -3.043032 c 4.721946,-2.9381 9.968554,-5.036743 15.425025,-6.086064 1.364118,2.308507 3.567693,3.882489 6.190997,4.512082 v 29.485933 c -1.364118,0.314796 -2.728236,0.839457 -3.88249,1.573982 L 54.873208,38.867576 c 1.46905,-1.678914 2.308508,-3.777557 2.308508,-6.190997 z m -12.69679,8.919233 c 1.049321,0.314796 2.098643,0.524661 3.252896,0.524661 1.364118,0 2.623304,-0.314797 3.777558,-0.839458 l 20.461768,20.671633 c -0.734525,1.154254 -1.364118,2.518372 -1.573982,3.88249 H 43.435604 v -3.462761 c 0,-1.154254 -0.944389,-2.098643 -2.098642,-2.098643 h -4.721947 c 1.154254,-6.610725 3.882489,-13.011586 7.869911,-18.677922 z m -7.869911,33.788151 c 2.623304,-0.734525 4.826879,-2.623304 5.981132,-5.141675 h 27.807019 c 0.314797,1.46905 0.839457,2.728236 1.573982,3.882489 L 52.249905,94.061885 H 44.065197 C 40.182708,88.395549 37.664336,82.09962 36.615015,75.383963 Z m 36.831183,32.528967 c -1.154253,0 -2.098643,0.94439 -2.098643,2.09864 v 2.41344 c -5.771268,-1.25918 -11.122807,-3.67262 -16.054618,-7.03045 1.154254,-1.57398 1.888779,-3.56769 1.888779,-5.666342 v -3.672622 c 0,-0.314797 -0.104933,-0.629593 -0.209865,-0.94439 L 74.810316,77.167809 63.162848,105.07976 c 1.259186,0.6296 2.518371,1.15426 3.882489,1.67892 L 78.797738,78.636859 c 0,0 0,0 0,0 V 107.808 h -5.35154 z m 16.999008,4.51208 v -2.41344 c 0,-1.15425 -0.944389,-2.09864 -2.098643,-2.09864 H 82.995024 V 78.741792 c 0,0 0,0 0,0 l 11.7524,28.121818 c 1.364118,-0.52466 2.623304,-1.04932 3.882489,-1.67892 L 86.982445,77.272742 104.29625,94.79641 c -0.31479,0.314796 -0.52466,0.839457 -0.52466,1.364118 v 3.67262 c 0,2.308512 0.83946,4.302222 2.09865,5.981142 -4.61702,3.14796 -9.86363,5.35154 -15.425034,6.61072 z M 117.72757,94.061885 h -8.18471 L 89.815613,74.124777 c 0.734525,-1.154253 1.364118,-2.518371 1.573982,-3.882489 h 27.807025 c 1.15425,2.518371 3.35783,4.40715 5.98113,5.141675 -1.04932,6.715657 -3.56769,13.011586 -7.45018,18.677922 z"
         style="stroke-width:1.04932141" /></g></svg></svg>
