<?xml version="1.0" encoding="UTF-8" standalone="no"?>
<svg
   xmlns:dc="http://purl.org/dc/elements/1.1/"
   xmlns:cc="http://creativecommons.org/ns#"
   xmlns:rdf="http://www.w3.org/1999/02/22-rdf-syntax-ns#"
   xmlns:svg="http://www.w3.org/2000/svg"
   xmlns="http://www.w3.org/2000/svg"
   xmlns:sodipodi="http://sodipodi.sourceforge.net/DTD/sodipodi-0.dtd"
   xmlns:inkscape="http://www.inkscape.org/namespaces/inkscape"
   height="40"
   width="26"
   version="1.1"
   id="svg11"
   sodipodi:docname="new_Bank.svg"
   inkscape:version="0.92.5 (2060ec1f9f, 2020-04-08)">
  <metadata
     id="metadata17" />
  <defs
     id="defs15" />
  <sodipodi:namedview
     pagecolor="#ffffff"
     bordercolor="#666666"
     borderopacity="1"
     objecttolerance="10"
     gridtolerance="10"
     guidetolerance="10"
     inkscape:pageopacity="0"
     inkscape:pageshadow="2"
     inkscape:window-width="640"
     inkscape:window-height="480"
     id="namedview13"
     showgrid="false"
     inkscape:zoom="5.9"
     inkscape:cx="13"
     inkscape:cy="20"
     inkscape:window-x="0"
     inkscape:window-y="0"
     inkscape:window-maximized="0"
     inkscape:current-layer="svg2" />
  <path
     d="m13.04 0.6387c-6.783 0-12.43 5.649-12.43 11.78 0 2.757 1.613 6.26 2.779 8.68l9.611 17.73 9.56-17.73c1.166-2.42 2.824-5.747 2.824-8.68 0-6.128-5.555-11.78-12.34-11.78zm0 1.461c5.895 0.0373 10.68 4.656 10.68 10.33 0 5.678-4.781 10.23-10.68 10.27-5.895-0.0373-10.67-4.585-10.67-10.27 0-5.678 4.779-10.3 10.67-10.33z"
     stroke="#d45500"
     stroke-linecap="round"
     fill="#f60"
     id="path2" />
  <ellipse
     style="fill:#ffffff;stroke:#ffffff;stroke-width:1.00274992"
     id="path13"
     cx="13.003574"
     cy="12.374899"
     rx="10.005984"
     ry="9.6464386" />
  <svg
     version="1.1"
     x="6.543"
     y="6.02"
     viewBox="0 0 72 90"
     enable-background="new 0 0 72 72"
     xml:space="preserve"
     id="svg2"
     inkscape:version="0.91 r13725"
     sodipodi:docname="Bank.svg"><metadata
       id="metadata16"><rdf:RDF><cc:Work
           rdf:about=""><dc:format>image/svg+xml</dc:format><dc:type
             rdf:resource="http://purl.org/dc/dcmitype/StillImage" /></cc:Work></rdf:RDF></metadata><defs
       id="defs14" /><sodipodi:namedview
       pagecolor="#ffffff"
       bordercolor="#666666"
       borderopacity="1"
       objecttolerance="10"
       gridtolerance="10"
       guidetolerance="10"
       inkscape:pageopacity="0"
       inkscape:pageshadow="2"
       inkscape:window-width="668"
       inkscape:window-height="480"
       id="namedview12"
       showgrid="false"
       inkscape:zoom="2.6222222"
       inkscape:cx="36"
       inkscape:cy="45"
       inkscape:window-x="75"
       inkscape:window-y="34"
       inkscape:window-maximized="0"
       inkscape:current-layer="svg2" /><g
       id="g4"
       transform="matrix(0.49617591,0,0,0.49617591,1.1402519,-10.912692)"><path
         d="m 70.5,63.8 h -2 c -0.5,0 -1,-0.4 -1,-1 V 17.5 c 0,-0.5 -0.4,-1 -1,-1 H 48.7 c -0.5,0 -1,-0.4 -1,-1 V 12.8 C 47.7,6.3 42.6,0.8 36.2,0.7 29.6,0.6 24.3,5.9 24.3,12.4 v 3.1 c 0,0.5 -0.4,1 -1,1 H 5.4 c -0.5,0 -1,0.4 -1,1 v 45.4 c 0,0.5 -0.4,1 -1,1 h -2 c -0.5,0 -1,0.4 -1,1 v 5.6 c 0,0.5 0.4,1 1,1 h 3 63.1 3 c 0.5,0 1,-0.4 1,-1 v -5.6 c 0,-0.7 -0.4,-1.1 -1,-1.1 z M 32.4,13.3 h 1.9 c 0.1,0 0.1,0 0.1,0.1 0,0.6 0.2,1.1 0.5,1.3 0.3,0.3 0.7,0.4 1.2,0.4 0.5,0 0.8,-0.1 1,-0.4 0.2,-0.2 0.4,-0.6 0.4,-1 0,-0.4 -0.1,-0.7 -0.3,-1 C 37,12.4 36.6,12.2 36,12 34.9,11.6 34.1,11.1 33.5,10.7 33,10.2 32.7,9.5 32.7,8.6 32.7,7.8 33,7.1 33.5,6.5 34,6 34.7,5.7 35.6,5.6 c 0.1,0 0.1,-0.1 0.1,-0.1 V 4.2 c 0,-0.1 0.1,-0.1 0.1,-0.1 h 0.9 c 0.1,0 0.1,0.1 0.1,0.1 v 1.4 c 0,0.1 0,0.1 0.1,0.1 0.8,0.1 1.5,0.5 2,1.1 0.5,0.6 0.7,1.3 0.7,2.2 0,0 0,0 0,0 0,0.1 -0.1,0.2 -0.2,0.2 H 37.6 C 37.5,9.2 37.4,9.1 37.4,9 37.4,8.5 37.3,8.1 37,7.8 36.8,7.5 36.4,7.3 36,7.3 c -0.4,0 -0.7,0.1 -1,0.4 -0.2,0.2 -0.3,0.6 -0.3,1 0,0.4 0.1,0.7 0.3,0.9 0.2,0.2 0.6,0.5 1.2,0.7 1.1,0.4 1.9,0.9 2.5,1.4 0.5,0.5 0.8,1.2 0.8,2.1 0,0.9 -0.3,1.6 -0.8,2.1 -0.5,0.5 -1.2,0.8 -2.1,0.9 -0.1,0 -0.1,0.1 -0.1,0.1 v 1.3 c 0,0.1 -0.1,0.1 -0.1,0.1 h -1 c -0.1,0 -0.1,-0.1 -0.1,-0.1 v -1.3 c 0,-0.1 0,-0.1 -0.1,-0.1 -0.9,-0.1 -1.6,-0.4 -2.2,-1 -0.5,-0.5 -0.8,-1.2 -0.9,-2.1 0,-0.1 0,-0.2 0,-0.3 0.2,-0.1 0.3,-0.1 0.3,-0.1 z m -1.1,11.8 c 0,-0.5 0.4,-1 1,-1 h 7.4 c 0.5,0 1,0.4 1,1 v 9.4 c 0,0.5 -0.4,1 -1,1 h -7.4 c -0.5,0 -1,-0.4 -1,-1 z m -11.4,9.4 c 0,0.5 -0.4,1 -1,1 h -7.4 c -0.5,0 -1,-0.4 -1,-1 v -9.4 c 0,-0.5 0.4,-1 1,-1 h 7.4 c 0.5,0 1,0.4 1,1 z m 28.9,28.3 c 0,0.5 -0.4,1 -1,1 H 24.2 c -0.5,0 -1,-0.4 -1,-1 V 44.9 c 0,-0.5 0.4,-1 1,-1 h 23.6 c 0.5,0 1,0.4 1,1 z M 61.5,34.5 c 0,0.5 -0.4,1 -1,1 h -7.4 c -0.5,0 -1,-0.4 -1,-1 v -9.4 c 0,-0.5 0.4,-1 1,-1 h 7.4 c 0.5,0 1,0.4 1,1 z"
         id="path6"
         inkscape:connector-curvature="0"
         style="fill:#000000" /></g></svg></svg>
