<?xml version="1.0" encoding="UTF-8"?>
<svg xmlns="http://www.w3.org/2000/svg" xmlns:xlink="http://www.w3.org/1999/xlink" width="30px" height="46px" viewBox="0 0 30 46" version="1.1">
<defs>
<clipPath id="clip1">
  <path d="M 8 6.921875 L 23 6.921875 L 23 22 L 8 22 Z M 8 6.921875 "/>
</clipPath>
</defs>
<g id="surface1">
<path style="fill-rule:nonzero;fill:rgb(100%,40.000001%,0%);fill-opacity:1;stroke-width:1;stroke-linecap:round;stroke-linejoin:miter;stroke:rgb(83.137256%,33.333334%,0%);stroke-opacity:1;stroke-miterlimit:4;" d="M 13.040625 0.638587 C 6.25625 0.638587 0.609375 6.287364 0.609375 12.418478 C 0.609375 15.17663 2.224219 18.678668 3.388802 21.097147 L 13 38.828125 L 22.560417 21.097147 C 23.725 18.678668 25.383854 15.353261 25.383854 12.418478 C 25.383854 6.290761 19.828385 0.638587 13.04401 0.638587 Z M 13.040625 2.099185 C 18.934635 2.136549 23.721615 6.756114 23.721615 12.428668 C 23.721615 18.108016 18.938021 22.659647 13.040625 22.700408 C 7.146615 22.663043 2.369792 18.11481 2.369792 12.428668 C 2.369792 6.752717 7.15 2.129755 13.040625 2.099185 Z M 13.040625 2.099185 " transform="matrix(1.153846,0,0,1.15,0,0)"/>
<path style="fill-rule:nonzero;fill:rgb(100%,100%,100%);fill-opacity:1;stroke-width:1.00275;stroke-linecap:butt;stroke-linejoin:miter;stroke:rgb(100%,100%,100%);stroke-opacity:1;stroke-miterlimit:4;" d="M 23.010677 12.374321 C 23.010677 17.703804 18.528385 22.02106 13.003385 22.02106 C 7.478385 22.02106 2.996094 17.703804 2.996094 12.374321 C 2.996094 7.048234 7.478385 2.727582 13.003385 2.727582 C 18.528385 2.727582 23.010677 7.048234 23.010677 12.374321 Z M 23.010677 12.374321 " transform="matrix(1.153846,0,0,1.15,0,0)"/>
<g clip-path="url(#clip1)" clip-rule="nonzero">
<path style=" stroke:none;fill-rule:nonzero;fill:rgb(0%,0%,0%);fill-opacity:1;" d="M 22.601562 19.851562 L 22.1875 19.851562 C 22.082031 19.851562 21.980469 19.765625 21.980469 19.644531 L 21.980469 10.308594 C 21.980469 10.207031 21.898438 10.105469 21.773438 10.105469 L 18.09375 10.105469 C 17.988281 10.105469 17.886719 10.019531 17.886719 9.898438 L 17.886719 9.339844 C 17.886719 8 16.832031 6.867188 15.507812 6.847656 C 14.144531 6.828125 13.046875 7.917969 13.046875 9.257812 L 13.046875 9.898438 C 13.046875 10 12.964844 10.105469 12.839844 10.105469 L 9.140625 10.105469 C 9.039062 10.105469 8.933594 10.1875 8.933594 10.308594 L 8.933594 19.664062 C 8.933594 19.765625 8.851562 19.871094 8.726562 19.871094 L 8.3125 19.871094 C 8.210938 19.871094 8.105469 19.953125 8.105469 20.078125 L 8.105469 21.230469 C 8.105469 21.332031 8.191406 21.4375 8.3125 21.4375 L 22.601562 21.4375 C 22.703125 21.4375 22.804688 21.355469 22.804688 21.230469 L 22.804688 20.078125 C 22.804688 19.933594 22.722656 19.851562 22.601562 19.851562 Z M 14.722656 9.445312 L 15.117188 9.445312 C 15.136719 9.445312 15.136719 9.445312 15.136719 9.464844 C 15.136719 9.589844 15.179688 9.691406 15.238281 9.734375 C 15.300781 9.792969 15.382812 9.816406 15.488281 9.816406 C 15.589844 9.816406 15.652344 9.792969 15.695312 9.734375 C 15.734375 9.691406 15.777344 9.609375 15.777344 9.527344 C 15.777344 9.445312 15.757812 9.382812 15.714844 9.320312 C 15.675781 9.257812 15.589844 9.21875 15.46875 9.175781 C 15.238281 9.09375 15.074219 8.992188 14.949219 8.910156 C 14.847656 8.804688 14.785156 8.660156 14.785156 8.476562 C 14.785156 8.3125 14.847656 8.167969 14.949219 8.042969 C 15.054688 7.941406 15.199219 7.878906 15.382812 7.859375 C 15.40625 7.859375 15.40625 7.835938 15.40625 7.835938 L 15.40625 7.570312 C 15.40625 7.546875 15.425781 7.546875 15.425781 7.546875 L 15.613281 7.546875 C 15.632812 7.546875 15.632812 7.570312 15.632812 7.570312 L 15.632812 7.859375 C 15.632812 7.878906 15.632812 7.878906 15.652344 7.878906 C 15.820312 7.898438 15.964844 7.980469 16.066406 8.105469 C 16.171875 8.226562 16.210938 8.371094 16.210938 8.558594 C 16.210938 8.578125 16.191406 8.597656 16.171875 8.597656 L 15.796875 8.597656 C 15.777344 8.597656 15.757812 8.578125 15.757812 8.558594 C 15.757812 8.457031 15.734375 8.371094 15.675781 8.3125 C 15.632812 8.25 15.550781 8.207031 15.46875 8.207031 C 15.382812 8.207031 15.324219 8.226562 15.261719 8.289062 C 15.21875 8.332031 15.199219 8.414062 15.199219 8.496094 C 15.199219 8.578125 15.21875 8.640625 15.261719 8.683594 C 15.300781 8.722656 15.382812 8.785156 15.507812 8.824219 C 15.734375 8.910156 15.902344 9.011719 16.027344 9.113281 C 16.128906 9.21875 16.191406 9.363281 16.191406 9.546875 C 16.191406 9.734375 16.128906 9.875 16.027344 9.980469 C 15.921875 10.082031 15.777344 10.144531 15.589844 10.164062 C 15.570312 10.164062 15.570312 10.1875 15.570312 10.1875 L 15.570312 10.453125 C 15.570312 10.472656 15.550781 10.472656 15.550781 10.472656 L 15.34375 10.472656 C 15.324219 10.472656 15.324219 10.453125 15.324219 10.453125 L 15.324219 10.1875 C 15.324219 10.164062 15.324219 10.164062 15.300781 10.164062 C 15.117188 10.144531 14.972656 10.082031 14.847656 9.960938 C 14.742188 9.855469 14.683594 9.710938 14.660156 9.527344 C 14.660156 9.507812 14.660156 9.484375 14.660156 9.464844 C 14.703125 9.445312 14.722656 9.445312 14.722656 9.445312 Z M 14.496094 11.875 C 14.496094 11.773438 14.578125 11.667969 14.703125 11.667969 L 16.230469 11.667969 C 16.335938 11.667969 16.4375 11.75 16.4375 11.875 L 16.4375 13.8125 C 16.4375 13.914062 16.355469 14.019531 16.230469 14.019531 L 14.703125 14.019531 C 14.597656 14.019531 14.496094 13.9375 14.496094 13.8125 Z M 12.140625 13.8125 C 12.140625 13.914062 12.054688 14.019531 11.933594 14.019531 L 10.402344 14.019531 C 10.300781 14.019531 10.195312 13.9375 10.195312 13.8125 L 10.195312 11.875 C 10.195312 11.773438 10.277344 11.667969 10.402344 11.667969 L 11.933594 11.667969 C 12.035156 11.667969 12.140625 11.75 12.140625 11.875 Z M 18.113281 19.644531 C 18.113281 19.746094 18.03125 19.851562 17.90625 19.851562 L 13.027344 19.851562 C 12.925781 19.851562 12.820312 19.765625 12.820312 19.644531 L 12.820312 15.957031 C 12.820312 15.851562 12.902344 15.75 13.027344 15.75 L 17.90625 15.75 C 18.011719 15.75 18.113281 15.832031 18.113281 15.957031 Z M 20.738281 13.8125 C 20.738281 13.914062 20.65625 14.019531 20.53125 14.019531 L 19.003906 14.019531 C 18.898438 14.019531 18.796875 13.9375 18.796875 13.8125 L 18.796875 11.875 C 18.796875 11.773438 18.878906 11.667969 19.003906 11.667969 L 20.53125 11.667969 C 20.636719 11.667969 20.738281 11.75 20.738281 11.875 Z M 20.738281 13.8125 "/>
</g>
</g>
</svg>
