<?xml version="1.0" encoding="UTF-8"?>
<svg xmlns="http://www.w3.org/2000/svg" xmlns:xlink="http://www.w3.org/1999/xlink" width="30px" height="46px" viewBox="0 0 30 46" version="1.1">
<defs>
<clipPath id="clip1">
  <path d="M 7.550781 6.921875 L 22.445312 6.921875 L 22.445312 21.769531 L 7.550781 21.769531 Z M 7.550781 6.921875 "/>
</clipPath>
</defs>
<g id="surface1">
<path style="fill-rule:nonzero;fill:rgb(100%,40.000001%,0%);fill-opacity:1;stroke-width:1;stroke-linecap:round;stroke-linejoin:miter;stroke:rgb(83.137256%,33.333334%,0%);stroke-opacity:1;stroke-miterlimit:4;" d="M 13.040625 0.638587 C 6.25625 0.638587 0.609375 6.287364 0.609375 12.418478 C 0.609375 15.17663 2.224219 18.678668 3.388802 21.097147 L 13 38.828125 L 22.560417 21.097147 C 23.725 18.678668 25.383854 15.353261 25.383854 12.418478 C 25.383854 6.290761 19.828385 0.638587 13.04401 0.638587 Z M 13.040625 2.099185 C 18.934635 2.136549 23.721615 6.756114 23.721615 12.428668 C 23.721615 18.108016 18.938021 22.659647 13.040625 22.700408 C 7.146615 22.663043 2.369792 18.11481 2.369792 12.428668 C 2.369792 6.752717 7.15 2.129755 13.040625 2.099185 Z M 13.040625 2.099185 " transform="matrix(1.153846,0,0,1.15,0,0)"/>
<path style="fill-rule:nonzero;fill:rgb(100%,100%,100%);fill-opacity:1;stroke-width:1.00275;stroke-linecap:butt;stroke-linejoin:miter;stroke:rgb(100%,100%,100%);stroke-opacity:1;stroke-miterlimit:4;" d="M 23.010677 12.374321 C 23.010677 17.703804 18.528385 22.02106 13.003385 22.02106 C 7.478385 22.02106 2.996094 17.703804 2.996094 12.374321 C 2.996094 7.048234 7.478385 2.727582 13.003385 2.727582 C 18.528385 2.727582 23.010677 7.048234 23.010677 12.374321 Z M 23.010677 12.374321 " transform="matrix(1.153846,0,0,1.15,0,0)"/>
<g clip-path="url(#clip1)" clip-rule="nonzero">
<path style=" stroke:none;fill-rule:nonzero;fill:rgb(0%,0%,0%);fill-opacity:1;" d="M 20.300781 12.34375 L 18.582031 12.34375 L 18.582031 10.476562 C 18.65625 10.347656 18.707031 10.207031 18.734375 10.058594 C 18.734375 10.054688 18.738281 10.050781 18.738281 10.046875 C 18.746094 9.996094 18.753906 9.945312 18.757812 9.894531 C 18.757812 9.867188 18.761719 9.84375 18.761719 9.816406 C 18.761719 8.957031 17.929688 8.257812 16.902344 8.257812 C 16.445312 8.257812 16.023438 8.398438 15.703125 8.628906 C 15.550781 8.582031 15.386719 8.554688 15.21875 8.554688 C 14.949219 8.554688 14.699219 8.621094 14.484375 8.730469 C 14.140625 8.527344 13.722656 8.40625 13.269531 8.40625 C 12.808594 8.40625 12.378906 8.535156 12.03125 8.746094 C 12.007812 7.734375 11.027344 6.921875 9.816406 6.921875 C 8.59375 6.921875 7.605469 7.753906 7.605469 8.777344 C 7.605469 9.539062 8.152344 10.191406 8.933594 10.476562 L 8.933594 20.210938 C 8.933594 21.070312 9.765625 21.769531 10.792969 21.769531 L 16.722656 21.769531 C 17.75 21.769531 18.582031 21.070312 18.582031 20.210938 L 18.582031 19.46875 L 20.300781 19.46875 C 20.742188 19.46875 21.554688 19.292969 22.027344 18.105469 C 22.261719 17.515625 22.390625 16.734375 22.390625 15.90625 C 22.390625 14.183594 21.839844 12.34375 20.300781 12.34375 Z M 11.324219 19.394531 L 10.613281 19.394531 L 10.613281 12.269531 L 11.324219 12.269531 Z M 13.09375 19.394531 L 12.386719 19.394531 L 12.386719 12.269531 L 13.09375 12.269531 Z M 14.863281 19.394531 L 14.15625 19.394531 L 14.15625 12.269531 L 14.863281 12.269531 Z M 16.636719 19.394531 L 15.925781 19.394531 L 15.925781 12.269531 L 16.636719 12.269531 Z M 18.046875 9.890625 C 18.015625 10.398438 17.515625 10.800781 16.902344 10.800781 C 16.636719 10.800781 16.394531 10.726562 16.199219 10.601562 C 16.003906 10.472656 15.859375 10.296875 15.792969 10.089844 C 15.695312 10.203125 15.554688 10.285156 15.386719 10.320312 C 15.332031 10.332031 15.277344 10.335938 15.21875 10.335938 C 15.003906 10.335938 14.8125 10.257812 14.683594 10.128906 C 14.683594 10.148438 14.6875 10.167969 14.6875 10.1875 C 14.6875 10.398438 14.621094 10.597656 14.507812 10.769531 C 14.265625 11.132812 13.800781 11.378906 13.269531 11.378906 C 12.84375 11.378906 12.464844 11.21875 12.203125 10.96875 C 12.039062 10.8125 11.925781 10.617188 11.878906 10.40625 C 11.75 10.542969 11.550781 10.636719 11.324219 10.636719 C 11.285156 10.636719 11.25 10.628906 11.210938 10.625 C 11.050781 10.605469 10.90625 10.535156 10.800781 10.441406 C 10.6875 10.335938 10.613281 10.195312 10.613281 10.039062 C 10.613281 9.988281 10.625 9.941406 10.640625 9.890625 C 10.648438 9.867188 10.65625 9.84375 10.667969 9.820312 C 10.621094 9.847656 10.570312 9.871094 10.523438 9.890625 C 10.335938 9.976562 10.128906 10.027344 9.90625 10.039062 C 9.878906 10.039062 9.847656 10.039062 9.816406 10.039062 C 9.597656 10.039062 9.386719 10 9.199219 9.929688 C 8.675781 9.730469 8.3125 9.289062 8.3125 8.777344 C 8.3125 8.082031 8.988281 7.515625 9.816406 7.515625 C 10.648438 7.515625 11.324219 8.082031 11.324219 8.777344 C 11.324219 8.804688 11.320312 8.828125 11.320312 8.851562 C 11.300781 9.089844 11.210938 9.308594 11.0625 9.492188 C 11.140625 9.464844 11.230469 9.445312 11.324219 9.445312 C 11.328125 9.445312 11.335938 9.449219 11.339844 9.449219 C 11.515625 9.453125 11.675781 9.511719 11.796875 9.605469 C 11.859375 9.648438 11.910156 9.707031 11.949219 9.765625 C 12.039062 9.566406 12.191406 9.390625 12.390625 9.261719 C 12.632812 9.097656 12.9375 9 13.269531 9 C 13.53125 9 13.773438 9.0625 13.984375 9.164062 C 14.210938 9.277344 14.398438 9.4375 14.523438 9.636719 C 14.574219 9.414062 14.765625 9.238281 15.019531 9.175781 C 15.082031 9.160156 15.148438 9.148438 15.21875 9.148438 C 15.21875 9.148438 15.222656 9.152344 15.222656 9.152344 C 15.492188 9.152344 15.71875 9.277344 15.839844 9.464844 C 15.9375 9.269531 16.109375 9.109375 16.324219 9.003906 C 16.496094 8.917969 16.691406 8.871094 16.902344 8.871094 C 17.535156 8.871094 18.050781 9.304688 18.050781 9.835938 C 18.050781 9.855469 18.050781 9.875 18.046875 9.890625 Z M 20.246094 18.132812 L 18.582031 18.132812 L 18.582031 13.679688 L 20.246094 13.679688 C 20.445312 13.835938 20.796875 14.617188 20.796875 15.90625 C 20.796875 17.195312 20.445312 17.976562 20.246094 18.132812 Z M 20.246094 18.132812 "/>
</g>
</g>
</svg>
