<?xml version="1.0" encoding="UTF-8"?>
<svg xmlns="http://www.w3.org/2000/svg" xmlns:xlink="http://www.w3.org/1999/xlink" width="30px" height="46px" viewBox="0 0 30 46" version="1.1">
<defs>
<clipPath id="clip1">
  <path d="M 7.550781 9 L 23 9 L 23 19 L 7.550781 19 Z M 7.550781 9 "/>
</clipPath>
</defs>
<g id="surface1">
<path style="fill-rule:nonzero;fill:rgb(100%,40.000001%,0%);fill-opacity:1;stroke-width:1;stroke-linecap:round;stroke-linejoin:miter;stroke:rgb(83.137256%,33.333334%,0%);stroke-opacity:1;stroke-miterlimit:4;" d="M 13.040625 0.638587 C 6.25625 0.638587 0.609375 6.287364 0.609375 12.418478 C 0.609375 15.17663 2.224219 18.678668 3.388802 21.097147 L 13 38.828125 L 22.560417 21.097147 C 23.725 18.678668 25.383854 15.353261 25.383854 12.418478 C 25.383854 6.290761 19.828385 0.638587 13.04401 0.638587 Z M 13.040625 2.099185 C 18.934635 2.136549 23.721615 6.756114 23.721615 12.428668 C 23.721615 18.108016 18.938021 22.659647 13.040625 22.700408 C 7.146615 22.663043 2.369792 18.11481 2.369792 12.428668 C 2.369792 6.752717 7.15 2.129755 13.040625 2.099185 Z M 13.040625 2.099185 " transform="matrix(1.153846,0,0,1.15,0,0)"/>
<path style="fill-rule:nonzero;fill:rgb(100%,100%,100%);fill-opacity:1;stroke-width:1.00275;stroke-linecap:butt;stroke-linejoin:miter;stroke:rgb(100%,100%,100%);stroke-opacity:1;stroke-miterlimit:4;" d="M 23.010677 12.374321 C 23.010677 17.703804 18.528385 22.02106 13.003385 22.02106 C 7.478385 22.02106 2.996094 17.703804 2.996094 12.374321 C 2.996094 7.048234 7.478385 2.727582 13.003385 2.727582 C 18.528385 2.727582 23.010677 7.048234 23.010677 12.374321 Z M 23.010677 12.374321 " transform="matrix(1.153846,0,0,1.15,0,0)"/>
<g clip-path="url(#clip1)" clip-rule="nonzero">
<path style=" stroke:none;fill-rule:nonzero;fill:rgb(0%,0%,0%);fill-opacity:1;" d="M 19.671875 11.976562 C 19.214844 11.976562 18.777344 12.078125 18.382812 12.257812 L 17.6875 11.054688 C 17.6875 11.050781 17.6875 11.050781 17.683594 11.050781 L 16.988281 9.84375 L 18.269531 9.84375 C 18.425781 9.84375 18.554688 9.972656 18.554688 10.128906 C 18.554688 10.289062 18.425781 10.417969 18.269531 10.417969 C 18.097656 10.417969 17.960938 10.554688 17.960938 10.726562 C 17.960938 10.894531 18.097656 11.03125 18.269531 11.03125 C 18.765625 11.03125 19.171875 10.628906 19.171875 10.128906 C 19.171875 9.652344 18.800781 9.265625 18.332031 9.234375 C 18.3125 9.230469 18.289062 9.226562 18.269531 9.226562 L 16.476562 9.226562 C 16.308594 9.226562 16.171875 9.367188 16.171875 9.535156 C 16.171875 9.539062 16.171875 9.546875 16.171875 9.550781 C 16.167969 9.613281 16.179688 9.675781 16.210938 9.730469 L 16.882812 10.890625 L 13.3125 10.890625 L 12.703125 9.835938 L 13.0625 9.835938 C 13.230469 9.835938 13.371094 9.699219 13.371094 9.53125 C 13.371094 9.359375 13.230469 9.222656 13.0625 9.222656 L 11.273438 9.222656 C 11.105469 9.222656 10.96875 9.359375 10.96875 9.53125 C 10.96875 9.699219 11.105469 9.835938 11.273438 9.835938 L 11.992188 9.835938 L 12.777344 11.199219 L 12.164062 12.257812 C 11.773438 12.078125 11.335938 11.976562 10.875 11.976562 C 9.148438 11.976562 7.746094 13.378906 7.746094 15.101562 C 7.746094 16.824219 9.148438 18.226562 10.875 18.226562 C 12.496094 18.226562 13.835938 16.988281 13.992188 15.410156 L 15.390625 15.410156 C 15.417969 15.410156 15.441406 15.40625 15.460938 15.402344 C 15.464844 15.398438 15.46875 15.398438 15.472656 15.398438 C 15.476562 15.398438 15.480469 15.394531 15.484375 15.394531 C 15.5 15.390625 15.515625 15.382812 15.535156 15.375 C 15.535156 15.371094 15.539062 15.371094 15.542969 15.367188 C 15.546875 15.367188 15.546875 15.367188 15.546875 15.367188 C 15.546875 15.367188 15.550781 15.363281 15.554688 15.363281 C 15.5625 15.355469 15.570312 15.351562 15.578125 15.34375 C 15.585938 15.335938 15.59375 15.332031 15.601562 15.324219 C 15.605469 15.324219 15.609375 15.320312 15.609375 15.316406 C 15.613281 15.3125 15.617188 15.308594 15.621094 15.304688 C 15.628906 15.296875 15.632812 15.289062 15.640625 15.28125 C 15.644531 15.273438 15.652344 15.265625 15.65625 15.257812 C 15.65625 15.253906 15.65625 15.253906 15.65625 15.253906 C 15.660156 15.25 15.660156 15.246094 15.664062 15.246094 L 17.429688 11.839844 L 17.851562 12.566406 C 17.058594 13.132812 16.542969 14.058594 16.542969 15.101562 C 16.542969 16.824219 17.945312 18.226562 19.671875 18.226562 C 21.398438 18.226562 22.804688 16.824219 22.804688 15.101562 C 22.804688 13.378906 21.398438 11.976562 19.671875 11.976562 Z M 10.875 17.613281 C 9.488281 17.613281 8.359375 16.488281 8.359375 15.101562 C 8.359375 13.71875 9.488281 12.59375 10.875 12.59375 C 11.222656 12.59375 11.554688 12.664062 11.855469 12.792969 L 10.609375 14.949219 C 10.554688 15.042969 10.554688 15.160156 10.609375 15.257812 C 10.664062 15.351562 10.765625 15.410156 10.875 15.410156 L 13.371094 15.410156 C 13.21875 16.648438 12.15625 17.613281 10.875 17.613281 Z M 11.410156 14.796875 L 12.386719 13.101562 C 12.917969 13.503906 13.285156 14.105469 13.371094 14.796875 Z M 13.992188 14.796875 C 13.902344 13.878906 13.410156 13.078125 12.699219 12.566406 L 13.132812 11.8125 L 14.859375 14.796875 Z M 15.375 14.460938 L 13.667969 11.507812 L 16.910156 11.507812 Z M 19.671875 17.613281 C 18.285156 17.613281 17.160156 16.488281 17.160156 15.101562 C 17.160156 14.285156 17.554688 13.5625 18.160156 13.101562 L 19.40625 15.257812 C 19.464844 15.355469 19.566406 15.410156 19.675781 15.410156 C 19.726562 15.410156 19.777344 15.398438 19.828125 15.367188 C 19.976562 15.285156 20.023438 15.097656 19.941406 14.949219 L 18.691406 12.792969 C 18.996094 12.664062 19.324219 12.59375 19.675781 12.59375 C 21.0625 12.59375 22.1875 13.71875 22.1875 15.101562 C 22.1875 16.488281 21.058594 17.613281 19.671875 17.613281 Z M 19.671875 17.613281 "/>
</g>
</g>
</svg>
