<?xml version="1.0" encoding="UTF-8"?>
<svg xmlns="http://www.w3.org/2000/svg" xmlns:xlink="http://www.w3.org/1999/xlink" width="30px" height="46px" viewBox="0 0 30 46" version="1.1">
<defs>
<clipPath id="clip1">
  <path d="M 7.550781 7 L 12 7 L 12 11 L 7.550781 11 Z M 7.550781 7 "/>
</clipPath>
<clipPath id="clip2">
  <path d="M 7.550781 11 L 12 11 L 12 19 L 7.550781 19 Z M 7.550781 11 "/>
</clipPath>
<clipPath id="clip3">
  <path d="M 7.550781 19 L 12 19 L 12 21.769531 L 7.550781 21.769531 Z M 7.550781 19 "/>
</clipPath>
<clipPath id="clip4">
  <path d="M 12 10 L 17 10 L 17 21.769531 L 12 21.769531 Z M 12 10 "/>
</clipPath>
<clipPath id="clip5">
  <path d="M 17 6.921875 L 19 6.921875 L 19 21.769531 L 17 21.769531 Z M 17 6.921875 "/>
</clipPath>
<clipPath id="clip6">
  <path d="M 19 8 L 22.445312 8 L 22.445312 21.769531 L 19 21.769531 Z M 19 8 "/>
</clipPath>
</defs>
<g id="surface1">
<path style="fill-rule:nonzero;fill:rgb(100%,40.000001%,0%);fill-opacity:1;stroke-width:1;stroke-linecap:round;stroke-linejoin:miter;stroke:rgb(83.137256%,33.333334%,0%);stroke-opacity:1;stroke-miterlimit:4;" d="M 13.040625 0.638587 C 6.25625 0.638587 0.609375 6.287364 0.609375 12.418478 C 0.609375 15.17663 2.224219 18.678668 3.388802 21.097147 L 13 38.828125 L 22.560417 21.097147 C 23.725 18.678668 25.383854 15.353261 25.383854 12.418478 C 25.383854 6.290761 19.828385 0.638587 13.04401 0.638587 Z M 13.040625 2.099185 C 18.934635 2.136549 23.721615 6.756114 23.721615 12.428668 C 23.721615 18.108016 18.938021 22.659647 13.040625 22.700408 C 7.146615 22.663043 2.369792 18.11481 2.369792 12.428668 C 2.369792 6.752717 7.15 2.129755 13.040625 2.099185 Z M 13.040625 2.099185 " transform="matrix(1.153846,0,0,1.15,0,0)"/>
<path style="fill-rule:nonzero;fill:rgb(100%,100%,100%);fill-opacity:1;stroke-width:1.00275;stroke-linecap:butt;stroke-linejoin:miter;stroke:rgb(100%,100%,100%);stroke-opacity:1;stroke-miterlimit:4;" d="M 23.010677 12.374321 C 23.010677 17.703804 18.528385 22.02106 13.003385 22.02106 C 7.478385 22.02106 2.996094 17.703804 2.996094 12.374321 C 2.996094 7.048234 7.478385 2.727582 13.003385 2.727582 C 18.528385 2.727582 23.010677 7.048234 23.010677 12.374321 Z M 23.010677 12.374321 " transform="matrix(1.153846,0,0,1.15,0,0)"/>
<g clip-path="url(#clip1)" clip-rule="nonzero">
<path style=" stroke:none;fill-rule:evenodd;fill:rgb(0%,0%,0%);fill-opacity:1;" d="M 7.753906 7.8125 L 11.601562 7.8125 L 11.601562 10.335938 L 7.753906 10.335938 Z M 7.753906 7.8125 "/>
</g>
<g clip-path="url(#clip2)" clip-rule="nonzero">
<path style=" stroke:none;fill-rule:evenodd;fill:rgb(0%,0%,0%);fill-opacity:1;" d="M 7.753906 11.300781 L 11.601562 11.300781 L 11.601562 18.242188 L 7.753906 18.242188 Z M 7.753906 11.300781 "/>
</g>
<g clip-path="url(#clip3)" clip-rule="nonzero">
<path style=" stroke:none;fill-rule:evenodd;fill:rgb(0%,0%,0%);fill-opacity:1;" d="M 7.753906 19.28125 L 11.601562 19.28125 L 11.601562 21.769531 L 7.753906 21.769531 Z M 7.753906 19.28125 "/>
</g>
<g clip-path="url(#clip4)" clip-rule="nonzero">
<path style=" stroke:none;fill-rule:evenodd;fill:rgb(0%,0%,0%);fill-opacity:1;" d="M 12.65625 10.335938 L 12.65625 21.769531 L 16.503906 21.769531 L 16.503906 10.335938 Z M 15.558594 13.34375 L 13.601562 13.34375 L 13.601562 11.300781 L 15.558594 11.300781 Z M 15.558594 13.34375 "/>
</g>
<g clip-path="url(#clip5)" clip-rule="nonzero">
<path style=" stroke:none;fill-rule:evenodd;fill:rgb(0%,0%,0%);fill-opacity:1;" d="M 17.449219 6.921875 L 18.902344 6.921875 L 18.902344 21.769531 L 17.449219 21.769531 Z M 17.449219 6.921875 "/>
</g>
<g clip-path="url(#clip6)" clip-rule="nonzero">
<path style=" stroke:none;fill-rule:evenodd;fill:rgb(0%,0%,0%);fill-opacity:1;" d="M 19.882812 8.816406 L 22.242188 8.816406 L 22.242188 21.769531 L 19.882812 21.769531 Z M 19.882812 8.816406 "/>
</g>
</g>
</svg>
