<?xml version="1.0" encoding="UTF-8" standalone="no"?>
<svg
   xmlns:dc="http://purl.org/dc/elements/1.1/"
   xmlns:cc="http://creativecommons.org/ns#"
   xmlns:rdf="http://www.w3.org/1999/02/22-rdf-syntax-ns#"
   xmlns:svg="http://www.w3.org/2000/svg"
   xmlns="http://www.w3.org/2000/svg"
   xmlns:sodipodi="http://sodipodi.sourceforge.net/DTD/sodipodi-0.dtd"
   xmlns:inkscape="http://www.inkscape.org/namespaces/inkscape"
   height="44px"
   width="30px"
   version="1.1"
   viewBox="0 0 29.988946 43.988056"
   id="svg16"
   sodipodi:docname="Bureau de Change.svg"
   inkscape:version="0.92.5 (2060ec1f9f, 2020-04-08)">
  <metadata
     id="metadata20">
    <rdf:RDF>
      <cc:Work
         rdf:about="">
        <dc:format>image/svg+xml</dc:format>
        <dc:type
           rdf:resource="http://purl.org/dc/dcmitype/StillImage" />
        <dc:title />
      </cc:Work>
    </rdf:RDF>
  </metadata>
  <sodipodi:namedview
     pagecolor="#ffffff"
     bordercolor="#666666"
     borderopacity="1"
     objecttolerance="10"
     gridtolerance="10"
     guidetolerance="10"
     inkscape:pageopacity="0"
     inkscape:pageshadow="2"
     inkscape:window-width="1680"
     inkscape:window-height="974"
     id="namedview18"
     showgrid="false"
     inkscape:zoom="11.505648"
     inkscape:cx="18.383688"
     inkscape:cy="42.937347"
     inkscape:window-x="0"
     inkscape:window-y="0"
     inkscape:window-maximized="1"
     inkscape:current-layer="svg8" />
  <defs
     id="defs7">
    <radialGradient
       id="a"
       gradientUnits="userSpaceOnUse"
       cy="127.6"
       cx="-42.75"
       gradientTransform="matrix(4.2749643,0,0,0.98162997,197.99835,-83.706911)"
       r="2.3840001">
      <stop
         stop-color="#010101"
         offset="0"
         id="stop2" />
      <stop
         stop-opacity="0"
         stop-color="#090909"
         offset="1"
         id="stop4" />
    </radialGradient>
  </defs>
  <path
     d="m 14.994475,0.0864983 c -8.2386816,0 -14.91684362,6.6781619 -14.91684362,14.9168417 0.008545,2.561815 0.67294669,5.079165 1.93504232,7.306643 L 15.595595,40.920764 27.955752,22.365563 C 29.233667,20.121838 29.907468,17.585676 29.911315,15.00334 29.911273,6.7646602 23.233154,0.0864983 14.994475,0.0864983 Z"
     id="path9"
     inkscape:connector-curvature="0"
     style="fill:#db4e35;stroke-width:4.27539158" />
  <circle
     cy="15.050359"
     cx="14.994473"
     r="9.4272394"
     id="circle11"
     style="fill:#f9f3f3;stroke-width:4.27539158" />
  <ellipse
     rx="10.192533"
     ry="2.3394945"
     cy="41.562065"
     cx="14.994473"
     id="ellipse13"
     style="opacity:0.4;fill:url(#a);stroke-width:4.27496433" />
  <rect
     id="replace"
     rx="0"
     ry="0"
     height="13.36915"
     width="13.471761"
     y="8.2097387"
     x="8.2585926"
     style="fill:none;stroke-width:4.27539158" />
  <svg
     inkscape:version="0.92.5 (2060ec1f9f, 2020-04-08)"
     height="100"
     width="100"
     sodipodi:docname="Bureau de Change.svg"
     id="svg8"
     y="10"
     x="8.5"
     viewBox="0 0 100 100"
     data-container-transform="translate(3)"
     data-icon="dollar"
     version="1.1">
    <metadata
       id="metadata14">
      <rdf:RDF>
        <cc:Work
           rdf:about="">
          <dc:format>image/svg+xml</dc:format>
          <dc:type
             rdf:resource="http://purl.org/dc/dcmitype/StillImage" />
          <dc:title />
        </cc:Work>
      </rdf:RDF>
    </metadata>
    <defs
       id="defs12" />
    <sodipodi:namedview
       inkscape:current-layer="svg8"
       inkscape:window-maximized="1"
       inkscape:window-y="0"
       inkscape:window-x="0"
       inkscape:cy="-18.270721"
       inkscape:cx="-44.934529"
       inkscape:zoom="2.085965"
       showgrid="false"
       id="namedview10"
       inkscape:window-height="884"
       inkscape:window-width="1680"
       inkscape:pageshadow="2"
       inkscape:pageopacity="0"
       guidetolerance="10"
       gridtolerance="10"
       objecttolerance="10"
       borderopacity="1"
       bordercolor="#666666"
       pagecolor="#ffffff" />
    <path
       style="stroke-width:0.66910481"
       inkscape:connector-curvature="0"
       id="path2"
       d="M 6.1599206,-0.16886928 V 1.1900826 C 5.0558974,1.2536477 4.3225587,1.6163022 3.9224341,2.130844 3.4821632,2.6969067 3.4835014,3.3439308 3.4835014,3.5112072 c 0,0.8082786 0.5145414,1.4633321 1.0872951,1.7771423 0.5132034,0.2810241 1.0591932,0.3914265 1.5891241,0.5018286 V 7.8396464 C 5.6279821,7.7995 5.3034663,7.6750464 5.1355209,7.5258362 4.9341204,7.3465159 4.8217108,7.0795433 4.8217108,6.522179 H 3.4835014 c 0,0.7808454 0.2228118,1.5175296 0.7734852,2.0073139 0.4824245,0.428897 1.129449,0.606879 1.902934,0.648363 V 10.536808 H 6.8290253 V 9.1778559 C 7.9330482,9.1142859 8.6663871,8.7516359 9.0665119,8.2370949 9.5067836,7.6710317 9.5054446,7.0240076 9.5054446,6.8567312 9.5054446,6.0484526 8.9909029,5.393399 8.4181493,5.0795888 7.9049457,4.7985648 7.3589564,4.6881627 6.8290253,4.5777602 V 2.5282924 C 7.3609635,2.5684384 7.6854794,2.692892 7.8534248,2.8421022 8.0548253,3.0214225 8.167235,3.2883954 8.167235,3.8457597 h 1.3382096 c 0,-0.7808454 -0.222812,-1.5175296 -0.7734852,-2.0073146 C 8.2495349,1.4095489 7.6025105,1.2315671 6.8290253,1.1900826 v -1.35895188 z m 0,2.69716168 V 4.4104842 C 5.7698325,4.3127949 5.415207,4.2157746 5.1977479,4.096674 4.8926361,3.9293976 4.8210418,3.8738619 4.8210418,3.5112072 c 0,-0.1672764 0.00133,-0.3566327 0.1465341,-0.5439822 0.1264607,-0.1625923 0.434249,-0.3827279 1.1916754,-0.4389326 z m 0.6691047,3.4291622 c 0.3900882,0.097689 0.7447137,0.1947093 0.9621729,0.3138098 0.3051117,0.1672764 0.3767057,0.2228121 0.3767057,0.5854668 0,0.1672764 -0.00133,0.356633 -0.1465338,0.5439825 C 7.8949093,7.5633061 7.5871212,7.7834414 6.8296942,7.8396464 V 5.9574546 Z" />
  </svg>
</svg>
