<?xml version="1.0" encoding="UTF-8"?>
<svg xmlns="http://www.w3.org/2000/svg" xmlns:xlink="http://www.w3.org/1999/xlink" width="30px" height="46px" viewBox="0 0 30 46" version="1.1">
<defs>
<clipPath id="clip1">
  <path d="M 15 10 L 22.445312 10 L 22.445312 18 L 15 18 Z M 15 10 "/>
</clipPath>
<clipPath id="clip2">
  <path d="M 7.550781 10 L 15 10 L 15 18 L 7.550781 18 Z M 7.550781 10 "/>
</clipPath>
</defs>
<g id="surface1">
<path style="fill-rule:nonzero;fill:rgb(100%,40.000001%,0%);fill-opacity:1;stroke-width:1;stroke-linecap:round;stroke-linejoin:miter;stroke:rgb(83.137256%,33.333334%,0%);stroke-opacity:1;stroke-miterlimit:4;" d="M 13.040625 0.638587 C 6.25625 0.638587 0.609375 6.287364 0.609375 12.418478 C 0.609375 15.17663 2.224219 18.678668 3.388802 21.097147 L 13 38.828125 L 22.560417 21.097147 C 23.725 18.678668 25.383854 15.353261 25.383854 12.418478 C 25.383854 6.290761 19.828385 0.638587 13.04401 0.638587 Z M 13.040625 2.099185 C 18.934635 2.136549 23.721615 6.756114 23.721615 12.428668 C 23.721615 18.108016 18.938021 22.659647 13.040625 22.700408 C 7.146615 22.663043 2.369792 18.11481 2.369792 12.428668 C 2.369792 6.752717 7.15 2.129755 13.040625 2.099185 Z M 13.040625 2.099185 " transform="matrix(1.153846,0,0,1.15,0,0)"/>
<path style="fill-rule:nonzero;fill:rgb(100%,100%,100%);fill-opacity:1;stroke-width:1.00275;stroke-linecap:butt;stroke-linejoin:miter;stroke:rgb(100%,100%,100%);stroke-opacity:1;stroke-miterlimit:4;" d="M 23.010677 12.374321 C 23.010677 17.703804 18.528385 22.02106 13.003385 22.02106 C 7.478385 22.02106 2.996094 17.703804 2.996094 12.374321 C 2.996094 7.048234 7.478385 2.727582 13.003385 2.727582 C 18.528385 2.727582 23.010677 7.048234 23.010677 12.374321 Z M 23.010677 12.374321 " transform="matrix(1.153846,0,0,1.15,0,0)"/>
<path style=" stroke:none;fill-rule:evenodd;fill:rgb(0%,0%,0%);fill-opacity:1;" d="M 11.222656 14.6875 C 10.625 14.6875 10.132812 14.195312 10.132812 13.597656 C 10.132812 13.003906 10.625 12.511719 11.222656 12.511719 C 11.820312 12.511719 12.3125 13.003906 12.3125 13.597656 C 12.3125 13.753906 12.195312 13.871094 12.039062 13.871094 C 11.886719 13.871094 11.765625 13.753906 11.765625 13.597656 C 11.765625 13.3125 11.527344 13.054688 11.222656 13.054688 C 10.914062 13.054688 10.675781 13.292969 10.675781 13.597656 C 10.675781 13.886719 10.914062 14.144531 11.222656 14.144531 C 11.375 14.144531 11.496094 14.261719 11.496094 14.414062 C 11.496094 14.566406 11.375 14.6875 11.222656 14.6875 Z M 11.222656 14.6875 "/>
<path style=" stroke:none;fill-rule:evenodd;fill:rgb(0%,0%,0%);fill-opacity:1;" d="M 11.222656 16.316406 C 10.625 16.316406 10.132812 15.824219 10.132812 15.230469 C 10.132812 15.078125 10.25 14.957031 10.40625 14.957031 C 10.558594 14.957031 10.675781 15.078125 10.675781 15.230469 C 10.675781 15.519531 10.914062 15.773438 11.222656 15.773438 C 11.527344 15.773438 11.765625 15.535156 11.765625 15.230469 C 11.765625 14.941406 11.527344 14.6875 11.222656 14.6875 C 11.070312 14.6875 10.949219 14.566406 10.949219 14.414062 C 10.949219 14.261719 11.070312 14.144531 11.222656 14.144531 C 11.820312 14.144531 12.3125 14.636719 12.3125 15.230469 C 12.3125 15.824219 11.820312 16.316406 11.222656 16.316406 Z M 11.222656 16.316406 "/>
<path style=" stroke:none;fill-rule:evenodd;fill:rgb(0%,0%,0%);fill-opacity:1;" d="M 11.1875 16.84375 C 11.035156 16.84375 10.914062 16.722656 10.914062 16.570312 L 10.914062 12.140625 C 10.914062 11.984375 11.035156 11.867188 11.1875 11.867188 C 11.339844 11.867188 11.460938 11.984375 11.460938 12.140625 L 11.460938 16.570312 C 11.460938 16.707031 11.339844 16.84375 11.1875 16.84375 Z M 11.1875 16.84375 "/>
<g clip-path="url(#clip1)" clip-rule="nonzero">
<path style=" stroke:none;fill-rule:evenodd;fill:rgb(0%,0%,0%);fill-opacity:1;" d="M 18.753906 17.878906 C 16.808594 17.878906 15.226562 16.28125 15.226562 14.3125 C 15.226562 12.34375 16.808594 10.746094 18.753906 10.746094 C 20.695312 10.746094 22.277344 12.34375 22.277344 14.3125 C 22.277344 16.28125 20.710938 17.878906 18.753906 17.878906 Z M 18.753906 11.289062 C 17.101562 11.289062 15.769531 12.648438 15.769531 14.3125 C 15.769531 15.976562 17.117188 17.335938 18.753906 17.335938 C 20.40625 17.335938 21.734375 15.976562 21.734375 14.3125 C 21.734375 12.648438 20.40625 11.289062 18.753906 11.289062 Z M 18.753906 11.289062 "/>
</g>
<path style=" stroke:none;fill-rule:evenodd;fill:rgb(0%,0%,0%);fill-opacity:1;" d="M 19.246094 16.0625 C 18.292969 16.0625 17.507812 15.28125 17.507812 14.3125 C 17.507812 13.34375 18.292969 12.5625 19.246094 12.5625 C 19.398438 12.5625 19.519531 12.683594 19.519531 12.835938 C 19.519531 12.988281 19.398438 13.105469 19.246094 13.105469 C 18.597656 13.105469 18.070312 13.648438 18.070312 14.3125 C 18.070312 14.976562 18.597656 15.519531 19.246094 15.519531 C 19.398438 15.519531 19.519531 15.636719 19.519531 15.789062 C 19.519531 15.941406 19.382812 16.0625 19.246094 16.0625 Z M 19.246094 16.0625 "/>
<path style=" stroke:none;fill-rule:evenodd;fill:rgb(0%,0%,0%);fill-opacity:1;" d="M 19.074219 14.652344 L 13.386719 14.652344 C 13.234375 14.652344 13.113281 14.53125 13.113281 14.378906 C 13.113281 14.226562 13.234375 14.109375 13.386719 14.109375 L 19.074219 14.109375 C 19.230469 14.109375 19.347656 14.226562 19.347656 14.378906 C 19.347656 14.53125 19.230469 14.652344 19.074219 14.652344 Z M 19.074219 14.652344 "/>
<path style=" stroke:none;fill-rule:evenodd;fill:rgb(0%,0%,0%);fill-opacity:1;" d="M 14.1875 15.585938 C 14.117188 15.585938 14.050781 15.570312 14 15.519531 L 12.976562 14.585938 C 12.925781 14.53125 12.890625 14.464844 12.890625 14.378906 C 12.890625 14.3125 12.925781 14.226562 12.976562 14.175781 L 14 13.242188 C 14.117188 13.140625 14.289062 13.140625 14.390625 13.257812 C 14.492188 13.378906 14.492188 13.546875 14.375 13.648438 L 13.574219 14.378906 L 14.375 15.109375 C 14.492188 15.210938 14.492188 15.382812 14.390625 15.5 C 14.324219 15.570312 14.253906 15.585938 14.1875 15.585938 Z M 14.1875 15.585938 "/>
<g clip-path="url(#clip2)" clip-rule="nonzero">
<path style=" stroke:none;fill-rule:evenodd;fill:rgb(0%,0%,0%);fill-opacity:1;" d="M 11.289062 17.878906 C 9.332031 17.878906 7.746094 16.300781 7.746094 14.363281 C 7.746094 12.425781 9.332031 10.847656 11.273438 10.847656 C 12.449219 10.847656 13.539062 11.425781 14.203125 12.394531 C 14.289062 12.511719 14.253906 12.683594 14.136719 12.765625 C 14.015625 12.851562 13.847656 12.816406 13.761719 12.699219 C 13.199219 11.882812 12.277344 11.390625 11.289062 11.390625 C 9.636719 11.390625 8.308594 12.734375 8.308594 14.363281 C 8.308594 16.011719 9.65625 17.335938 11.289062 17.335938 C 12.296875 17.335938 13.214844 16.84375 13.777344 16.011719 C 13.863281 15.890625 14.035156 15.859375 14.152344 15.941406 C 14.273438 16.027344 14.304688 16.195312 14.222656 16.316406 C 13.554688 17.300781 12.464844 17.878906 11.289062 17.878906 Z M 11.289062 17.878906 "/>
</g>
</g>
</svg>
