<?xml version="1.0" encoding="UTF-8" standalone="no"?>
<svg xmlns="http://www.w3.org/2000/svg" height="40" width="26" version="1.1" xmlns:xlink="http://www.w3.org/1999/xlink">
 <path d="m13.04 0.6387c-6.783 0-12.43 5.649-12.43 11.78 0 2.757 1.613 6.26 2.779 8.68l9.611 17.73 9.56-17.73c1.166-2.42 2.824-5.747 2.824-8.68 0-6.128-5.555-11.78-12.34-11.78zm0 1.461c5.895 0.0373 10.68 4.656 10.68 10.33 0 5.678-4.781 10.23-10.68 10.27-5.895-0.0373-10.67-4.585-10.67-10.27 0-5.678 4.779-10.3 10.67-10.33z" stroke="#d45500" stroke-linecap="round" fill="#f60"/>
  <ellipse
     style="fill:#ffffff;stroke:#ffffff;stroke-width:1.00274992"
     id="path13"
     cx="13.003574"
     cy="12.374899"
     rx="10.005984"
     ry="9.6464386" />
<svg
   xmlns:dc="http://purl.org/dc/elements/1.1/"
   xmlns:cc="http://creativecommons.org/ns#"
   xmlns:rdf="http://www.w3.org/1999/02/22-rdf-syntax-ns#"
   xmlns:svg="http://www.w3.org/2000/svg"
   xmlns="http://www.w3.org/2000/svg"
   xmlns:sodipodi="http://sodipodi.sourceforge.net/DTD/sodipodi-0.dtd"
   xmlns:inkscape="http://www.inkscape.org/namespaces/inkscape"
   version="1.1"
   x="6.543"
   y="6.02"
   viewBox="0 0 86.000001 87.437001"
   enable-background="new 0 0 100 100"
   xml:space="preserve"
   id="svg2"
   inkscape:version="0.92.5 (2060ec1f9f, 2020-04-08)"
   width="12.91"
   height="12.91"
   sodipodi:docname="Bureau de Change.svg"><metadata
     id="metadata30"><rdf:RDF><cc:Work
         rdf:about=""><dc:format>image/svg+xml</dc:format><dc:type
           rdf:resource="http://purl.org/dc/dcmitype/StillImage" /><dc:title></dc:title></cc:Work></rdf:RDF></metadata><defs
     id="defs28" /><sodipodi:namedview
     pagecolor="#ffffff"
     bordercolor="#666666"
     borderopacity="1"
     objecttolerance="10"
     gridtolerance="10"
     guidetolerance="10"
     inkscape:pageopacity="0"
     inkscape:pageshadow="2"
     inkscape:window-width="1440"
     inkscape:window-height="824"
     id="namedview26"
     showgrid="false"
     fit-margin-top="0"
     fit-margin-left="0"
     fit-margin-right="0"
     fit-margin-bottom="0"
     inkscape:zoom="3.6203867"
     inkscape:cx="37.226252"
     inkscape:cy="36.210015"
     inkscape:window-x="0"
     inkscape:window-y="0"
     inkscape:window-maximized="1"
     inkscape:current-layer="g6983" /><g
     id="g3217"
     transform="translate(-1223.0264,7591.7825)"><g
       id="g3355"
       transform="translate(0.52596752,-1.51338)"><g
         id="g3394"
         transform="translate(-1.304037,6.1068216)"><g
           id="g3432"
           transform="translate(1.3243604,-7.0685396)"><g
             id="g3490"
             transform="translate(14.50543,16.201175)"><g
               id="g3544"
               transform="translate(1.7832223,7.9070624)"><g
                 id="g3595"
                 transform="translate(9.5264836,-0.46901412)"><g
                   id="g3646"
                   transform="translate(-52.35165,-3.5880634)"><g
                     id="g3767"
                     transform="translate(6.0048559,8.7552768)"><g
                       id="g4075"
                       transform="translate(0.55239017,0.07303033)"><g
                         id="g4264"
                         transform="translate(3.0880737,-2.6377741)"><g
                           id="g4355"
                           transform="translate(8.4601992,5.328404)"><g
                             id="g4421"
                             transform="translate(-6.5255081,7.0858766)"><g
                               id="g4462"
                               transform="translate(25.518018,13.531166)"><g
                                 id="g4500"
                                 transform="translate(80.26127,-61.023322)"><g
                                   id="g5344"
                                   transform="translate(-17.614831,53.929153)"><g
                                   id="g5294"
                                   display="none"
                                   style="display:none"><rect
                                   id="rect5296"
                                   height="196"
                                   width="394.5"
                                   display="inline"
                                   y="-80.754997"
                                   x="-43.5"
                                   style="fill:#000000;display:inline" /></g><g
                                   id="g5316"
                                   display="none"
                                   style="display:none"><g
                                   id="g5318"
                                   display="inline"
                                   style="display:inline"><path
                                   id="path5320"
                                   d="M 1.581,10.718 H 30.418 L 16,1.051 1.581,10.718 z M 17.592,6.594 c 0,0.879 -0.713,1.592 -1.592,1.592 -0.879,0 -1.592,-0.713 -1.592,-1.592 0,-0.879 0.713,-1.592 1.592,-1.592 0.879,0 1.592,0.712 1.592,1.592 z"
                                   inkscape:connector-curvature="0" /><rect
                                   id="rect5322"
                                   height="3.0209999"
                                   width="31"
                                   y="28.030001"
                                   x="0.5" /><rect
                                   id="rect5324"
                                   height="11.875"
                                   width="3.0209999"
                                   y="13.363"
                                   x="3.6670001" /><rect
                                   id="rect5326"
                                   height="11.875"
                                   width="3.0209999"
                                   y="13.363"
                                   x="8.349" /><rect
                                   id="rect5328"
                                   height="11.875"
                                   width="3.0209999"
                                   y="13.363"
                                   x="20.629999" /><rect
                                   id="rect5330"
                                   height="11.875"
                                   width="3.0209999"
                                   y="13.363"
                                   x="25.312" /></g><path
                                   id="path5332"
                                   d="m 19.055,22.809 c -0.386,0.262 -1.035,0.524 -1.857,0.524 -1.01,0 -1.907,-0.386 -2.53,-1.11 -0.474,-0.524 -0.785,-1.246 -0.897,-2.144 h -0.773 v -0.611 h 0.711 c 0,-0.062 0,-0.125 0,-0.187 0,-0.2 0.012,-0.387 0.025,-0.561 h -0.735 v -0.624 h 0.823 c 0.15,-0.872 0.524,-1.595 1.022,-2.106 0.636,-0.66 1.446,-1.035 2.468,-1.035 0.735,0 1.309,0.212 1.658,0.399 l -0.249,0.822 c -0.312,-0.187 -0.835,-0.349 -1.396,-0.349 -0.673,0 -1.221,0.237 -1.645,0.685 -0.374,0.361 -0.623,0.922 -0.748,1.583 h 3.478 v 0.624 h -3.59 c -0.013,0.162 -0.025,0.349 -0.025,0.523 0,0.075 0,0.137 0,0.225 h 3.615 v 0.611 h -3.53 c 0.1,0.723 0.349,1.259 0.685,1.633 0.461,0.486 1.085,0.723 1.757,0.723 0.661,0 1.234,-0.249 1.521,-0.411 l 0.212,0.786 z"
                                   display="inline"
                                   inkscape:connector-curvature="0"
                                   style="display:inline" /></g><g
                                   id="g5453"
                                   transform="translate(-52.625356,-10.750909)"><g
                                   id="g5403"
                                   display="none"
                                   style="display:none"><rect
                                   id="rect5405"
                                   height="196"
                                   width="394.5"
                                   display="inline"
                                   y="-80.754997"
                                   x="-43.5"
                                   style="fill:#000000;display:inline" /></g><g
                                   id="g5425"
                                   display="none"
                                   style="display:none"><g
                                   id="g5427"
                                   display="inline"
                                   style="display:inline"><path
                                   id="path5429"
                                   d="M 1.581,10.718 H 30.418 L 16,1.051 1.581,10.718 z M 17.592,6.594 c 0,0.879 -0.713,1.592 -1.592,1.592 -0.879,0 -1.592,-0.713 -1.592,-1.592 0,-0.879 0.713,-1.592 1.592,-1.592 0.879,0 1.592,0.712 1.592,1.592 z"
                                   inkscape:connector-curvature="0" /><rect
                                   id="rect5431"
                                   height="3.0209999"
                                   width="31"
                                   y="28.030001"
                                   x="0.5" /><rect
                                   id="rect5433"
                                   height="11.875"
                                   width="3.0209999"
                                   y="13.363"
                                   x="3.6670001" /><rect
                                   id="rect5435"
                                   height="11.875"
                                   width="3.0209999"
                                   y="13.363"
                                   x="8.349" /><rect
                                   id="rect5437"
                                   height="11.875"
                                   width="3.0209999"
                                   y="13.363"
                                   x="20.629999" /><rect
                                   id="rect5439"
                                   height="11.875"
                                   width="3.0209999"
                                   y="13.363"
                                   x="25.312" /></g><path
                                   id="path5441"
                                   d="m 19.055,22.809 c -0.386,0.262 -1.035,0.524 -1.857,0.524 -1.01,0 -1.907,-0.386 -2.53,-1.11 -0.474,-0.524 -0.785,-1.246 -0.897,-2.144 h -0.773 v -0.611 h 0.711 c 0,-0.062 0,-0.125 0,-0.187 0,-0.2 0.012,-0.387 0.025,-0.561 h -0.735 v -0.624 h 0.823 c 0.15,-0.872 0.524,-1.595 1.022,-2.106 0.636,-0.66 1.446,-1.035 2.468,-1.035 0.735,0 1.309,0.212 1.658,0.399 l -0.249,0.822 c -0.312,-0.187 -0.835,-0.349 -1.396,-0.349 -0.673,0 -1.221,0.237 -1.645,0.685 -0.374,0.361 -0.623,0.922 -0.748,1.583 h 3.478 v 0.624 h -3.59 c -0.013,0.162 -0.025,0.349 -0.025,0.523 0,0.075 0,0.137 0,0.225 h 3.615 v 0.611 h -3.53 c 0.1,0.723 0.349,1.259 0.685,1.633 0.461,0.486 1.085,0.723 1.757,0.723 0.661,0 1.234,-0.249 1.521,-0.411 l 0.212,0.786 z"
                                   display="inline"
                                   inkscape:connector-curvature="0"
                                   style="display:inline" /></g><g
                                   id="g5911"
                                   transform="translate(34.803917,-34.731522)"><g
                                   id="g5969"
                                   transform="translate(-76.820846,20.463898)"><g
                                   id="g6024"
                                   transform="translate(-1.5269147,1.6004891)"><g
                                   id="g6071"
                                   transform="translate(7.3886843,1.0351706)"><g
                                   id="g6187"
                                   transform="translate(-0.71000052,-4.6322855)"><g
                                   id="g6263"
                                   transform="translate(-0.66737304,-5.3488176)"><g
                                   id="g6319"
                                   transform="translate(0.79720466,3.5647493)"><g
                                   id="g6384"
                                   transform="translate(-9.1472004,2.261335)"><g
                                   id="g6488"
                                   transform="translate(-2.0348122,-3.4042665)"><g
                                   id="g6516"
                                   transform="translate(-0.63832329,-2.3294036)"><g
                                   id="g6769"
                                   transform="translate(1565.7794,-3801.8487)"><g
                                   id="g6910"
                                   transform="translate(-308.09512,-3790.9493)"><g
                                   id="g6983"
                                   transform="translate(-14.231122,-15.611848)"><path
                                   style="fill-rule:evenodd"
                                   id="path12273"
                                   d="m 27.839337,52.000077 c -3.5,0 -6.4,-2.9 -6.4,-6.4 0,-3.5 2.9,-6.4 6.4,-6.4 3.5,0 6.4,2.9 6.4,6.4 0,0.9 -0.7,1.6 -1.6,1.6 -0.9,0 -1.6,-0.7 -1.6,-1.6 0,-1.7 -1.4,-3.2 -3.2,-3.2 -1.8,0 -3.2,1.4 -3.2,3.2 0,1.7 1.4,3.2 3.2,3.2 0.9,0 1.6,0.7 1.6,1.6 0,0.9 -0.7,1.6 -1.6,1.6 z"
                                   inkscape:connector-curvature="0" /><path
                                   style="fill-rule:evenodd"
                                   id="path12275"
                                   d="m 27.839337,61.600077 c -3.5,0 -6.4,-2.9 -6.4,-6.4 0,-0.9 0.7,-1.6 1.6,-1.6 0.9,0 1.6,0.7 1.6,1.6 0,1.7 1.4,3.2 3.2,3.2 1.8,0 3.2,-1.4 3.2,-3.2 0,-1.7 -1.4,-3.2 -3.2,-3.2 -0.9,0 -1.6,-0.7 -1.6,-1.6 0,-0.9 0.7,-1.6 1.6,-1.6 3.5,0 6.4,2.9 6.4,6.4 0,3.5 -2.9,6.4 -6.4,6.4 z"
                                   inkscape:connector-curvature="0" /><path
                                   style="fill-rule:evenodd"
                                   id="path12277"
                                   d="m 27.639337,64.700077 c -0.9,0 -1.6,-0.7 -1.6,-1.6 v -26.1 c 0,-0.9 0.7,-1.6 1.6,-1.6 0.9,0 1.6,0.7 1.6,1.6 v 26.1 c 0,0.8 -0.7,1.6 -1.6,1.6 z"
                                   inkscape:connector-curvature="0" /><path
                                   style="fill-rule:evenodd"
                                   id="path12279"
                                   d="m 72.039338,70.800077 c -11.4,0 -20.7,-9.4 -20.7,-21 0,-11.6 9.3,-21 20.7,-21 11.4,0 20.7,9.4 20.7,21 0,11.6 -9.2,21 -20.7,21 z m 0,-38.8 c -9.7,0 -17.5,8 -17.5,17.8 0,9.8 7.9,17.8 17.5,17.8 9.7,0 17.5,-8 17.5,-17.8 0,-9.8 -7.8,-17.8 -17.5,-17.8 z"
                                   inkscape:connector-curvature="0" /><path
                                   style="fill-rule:evenodd"
                                   id="path12281"
                                   d="m 74.939338,60.100077 c -5.6,0 -10.2,-4.6 -10.2,-10.3 0,-5.7 4.6,-10.3 10.2,-10.3 0.9,0 1.6,0.7 1.6,1.6 0,0.9 -0.7,1.6 -1.6,1.6 -3.8,0 -6.9,3.2 -6.9,7.1 0,3.9 3.1,7.1 6.9,7.1 0.9,0 1.6,0.7 1.6,1.6 0,0.9 -0.8,1.6 -1.6,1.6 z"
                                   inkscape:connector-curvature="0" /><path
                                   style="fill-rule:evenodd"
                                   id="path12283"
                                   d="M 73.939338,51.800077 H 40.539337 c -0.9,0 -1.6,-0.7 -1.6,-1.6 0,-0.9 0.7,-1.6 1.6,-1.6 h 33.400001 c 0.9,0 1.6,0.7 1.6,1.6 0,0.9 -0.7,1.6 -1.6,1.6 z"
                                   inkscape:connector-curvature="0" /><path
                                   style="fill-rule:evenodd"
                                   id="path12285"
                                   d="m 45.239338,57.300077 c -0.4,0 -0.8,-0.1 -1.1,-0.4 l -6.000001,-5.5 c -0.3,-0.3 -0.5,-0.7 -0.5,-1.2 0,-0.4 0.2,-0.9 0.5,-1.2 l 6.000001,-5.5 c 0.7,-0.6 1.7,-0.6 2.3,0.1 0.6,0.7 0.6,1.7 -0.1,2.3 l -4.7,4.3 4.7,4.3 c 0.7,0.6 0.7,1.6 0.1,2.3 -0.4,0.4 -0.8,0.5 -1.2,0.5 z"
                                   inkscape:connector-curvature="0" /><path
                                   style="fill-rule:evenodd"
                                   id="path12287"
                                   d="m 28.239337,70.800077 c -11.499999,0 -20.8000002,-9.3 -20.8000002,-20.7 0,-11.4 9.3000012,-20.7 20.7000002,-20.7 6.9,0 13.300001,3.4 17.200001,9.1 0.5,0.7 0.3,1.7 -0.4,2.2 -0.7,0.5 -1.7,0.3 -2.2,-0.4 -3.300001,-4.8 -8.700001,-7.7 -14.500001,-7.7 -9.699999,0 -17.499999,7.9 -17.499999,17.5 0,9.7 7.9,17.5 17.499999,17.5 5.9,0 11.3,-2.9 14.600001,-7.8 0.5,-0.7 1.5,-0.9 2.2,-0.4 0.7,0.5 0.9,1.5 0.4,2.2 -3.9,5.8 -10.300001,9.2 -17.200001,9.2 z"
                                   inkscape:connector-curvature="0" /></g></g></g></g></g></g></g></g></g></g></g></g></g></g></g></g></g></g></g></g></g></g></g></g></g></g></g></g></g></g></svg></svg>
