<?xml version="1.0" encoding="UTF-8" standalone="no"?>
<svg
   xmlns:dc="http://purl.org/dc/elements/1.1/"
   xmlns:cc="http://creativecommons.org/ns#"
   xmlns:rdf="http://www.w3.org/1999/02/22-rdf-syntax-ns#"
   xmlns:svg="http://www.w3.org/2000/svg"
   xmlns="http://www.w3.org/2000/svg"
   xmlns:sodipodi="http://sodipodi.sourceforge.net/DTD/sodipodi-0.dtd"
   xmlns:inkscape="http://www.inkscape.org/namespaces/inkscape"
   height="44px"
   width="30px"
   version="1.1"
   viewBox="0 0 29.988946 43.988056"
   id="svg16"
   sodipodi:docname="new_Bureau de Change.svg"
   inkscape:version="0.92.5 (2060ec1f9f, 2020-04-08)">
  <metadata
     id="metadata20">
    <rdf:RDF>
      <cc:Work
         rdf:about="">
        <dc:format>image/svg+xml</dc:format>
        <dc:type
           rdf:resource="http://purl.org/dc/dcmitype/StillImage" />
        <dc:title />
      </cc:Work>
    </rdf:RDF>
  </metadata>
  <sodipodi:namedview
     pagecolor="#ffffff"
     bordercolor="#666666"
     borderopacity="1"
     objecttolerance="10"
     gridtolerance="10"
     guidetolerance="10"
     inkscape:pageopacity="0"
     inkscape:pageshadow="2"
     inkscape:window-width="1680"
     inkscape:window-height="974"
     id="namedview18"
     showgrid="false"
     inkscape:zoom="4.0678609"
     inkscape:cx="62.817143"
     inkscape:cy="91.508344"
     inkscape:window-x="0"
     inkscape:window-y="0"
     inkscape:window-maximized="1"
     inkscape:current-layer="svg8" />
  <defs
     id="defs7">
    <radialGradient
       id="a"
       gradientUnits="userSpaceOnUse"
       cy="127.6"
       cx="-42.75"
       gradientTransform="matrix(4.2749643,0,0,0.98162997,197.99835,-83.706911)"
       r="2.3840001">
      <stop
         stop-color="#010101"
         offset="0"
         id="stop2" />
      <stop
         stop-opacity="0"
         stop-color="#090909"
         offset="1"
         id="stop4" />
    </radialGradient>
  </defs>
  <path
     d="m 14.994475,0.0864983 c -8.2386816,0 -14.91684362,6.6781619 -14.91684362,14.9168417 0.008545,2.561815 0.67294669,5.079165 1.93504232,7.306643 L 15.595595,40.920764 27.955752,22.365563 C 29.233667,20.121838 29.907468,17.585676 29.911315,15.00334 29.911273,6.7646602 23.233154,0.0864983 14.994475,0.0864983 Z"
     id="path9"
     inkscape:connector-curvature="0"
     style="fill:#5846c5;stroke-width:4.27539158" />
  <circle
     cy="15.050359"
     cx="14.994473"
     r="9.4272394"
     id="circle11"
     style="fill:#f9f3f3;stroke-width:4.27539158" />
  <ellipse
     rx="10.192533"
     ry="2.3394945"
     cy="41.562065"
     cx="14.994473"
     id="ellipse13"
     style="opacity:0.4;fill:url(#a);stroke-width:4.27496433" />
  <rect
     id="replace"
     rx="0"
     ry="0"
     height="13.36915"
     width="13.471761"
     y="8.2097387"
     x="8.2585926"
     style="fill:none;stroke-width:4.27539158" />
  <svg
     inkscape:version="0.92.5 (2060ec1f9f, 2020-04-08)"
     height="100"
     width="100"
     sodipodi:docname="Bureau de Change.svg"
     id="svg8"
     y="10"
     x="8.5"
     viewBox="0 0 100 100"
     data-container-transform="translate(3)"
     data-icon="dollar"
     version="1.1">
    <metadata
       id="metadata14">
      <rdf:RDF>
        <cc:Work
           rdf:about="">
          <dc:format>image/svg+xml</dc:format>
          <dc:type
             rdf:resource="http://purl.org/dc/dcmitype/StillImage" />
          <dc:title />
        </cc:Work>
      </rdf:RDF>
    </metadata>
    <defs
       id="defs12" />
    <sodipodi:namedview
       inkscape:current-layer="svg8"
       inkscape:window-maximized="1"
       inkscape:window-y="0"
       inkscape:window-x="0"
       inkscape:cy="-18.270721"
       inkscape:cx="-44.934529"
       inkscape:zoom="2.085965"
       showgrid="false"
       id="namedview10"
       inkscape:window-height="884"
       inkscape:window-width="1680"
       inkscape:pageshadow="2"
       inkscape:pageopacity="0"
       guidetolerance="10"
       gridtolerance="10"
       objecttolerance="10"
       borderopacity="1"
       bordercolor="#666666"
       pagecolor="#ffffff" />
    <path
       style="stroke-width:0.92977554"
       inkscape:connector-curvature="0"
       id="path2"
       d="m 6.029585,-2.5149057 v 1.88837409 c -1.5341299,0.088329 -2.5531637,0.5922669 -3.1091693,1.3072645 C 2.3086234,1.467323 2.310483,2.3664156 2.310483,2.5988598 c 0,1.1231687 0.7149971,2.0334189 1.5108849,2.4694837 0.7131379,0.3905057 1.471835,0.5439189 2.2082171,0.6973316 V 8.6135778 C 5.2904133,8.5577912 4.8394722,8.3848528 4.6060984,8.1775131 4.326236,7.9283329 4.1700337,7.5573528 4.1700337,6.7828498 H 2.310483 c 0,1.0850482 0.3096151,2.1087308 1.0748205,2.7893265 0.6703681,0.5959867 1.5694612,0.8433067 2.6442815,0.9009527 v 1.888374 H 6.9593604 V 10.473129 C 8.49349,10.3848 9.5125239,9.8808618 10.06853,9.1658642 10.680323,8.379274 10.678463,7.4801815 10.678463,7.2477373 10.678463,6.1245685 9.9634648,5.2143183 9.1675773,4.7782535 8.4544393,4.3877478 7.6957427,4.2343351 6.9593604,4.0809219 V 1.2330197 C 7.6985318,1.2888057 8.149473,1.4617442 8.3828467,1.669084 8.6627091,1.9182641 8.8189115,2.2892447 8.8189115,3.0637476 h 1.8595515 c 0,-1.0850481 -0.309616,-2.10873071 -1.074821,-2.78932681 -0.6703681,-0.5959861 -1.5694611,-0.8433063 -2.6442816,-0.9009524 V -2.5149057 Z m 0,3.7479254 V 3.8484782 C 5.4875259,3.712731 4.9947449,3.5779134 4.6925678,3.4124134 4.2685902,3.1799693 4.1691041,3.1027979 4.1691041,2.5988598 c 0,-0.2324442 0.00185,-0.4955702 0.203621,-0.7559075 C 4.5484526,1.617017 4.9761494,1.3111207 6.028655,1.2330197 Z m 0.9297754,4.7650996 c 0.5420592,0.1357472 1.0348402,0.2705644 1.3370174,0.4360643 0.4239775,0.2324442 0.5234632,0.3096155 0.5234632,0.8135537 0,0.2324442 -0.00185,0.4955706 -0.2036206,0.7559079 C 8.4404929,8.2295805 8.0127962,8.5354764 6.9602899,8.6135778 V 5.9981193 Z" />
  </svg>
</svg>
