<?xml version="1.0" encoding="UTF-8" standalone="no"?>
<svg
   xmlns:dc="http://purl.org/dc/elements/1.1/"
   xmlns:cc="http://creativecommons.org/ns#"
   xmlns:rdf="http://www.w3.org/1999/02/22-rdf-syntax-ns#"
   xmlns:svg="http://www.w3.org/2000/svg"
   xmlns="http://www.w3.org/2000/svg"
   xmlns:sodipodi="http://sodipodi.sourceforge.net/DTD/sodipodi-0.dtd"
   xmlns:inkscape="http://www.inkscape.org/namespaces/inkscape"
   height="40"
   width="26"
   version="1.1"
   id="svg12"
   sodipodi:docname="new_Bus Station.svg"
   inkscape:version="0.92.5 (2060ec1f9f, 2020-04-08)">
  <metadata
     id="metadata18" />
  <defs
     id="defs16" />
  <sodipodi:namedview
     pagecolor="#ffffff"
     bordercolor="#666666"
     borderopacity="1"
     objecttolerance="10"
     gridtolerance="10"
     guidetolerance="10"
     inkscape:pageopacity="0"
     inkscape:pageshadow="2"
     inkscape:window-width="640"
     inkscape:window-height="480"
     id="namedview14"
     showgrid="false"
     inkscape:zoom="5.9"
     inkscape:cx="13"
     inkscape:cy="20"
     inkscape:window-x="0"
     inkscape:window-y="0"
     inkscape:window-maximized="0"
     inkscape:current-layer="svg16" />
  <path
     d="m13.04 0.6387c-6.783 0-12.43 5.649-12.43 11.78 0 2.757 1.613 6.26 2.779 8.68l9.611 17.73 9.56-17.73c1.166-2.42 2.824-5.747 2.824-8.68 0-6.128-5.555-11.78-12.34-11.78zm0 1.461c5.895 0.0373 10.68 4.656 10.68 10.33 0 5.678-4.781 10.23-10.68 10.27-5.895-0.0373-10.67-4.585-10.67-10.27 0-5.678 4.779-10.3 10.67-10.33z"
     stroke="#d45500"
     stroke-linecap="round"
     fill="#f60"
     id="path2" />
  <ellipse
     style="fill:#ffffff;stroke:#ffffff;stroke-width:1.00274992"
     id="path13"
     cx="13.003574"
     cy="12.374899"
     rx="10.005984"
     ry="9.6464386" />
  <svg
     viewBox="0 0 60 60"
     version="1.1"
     x="6.543"
     y="6.02"
     id="svg16"
     sodipodi:docname="Bus Station.svg"
     width="60"
     height="60"
     inkscape:version="0.92.5 (2060ec1f9f, 2020-04-08)">
    <metadata
       id="metadata22">
      <rdf:RDF>
        <cc:Work
           rdf:about="">
          <dc:format>image/svg+xml</dc:format>
          <dc:type
             rdf:resource="http://purl.org/dc/dcmitype/StillImage" />
          <dc:title>bike black</dc:title>
        </cc:Work>
      </rdf:RDF>
    </metadata>
    <defs
       id="defs20" />
    <sodipodi:namedview
       pagecolor="#ffffff"
       bordercolor="#666666"
       borderopacity="1"
       objecttolerance="10"
       gridtolerance="10"
       guidetolerance="10"
       inkscape:pageopacity="0"
       inkscape:pageshadow="2"
       inkscape:window-width="1440"
       inkscape:window-height="824"
       id="namedview18"
       showgrid="false"
       inkscape:zoom="5.2444444"
       inkscape:cx="30"
       inkscape:cy="22.5"
       inkscape:window-x="0"
       inkscape:window-y="0"
       inkscape:window-maximized="1"
       inkscape:current-layer="svg16" />
    <title
       id="title2">bike black</title>
    <desc
       id="desc4">Created with Sketch.</desc>
    <path
       id="path6527"
       d="m 11.304523,1.6560521 c -0.368015,-0.3692986 -9.1874303,-0.3680145 -9.5554448,0 -0.06043,0.058456 -0.045816,0.9756778 -0.045816,1.0800494 V 10.027865 H 2.176141 v 1.15776 h 1.7448846 v -1.157858 h 5.1801483 v 1.157759 h 1.7749041 v -1.157759 h 0.472978 V 2.7361015 c 0,-0.094299 0.004,-1.0348252 -0.04453,-1.0800494 z M 4.0300375,9.4067728 H 2.3861672 V 8.54929 H 4.0300375 Z M 6.5188508,9.2466119 c -0.1686526,0 -0.3049179,-0.1367588 -0.3049179,-0.3055105 0,-0.1687512 0.1361666,-0.3062015 0.3049179,-0.3062015 0.1694426,0 0.3074851,0.1374503 0.3074851,0.3062015 0,0.1687517 -0.1380425,0.3055105 -0.3074851,0.3055105 z M 10.665558,9.4067728 H 9.0256358 V 8.54929 H 10.665459 V 9.4067728 Z M 10.872819,7.5515919 H 2.2054678 V 3.511924 h 8.6673512 z m 0,-4.189856 H 2.2054678 V 1.9868406 h 8.6673512 z"
       inkscape:connector-curvature="0"
       style="stroke-width:0.09874284" />
  </svg>
</svg>
