<?xml version="1.0" encoding="UTF-8" standalone="no"?>
<svg
   xmlns:dc="http://purl.org/dc/elements/1.1/"
   xmlns:cc="http://creativecommons.org/ns#"
   xmlns:rdf="http://www.w3.org/1999/02/22-rdf-syntax-ns#"
   xmlns:svg="http://www.w3.org/2000/svg"
   xmlns="http://www.w3.org/2000/svg"
   xmlns:sodipodi="http://sodipodi.sourceforge.net/DTD/sodipodi-0.dtd"
   xmlns:inkscape="http://www.inkscape.org/namespaces/inkscape"
   height="44px"
   width="30px"
   version="1.1"
   viewBox="0 0 29.988946 43.988056"
   id="svg542"
   sodipodi:docname="new_Bus Station.svg"
   inkscape:version="0.92.5 (2060ec1f9f, 2020-04-08)">
  <metadata
     id="metadata20">
    <rdf:RDF>
      <cc:Work
         rdf:about="">
        <dc:format>image/svg+xml</dc:format>
        <dc:type
           rdf:resource="http://purl.org/dc/dcmitype/StillImage" />
        <dc:title />
      </cc:Work>
    </rdf:RDF>
  </metadata>
  <sodipodi:namedview
     pagecolor="#ffffff"
     bordercolor="#666666"
     borderopacity="1"
     objecttolerance="10"
     gridtolerance="10"
     guidetolerance="10"
     inkscape:pageopacity="0"
     inkscape:pageshadow="2"
     inkscape:window-width="1680"
     inkscape:window-height="974"
     id="namedview18"
     showgrid="false"
     inkscape:zoom="4.0678609"
     inkscape:cx="11.177821"
     inkscape:cy="135.65582"
     inkscape:window-x="0"
     inkscape:window-y="0"
     inkscape:window-maximized="1"
     inkscape:current-layer="svg16" />
  <defs
     id="defs7">
    <radialGradient
       id="a"
       gradientUnits="userSpaceOnUse"
       cy="127.6"
       cx="-42.75"
       gradientTransform="matrix(4.2749643,0,0,0.98162997,197.99835,-82.088795)"
       r="2.3840001">
      <stop
         stop-color="#010101"
         offset="0"
         id="stop2" />
      <stop
         stop-opacity="0"
         stop-color="#090909"
         offset="1"
         id="stop4" />
    </radialGradient>
  </defs>
  <g
     id="g26"
     transform="translate(-2.0760358e-7,-1.6181156)">
    <path
       style="fill:#5846c5;stroke-width:4.27539158"
       inkscape:connector-curvature="0"
       id="path9"
       d="m 14.994475,1.7046139 c -8.2386814,0 -14.91684341,6.6781619 -14.91684341,14.9168421 0.008545,2.561815 0.67294669,5.079165 1.93504231,7.306643 L 15.595595,42.53888 27.955752,23.983679 c 1.277915,-2.243725 1.951716,-4.779887 1.955563,-7.362223 C 29.911273,8.3827758 23.233154,1.7046139 14.994475,1.7046139 Z" />
    <circle
       style="fill:#f9f3f3;stroke-width:4.27539158"
       id="circle11"
       r="9.4272394"
       cx="14.994473"
       cy="16.668474" />
    <ellipse
       style="opacity:0.4;fill:url(#a);stroke-width:4.27496433"
       id="ellipse13"
       cx="14.994473"
       cy="43.18018"
       ry="2.3394945"
       rx="10.192533" />
    <rect
       style="fill:none;stroke-width:4.27539158"
       x="8.2585926"
       y="9.8278542"
       width="13.471761"
       height="13.36915"
       ry="0"
       rx="0"
       id="replace" />
    <svg
       viewBox="0 0 60 60"
       version="1.1"
       x="8.5"
       y="10"
       id="svg16"
       sodipodi:docname="Bus Station.svg"
       width="60"
       height="60"
       inkscape:version="0.92.5 (2060ec1f9f, 2020-04-08)">
      <metadata
         id="metadata22">
        <rdf:RDF>
          <cc:Work
             rdf:about="">
            <dc:format>image/svg+xml</dc:format>
            <dc:type
               rdf:resource="http://purl.org/dc/dcmitype/StillImage" />
            <dc:title>bike black</dc:title>
          </cc:Work>
        </rdf:RDF>
      </metadata>
      <defs
         id="defs20" />
      <sodipodi:namedview
         pagecolor="#ffffff"
         bordercolor="#666666"
         borderopacity="1"
         objecttolerance="10"
         gridtolerance="10"
         guidetolerance="10"
         inkscape:pageopacity="0"
         inkscape:pageshadow="2"
         inkscape:window-width="1440"
         inkscape:window-height="824"
         id="namedview535"
         showgrid="false"
         inkscape:zoom="5.2444444"
         inkscape:cx="30"
         inkscape:cy="22.5"
         inkscape:window-x="0"
         inkscape:window-y="0"
         inkscape:window-maximized="1"
         inkscape:current-layer="svg16" />
      <title
         id="title2">bike black</title>
      <desc
         id="desc4">Created with Sketch.</desc>
      <path
         id="path6527"
         d="M 11.968746,1.4360386 C 11.5472,1.0130217 1.4449019,1.0144921 1.0233555,1.4360386 0.9541345,1.5029976 0.9708745,2.55364 0.9708745,2.6731933 v 8.3524337 h 0.5416649 v 1.326169 h 1.9986979 v -1.326282 h 5.9336601 v 1.326169 H 11.47798 v -1.326169 h 0.541778 V 2.6731933 c 0,-0.1080162 0.0046,-1.1853521 -0.05101,-1.2371547 z M 3.6361062,10.31419 H 1.753116 V 9.3319756 h 1.8829902 z m 2.8508393,-0.183458 c -0.1931854,0 -0.3492717,-0.1566534 -0.3492717,-0.3499514 0,-0.193298 0.1559738,-0.350742 0.3492717,-0.350742 0.1940902,0 0.3522125,0.157444 0.3522125,0.350742 0,0.193298 -0.1581223,0.3499514 -0.3522125,0.3499514 z M 11.236837,10.31419 H 9.3583694 V 9.3319756 H 11.236724 V 10.31419 Z M 11.474246,8.1891509 H 1.5461319 V 3.561868 h 9.9281141 z m 0,-4.7993172 H 1.5461319 V 1.8149441 h 9.9281141 z"
         inkscape:connector-curvature="0"
         style="stroke-width:0.11310612" />
    </svg>
  </g>
</svg>
