<?xml version="1.0" encoding="UTF-8"?>
<svg xmlns="http://www.w3.org/2000/svg" xmlns:xlink="http://www.w3.org/1999/xlink" width="30px" height="46px" viewBox="0 0 30 46" version="1.1">
<g id="surface1">
<path style="fill-rule:nonzero;fill:rgb(100%,40.000001%,0%);fill-opacity:1;stroke-width:1;stroke-linecap:round;stroke-linejoin:miter;stroke:rgb(83.137256%,33.333334%,0%);stroke-opacity:1;stroke-miterlimit:4;" d="M 13.040625 0.638587 C 6.25625 0.638587 0.609375 6.287364 0.609375 12.418478 C 0.609375 15.17663 2.224219 18.678668 3.388802 21.097147 L 13 38.828125 L 22.560417 21.097147 C 23.725 18.678668 25.383854 15.353261 25.383854 12.418478 C 25.383854 6.290761 19.828385 0.638587 13.04401 0.638587 Z M 13.040625 2.099185 C 18.934635 2.136549 23.721615 6.756114 23.721615 12.428668 C 23.721615 18.108016 18.938021 22.659647 13.040625 22.700408 C 7.146615 22.663043 2.369792 18.11481 2.369792 12.428668 C 2.369792 6.752717 7.15 2.129755 13.040625 2.099185 Z M 13.040625 2.099185 " transform="matrix(1.153846,0,0,1.15,0,0)"/>
<path style="fill-rule:nonzero;fill:rgb(100%,100%,100%);fill-opacity:1;stroke-width:1.00275;stroke-linecap:butt;stroke-linejoin:miter;stroke:rgb(100%,100%,100%);stroke-opacity:1;stroke-miterlimit:4;" d="M 23.010677 12.374321 C 23.010677 17.703804 18.528385 22.02106 13.003385 22.02106 C 7.478385 22.02106 2.996094 17.703804 2.996094 12.374321 C 2.996094 7.048234 7.478385 2.727582 13.003385 2.727582 C 18.528385 2.727582 23.010677 7.048234 23.010677 12.374321 Z M 23.010677 12.374321 " transform="matrix(1.153846,0,0,1.15,0,0)"/>
<path style=" stroke:none;fill-rule:nonzero;fill:rgb(0%,0%,0%);fill-opacity:1;" d="M 20.59375 8.828125 C 20.167969 8.402344 9.992188 8.402344 9.566406 8.828125 C 9.5 8.894531 9.515625 9.949219 9.515625 10.070312 L 9.515625 18.453125 L 10.0625 18.453125 L 10.0625 19.785156 L 12.074219 19.785156 L 12.074219 18.453125 L 18.050781 18.453125 L 18.050781 19.785156 L 20.097656 19.785156 L 20.097656 18.453125 L 20.644531 18.453125 L 20.644531 10.070312 C 20.644531 9.960938 20.648438 8.878906 20.59375 8.828125 Z M 12.199219 17.742188 L 10.304688 17.742188 L 10.304688 16.753906 L 12.199219 16.753906 Z M 15.070312 17.554688 C 14.875 17.554688 14.71875 17.398438 14.71875 17.207031 C 14.71875 17.011719 14.875 16.851562 15.070312 16.851562 C 15.265625 16.851562 15.425781 17.011719 15.425781 17.207031 C 15.425781 17.398438 15.265625 17.554688 15.070312 17.554688 Z M 19.855469 17.742188 L 17.964844 17.742188 L 17.964844 16.753906 L 19.855469 16.753906 Z M 20.09375 15.605469 L 10.09375 15.605469 L 10.09375 10.960938 L 20.09375 10.960938 Z M 20.09375 10.789062 L 10.09375 10.789062 L 10.09375 9.207031 L 20.09375 9.207031 Z M 20.09375 10.789062 "/>
</g>
</svg>
