<?xml version="1.0" encoding="UTF-8"?>
<svg xmlns="http://www.w3.org/2000/svg" xmlns:xlink="http://www.w3.org/1999/xlink" width="30px" height="46px" viewBox="0 0 30 46" version="1.1">
<defs>
<clipPath id="clip1">
  <path d="M 8 6.921875 L 22 6.921875 L 22 21.769531 L 8 21.769531 Z M 8 6.921875 "/>
</clipPath>
</defs>
<g id="surface1">
<path style="fill-rule:nonzero;fill:rgb(100%,40.000001%,0%);fill-opacity:1;stroke-width:1;stroke-linecap:round;stroke-linejoin:miter;stroke:rgb(83.137256%,33.333334%,0%);stroke-opacity:1;stroke-miterlimit:4;" d="M 13.040625 0.638587 C 6.25625 0.638587 0.609375 6.287364 0.609375 12.418478 C 0.609375 15.17663 2.224219 18.678668 3.388802 21.097147 L 13 38.828125 L 22.560417 21.097147 C 23.725 18.678668 25.383854 15.353261 25.383854 12.418478 C 25.383854 6.290761 19.828385 0.638587 13.04401 0.638587 Z M 13.040625 2.099185 C 18.934635 2.136549 23.721615 6.756114 23.721615 12.428668 C 23.721615 18.108016 18.938021 22.659647 13.040625 22.700408 C 7.146615 22.663043 2.369792 18.11481 2.369792 12.428668 C 2.369792 6.752717 7.15 2.129755 13.040625 2.099185 Z M 13.040625 2.099185 " transform="matrix(1.153846,0,0,1.15,0,0)"/>
<path style="fill-rule:nonzero;fill:rgb(100%,100%,100%);fill-opacity:1;stroke-width:1.00275;stroke-linecap:butt;stroke-linejoin:miter;stroke:rgb(100%,100%,100%);stroke-opacity:1;stroke-miterlimit:4;" d="M 23.010677 12.374321 C 23.010677 17.703804 18.528385 22.02106 13.003385 22.02106 C 7.478385 22.02106 2.996094 17.703804 2.996094 12.374321 C 2.996094 7.048234 7.478385 2.727582 13.003385 2.727582 C 18.528385 2.727582 23.010677 7.048234 23.010677 12.374321 Z M 23.010677 12.374321 " transform="matrix(1.153846,0,0,1.15,0,0)"/>
<g clip-path="url(#clip1)" clip-rule="nonzero">
<path style=" stroke:none;fill-rule:nonzero;fill:rgb(0%,0%,0%);fill-opacity:1;" d="M 21.582031 19.921875 L 21.582031 20.847656 L 19.941406 20.847656 C 19.488281 20.847656 19.125 21.257812 19.125 21.769531 L 10.886719 21.769531 C 10.886719 21.257812 10.519531 20.847656 10.066406 20.847656 L 8.414062 20.847656 L 8.414062 19.921875 Z M 21.582031 15.289062 C 21.582031 16.3125 20.847656 17.136719 19.929688 17.136719 C 19.722656 17.136719 19.519531 17.085938 19.328125 17.003906 C 18.949219 17.8125 18.390625 18.488281 17.71875 18.980469 L 12.277344 18.980469 C 10.945312 17.992188 10.066406 16.277344 10.066406 14.347656 L 10.066406 13.425781 L 19.941406 13.425781 C 20.847656 13.441406 21.582031 14.265625 21.582031 15.289062 Z M 20.761719 15.289062 C 20.761719 14.777344 20.394531 14.363281 19.941406 14.363281 C 19.941406 14.992188 19.839844 15.601562 19.664062 16.164062 C 19.753906 16.195312 19.839844 16.226562 19.941406 16.226562 C 20.394531 16.210938 20.761719 15.800781 20.761719 15.289062 Z M 17.222656 12.878906 C 17.234375 12.863281 18.230469 11.445312 17.234375 9.8125 C 16.417969 8.476562 17.191406 7.355469 17.222656 7.304688 C 17.292969 7.207031 17.28125 7.058594 17.191406 6.976562 C 17.105469 6.894531 16.972656 6.910156 16.898438 7.007812 C 16.886719 7.023438 15.890625 8.445312 16.886719 10.078125 C 17.703125 11.414062 16.929688 12.535156 16.898438 12.582031 C 16.828125 12.683594 16.839844 12.832031 16.929688 12.914062 C 16.972656 12.945312 17.015625 12.960938 17.058594 12.960938 C 17.117188 12.980469 17.175781 12.945312 17.222656 12.878906 Z M 15.566406 12.878906 C 15.582031 12.878906 16.578125 11.445312 15.582031 9.828125 C 14.761719 8.492188 15.539062 7.371094 15.566406 7.320312 C 15.640625 7.222656 15.625 7.074219 15.539062 6.992188 C 15.453125 6.910156 15.320312 6.925781 15.246094 7.023438 C 15.230469 7.042969 14.238281 8.460938 15.230469 10.09375 C 16.050781 11.429688 15.277344 12.550781 15.246094 12.601562 C 15.171875 12.699219 15.1875 12.847656 15.277344 12.929688 C 15.320312 12.960938 15.363281 12.980469 15.40625 12.980469 C 15.464844 12.980469 15.523438 12.945312 15.566406 12.878906 Z M 13.929688 12.878906 C 13.945312 12.863281 14.9375 11.445312 13.945312 9.8125 C 13.125 8.476562 13.902344 7.355469 13.929688 7.304688 C 14.003906 7.207031 13.988281 7.058594 13.902344 6.976562 C 13.8125 6.894531 13.679688 6.910156 13.609375 7.007812 C 13.59375 7.023438 12.597656 8.445312 13.59375 10.078125 C 14.414062 11.414062 13.636719 12.535156 13.609375 12.582031 C 13.535156 12.683594 13.550781 12.832031 13.636719 12.914062 C 13.679688 12.945312 13.726562 12.960938 13.769531 12.960938 C 13.828125 12.980469 13.886719 12.945312 13.929688 12.878906 Z M 13.929688 12.878906 "/>
</g>
</g>
</svg>
