<?xml version="1.0" encoding="UTF-8" standalone="no"?>
<svg
   xmlns:dc="http://purl.org/dc/elements/1.1/"
   xmlns:cc="http://creativecommons.org/ns#"
   xmlns:rdf="http://www.w3.org/1999/02/22-rdf-syntax-ns#"
   xmlns:svg="http://www.w3.org/2000/svg"
   xmlns="http://www.w3.org/2000/svg"
   xmlns:sodipodi="http://sodipodi.sourceforge.net/DTD/sodipodi-0.dtd"
   xmlns:inkscape="http://www.inkscape.org/namespaces/inkscape"
   height="40"
   width="26"
   version="1.1"
   id="svg11"
   sodipodi:docname="new_Campsite.svg"
   inkscape:version="0.92.5 (2060ec1f9f, 2020-04-08)">
  <metadata
     id="metadata17" />
  <defs
     id="defs15" />
  <sodipodi:namedview
     pagecolor="#ffffff"
     bordercolor="#666666"
     borderopacity="1"
     objecttolerance="10"
     gridtolerance="10"
     guidetolerance="10"
     inkscape:pageopacity="0"
     inkscape:pageshadow="2"
     inkscape:window-width="640"
     inkscape:window-height="480"
     id="namedview13"
     showgrid="false"
     inkscape:zoom="5.9"
     inkscape:cx="13"
     inkscape:cy="20"
     inkscape:window-x="0"
     inkscape:window-y="0"
     inkscape:window-maximized="0"
     inkscape:current-layer="svg2" />
  <path
     d="m13.04 0.6387c-6.783 0-12.43 5.649-12.43 11.78 0 2.757 1.613 6.26 2.779 8.68l9.611 17.73 9.56-17.73c1.166-2.42 2.824-5.747 2.824-8.68 0-6.128-5.555-11.78-12.34-11.78zm0 1.461c5.895 0.0373 10.68 4.656 10.68 10.33 0 5.678-4.781 10.23-10.68 10.27-5.895-0.0373-10.67-4.585-10.67-10.27 0-5.678 4.779-10.3 10.67-10.33z"
     stroke="#d45500"
     stroke-linecap="round"
     fill="#f60"
     id="path2" />
  <ellipse
     style="fill:#ffffff;stroke:#ffffff;stroke-width:1.00274992"
     id="path13"
     cx="13.003574"
     cy="12.374899"
     rx="10.005984"
     ry="9.6464386" />
  <svg
     version="1.1"
     x="6.543"
     y="6.02"
     viewBox="0 0 100 125"
     enable-background="new 0 0 100 100"
     xml:space="preserve"
     id="svg2"
     inkscape:version="0.92.5 (2060ec1f9f, 2020-04-08)"
     sodipodi:docname="Camp Sites.svg"><metadata
       id="metadata16"><rdf:RDF><cc:Work
           rdf:about=""><dc:format>image/svg+xml</dc:format><dc:type
             rdf:resource="http://purl.org/dc/dcmitype/StillImage" /></cc:Work></rdf:RDF></metadata><defs
       id="defs14" /><sodipodi:namedview
       pagecolor="#ffffff"
       bordercolor="#666666"
       borderopacity="1"
       objecttolerance="10"
       gridtolerance="10"
       guidetolerance="10"
       inkscape:pageopacity="0"
       inkscape:pageshadow="2"
       inkscape:window-width="1680"
       inkscape:window-height="974"
       id="namedview12"
       showgrid="false"
       inkscape:zoom="1.888"
       inkscape:cx="55.29661"
       inkscape:cy="62.5"
       inkscape:window-x="0"
       inkscape:window-y="0"
       inkscape:window-maximized="1"
       inkscape:current-layer="svg2" /><polyline
       stroke-miterlimit="10"
       points="57.979,8.312 50,20.707 8.784,84.752   91.217,84.752 42.023,8.312 "
       id="polyline4"
       transform="matrix(0.5346789,0,0,0.5346789,-1.4689897,-15.785267)"
       style="fill:none;stroke:#000000;stroke-width:4;stroke-miterlimit:10" /><polygon
       points="66.303,84.752 50,84.752 34.516,84.752 50,53.721 "
       id="polygon6"
       transform="matrix(0.5346789,0,0,0.5346789,-1.6876601,-15.785267)" /></svg></svg>
