<?xml version="1.0" encoding="UTF-8"?>
<svg xmlns="http://www.w3.org/2000/svg" xmlns:xlink="http://www.w3.org/1999/xlink" width="30px" height="46px" viewBox="0 0 30 46" version="1.1">
<defs>
<clipPath id="clip1">
  <path d="M 7.550781 7 L 22.445312 7 L 22.445312 21.769531 L 7.550781 21.769531 Z M 7.550781 7 "/>
</clipPath>
</defs>
<g id="surface1">
<path style="fill-rule:nonzero;fill:rgb(100%,40.000001%,0%);fill-opacity:1;stroke-width:1;stroke-linecap:round;stroke-linejoin:miter;stroke:rgb(83.137256%,33.333334%,0%);stroke-opacity:1;stroke-miterlimit:4;" d="M 13.040625 0.638587 C 6.25625 0.638587 0.609375 6.287364 0.609375 12.418478 C 0.609375 15.17663 2.224219 18.678668 3.388802 21.097147 L 13 38.828125 L 22.560417 21.097147 C 23.725 18.678668 25.383854 15.353261 25.383854 12.418478 C 25.383854 6.290761 19.828385 0.638587 13.04401 0.638587 Z M 13.040625 2.099185 C 18.934635 2.136549 23.721615 6.756114 23.721615 12.428668 C 23.721615 18.108016 18.938021 22.659647 13.040625 22.700408 C 7.146615 22.663043 2.369792 18.11481 2.369792 12.428668 C 2.369792 6.752717 7.15 2.129755 13.040625 2.099185 Z M 13.040625 2.099185 " transform="matrix(1.153846,0,0,1.15,0,0)"/>
<path style="fill-rule:nonzero;fill:rgb(100%,100%,100%);fill-opacity:1;stroke-width:1.00275;stroke-linecap:butt;stroke-linejoin:miter;stroke:rgb(100%,100%,100%);stroke-opacity:1;stroke-miterlimit:4;" d="M 23.010677 12.374321 C 23.010677 17.703804 18.528385 22.02106 13.003385 22.02106 C 7.478385 22.02106 2.996094 17.703804 2.996094 12.374321 C 2.996094 7.048234 7.478385 2.727582 13.003385 2.727582 C 18.528385 2.727582 23.010677 7.048234 23.010677 12.374321 Z M 23.010677 12.374321 " transform="matrix(1.153846,0,0,1.15,0,0)"/>
<g clip-path="url(#clip1)" clip-rule="nonzero">
<path style=" stroke:none;fill-rule:nonzero;fill:rgb(0%,0%,0%);fill-opacity:1;" d="M 22.222656 19.285156 L 22.15625 19.292969 C 22.15625 19.023438 22.121094 18.753906 22.125 18.488281 C 22.128906 17.574219 22.066406 16.863281 21.089844 16.515625 C 21.460938 16.363281 21.5625 16.667969 21.4375 16.035156 C 21.328125 15.429688 20.644531 15.878906 20.246094 15.679688 C 20.210938 15.632812 20.121094 15.515625 20.042969 15.390625 C 19.847656 15.074219 19.617188 14.867188 19.335938 14.746094 C 19.621094 14.277344 19.800781 13.609375 19.800781 12.851562 C 19.800781 12.667969 19.789062 12.492188 19.769531 12.320312 C 19.929688 12.066406 20.066406 11.789062 20.160156 11.484375 C 20.6875 9.773438 19.832031 7.929688 18.253906 7.359375 C 16.671875 6.789062 14.964844 7.710938 14.4375 9.421875 C 14.304688 9.84375 14.261719 10.277344 14.289062 10.699219 C 14.25 10.75 14.199219 10.792969 14.144531 10.820312 L 14.132812 10.828125 C 14.027344 10.886719 13.90625 10.867188 13.824219 10.796875 L 13.796875 10.742188 C 13.78125 10.707031 13.753906 10.671875 13.726562 10.648438 L 13.710938 10.621094 L 13.699219 10.628906 C 13.617188 10.570312 13.511719 10.5625 13.417969 10.613281 L 13.40625 10.621094 C 13.3125 10.671875 13.257812 10.773438 13.253906 10.878906 C 13.253906 10.878906 13.265625 10.980469 13.269531 11.003906 C 13.292969 11.113281 13.367188 11.328125 13.367188 11.328125 L 7.972656 14.359375 C 7.972656 14.359375 7.851562 14.429688 7.820312 14.472656 C 7.789062 14.515625 7.753906 14.675781 7.753906 14.675781 L 7.554688 15.546875 C 7.554688 15.546875 7.539062 15.585938 7.5625 15.640625 C 7.585938 15.683594 7.609375 15.699219 7.640625 15.707031 L 8.585938 15.984375 C 8.589844 15.984375 8.589844 15.984375 8.589844 15.984375 C 8.621094 15.953125 8.664062 15.941406 8.707031 15.953125 C 8.707031 15.953125 8.929688 16.078125 8.996094 16.039062 C 9.066406 15.996094 9.128906 15.742188 9.128906 15.742188 C 9.148438 15.675781 9.214844 15.636719 9.273438 15.65625 C 9.273438 15.65625 9.8125 15.777344 9.917969 15.71875 C 10.027344 15.664062 10.0625 15.394531 10.0625 15.394531 C 10.082031 15.328125 10.125 15.25 10.1875 15.269531 C 10.1875 15.269531 10.464844 15.421875 10.570312 15.355469 C 10.664062 15.296875 10.90625 14.722656 10.90625 14.722656 C 10.925781 14.652344 10.992188 14.617188 11.054688 14.636719 C 11.054688 14.636719 11.289062 14.742188 11.414062 14.671875 C 11.582031 14.578125 11.4375 14.308594 11.867188 14.082031 C 12.152344 13.933594 12.515625 14.152344 12.6875 14.046875 C 12.753906 14.007812 12.800781 13.84375 12.800781 13.84375 C 12.820312 13.777344 12.886719 13.738281 12.949219 13.757812 L 13.382812 13.898438 L 14.136719 13.472656 C 14.277344 13.394531 14.445312 13.453125 14.519531 13.601562 L 14.578125 13.710938 C 14.660156 13.828125 14.808594 13.867188 14.933594 13.796875 L 14.945312 13.789062 C 15.085938 13.710938 15.136719 13.527344 15.066406 13.378906 L 14.988281 13.214844 C 14.980469 13.097656 15.035156 12.980469 15.136719 12.925781 L 15.148438 12.917969 C 15.191406 12.894531 15.242188 12.886719 15.292969 12.890625 C 15.589844 13.175781 15.945312 13.402344 16.34375 13.542969 C 17.484375 13.957031 18.691406 13.585938 19.472656 12.707031 C 19.476562 12.753906 19.476562 12.800781 19.476562 12.851562 C 19.476562 13.578125 19.289062 14.234375 19.003906 14.644531 C 18.882812 14.621094 18.753906 14.609375 18.613281 14.609375 C 18.003906 14.601562 15.589844 14.601562 14.980469 14.609375 C 14.328125 14.613281 13.890625 14.835938 13.550781 15.390625 C 13.472656 15.515625 13.378906 15.632812 13.34375 15.679688 C 12.949219 15.878906 12.261719 15.429688 12.152344 16.035156 C 12.03125 16.667969 12.132812 16.363281 12.503906 16.515625 C 11.527344 16.863281 11.460938 17.574219 11.46875 18.488281 C 11.46875 18.753906 11.4375 19.023438 11.4375 19.292969 L 11.371094 19.285156 C 11.308594 19.277344 11.25 19.324219 11.242188 19.390625 L 11.335938 20.246094 C 11.328125 20.316406 11.371094 20.375 11.433594 20.382812 L 11.757812 20.425781 C 11.789062 20.570312 11.785156 20.757812 11.800781 20.921875 C 11.847656 21.378906 11.777344 21.507812 12.265625 21.5 C 12.546875 21.496094 12.832031 21.496094 13.117188 21.496094 C 14.132812 21.507812 13.890625 21.496094 13.992188 20.707031 L 16.773438 21.058594 C 16.78125 21.0625 16.8125 21.0625 16.820312 21.058594 L 19.597656 20.707031 C 19.703125 21.496094 19.457031 21.507812 20.472656 21.496094 C 20.757812 21.496094 21.042969 21.496094 21.328125 21.5 C 21.816406 21.507812 21.746094 21.378906 21.792969 20.921875 C 21.808594 20.757812 21.804688 20.570312 21.835938 20.425781 L 22.15625 20.382812 C 22.21875 20.375 22.265625 20.316406 22.257812 20.246094 L 22.347656 19.390625 C 22.34375 19.324219 22.285156 19.277344 22.222656 19.285156 Z M 18.5625 13.078125 C 17.898438 13.449219 17.140625 13.515625 16.433594 13.257812 C 15.738281 13.007812 15.175781 12.480469 14.851562 11.773438 C 14.523438 11.066406 14.46875 10.265625 14.703125 9.515625 C 14.925781 8.78125 15.402344 8.183594 16.035156 7.828125 C 16.699219 7.453125 17.453125 7.390625 18.164062 7.644531 C 19.597656 8.160156 20.371094 9.839844 19.894531 11.386719 C 19.839844 11.558594 19.773438 11.722656 19.695312 11.878906 C 19.664062 11.75 19.628906 11.628906 19.589844 11.511719 C 19.617188 11.445312 19.644531 11.375 19.664062 11.304688 C 20.097656 9.894531 19.390625 8.363281 18.085938 7.894531 C 17.441406 7.660156 16.75 7.71875 16.148438 8.058594 C 15.570312 8.382812 15.136719 8.929688 14.933594 9.597656 C 14.722656 10.28125 14.769531 11.011719 15.066406 11.65625 C 15.363281 12.300781 15.878906 12.78125 16.507812 13.007812 C 17.15625 13.242188 17.84375 13.183594 18.449219 12.84375 C 18.828125 12.628906 19.144531 12.320312 19.375 11.945312 C 19.402344 12.054688 19.421875 12.171875 19.4375 12.292969 C 19.203125 12.613281 18.90625 12.882812 18.5625 13.078125 Z M 18.953125 10.511719 C 18.769531 10.363281 18.5625 10.277344 18.339844 10.277344 C 18.179688 10.277344 18.023438 10.324219 17.875 10.410156 C 17.960938 10.515625 18.070312 10.597656 18.191406 10.648438 C 18.242188 10.632812 18.289062 10.625 18.339844 10.625 C 18.445312 10.625 18.542969 10.65625 18.636719 10.707031 C 18.484375 10.753906 18.320312 10.757812 18.160156 10.699219 C 17.742188 10.546875 17.515625 10.058594 17.65625 9.609375 C 17.796875 9.15625 18.246094 8.914062 18.664062 9.0625 C 19.082031 9.214844 19.308594 9.703125 19.171875 10.152344 C 19.125 10.296875 19.046875 10.414062 18.953125 10.511719 Z M 12.367188 20.125 C 12.234375 20.125 12.128906 20.007812 12.128906 19.867188 C 12.128906 19.726562 12.234375 19.613281 12.367188 19.613281 C 12.496094 19.613281 12.605469 19.726562 12.605469 19.867188 C 12.605469 20.007812 12.496094 20.125 12.367188 20.125 Z M 13.953125 19.035156 L 12.457031 18.90625 C 12.398438 18.902344 12.351562 18.84375 12.355469 18.78125 C 12.359375 18.714844 12.328125 18.667969 12.386719 18.671875 L 13.96875 18.796875 C 14.027344 18.804688 14.074219 18.859375 14.070312 18.925781 C 14.0625 18.992188 14.011719 19.039062 13.953125 19.035156 Z M 14.652344 18.414062 C 14.652344 18.484375 14.335938 18.695312 14.273438 18.695312 L 12.4375 18.539062 C 12.375 18.539062 12.324219 18.480469 12.324219 18.414062 L 12.324219 17.921875 C 12.324219 17.855469 12.375 17.800781 12.4375 17.800781 L 14.539062 17.800781 C 14.601562 17.800781 14.652344 17.855469 14.652344 17.921875 Z M 15.539062 19.707031 L 15.277344 19.660156 C 15.273438 19.660156 15.269531 19.660156 15.265625 19.660156 L 15.265625 17.722656 C 15.269531 17.722656 15.273438 17.722656 15.277344 17.722656 L 15.539062 17.722656 Z M 15.945312 19.777344 L 15.671875 19.730469 L 15.671875 17.722656 L 15.945312 17.722656 Z M 16.347656 19.847656 L 16.078125 19.800781 L 16.078125 17.722656 L 16.347656 17.722656 Z M 16.480469 19.867188 L 16.480469 19.03125 L 16.753906 19.207031 L 16.753906 19.910156 C 16.753906 19.910156 16.753906 19.914062 16.753906 19.914062 Z M 16.480469 18.433594 L 16.480469 17.722656 L 16.753906 17.722656 L 16.753906 18.269531 Z M 13.433594 16.390625 C 14.019531 15.328125 14.1875 14.957031 15.589844 14.957031 C 15.992188 14.957031 17.601562 14.957031 18.003906 14.957031 C 18.253906 14.957031 18.460938 14.96875 18.640625 14.992188 C 18.542969 15.046875 18.445312 15.078125 18.339844 15.078125 C 18.253906 15.078125 18.167969 15.054688 18.085938 15.015625 L 17.546875 15.015625 C 17.773438 15.273438 18.046875 15.425781 18.339844 15.425781 C 18.605469 15.425781 18.851562 15.304688 19.0625 15.097656 C 19.5625 15.289062 19.769531 15.6875 20.160156 16.390625 C 19.109375 16.390625 14.484375 16.390625 13.433594 16.390625 Z M 17.109375 19.867188 L 16.835938 19.914062 C 16.835938 19.914062 16.839844 19.910156 16.839844 19.910156 L 16.839844 19.207031 L 17.109375 19.03125 Z M 17.109375 18.433594 L 16.839844 18.269531 L 16.839844 17.722656 L 17.109375 17.722656 Z M 17.515625 19.800781 L 17.242188 19.847656 L 17.242188 17.722656 L 17.515625 17.722656 Z M 17.921875 19.730469 L 17.648438 19.777344 L 17.648438 17.722656 L 17.921875 17.722656 Z M 18.328125 19.660156 C 18.324219 19.660156 18.320312 19.660156 18.316406 19.660156 L 18.054688 19.707031 L 18.054688 17.722656 L 18.316406 17.722656 C 18.320312 17.722656 18.324219 17.722656 18.328125 17.722656 Z M 18.941406 18.414062 L 18.941406 17.921875 C 18.941406 17.855469 18.992188 17.800781 19.054688 17.800781 L 21.15625 17.800781 C 21.21875 17.800781 21.269531 17.855469 21.269531 17.921875 L 21.269531 18.414062 C 21.269531 18.484375 21.21875 18.539062 21.15625 18.539062 L 19.320312 18.695312 C 19.257812 18.695312 18.941406 18.484375 18.941406 18.414062 Z M 19.640625 19.035156 C 19.582031 19.039062 19.527344 18.992188 19.523438 18.925781 C 19.519531 18.859375 19.566406 18.804688 19.625 18.796875 L 21.207031 18.671875 C 21.265625 18.667969 21.230469 18.714844 21.238281 18.78125 C 21.242188 18.84375 21.195312 18.902344 21.136719 18.90625 Z M 21.226562 20.125 C 21.09375 20.125 20.988281 20.007812 20.988281 19.867188 C 20.988281 19.726562 21.09375 19.613281 21.226562 19.613281 C 21.355469 19.613281 21.464844 19.726562 21.464844 19.867188 C 21.464844 20.007812 21.355469 20.125 21.226562 20.125 Z M 21.226562 20.125 "/>
</g>
<path style=" stroke:none;fill-rule:nonzero;fill:rgb(0%,0%,0%);fill-opacity:1;" d="M 17.316406 13.792969 C 17.203125 13.792969 17.089844 13.789062 16.980469 13.777344 C 17.039062 14.054688 17.125 14.304688 17.230469 14.523438 L 17.601562 14.523438 C 17.484375 14.320312 17.386719 14.074219 17.316406 13.792969 Z M 17.316406 13.792969 "/>
</g>
</svg>
