<?xml version="1.0" encoding="UTF-8" standalone="no"?>
<svg
   xmlns:dc="http://purl.org/dc/elements/1.1/"
   xmlns:cc="http://creativecommons.org/ns#"
   xmlns:rdf="http://www.w3.org/1999/02/22-rdf-syntax-ns#"
   xmlns:svg="http://www.w3.org/2000/svg"
   xmlns="http://www.w3.org/2000/svg"
   xmlns:sodipodi="http://sodipodi.sourceforge.net/DTD/sodipodi-0.dtd"
   xmlns:inkscape="http://www.inkscape.org/namespaces/inkscape"
   height="44px"
   width="30px"
   version="1.1"
   viewBox="0 0 29.988946 43.988056"
   id="svg16"
   sodipodi:docname="new_Car Wash.svg"
   inkscape:version="0.92.5 (2060ec1f9f, 2020-04-08)">
  <metadata
     id="metadata20">
    <rdf:RDF>
      <cc:Work
         rdf:about="">
        <dc:format>image/svg+xml</dc:format>
        <dc:type
           rdf:resource="http://purl.org/dc/dcmitype/StillImage" />
        <dc:title></dc:title>
      </cc:Work>
    </rdf:RDF>
  </metadata>
  <sodipodi:namedview
     pagecolor="#ffffff"
     bordercolor="#666666"
     borderopacity="1"
     objecttolerance="10"
     gridtolerance="10"
     guidetolerance="10"
     inkscape:pageopacity="0"
     inkscape:pageshadow="2"
     inkscape:window-width="1680"
     inkscape:window-height="974"
     id="namedview18"
     showgrid="false"
     inkscape:zoom="4.0678609"
     inkscape:cx="8.9595113"
     inkscape:cy="101.91469"
     inkscape:window-x="0"
     inkscape:window-y="0"
     inkscape:window-maximized="1"
     inkscape:current-layer="svg8" />
  <defs
     id="defs7">
    <radialGradient
       id="a"
       gradientUnits="userSpaceOnUse"
       cy="127.6"
       cx="-42.75"
       gradientTransform="matrix(4.2749643,0,0,0.98162997,197.99835,-82.088795)"
       r="2.3840001">
      <stop
         stop-color="#010101"
         offset="0"
         id="stop2" />
      <stop
         stop-opacity="0"
         stop-color="#090909"
         offset="1"
         id="stop4" />
    </radialGradient>
  </defs>
  <g
     id="g26"
     transform="translate(-2.0760358e-7,-1.6181156)">
    <path
       style="fill:#5846c5;stroke-width:4.27539158"
       inkscape:connector-curvature="0"
       id="path9"
       d="m 14.994475,1.7046139 c -8.2386814,0 -14.91684341,6.6781619 -14.91684341,14.9168421 0.008545,2.561815 0.67294669,5.079165 1.93504231,7.306643 L 15.595595,42.53888 27.955752,23.983679 c 1.277915,-2.243725 1.951716,-4.779887 1.955563,-7.362223 C 29.911273,8.3827758 23.233154,1.7046139 14.994475,1.7046139 Z" />
    <circle
       style="fill:#f9f3f3;stroke-width:4.27539158"
       id="circle11"
       r="9.4272394"
       cx="14.994473"
       cy="16.668474" />
    <ellipse
       style="opacity:0.4;fill:url(#a);stroke-width:4.27496433"
       id="ellipse13"
       cx="14.994473"
       cy="43.18018"
       ry="2.3394945"
       rx="10.192533" />
    <rect
       style="fill:none;stroke-width:4.27539158"
       x="8.2585926"
       y="9.8278542"
       width="13.471761"
       height="13.36915"
       ry="0"
       rx="0"
       id="replace" />
    <svg
       version="1.1"
       x="8.5"
       y="10"
       viewBox="0 0 100 100"
       id="svg8"
       sodipodi:docname="Car Wash.svg"
       width="100"
       height="100"
       inkscape:version="0.92.5 (2060ec1f9f, 2020-04-08)">
      <metadata
         id="metadata14">
        <rdf:RDF>
          <cc:Work
             rdf:about="">
            <dc:format>image/svg+xml</dc:format>
            <dc:type
               rdf:resource="http://purl.org/dc/dcmitype/StillImage" />
            <dc:title />
          </cc:Work>
        </rdf:RDF>
      </metadata>
      <defs
         id="defs12" />
      <sodipodi:namedview
         pagecolor="#ffffff"
         bordercolor="#666666"
         borderopacity="1"
         objecttolerance="10"
         gridtolerance="10"
         guidetolerance="10"
         inkscape:pageopacity="0"
         inkscape:pageshadow="2"
         inkscape:window-width="1680"
         inkscape:window-height="884"
         id="namedview10"
         showgrid="false"
         inkscape:zoom="1.888"
         inkscape:cx="89.448538"
         inkscape:cy="62.5"
         inkscape:window-x="0"
         inkscape:window-y="0"
         inkscape:window-maximized="1"
         inkscape:current-layer="svg8" />
      <path
         d="m 6.4839198,2.3039272 c 0.423474,0 0.9946722,-0.3052954 0.9946722,-1.0045213 0,-0.46286764 -0.2757508,-0.77801153 -0.9946722,-1.79238128 -0.6795294,1.01436975 -0.9749769,1.32951364 -0.9749769,1.79238128 0,0.6992259 0.5515018,1.0045213 0.9749769,1.0045213 z M 3.5491416,3.2887521 c 0.4234744,0 0.9749767,-0.315144 0.9749767,-1.0143695 0,-0.462868 -0.2954475,-0.7780117 -0.9749767,-1.79238129 -0.7090737,1.00452139 -0.984825,1.32951329 -0.984825,1.79238129 0,0.6992255 0.5318057,1.0143695 0.984825,1.0143695 z m 5.8892516,-0.00985 c 0.4530195,0 0.9848258,-0.3052957 0.9848258,-1.0242177 0,-0.4530193 -0.265903,-0.7681634 -0.9848258,-1.77268471 C 8.758864,1.4865242 8.4634165,1.8016683 8.4634165,2.2546876 c 0,0.718922 0.5515027,1.0242177 0.9749767,1.0242177 z M 11.240624,6.8636665 H 10.295191 L 9.9603518,5.4553671 C 9.714144,4.4409976 9.4285454,4.2735771 7.8823705,4.2735771 H 5.0165308 c -1.4181481,0 -1.7529883,0.1575718 -1.9991944,1.18179 L 2.6726475,6.8636665 H 1.7370644 c -0.5515023,0 -0.5219575,1.2014861 -0.1378758,1.3393614 L 2.052208,8.3704485 v 4.2642905 c 0,0.285599 0.2166616,0.502261 0.5022608,0.502261 h 0.4825641 c 0.2855988,0 0.5022605,-0.216662 0.5022605,-0.502261 v -0.669681 c 1.5855678,0.0394 4.3529259,0.0394 5.8990998,0 v 0.669681 c 0,0.285599 0.216662,0.502261 0.5022616,0.502261 H 10.41337 c 0.2856,0 0.502261,-0.216662 0.502261,-0.502261 V 8.3802967 L 11.378499,8.2030279 C 11.782276,8.075001 11.801973,6.8636665 11.240624,6.8636665 Z M 3.6279275,9.98556 c -0.4136265,0 -0.7386185,-0.324992 -0.7386185,-0.7386188 0,-0.4333218 0.324992,-0.7484662 0.7386185,-0.7484662 0.4333232,0 0.7583152,0.3151444 0.7583152,0.7484662 0,0.4136268 -0.324992,0.7386188 -0.7583152,0.7386188 z m 5.6824391,0 c -0.4136262,0 -0.7484669,-0.324992 -0.7484669,-0.7386188 0,-0.4333218 0.3348407,-0.7484662 0.7484669,-0.7484662 0.4431707,0 0.7583154,0.3151444 0.7583154,0.7484662 0,0.4136268 -0.3151447,0.7386188 -0.7583154,0.7386188 z m 0,0"
         id="path2"
         inkscape:connector-curvature="0"
         style="fill:#000000;stroke:none;stroke-width:0.00984825;stroke-linecap:inherit;stroke-linejoin:inherit;stroke-dasharray:none" />
    </svg>
  </g>
</svg>
