<?xml version="1.0" encoding="UTF-8" standalone="no"?>
<svg xmlns="http://www.w3.org/2000/svg" height="40" width="26" version="1.1" xmlns:xlink="http://www.w3.org/1999/xlink">
 <path d="m13.04 0.6387c-6.783 0-12.43 5.649-12.43 11.78 0 2.757 1.613 6.26 2.779 8.68l9.611 17.73 9.56-17.73c1.166-2.42 2.824-5.747 2.824-8.68 0-6.128-5.555-11.78-12.34-11.78zm0 1.461c5.895 0.0373 10.68 4.656 10.68 10.33 0 5.678-4.781 10.23-10.68 10.27-5.895-0.0373-10.67-4.585-10.67-10.27 0-5.678 4.779-10.3 10.67-10.33z" stroke="#d45500" stroke-linecap="round" fill="#f60"/>
  <ellipse
     style="fill:#ffffff;stroke:#ffffff;stroke-width:1.00274992"
     id="path13"
     cx="13.003574"
     cy="12.374899"
     rx="10.005984"
     ry="9.6464386" />
<svg
   xmlns:dc="http://purl.org/dc/elements/1.1/"
   xmlns:cc="http://creativecommons.org/ns#"
   xmlns:rdf="http://www.w3.org/1999/02/22-rdf-syntax-ns#"
   xmlns:svg="http://www.w3.org/2000/svg"
   xmlns="http://www.w3.org/2000/svg"
   xmlns:sodipodi="http://sodipodi.sourceforge.net/DTD/sodipodi-0.dtd"
   xmlns:inkscape="http://www.inkscape.org/namespaces/inkscape"
   version="1.1"
   x="6.543"
   y="6.02"
   viewBox="0 0 25.802146 19.404033"
   enable-background="new 0 0 100 100"
   xml:space="preserve"
   id="svg2"
   inkscape:version="0.48.4 r9939"
   width="12.91"
   height="12.91"
   sodipodi:docname="Car Repair.svg"><metadata
     id="metadata30"><rdf:RDF><cc:Work
         rdf:about=""><dc:format>image/svg+xml</dc:format><dc:type
           rdf:resource="http://purl.org/dc/dcmitype/StillImage" /><dc:title></dc:title></cc:Work></rdf:RDF></metadata><defs
     id="defs28" /><sodipodi:namedview
     pagecolor="#ffffff"
     bordercolor="#666666"
     borderopacity="1"
     objecttolerance="10"
     gridtolerance="10"
     guidetolerance="10"
     inkscape:pageopacity="0"
     inkscape:pageshadow="2"
     inkscape:window-width="1322"
     inkscape:window-height="812"
     id="namedview26"
     showgrid="false"
     fit-margin-top="0"
     fit-margin-left="0"
     fit-margin-right="0"
     fit-margin-bottom="0"
     inkscape:zoom="14.481547"
     inkscape:cx="-1.1393764"
     inkscape:cy="2.6859031"
     inkscape:window-x="571"
     inkscape:window-y="110"
     inkscape:window-maximized="0"
     inkscape:current-layer="g10271" /><g
     id="g3217"
     transform="translate(-1260.3142,7571.2871)"><g
       id="g3355"
       transform="translate(0.52596752,-1.51338)"><g
         id="g3394"
         transform="translate(-1.304037,6.1068216)"><g
           id="g3432"
           transform="translate(1.3243604,-7.0685396)"><g
             id="g3490"
             transform="translate(14.50543,16.201175)"><g
               id="g3544"
               transform="translate(1.7832223,7.9070624)"><g
                 id="g3595"
                 transform="translate(9.5264836,-0.46901412)"><g
                   id="g3646"
                   transform="translate(-52.35165,-3.5880634)"><g
                     id="g3767"
                     transform="translate(6.0048559,8.7552768)"><g
                       id="g4075"
                       transform="translate(0.55239017,0.07303033)"><g
                         id="g4264"
                         transform="translate(3.0880737,-2.6377741)"><g
                           id="g4355"
                           transform="translate(8.4601992,5.328404)"><g
                             id="g4421"
                             transform="translate(-6.5255081,7.0858766)"><g
                               id="g4462"
                               transform="translate(25.518018,13.531166)"><g
                                 id="g4500"
                                 transform="translate(80.26127,-61.023322)"><g
                                   id="g5344"
                                   transform="translate(-17.614831,53.929153)"><g
                                   id="g5294"
                                   display="none"
                                   style="display:none"><rect
                                   id="rect5296"
                                   height="196"
                                   width="394.5"
                                   display="inline"
                                   y="-80.754997"
                                   x="-43.5"
                                   style="fill:#000000;display:inline" /></g><g
                                   id="g5316"
                                   display="none"
                                   style="display:none"><g
                                   id="g5318"
                                   display="inline"
                                   style="display:inline"><path
                                   id="path5320"
                                   d="M 1.581,10.718 H 30.418 L 16,1.051 1.581,10.718 z M 17.592,6.594 c 0,0.879 -0.713,1.592 -1.592,1.592 -0.879,0 -1.592,-0.713 -1.592,-1.592 0,-0.879 0.713,-1.592 1.592,-1.592 0.879,0 1.592,0.712 1.592,1.592 z"
                                   inkscape:connector-curvature="0" /><rect
                                   id="rect5322"
                                   height="3.0209999"
                                   width="31"
                                   y="28.030001"
                                   x="0.5" /><rect
                                   id="rect5324"
                                   height="11.875"
                                   width="3.0209999"
                                   y="13.363"
                                   x="3.6670001" /><rect
                                   id="rect5326"
                                   height="11.875"
                                   width="3.0209999"
                                   y="13.363"
                                   x="8.349" /><rect
                                   id="rect5328"
                                   height="11.875"
                                   width="3.0209999"
                                   y="13.363"
                                   x="20.629999" /><rect
                                   id="rect5330"
                                   height="11.875"
                                   width="3.0209999"
                                   y="13.363"
                                   x="25.312" /></g><path
                                   id="path5332"
                                   d="m 19.055,22.809 c -0.386,0.262 -1.035,0.524 -1.857,0.524 -1.01,0 -1.907,-0.386 -2.53,-1.11 -0.474,-0.524 -0.785,-1.246 -0.897,-2.144 h -0.773 v -0.611 h 0.711 c 0,-0.062 0,-0.125 0,-0.187 0,-0.2 0.012,-0.387 0.025,-0.561 h -0.735 v -0.624 h 0.823 c 0.15,-0.872 0.524,-1.595 1.022,-2.106 0.636,-0.66 1.446,-1.035 2.468,-1.035 0.735,0 1.309,0.212 1.658,0.399 l -0.249,0.822 c -0.312,-0.187 -0.835,-0.349 -1.396,-0.349 -0.673,0 -1.221,0.237 -1.645,0.685 -0.374,0.361 -0.623,0.922 -0.748,1.583 h 3.478 v 0.624 h -3.59 c -0.013,0.162 -0.025,0.349 -0.025,0.523 0,0.075 0,0.137 0,0.225 h 3.615 v 0.611 h -3.53 c 0.1,0.723 0.349,1.259 0.685,1.633 0.461,0.486 1.085,0.723 1.757,0.723 0.661,0 1.234,-0.249 1.521,-0.411 l 0.212,0.786 z"
                                   display="inline"
                                   inkscape:connector-curvature="0"
                                   style="display:inline" /></g><g
                                   id="g5453"
                                   transform="translate(-52.625356,-10.750909)"><g
                                   id="g5403"
                                   display="none"
                                   style="display:none"><rect
                                   id="rect5405"
                                   height="196"
                                   width="394.5"
                                   display="inline"
                                   y="-80.754997"
                                   x="-43.5"
                                   style="fill:#000000;display:inline" /></g><g
                                   id="g5425"
                                   display="none"
                                   style="display:none"><g
                                   id="g5427"
                                   display="inline"
                                   style="display:inline"><path
                                   id="path5429"
                                   d="M 1.581,10.718 H 30.418 L 16,1.051 1.581,10.718 z M 17.592,6.594 c 0,0.879 -0.713,1.592 -1.592,1.592 -0.879,0 -1.592,-0.713 -1.592,-1.592 0,-0.879 0.713,-1.592 1.592,-1.592 0.879,0 1.592,0.712 1.592,1.592 z"
                                   inkscape:connector-curvature="0" /><rect
                                   id="rect5431"
                                   height="3.0209999"
                                   width="31"
                                   y="28.030001"
                                   x="0.5" /><rect
                                   id="rect5433"
                                   height="11.875"
                                   width="3.0209999"
                                   y="13.363"
                                   x="3.6670001" /><rect
                                   id="rect5435"
                                   height="11.875"
                                   width="3.0209999"
                                   y="13.363"
                                   x="8.349" /><rect
                                   id="rect5437"
                                   height="11.875"
                                   width="3.0209999"
                                   y="13.363"
                                   x="20.629999" /><rect
                                   id="rect5439"
                                   height="11.875"
                                   width="3.0209999"
                                   y="13.363"
                                   x="25.312" /></g><path
                                   id="path5441"
                                   d="m 19.055,22.809 c -0.386,0.262 -1.035,0.524 -1.857,0.524 -1.01,0 -1.907,-0.386 -2.53,-1.11 -0.474,-0.524 -0.785,-1.246 -0.897,-2.144 h -0.773 v -0.611 h 0.711 c 0,-0.062 0,-0.125 0,-0.187 0,-0.2 0.012,-0.387 0.025,-0.561 h -0.735 v -0.624 h 0.823 c 0.15,-0.872 0.524,-1.595 1.022,-2.106 0.636,-0.66 1.446,-1.035 2.468,-1.035 0.735,0 1.309,0.212 1.658,0.399 l -0.249,0.822 c -0.312,-0.187 -0.835,-0.349 -1.396,-0.349 -0.673,0 -1.221,0.237 -1.645,0.685 -0.374,0.361 -0.623,0.922 -0.748,1.583 h 3.478 v 0.624 h -3.59 c -0.013,0.162 -0.025,0.349 -0.025,0.523 0,0.075 0,0.137 0,0.225 h 3.615 v 0.611 h -3.53 c 0.1,0.723 0.349,1.259 0.685,1.633 0.461,0.486 1.085,0.723 1.757,0.723 0.661,0 1.234,-0.249 1.521,-0.411 l 0.212,0.786 z"
                                   display="inline"
                                   inkscape:connector-curvature="0"
                                   style="display:inline" /></g><g
                                   id="g5911"
                                   transform="translate(34.803917,-34.731522)"><g
                                   id="g5969"
                                   transform="translate(-76.820846,20.463898)"><g
                                   id="g6024"
                                   transform="translate(-1.5269147,1.6004891)"><g
                                   id="g6071"
                                   transform="translate(7.3886843,1.0351706)"><g
                                   id="g6187"
                                   transform="translate(-0.71000052,-4.6322855)"><g
                                   id="g6263"
                                   transform="translate(-0.66737304,-5.3488176)"><g
                                   id="g6319"
                                   transform="translate(0.79720466,3.5647493)"><g
                                   id="g6384"
                                   transform="translate(-9.1472004,2.261335)"><g
                                   id="g6488"
                                   transform="translate(-2.0348122,-3.4042665)"><g
                                   id="g6516"
                                   transform="translate(-0.63832329,-2.3294036)"><g
                                   id="g6769"
                                   transform="translate(1565.7794,-3801.8487)"><g
                                   id="g6910"
                                   transform="translate(-308.09512,-3790.9493)"><g
                                   id="g6983"
                                   transform="translate(-14.231122,-15.611848)"><g
                                   id="g7151"
                                   transform="translate(33.267081,-22.491026)"><g
                                   id="g7382"
                                   transform="translate(-23.229266,23.886871)"><g
                                   id="g7549"
                                   transform="translate(14.444681,15.529545)"><g
                                   id="g7800"
                                   transform="translate(-10.517025,-15.548079)"><g
                                   id="g7999"
                                   transform="matrix(0.53445343,0,0,0.59502607,5.6563057,11.962949)"><g
                                   id="g8217"
                                   transform="matrix(0.65157633,0,0,0.66199506,14.891666,27.68312)"><g
                                   id="g8341"
                                   transform="matrix(0.81955739,0,0,0.8373697,16.904811,-6.2861215)"><g
                                   id="g8463"
                                   transform="matrix(1.0901467,0,0,0.7755316,14.691042,9.5565496)"><g
                                   id="g8628"
                                   transform="matrix(3.2141084,0,0,3.9092417,-42.983003,-211.13796)"><g
                                   id="g8709"
                                   transform="matrix(0.28046364,0,0,0.26137124,8.2602788,58.166419)"><g
                                   id="g8982"
                                   transform="matrix(0.85470616,0,0,0.82928987,-24.416347,-291.09779)"><g
                                   id="g9029"
                                   transform="matrix(0.56179905,0,0,0.59146659,71.827756,364.20217)"><g
                                   id="g9231"
                                   transform="matrix(1.6434845,0,0,1.6275903,-1.9010194,-26.060019)"><g
                                   id="g9437"
                                   transform="matrix(0.71903998,0,0,0.65801134,3.2171324,7.0571502)"><g
                                   id="g9598"
                                   transform="matrix(0.80108296,0,0,0.9233293,9.6403445,4.2821143)"><g
                                   id="g9708"
                                   transform="matrix(0.94363907,0,0,1.1480868,25.922318,9.4839725)"><g
                                   id="g9819"
                                   transform="matrix(1.095798,0,0,0.98226973,-24.771036,-19.505567)"><g
                                   id="g9923"
                                   transform="matrix(1.4565749,0,0,1.1402449,-4.0661436,-21.558968)"><g
                                   id="g10097"
                                   transform="matrix(0.11168619,0,0,0.17855319,5.2962471,-4.487068)"><g
                                   id="g10271"
                                   transform="matrix(13.365969,0,0,8.1997528,-133.46038,-213.50307)"><g
                                   id="g10189"><path
                                   id="path10191"
                                   d="m 5.5,76.3 c -1.1,3.5 0,4.6 0,4.6 h 4 c -0.1,-7.3 -4,-4.6 -4,-4.6 z"
                                   inkscape:connector-curvature="0"
                                   style="fill:#000000" /><path
                                   id="path10193"
                                   d="M 93.4,74.2 H 89 c -0.9,0 -1.6,0.7 -1.6,1.6 v 3.3 c 0,0.9 0.7,1.6 1.6,1.6 h 4.4 c 0.9,0 1.6,-0.7 1.6,-1.6 v -3.3 c 0,-0.9 -0.8,-1.6 -1.6,-1.6 z"
                                   inkscape:connector-curvature="0"
                                   style="fill:#000000" /><path
                                   id="path10195"
                                   d="m 72.8,60.1 c 0,0 -5.1,-15.8 -25.8,-15.8 -20.7,0 -25.6,16.8 -25.6,16.8 0,0 -16,0.8 -16,11.9 0,0 6.5,-2.2 6.5,7.9 h 8.3 c 1.1,-4.5 5.1,-7.9 10,-7.9 4.9,0 8.9,3.4 10,7.9 h 18.2 c 1.1,-4.5 5.1,-7.9 10,-7.9 4.9,0 8.9,3.4 10,7.9 h 2.3 4 0.3 v -5.6 c 0,-1.6 1.3,-2.8 2.8,-2.8 H 95 V 71 C 95,70.9 96.7,60.1 72.8,60.1 z M 26.7,61 c 0,0 1.4,-10.5 16.8,-12.3 l 0,12.3 H 26.7 z m 24.1,6.5 h -2.4 c -0.6,0 -1,-0.5 -1,-1 0,-0.5 0.5,-1 1,-1 h 2.4 c 0.6,0 1,0.5 1,1 0,0.5 -0.4,1 -1,1 z M 47.5,61 V 48.3 c 15.1,-1.9 21,12.7 21,12.7 h -21 z"
                                   inkscape:connector-curvature="0"
                                   style="fill:#000000" /><path
                                   id="path10197"
                                   d="m 30.3,75.8 c -4.1,0 -7.4,3.3 -7.4,7.4 0,4.1 3.3,7.4 7.4,7.4 4.1,0 7.4,-3.3 7.4,-7.4 0,-4.1 -3.3,-7.4 -7.4,-7.4 z m 0,11.5 c -2.2,0 -4.1,-1.8 -4.1,-4.1 0,-2.2 1.8,-4.1 4.1,-4.1 2.2,0 4.1,1.8 4.1,4.1 0,2.3 -1.8,4.1 -4.1,4.1 z"
                                   inkscape:connector-curvature="0"
                                   style="fill:#000000" /><path
                                   id="path10199"
                                   d="m 68.6,75.8 c -4.1,0 -7.4,3.3 -7.4,7.4 0,4.1 3.3,7.4 7.4,7.4 4.1,0 7.4,-3.3 7.4,-7.4 0,-4.1 -3.3,-7.4 -7.4,-7.4 z m 0,11.5 c -2.2,0 -4.1,-1.8 -4.1,-4.1 0,-2.2 1.8,-4.1 4.1,-4.1 2.2,0 4.1,1.8 4.1,4.1 0,2.3 -1.8,4.1 -4.1,4.1 z"
                                   inkscape:connector-curvature="0"
                                   style="fill:#000000" /><circle
                                   id="circle10201"
                                   r="1.5"
                                   cy="26.5"
                                   cx="43.400002"
                                   sodipodi:cx="43.400002"
                                   sodipodi:cy="26.5"
                                   sodipodi:rx="1.5"
                                   sodipodi:ry="1.5"
                                   style="fill:#000000"
                                   d="m 44.900002,26.5 c 0,0.828427 -0.671573,1.5 -1.5,1.5 -0.828428,0 -1.5,-0.671573 -1.5,-1.5 0,-0.828427 0.671572,-1.5 1.5,-1.5 0.828427,0 1.5,0.671573 1.5,1.5 z" /><circle
                                   id="circle10203"
                                   r="1.5"
                                   cy="32"
                                   cx="43.400002"
                                   sodipodi:cx="43.400002"
                                   sodipodi:cy="32"
                                   sodipodi:rx="1.5"
                                   sodipodi:ry="1.5"
                                   style="fill:#000000"
                                   d="m 44.900002,32 c 0,0.828427 -0.671573,1.5 -1.5,1.5 -0.828428,0 -1.5,-0.671573 -1.5,-1.5 0,-0.828427 0.671572,-1.5 1.5,-1.5 0.828427,0 1.5,0.671573 1.5,1.5 z" /><circle
                                   id="circle10205"
                                   r="1.5"
                                   cy="37.5"
                                   cx="43.400002"
                                   sodipodi:cx="43.400002"
                                   sodipodi:cy="37.5"
                                   sodipodi:rx="1.5"
                                   sodipodi:ry="1.5"
                                   style="fill:#000000"
                                   d="m 44.900002,37.5 c 0,0.828427 -0.671573,1.5 -1.5,1.5 -0.828428,0 -1.5,-0.671573 -1.5,-1.5 0,-0.828427 0.671572,-1.5 1.5,-1.5 0.828427,0 1.5,0.671573 1.5,1.5 z" /><circle
                                   id="circle10207"
                                   r="1.5"
                                   cy="26.5"
                                   cx="50"
                                   sodipodi:cx="50"
                                   sodipodi:cy="26.5"
                                   sodipodi:rx="1.5"
                                   sodipodi:ry="1.5"
                                   style="fill:#000000"
                                   d="m 51.5,26.5 c 0,0.828427 -0.671573,1.5 -1.5,1.5 -0.828427,0 -1.5,-0.671573 -1.5,-1.5 0,-0.828427 0.671573,-1.5 1.5,-1.5 0.828427,0 1.5,0.671573 1.5,1.5 z" /><circle
                                   id="circle10209"
                                   r="1.5"
                                   cy="32"
                                   cx="50"
                                   sodipodi:cx="50"
                                   sodipodi:cy="32"
                                   sodipodi:rx="1.5"
                                   sodipodi:ry="1.5"
                                   style="fill:#000000"
                                   d="m 51.5,32 c 0,0.828427 -0.671573,1.5 -1.5,1.5 -0.828427,0 -1.5,-0.671573 -1.5,-1.5 0,-0.828427 0.671573,-1.5 1.5,-1.5 0.828427,0 1.5,0.671573 1.5,1.5 z" /><circle
                                   id="circle10211"
                                   r="1.5"
                                   cy="37.5"
                                   cx="50"
                                   sodipodi:cx="50"
                                   sodipodi:cy="37.5"
                                   sodipodi:rx="1.5"
                                   sodipodi:ry="1.5"
                                   style="fill:#000000"
                                   d="m 51.5,37.5 c 0,0.828427 -0.671573,1.5 -1.5,1.5 -0.828427,0 -1.5,-0.671573 -1.5,-1.5 0,-0.828427 0.671573,-1.5 1.5,-1.5 0.828427,0 1.5,0.671573 1.5,1.5 z" /><circle
                                   id="circle10213"
                                   r="1.5"
                                   cy="26.5"
                                   cx="56.5"
                                   sodipodi:cx="56.5"
                                   sodipodi:cy="26.5"
                                   sodipodi:rx="1.5"
                                   sodipodi:ry="1.5"
                                   style="fill:#000000"
                                   d="M 58,26.5 C 58,27.328427 57.328427,28 56.5,28 55.671573,28 55,27.328427 55,26.5 55,25.671573 55.671573,25 56.5,25 c 0.828427,0 1.5,0.671573 1.5,1.5 z" /><circle
                                   id="circle10215"
                                   r="1.5"
                                   cy="32"
                                   cx="56.5"
                                   sodipodi:cx="56.5"
                                   sodipodi:cy="32"
                                   sodipodi:rx="1.5"
                                   sodipodi:ry="1.5"
                                   style="fill:#000000"
                                   d="m 58,32 c 0,0.828427 -0.671573,1.5 -1.5,1.5 -0.828427,0 -1.5,-0.671573 -1.5,-1.5 0,-0.828427 0.671573,-1.5 1.5,-1.5 0.828427,0 1.5,0.671573 1.5,1.5 z" /><circle
                                   id="circle10217"
                                   r="1.5"
                                   cy="37.5"
                                   cx="56.5"
                                   sodipodi:cx="56.5"
                                   sodipodi:cy="37.5"
                                   sodipodi:rx="1.5"
                                   sodipodi:ry="1.5"
                                   style="fill:#000000"
                                   d="M 58,37.5 C 58,38.328427 57.328427,39 56.5,39 55.671573,39 55,38.328427 55,37.5 55,36.671573 55.671573,36 56.5,36 c 0.828427,0 1.5,0.671573 1.5,1.5 z" /><path
                                   id="path10219"
                                   d="m 60.5,15.5 h -2.8 v -3.1 c 0,-1.7 -1.4,-3.1 -3.1,-3.1 h -10 c -1.7,0 -3.1,1.4 -3.1,3.1 v 3.1 h -2.8 c -3.3,0 -6,2.7 -6,6 h 33.8 c 0.1,-3.3 -2.6,-6 -6,-6 z"
                                   inkscape:connector-curvature="0"
                                   style="fill:#000000" /><path
                                   id="path10221"
                                   d="m 91.3,27.7 1,-1 c 1.2,-1.2 1.2,-3 0,-4.2 -1.2,-1.2 -3,-1.2 -4.2,0 L 87,23.6 C 84.8,22.7 82.2,23.2 80.5,25 l 9.5,9.5 c 1.8,-1.9 2.3,-4.5 1.3,-6.8 z"
                                   inkscape:connector-curvature="0"
                                   style="fill:#000000" /><circle
                                   id="circle10223"
                                   r="1.5"
                                   cy="32.700001"
                                   cx="82.5"
                                   sodipodi:cx="82.5"
                                   sodipodi:cy="32.700001"
                                   sodipodi:rx="1.5"
                                   sodipodi:ry="1.5"
                                   style="fill:#000000"
                                   d="m 84,32.700001 c 0,0.828427 -0.671573,1.5 -1.5,1.5 -0.828427,0 -1.5,-0.671573 -1.5,-1.5 0,-0.828427 0.671573,-1.5 1.5,-1.5 0.828427,0 1.5,0.671573 1.5,1.5 z" /><circle
                                   id="circle10225"
                                   r="1.5"
                                   cy="36.599998"
                                   cx="78.599998"
                                   sodipodi:cx="78.599998"
                                   sodipodi:cy="36.599998"
                                   sodipodi:rx="1.5"
                                   sodipodi:ry="1.5"
                                   style="fill:#000000"
                                   d="m 80.099998,36.599998 c 0,0.828428 -0.671572,1.5 -1.5,1.5 -0.828427,0 -1.5,-0.671572 -1.5,-1.5 0,-0.828427 0.671573,-1.5 1.5,-1.5 0.828428,0 1.5,0.671573 1.5,1.5 z" /><circle
                                   id="circle10227"
                                   r="1.5"
                                   cy="40.5"
                                   cx="74.800003"
                                   sodipodi:cx="74.800003"
                                   sodipodi:cy="40.5"
                                   sodipodi:rx="1.5"
                                   sodipodi:ry="1.5"
                                   style="fill:#000000"
                                   d="m 76.300003,40.5 c 0,0.828427 -0.671573,1.5 -1.5,1.5 -0.828427,0 -1.5,-0.671573 -1.5,-1.5 0,-0.828427 0.671573,-1.5 1.5,-1.5 0.828427,0 1.5,0.671573 1.5,1.5 z" /><circle
                                   id="circle10229"
                                   r="1.5"
                                   cy="28.799999"
                                   cx="78.800003"
                                   sodipodi:cx="78.800003"
                                   sodipodi:cy="28.799999"
                                   sodipodi:rx="1.5"
                                   sodipodi:ry="1.5"
                                   style="fill:#000000"
                                   d="m 80.300003,28.799999 c 0,0.828427 -0.671573,1.5 -1.5,1.5 -0.828427,0 -1.5,-0.671573 -1.5,-1.5 0,-0.828427 0.671573,-1.5 1.5,-1.5 0.828427,0 1.5,0.671573 1.5,1.5 z" /><circle
                                   id="circle10231"
                                   r="1.5"
                                   cy="31.5"
                                   cx="74"
                                   sodipodi:cx="74"
                                   sodipodi:cy="31.5"
                                   sodipodi:rx="1.5"
                                   sodipodi:ry="1.5"
                                   style="fill:#000000"
                                   d="m 75.5,31.5 c 0,0.828427 -0.671573,1.5 -1.5,1.5 -0.828427,0 -1.5,-0.671573 -1.5,-1.5 0,-0.828427 0.671573,-1.5 1.5,-1.5 0.828427,0 1.5,0.671573 1.5,1.5 z" /><circle
                                   id="circle10233"
                                   r="1.5"
                                   cy="34.200001"
                                   cx="69.300003"
                                   sodipodi:cx="69.300003"
                                   sodipodi:cy="34.200001"
                                   sodipodi:rx="1.5"
                                   sodipodi:ry="1.5"
                                   style="fill:#000000"
                                   d="m 70.800003,34.200001 c 0,0.828427 -0.671573,1.5 -1.5,1.5 -0.828427,0 -1.5,-0.671573 -1.5,-1.5 0,-0.828427 0.671573,-1.5 1.5,-1.5 0.828427,0 1.5,0.671573 1.5,1.5 z" /><circle
                                   id="circle10235"
                                   r="1.5"
                                   cy="36.599998"
                                   cx="86.599998"
                                   sodipodi:cx="86.599998"
                                   sodipodi:cy="36.599998"
                                   sodipodi:rx="1.5"
                                   sodipodi:ry="1.5"
                                   style="fill:#000000"
                                   d="m 88.099998,36.599998 c 0,0.828428 -0.671572,1.5 -1.5,1.5 -0.828427,0 -1.5,-0.671572 -1.5,-1.5 0,-0.828427 0.671573,-1.5 1.5,-1.5 0.828428,0 1.5,0.671573 1.5,1.5 z" /><circle
                                   id="circle10237"
                                   r="1.5"
                                   cy="41.400002"
                                   cx="83.900002"
                                   sodipodi:cx="83.900002"
                                   sodipodi:cy="41.400002"
                                   sodipodi:rx="1.5"
                                   sodipodi:ry="1.5"
                                   style="fill:#000000"
                                   d="m 85.400002,41.400002 c 0,0.828427 -0.671573,1.5 -1.5,1.5 -0.828428,0 -1.5,-0.671573 -1.5,-1.5 0,-0.828428 0.671572,-1.5 1.5,-1.5 0.828427,0 1.5,0.671572 1.5,1.5 z" /><circle
                                   id="circle10239"
                                   r="1.5"
                                   cy="46.099998"
                                   cx="81.099998"
                                   sodipodi:cx="81.099998"
                                   sodipodi:cy="46.099998"
                                   sodipodi:rx="1.5"
                                   sodipodi:ry="1.5"
                                   style="fill:#000000"
                                   d="m 82.599998,46.099998 c 0,0.828428 -0.671572,1.5 -1.5,1.5 -0.828427,0 -1.5,-0.671572 -1.5,-1.5 0,-0.828427 0.671573,-1.5 1.5,-1.5 0.828428,0 1.5,0.671573 1.5,1.5 z" /><path
                                   id="path10241"
                                   d="m 8,27.7 c -1,2.2 -0.5,4.9 1.3,6.7 l 9.5,-9.5 C 17,23.1 14.5,22.7 12.3,23.5 l -1.1,-1.1 c -1.2,-1.2 -3,-1.2 -4.2,0 -1.2,1.2 -1.2,3 0,4.2 l 1,1.1 z"
                                   inkscape:connector-curvature="0"
                                   style="fill:#000000" /><circle
                                   id="circle10243"
                                   r="1.5"
                                   cy="32.700001"
                                   cx="16.799999"
                                   sodipodi:cx="16.799999"
                                   sodipodi:cy="32.700001"
                                   sodipodi:rx="1.5"
                                   sodipodi:ry="1.5"
                                   style="fill:#000000"
                                   d="m 18.299999,32.700001 c 0,0.828427 -0.671573,1.5 -1.5,1.5 -0.828427,0 -1.5,-0.671573 -1.5,-1.5 0,-0.828427 0.671573,-1.5 1.5,-1.5 0.828427,0 1.5,0.671573 1.5,1.5 z" /><circle
                                   id="circle10245"
                                   r="1.5"
                                   cy="36.599998"
                                   cx="20.6"
                                   sodipodi:cx="20.6"
                                   sodipodi:cy="36.599998"
                                   sodipodi:rx="1.5"
                                   sodipodi:ry="1.5"
                                   style="fill:#000000"
                                   d="m 22.1,36.599998 c 0,0.828428 -0.671572,1.5 -1.5,1.5 -0.828427,0 -1.5,-0.671572 -1.5,-1.5 0,-0.828427 0.671573,-1.5 1.5,-1.5 0.828428,0 1.5,0.671573 1.5,1.5 z" /><circle
                                   id="circle10247"
                                   r="1.5"
                                   cy="40.5"
                                   cx="24.5"
                                   sodipodi:cx="24.5"
                                   sodipodi:cy="40.5"
                                   sodipodi:rx="1.5"
                                   sodipodi:ry="1.5"
                                   style="fill:#000000"
                                   d="M 26,40.5 C 26,41.328427 25.328427,42 24.5,42 23.671573,42 23,41.328427 23,40.5 23,39.671573 23.671573,39 24.5,39 c 0.828427,0 1.5,0.671573 1.5,1.5 z" /><circle
                                   id="circle10249"
                                   r="1.5"
                                   cy="28.799999"
                                   cx="20.5"
                                   sodipodi:cx="20.5"
                                   sodipodi:cy="28.799999"
                                   sodipodi:rx="1.5"
                                   sodipodi:ry="1.5"
                                   style="fill:#000000"
                                   d="m 22,28.799999 c 0,0.828427 -0.671573,1.5 -1.5,1.5 -0.828427,0 -1.5,-0.671573 -1.5,-1.5 0,-0.828427 0.671573,-1.5 1.5,-1.5 0.828427,0 1.5,0.671573 1.5,1.5 z" /><circle
                                   id="circle10251"
                                   r="1.5"
                                   cy="31.5"
                                   cx="25.299999"
                                   sodipodi:cx="25.299999"
                                   sodipodi:cy="31.5"
                                   sodipodi:rx="1.5"
                                   sodipodi:ry="1.5"
                                   style="fill:#000000"
                                   d="m 26.799999,31.5 c 0,0.828427 -0.671573,1.5 -1.5,1.5 -0.828427,0 -1.5,-0.671573 -1.5,-1.5 0,-0.828427 0.671573,-1.5 1.5,-1.5 0.828427,0 1.5,0.671573 1.5,1.5 z" /><circle
                                   id="circle10253"
                                   r="1.5"
                                   cy="34.200001"
                                   cx="30"
                                   sodipodi:cx="30"
                                   sodipodi:cy="34.200001"
                                   sodipodi:rx="1.5"
                                   sodipodi:ry="1.5"
                                   style="fill:#000000"
                                   d="m 31.5,34.200001 c 0,0.828427 -0.671573,1.5 -1.5,1.5 -0.828427,0 -1.5,-0.671573 -1.5,-1.5 0,-0.828427 0.671573,-1.5 1.5,-1.5 0.828427,0 1.5,0.671573 1.5,1.5 z" /><circle
                                   id="circle10255"
                                   r="1.5"
                                   cy="36.599998"
                                   cx="12.7"
                                   sodipodi:cx="12.7"
                                   sodipodi:cy="36.599998"
                                   sodipodi:rx="1.5"
                                   sodipodi:ry="1.5"
                                   style="fill:#000000"
                                   d="m 14.2,36.599998 c 0,0.828428 -0.671573,1.5 -1.5,1.5 -0.828427,0 -1.5,-0.671572 -1.5,-1.5 0,-0.828427 0.671573,-1.5 1.5,-1.5 0.828427,0 1.5,0.671573 1.5,1.5 z" /><circle
                                   id="circle10257"
                                   r="1.5"
                                   cy="41.400002"
                                   cx="15.4"
                                   sodipodi:cx="15.4"
                                   sodipodi:cy="41.400002"
                                   sodipodi:rx="1.5"
                                   sodipodi:ry="1.5"
                                   style="fill:#000000"
                                   d="m 16.9,41.400002 c 0,0.828427 -0.671573,1.5 -1.5,1.5 -0.828428,0 -1.5,-0.671573 -1.5,-1.5 0,-0.828428 0.671572,-1.5 1.5,-1.5 0.828427,0 1.5,0.671572 1.5,1.5 z" /><circle
                                   id="circle10259"
                                   r="1.5"
                                   cy="46.099998"
                                   cx="18.200001"
                                   sodipodi:cx="18.200001"
                                   sodipodi:cy="46.099998"
                                   sodipodi:rx="1.5"
                                   sodipodi:ry="1.5"
                                   style="fill:#000000"
                                   d="m 19.700001,46.099998 c 0,0.828428 -0.671573,1.5 -1.5,1.5 -0.828427,0 -1.5,-0.671572 -1.5,-1.5 0,-0.828427 0.671573,-1.5 1.5,-1.5 0.828427,0 1.5,0.671573 1.5,1.5 z" /></g></g></g></g></g></g></g></g></g></g></g></g></g></g></g></g></g></g></g></g></g></g></g></g></g></g></g></g></g></g></g></g></g></g></g></g></g></g></g></g></g></g></g></g></g></g></g></g></g></g></g></svg></svg>
