<?xml version="1.0" encoding="UTF-8"?>
<svg xmlns="http://www.w3.org/2000/svg" xmlns:xlink="http://www.w3.org/1999/xlink" width="30px" height="46px" viewBox="0 0 30 46" version="1.1">
<defs>
<clipPath id="clip1">
  <path d="M 7.550781 13 L 22.445312 13 L 22.445312 20 L 7.550781 20 Z M 7.550781 13 "/>
</clipPath>
</defs>
<g id="surface1">
<path style="fill-rule:nonzero;fill:rgb(100%,40.000001%,0%);fill-opacity:1;stroke-width:1;stroke-linecap:round;stroke-linejoin:miter;stroke:rgb(83.137256%,33.333334%,0%);stroke-opacity:1;stroke-miterlimit:4;" d="M 13.040625 0.638587 C 6.25625 0.638587 0.609375 6.287364 0.609375 12.418478 C 0.609375 15.17663 2.224219 18.678668 3.388802 21.097147 L 13 38.828125 L 22.560417 21.097147 C 23.725 18.678668 25.383854 15.353261 25.383854 12.418478 C 25.383854 6.290761 19.828385 0.638587 13.04401 0.638587 Z M 13.040625 2.099185 C 18.934635 2.136549 23.721615 6.756114 23.721615 12.428668 C 23.721615 18.108016 18.938021 22.659647 13.040625 22.700408 C 7.146615 22.663043 2.369792 18.11481 2.369792 12.428668 C 2.369792 6.752717 7.15 2.129755 13.040625 2.099185 Z M 13.040625 2.099185 " transform="matrix(1.153846,0,0,1.15,0,0)"/>
<path style="fill-rule:nonzero;fill:rgb(100%,100%,100%);fill-opacity:1;stroke-width:1.00275;stroke-linecap:butt;stroke-linejoin:miter;stroke:rgb(100%,100%,100%);stroke-opacity:1;stroke-miterlimit:4;" d="M 23.010677 12.374321 C 23.010677 17.703804 18.528385 22.02106 13.003385 22.02106 C 7.478385 22.02106 2.996094 17.703804 2.996094 12.374321 C 2.996094 7.048234 7.478385 2.727582 13.003385 2.727582 C 18.528385 2.727582 23.010677 7.048234 23.010677 12.374321 Z M 23.010677 12.374321 " transform="matrix(1.153846,0,0,1.15,0,0)"/>
<path style=" stroke:none;fill-rule:evenodd;fill:rgb(0%,0%,0%);fill-opacity:1;" d="M 11.625 11.898438 C 11.203125 11.296875 11.039062 10.339844 10.746094 9.539062 C 10.207031 9.054688 9.667969 9.835938 9.179688 9.804688 C 9.335938 8.855469 10.304688 7.832031 11.433594 8.335938 C 12.003906 8.589844 12.710938 9.191406 13.496094 9.226562 C 14.414062 9.265625 15.480469 9.148438 16.472656 9.09375 C 17.539062 9.035156 18.5625 9.003906 19.449219 8.957031 C 20.269531 8.917969 20.703125 8.925781 20.863281 9.804688 C 20.792969 11.011719 19.464844 10.660156 18.457031 10.605469 C 17.476562 10.550781 16.160156 10.65625 15.023438 10.605469 C 14.289062 10.574219 13.507812 10.476562 13.035156 10.605469 C 12.34375 10.792969 12.085938 11.351562 11.625 11.898438 Z M 20.136719 10.472656 C 20.761719 10.40625 20.777344 9.035156 19.984375 9.179688 C 19.183594 9.328125 19.488281 10.542969 20.136719 10.472656 Z M 12.3125 9.625 C 11.96875 9.546875 11.6875 9.78125 11.433594 9.9375 C 11.601562 10.21875 11.585938 10.707031 11.855469 10.875 C 11.84375 10.699219 11.992188 10.707031 11.96875 10.515625 C 11.910156 10.347656 11.792969 10.246094 11.777344 10.027344 C 11.890625 9.90625 11.996094 9.777344 12.195312 9.761719 C 12.242188 9.957031 12.292969 10.152344 12.425781 10.25 C 12.367188 10.449219 12.140625 10.449219 12.082031 10.652344 C 12.335938 10.746094 12.632812 10.527344 12.730469 10.292969 C 12.523438 10.203125 12.539062 9.398438 12.3125 9.625 Z M 12.3125 9.625 "/>
<path style=" stroke:none;fill-rule:evenodd;fill:rgb(0%,0%,0%);fill-opacity:1;" d="M 10.976562 11.097656 C 10.449219 11.183594 9.683594 11.148438 9.449219 10.5625 C 9.792969 10.382812 10.277344 10.136719 10.554688 10.027344 C 10.796875 10.242188 10.941406 10.789062 10.976562 11.097656 Z M 10.976562 11.097656 "/>
<g clip-path="url(#clip1)" clip-rule="nonzero">
<path style=" stroke:none;fill-rule:evenodd;fill:rgb(0%,0%,0%);fill-opacity:1;" d="M 21.28125 19.019531 C 21.15625 17.929688 20.542969 17.136719 19.601562 17.238281 C 18.695312 17.339844 18.207031 18.316406 18.265625 19.332031 C 16.402344 19.335938 13.523438 19.328125 11.664062 19.332031 C 12.027344 16.847656 8.6875 16.519531 8.648438 19.066406 C 8.28125 19.117188 7.882812 18.832031 7.617188 18.621094 C 7.363281 17.757812 7.878906 17.152344 8.226562 16.707031 C 8.734375 16.507812 9.28125 16.359375 9.90625 16.214844 C 10.480469 16.085938 11.167969 16.078125 11.699219 15.859375 C 12.085938 15.699219 12.503906 15.230469 12.847656 14.878906 C 13.496094 14.21875 13.957031 13.558594 15.136719 13.457031 C 16.164062 13.367188 17.667969 13.285156 18.496094 13.632812 C 18.886719 13.796875 19.464844 14.277344 19.832031 14.570312 C 20.246094 14.898438 20.621094 15.261719 21.089844 15.59375 C 21.386719 15.617188 21.773438 15.539062 22.007812 15.636719 C 22.574219 15.976562 22.492188 17.566406 22.3125 18.351562 C 22.003906 18.613281 21.703125 18.886719 21.28125 19.019531 Z M 16.320312 13.902344 C 16.175781 14.410156 16.273438 15.132812 16.28125 15.636719 C 17.101562 15.746094 18.3125 15.625 19.257812 15.59375 C 18.71875 14.546875 17.878906 13.613281 16.320312 13.902344 Z M 13.113281 15.058594 C 12.890625 15.308594 12.648438 15.507812 12.578125 15.769531 C 13.515625 15.800781 14.691406 15.746094 15.710938 15.726562 C 15.683594 15.132812 15.757812 14.421875 15.671875 13.902344 C 14.207031 13.675781 13.726562 14.371094 13.113281 15.058594 Z M 13.113281 15.058594 "/>
</g>
<path style=" stroke:none;fill-rule:evenodd;fill:rgb(0%,0%,0%);fill-opacity:1;" d="M 11.394531 18.53125 C 11.550781 19.675781 11.003906 20.3125 10.210938 20.492188 C 9.039062 20.511719 8.535156 18.742188 9.335938 17.863281 C 10.101562 17.175781 11.140625 17.722656 11.394531 18.53125 Z M 9.296875 18.753906 C 9.179688 19.410156 9.570312 19.933594 9.984375 20 C 10.699219 20.117188 11.285156 19.34375 10.898438 18.351562 C 10.421875 17.683594 9.429688 18.003906 9.296875 18.753906 Z M 9.296875 18.753906 "/>
<path style=" stroke:none;fill-rule:evenodd;fill:rgb(0%,0%,0%);fill-opacity:1;" d="M 19.449219 17.597656 C 20.398438 17.34375 21.0625 18.101562 21.015625 19.109375 C 20.96875 20.074219 20.242188 20.496094 19.640625 20.445312 C 18.222656 20.332031 18.167969 17.9375 19.449219 17.597656 Z M 19.566406 20 C 19.972656 20.074219 20.484375 19.78125 20.59375 19.378906 C 20.953125 18.089844 19.363281 17.453125 18.914062 18.621094 C 18.839844 19.351562 19.101562 19.917969 19.566406 20 Z M 19.566406 20 "/>
<path style=" stroke:none;fill-rule:evenodd;fill:rgb(0%,0%,0%);fill-opacity:1;" d="M 10.632812 18.441406 C 10.78125 18.859375 10.828125 19.183594 10.59375 19.554688 C 9.207031 20.320312 9.394531 17.558594 10.632812 18.441406 Z M 10.632812 18.441406 "/>
<path style=" stroke:none;fill-rule:evenodd;fill:rgb(0%,0%,0%);fill-opacity:1;" d="M 19.945312 19.6875 C 18.808594 19.832031 19.003906 18.105469 19.871094 18.265625 C 20.472656 18.375 20.554688 19.414062 19.945312 19.6875 Z M 19.945312 19.6875 "/>
</g>
</svg>
