<?xml version="1.0" encoding="UTF-8" standalone="no"?>
<svg xmlns="http://www.w3.org/2000/svg" height="40" width="26" version="1.1" xmlns:xlink="http://www.w3.org/1999/xlink">
 <path d="m13.04 0.6387c-6.783 0-12.43 5.649-12.43 11.78 0 2.757 1.613 6.26 2.779 8.68l9.611 17.73 9.56-17.73c1.166-2.42 2.824-5.747 2.824-8.68 0-6.128-5.555-11.78-12.34-11.78zm0 1.461c5.895 0.0373 10.68 4.656 10.68 10.33 0 5.678-4.781 10.23-10.68 10.27-5.895-0.0373-10.67-4.585-10.67-10.27 0-5.678 4.779-10.3 10.67-10.33z" stroke="#d45500" stroke-linecap="round" fill="#f60"/>
  <ellipse
     style="fill:#ffffff;stroke:#ffffff;stroke-width:1.00274992"
     id="path13"
     cx="13.003574"
     cy="12.374899"
     rx="10.005984"
     ry="9.6464386" />
<svg
   xmlns:dc="http://purl.org/dc/elements/1.1/"
   xmlns:cc="http://creativecommons.org/ns#"
   xmlns:rdf="http://www.w3.org/1999/02/22-rdf-syntax-ns#"
   xmlns:svg="http://www.w3.org/2000/svg"
   xmlns="http://www.w3.org/2000/svg"
   xmlns:sodipodi="http://sodipodi.sourceforge.net/DTD/sodipodi-0.dtd"
   xmlns:inkscape="http://www.inkscape.org/namespaces/inkscape"
   version="1.1"
   x="6.543"
   y="6.02"
   viewBox="0 0 12.393286 10.257908"
   enable-background="new 0 0 100 100"
   xml:space="preserve"
   id="svg2"
   inkscape:version="0.48.4 r9939"
   width="12.91"
   height="12.91"
   sodipodi:docname="Bus Stop.svg"><metadata
     id="metadata30"><rdf:RDF><cc:Work
         rdf:about=""><dc:format>image/svg+xml</dc:format><dc:type
           rdf:resource="http://purl.org/dc/dcmitype/StillImage" /><dc:title></dc:title></cc:Work></rdf:RDF></metadata><defs
     id="defs28" /><sodipodi:namedview
     pagecolor="#ffffff"
     bordercolor="#666666"
     borderopacity="1"
     objecttolerance="10"
     gridtolerance="10"
     guidetolerance="10"
     inkscape:pageopacity="0"
     inkscape:pageshadow="2"
     inkscape:window-width="1322"
     inkscape:window-height="812"
     id="namedview26"
     showgrid="false"
     fit-margin-top="0"
     fit-margin-left="0"
     fit-margin-right="0"
     fit-margin-bottom="0"
     inkscape:zoom="20.48"
     inkscape:cx="-1.4365472"
     inkscape:cy="5.4492066"
     inkscape:window-x="571"
     inkscape:window-y="110"
     inkscape:window-maximized="0"
     inkscape:current-layer="g10097" /><g
     id="g3217"
     transform="translate(-1264.5304,7562.4664)"><g
       id="g3355"
       transform="translate(0.52596752,-1.51338)"><g
         id="g3394"
         transform="translate(-1.304037,6.1068216)"><g
           id="g3432"
           transform="translate(1.3243604,-7.0685396)"><g
             id="g3490"
             transform="translate(14.50543,16.201175)"><g
               id="g3544"
               transform="translate(1.7832223,7.9070624)"><g
                 id="g3595"
                 transform="translate(9.5264836,-0.46901412)"><g
                   id="g3646"
                   transform="translate(-52.35165,-3.5880634)"><g
                     id="g3767"
                     transform="translate(6.0048559,8.7552768)"><g
                       id="g4075"
                       transform="translate(0.55239017,0.07303033)"><g
                         id="g4264"
                         transform="translate(3.0880737,-2.6377741)"><g
                           id="g4355"
                           transform="translate(8.4601992,5.328404)"><g
                             id="g4421"
                             transform="translate(-6.5255081,7.0858766)"><g
                               id="g4462"
                               transform="translate(25.518018,13.531166)"><g
                                 id="g4500"
                                 transform="translate(80.26127,-61.023322)"><g
                                   id="g5344"
                                   transform="translate(-17.614831,53.929153)"><g
                                   id="g5294"
                                   display="none"
                                   style="display:none"><rect
                                   id="rect5296"
                                   height="196"
                                   width="394.5"
                                   display="inline"
                                   y="-80.754997"
                                   x="-43.5"
                                   style="fill:#000000;display:inline" /></g><g
                                   id="g5316"
                                   display="none"
                                   style="display:none"><g
                                   id="g5318"
                                   display="inline"
                                   style="display:inline"><path
                                   id="path5320"
                                   d="M 1.581,10.718 H 30.418 L 16,1.051 1.581,10.718 z M 17.592,6.594 c 0,0.879 -0.713,1.592 -1.592,1.592 -0.879,0 -1.592,-0.713 -1.592,-1.592 0,-0.879 0.713,-1.592 1.592,-1.592 0.879,0 1.592,0.712 1.592,1.592 z"
                                   inkscape:connector-curvature="0" /><rect
                                   id="rect5322"
                                   height="3.0209999"
                                   width="31"
                                   y="28.030001"
                                   x="0.5" /><rect
                                   id="rect5324"
                                   height="11.875"
                                   width="3.0209999"
                                   y="13.363"
                                   x="3.6670001" /><rect
                                   id="rect5326"
                                   height="11.875"
                                   width="3.0209999"
                                   y="13.363"
                                   x="8.349" /><rect
                                   id="rect5328"
                                   height="11.875"
                                   width="3.0209999"
                                   y="13.363"
                                   x="20.629999" /><rect
                                   id="rect5330"
                                   height="11.875"
                                   width="3.0209999"
                                   y="13.363"
                                   x="25.312" /></g><path
                                   id="path5332"
                                   d="m 19.055,22.809 c -0.386,0.262 -1.035,0.524 -1.857,0.524 -1.01,0 -1.907,-0.386 -2.53,-1.11 -0.474,-0.524 -0.785,-1.246 -0.897,-2.144 h -0.773 v -0.611 h 0.711 c 0,-0.062 0,-0.125 0,-0.187 0,-0.2 0.012,-0.387 0.025,-0.561 h -0.735 v -0.624 h 0.823 c 0.15,-0.872 0.524,-1.595 1.022,-2.106 0.636,-0.66 1.446,-1.035 2.468,-1.035 0.735,0 1.309,0.212 1.658,0.399 l -0.249,0.822 c -0.312,-0.187 -0.835,-0.349 -1.396,-0.349 -0.673,0 -1.221,0.237 -1.645,0.685 -0.374,0.361 -0.623,0.922 -0.748,1.583 h 3.478 v 0.624 h -3.59 c -0.013,0.162 -0.025,0.349 -0.025,0.523 0,0.075 0,0.137 0,0.225 h 3.615 v 0.611 h -3.53 c 0.1,0.723 0.349,1.259 0.685,1.633 0.461,0.486 1.085,0.723 1.757,0.723 0.661,0 1.234,-0.249 1.521,-0.411 l 0.212,0.786 z"
                                   display="inline"
                                   inkscape:connector-curvature="0"
                                   style="display:inline" /></g><g
                                   id="g5453"
                                   transform="translate(-52.625356,-10.750909)"><g
                                   id="g5403"
                                   display="none"
                                   style="display:none"><rect
                                   id="rect5405"
                                   height="196"
                                   width="394.5"
                                   display="inline"
                                   y="-80.754997"
                                   x="-43.5"
                                   style="fill:#000000;display:inline" /></g><g
                                   id="g5425"
                                   display="none"
                                   style="display:none"><g
                                   id="g5427"
                                   display="inline"
                                   style="display:inline"><path
                                   id="path5429"
                                   d="M 1.581,10.718 H 30.418 L 16,1.051 1.581,10.718 z M 17.592,6.594 c 0,0.879 -0.713,1.592 -1.592,1.592 -0.879,0 -1.592,-0.713 -1.592,-1.592 0,-0.879 0.713,-1.592 1.592,-1.592 0.879,0 1.592,0.712 1.592,1.592 z"
                                   inkscape:connector-curvature="0" /><rect
                                   id="rect5431"
                                   height="3.0209999"
                                   width="31"
                                   y="28.030001"
                                   x="0.5" /><rect
                                   id="rect5433"
                                   height="11.875"
                                   width="3.0209999"
                                   y="13.363"
                                   x="3.6670001" /><rect
                                   id="rect5435"
                                   height="11.875"
                                   width="3.0209999"
                                   y="13.363"
                                   x="8.349" /><rect
                                   id="rect5437"
                                   height="11.875"
                                   width="3.0209999"
                                   y="13.363"
                                   x="20.629999" /><rect
                                   id="rect5439"
                                   height="11.875"
                                   width="3.0209999"
                                   y="13.363"
                                   x="25.312" /></g><path
                                   id="path5441"
                                   d="m 19.055,22.809 c -0.386,0.262 -1.035,0.524 -1.857,0.524 -1.01,0 -1.907,-0.386 -2.53,-1.11 -0.474,-0.524 -0.785,-1.246 -0.897,-2.144 h -0.773 v -0.611 h 0.711 c 0,-0.062 0,-0.125 0,-0.187 0,-0.2 0.012,-0.387 0.025,-0.561 h -0.735 v -0.624 h 0.823 c 0.15,-0.872 0.524,-1.595 1.022,-2.106 0.636,-0.66 1.446,-1.035 2.468,-1.035 0.735,0 1.309,0.212 1.658,0.399 l -0.249,0.822 c -0.312,-0.187 -0.835,-0.349 -1.396,-0.349 -0.673,0 -1.221,0.237 -1.645,0.685 -0.374,0.361 -0.623,0.922 -0.748,1.583 h 3.478 v 0.624 h -3.59 c -0.013,0.162 -0.025,0.349 -0.025,0.523 0,0.075 0,0.137 0,0.225 h 3.615 v 0.611 h -3.53 c 0.1,0.723 0.349,1.259 0.685,1.633 0.461,0.486 1.085,0.723 1.757,0.723 0.661,0 1.234,-0.249 1.521,-0.411 l 0.212,0.786 z"
                                   display="inline"
                                   inkscape:connector-curvature="0"
                                   style="display:inline" /></g><g
                                   id="g5911"
                                   transform="translate(34.803917,-34.731522)"><g
                                   id="g5969"
                                   transform="translate(-76.820846,20.463898)"><g
                                   id="g6024"
                                   transform="translate(-1.5269147,1.6004891)"><g
                                   id="g6071"
                                   transform="translate(7.3886843,1.0351706)"><g
                                   id="g6187"
                                   transform="translate(-0.71000052,-4.6322855)"><g
                                   id="g6263"
                                   transform="translate(-0.66737304,-5.3488176)"><g
                                   id="g6319"
                                   transform="translate(0.79720466,3.5647493)"><g
                                   id="g6384"
                                   transform="translate(-9.1472004,2.261335)"><g
                                   id="g6488"
                                   transform="translate(-2.0348122,-3.4042665)"><g
                                   id="g6516"
                                   transform="translate(-0.63832329,-2.3294036)"><g
                                   id="g6769"
                                   transform="translate(1565.7794,-3801.8487)"><g
                                   id="g6910"
                                   transform="translate(-308.09512,-3790.9493)"><g
                                   id="g6983"
                                   transform="translate(-14.231122,-15.611848)"><g
                                   id="g7151"
                                   transform="translate(33.267081,-22.491026)"><g
                                   id="g7382"
                                   transform="translate(-23.229266,23.886871)"><g
                                   id="g7549"
                                   transform="translate(14.444681,15.529545)"><g
                                   id="g7800"
                                   transform="translate(-10.517025,-15.548079)"><g
                                   id="g7999"
                                   transform="matrix(0.53445343,0,0,0.59502607,5.6563057,11.962949)"><g
                                   id="g8217"
                                   transform="matrix(0.65157633,0,0,0.66199506,14.891666,27.68312)"><g
                                   id="g8341"
                                   transform="matrix(0.81955739,0,0,0.8373697,16.904811,-6.2861215)"><g
                                   id="g8463"
                                   transform="matrix(1.0901467,0,0,0.7755316,14.691042,9.5565496)"><g
                                   id="g8628"
                                   transform="matrix(3.2141084,0,0,3.9092417,-42.983003,-211.13796)"><g
                                   id="g8709"
                                   transform="matrix(0.28046364,0,0,0.26137124,8.2602788,58.166419)"><line
                                   id="line8689"
                                   y2="42.118195"
                                   x2="89.281525"
                                   y1="42.118195"
                                   x1="85.446594"
                                   style="fill:none" /><g
                                   id="g8982"
                                   transform="matrix(0.85470616,0,0,0.82928987,-24.416347,-291.09779)"><g
                                   id="g9029"
                                   transform="matrix(0.56179905,0,0,0.59146659,71.827756,364.20217)"><g
                                   id="g9231"
                                   transform="matrix(1.6434845,0,0,1.6275903,-1.9010194,-26.060019)"><g
                                   id="g9437"
                                   transform="matrix(0.71903998,0,0,0.65801134,3.2171324,7.0571502)"><g
                                   id="g9598"
                                   transform="matrix(0.80108296,0,0,0.9233293,9.6403445,4.2821143)"><g
                                   id="g9708"
                                   transform="matrix(0.94363907,0,0,1.1480868,25.922318,9.4839725)"><g
                                   id="g9819"
                                   transform="matrix(1.095798,0,0,0.98226973,-24.771036,-19.505567)"><g
                                   id="g9923"
                                   transform="matrix(1.4565749,0,0,1.1402449,-4.0661436,-21.558968)"><g
                                   id="g10097"
                                   transform="matrix(0.11168619,0,0,0.17855319,5.2962471,-4.487068)"><path
                                   id="path10073"
                                   d="m 288.19948,271.7676 c -16.39736,-17.20419 -22.77838,-44.62457 -34.05895,-67.67642 -20.94633,-13.85893 -41.86151,8.61105 -60.71943,7.66077 6.01364,-27.20347 43.59213,-56.60566 87.37672,-42.13594 22.04524,7.28479 49.47959,24.57987 79.96549,25.53635 35.69054,1.12174 77.08965,-2.26414 115.51308,-3.83073 41.37993,-1.68433 81.03404,-2.57608 115.50828,-3.82935 31.74692,-1.15273 48.64422,-0.95785 54.79603,24.25967 -2.67859,34.65972 -54.2378,24.55164 -93.29533,22.98436 -38.08482,-1.52733 -89.09936,1.4027 -133.28487,0 -28.49253,-0.90276 -58.77319,-3.65926 -77.00738,0 -26.82421,5.38561 -36.87889,21.3503 -54.79364,37.03129 z m 330.24008,-40.86132 c 24.19593,-1.88817 24.90751,-41.18084 -5.92419,-37.0306 -31.0114,4.17572 -19.31474,39.0007 5.92419,37.0306 z M 314.85677,206.64454 c -13.25957,-2.23935 -24.21829,4.4312 -34.05895,8.93882 6.50161,8.0154 5.97691,22.08643 16.28875,26.8151 -0.38174,-5.00825 5.35558,-4.74658 4.43956,-10.2155 -2.22258,-4.89394 -6.74838,-7.79918 -7.40166,-14.04555 4.40681,-3.43615 8.43667,-7.19733 16.28795,-7.66145 1.79371,5.6941 3.76712,11.22293 8.8863,14.04692 -2.30882,5.67069 -11.09449,5.75263 -13.32745,11.49218 9.89257,2.72 21.39196,-3.48711 25.17345,-10.2155 -8.04135,-2.61121 -7.42641,-25.69955 -16.28795,-19.15502 z"
                                   clip-rule="evenodd"
                                   inkscape:connector-curvature="0"
                                   style="fill-rule:evenodd" /><path
                                   id="path10075"
                                   d="m 263.02683,248.78255 c -20.46556,2.55404 -50.16561,1.52733 -59.23719,-15.32223 13.33544,-5.10603 32.19815,-12.23519 42.94365,-15.32291 9.33352,6.11071 14.96782,21.84679 16.29354,30.64514 z"
                                   clip-rule="evenodd"
                                   inkscape:connector-curvature="0"
                                   style="fill-rule:evenodd" /><path
                                   id="path10077"
                                   d="m 662.86865,476.06872 c -4.8173,-31.26626 -28.69858,-54.06332 -65.16138,-51.0727 -35.16025,2.87907 -54.12919,30.89303 -51.82995,60.01359 -72.26195,0.115 -184.04066,-0.0909 -256.19879,0 14.13645,-71.26132 -115.45078,-80.65393 -116.99133,-7.66215 -14.2235,1.48395 -29.65692,-6.6733 -39.98314,-12.76817 -9.75041,-24.78645 10.2216,-42.07121 23.6944,-54.90618 19.67411,-5.71614 40.86083,-9.93111 65.16218,-14.04416 22.26725,-3.77151 49.00121,-3.94435 69.60094,-10.21551 14.96622,-4.56065 31.17351,-18.09456 44.42749,-28.09659 25.22216,-19.01799 43.08739,-37.9554 88.85578,-40.85995 39.81223,-2.52444 98.14697,-4.84161 130.31877,5.1081 15.22658,4.71076 37.66394,18.50083 51.82994,26.81578 16.09549,9.44977 30.56656,19.85877 48.87184,29.36639 11.49061,0.73612 26.47121,-1.54249 35.54279,1.27874 21.98694,9.6777 18.73334,55.34138 11.84201,77.88986 -12.04246,7.49481 -23.69839,15.32016 -39.98155,19.15295 z M 470.35299,329.22714 c -5.66305,14.60951 -1.86479,35.37725 -1.48465,49.79946 31.8803,3.16691 78.83624,-0.32433 115.51467,-1.27875 -21.0206,-30.03778 -53.53021,-56.76197 -114.03002,-48.52071 z m -124.39937,33.1978 c -8.59001,7.12228 -18.07208,12.88455 -20.7323,20.43101 36.28631,0.90896 82.02035,-0.66588 121.43488,-1.2753 -0.9344,-17.06716 1.90871,-37.399 -1.48305,-52.35351 -56.85649,-6.46121 -75.41573,13.48295 -99.21953,33.1978 z"
                                   clip-rule="evenodd"
                                   inkscape:connector-curvature="0"
                                   style="fill-rule:evenodd" /><path
                                   id="path10079"
                                   d="m 279.31398,462.02524 c 5.99128,32.78808 -15.18026,51.02725 -45.90575,56.18424 -45.55834,0.63765 -65.07513,-50.11071 -34.06373,-75.33581 29.82384,-19.72381 70.12962,-3.99737 79.96948,19.15157 z m -81.44854,6.38684 c -4.49306,18.81278 10.59296,33.79965 26.6557,35.75323 27.84565,3.38038 50.5194,-18.85065 35.54279,-47.24816 -18.53847,-19.17637 -57.05215,-10.06746 -62.19849,11.49493 z"
                                   clip-rule="evenodd"
                                   inkscape:connector-curvature="0"
                                   style="fill-rule:evenodd" /><path
                                   id="path10081"
                                   d="m 591.78307,435.20739 c 36.86851,-7.22212 62.55627,14.48832 60.72023,43.41882 -1.75458,27.60355 -29.98037,39.69482 -53.31299,38.30452 -55.01645,-3.27777 -57.17194,-71.9692 -7.40724,-81.72334 z m 4.44594,68.95723 c 15.82475,2.10233 35.64342,-6.28423 39.98235,-17.8804 13.821,-36.9218 -47.83443,-55.17749 -65.16059,-21.70562 -2.9038,20.99773 7.24033,37.20275 25.17824,39.58602 z"
                                   clip-rule="evenodd"
                                   inkscape:connector-curvature="0"
                                   style="fill-rule:evenodd" /><path
                                   id="path10083"
                                   d="m 249.69539,459.47051 c 5.79002,12.01621 7.65561,21.29521 -1.47746,31.92043 -53.87202,21.90394 -46.58458,-57.2984 1.47746,-31.92043 z"
                                   clip-rule="evenodd"
                                   inkscape:connector-curvature="0"
                                   style="fill-rule:evenodd" /><path
                                   id="path10085"
                                   d="m 611.03871,495.22442 c -44.08967,4.06348 -36.56343,-45.45916 -2.9621,-40.86132 23.39491,3.20065 26.60858,32.92924 2.9621,40.86132 z"
                                   clip-rule="evenodd"
                                   inkscape:connector-curvature="0"
                                   style="fill-rule:evenodd" /></g></g></g></g></g></g></g></g></g></g></g></g></g></g></g></g></g></g></g></g></g></g></g></g></g></g></g></g></g></g></g></g></g></g></g></g></g></g></g></g></g></g></g></g></g></g></g></g></g></svg></svg>
