<?xml version="1.0" encoding="UTF-8"?>
<svg xmlns="http://www.w3.org/2000/svg" xmlns:xlink="http://www.w3.org/1999/xlink" width="30px" height="46px" viewBox="0 0 30 46" version="1.1">
<defs>
<clipPath id="clip1">
  <path d="M 7.550781 17 L 9 17 L 9 19 L 7.550781 19 Z M 7.550781 17 "/>
</clipPath>
<clipPath id="clip2">
  <path d="M 21 17 L 22.445312 17 L 22.445312 19 L 21 19 Z M 21 17 "/>
</clipPath>
<clipPath id="clip3">
  <path d="M 7.550781 13 L 22.445312 13 L 22.445312 19 L 7.550781 19 Z M 7.550781 13 "/>
</clipPath>
<clipPath id="clip4">
  <path d="M 20 10 L 22.445312 10 L 22.445312 13 L 20 13 Z M 20 10 "/>
</clipPath>
<clipPath id="clip5">
  <path d="M 7.550781 10 L 10 10 L 10 13 L 7.550781 13 Z M 7.550781 10 "/>
</clipPath>
</defs>
<g id="surface1">
<path style="fill-rule:nonzero;fill:rgb(100%,40.000001%,0%);fill-opacity:1;stroke-width:1;stroke-linecap:round;stroke-linejoin:miter;stroke:rgb(83.137256%,33.333334%,0%);stroke-opacity:1;stroke-miterlimit:4;" d="M 13.040625 0.638587 C 6.25625 0.638587 0.609375 6.287364 0.609375 12.418478 C 0.609375 15.17663 2.224219 18.678668 3.388802 21.097147 L 13 38.828125 L 22.560417 21.097147 C 23.725 18.678668 25.383854 15.353261 25.383854 12.418478 C 25.383854 6.290761 19.828385 0.638587 13.04401 0.638587 Z M 13.040625 2.099185 C 18.934635 2.136549 23.721615 6.756114 23.721615 12.428668 C 23.721615 18.108016 18.938021 22.659647 13.040625 22.700408 C 7.146615 22.663043 2.369792 18.11481 2.369792 12.428668 C 2.369792 6.752717 7.15 2.129755 13.040625 2.099185 Z M 13.040625 2.099185 " transform="matrix(1.153846,0,0,1.15,0,0)"/>
<path style="fill-rule:nonzero;fill:rgb(100%,100%,100%);fill-opacity:1;stroke-width:1.00275;stroke-linecap:butt;stroke-linejoin:miter;stroke:rgb(100%,100%,100%);stroke-opacity:1;stroke-miterlimit:4;" d="M 23.010677 12.374321 C 23.010677 17.703804 18.528385 22.02106 13.003385 22.02106 C 7.478385 22.02106 2.996094 17.703804 2.996094 12.374321 C 2.996094 7.048234 7.478385 2.727582 13.003385 2.727582 C 18.528385 2.727582 23.010677 7.048234 23.010677 12.374321 Z M 23.010677 12.374321 " transform="matrix(1.153846,0,0,1.15,0,0)"/>
<g clip-path="url(#clip1)" clip-rule="nonzero">
<path style=" stroke:none;fill-rule:nonzero;fill:rgb(0%,0%,0%);fill-opacity:1;" d="M 7.628906 17.964844 C 7.449219 18.445312 7.628906 18.597656 7.628906 18.597656 L 8.292969 18.597656 C 8.277344 17.59375 7.628906 17.964844 7.628906 17.964844 Z M 7.628906 17.964844 "/>
</g>
<g clip-path="url(#clip2)" clip-rule="nonzero">
<path style=" stroke:none;fill-rule:nonzero;fill:rgb(0%,0%,0%);fill-opacity:1;" d="M 22.175781 17.675781 L 21.449219 17.675781 C 21.300781 17.675781 21.183594 17.773438 21.183594 17.894531 L 21.183594 18.347656 C 21.183594 18.472656 21.300781 18.570312 21.449219 18.570312 L 22.175781 18.570312 C 22.324219 18.570312 22.441406 18.472656 22.441406 18.347656 L 22.441406 17.894531 C 22.441406 17.773438 22.308594 17.675781 22.175781 17.675781 Z M 22.175781 17.675781 "/>
</g>
<g clip-path="url(#clip3)" clip-rule="nonzero">
<path style=" stroke:none;fill-rule:nonzero;fill:rgb(0%,0%,0%);fill-opacity:1;" d="M 18.769531 15.742188 C 18.769531 15.742188 17.921875 13.570312 14.5 13.570312 C 11.074219 13.570312 10.261719 15.878906 10.261719 15.878906 C 10.261719 15.878906 7.613281 15.988281 7.613281 17.511719 C 7.613281 17.511719 8.691406 17.210938 8.691406 18.597656 L 10.0625 18.597656 C 10.246094 17.980469 10.90625 17.511719 11.71875 17.511719 C 12.527344 17.511719 13.191406 17.980469 13.371094 18.597656 L 16.382812 18.597656 C 16.566406 17.980469 17.230469 17.511719 18.039062 17.511719 C 18.851562 17.511719 19.511719 17.980469 19.695312 18.597656 L 20.785156 18.597656 L 20.785156 17.828125 C 20.785156 17.609375 21 17.441406 21.25 17.441406 L 22.441406 17.441406 L 22.441406 17.238281 C 22.441406 17.222656 22.722656 15.742188 18.769531 15.742188 Z M 11.140625 15.863281 C 11.140625 15.863281 11.371094 14.421875 13.917969 14.175781 L 13.917969 15.863281 Z M 15.128906 16.757812 L 14.730469 16.757812 C 14.628906 16.757812 14.5625 16.6875 14.5625 16.621094 C 14.5625 16.550781 14.648438 16.480469 14.730469 16.480469 L 15.128906 16.480469 C 15.226562 16.480469 15.292969 16.550781 15.292969 16.621094 C 15.292969 16.6875 15.226562 16.757812 15.128906 16.757812 Z M 14.582031 15.863281 L 14.582031 14.121094 C 17.078125 13.859375 18.054688 15.863281 18.054688 15.863281 Z M 14.582031 15.863281 "/>
</g>
<path style=" stroke:none;fill-rule:nonzero;fill:rgb(0%,0%,0%);fill-opacity:1;" d="M 11.734375 17.894531 C 11.054688 17.894531 10.511719 18.347656 10.511719 18.914062 C 10.511719 19.476562 11.054688 19.929688 11.734375 19.929688 C 12.414062 19.929688 12.960938 19.476562 12.960938 18.914062 C 12.960938 18.347656 12.414062 17.894531 11.734375 17.894531 Z M 11.734375 19.476562 C 11.371094 19.476562 11.054688 19.226562 11.054688 18.914062 C 11.054688 18.609375 11.355469 18.347656 11.734375 18.347656 C 12.097656 18.347656 12.414062 18.597656 12.414062 18.914062 C 12.414062 19.226562 12.113281 19.476562 11.734375 19.476562 Z M 11.734375 19.476562 "/>
<path style=" stroke:none;fill-rule:nonzero;fill:rgb(0%,0%,0%);fill-opacity:1;" d="M 18.074219 17.894531 C 17.394531 17.894531 16.847656 18.347656 16.847656 18.914062 C 16.847656 19.476562 17.394531 19.929688 18.074219 19.929688 C 18.75 19.929688 19.296875 19.476562 19.296875 18.914062 C 19.296875 18.347656 18.75 17.894531 18.074219 17.894531 Z M 18.074219 19.476562 C 17.707031 19.476562 17.394531 19.226562 17.394531 18.914062 C 17.394531 18.609375 17.691406 18.347656 18.074219 18.347656 C 18.4375 18.347656 18.75 18.597656 18.75 18.914062 C 18.75 19.226562 18.453125 19.476562 18.074219 19.476562 Z M 18.074219 19.476562 "/>
<path style=" stroke:none;fill-rule:nonzero;fill:rgb(0%,0%,0%);fill-opacity:1;" d="M 14.152344 11.125 C 14.152344 11.238281 14.039062 11.332031 13.902344 11.332031 C 13.765625 11.332031 13.652344 11.238281 13.652344 11.125 C 13.652344 11.011719 13.765625 10.921875 13.902344 10.921875 C 14.039062 10.921875 14.152344 11.011719 14.152344 11.125 Z M 14.152344 11.125 "/>
<path style=" stroke:none;fill-rule:nonzero;fill:rgb(0%,0%,0%);fill-opacity:1;" d="M 14.152344 11.882812 C 14.152344 11.996094 14.039062 12.085938 13.902344 12.085938 C 13.765625 12.085938 13.652344 11.996094 13.652344 11.882812 C 13.652344 11.765625 13.765625 11.675781 13.902344 11.675781 C 14.039062 11.675781 14.152344 11.765625 14.152344 11.882812 Z M 14.152344 11.882812 "/>
<path style=" stroke:none;fill-rule:nonzero;fill:rgb(0%,0%,0%);fill-opacity:1;" d="M 14.152344 12.636719 C 14.152344 12.75 14.039062 12.84375 13.902344 12.84375 C 13.765625 12.84375 13.652344 12.75 13.652344 12.636719 C 13.652344 12.523438 13.765625 12.429688 13.902344 12.429688 C 14.039062 12.429688 14.152344 12.523438 14.152344 12.636719 Z M 14.152344 12.636719 "/>
<path style=" stroke:none;fill-rule:nonzero;fill:rgb(0%,0%,0%);fill-opacity:1;" d="M 15.242188 11.125 C 15.242188 11.238281 15.132812 11.332031 14.996094 11.332031 C 14.859375 11.332031 14.746094 11.238281 14.746094 11.125 C 14.746094 11.011719 14.859375 10.921875 14.996094 10.921875 C 15.132812 10.921875 15.242188 11.011719 15.242188 11.125 Z M 15.242188 11.125 "/>
<path style=" stroke:none;fill-rule:nonzero;fill:rgb(0%,0%,0%);fill-opacity:1;" d="M 15.242188 11.882812 C 15.242188 11.996094 15.132812 12.085938 14.996094 12.085938 C 14.859375 12.085938 14.746094 11.996094 14.746094 11.882812 C 14.746094 11.765625 14.859375 11.675781 14.996094 11.675781 C 15.132812 11.675781 15.242188 11.765625 15.242188 11.882812 Z M 15.242188 11.882812 "/>
<path style=" stroke:none;fill-rule:nonzero;fill:rgb(0%,0%,0%);fill-opacity:1;" d="M 15.242188 12.636719 C 15.242188 12.75 15.132812 12.84375 14.996094 12.84375 C 14.859375 12.84375 14.746094 12.75 14.746094 12.636719 C 14.746094 12.523438 14.859375 12.429688 14.996094 12.429688 C 15.132812 12.429688 15.242188 12.523438 15.242188 12.636719 Z M 15.242188 12.636719 "/>
<path style=" stroke:none;fill-rule:nonzero;fill:rgb(0%,0%,0%);fill-opacity:1;" d="M 16.320312 11.125 C 16.320312 11.238281 16.207031 11.332031 16.070312 11.332031 C 15.933594 11.332031 15.820312 11.238281 15.820312 11.125 C 15.820312 11.011719 15.933594 10.921875 16.070312 10.921875 C 16.207031 10.921875 16.320312 11.011719 16.320312 11.125 Z M 16.320312 11.125 "/>
<path style=" stroke:none;fill-rule:nonzero;fill:rgb(0%,0%,0%);fill-opacity:1;" d="M 16.320312 11.882812 C 16.320312 11.996094 16.207031 12.085938 16.070312 12.085938 C 15.933594 12.085938 15.820312 11.996094 15.820312 11.882812 C 15.820312 11.765625 15.933594 11.675781 16.070312 11.675781 C 16.207031 11.675781 16.320312 11.765625 16.320312 11.882812 Z M 16.320312 11.882812 "/>
<path style=" stroke:none;fill-rule:nonzero;fill:rgb(0%,0%,0%);fill-opacity:1;" d="M 16.320312 12.636719 C 16.320312 12.75 16.207031 12.84375 16.070312 12.84375 C 15.933594 12.84375 15.820312 12.75 15.820312 12.636719 C 15.820312 12.523438 15.933594 12.429688 16.070312 12.429688 C 16.207031 12.429688 16.320312 12.523438 16.320312 12.636719 Z M 16.320312 12.636719 "/>
<path style=" stroke:none;fill-rule:nonzero;fill:rgb(0%,0%,0%);fill-opacity:1;" d="M 16.730469 9.617188 L 16.269531 9.617188 L 16.269531 9.191406 C 16.269531 8.957031 16.039062 8.765625 15.753906 8.765625 L 14.101562 8.765625 C 13.820312 8.765625 13.589844 8.957031 13.589844 9.191406 L 13.589844 9.617188 L 13.125 9.617188 C 12.578125 9.617188 12.132812 9.984375 12.132812 10.4375 L 17.726562 10.4375 C 17.742188 9.984375 17.292969 9.617188 16.730469 9.617188 Z M 16.730469 9.617188 "/>
<g clip-path="url(#clip4)" clip-rule="nonzero">
<path style=" stroke:none;fill-rule:nonzero;fill:rgb(0%,0%,0%);fill-opacity:1;" d="M 21.828125 11.289062 L 21.996094 11.152344 C 22.191406 10.988281 22.191406 10.742188 21.996094 10.578125 C 21.796875 10.410156 21.5 10.410156 21.300781 10.578125 L 21.117188 10.726562 C 20.753906 10.605469 20.324219 10.671875 20.042969 10.921875 L 21.613281 12.222656 C 21.910156 11.964844 21.996094 11.605469 21.828125 11.289062 Z M 21.828125 11.289062 "/>
</g>
<path style=" stroke:none;fill-rule:nonzero;fill:rgb(0%,0%,0%);fill-opacity:1;" d="M 20.621094 11.976562 C 20.621094 12.089844 20.511719 12.183594 20.371094 12.183594 C 20.234375 12.183594 20.125 12.089844 20.125 11.976562 C 20.125 11.863281 20.234375 11.769531 20.371094 11.769531 C 20.511719 11.769531 20.621094 11.863281 20.621094 11.976562 Z M 20.621094 11.976562 "/>
<path style=" stroke:none;fill-rule:nonzero;fill:rgb(0%,0%,0%);fill-opacity:1;" d="M 19.976562 12.511719 C 19.976562 12.625 19.863281 12.71875 19.726562 12.71875 C 19.589844 12.71875 19.480469 12.625 19.480469 12.511719 C 19.480469 12.398438 19.589844 12.308594 19.726562 12.308594 C 19.863281 12.308594 19.976562 12.398438 19.976562 12.511719 Z M 19.976562 12.511719 "/>
<path style=" stroke:none;fill-rule:nonzero;fill:rgb(0%,0%,0%);fill-opacity:1;" d="M 19.347656 13.046875 C 19.347656 13.164062 19.234375 13.253906 19.097656 13.253906 C 18.960938 13.253906 18.851562 13.164062 18.851562 13.046875 C 18.851562 12.933594 18.960938 12.84375 19.097656 12.84375 C 19.234375 12.84375 19.347656 12.933594 19.347656 13.046875 Z M 19.347656 13.046875 "/>
<path style=" stroke:none;fill-rule:nonzero;fill:rgb(0%,0%,0%);fill-opacity:1;" d="M 20.007812 11.441406 C 20.007812 11.554688 19.898438 11.648438 19.761719 11.648438 C 19.625 11.648438 19.511719 11.554688 19.511719 11.441406 C 19.511719 11.328125 19.625 11.234375 19.761719 11.234375 C 19.898438 11.234375 20.007812 11.328125 20.007812 11.441406 Z M 20.007812 11.441406 "/>
<path style=" stroke:none;fill-rule:nonzero;fill:rgb(0%,0%,0%);fill-opacity:1;" d="M 19.214844 11.8125 C 19.214844 11.925781 19.101562 12.019531 18.964844 12.019531 C 18.828125 12.019531 18.71875 11.925781 18.71875 11.8125 C 18.71875 11.699219 18.828125 11.605469 18.964844 11.605469 C 19.101562 11.605469 19.214844 11.699219 19.214844 11.8125 Z M 19.214844 11.8125 "/>
<path style=" stroke:none;fill-rule:nonzero;fill:rgb(0%,0%,0%);fill-opacity:1;" d="M 18.4375 12.183594 C 18.4375 12.296875 18.324219 12.390625 18.1875 12.390625 C 18.050781 12.390625 17.941406 12.296875 17.941406 12.183594 C 17.941406 12.070312 18.050781 11.976562 18.1875 11.976562 C 18.324219 11.976562 18.4375 12.070312 18.4375 12.183594 Z M 18.4375 12.183594 "/>
<path style=" stroke:none;fill-rule:nonzero;fill:rgb(0%,0%,0%);fill-opacity:1;" d="M 21.300781 12.511719 C 21.300781 12.625 21.1875 12.71875 21.050781 12.71875 C 20.914062 12.71875 20.804688 12.625 20.804688 12.511719 C 20.804688 12.398438 20.914062 12.308594 21.050781 12.308594 C 21.1875 12.308594 21.300781 12.398438 21.300781 12.511719 Z M 21.300781 12.511719 "/>
<path style=" stroke:none;fill-rule:nonzero;fill:rgb(0%,0%,0%);fill-opacity:1;" d="M 20.851562 13.171875 C 20.851562 13.285156 20.742188 13.378906 20.605469 13.378906 C 20.46875 13.378906 20.355469 13.285156 20.355469 13.171875 C 20.355469 13.058594 20.46875 12.964844 20.605469 12.964844 C 20.742188 12.964844 20.851562 13.058594 20.851562 13.171875 Z M 20.851562 13.171875 "/>
<path style=" stroke:none;fill-rule:nonzero;fill:rgb(0%,0%,0%);fill-opacity:1;" d="M 20.390625 13.816406 C 20.390625 13.929688 20.277344 14.023438 20.140625 14.023438 C 20.003906 14.023438 19.894531 13.929688 19.894531 13.816406 C 19.894531 13.703125 20.003906 13.613281 20.140625 13.613281 C 20.277344 13.613281 20.390625 13.703125 20.390625 13.816406 Z M 20.390625 13.816406 "/>
<g clip-path="url(#clip5)" clip-rule="nonzero">
<path style=" stroke:none;fill-rule:nonzero;fill:rgb(0%,0%,0%);fill-opacity:1;" d="M 8.042969 11.289062 C 7.878906 11.59375 7.960938 11.964844 8.257812 12.210938 L 9.832031 10.90625 C 9.535156 10.660156 9.121094 10.605469 8.753906 10.714844 L 8.574219 10.5625 C 8.375 10.398438 8.078125 10.398438 7.878906 10.5625 C 7.679688 10.726562 7.679688 10.976562 7.878906 11.140625 Z M 8.042969 11.289062 "/>
</g>
<path style=" stroke:none;fill-rule:nonzero;fill:rgb(0%,0%,0%);fill-opacity:1;" d="M 9.75 11.976562 C 9.75 12.089844 9.636719 12.183594 9.5 12.183594 C 9.363281 12.183594 9.253906 12.089844 9.253906 11.976562 C 9.253906 11.863281 9.363281 11.769531 9.5 11.769531 C 9.636719 11.769531 9.75 11.863281 9.75 11.976562 Z M 9.75 11.976562 "/>
<path style=" stroke:none;fill-rule:nonzero;fill:rgb(0%,0%,0%);fill-opacity:1;" d="M 10.378906 12.511719 C 10.378906 12.625 10.265625 12.71875 10.128906 12.71875 C 9.992188 12.71875 9.882812 12.625 9.882812 12.511719 C 9.882812 12.398438 9.992188 12.308594 10.128906 12.308594 C 10.265625 12.308594 10.378906 12.398438 10.378906 12.511719 Z M 10.378906 12.511719 "/>
<path style=" stroke:none;fill-rule:nonzero;fill:rgb(0%,0%,0%);fill-opacity:1;" d="M 11.023438 13.046875 C 11.023438 13.164062 10.910156 13.253906 10.773438 13.253906 C 10.636719 13.253906 10.527344 13.164062 10.527344 13.046875 C 10.527344 12.933594 10.636719 12.84375 10.773438 12.84375 C 10.910156 12.84375 11.023438 12.933594 11.023438 13.046875 Z M 11.023438 13.046875 "/>
<path style=" stroke:none;fill-rule:nonzero;fill:rgb(0%,0%,0%);fill-opacity:1;" d="M 10.359375 11.441406 C 10.359375 11.554688 10.25 11.648438 10.113281 11.648438 C 9.976562 11.648438 9.863281 11.554688 9.863281 11.441406 C 9.863281 11.328125 9.976562 11.234375 10.113281 11.234375 C 10.25 11.234375 10.359375 11.328125 10.359375 11.441406 Z M 10.359375 11.441406 "/>
<path style=" stroke:none;fill-rule:nonzero;fill:rgb(0%,0%,0%);fill-opacity:1;" d="M 11.15625 11.8125 C 11.15625 11.925781 11.042969 12.019531 10.90625 12.019531 C 10.769531 12.019531 10.660156 11.925781 10.660156 11.8125 C 10.660156 11.699219 10.769531 11.605469 10.90625 11.605469 C 11.042969 11.605469 11.15625 11.699219 11.15625 11.8125 Z M 11.15625 11.8125 "/>
<path style=" stroke:none;fill-rule:nonzero;fill:rgb(0%,0%,0%);fill-opacity:1;" d="M 11.933594 12.183594 C 11.933594 12.296875 11.820312 12.390625 11.683594 12.390625 C 11.546875 12.390625 11.4375 12.296875 11.4375 12.183594 C 11.4375 12.070312 11.546875 11.976562 11.683594 11.976562 C 11.820312 11.976562 11.933594 12.070312 11.933594 12.183594 Z M 11.933594 12.183594 "/>
<path style=" stroke:none;fill-rule:nonzero;fill:rgb(0%,0%,0%);fill-opacity:1;" d="M 9.070312 12.511719 C 9.070312 12.625 8.960938 12.71875 8.820312 12.71875 C 8.683594 12.71875 8.574219 12.625 8.574219 12.511719 C 8.574219 12.398438 8.683594 12.308594 8.820312 12.308594 C 8.960938 12.308594 9.070312 12.398438 9.070312 12.511719 Z M 9.070312 12.511719 "/>
<path style=" stroke:none;fill-rule:nonzero;fill:rgb(0%,0%,0%);fill-opacity:1;" d="M 9.515625 13.171875 C 9.515625 13.285156 9.40625 13.378906 9.269531 13.378906 C 9.132812 13.378906 9.019531 13.285156 9.019531 13.171875 C 9.019531 13.058594 9.132812 12.964844 9.269531 12.964844 C 9.40625 12.964844 9.515625 13.058594 9.515625 13.171875 Z M 9.515625 13.171875 "/>
<path style=" stroke:none;fill-rule:nonzero;fill:rgb(0%,0%,0%);fill-opacity:1;" d="M 9.980469 13.816406 C 9.980469 13.929688 9.871094 14.023438 9.730469 14.023438 C 9.59375 14.023438 9.484375 13.929688 9.484375 13.816406 C 9.484375 13.703125 9.59375 13.613281 9.730469 13.613281 C 9.871094 13.613281 9.980469 13.703125 9.980469 13.816406 Z M 9.980469 13.816406 "/>
</g>
</svg>
