<?xml version="1.0" encoding="UTF-8"?>
<svg xmlns="http://www.w3.org/2000/svg" xmlns:xlink="http://www.w3.org/1999/xlink" width="30px" height="46px" viewBox="0 0 30 46" version="1.1">
<defs>
<clipPath id="clip1">
  <path d="M 7.550781 11 L 22.445312 11 L 22.445312 19 L 7.550781 19 Z M 7.550781 11 "/>
</clipPath>
</defs>
<g id="surface1">
<path style="fill-rule:nonzero;fill:rgb(100%,40.000001%,0%);fill-opacity:1;stroke-width:1;stroke-linecap:round;stroke-linejoin:miter;stroke:rgb(83.137256%,33.333334%,0%);stroke-opacity:1;stroke-miterlimit:4;" d="M 13.040625 0.638587 C 6.25625 0.638587 0.609375 6.287364 0.609375 12.418478 C 0.609375 15.17663 2.224219 18.678668 3.388802 21.097147 L 13 38.828125 L 22.560417 21.097147 C 23.725 18.678668 25.383854 15.353261 25.383854 12.418478 C 25.383854 6.290761 19.828385 0.638587 13.04401 0.638587 Z M 13.040625 2.099185 C 18.934635 2.136549 23.721615 6.756114 23.721615 12.428668 C 23.721615 18.108016 18.938021 22.659647 13.040625 22.700408 C 7.146615 22.663043 2.369792 18.11481 2.369792 12.428668 C 2.369792 6.752717 7.15 2.129755 13.040625 2.099185 Z M 13.040625 2.099185 " transform="matrix(1.153846,0,0,1.15,0,0)"/>
<path style="fill-rule:nonzero;fill:rgb(100%,100%,100%);fill-opacity:1;stroke-width:1.00275;stroke-linecap:butt;stroke-linejoin:miter;stroke:rgb(100%,100%,100%);stroke-opacity:1;stroke-miterlimit:4;" d="M 23.010677 12.374321 C 23.010677 17.703804 18.528385 22.02106 13.003385 22.02106 C 7.478385 22.02106 2.996094 17.703804 2.996094 12.374321 C 2.996094 7.048234 7.478385 2.727582 13.003385 2.727582 C 18.528385 2.727582 23.010677 7.048234 23.010677 12.374321 Z M 23.010677 12.374321 " transform="matrix(1.153846,0,0,1.15,0,0)"/>
<path style=" stroke:none;fill-rule:nonzero;fill:rgb(0%,0%,0%);fill-opacity:1;" d="M 13.933594 12.488281 L 13.332031 12.488281 C 13.117188 12.488281 12.945312 12.667969 12.945312 12.886719 L 12.945312 16.8125 L 14.320312 16.8125 L 14.320312 12.886719 C 14.320312 12.667969 14.144531 12.488281 13.933594 12.488281 Z M 13.933594 12.488281 "/>
<path style=" stroke:none;fill-rule:nonzero;fill:rgb(0%,0%,0%);fill-opacity:1;" d="M 11.429688 17.867188 C 11.429688 18.449219 10.96875 18.921875 10.40625 18.921875 C 9.839844 18.921875 9.382812 18.449219 9.382812 17.867188 C 9.382812 17.285156 9.839844 16.8125 10.40625 16.8125 C 10.96875 16.8125 11.429688 17.285156 11.429688 17.867188 Z M 11.429688 17.867188 "/>
<g clip-path="url(#clip1)" clip-rule="nonzero">
<path style=" stroke:none;fill-rule:nonzero;fill:rgb(0%,0%,0%);fill-opacity:1;" d="M 21.867188 17.066406 L 21.304688 17.066406 L 21.304688 16.707031 L 21.570312 16.433594 C 21.640625 16.363281 21.640625 16.246094 21.570312 16.175781 C 21.5 16.105469 21.390625 16.105469 21.320312 16.175781 L 20.953125 16.554688 L 20.953125 17.066406 L 19.925781 17.066406 C 19.925781 17.042969 19.929688 17.019531 19.929688 16.996094 L 19.929688 13.589844 C 19.929688 12.21875 18.851562 11.105469 17.519531 11.105469 L 10.1875 11.105469 C 8.847656 11.105469 7.757812 12.226562 7.757812 13.609375 L 7.757812 16.992188 C 7.757812 17.355469 8.042969 17.648438 8.394531 17.648438 L 9.046875 17.648438 C 9.148438 16.96875 9.71875 16.449219 10.40625 16.449219 C 11.089844 16.449219 11.664062 16.96875 11.765625 17.648438 L 20.953125 17.648438 L 20.953125 18.054688 C 20.828125 18.121094 20.738281 18.257812 20.738281 18.410156 C 20.738281 18.632812 20.914062 18.8125 21.128906 18.8125 C 21.34375 18.8125 21.515625 18.632812 21.515625 18.410156 C 21.515625 18.257812 21.429688 18.121094 21.304688 18.054688 L 21.304688 17.648438 L 21.867188 17.648438 C 22.023438 17.648438 22.152344 17.519531 22.152344 17.359375 C 22.152344 17.195312 22.023438 17.066406 21.867188 17.066406 Z M 11.179688 14.632812 L 9.523438 14.632812 L 9.523438 12.886719 C 9.523438 12.585938 9.761719 12.34375 10.050781 12.34375 L 10.652344 12.34375 C 10.945312 12.34375 11.179688 12.585938 11.179688 12.886719 Z M 14.601562 16.957031 C 14.601562 17.039062 14.539062 17.101562 14.460938 17.101562 L 12.804688 17.101562 C 12.726562 17.101562 12.664062 17.039062 12.664062 16.957031 L 12.664062 12.886719 C 12.664062 12.507812 12.964844 12.195312 13.332031 12.195312 L 13.933594 12.195312 C 14.300781 12.195312 14.601562 12.507812 14.601562 12.886719 Z M 18.304688 14.632812 L 16.648438 14.632812 L 16.648438 12.886719 C 16.648438 12.585938 16.886719 12.34375 17.175781 12.34375 L 17.777344 12.34375 C 18.070312 12.34375 18.304688 12.585938 18.304688 12.886719 Z M 18.304688 14.632812 "/>
</g>
</g>
</svg>
