<?xml version="1.0" encoding="UTF-8" standalone="no"?>
<svg
   xmlns:dc="http://purl.org/dc/elements/1.1/"
   xmlns:cc="http://creativecommons.org/ns#"
   xmlns:rdf="http://www.w3.org/1999/02/22-rdf-syntax-ns#"
   xmlns:svg="http://www.w3.org/2000/svg"
   xmlns="http://www.w3.org/2000/svg"
   xmlns:sodipodi="http://sodipodi.sourceforge.net/DTD/sodipodi-0.dtd"
   xmlns:inkscape="http://www.inkscape.org/namespaces/inkscape"
   height="44px"
   width="30px"
   version="1.1"
   viewBox="0 0 29.988946 43.988056"
   id="svg16"
   sodipodi:docname="new_Casino.svg"
   inkscape:version="0.92.5 (2060ec1f9f, 2020-04-08)">
  <metadata
     id="metadata20">
    <rdf:RDF>
      <cc:Work
         rdf:about="">
        <dc:format>image/svg+xml</dc:format>
        <dc:type
           rdf:resource="http://purl.org/dc/dcmitype/StillImage" />
        <dc:title />
      </cc:Work>
    </rdf:RDF>
  </metadata>
  <sodipodi:namedview
     pagecolor="#ffffff"
     bordercolor="#666666"
     borderopacity="1"
     objecttolerance="10"
     gridtolerance="10"
     guidetolerance="10"
     inkscape:pageopacity="0"
     inkscape:pageshadow="2"
     inkscape:window-width="1680"
     inkscape:window-height="974"
     id="namedview18"
     showgrid="false"
     inkscape:zoom="4.0678609"
     inkscape:cx="0.9366743"
     inkscape:cy="83.987249"
     inkscape:window-x="0"
     inkscape:window-y="0"
     inkscape:window-maximized="1"
     inkscape:current-layer="svg2" />
  <defs
     id="defs7">
    <radialGradient
       id="a"
       gradientUnits="userSpaceOnUse"
       cy="127.6"
       cx="-42.75"
       gradientTransform="matrix(4.2749643,0,0,0.98162997,197.99835,-82.088795)"
       r="2.3840001">
      <stop
         stop-color="#010101"
         offset="0"
         id="stop2" />
      <stop
         stop-opacity="0"
         stop-color="#090909"
         offset="1"
         id="stop4" />
    </radialGradient>
  </defs>
  <g
     id="g26"
     transform="translate(-2.0760358e-7,-1.6181156)">
    <path
       style="fill:#5846c5;stroke-width:4.27539158"
       inkscape:connector-curvature="0"
       id="path9"
       d="m 14.994475,1.7046139 c -8.2386814,0 -14.91684341,6.6781619 -14.91684341,14.9168421 0.008545,2.561815 0.67294669,5.079165 1.93504231,7.306643 L 15.595595,42.53888 27.955752,23.983679 c 1.277915,-2.243725 1.951716,-4.779887 1.955563,-7.362223 C 29.911273,8.3827758 23.233154,1.7046139 14.994475,1.7046139 Z" />
    <circle
       style="fill:#f9f3f3;stroke-width:4.27539158"
       id="circle11"
       r="9.4272394"
       cx="14.994473"
       cy="16.668474" />
    <ellipse
       style="opacity:0.4;fill:url(#a);stroke-width:4.27496433"
       id="ellipse13"
       cx="14.994473"
       cy="43.18018"
       ry="2.3394945"
       rx="10.192533" />
    <rect
       style="fill:none;stroke-width:4.27539158"
       x="8.2585926"
       y="9.8278542"
       width="13.471761"
       height="13.36915"
       ry="0"
       rx="0"
       id="replace" />
    <svg
       version="1.1"
       x="8.5"
       y="10"
       viewBox="0 0 100 125"
       enable-background="new 0 0 100 100"
       xml:space="preserve"
       id="svg2"
       inkscape:version="0.91 r13725"
       sodipodi:docname="Casino.svg"><metadata
         id="metadata26"><rdf:RDF><cc:Work
             rdf:about=""><dc:format>image/svg+xml</dc:format><dc:type
               rdf:resource="http://purl.org/dc/dcmitype/StillImage" /></cc:Work></rdf:RDF></metadata><defs
         id="defs24" /><sodipodi:namedview
         pagecolor="#ffffff"
         bordercolor="#666666"
         borderopacity="1"
         objecttolerance="10"
         gridtolerance="10"
         guidetolerance="10"
         inkscape:pageopacity="0"
         inkscape:pageshadow="2"
         inkscape:window-width="668"
         inkscape:window-height="480"
         id="namedview22"
         showgrid="false"
         inkscape:zoom="1.888"
         inkscape:cx="50"
         inkscape:cy="62.5"
         inkscape:window-x="75"
         inkscape:window-y="34"
         inkscape:window-maximized="0"
         inkscape:current-layer="svg2" /><g
         id="g4"
         transform="matrix(0.49604607,0,0,0.49604607,-3.0637366,-11.855296)"><g
           id="g6"><path
             d="M 49.834,1 C 22.864,1 1,22.864 1,49.833 1,76.805 22.864,98.666 49.835,98.666 76.805,98.666 98.668,76.805 98.668,49.833 98.668,22.864 76.805,1 49.834,1 m 33.378,79.034 -4.392,-5.24 c -0.617,0.716 -1.264,1.411 -1.939,2.088 -5.561,5.56 -12.529,9.194 -20.104,10.574 l 2.533,6.382 -18.939,0.002 2.341,-6.416 C 35.208,86.02 28.303,82.397 22.787,76.882 22.068,76.163 21.382,75.419 20.728,74.654 l -4.264,5.39 -9.473,-16.399 6.719,-1.18 c -1.397,-4.006 -2.126,-8.262 -2.126,-12.631 0,-4.428 0.749,-8.742 2.185,-12.797 l -6.783,-0.995 9.466,-16.405 4.391,5.242 c 0.62,-0.717 1.269,-1.416 1.945,-2.092 C 28.349,17.225 35.322,13.59 42.897,12.21 L 40.365,5.828 h 18.939 l -2.345,6.417 c 7.503,1.406 14.407,5.026 19.921,10.542 0.721,0.72 1.406,1.465 2.062,2.231 l 4.265,-5.39 9.47,16.402 -6.719,1.177 c 1.396,4.006 2.125,8.26 2.125,12.626 0,4.431 -0.749,8.747 -2.186,12.802 l 6.781,0.996 z"
             id="path8"
             inkscape:connector-curvature="0" /></g><g
           id="g10"><path
             d="m 49.834,16.597 c -8.877,0 -17.225,3.458 -23.502,9.734 -6.278,6.278 -9.734,14.625 -9.734,23.502 0,8.877 3.457,17.226 9.734,23.501 6.278,6.277 14.625,9.736 23.502,9.736 8.877,0 17.225,-3.459 23.501,-9.736 6.276,-6.275 9.733,-14.624 9.733,-23.501 0,-8.877 -3.457,-17.224 -9.733,-23.502 -6.276,-6.276 -14.623,-9.734 -23.501,-9.734 m 19.957,53.194 c -5.331,5.33 -12.418,8.268 -19.957,8.268 -7.539,0 -14.627,-2.938 -19.957,-8.268 -5.331,-5.331 -8.266,-12.418 -8.266,-19.958 0,-7.538 2.936,-14.626 8.266,-19.957 5.33,-5.331 12.418,-8.266 19.957,-8.266 7.539,0 14.625,2.936 19.957,8.266 5.332,5.33 8.268,12.419 8.268,19.957 0,7.54 -2.937,14.627 -8.268,19.958"
             id="path12"
             inkscape:connector-curvature="0" /></g><g
           id="g14"><path
             d="m 51.945,46.388 c -4.684,-1.938 -6.038,-3.101 -6.038,-5.189 0,-1.742 1.23,-3.605 4.682,-3.605 3.304,0 5.384,1.188 6.271,1.695 l 1.037,0.592 2.076,-5.475 -0.744,-0.438 C 57.319,32.85 55.188,32.203 52.737,32.003 V 26.728 H 47.36 v 5.614 c -4.963,1.13 -8.122,4.782 -8.122,9.501 0,5.733 4.577,8.319 9.513,10.254 3.866,1.567 5.443,3.147 5.443,5.459 0,2.541 -2.164,4.25 -5.38,4.25 -2.524,0 -5.142,-0.781 -7.181,-2.143 l -1.087,-0.725 -1.994,5.562 0.627,0.448 c 1.882,1.346 4.861,2.291 7.804,2.513 v 5.48 h 5.431 v -5.778 c 5.12,-1.181 8.501,-5.103 8.501,-9.983 10e-4,-5 -2.685,-8.229 -8.97,-10.792"
             id="path16"
             inkscape:connector-curvature="0" /></g></g></svg>  </g>
</svg>
