<?xml version="1.0" encoding="UTF-8"?>
<svg xmlns="http://www.w3.org/2000/svg" xmlns:xlink="http://www.w3.org/1999/xlink" width="30px" height="46px" viewBox="0 0 30 46" version="1.1">
<defs>
<clipPath id="clip1">
  <path d="M 8 6.921875 L 23 6.921875 L 23 22 L 8 22 Z M 8 6.921875 "/>
</clipPath>
</defs>
<g id="surface1">
<path style="fill-rule:nonzero;fill:rgb(100%,40.000001%,0%);fill-opacity:1;stroke-width:1;stroke-linecap:round;stroke-linejoin:miter;stroke:rgb(83.137256%,33.333334%,0%);stroke-opacity:1;stroke-miterlimit:4;" d="M 13.040625 0.638587 C 6.25625 0.638587 0.609375 6.287364 0.609375 12.418478 C 0.609375 15.17663 2.224219 18.678668 3.388802 21.097147 L 13 38.828125 L 22.560417 21.097147 C 23.725 18.678668 25.383854 15.353261 25.383854 12.418478 C 25.383854 6.290761 19.828385 0.638587 13.04401 0.638587 Z M 13.040625 2.099185 C 18.934635 2.136549 23.721615 6.756114 23.721615 12.428668 C 23.721615 18.108016 18.938021 22.659647 13.040625 22.700408 C 7.146615 22.663043 2.369792 18.11481 2.369792 12.428668 C 2.369792 6.752717 7.15 2.129755 13.040625 2.099185 Z M 13.040625 2.099185 " transform="matrix(1.153846,0,0,1.15,0,0)"/>
<path style="fill-rule:nonzero;fill:rgb(100%,100%,100%);fill-opacity:1;stroke-width:1.00275;stroke-linecap:butt;stroke-linejoin:miter;stroke:rgb(100%,100%,100%);stroke-opacity:1;stroke-miterlimit:4;" d="M 23.010677 12.374321 C 23.010677 17.703804 18.528385 22.02106 13.003385 22.02106 C 7.478385 22.02106 2.996094 17.703804 2.996094 12.374321 C 2.996094 7.048234 7.478385 2.727582 13.003385 2.727582 C 18.528385 2.727582 23.010677 7.048234 23.010677 12.374321 Z M 23.010677 12.374321 " transform="matrix(1.153846,0,0,1.15,0,0)"/>
<g clip-path="url(#clip1)" clip-rule="nonzero">
<path style=" stroke:none;fill-rule:nonzero;fill:rgb(0%,0%,0%);fill-opacity:1;" d="M 15.363281 6.855469 C 11.320312 6.855469 8.046875 10.121094 8.046875 14.148438 C 8.046875 18.175781 11.320312 21.441406 15.363281 21.441406 C 19.402344 21.441406 22.675781 18.175781 22.675781 14.148438 C 22.675781 10.121094 19.402344 6.855469 15.363281 6.855469 M 20.363281 18.65625 L 19.703125 17.875 C 19.613281 17.980469 19.515625 18.085938 19.414062 18.1875 C 18.582031 19.015625 17.535156 19.558594 16.402344 19.765625 L 16.78125 20.71875 L 13.945312 20.71875 L 14.292969 19.761719 C 13.171875 19.550781 12.136719 19.011719 11.308594 18.1875 C 11.203125 18.078125 11.097656 17.96875 11 17.855469 L 10.363281 18.660156 L 8.941406 16.210938 L 9.949219 16.035156 C 9.738281 15.4375 9.632812 14.800781 9.632812 14.148438 C 9.632812 13.488281 9.742188 12.84375 9.957031 12.238281 L 8.941406 12.089844 L 10.359375 9.640625 L 11.019531 10.421875 C 11.109375 10.316406 11.207031 10.210938 11.308594 10.109375 C 12.140625 9.277344 13.1875 8.738281 14.320312 8.53125 L 13.941406 7.578125 L 16.78125 7.578125 L 16.429688 8.535156 C 17.554688 8.746094 18.585938 9.285156 19.414062 10.109375 C 19.519531 10.21875 19.625 10.328125 19.722656 10.441406 L 20.363281 9.636719 L 21.78125 12.085938 L 20.773438 12.261719 C 20.984375 12.859375 21.09375 13.496094 21.09375 14.148438 C 21.09375 14.808594 20.980469 15.453125 20.765625 16.058594 L 21.78125 16.207031 Z M 20.363281 18.65625 "/>
</g>
<path style=" stroke:none;fill-rule:nonzero;fill:rgb(0%,0%,0%);fill-opacity:1;" d="M 15.363281 9.183594 C 14.03125 9.183594 12.78125 9.703125 11.839844 10.640625 C 10.898438 11.578125 10.382812 12.824219 10.382812 14.148438 C 10.382812 15.472656 10.898438 16.71875 11.839844 17.65625 C 12.78125 18.59375 14.03125 19.109375 15.363281 19.109375 C 16.691406 19.109375 17.941406 18.59375 18.882812 17.65625 C 19.824219 16.71875 20.339844 15.472656 20.339844 14.148438 C 20.339844 12.824219 19.824219 11.578125 18.882812 10.640625 C 17.941406 9.703125 16.691406 9.183594 15.363281 9.183594 M 18.351562 17.128906 C 17.550781 17.925781 16.492188 18.363281 15.363281 18.363281 C 14.230469 18.363281 13.171875 17.925781 12.371094 17.128906 C 11.574219 16.332031 11.132812 15.273438 11.132812 14.148438 C 11.132812 13.023438 11.574219 11.964844 12.371094 11.167969 C 13.171875 10.371094 14.230469 9.933594 15.363281 9.933594 C 16.492188 9.933594 17.550781 10.371094 18.351562 11.167969 C 19.148438 11.964844 19.589844 13.023438 19.589844 14.148438 C 19.589844 15.273438 19.148438 16.332031 18.351562 17.128906 "/>
<path style=" stroke:none;fill-rule:nonzero;fill:rgb(0%,0%,0%);fill-opacity:1;" d="M 15.675781 13.632812 C 14.976562 13.34375 14.773438 13.171875 14.773438 12.859375 C 14.773438 12.597656 14.957031 12.320312 15.472656 12.320312 C 15.96875 12.320312 16.28125 12.5 16.414062 12.574219 L 16.570312 12.664062 L 16.878906 11.84375 L 16.769531 11.777344 C 16.484375 11.613281 16.164062 11.515625 15.796875 11.484375 L 15.796875 10.699219 L 14.992188 10.699219 L 14.992188 11.535156 C 14.246094 11.707031 13.773438 12.25 13.773438 12.957031 C 13.773438 13.8125 14.460938 14.199219 15.199219 14.484375 C 15.777344 14.71875 16.015625 14.957031 16.015625 15.300781 C 16.015625 15.679688 15.691406 15.9375 15.207031 15.9375 C 14.832031 15.9375 14.4375 15.820312 14.132812 15.617188 L 13.96875 15.507812 L 13.671875 16.339844 L 13.765625 16.40625 C 14.046875 16.605469 14.492188 16.746094 14.933594 16.78125 L 14.933594 17.597656 L 15.746094 17.597656 L 15.746094 16.734375 C 16.515625 16.558594 17.023438 15.972656 17.023438 15.246094 C 17.023438 14.5 16.621094 14.015625 15.675781 13.632812 "/>
</g>
</svg>
