<?xml version="1.0" encoding="UTF-8" standalone="no"?>
<svg
   xmlns:dc="http://purl.org/dc/elements/1.1/"
   xmlns:cc="http://creativecommons.org/ns#"
   xmlns:rdf="http://www.w3.org/1999/02/22-rdf-syntax-ns#"
   xmlns:svg="http://www.w3.org/2000/svg"
   xmlns="http://www.w3.org/2000/svg"
   xmlns:sodipodi="http://sodipodi.sourceforge.net/DTD/sodipodi-0.dtd"
   xmlns:inkscape="http://www.inkscape.org/namespaces/inkscape"
   height="40"
   width="26"
   version="1.1"
   id="svg16"
   sodipodi:docname="new_Casino.svg"
   inkscape:version="0.92.5 (2060ec1f9f, 2020-04-08)">
  <metadata
     id="metadata22" />
  <defs
     id="defs20" />
  <sodipodi:namedview
     pagecolor="#ffffff"
     bordercolor="#666666"
     borderopacity="1"
     objecttolerance="10"
     gridtolerance="10"
     guidetolerance="10"
     inkscape:pageopacity="0"
     inkscape:pageshadow="2"
     inkscape:window-width="640"
     inkscape:window-height="480"
     id="namedview18"
     showgrid="false"
     inkscape:zoom="5.9"
     inkscape:cx="13"
     inkscape:cy="20"
     inkscape:window-x="0"
     inkscape:window-y="0"
     inkscape:window-maximized="0"
     inkscape:current-layer="svg2" />
  <path
     d="m13.04 0.6387c-6.783 0-12.43 5.649-12.43 11.78 0 2.757 1.613 6.26 2.779 8.68l9.611 17.73 9.56-17.73c1.166-2.42 2.824-5.747 2.824-8.68 0-6.128-5.555-11.78-12.34-11.78zm0 1.461c5.895 0.0373 10.68 4.656 10.68 10.33 0 5.678-4.781 10.23-10.68 10.27-5.895-0.0373-10.67-4.585-10.67-10.27 0-5.678 4.779-10.3 10.67-10.33z"
     stroke="#d45500"
     stroke-linecap="round"
     fill="#f60"
     id="path2" />
  <ellipse
     style="fill:#ffffff;stroke:#ffffff;stroke-width:1.00274992"
     id="path13"
     cx="13.003574"
     cy="12.374899"
     rx="10.005984"
     ry="9.6464386" />
  <svg
     version="1.1"
     x="6.543"
     y="6.02"
     viewBox="0 0 100 125"
     enable-background="new 0 0 100 100"
     xml:space="preserve"
     id="svg2"
     inkscape:version="0.91 r13725"
     sodipodi:docname="Casino.svg"><metadata
       id="metadata26"><rdf:RDF><cc:Work
           rdf:about=""><dc:format>image/svg+xml</dc:format><dc:type
             rdf:resource="http://purl.org/dc/dcmitype/StillImage" /></cc:Work></rdf:RDF></metadata><defs
       id="defs24" /><sodipodi:namedview
       pagecolor="#ffffff"
       bordercolor="#666666"
       borderopacity="1"
       objecttolerance="10"
       gridtolerance="10"
       guidetolerance="10"
       inkscape:pageopacity="0"
       inkscape:pageshadow="2"
       inkscape:window-width="668"
       inkscape:window-height="480"
       id="namedview22"
       showgrid="false"
       inkscape:zoom="1.888"
       inkscape:cx="50"
       inkscape:cy="62.5"
       inkscape:window-x="75"
       inkscape:window-y="34"
       inkscape:window-maximized="0"
       inkscape:current-layer="svg2" /><g
       id="g4"
       transform="matrix(0.49939591,0,0,0.49939591,1.1524945,-15.144768)"><g
         id="g6"><path
           d="M 49.834,1 C 22.864,1 1,22.864 1,49.833 1,76.805 22.864,98.666 49.835,98.666 76.805,98.666 98.668,76.805 98.668,49.833 98.668,22.864 76.805,1 49.834,1 m 33.378,79.034 -4.392,-5.24 c -0.617,0.716 -1.264,1.411 -1.939,2.088 -5.561,5.56 -12.529,9.194 -20.104,10.574 l 2.533,6.382 -18.939,0.002 2.341,-6.416 C 35.208,86.02 28.303,82.397 22.787,76.882 22.068,76.163 21.382,75.419 20.728,74.654 l -4.264,5.39 -9.473,-16.399 6.719,-1.18 c -1.397,-4.006 -2.126,-8.262 -2.126,-12.631 0,-4.428 0.749,-8.742 2.185,-12.797 l -6.783,-0.995 9.466,-16.405 4.391,5.242 c 0.62,-0.717 1.269,-1.416 1.945,-2.092 C 28.349,17.225 35.322,13.59 42.897,12.21 L 40.365,5.828 h 18.939 l -2.345,6.417 c 7.503,1.406 14.407,5.026 19.921,10.542 0.721,0.72 1.406,1.465 2.062,2.231 l 4.265,-5.39 9.47,16.402 -6.719,1.177 c 1.396,4.006 2.125,8.26 2.125,12.626 0,4.431 -0.749,8.747 -2.186,12.802 l 6.781,0.996 z"
           id="path8"
           inkscape:connector-curvature="0" /></g><g
         id="g10"><path
           d="m 49.834,16.597 c -8.877,0 -17.225,3.458 -23.502,9.734 -6.278,6.278 -9.734,14.625 -9.734,23.502 0,8.877 3.457,17.226 9.734,23.501 6.278,6.277 14.625,9.736 23.502,9.736 8.877,0 17.225,-3.459 23.501,-9.736 6.276,-6.275 9.733,-14.624 9.733,-23.501 0,-8.877 -3.457,-17.224 -9.733,-23.502 -6.276,-6.276 -14.623,-9.734 -23.501,-9.734 m 19.957,53.194 c -5.331,5.33 -12.418,8.268 -19.957,8.268 -7.539,0 -14.627,-2.938 -19.957,-8.268 -5.331,-5.331 -8.266,-12.418 -8.266,-19.958 0,-7.538 2.936,-14.626 8.266,-19.957 5.33,-5.331 12.418,-8.266 19.957,-8.266 7.539,0 14.625,2.936 19.957,8.266 5.332,5.33 8.268,12.419 8.268,19.957 0,7.54 -2.937,14.627 -8.268,19.958"
           id="path12"
           inkscape:connector-curvature="0" /></g><g
         id="g14"><path
           d="m 51.945,46.388 c -4.684,-1.938 -6.038,-3.101 -6.038,-5.189 0,-1.742 1.23,-3.605 4.682,-3.605 3.304,0 5.384,1.188 6.271,1.695 l 1.037,0.592 2.076,-5.475 -0.744,-0.438 C 57.319,32.85 55.188,32.203 52.737,32.003 V 26.728 H 47.36 v 5.614 c -4.963,1.13 -8.122,4.782 -8.122,9.501 0,5.733 4.577,8.319 9.513,10.254 3.866,1.567 5.443,3.147 5.443,5.459 0,2.541 -2.164,4.25 -5.38,4.25 -2.524,0 -5.142,-0.781 -7.181,-2.143 l -1.087,-0.725 -1.994,5.562 0.627,0.448 c 1.882,1.346 4.861,2.291 7.804,2.513 v 5.48 h 5.431 v -5.778 c 5.12,-1.181 8.501,-5.103 8.501,-9.983 10e-4,-5 -2.685,-8.229 -8.97,-10.792"
           id="path16"
           inkscape:connector-curvature="0" /></g></g></svg></svg>
