<?xml version="1.0" encoding="UTF-8"?>
<svg xmlns="http://www.w3.org/2000/svg" xmlns:xlink="http://www.w3.org/1999/xlink" width="30px" height="46px" viewBox="0 0 30 46" version="1.1">
<defs>
<clipPath id="clip1">
  <path d="M 8 6.921875 L 22 6.921875 L 22 21 L 8 21 Z M 8 6.921875 "/>
</clipPath>
</defs>
<g id="surface1">
<path style="fill-rule:nonzero;fill:rgb(100%,40.000001%,0%);fill-opacity:1;stroke-width:1;stroke-linecap:round;stroke-linejoin:miter;stroke:rgb(83.137256%,33.333334%,0%);stroke-opacity:1;stroke-miterlimit:4;" d="M 13.040625 0.638587 C 6.25625 0.638587 0.609375 6.287364 0.609375 12.418478 C 0.609375 15.17663 2.224219 18.678668 3.388802 21.097147 L 13 38.828125 L 22.560417 21.097147 C 23.725 18.678668 25.383854 15.353261 25.383854 12.418478 C 25.383854 6.290761 19.828385 0.638587 13.04401 0.638587 Z M 13.040625 2.099185 C 18.934635 2.136549 23.721615 6.756114 23.721615 12.428668 C 23.721615 18.108016 18.938021 22.659647 13.040625 22.700408 C 7.146615 22.663043 2.369792 18.11481 2.369792 12.428668 C 2.369792 6.752717 7.15 2.129755 13.040625 2.099185 Z M 13.040625 2.099185 " transform="matrix(1.153846,0,0,1.15,0,0)"/>
<path style="fill-rule:nonzero;fill:rgb(100%,100%,100%);fill-opacity:1;stroke-width:1.00275;stroke-linecap:butt;stroke-linejoin:miter;stroke:rgb(100%,100%,100%);stroke-opacity:1;stroke-miterlimit:4;" d="M 23.010677 12.374321 C 23.010677 17.703804 18.528385 22.02106 13.003385 22.02106 C 7.478385 22.02106 2.996094 17.703804 2.996094 12.374321 C 2.996094 7.048234 7.478385 2.727582 13.003385 2.727582 C 18.528385 2.727582 23.010677 7.048234 23.010677 12.374321 Z M 23.010677 12.374321 " transform="matrix(1.153846,0,0,1.15,0,0)"/>
<path style=" stroke:none;fill-rule:nonzero;fill:rgb(0%,0%,0%);fill-opacity:1;" d="M 15.667969 11.714844 L 17.070312 11.714844 L 17.070312 12.925781 L 15.667969 12.925781 L 15.667969 16.59375 L 14.453125 16.59375 L 14.453125 12.925781 L 13.050781 12.925781 L 13.050781 11.714844 L 14.453125 11.714844 L 14.453125 10.148438 L 15.667969 10.148438 Z M 15.667969 11.714844 "/>
<g clip-path="url(#clip1)" clip-rule="nonzero">
<path style=" stroke:none;fill-rule:nonzero;fill:rgb(0%,0%,0%);fill-opacity:1;" d="M 20.664062 17.425781 L 20.664062 12.480469 C 20.664062 9.398438 18.152344 6.890625 15.058594 6.890625 C 11.96875 6.890625 9.453125 9.398438 9.453125 12.480469 L 9.453125 17.425781 C 8.953125 17.457031 8.554688 17.875 8.554688 18.382812 L 8.554688 19.375 C 8.554688 19.90625 8.988281 20.335938 9.519531 20.335938 L 20.636719 20.335938 C 21.167969 20.335938 21.601562 19.90625 21.601562 19.375 L 21.601562 18.382812 C 21.601562 17.863281 21.183594 17.4375 20.664062 17.425781 Z M 15.058594 7.851562 C 17.625 7.851562 19.703125 9.921875 19.703125 12.480469 L 19.703125 17.902344 L 10.417969 17.902344 L 10.417969 12.480469 C 10.417969 9.921875 12.496094 7.851562 15.058594 7.851562 Z M 20.636719 19.375 L 9.519531 19.375 L 9.519531 18.382812 L 20.636719 18.382812 Z M 20.636719 19.375 "/>
</g>
</g>
</svg>
