<?xml version="1.0" encoding="UTF-8" standalone="no"?>
<svg
   xmlns:dc="http://purl.org/dc/elements/1.1/"
   xmlns:cc="http://creativecommons.org/ns#"
   xmlns:rdf="http://www.w3.org/1999/02/22-rdf-syntax-ns#"
   xmlns:svg="http://www.w3.org/2000/svg"
   xmlns="http://www.w3.org/2000/svg"
   xmlns:sodipodi="http://sodipodi.sourceforge.net/DTD/sodipodi-0.dtd"
   xmlns:inkscape="http://www.inkscape.org/namespaces/inkscape"
   height="40"
   width="26"
   version="1.1"
   id="svg11"
   sodipodi:docname="new_Cemetery.svg"
   inkscape:version="0.92.5 (2060ec1f9f, 2020-04-08)">
  <metadata
     id="metadata17" />
  <defs
     id="defs15" />
  <sodipodi:namedview
     pagecolor="#ffffff"
     bordercolor="#666666"
     borderopacity="1"
     objecttolerance="10"
     gridtolerance="10"
     guidetolerance="10"
     inkscape:pageopacity="0"
     inkscape:pageshadow="2"
     inkscape:window-width="640"
     inkscape:window-height="480"
     id="namedview13"
     showgrid="false"
     inkscape:zoom="5.9"
     inkscape:cx="13"
     inkscape:cy="20"
     inkscape:window-x="0"
     inkscape:window-y="0"
     inkscape:window-maximized="0"
     inkscape:current-layer="svg2" />
  <path
     d="m13.04 0.6387c-6.783 0-12.43 5.649-12.43 11.78 0 2.757 1.613 6.26 2.779 8.68l9.611 17.73 9.56-17.73c1.166-2.42 2.824-5.747 2.824-8.68 0-6.128-5.555-11.78-12.34-11.78zm0 1.461c5.895 0.0373 10.68 4.656 10.68 10.33 0 5.678-4.781 10.23-10.68 10.27-5.895-0.0373-10.67-4.585-10.67-10.27 0-5.678 4.779-10.3 10.67-10.33z"
     stroke="#d45500"
     stroke-linecap="round"
     fill="#f60"
     id="path2" />
  <ellipse
     style="fill:#ffffff;stroke:#ffffff;stroke-width:1.00274992"
     id="path13"
     cx="13.003574"
     cy="12.374899"
     rx="10.005984"
     ry="9.6464386" />
  <svg
     version="1.1"
     x="6.543"
     y="6.02"
     viewBox="0 0 90 112.5"
     enable-background="new 0 0 90 90"
     xml:space="preserve"
     id="svg2"
     inkscape:version="0.91 r13725"
     sodipodi:docname="Cemetery.svg"><metadata
       id="metadata16"><rdf:RDF><cc:Work
           rdf:about=""><dc:format>image/svg+xml</dc:format><dc:type
             rdf:resource="http://purl.org/dc/dcmitype/StillImage" /></cc:Work></rdf:RDF></metadata><defs
       id="defs14" /><sodipodi:namedview
       pagecolor="#ffffff"
       bordercolor="#666666"
       borderopacity="1"
       objecttolerance="10"
       gridtolerance="10"
       guidetolerance="10"
       inkscape:pageopacity="0"
       inkscape:pageshadow="2"
       inkscape:window-width="668"
       inkscape:window-height="480"
       id="namedview12"
       showgrid="false"
       inkscape:zoom="2.0977778"
       inkscape:cx="45"
       inkscape:cy="56.25"
       inkscape:window-x="75"
       inkscape:window-y="34"
       inkscape:window-maximized="0"
       inkscape:current-layer="svg2" /><polygon
       points="48.796,32.726 57.813,32.726 57.813,40.554 48.796,40.554 48.796,64.247 40.97,64.247 40.97,40.554 31.954,40.554 31.954,32.726 40.97,32.726 40.97,22.628 48.796,22.628 "
       id="polygon4"
       transform="matrix(0.4660821,0,0,0.4660821,1.6118981,-13.815937)" /><path
       d="M 39.347769,18.629902 V 3.7437058 c 0,-9.2717707 -7.544005,-16.8162418 -16.81531,-16.8162418 -9.274102,0 -16.816242,7.5449375 -16.816242,16.8162418 V 18.635495 C 4.2107719,18.731045 3.019,19.983871 3.019,21.514018 v 2.987587 c 0,1.594 1.2915135,2.886446 2.8855143,2.886446 h 2.697217 27.8600567 2.804882 c 1.594001,0 2.885514,-1.292446 2.885514,-2.886446 v -2.987587 c 0,-1.566968 -1.247701,-2.842169 -2.804415,-2.884116 z m -16.81531,-28.816924 c 7.692219,0 13.929796,6.2371108 13.929796,13.9307278 V 20.071027 H 8.6017313 V 3.7437058 c 0,-7.693617 6.2366447,-13.9307278 13.9307277,-13.9307278 z M 39.26667,24.501605 H 5.9045143 V 21.514018 H 39.26667 Z"
       id="path6"
       inkscape:connector-curvature="0"
       style="stroke-width:0.46608207" /></svg></svg>
