<?xml version="1.0" encoding="UTF-8"?>
<svg xmlns="http://www.w3.org/2000/svg" xmlns:xlink="http://www.w3.org/1999/xlink" width="30px" height="46px" viewBox="0 0 30 46" version="1.1">
<defs>
<clipPath id="clip1">
  <path d="M 9 6.921875 L 21 6.921875 L 21 21 L 9 21 Z M 9 6.921875 "/>
</clipPath>
</defs>
<g id="surface1">
<path style="fill-rule:nonzero;fill:rgb(100%,40.000001%,0%);fill-opacity:1;stroke-width:1;stroke-linecap:round;stroke-linejoin:miter;stroke:rgb(83.137256%,33.333334%,0%);stroke-opacity:1;stroke-miterlimit:4;" d="M 13.040625 0.638587 C 6.25625 0.638587 0.609375 6.287364 0.609375 12.418478 C 0.609375 15.17663 2.224219 18.678668 3.388802 21.097147 L 13 38.828125 L 22.560417 21.097147 C 23.725 18.678668 25.383854 15.353261 25.383854 12.418478 C 25.383854 6.290761 19.828385 0.638587 13.04401 0.638587 Z M 13.040625 2.099185 C 18.934635 2.136549 23.721615 6.756114 23.721615 12.428668 C 23.721615 18.108016 18.938021 22.659647 13.040625 22.700408 C 7.146615 22.663043 2.369792 18.11481 2.369792 12.428668 C 2.369792 6.752717 7.15 2.129755 13.040625 2.099185 Z M 13.040625 2.099185 " transform="matrix(1.153846,0,0,1.15,0,0)"/>
<path style="fill-rule:nonzero;fill:rgb(100%,100%,100%);fill-opacity:1;stroke-width:1.00275;stroke-linecap:butt;stroke-linejoin:miter;stroke:rgb(100%,100%,100%);stroke-opacity:1;stroke-miterlimit:4;" d="M 23.010677 12.374321 C 23.010677 17.703804 18.528385 22.02106 13.003385 22.02106 C 7.478385 22.02106 2.996094 17.703804 2.996094 12.374321 C 2.996094 7.048234 7.478385 2.727582 13.003385 2.727582 C 18.528385 2.727582 23.010677 7.048234 23.010677 12.374321 Z M 23.010677 12.374321 " transform="matrix(1.153846,0,0,1.15,0,0)"/>
<g clip-path="url(#clip1)" clip-rule="nonzero">
<path style=" stroke:none;fill-rule:nonzero;fill:rgb(0%,0%,0%);fill-opacity:1;" d="M 12.042969 6.816406 C 11.46875 6.816406 10.996094 7.234375 10.996094 7.746094 L 10.996094 19.808594 L 10.125 19.808594 C 10.113281 19.808594 10.105469 19.808594 10.09375 19.808594 C 9.902344 19.816406 9.753906 19.960938 9.761719 20.132812 C 9.769531 20.304688 9.933594 20.433594 10.125 20.425781 L 19.886719 20.425781 C 20.011719 20.429688 20.128906 20.371094 20.191406 20.273438 C 20.253906 20.175781 20.253906 20.058594 20.191406 19.960938 C 20.128906 19.867188 20.011719 19.808594 19.886719 19.808594 L 19.015625 19.808594 L 19.015625 18.878906 L 19.535156 18.878906 C 20.109375 18.878906 20.582031 18.460938 20.582031 17.953125 L 20.582031 9.601562 C 20.582031 9.089844 20.109375 8.671875 19.535156 8.671875 L 19.015625 8.671875 L 19.015625 7.746094 C 19.015625 7.234375 18.542969 6.816406 17.96875 6.816406 Z M 12.042969 7.433594 L 17.96875 7.433594 C 18.167969 7.433594 18.316406 7.566406 18.316406 7.746094 L 18.316406 19.808594 L 11.695312 19.808594 L 11.695312 7.746094 C 11.695312 7.566406 11.84375 7.433594 12.042969 7.433594 Z M 12.707031 8.054688 C 12.527344 8.070312 12.390625 8.203125 12.390625 8.363281 L 12.390625 11.457031 C 12.390625 11.628906 12.546875 11.765625 12.738281 11.765625 L 17.269531 11.765625 C 17.464844 11.765625 17.621094 11.628906 17.621094 11.457031 L 17.621094 8.363281 C 17.621094 8.191406 17.464844 8.054688 17.269531 8.054688 L 12.738281 8.054688 C 12.730469 8.054688 12.71875 8.054688 12.707031 8.054688 Z M 13.089844 8.671875 L 16.921875 8.671875 L 16.921875 11.148438 L 13.089844 11.148438 Z M 19.015625 9.289062 L 19.535156 9.289062 C 19.734375 9.289062 19.886719 9.421875 19.886719 9.601562 L 19.886719 10.527344 L 19.015625 10.527344 Z M 19.015625 11.148438 L 19.886719 11.148438 L 19.886719 17.953125 C 19.886719 18.128906 19.734375 18.261719 19.535156 18.261719 L 19.015625 18.261719 Z M 15.832031 12.695312 C 15.738281 12.703125 15.652344 12.75 15.59375 12.820312 L 12.804688 16.222656 C 12.726562 16.316406 12.714844 16.441406 12.777344 16.546875 C 12.835938 16.652344 12.957031 16.714844 13.089844 16.714844 L 13.785156 16.714844 L 13.785156 18.570312 C 13.785156 18.707031 13.882812 18.824219 14.027344 18.863281 C 14.171875 18.90625 14.328125 18.859375 14.417969 18.75 L 17.207031 15.351562 C 17.28125 15.257812 17.289062 15.132812 17.230469 15.03125 C 17.171875 14.929688 17.054688 14.863281 16.921875 14.863281 L 16.226562 14.859375 L 16.226562 13.003906 C 16.226562 12.914062 16.183594 12.828125 16.109375 12.769531 C 16.035156 12.710938 15.933594 12.683594 15.832031 12.695312 Z M 15.527344 13.949219 L 15.527344 15.167969 C 15.527344 15.339844 15.683594 15.476562 15.878906 15.476562 L 16.238281 15.476562 L 14.484375 17.617188 L 14.484375 16.40625 C 14.484375 16.234375 14.328125 16.097656 14.132812 16.097656 L 13.769531 16.097656 Z M 15.527344 13.949219 "/>
</g>
</g>
</svg>
