<?xml version="1.0" encoding="UTF-8" standalone="no"?>
<svg
   xmlns:dc="http://purl.org/dc/elements/1.1/"
   xmlns:cc="http://creativecommons.org/ns#"
   xmlns:rdf="http://www.w3.org/1999/02/22-rdf-syntax-ns#"
   xmlns:svg="http://www.w3.org/2000/svg"
   xmlns="http://www.w3.org/2000/svg"
   xmlns:sodipodi="http://sodipodi.sourceforge.net/DTD/sodipodi-0.dtd"
   xmlns:inkscape="http://www.inkscape.org/namespaces/inkscape"
   height="44px"
   width="30px"
   version="1.1"
   viewBox="0 0 29.988946 43.988056"
   id="svg16"
   sodipodi:docname="Charging Station.svg"
   inkscape:version="0.92.5 (2060ec1f9f, 2020-04-08)">
  <metadata
     id="metadata20">
    <rdf:RDF>
      <cc:Work
         rdf:about="">
        <dc:format>image/svg+xml</dc:format>
        <dc:type
           rdf:resource="http://purl.org/dc/dcmitype/StillImage" />
        <dc:title />
      </cc:Work>
    </rdf:RDF>
  </metadata>
  <sodipodi:namedview
     pagecolor="#ffffff"
     bordercolor="#666666"
     borderopacity="1"
     objecttolerance="10"
     gridtolerance="10"
     guidetolerance="10"
     inkscape:pageopacity="0"
     inkscape:pageshadow="2"
     inkscape:window-width="1680"
     inkscape:window-height="974"
     id="namedview18"
     showgrid="false"
     inkscape:zoom="16.271444"
     inkscape:cx="21.126568"
     inkscape:cy="29.773708"
     inkscape:window-x="0"
     inkscape:window-y="0"
     inkscape:window-maximized="1"
     inkscape:current-layer="svg14" />
  <defs
     id="defs7">
    <radialGradient
       id="a"
       gradientUnits="userSpaceOnUse"
       cy="127.6"
       cx="-42.75"
       gradientTransform="matrix(4.2749643,0,0,0.98162997,197.99835,-83.706911)"
       r="2.3840001">
      <stop
         stop-color="#010101"
         offset="0"
         id="stop2" />
      <stop
         stop-opacity="0"
         stop-color="#090909"
         offset="1"
         id="stop4" />
    </radialGradient>
  </defs>
  <path
     d="m 14.994475,0.0864983 c -8.2386816,0 -14.91684362,6.6781619 -14.91684362,14.9168417 0.008545,2.561815 0.67294669,5.079165 1.93504232,7.306643 L 15.595595,40.920764 27.955752,22.365563 C 29.233667,20.121838 29.907468,17.585676 29.911315,15.00334 29.911273,6.7646602 23.233154,0.0864983 14.994475,0.0864983 Z"
     id="path9"
     inkscape:connector-curvature="0"
     style="fill:#FF8C00;stroke-width:4.27539158" />
  <circle
     cy="15.050359"
     cx="14.994473"
     r="9.4272394"
     id="circle11"
     style="fill:#f9f3f3;stroke-width:4.27539158" />
  <ellipse
     rx="10.192533"
     ry="2.3394945"
     cy="41.562065"
     cx="14.994473"
     id="ellipse13"
     style="opacity:0.4;fill:url(#a);stroke-width:4.27496433" />
  <rect
     id="replace"
     rx="0"
     ry="0"
     height="13.36915"
     width="13.471761"
     y="8.2097387"
     x="8.2585926"
     style="fill:none;stroke-width:4.27539158" />
  <svg
     inkscape:version="0.92.5 (2060ec1f9f, 2020-04-08)"
     height="100"
     width="100"
     sodipodi:docname="Charging Station.svg"
     id="svg14"
     y="10"
     x="8.5"
     viewBox="0 0 100 100"
     style="clip-rule:evenodd;fill-rule:evenodd;image-rendering:optimizeQuality;shape-rendering:geometricPrecision;text-rendering:geometricPrecision"
     version="1.1"
     xml:space="preserve"><metadata
       id="metadata18"><rdf:RDF><cc:Work
           rdf:about=""><dc:format>image/svg+xml</dc:format><dc:type
             rdf:resource="http://purl.org/dc/dcmitype/StillImage" /><dc:title /></cc:Work></rdf:RDF></metadata><sodipodi:namedview
       inkscape:current-layer="svg14"
       inkscape:window-maximized="1"
       inkscape:window-y="0"
       inkscape:window-x="0"
       inkscape:cy="61.733721"
       inkscape:cx="106.12875"
       inkscape:zoom="1.7839511"
       showgrid="false"
       id="namedview16"
       inkscape:window-height="884"
       inkscape:window-width="1680"
       inkscape:pageshadow="2"
       inkscape:pageopacity="0"
       guidetolerance="10"
       gridtolerance="10"
       objecttolerance="10"
       borderopacity="1"
       bordercolor="#666666"
       pagecolor="#ffffff" /><defs
       id="defs4"><style
         id="style2"
         type="text/css">
   
    .fil0 {fill:black;fill-rule:nonzero}
   
  </style></defs><g
       transform="matrix(0.01141996,0,0,0.01141996,1.6600899,0.40068396)"
       id="g8"><path
         style="fill:#000000;fill-rule:nonzero"
         inkscape:connector-curvature="0"
         id="path6"
         d="M 662.76,34.09 H 219.64 c -13.67,0 -24.77,11.1 -24.77,24.78 V 527.03 H 152.64 V 226.67 c 0,-13.68 -11.1,-24.77 -24.77,-24.77 H 68.19 c -32.58,0 -32.58,49.54 0,49.54 h 34.9 V 551.8 c 0,13.68 11.1,24.78 24.78,24.78 h 67 v 86.79 h -90.61 c -13.67,0 -24.77,11.09 -24.77,24.77 v 99.64 c 0,13.68 11.1,24.78 24.77,24.78 h 673.86 c 13.68,0 24.78,-11.1 24.78,-24.78 v -99.64 c 0,-13.68 -11.1,-24.77 -24.78,-24.77 H 687.54 V 58.87 c 0,-13.68 -11.1,-24.78 -24.78,-24.78 z m -219.47,146.83 -66.65,91.06 c -6.62,9.05 -0.03,21.49 10.95,21.6 h 26.67 l -4.91,64.2 c -1.02,13.85 16.99,19.96 24.72,8.68 l 71.53,-93.81 c 6.45,-8.45 1.08,-20.44 -9.19,-21.71 l -31.71,-3.87 3.07,-57.45 c 0.66,-13.46 -16.59,-19.41 -24.48,-8.7 z M 291.75,117.99 h 298.9 c 13.67,0 24.77,11.1 24.77,24.77 v 262.21 c 0,13.67 -11.1,24.77 -24.77,24.77 h -298.9 c -13.68,0 -24.78,-11.1 -24.78,-24.77 V 142.76 c 0,-13.67 11.1,-24.77 24.78,-24.77 z"
         class="fil0" /></g></svg></svg>
