<?xml version="1.0" encoding="UTF-8"?>
<svg xmlns="http://www.w3.org/2000/svg" xmlns:xlink="http://www.w3.org/1999/xlink" width="30px" height="46px" viewBox="0 0 30 46" version="1.1">
<defs>
<clipPath id="clip1">
  <path d="M 14 6.921875 L 16 6.921875 L 16 10 L 14 10 Z M 14 6.921875 "/>
</clipPath>
<clipPath id="clip2">
  <path d="M 8 8 L 22 8 L 22 21.769531 L 8 21.769531 Z M 8 8 "/>
</clipPath>
</defs>
<g id="surface1">
<path style="fill-rule:nonzero;fill:rgb(100%,40.000001%,0%);fill-opacity:1;stroke-width:1;stroke-linecap:round;stroke-linejoin:miter;stroke:rgb(83.137256%,33.333334%,0%);stroke-opacity:1;stroke-miterlimit:4;" d="M 13.040625 0.638587 C 6.25625 0.638587 0.609375 6.287364 0.609375 12.418478 C 0.609375 15.17663 2.224219 18.678668 3.388802 21.097147 L 13 38.828125 L 22.560417 21.097147 C 23.725 18.678668 25.383854 15.353261 25.383854 12.418478 C 25.383854 6.290761 19.828385 0.638587 13.04401 0.638587 Z M 13.040625 2.099185 C 18.934635 2.136549 23.721615 6.756114 23.721615 12.428668 C 23.721615 18.108016 18.938021 22.659647 13.040625 22.700408 C 7.146615 22.663043 2.369792 18.11481 2.369792 12.428668 C 2.369792 6.752717 7.15 2.129755 13.040625 2.099185 Z M 13.040625 2.099185 " transform="matrix(1.153846,0,0,1.15,0,0)"/>
<path style="fill-rule:nonzero;fill:rgb(100%,100%,100%);fill-opacity:1;stroke-width:1.00275;stroke-linecap:butt;stroke-linejoin:miter;stroke:rgb(100%,100%,100%);stroke-opacity:1;stroke-miterlimit:4;" d="M 23.010677 12.374321 C 23.010677 17.703804 18.528385 22.02106 13.003385 22.02106 C 7.478385 22.02106 2.996094 17.703804 2.996094 12.374321 C 2.996094 7.048234 7.478385 2.727582 13.003385 2.727582 C 18.528385 2.727582 23.010677 7.048234 23.010677 12.374321 Z M 23.010677 12.374321 " transform="matrix(1.153846,0,0,1.15,0,0)"/>
<g clip-path="url(#clip1)" clip-rule="nonzero">
<path style=" stroke:none;fill-rule:nonzero;fill:rgb(0%,0%,0%);fill-opacity:1;" d="M 14.875 9.011719 L 15.121094 9.011719 L 15.121094 7.835938 L 15.71875 7.835938 L 15.71875 7.605469 L 15.121094 7.605469 L 15.121094 6.921875 L 14.875 6.921875 L 14.875 7.605469 L 14.277344 7.605469 L 14.277344 7.835938 L 14.875 7.835938 Z M 14.875 9.011719 "/>
</g>
<g clip-path="url(#clip2)" clip-rule="nonzero">
<path style=" stroke:none;fill-rule:nonzero;fill:rgb(0%,0%,0%);fill-opacity:1;" d="M 18.59375 16.953125 L 18.59375 15.132812 L 18.9375 15.132812 L 16.632812 12.863281 L 16.210938 12.863281 L 16.210938 11.15625 L 16.550781 11.15625 L 15.160156 8.863281 L 14.835938 8.863281 L 13.445312 11.15625 L 13.785156 11.15625 L 13.785156 12.863281 L 13.363281 12.863281 L 11.058594 15.132812 L 11.402344 15.132812 L 11.402344 16.953125 L 8.976562 18.765625 L 8.976562 21.769531 L 11.679688 21.769531 L 11.679688 19.882812 C 11.679688 19.492188 12.023438 19.175781 12.449219 19.175781 C 12.871094 19.175781 13.214844 19.492188 13.214844 19.882812 L 13.214844 21.769531 L 14.007812 21.769531 L 14.007812 19.316406 C 14.007812 18.8125 14.453125 18.402344 14.996094 18.402344 C 15.542969 18.402344 15.988281 18.8125 15.988281 19.316406 L 15.988281 21.769531 L 16.78125 21.769531 L 16.78125 19.882812 C 16.78125 19.492188 17.125 19.175781 17.546875 19.175781 C 17.972656 19.175781 18.316406 19.492188 18.316406 19.882812 L 18.316406 21.769531 L 21.019531 21.769531 L 21.019531 18.765625 Z M 14.054688 16.929688 L 13.25 16.929688 L 13.25 15.902344 C 13.25 15.695312 13.429688 15.527344 13.652344 15.527344 C 13.875 15.527344 14.054688 15.695312 14.054688 15.902344 Z M 15.402344 16.929688 L 14.59375 16.929688 L 14.59375 15.902344 C 14.59375 15.695312 14.773438 15.527344 15 15.527344 C 15.21875 15.527344 15.402344 15.695312 15.402344 15.902344 Z M 15.402344 12.675781 L 14.59375 12.675781 L 14.59375 11.648438 C 14.59375 11.445312 14.773438 11.277344 15 11.277344 C 15.21875 11.277344 15.402344 11.445312 15.402344 11.648438 Z M 16.746094 16.929688 L 15.941406 16.929688 L 15.941406 15.902344 C 15.941406 15.695312 16.121094 15.527344 16.34375 15.527344 C 16.566406 15.527344 16.746094 15.695312 16.746094 15.902344 Z M 16.746094 16.929688 "/>
</g>
</g>
</svg>
