<?xml version="1.0" encoding="UTF-8"?>
<svg xmlns="http://www.w3.org/2000/svg" xmlns:xlink="http://www.w3.org/1999/xlink" width="30px" height="46px" viewBox="0 0 30 46" version="1.1">
<defs>
<clipPath id="clip1">
  <path d="M 9 7 L 20 7 L 20 21.769531 L 9 21.769531 Z M 9 7 "/>
</clipPath>
</defs>
<g id="surface1">
<path style="fill-rule:nonzero;fill:rgb(100%,40.000001%,0%);fill-opacity:1;stroke-width:1;stroke-linecap:round;stroke-linejoin:miter;stroke:rgb(83.137256%,33.333334%,0%);stroke-opacity:1;stroke-miterlimit:4;" d="M 13.040625 0.638587 C 6.25625 0.638587 0.609375 6.287364 0.609375 12.418478 C 0.609375 15.17663 2.224219 18.678668 3.388802 21.097147 L 13 38.828125 L 22.560417 21.097147 C 23.725 18.678668 25.383854 15.353261 25.383854 12.418478 C 25.383854 6.290761 19.828385 0.638587 13.04401 0.638587 Z M 13.040625 2.099185 C 18.934635 2.136549 23.721615 6.756114 23.721615 12.428668 C 23.721615 18.108016 18.938021 22.659647 13.040625 22.700408 C 7.146615 22.663043 2.369792 18.11481 2.369792 12.428668 C 2.369792 6.752717 7.15 2.129755 13.040625 2.099185 Z M 13.040625 2.099185 " transform="matrix(1.153846,0,0,1.15,0,0)"/>
<path style="fill-rule:nonzero;fill:rgb(100%,100%,100%);fill-opacity:1;stroke-width:1.00275;stroke-linecap:butt;stroke-linejoin:miter;stroke:rgb(100%,100%,100%);stroke-opacity:1;stroke-miterlimit:4;" d="M 23.010677 12.374321 C 23.010677 17.703804 18.528385 22.02106 13.003385 22.02106 C 7.478385 22.02106 2.996094 17.703804 2.996094 12.374321 C 2.996094 7.048234 7.478385 2.727582 13.003385 2.727582 C 18.528385 2.727582 23.010677 7.048234 23.010677 12.374321 Z M 23.010677 12.374321 " transform="matrix(1.153846,0,0,1.15,0,0)"/>
<g clip-path="url(#clip1)" clip-rule="nonzero">
<path style=" stroke:none;fill-rule:nonzero;fill:rgb(0%,0%,0%);fill-opacity:1;" d="M 19.65625 17.789062 C 19.609375 17.75 19.550781 17.734375 19.492188 17.746094 L 17.382812 18.136719 L 17.382812 17.433594 C 17.382812 17.324219 17.292969 17.234375 17.179688 17.234375 L 14.738281 17.234375 L 14.738281 16.289062 C 16.828125 16.097656 18.546875 14.472656 18.746094 12.347656 C 18.972656 9.949219 17.171875 7.824219 14.722656 7.605469 C 12.273438 7.382812 10.105469 9.148438 9.878906 11.550781 C 9.667969 13.824219 11.277344 15.847656 13.527344 16.242188 L 13.527344 17.234375 L 11.941406 17.234375 C 11.828125 17.234375 11.738281 17.324219 11.738281 17.433594 L 11.738281 20.933594 C 11.738281 21.042969 11.828125 21.128906 11.941406 21.128906 L 17.179688 21.128906 C 17.292969 21.128906 17.382812 21.042969 17.382812 20.933594 L 17.382812 20.226562 L 19.492188 20.617188 C 19.503906 20.621094 19.515625 20.621094 19.527344 20.621094 C 19.574219 20.621094 19.621094 20.605469 19.65625 20.578125 C 19.703125 20.539062 19.730469 20.484375 19.730469 20.425781 L 19.730469 17.941406 C 19.730469 17.878906 19.703125 17.824219 19.65625 17.789062 Z M 18.335938 12.164062 L 18.3125 12.449219 C 18.253906 13.0625 17.710938 13.417969 17.109375 13.242188 L 16.605469 13.097656 C 16.003906 12.917969 15.539062 12.449219 15.578125 12.046875 C 15.613281 11.648438 16.160156 11.273438 16.78125 11.210938 L 17.304688 11.160156 C 17.929688 11.097656 18.394531 11.550781 18.335938 12.164062 Z M 14.988281 9.46875 L 15.273438 9.035156 C 15.617188 8.519531 16.265625 8.453125 16.714844 8.882812 L 16.921875 9.082031 C 17.371094 9.511719 17.3125 10.152344 16.796875 10.5 L 16.367188 10.792969 C 15.851562 11.144531 15.1875 11.199219 14.894531 10.917969 C 14.601562 10.636719 14.644531 9.984375 14.988281 9.46875 Z M 14.691406 13.085938 C 15.03125 12.859375 15.671875 13.03125 16.117188 13.464844 L 16.484375 13.828125 C 16.929688 14.265625 16.867188 14.90625 16.347656 15.25 L 16.109375 15.40625 C 15.585938 15.753906 14.964844 15.570312 14.71875 15.003906 L 14.515625 14.527344 C 14.273438 13.957031 14.351562 13.308594 14.691406 13.085938 Z M 12.308594 8.574219 L 12.558594 8.433594 C 13.109375 8.132812 13.71875 8.363281 13.917969 8.949219 L 14.082031 9.4375 C 14.28125 10.019531 14.152344 10.660156 13.792969 10.855469 C 13.4375 11.054688 12.808594 10.832031 12.398438 10.367188 L 12.054688 9.972656 C 11.648438 9.503906 11.761719 8.875 12.308594 8.574219 Z M 10.292969 11.726562 L 10.320312 11.441406 C 10.375 10.828125 10.917969 10.46875 11.523438 10.640625 L 12.023438 10.78125 C 12.628906 10.953125 13.09375 11.421875 13.054688 11.820312 C 13.015625 12.222656 12.476562 12.601562 11.851562 12.667969 L 11.324219 12.722656 C 10.699219 12.785156 10.234375 12.335938 10.292969 11.726562 Z M 11.859375 15.058594 L 11.644531 14.871094 C 11.179688 14.457031 11.210938 13.816406 11.71875 13.449219 L 12.144531 13.144531 C 12.648438 12.78125 13.3125 12.703125 13.617188 12.972656 C 13.917969 13.242188 13.898438 13.894531 13.570312 14.417969 L 13.296875 14.855469 C 12.972656 15.382812 12.324219 15.472656 11.859375 15.058594 Z M 11.859375 15.058594 "/>
</g>
</g>
</svg>
