<?xml version="1.0" encoding="UTF-8"?>
<svg xmlns="http://www.w3.org/2000/svg" xmlns:xlink="http://www.w3.org/1999/xlink" width="30px" height="46px" viewBox="0 0 30 46" version="1.1">
<defs>
<clipPath id="clip1">
  <path d="M 11 6.921875 L 22.445312 6.921875 L 22.445312 18 L 11 18 Z M 11 6.921875 "/>
</clipPath>
<clipPath id="clip2">
  <path d="M 7.550781 10 L 13 10 L 13 21.769531 L 7.550781 21.769531 Z M 7.550781 10 "/>
</clipPath>
</defs>
<g id="surface1">
<path style="fill-rule:nonzero;fill:rgb(100%,40.000001%,0%);fill-opacity:1;stroke-width:1;stroke-linecap:round;stroke-linejoin:miter;stroke:rgb(83.137256%,33.333334%,0%);stroke-opacity:1;stroke-miterlimit:4;" d="M 13.040625 0.638587 C 6.25625 0.638587 0.609375 6.287364 0.609375 12.418478 C 0.609375 15.17663 2.224219 18.678668 3.388802 21.097147 L 13 38.828125 L 22.560417 21.097147 C 23.725 18.678668 25.383854 15.353261 25.383854 12.418478 C 25.383854 6.290761 19.828385 0.638587 13.04401 0.638587 Z M 13.040625 2.099185 C 18.934635 2.136549 23.721615 6.756114 23.721615 12.428668 C 23.721615 18.108016 18.938021 22.659647 13.040625 22.700408 C 7.146615 22.663043 2.369792 18.11481 2.369792 12.428668 C 2.369792 6.752717 7.15 2.129755 13.040625 2.099185 Z M 13.040625 2.099185 " transform="matrix(1.153846,0,0,1.15,0,0)"/>
<path style="fill-rule:nonzero;fill:rgb(100%,100%,100%);fill-opacity:1;stroke-width:1.00275;stroke-linecap:butt;stroke-linejoin:miter;stroke:rgb(100%,100%,100%);stroke-opacity:1;stroke-miterlimit:4;" d="M 23.010677 12.374321 C 23.010677 17.703804 18.528385 22.02106 13.003385 22.02106 C 7.478385 22.02106 2.996094 17.703804 2.996094 12.374321 C 2.996094 7.048234 7.478385 2.727582 13.003385 2.727582 C 18.528385 2.727582 23.010677 7.048234 23.010677 12.374321 Z M 23.010677 12.374321 " transform="matrix(1.153846,0,0,1.15,0,0)"/>
<g clip-path="url(#clip1)" clip-rule="nonzero">
<path style=" stroke:none;fill-rule:evenodd;fill:rgb(0%,0%,0%);fill-opacity:1;" d="M 21.355469 6.996094 L 12.332031 6.996094 C 11.726562 6.996094 11.242188 7.476562 11.242188 8.082031 L 11.242188 9.128906 C 11.242188 9.210938 11.304688 9.277344 11.390625 9.277344 C 11.390625 9.277344 11.683594 9.277344 11.871094 9.277344 C 11.957031 9.277344 12.019531 9.210938 12.019531 9.128906 L 12.019531 8.230469 C 12.019531 7.980469 12.226562 7.769531 12.480469 7.769531 L 21.1875 7.769531 C 21.4375 7.769531 21.648438 7.980469 21.648438 8.230469 L 21.648438 14.230469 C 21.648438 14.480469 21.4375 14.691406 21.1875 14.691406 L 13.71875 14.691406 C 13.632812 14.691406 13.570312 14.753906 13.570312 14.835938 L 13.570312 15.320312 C 13.570312 15.402344 13.632812 15.464844 13.71875 15.464844 L 15.898438 15.464844 C 15.984375 15.464844 16.046875 15.527344 16.046875 15.613281 L 16.046875 16.03125 C 16.046875 16.09375 15.984375 16.15625 15.921875 16.175781 C 15.101562 16.28125 14.535156 16.550781 14.535156 16.84375 C 14.535156 17.242188 15.5625 17.578125 16.84375 17.578125 C 18.125 17.578125 19.152344 17.242188 19.152344 16.84375 C 19.152344 16.550781 18.585938 16.28125 17.765625 16.175781 C 17.703125 16.175781 17.640625 16.113281 17.640625 16.03125 L 17.640625 15.613281 C 17.640625 15.527344 17.703125 15.464844 17.789062 15.464844 L 21.355469 15.464844 C 21.964844 15.464844 22.445312 14.984375 22.445312 14.378906 L 22.445312 8.082031 C 22.445312 7.476562 21.964844 6.996094 21.355469 6.996094 Z M 21.355469 6.996094 "/>
</g>
<g clip-path="url(#clip2)" clip-rule="nonzero">
<path style=" stroke:none;fill-rule:evenodd;fill:rgb(0%,0%,0%);fill-opacity:1;" d="M 12.226562 10.113281 L 8.054688 10.113281 C 7.78125 10.113281 7.550781 10.34375 7.550781 10.613281 L 7.550781 21.195312 C 7.550781 21.464844 7.78125 21.695312 8.054688 21.695312 L 12.226562 21.695312 C 12.5 21.695312 12.730469 21.464844 12.730469 21.195312 L 12.730469 10.613281 C 12.710938 10.34375 12.5 10.113281 12.226562 10.113281 Z M 10.128906 19.101562 C 9.710938 19.101562 9.375 18.769531 9.375 18.351562 C 9.375 17.933594 9.710938 17.597656 10.128906 17.597656 C 10.550781 17.597656 10.886719 17.933594 10.886719 18.351562 C 10.886719 18.769531 10.550781 19.101562 10.128906 19.101562 Z M 12.164062 14.105469 C 12.164062 14.210938 12.082031 14.273438 11.996094 14.273438 L 8.285156 14.273438 C 8.179688 14.273438 8.117188 14.191406 8.117188 14.105469 L 8.117188 13.125 C 8.117188 13.019531 8.199219 12.957031 8.285156 12.957031 L 11.996094 12.957031 C 12.101562 12.957031 12.164062 13.039062 12.164062 13.125 Z M 12.164062 12.121094 C 12.164062 12.222656 12.082031 12.285156 11.996094 12.285156 L 8.285156 12.285156 C 8.179688 12.285156 8.117188 12.203125 8.117188 12.121094 L 8.117188 11.136719 C 8.117188 11.03125 8.199219 10.96875 8.285156 10.96875 L 11.996094 10.96875 C 12.101562 10.96875 12.164062 11.054688 12.164062 11.136719 Z M 12.164062 12.121094 "/>
</g>
</g>
</svg>
