<?xml version="1.0" encoding="UTF-8"?>
<svg xmlns="http://www.w3.org/2000/svg" xmlns:xlink="http://www.w3.org/1999/xlink" width="30px" height="46px" viewBox="0 0 30 46" version="1.1">
<defs>
<clipPath id="clip1">
  <path d="M 7.550781 6.921875 L 22.445312 6.921875 L 22.445312 21.769531 L 7.550781 21.769531 Z M 7.550781 6.921875 "/>
</clipPath>
</defs>
<g id="surface1">
<path style="fill-rule:nonzero;fill:rgb(100%,40.000001%,0%);fill-opacity:1;stroke-width:1;stroke-linecap:round;stroke-linejoin:miter;stroke:rgb(83.137256%,33.333334%,0%);stroke-opacity:1;stroke-miterlimit:4;" d="M 13.040625 0.638587 C 6.25625 0.638587 0.609375 6.287364 0.609375 12.418478 C 0.609375 15.17663 2.224219 18.678668 3.388802 21.097147 L 13 38.828125 L 22.560417 21.097147 C 23.725 18.678668 25.383854 15.353261 25.383854 12.418478 C 25.383854 6.290761 19.828385 0.638587 13.04401 0.638587 Z M 13.040625 2.099185 C 18.934635 2.136549 23.721615 6.756114 23.721615 12.428668 C 23.721615 18.108016 18.938021 22.659647 13.040625 22.700408 C 7.146615 22.663043 2.369792 18.11481 2.369792 12.428668 C 2.369792 6.752717 7.15 2.129755 13.040625 2.099185 Z M 13.040625 2.099185 " transform="matrix(1.153846,0,0,1.15,0,0)"/>
<path style="fill-rule:nonzero;fill:rgb(100%,100%,100%);fill-opacity:1;stroke-width:1.00275;stroke-linecap:butt;stroke-linejoin:miter;stroke:rgb(100%,100%,100%);stroke-opacity:1;stroke-miterlimit:4;" d="M 23.010677 12.374321 C 23.010677 17.703804 18.528385 22.02106 13.003385 22.02106 C 7.478385 22.02106 2.996094 17.703804 2.996094 12.374321 C 2.996094 7.048234 7.478385 2.727582 13.003385 2.727582 C 18.528385 2.727582 23.010677 7.048234 23.010677 12.374321 Z M 23.010677 12.374321 " transform="matrix(1.153846,0,0,1.15,0,0)"/>
<g clip-path="url(#clip1)" clip-rule="nonzero">
<path style=" stroke:none;fill-rule:evenodd;fill:rgb(0%,0%,0%);fill-opacity:1;" d="M 22.445312 11.871094 L 22.445312 10.386719 L 19.964844 10.386719 L 19.964844 7.667969 L 16.488281 7.667969 L 16.488281 7.171875 C 16.488281 7.035156 16.375 6.921875 16.238281 6.921875 L 13.507812 6.921875 C 13.371094 6.921875 13.261719 7.035156 13.261719 7.171875 L 13.261719 7.667969 L 12.019531 7.667969 L 12.019531 9.644531 L 9.535156 9.644531 L 9.535156 12.257812 L 7.886719 11.640625 C 7.757812 11.59375 7.617188 11.660156 7.566406 11.785156 C 7.515625 11.910156 7.582031 12.054688 7.710938 12.105469 L 9.535156 12.785156 L 9.535156 15.226562 L 7.886719 14.609375 C 7.757812 14.5625 7.617188 14.625 7.566406 14.753906 C 7.515625 14.878906 7.582031 15.023438 7.710938 15.070312 L 9.535156 15.753906 L 9.535156 21.769531 L 22.445312 21.769531 L 22.445312 12.613281 L 19.964844 12.613281 L 19.964844 11.871094 Z M 21.949219 10.882812 L 21.949219 11.378906 L 19.964844 11.378906 L 19.964844 10.882812 Z M 13.757812 7.417969 L 15.992188 7.417969 L 15.992188 7.667969 L 13.757812 7.667969 Z M 19.46875 8.160156 L 19.46875 8.65625 L 12.515625 8.65625 L 12.515625 8.160156 Z M 12.515625 9.152344 L 19.46875 9.152344 L 19.46875 9.644531 L 12.515625 9.644531 Z M 10.035156 21.273438 L 10.035156 10.140625 L 12.019531 10.140625 L 12.019531 21.273438 Z M 15.246094 13.605469 L 16.734375 13.605469 L 16.734375 14.019531 C 16.734375 14.0625 16.703125 14.097656 16.65625 14.097656 L 15.324219 14.097656 C 15.28125 14.097656 15.246094 14.0625 15.246094 14.019531 Z M 15.324219 14.59375 L 16.65625 14.59375 C 16.972656 14.59375 17.234375 14.335938 17.234375 14.019531 L 17.234375 13.605469 L 19.46875 13.605469 L 19.46875 15.832031 L 12.515625 15.832031 L 12.515625 13.605469 L 14.75 13.605469 L 14.75 14.019531 C 14.75 14.335938 15.007812 14.59375 15.324219 14.59375 Z M 19.46875 18.550781 L 12.515625 18.550781 L 12.515625 16.324219 L 19.46875 16.324219 Z M 19.46875 21.273438 L 12.515625 21.273438 L 12.515625 19.046875 L 19.46875 19.046875 Z M 21.949219 13.109375 L 21.949219 21.273438 L 19.964844 21.273438 L 19.964844 13.109375 Z M 19.46875 12.613281 L 19.46875 13.109375 L 12.515625 13.109375 L 12.515625 10.140625 L 19.46875 10.140625 Z M 19.46875 12.613281 "/>
</g>
<path style=" stroke:none;fill-rule:evenodd;fill:rgb(0%,0%,0%);fill-opacity:1;" d="M 15 17.066406 L 16.984375 17.066406 C 17.121094 17.066406 17.234375 16.957031 17.234375 16.820312 C 17.234375 16.683594 17.121094 16.574219 16.984375 16.574219 L 15 16.574219 C 14.863281 16.574219 14.75 16.683594 14.75 16.820312 C 14.75 16.957031 14.863281 17.066406 15 17.066406 Z M 15 17.066406 "/>
<path style=" stroke:none;fill-rule:evenodd;fill:rgb(0%,0%,0%);fill-opacity:1;" d="M 15 19.789062 L 16.984375 19.789062 C 17.121094 19.789062 17.234375 19.679688 17.234375 19.542969 C 17.234375 19.40625 17.121094 19.292969 16.984375 19.292969 L 15 19.292969 C 14.863281 19.292969 14.75 19.40625 14.75 19.542969 C 14.75 19.679688 14.863281 19.789062 15 19.789062 Z M 15 19.789062 "/>
<path style=" stroke:none;fill-rule:evenodd;fill:rgb(0%,0%,0%);fill-opacity:1;" d="M 13.011719 12.121094 L 15.246094 12.121094 L 15.246094 10.636719 L 13.011719 10.636719 Z M 13.507812 11.128906 L 14.75 11.128906 L 14.75 11.625 L 13.507812 11.625 Z M 13.507812 11.128906 "/>
<path style=" stroke:none;fill-rule:evenodd;fill:rgb(0%,0%,0%);fill-opacity:1;" d="M 16.238281 10.636719 L 15.992188 10.636719 C 15.855469 10.636719 15.742188 10.746094 15.742188 10.882812 C 15.742188 11.019531 15.855469 11.128906 15.992188 11.128906 L 16.238281 11.128906 C 16.375 11.128906 16.488281 11.019531 16.488281 10.882812 C 16.488281 10.746094 16.375 10.636719 16.238281 10.636719 Z M 16.238281 10.636719 "/>
<path style=" stroke:none;fill-rule:evenodd;fill:rgb(0%,0%,0%);fill-opacity:1;" d="M 16.238281 11.625 L 15.992188 11.625 C 15.855469 11.625 15.742188 11.734375 15.742188 11.871094 C 15.742188 12.007812 15.855469 12.121094 15.992188 12.121094 L 16.238281 12.121094 C 16.375 12.121094 16.488281 12.007812 16.488281 11.871094 C 16.488281 11.734375 16.375 11.625 16.238281 11.625 Z M 16.238281 11.625 "/>
<path style=" stroke:none;fill-rule:evenodd;fill:rgb(0%,0%,0%);fill-opacity:1;" d="M 17.234375 10.636719 L 16.984375 10.636719 C 16.847656 10.636719 16.734375 10.746094 16.734375 10.882812 C 16.734375 11.019531 16.847656 11.128906 16.984375 11.128906 L 17.234375 11.128906 C 17.371094 11.128906 17.480469 11.019531 17.480469 10.882812 C 17.480469 10.746094 17.371094 10.636719 17.234375 10.636719 Z M 17.234375 10.636719 "/>
<path style=" stroke:none;fill-rule:evenodd;fill:rgb(0%,0%,0%);fill-opacity:1;" d="M 17.234375 11.625 L 16.984375 11.625 C 16.847656 11.625 16.734375 11.734375 16.734375 11.871094 C 16.734375 12.007812 16.847656 12.121094 16.984375 12.121094 L 17.234375 12.121094 C 17.371094 12.121094 17.480469 12.007812 17.480469 11.871094 C 17.480469 11.734375 17.371094 11.625 17.234375 11.625 Z M 17.234375 11.625 "/>
<path style=" stroke:none;fill-rule:evenodd;fill:rgb(0%,0%,0%);fill-opacity:1;" d="M 18.226562 10.636719 L 17.976562 10.636719 C 17.839844 10.636719 17.730469 10.746094 17.730469 10.882812 C 17.730469 11.019531 17.839844 11.128906 17.976562 11.128906 L 18.226562 11.128906 C 18.363281 11.128906 18.472656 11.019531 18.472656 10.882812 C 18.472656 10.746094 18.363281 10.636719 18.226562 10.636719 Z M 18.226562 10.636719 "/>
<path style=" stroke:none;fill-rule:evenodd;fill:rgb(0%,0%,0%);fill-opacity:1;" d="M 18.226562 11.625 L 17.976562 11.625 C 17.839844 11.625 17.730469 11.734375 17.730469 11.871094 C 17.730469 12.007812 17.839844 12.121094 17.976562 12.121094 L 18.226562 12.121094 C 18.363281 12.121094 18.472656 12.007812 18.472656 11.871094 C 18.472656 11.734375 18.363281 11.625 18.226562 11.625 Z M 18.226562 11.625 "/>
</g>
</svg>
