<?xml version="1.0" encoding="UTF-8"?>
<svg xmlns="http://www.w3.org/2000/svg" xmlns:xlink="http://www.w3.org/1999/xlink" width="30px" height="46px" viewBox="0 0 30 46" version="1.1">
<g id="surface1">
<path style="fill-rule:nonzero;fill:rgb(100%,40.000001%,0%);fill-opacity:1;stroke-width:1;stroke-linecap:round;stroke-linejoin:miter;stroke:rgb(83.137256%,33.333334%,0%);stroke-opacity:1;stroke-miterlimit:4;" d="M 13.040625 0.638587 C 6.25625 0.638587 0.609375 6.287364 0.609375 12.418478 C 0.609375 15.17663 2.224219 18.678668 3.388802 21.097147 L 13 38.828125 L 22.560417 21.097147 C 23.725 18.678668 25.383854 15.353261 25.383854 12.418478 C 25.383854 6.290761 19.828385 0.638587 13.04401 0.638587 Z M 13.040625 2.099185 C 18.934635 2.136549 23.721615 6.756114 23.721615 12.428668 C 23.721615 18.108016 18.938021 22.659647 13.040625 22.700408 C 7.146615 22.663043 2.369792 18.11481 2.369792 12.428668 C 2.369792 6.752717 7.15 2.129755 13.040625 2.099185 Z M 13.040625 2.099185 " transform="matrix(1.153846,0,0,1.15,0,0)"/>
<path style="fill-rule:nonzero;fill:rgb(100%,100%,100%);fill-opacity:1;stroke-width:1.00275;stroke-linecap:butt;stroke-linejoin:miter;stroke:rgb(100%,100%,100%);stroke-opacity:1;stroke-miterlimit:4;" d="M 23.010677 12.374321 C 23.010677 17.703804 18.528385 22.02106 13.003385 22.02106 C 7.478385 22.02106 2.996094 17.703804 2.996094 12.374321 C 2.996094 7.048234 7.478385 2.727582 13.003385 2.727582 C 18.528385 2.727582 23.010677 7.048234 23.010677 12.374321 Z M 23.010677 12.374321 " transform="matrix(1.153846,0,0,1.15,0,0)"/>
<path style=" stroke:none;fill-rule:nonzero;fill:rgb(0%,0%,0%);fill-opacity:1;" d="M 18.578125 9.832031 C 18.480469 9.539062 18.285156 8.789062 17.105469 8.789062 C 15.925781 8.789062 15.304688 9.277344 15.140625 9.246094 C 14.976562 9.277344 14.351562 8.789062 13.175781 8.789062 C 11.996094 8.789062 11.796875 9.539062 11.699219 9.832031 C 11.601562 10.125 11.503906 11.628906 12.320312 13.523438 C 12.320312 14.042969 11.46875 16.851562 11.832031 20.019531 C 11.894531 20.867188 13.273438 19.496094 13.597656 18.253906 C 13.925781 17.015625 14.417969 15.511719 15.140625 15.347656 C 15.859375 15.511719 16.351562 17.015625 16.679688 18.253906 C 17.003906 19.496094 18.382812 20.867188 18.445312 20.019531 C 18.808594 16.851562 17.957031 14.042969 17.957031 13.523438 C 18.773438 11.628906 18.675781 10.125 18.578125 9.832031 Z M 18.578125 9.832031 "/>
</g>
</svg>
