<?xml version="1.0" encoding="UTF-8"?>
<svg xmlns="http://www.w3.org/2000/svg" xmlns:xlink="http://www.w3.org/1999/xlink" width="30px" height="46px" viewBox="0 0 30 46" version="1.1">
<defs>
<clipPath id="clip1">
  <path d="M 7.550781 14 L 17 14 L 17 21 L 7.550781 21 Z M 7.550781 14 "/>
</clipPath>
<clipPath id="clip2">
  <path d="M 14 14 L 22.445312 14 L 22.445312 21.769531 L 14 21.769531 Z M 14 14 "/>
</clipPath>
</defs>
<g id="surface1">
<path style="fill-rule:nonzero;fill:rgb(100%,40.000001%,0%);fill-opacity:1;stroke-width:1;stroke-linecap:round;stroke-linejoin:miter;stroke:rgb(83.137256%,33.333334%,0%);stroke-opacity:1;stroke-miterlimit:4;" d="M 13.040625 0.638587 C 6.25625 0.638587 0.609375 6.287364 0.609375 12.418478 C 0.609375 15.17663 2.224219 18.678668 3.388802 21.097147 L 13 38.828125 L 22.560417 21.097147 C 23.725 18.678668 25.383854 15.353261 25.383854 12.418478 C 25.383854 6.290761 19.828385 0.638587 13.04401 0.638587 Z M 13.040625 2.099185 C 18.934635 2.136549 23.721615 6.756114 23.721615 12.428668 C 23.721615 18.108016 18.938021 22.659647 13.040625 22.700408 C 7.146615 22.663043 2.369792 18.11481 2.369792 12.428668 C 2.369792 6.752717 7.15 2.129755 13.040625 2.099185 Z M 13.040625 2.099185 " transform="matrix(1.153846,0,0,1.15,0,0)"/>
<path style="fill-rule:nonzero;fill:rgb(100%,100%,100%);fill-opacity:1;stroke-width:1.00275;stroke-linecap:butt;stroke-linejoin:miter;stroke:rgb(100%,100%,100%);stroke-opacity:1;stroke-miterlimit:4;" d="M 23.010677 12.374321 C 23.010677 17.703804 18.528385 22.02106 13.003385 22.02106 C 7.478385 22.02106 2.996094 17.703804 2.996094 12.374321 C 2.996094 7.048234 7.478385 2.727582 13.003385 2.727582 C 18.528385 2.727582 23.010677 7.048234 23.010677 12.374321 Z M 23.010677 12.374321 " transform="matrix(1.153846,0,0,1.15,0,0)"/>
<path style=" stroke:none;fill-rule:nonzero;fill:rgb(0%,0%,0%);fill-opacity:1;" d="M 15.410156 11.371094 C 15.382812 11.335938 15.34375 11.3125 15.296875 11.296875 C 15.335938 11.160156 15.347656 11.019531 15.332031 10.914062 C 15.328125 10.875 15.359375 10.792969 15.394531 10.691406 C 15.433594 10.640625 15.457031 10.550781 15.464844 10.410156 C 15.46875 10.371094 15.464844 10.328125 15.460938 10.289062 C 15.460938 10.167969 15.441406 10.050781 15.421875 9.933594 C 15.429688 9.050781 15.464844 8.460938 15.464844 8.460938 C 15.464844 8.460938 14.464844 7.484375 12.640625 7.484375 C 10.816406 7.484375 9.816406 8.394531 9.816406 8.394531 L 9.859375 9.925781 C 9.832031 10.058594 9.816406 10.199219 9.816406 10.339844 C 9.816406 10.382812 9.816406 10.421875 9.820312 10.453125 L 9.816406 10.460938 C 9.816406 10.460938 9.816406 10.464844 9.820312 10.476562 C 9.828125 10.585938 9.84375 10.640625 9.871094 10.660156 C 9.921875 10.832031 9.914062 11.089844 9.949219 11.308594 C 9.917969 11.324219 9.886719 11.34375 9.867188 11.371094 C 9.78125 11.488281 9.816406 11.742188 9.816406 11.917969 C 9.816406 12.277344 10.035156 12.566406 10.304688 12.566406 C 10.640625 13.851562 11.558594 14.773438 12.640625 14.773438 C 13.722656 14.773438 14.640625 13.851562 14.976562 12.566406 C 15.242188 12.5625 15.457031 12.273438 15.457031 11.917969 C 15.457031 11.742188 15.496094 11.488281 15.410156 11.371094 Z M 11.75 8.375 L 12.417969 8.375 L 12.417969 7.707031 L 12.863281 7.707031 L 12.863281 8.375 L 13.53125 8.375 L 13.53125 8.816406 L 12.863281 8.816406 L 12.863281 9.480469 L 12.417969 9.480469 L 12.417969 8.816406 L 11.75 8.816406 Z M 15.085938 11.917969 C 15.085938 12.101562 14.992188 12.195312 14.96875 12.195312 L 14.6875 12.199219 L 14.617188 12.472656 C 14.3125 13.628906 13.519531 14.402344 12.640625 14.402344 C 11.761719 14.402344 10.96875 13.628906 10.664062 12.472656 L 10.59375 12.195312 L 10.304688 12.195312 C 10.285156 12.195312 10.1875 12.105469 10.1875 11.917969 C 10.1875 11.875 10.1875 11.828125 10.183594 11.777344 C 10.183594 11.761719 10.183594 11.742188 10.183594 11.722656 C 10.238281 11.746094 10.300781 11.761719 10.382812 11.757812 L 10.523438 11.777344 L 10.542969 11.289062 C 10.585938 10.433594 10.902344 10.21875 11.234375 10.117188 L 11.238281 10.117188 C 11.324219 10.117188 11.527344 10.226562 11.675781 10.308594 C 11.960938 10.460938 12.28125 10.636719 12.640625 10.636719 C 13.011719 10.636719 13.320312 10.453125 13.566406 10.304688 C 13.707031 10.21875 13.863281 10.125 13.945312 10.125 C 13.953125 10.125 13.957031 10.125 13.957031 10.125 C 14.207031 10.199219 14.445312 10.320312 14.589844 10.632812 C 14.683594 10.902344 14.746094 11.265625 14.746094 11.757812 C 14.890625 11.785156 15.003906 11.742188 15.09375 11.664062 C 15.09375 11.703125 15.089844 11.746094 15.089844 11.777344 C 15.089844 11.828125 15.085938 11.875 15.085938 11.917969 Z M 15.085938 11.917969 "/>
<g clip-path="url(#clip1)" clip-rule="nonzero">
<path style=" stroke:none;fill-rule:nonzero;fill:rgb(0%,0%,0%);fill-opacity:1;" d="M 14.257812 16.433594 C 14.257812 15.875 14.453125 15.371094 14.78125 14.988281 C 14.585938 14.941406 14.394531 14.902344 14.214844 14.875 C 14.105469 16.453125 13.738281 19.777344 12.597656 19.988281 C 11.460938 19.777344 11.09375 16.472656 10.980469 14.890625 C 10.5 14.96875 9.957031 15.109375 9.40625 15.339844 C 9.242188 15.398438 9.171875 15.457031 9.039062 15.503906 C 8.527344 15.761719 8.019531 16.109375 7.558594 16.574219 C 7.515625 17.484375 7.601562 18.695312 7.992188 19.214844 C 8.347656 19.683594 8.945312 20.574219 11.667969 20.746094 C 11.667969 20.746094 12.636719 20.84375 13.582031 20.746094 C 14.902344 20.667969 15.722656 20.417969 16.261719 20.132812 C 14.824219 18.824219 14.257812 17.324219 14.257812 16.433594 Z M 14.257812 16.433594 "/>
</g>
<g clip-path="url(#clip2)" clip-rule="nonzero">
<path style=" stroke:none;fill-rule:nonzero;fill:rgb(0%,0%,0%);fill-opacity:1;" d="M 22.128906 17.765625 C 22.351562 17.242188 22.445312 16.773438 22.445312 16.433594 C 22.445312 15.382812 21.660156 14.457031 20.503906 14.457031 C 19.347656 14.457031 18.710938 15.464844 18.710938 15.464844 C 18.710938 15.464844 18.070312 14.457031 16.914062 14.457031 C 15.757812 14.457031 14.972656 15.382812 14.972656 16.433594 C 14.972656 17.484375 15.859375 19.746094 18.710938 21.207031 C 20.316406 20.382812 21.300781 19.300781 21.851562 18.328125 Z M 22.128906 17.765625 "/>
</g>
</g>
</svg>
