<?xml version="1.0" encoding="UTF-8"?>
<svg xmlns="http://www.w3.org/2000/svg" xmlns:xlink="http://www.w3.org/1999/xlink" width="30px" height="46px" viewBox="0 0 30 46" version="1.1">
<defs>
<clipPath id="clip1">
  <path d="M 11 6.921875 L 19 6.921875 L 19 13 L 11 13 Z M 11 6.921875 "/>
</clipPath>
<clipPath id="clip2">
  <path d="M 9 12 L 20 12 L 20 21.769531 L 9 21.769531 Z M 9 12 "/>
</clipPath>
<clipPath id="clip3">
  <path d="M 10 19 L 12 19 L 12 21.769531 L 10 21.769531 Z M 10 19 "/>
</clipPath>
</defs>
<g id="surface1">
<path style="fill-rule:nonzero;fill:rgb(100%,40.000001%,0%);fill-opacity:1;stroke-width:1;stroke-linecap:round;stroke-linejoin:miter;stroke:rgb(83.137256%,33.333334%,0%);stroke-opacity:1;stroke-miterlimit:4;" d="M 13.040625 0.638587 C 6.25625 0.638587 0.609375 6.287364 0.609375 12.418478 C 0.609375 15.17663 2.224219 18.678668 3.388802 21.097147 L 13 38.828125 L 22.560417 21.097147 C 23.725 18.678668 25.383854 15.353261 25.383854 12.418478 C 25.383854 6.290761 19.828385 0.638587 13.04401 0.638587 Z M 13.040625 2.099185 C 18.934635 2.136549 23.721615 6.756114 23.721615 12.428668 C 23.721615 18.108016 18.938021 22.659647 13.040625 22.700408 C 7.146615 22.663043 2.369792 18.11481 2.369792 12.428668 C 2.369792 6.752717 7.15 2.129755 13.040625 2.099185 Z M 13.040625 2.099185 " transform="matrix(1.153846,0,0,1.15,0,0)"/>
<path style="fill-rule:nonzero;fill:rgb(100%,100%,100%);fill-opacity:1;stroke-width:1.00275;stroke-linecap:butt;stroke-linejoin:miter;stroke:rgb(100%,100%,100%);stroke-opacity:1;stroke-miterlimit:4;" d="M 23.010677 12.374321 C 23.010677 17.703804 18.528385 22.02106 13.003385 22.02106 C 7.478385 22.02106 2.996094 17.703804 2.996094 12.374321 C 2.996094 7.048234 7.478385 2.727582 13.003385 2.727582 C 18.528385 2.727582 23.010677 7.048234 23.010677 12.374321 Z M 23.010677 12.374321 " transform="matrix(1.153846,0,0,1.15,0,0)"/>
<g clip-path="url(#clip1)" clip-rule="nonzero">
<path style=" stroke:none;fill-rule:nonzero;fill:rgb(0%,0%,0%);fill-opacity:1;" d="M 12.117188 8.835938 L 14.136719 8.667969 C 14.195312 8.769531 14.285156 8.851562 14.371094 8.917969 L 14.371094 10.597656 L 14.285156 10.597656 L 13.660156 11.257812 L 13.363281 11.257812 C 13.246094 11.257812 13.140625 11.371094 13.140625 11.503906 L 13.140625 12.113281 C 13.140625 12.246094 13.246094 12.359375 13.363281 12.359375 L 14.921875 12.359375 L 16.480469 12.34375 C 16.601562 12.34375 16.703125 12.230469 16.703125 12.097656 L 16.703125 11.488281 C 16.703125 11.355469 16.601562 11.242188 16.480469 11.242188 L 16.183594 11.242188 L 15.5625 10.582031 L 15.472656 10.582031 L 15.472656 8.917969 C 15.5625 8.851562 15.636719 8.769531 15.695312 8.667969 L 17.699219 8.835938 C 18.085938 8.867188 18.425781 8.519531 18.425781 8.09375 C 18.425781 7.648438 18.085938 7.300781 17.699219 7.351562 L 15.796875 7.515625 C 15.636719 7.171875 15.308594 6.921875 14.921875 6.921875 C 14.535156 6.921875 14.210938 7.171875 14.046875 7.515625 L 12.128906 7.335938 C 11.730469 7.300781 11.402344 7.648438 11.402344 8.078125 C 11.386719 8.519531 11.730469 8.867188 12.117188 8.835938 Z M 12.117188 8.835938 "/>
</g>
<g clip-path="url(#clip2)" clip-rule="nonzero">
<path style=" stroke:none;fill-rule:nonzero;fill:rgb(0%,0%,0%);fill-opacity:1;" d="M 17.015625 13.628906 C 16.050781 13.546875 16.242188 12.574219 16.242188 12.574219 L 13.617188 12.574219 C 13.394531 13.777344 12.488281 12.871094 10.898438 13.960938 C 9.652344 14.800781 9.695312 17.46875 9.695312 17.46875 L 10.660156 17.46875 C 10.617188 17.832031 10.46875 18.574219 9.976562 19.363281 C 9.589844 19.988281 9.546875 20.683594 9.859375 21.210938 C 10.066406 21.570312 10.421875 21.769531 10.808594 21.769531 C 10.882812 21.769531 10.957031 21.769531 11.03125 21.753906 C 12.070312 21.539062 11.804688 19.792969 11.65625 18.851562 L 11.640625 18.738281 C 11.597656 18.441406 11.492188 17.863281 11.433594 17.46875 L 11.832031 17.46875 C 11.921875 15.886719 12.425781 15.707031 12.828125 15.625 C 13.230469 15.539062 14.210938 16.117188 14.921875 16.117188 C 15.636719 16.117188 15.710938 15.9375 16.628906 15.804688 C 17.535156 15.65625 19.066406 15.671875 19.066406 15.671875 L 19.066406 13.628906 C 19.066406 13.628906 17.964844 13.695312 17.015625 13.628906 Z M 10.957031 21.390625 C 10.617188 21.457031 10.289062 21.308594 10.109375 20.996094 C 9.875 20.601562 9.917969 20.054688 10.230469 19.546875 C 10.78125 18.65625 10.929688 17.847656 10.972656 17.453125 L 11.105469 17.453125 C 11.164062 17.847656 11.285156 18.472656 11.328125 18.769531 L 11.34375 18.886719 C 11.460938 19.710938 11.699219 21.242188 10.957031 21.390625 Z M 10.957031 21.390625 "/>
</g>
<path style=" stroke:none;fill-rule:nonzero;fill:rgb(0%,0%,0%);fill-opacity:1;" d="M 20.164062 13.382812 L 19.4375 13.382812 C 19.332031 13.382812 19.257812 13.464844 19.257812 13.582031 L 19.257812 15.722656 C 19.257812 15.835938 19.332031 15.921875 19.4375 15.921875 L 20.164062 15.921875 C 20.269531 15.921875 20.34375 15.835938 20.34375 15.722656 L 20.34375 13.582031 C 20.34375 13.480469 20.269531 13.382812 20.164062 13.382812 Z M 20.164062 13.382812 "/>
<g clip-path="url(#clip3)" clip-rule="nonzero">
<path style=" stroke:none;fill-rule:nonzero;fill:rgb(0%,0%,0%);fill-opacity:1;" d="M 10.320312 20.730469 C 10.320312 20.730469 10.527344 21.242188 10.929688 21.09375 C 11.328125 20.945312 11.3125 19.875 11.121094 19.710938 C 11.121094 19.710938 11.34375 21.175781 10.320312 20.730469 Z M 10.320312 20.730469 "/>
</g>
</g>
</svg>
