<?xml version="1.0" encoding="UTF-8"?>
<svg xmlns="http://www.w3.org/2000/svg" xmlns:xlink="http://www.w3.org/1999/xlink" width="30px" height="46px" viewBox="0 0 30 46" version="1.1">
<defs>
<clipPath id="clip1">
  <path d="M 14 11 L 22 11 L 22 21.769531 L 14 21.769531 Z M 14 11 "/>
</clipPath>
<clipPath id="clip2">
  <path d="M 13 10 L 22.445312 10 L 22.445312 12 L 13 12 Z M 13 10 "/>
</clipPath>
<clipPath id="clip3">
  <path d="M 19 6.921875 L 22 6.921875 L 22 11 L 19 11 Z M 19 6.921875 "/>
</clipPath>
<clipPath id="clip4">
  <path d="M 8 20 L 15 20 L 15 21.769531 L 8 21.769531 Z M 8 20 "/>
</clipPath>
<clipPath id="clip5">
  <path d="M 7.550781 19 L 15 19 L 15 21 L 7.550781 21 Z M 7.550781 19 "/>
</clipPath>
<clipPath id="clip6">
  <path d="M 7.550781 18 L 15 18 L 15 20 L 7.550781 20 Z M 7.550781 18 "/>
</clipPath>
</defs>
<g id="surface1">
<path style="fill-rule:nonzero;fill:rgb(100%,40.000001%,0%);fill-opacity:1;stroke-width:1;stroke-linecap:round;stroke-linejoin:miter;stroke:rgb(83.137256%,33.333334%,0%);stroke-opacity:1;stroke-miterlimit:4;" d="M 13.040625 0.638587 C 6.25625 0.638587 0.609375 6.287364 0.609375 12.418478 C 0.609375 15.17663 2.224219 18.678668 3.388802 21.097147 L 13 38.828125 L 22.560417 21.097147 C 23.725 18.678668 25.383854 15.353261 25.383854 12.418478 C 25.383854 6.290761 19.828385 0.638587 13.04401 0.638587 Z M 13.040625 2.099185 C 18.934635 2.136549 23.721615 6.756114 23.721615 12.428668 C 23.721615 18.108016 18.938021 22.659647 13.040625 22.700408 C 7.146615 22.663043 2.369792 18.11481 2.369792 12.428668 C 2.369792 6.752717 7.15 2.129755 13.040625 2.099185 Z M 13.040625 2.099185 " transform="matrix(1.153846,0,0,1.15,0,0)"/>
<path style="fill-rule:nonzero;fill:rgb(100%,100%,100%);fill-opacity:1;stroke-width:1.00275;stroke-linecap:butt;stroke-linejoin:miter;stroke:rgb(100%,100%,100%);stroke-opacity:1;stroke-miterlimit:4;" d="M 23.010677 12.374321 C 23.010677 17.703804 18.528385 22.02106 13.003385 22.02106 C 7.478385 22.02106 2.996094 17.703804 2.996094 12.374321 C 2.996094 7.048234 7.478385 2.727582 13.003385 2.727582 C 18.528385 2.727582 23.010677 7.048234 23.010677 12.374321 Z M 23.010677 12.374321 " transform="matrix(1.153846,0,0,1.15,0,0)"/>
<g clip-path="url(#clip1)" clip-rule="nonzero">
<path style=" stroke:none;fill-rule:nonzero;fill:rgb(0%,0%,0%);fill-opacity:1;" d="M 14.511719 11.609375 L 21.859375 11.609375 L 20.757812 21.769531 L 15.613281 21.769531 Z M 14.511719 11.609375 "/>
</g>
<g clip-path="url(#clip2)" clip-rule="nonzero">
<path style=" stroke:none;fill-rule:nonzero;fill:rgb(0%,0%,0%);fill-opacity:1;" d="M 13.996094 10.222656 L 22.378906 10.222656 L 22.378906 11.09375 L 13.996094 11.09375 Z M 13.996094 10.222656 "/>
</g>
<g clip-path="url(#clip3)" clip-rule="nonzero">
<path style=" stroke:none;fill-rule:nonzero;fill:rgb(0%,0%,0%);fill-opacity:1;" d="M 19.496094 10.480469 C 19.335938 10.480469 19.238281 10.351562 19.238281 10.222656 L 19.238281 9.15625 C 19.238281 9.09375 19.269531 9.027344 19.300781 8.964844 L 21.535156 6.996094 C 21.632812 6.898438 21.828125 6.898438 21.925781 6.996094 C 22.019531 7.09375 22.019531 7.285156 21.925781 7.382812 L 19.753906 9.253906 L 19.753906 10.1875 C 19.789062 10.351562 19.660156 10.480469 19.496094 10.480469 Z M 19.496094 10.480469 "/>
</g>
<g clip-path="url(#clip4)" clip-rule="nonzero">
<path style=" stroke:none;fill-rule:nonzero;fill:rgb(0%,0%,0%);fill-opacity:1;" d="M 14.414062 20.445312 L 8.105469 20.445312 C 8.105469 21.15625 8.6875 21.769531 9.429688 21.769531 L 13.089844 21.769531 C 13.832031 21.769531 14.414062 21.1875 14.414062 20.445312 Z M 14.414062 20.445312 "/>
</g>
<g clip-path="url(#clip5)" clip-rule="nonzero">
<path style=" stroke:none;fill-rule:nonzero;fill:rgb(0%,0%,0%);fill-opacity:1;" d="M 14.738281 19.996094 C 14.675781 19.867188 14.542969 19.738281 14.382812 19.671875 C 14.351562 19.671875 14.316406 19.640625 14.316406 19.640625 C 14.253906 19.703125 14.1875 19.738281 14.089844 19.738281 L 8.652344 19.738281 C 8.492188 19.800781 8.296875 19.867188 8.136719 19.898438 C 7.941406 19.929688 7.714844 19.929688 7.652344 20.09375 C 7.585938 20.222656 7.652344 20.351562 7.78125 20.414062 C 7.878906 20.480469 8.007812 20.511719 8.136719 20.511719 C 8.296875 20.511719 8.425781 20.511719 8.558594 20.445312 C 8.75 20.382812 8.914062 20.222656 9.105469 20.125 C 9.300781 20.027344 9.527344 19.964844 9.722656 20.058594 C 9.820312 20.15625 9.882812 20.253906 10.011719 20.351562 C 10.175781 20.445312 10.371094 20.480469 10.5625 20.480469 C 10.691406 20.480469 10.824219 20.480469 10.917969 20.445312 C 10.984375 20.414062 11.050781 20.382812 11.113281 20.351562 C 11.277344 20.253906 11.503906 20.253906 11.664062 20.285156 C 11.859375 20.316406 12.019531 20.382812 12.214844 20.414062 C 12.375 20.445312 12.539062 20.445312 12.730469 20.445312 C 12.828125 20.445312 12.894531 20.445312 12.992188 20.414062 C 13.152344 20.351562 13.28125 20.1875 13.445312 20.253906 C 13.507812 20.285156 13.542969 20.316406 13.574219 20.382812 C 13.769531 20.542969 14.058594 20.542969 14.316406 20.542969 C 14.449219 20.542969 14.609375 20.542969 14.707031 20.445312 C 14.804688 20.351562 14.835938 20.15625 14.738281 19.996094 Z M 14.738281 19.996094 "/>
</g>
<g clip-path="url(#clip6)" clip-rule="nonzero">
<path style=" stroke:none;fill-rule:nonzero;fill:rgb(0%,0%,0%);fill-opacity:1;" d="M 14.253906 19.769531 L 8.167969 19.769531 C 7.84375 19.769531 7.617188 19.511719 7.617188 19.222656 C 7.617188 18.898438 7.878906 18.671875 8.167969 18.671875 L 14.253906 18.671875 C 14.578125 18.671875 14.804688 18.929688 14.804688 19.222656 C 14.804688 19.511719 14.542969 19.769531 14.253906 19.769531 Z M 14.253906 19.769531 "/>
</g>
<path style=" stroke:none;fill-rule:nonzero;fill:rgb(0%,0%,0%);fill-opacity:1;" d="M 10.273438 15.027344 L 12.277344 15.027344 C 12.667969 15.027344 13.054688 15.125 13.410156 15.253906 L 13.832031 12.222656 L 13.183594 12.222656 L 12.828125 13.222656 L 13.089844 11.253906 C 13.089844 11.1875 13.054688 11.125 12.957031 11.09375 C 12.894531 11.09375 12.828125 11.125 12.796875 11.222656 L 12.503906 13.351562 L 12.472656 13.351562 L 12.667969 11.898438 C 12.667969 11.835938 12.636719 11.769531 12.539062 11.738281 C 12.472656 11.738281 12.410156 11.769531 12.375 11.867188 L 12.277344 12.671875 L 12.277344 11.867188 C 12.277344 11.800781 12.214844 11.738281 12.148438 11.738281 C 12.117188 11.738281 12.085938 11.738281 12.050781 11.769531 L 11.859375 10.769531 C 11.859375 10.707031 11.761719 10.640625 11.695312 10.671875 C 11.632812 10.671875 11.566406 10.769531 11.597656 10.835938 L 12.019531 12.964844 L 12.019531 13.1875 L 11.761719 11.867188 C 11.761719 11.800781 11.664062 11.738281 11.597656 11.769531 C 11.597656 11.769531 11.597656 11.769531 11.566406 11.769531 C 11.566406 11.769531 11.566406 11.769531 11.535156 11.769531 C 11.46875 11.769531 11.40625 11.800781 11.371094 11.867188 L 11.339844 12.09375 L 11.308594 11.867188 C 11.308594 11.835938 11.277344 11.800781 11.277344 11.800781 L 11.46875 10.867188 C 11.46875 10.800781 11.4375 10.738281 11.371094 10.707031 C 11.308594 10.707031 11.242188 10.738281 11.210938 10.800781 L 10.726562 13.351562 L 10.691406 13.351562 L 10.628906 12.964844 L 10.984375 11.222656 C 10.984375 11.15625 10.953125 11.09375 10.886719 11.058594 C 10.824219 11.058594 10.757812 11.09375 10.726562 11.15625 L 10.464844 12.253906 L 10.304688 11.414062 C 10.304688 11.351562 10.238281 11.316406 10.207031 11.316406 L 10.207031 10.996094 C 10.207031 10.929688 10.144531 10.867188 10.078125 10.867188 C 10.011719 10.867188 9.949219 10.929688 9.949219 10.996094 L 9.949219 12.640625 L 9.785156 11.867188 C 9.785156 11.800781 9.691406 11.738281 9.625 11.769531 C 9.558594 11.769531 9.496094 11.867188 9.527344 11.929688 L 9.820312 13.316406 L 9.625 13.316406 L 9.238281 12.222656 L 8.589844 12.222656 L 8.976562 15.351562 C 9.367188 15.15625 9.820312 15.027344 10.273438 15.027344 Z M 11.597656 12.316406 L 11.792969 13.316406 L 11.597656 13.316406 L 11.503906 12.769531 Z M 11.179688 12.414062 L 11.242188 12.769531 L 11.144531 13.316406 L 11.015625 13.316406 Z M 10.207031 12.285156 L 10.335938 12.929688 L 10.273438 13.316406 L 10.207031 13.316406 Z M 10.207031 12.285156 "/>
<path style=" stroke:none;fill-rule:nonzero;fill:rgb(0%,0%,0%);fill-opacity:1;" d="M 12.246094 15.671875 L 10.273438 15.671875 C 9.074219 15.671875 8.136719 16.640625 8.136719 17.800781 C 8.136719 17.964844 8.265625 18.125 8.460938 18.125 L 14.125 18.125 C 14.285156 18.125 14.449219 17.996094 14.449219 17.800781 C 14.414062 16.609375 13.445312 15.671875 12.246094 15.671875 Z M 9.367188 17.769531 C 9.140625 17.769531 8.976562 17.609375 8.976562 17.382812 C 8.976562 17.15625 9.140625 16.996094 9.367188 16.996094 C 9.59375 16.996094 9.753906 17.15625 9.753906 17.382812 C 9.785156 17.609375 9.59375 17.769531 9.367188 17.769531 Z M 11.210938 16.835938 C 11.015625 16.835938 10.855469 16.671875 10.855469 16.480469 C 10.855469 16.285156 11.015625 16.125 11.210938 16.125 C 11.40625 16.125 11.566406 16.285156 11.566406 16.480469 C 11.566406 16.671875 11.4375 16.835938 11.210938 16.835938 Z M 13.183594 17.480469 C 12.992188 17.480469 12.828125 17.316406 12.828125 17.125 C 12.828125 16.929688 12.992188 16.769531 13.183594 16.769531 C 13.378906 16.769531 13.542969 16.929688 13.542969 17.125 C 13.574219 17.316406 13.378906 17.480469 13.183594 17.480469 Z M 13.183594 17.480469 "/>
</g>
</svg>
