<?xml version="1.0" encoding="UTF-8" standalone="no"?>
<svg
   xmlns:dc="http://purl.org/dc/elements/1.1/"
   xmlns:cc="http://creativecommons.org/ns#"
   xmlns:rdf="http://www.w3.org/1999/02/22-rdf-syntax-ns#"
   xmlns:svg="http://www.w3.org/2000/svg"
   xmlns="http://www.w3.org/2000/svg"
   xmlns:sodipodi="http://sodipodi.sourceforge.net/DTD/sodipodi-0.dtd"
   xmlns:inkscape="http://www.inkscape.org/namespaces/inkscape"
   height="44px"
   width="30px"
   version="1.1"
   viewBox="0 0 29.988946 43.988056"
   id="svg16"
   sodipodi:docname="new_Fast Food.svg"
   inkscape:version="0.92.5 (2060ec1f9f, 2020-04-08)">
  <metadata
     id="metadata20">
    <rdf:RDF>
      <cc:Work
         rdf:about="">
        <dc:format>image/svg+xml</dc:format>
        <dc:type
           rdf:resource="http://purl.org/dc/dcmitype/StillImage" />
        <dc:title />
      </cc:Work>
    </rdf:RDF>
  </metadata>
  <sodipodi:namedview
     pagecolor="#ffffff"
     bordercolor="#666666"
     borderopacity="1"
     objecttolerance="10"
     gridtolerance="10"
     guidetolerance="10"
     inkscape:pageopacity="0"
     inkscape:pageshadow="2"
     inkscape:window-width="1680"
     inkscape:window-height="974"
     id="namedview18"
     showgrid="false"
     inkscape:zoom="4.0678609"
     inkscape:cx="62.201647"
     inkscape:cy="121.79178"
     inkscape:window-x="0"
     inkscape:window-y="0"
     inkscape:window-maximized="1"
     inkscape:current-layer="svg68" />
  <defs
     id="defs7">
    <radialGradient
       id="a"
       gradientUnits="userSpaceOnUse"
       cy="127.6"
       cx="-42.75"
       gradientTransform="matrix(4.2749643,0,0,0.98162997,197.99835,-83.706911)"
       r="2.3840001">
      <stop
         stop-color="#010101"
         offset="0"
         id="stop2" />
      <stop
         stop-opacity="0"
         stop-color="#090909"
         offset="1"
         id="stop4" />
    </radialGradient>
  </defs>
  <path
     d="m 14.994475,0.0864983 c -8.2386816,0 -14.91684362,6.6781619 -14.91684362,14.9168417 0.008545,2.561815 0.67294669,5.079165 1.93504232,7.306643 L 15.595595,40.920764 27.955752,22.365563 C 29.233667,20.121838 29.907468,17.585676 29.911315,15.00334 29.911273,6.7646602 23.233154,0.0864983 14.994475,0.0864983 Z"
     id="path9"
     inkscape:connector-curvature="0"
     style="fill:#398DFF;stroke-width:4.27539158" />
  <circle
     cy="15.050359"
     cx="14.994473"
     r="9.4272394"
     id="circle11"
     style="fill:#f9f3f3;stroke-width:4.27539158" />
  <ellipse
     rx="10.192533"
     ry="2.3394945"
     cy="41.562065"
     cx="14.994473"
     id="ellipse13"
     style="opacity:0.4;fill:url(#a);stroke-width:4.27496433" />
  <rect
     id="replace"
     rx="0"
     ry="0"
     height="13.36915"
     width="13.471761"
     y="8.2097387"
     x="8.2585926"
     style="fill:none;stroke-width:4.27539158" />
  <svg
     inkscape:version="0.92.5 (2060ec1f9f, 2020-04-08)"
     height="100"
     width="100"
     sodipodi:docname="Fast Food.svg"
     id="svg68"
     xml:space="preserve"
     enable-background="new 0 0 50 50"
     viewBox="0 0 100 100"
     y="10"
     x="8.5"
     version="1.1"><metadata
       id="metadata74"><rdf:RDF><cc:Work
           rdf:about=""><dc:format>image/svg+xml</dc:format><dc:type
             rdf:resource="http://purl.org/dc/dcmitype/StillImage" /><dc:title /></cc:Work></rdf:RDF></metadata><defs
       id="defs72" /><sodipodi:namedview
       inkscape:current-layer="svg68"
       inkscape:window-maximized="1"
       inkscape:window-y="0"
       inkscape:window-x="0"
       inkscape:cy="28.176655"
       inkscape:cx="78.382627"
       inkscape:zoom="3.776"
       showgrid="false"
       id="namedview70"
       inkscape:window-height="884"
       inkscape:window-width="1680"
       inkscape:pageshadow="2"
       inkscape:pageopacity="0"
       guidetolerance="10"
       gridtolerance="10"
       objecttolerance="10"
       borderopacity="1"
       bordercolor="#666666"
       pagecolor="#ffffff" /><g
       transform="matrix(0.16776733,0,0,0.16776733,-2.1451003,-2.2316538)"
       id="g107"><g
         id="g6"
         transform="matrix(2.474792,0,0,2.474792,-10.627351,-17.791427)"><path
           d="M 41.603,31 C 40.22,34 33.363,37.491 25.106,37.491 16.85,37.491 9.994,34 8.61,31 Z"
           id="path2"
           inkscape:connector-curvature="0" /><path
           d="M 25.106,37.142 C 16.41,37.142 9.819,34.12 8.471,30.885 L 8.384,31 h 33.445 l -0.088,-0.115 c -1.347,3.234 -7.938,6.257 -16.635,6.257 z M 8.844,31 c 1.487,3 7.996,6.188 16.262,6.188 8.266,0 14.775,-3.188 16.262,-6.188 z"
           id="path4"
           inkscape:connector-curvature="0" /></g><path
         d="m 95.788705,45.315769 c 0,-2.051603 -1.66306,-3.712188 -3.712188,-3.712188 H 12.883173 c -2.051603,0 -3.7121881,1.660585 -3.7121881,3.712188 v 0 c 0,2.049128 1.6605851,3.712188 3.7121881,3.712188 h 79.193344 c 2.049128,0 3.712188,-1.66306 3.712188,-3.712188 z"
         id="path8"
         inkscape:connector-curvature="0"
         style="stroke-width:2.474792" /><g
         id="g12"
         transform="matrix(2.474792,0,0,2.474792,-10.627351,-17.791427)"><path
           d="m 13.238,23.407 c -0.029,0 -0.057,0 -0.085,-0.002 -0.494,-0.032 -1.061,-0.328 -1.66,-0.643 -0.515,-0.269 -1.099,-0.578 -1.416,-0.565 -0.413,0.013 -1.646,0.674 -2.391,1.139 l -0.48,-0.768 c 0.334,-0.209 2.041,-1.251 2.843,-1.276 0.557,-0.029 1.192,0.315 1.865,0.667 0.467,0.245 0.996,0.521 1.297,0.541 0.328,0.021 0.953,-0.309 1.458,-0.575 0.575,-0.301 1.119,-0.586 1.591,-0.632 0.629,-0.06 1.381,0.285 2.178,0.651 0.57,0.261 1.215,0.568 1.585,0.555 0.384,-0.003 1.051,-0.306 1.639,-0.573 0.682,-0.31 1.326,-0.602 1.86,-0.634 0.618,-0.038 1.363,0.297 2.15,0.651 0.604,0.271 1.229,0.551 1.606,0.556 0.449,0.005 1.166,-0.29 1.865,-0.574 0.795,-0.323 1.546,-0.628 2.15,-0.634 0.653,0.002 1.46,0.305 2.323,0.633 0.75,0.286 1.521,0.593 2.003,0.575 0.412,-0.006 1.086,-0.289 1.738,-0.563 0.813,-0.341 1.586,-0.657 2.205,-0.646 0.933,0.028 3.159,1.13 3.41,1.256 l -0.405,0.81 c -0.88,-0.439 -2.479,-1.143 -3.031,-1.16 -0.422,-0.012 -1.172,0.3 -1.828,0.575 -0.766,0.322 -1.488,0.625 -2.077,0.633 C 34.972,23.401 34.161,23.001 33.295,22.67 32.552,22.391 31.786,22 31.312,22 c -0.005,0 -0.008,0 -0.012,0 -0.433,0 -1.138,0.389 -1.818,0.667 -0.819,0.333 -1.589,0.694 -2.217,0.69 -0.565,-0.006 -1.246,-0.287 -1.966,-0.61 -0.623,-0.28 -1.324,-0.582 -1.725,-0.561 -0.366,0.022 -0.963,0.299 -1.54,0.561 -0.735,0.333 -1.43,0.653 -2.006,0.658 -0.563,-0.004 -1.25,-0.307 -1.97,-0.637 -0.623,-0.285 -1.329,-0.605 -1.714,-0.571 -0.294,0.028 -0.805,0.296 -1.256,0.533 -0.665,0.347 -1.294,0.677 -1.85,0.677 z"
           id="path10"
           inkscape:connector-curvature="0" /></g><g
         id="g18"
         transform="matrix(2.474792,0,0,2.474792,-10.627351,-17.791427)"><path
           d="M 41.603,20 C 40.22,15 33.363,11.094 25.106,11.094 16.85,11.094 9.994,15 8.61,20 Z"
           id="path14"
           inkscape:connector-curvature="0" /><path
           d="M 41.8,20 H 8.413 l 0.052,0.154 c 1.409,-5.226 8.407,-8.846 16.642,-8.846 8.234,0 15.234,3.535 16.643,8.76 z M 8.81,20 H 41.402 C 39.911,15 33.104,11.396 25.106,11.396 17.108,11.396 10.301,15 8.81,20 Z"
           id="path16"
           inkscape:connector-curvature="0" /></g><g
         id="g58"
         transform="matrix(2.474792,0,0,2.474792,-10.627351,-17.791427)"><path
           d="m 16.24,14.719 c 0,0 -0.154,0.249 -0.338,0.444 -0.047,0.048 -0.076,0.125 -0.126,0.159 -0.053,0.03 -0.117,0.032 -0.18,0.021 -0.122,-0.016 -0.246,-0.101 -0.246,-0.1 l -0.031,-0.052 c 0,0 -0.013,-0.15 0.032,-0.264 0.021,-0.06 0.054,-0.116 0.105,-0.146 0.055,-0.027 0.136,-0.016 0.201,-0.033 0.26,-0.066 0.552,-0.08 0.552,-0.08 z"
           id="path20"
           inkscape:connector-curvature="0"
           style="fill:#000000" /><path
           d="m 18.931,15.638 c 0,0 0.1,0.274 0.138,0.541 0.009,0.066 0.051,0.137 0.047,0.198 -0.009,0.06 -0.047,0.112 -0.096,0.154 -0.088,0.085 -0.231,0.131 -0.231,0.131 l -0.06,-0.008 c 0,0 -0.125,-0.082 -0.187,-0.189 -0.034,-0.053 -0.057,-0.113 -0.049,-0.173 0.012,-0.06 0.072,-0.116 0.098,-0.178 0.109,-0.245 0.28,-0.482 0.28,-0.482 z"
           id="path22"
           inkscape:connector-curvature="0"
           style="fill:#000000" /><path
           d="m 19.197,13.271 c 0,0 -0.071,0.283 -0.188,0.526 -0.03,0.06 -0.035,0.142 -0.072,0.189 -0.041,0.045 -0.101,0.066 -0.165,0.075 -0.121,0.021 -0.265,-0.021 -0.265,-0.021 L 18.463,14 c 0,0 -0.058,-0.138 -0.049,-0.261 10e-4,-0.064 0.016,-0.126 0.056,-0.172 0.043,-0.042 0.125,-0.056 0.181,-0.093 0.229,-0.142 0.502,-0.243 0.502,-0.243 z"
           id="path24"
           inkscape:connector-curvature="0"
           style="fill:#000000" /><path
           d="m 20.363,14.534 c 0,0 0.285,0.063 0.53,0.173 0.061,0.028 0.143,0.031 0.192,0.067 0.046,0.04 0.069,0.1 0.079,0.163 0.024,0.121 -0.014,0.266 -0.014,0.266 l -0.04,0.046 c 0,0 -0.136,0.061 -0.26,0.057 -0.064,0 -0.127,-0.013 -0.173,-0.052 -0.044,-0.042 -0.06,-0.123 -0.097,-0.178 -0.148,-0.224 -0.257,-0.495 -0.257,-0.495 z"
           id="path26"
           inkscape:connector-curvature="0"
           style="fill:#000000" /><path
           d="m 22.174,16.345 c 0,0 0.285,0.063 0.531,0.173 0.061,0.028 0.143,0.031 0.191,0.067 0.046,0.04 0.069,0.1 0.079,0.163 0.024,0.12 -0.014,0.265 -0.014,0.265 l -0.04,0.046 c 0,0 -0.137,0.062 -0.259,0.057 -0.064,0 -0.127,-0.012 -0.173,-0.051 -0.044,-0.042 -0.06,-0.124 -0.097,-0.178 -0.148,-0.225 -0.257,-0.496 -0.257,-0.496 z"
           id="path28"
           inkscape:connector-curvature="0"
           style="fill:#000000" /><path
           d="m 24.589,13.93 c 0,0 0.285,0.063 0.531,0.173 0.06,0.029 0.143,0.031 0.191,0.067 0.046,0.04 0.069,0.099 0.079,0.163 0.025,0.121 -0.014,0.266 -0.014,0.266 l -0.039,0.046 c 0,0 -0.137,0.062 -0.26,0.057 -0.063,0 -0.126,-0.012 -0.173,-0.051 -0.043,-0.042 -0.059,-0.124 -0.097,-0.178 -0.148,-0.225 -0.256,-0.495 -0.256,-0.495 z"
           id="path30"
           inkscape:connector-curvature="0"
           style="fill:#000000" /><path
           d="m 25.962,12.269 c 0,0 0.104,0.273 0.147,0.538 0.008,0.066 0.051,0.137 0.049,0.197 -0.008,0.06 -0.047,0.112 -0.093,0.155 -0.087,0.087 -0.23,0.134 -0.229,0.134 l -0.061,-0.007 c 0,0 -0.126,-0.081 -0.189,-0.186 -0.035,-0.053 -0.06,-0.112 -0.053,-0.173 0.012,-0.06 0.07,-0.117 0.096,-0.18 0.105,-0.247 0.273,-0.486 0.273,-0.486 z"
           id="path32"
           inkscape:connector-curvature="0"
           style="fill:#000000" /><path
           d="m 26.85,14.751 c 0,0 -0.027,-0.291 0.005,-0.558 0.009,-0.066 -0.015,-0.146 0.006,-0.203 0.023,-0.056 0.074,-0.096 0.131,-0.125 0.106,-0.06 0.257,-0.066 0.257,-0.066 l 0.056,0.023 c 0,0 0.101,0.112 0.133,0.23 0.021,0.061 0.026,0.125 0.003,0.181 -0.026,0.054 -0.099,0.094 -0.14,0.146 -0.169,0.208 -0.395,0.395 -0.396,0.395 z"
           id="path34"
           inkscape:connector-curvature="0"
           style="fill:#000000" /><path
           d="m 27.5,12.964 c 0,0 0.178,-0.231 0.382,-0.407 0.052,-0.043 0.089,-0.116 0.142,-0.145 0.055,-0.025 0.121,-0.02 0.182,-0.002 0.119,0.029 0.234,0.125 0.234,0.125 l 0.025,0.055 c 0,0 -0.002,0.15 -0.059,0.259 -0.027,0.058 -0.065,0.109 -0.121,0.135 -0.057,0.022 -0.137,0.002 -0.202,0.012 -0.267,0.04 -0.558,0.022 -0.558,0.022 z"
           id="path36"
           inkscape:connector-curvature="0"
           style="fill:#000000" /><path
           d="m 25.469,15.992 c 0,0 -0.213,0.199 -0.442,0.339 -0.058,0.034 -0.106,0.101 -0.164,0.12 -0.059,0.015 -0.121,0 -0.179,-0.027 -0.113,-0.048 -0.211,-0.162 -0.211,-0.162 l -0.016,-0.059 c 0,0 0.027,-0.147 0.1,-0.246 0.036,-0.053 0.083,-0.098 0.14,-0.114 0.06,-0.012 0.135,0.021 0.203,0.021 0.269,0.004 0.554,0.068 0.554,0.068 z"
           id="path38"
           inkscape:connector-curvature="0"
           style="fill:#000000" /><path
           d="m 31.191,13.223 c 0,0 -0.191,0.22 -0.405,0.383 -0.054,0.04 -0.095,0.111 -0.15,0.137 -0.057,0.021 -0.12,0.013 -0.181,-0.009 -0.117,-0.036 -0.226,-0.139 -0.226,-0.139 l -0.023,-0.056 c 0,0 0.012,-0.15 0.075,-0.256 0.029,-0.056 0.071,-0.105 0.128,-0.127 0.059,-0.018 0.137,0.006 0.203,0 0.269,-0.023 0.558,0.011 0.558,0.011 z"
           id="path40"
           inkscape:connector-curvature="0"
           style="fill:#000000" /><path
           d="m 27.307,16.043 c 0,0 0.285,0.063 0.53,0.173 0.062,0.029 0.143,0.031 0.192,0.067 0.045,0.04 0.068,0.1 0.078,0.163 0.025,0.121 -0.014,0.266 -0.014,0.266 l -0.039,0.046 c 0,0 -0.138,0.062 -0.26,0.057 -0.064,0 -0.127,-0.013 -0.174,-0.052 -0.043,-0.042 -0.06,-0.123 -0.098,-0.179 -0.146,-0.224 -0.256,-0.495 -0.256,-0.495 z"
           id="path42"
           inkscape:connector-curvature="0"
           style="fill:#000000" /><path
           d="m 29.582,15.229 c 0,0 -0.289,-0.049 -0.539,-0.146 -0.062,-0.025 -0.145,-0.024 -0.195,-0.058 -0.047,-0.037 -0.073,-0.096 -0.086,-0.158 -0.031,-0.119 0,-0.266 0,-0.266 l 0.036,-0.048 c 0,0 0.134,-0.068 0.257,-0.07 0.064,-0.003 0.128,0.006 0.176,0.042 0.046,0.04 0.066,0.12 0.106,0.173 0.16,0.216 0.281,0.481 0.281,0.481 z"
           id="path44"
           inkscape:connector-curvature="0"
           style="fill:#000000" /><path
           d="m 32.034,15.597 c 0,0 0.085,0.279 0.11,0.546 0.005,0.067 0.042,0.14 0.034,0.2 -0.012,0.06 -0.053,0.109 -0.103,0.148 -0.092,0.081 -0.238,0.119 -0.237,0.119 l -0.061,-0.012 c 0,0 -0.12,-0.089 -0.177,-0.198 -0.031,-0.056 -0.051,-0.117 -0.04,-0.176 0.017,-0.059 0.079,-0.112 0.108,-0.172 0.122,-0.239 0.305,-0.467 0.305,-0.467 z"
           id="path46"
           inkscape:connector-curvature="0"
           style="fill:#000000" /><path
           d="m 35.73,15.313 c 0,0 -0.278,0.089 -0.545,0.118 -0.067,0.006 -0.139,0.045 -0.2,0.039 -0.059,-0.011 -0.108,-0.051 -0.148,-0.101 -0.083,-0.091 -0.124,-0.236 -0.124,-0.236 l 0.012,-0.06 c 0,0 0.087,-0.122 0.195,-0.18 0.055,-0.033 0.116,-0.054 0.175,-0.043 0.06,0.015 0.114,0.076 0.175,0.105 0.241,0.119 0.471,0.298 0.471,0.298 z"
           id="path48"
           inkscape:connector-curvature="0"
           style="fill:#000000" /><path
           d="m 32.438,13.93 c 0,0 0.285,0.063 0.53,0.173 0.062,0.029 0.143,0.031 0.193,0.067 0.045,0.04 0.068,0.099 0.078,0.163 0.024,0.121 -0.015,0.266 -0.015,0.266 l -0.039,0.046 c 0,0 -0.137,0.062 -0.259,0.057 -0.064,0 -0.128,-0.012 -0.174,-0.051 -0.044,-0.042 -0.06,-0.124 -0.098,-0.178 -0.148,-0.225 -0.257,-0.495 -0.257,-0.495 z"
           id="path50"
           inkscape:connector-curvature="0"
           style="fill:#000000" /><path
           d="m 20.91,12.935 c 0,0 0.292,0.013 0.553,0.079 0.064,0.018 0.146,0.006 0.2,0.033 0.052,0.031 0.085,0.086 0.105,0.146 0.045,0.114 0.032,0.264 0.032,0.264 l -0.03,0.053 c 0,0 -0.124,0.083 -0.246,0.1 -0.063,0.012 -0.127,0.009 -0.18,-0.021 -0.05,-0.034 -0.08,-0.11 -0.126,-0.159 -0.185,-0.195 -0.338,-0.443 -0.338,-0.443 z"
           id="path52"
           inkscape:connector-curvature="0"
           style="fill:#000000" /><path
           d="m 23.215,13.765 c 0,0 0.039,0.289 0.02,0.558 -0.005,0.066 0.021,0.145 0.003,0.203 -0.021,0.057 -0.07,0.099 -0.125,0.13 -0.105,0.065 -0.254,0.079 -0.254,0.079 l -0.057,-0.021 c 0,0 -0.105,-0.108 -0.143,-0.225 -0.022,-0.06 -0.032,-0.124 -0.011,-0.181 0.025,-0.055 0.095,-0.098 0.134,-0.152 0.16,-0.217 0.377,-0.412 0.377,-0.412 z"
           id="path54"
           inkscape:connector-curvature="0"
           style="fill:#000000" /><path
           d="m 23.987,13.239 c 0,0 -0.247,-0.155 -0.44,-0.342 -0.047,-0.047 -0.124,-0.078 -0.158,-0.128 -0.03,-0.053 -0.031,-0.117 -0.019,-0.18 0.018,-0.122 0.103,-0.245 0.103,-0.245 l 0.053,-0.03 c 0,0 0.149,-0.012 0.263,0.034 0.06,0.021 0.115,0.055 0.146,0.107 0.026,0.054 0.015,0.136 0.032,0.2 0.063,0.261 0.074,0.553 0.074,0.553 z"
           id="path56"
           inkscape:connector-curvature="0"
           style="fill:#000000" /></g><g
         id="g62"
         transform="matrix(2.474792,0,0,2.474792,-10.627351,-17.791427)"><rect
           x="8"
           y="28"
           width="34"
           height="1"
           id="rect60" /></g></g></svg></svg>
