<?xml version="1.0" encoding="UTF-8"?>
<svg xmlns="http://www.w3.org/2000/svg" xmlns:xlink="http://www.w3.org/1999/xlink" width="30px" height="46px" viewBox="0 0 30 46" version="1.1">
<defs>
<clipPath id="clip1">
  <path d="M 8 6.921875 L 22 6.921875 L 22 21.769531 L 8 21.769531 Z M 8 6.921875 "/>
</clipPath>
</defs>
<g id="surface1">
<path style="fill-rule:nonzero;fill:rgb(100%,40.000001%,0%);fill-opacity:1;stroke-width:1;stroke-linecap:round;stroke-linejoin:miter;stroke:rgb(83.137256%,33.333334%,0%);stroke-opacity:1;stroke-miterlimit:4;" d="M 13.040625 0.638587 C 6.25625 0.638587 0.609375 6.287364 0.609375 12.418478 C 0.609375 15.17663 2.224219 18.678668 3.388802 21.097147 L 13 38.828125 L 22.560417 21.097147 C 23.725 18.678668 25.383854 15.353261 25.383854 12.418478 C 25.383854 6.290761 19.828385 0.638587 13.04401 0.638587 Z M 13.040625 2.099185 C 18.934635 2.136549 23.721615 6.756114 23.721615 12.428668 C 23.721615 18.108016 18.938021 22.659647 13.040625 22.700408 C 7.146615 22.663043 2.369792 18.11481 2.369792 12.428668 C 2.369792 6.752717 7.15 2.129755 13.040625 2.099185 Z M 13.040625 2.099185 " transform="matrix(1.153846,0,0,1.15,0,0)"/>
<path style="fill-rule:nonzero;fill:rgb(100%,100%,100%);fill-opacity:1;stroke-width:1.00275;stroke-linecap:butt;stroke-linejoin:miter;stroke:rgb(100%,100%,100%);stroke-opacity:1;stroke-miterlimit:4;" d="M 23.010677 12.374321 C 23.010677 17.703804 18.528385 22.02106 13.003385 22.02106 C 7.478385 22.02106 2.996094 17.703804 2.996094 12.374321 C 2.996094 7.048234 7.478385 2.727582 13.003385 2.727582 C 18.528385 2.727582 23.010677 7.048234 23.010677 12.374321 Z M 23.010677 12.374321 " transform="matrix(1.153846,0,0,1.15,0,0)"/>
<g clip-path="url(#clip1)" clip-rule="nonzero">
<path style=" stroke:none;fill-rule:evenodd;fill:rgb(0%,0%,0%);fill-opacity:1;" d="M 21.066406 16.109375 C 19.960938 16.003906 18.414062 16.679688 17.105469 17.941406 C 16.210938 18.804688 15.601562 19.773438 15.339844 20.640625 L 15.339844 15.1875 C 15.359375 15.21875 15.375 15.25 15.398438 15.28125 C 16.011719 16.074219 17.171875 16.242188 17.996094 15.652344 C 18.820312 15.0625 18.992188 13.941406 18.382812 13.148438 C 18.269531 13 18.136719 12.875 17.988281 12.769531 C 18.011719 12.707031 18.035156 12.640625 18.054688 12.574219 C 18.234375 12.566406 18.417969 12.539062 18.597656 12.476562 C 19.570312 12.160156 20.089844 11.144531 19.761719 10.207031 C 19.429688 9.269531 18.375 8.769531 17.40625 9.089844 C 17.222656 9.148438 17.058594 9.230469 16.910156 9.332031 C 16.867188 9.300781 16.824219 9.269531 16.78125 9.238281 C 16.832031 9.074219 16.863281 8.894531 16.863281 8.714844 C 16.863281 7.726562 16.03125 6.921875 15.007812 6.921875 C 13.980469 6.921875 13.148438 7.726562 13.148438 8.714844 C 13.148438 8.894531 13.179688 9.074219 13.230469 9.238281 C 13.171875 9.277344 13.113281 9.320312 13.058594 9.363281 C 12.910156 9.261719 12.742188 9.183594 12.5625 9.125 C 11.585938 8.824219 10.539062 9.339844 10.226562 10.28125 C 9.914062 11.222656 10.449219 12.230469 11.425781 12.535156 C 11.605469 12.589844 11.789062 12.617188 11.972656 12.621094 C 11.992188 12.6875 12.015625 12.753906 12.039062 12.816406 C 11.894531 12.921875 11.765625 13.050781 11.652344 13.199219 C 11.058594 14.003906 11.25 15.121094 12.082031 15.699219 C 12.910156 16.269531 14.054688 16.089844 14.65625 15.304688 L 14.65625 20.640625 C 14.394531 19.773438 13.785156 18.804688 12.890625 17.941406 C 11.582031 16.679688 10.035156 16.003906 8.929688 16.109375 C 8.824219 17.171875 9.523438 18.664062 10.832031 19.925781 C 12.085938 21.136719 13.5625 21.808594 14.65625 21.765625 L 14.65625 21.769531 L 15.339844 21.769531 L 15.339844 21.765625 C 16.433594 21.804688 17.90625 21.136719 19.164062 19.925781 C 20.472656 18.664062 21.171875 17.171875 21.066406 16.109375 Z M 12.824219 11.824219 C 12.824219 10.664062 13.796875 9.726562 14.996094 9.726562 C 16.199219 9.726562 17.171875 10.664062 17.171875 11.824219 C 17.171875 12.980469 16.199219 13.917969 14.996094 13.917969 C 13.796875 13.917969 12.824219 12.980469 12.824219 11.824219 Z M 12.824219 11.824219 "/>
</g>
</g>
</svg>
