<?xml version="1.0" encoding="UTF-8" standalone="no"?>
<svg xmlns="http://www.w3.org/2000/svg" height="40" width="26" version="1.1" xmlns:xlink="http://www.w3.org/1999/xlink">
 <path d="m13.04 0.6387c-6.783 0-12.43 5.649-12.43 11.78 0 2.757 1.613 6.26 2.779 8.68l9.611 17.73 9.56-17.73c1.166-2.42 2.824-5.747 2.824-8.68 0-6.128-5.555-11.78-12.34-11.78zm0 1.461c5.895 0.0373 10.68 4.656 10.68 10.33 0 5.678-4.781 10.23-10.68 10.27-5.895-0.0373-10.67-4.585-10.67-10.27 0-5.678 4.779-10.3 10.67-10.33z" stroke="#d45500" stroke-linecap="round" fill="#f60"/>
  <ellipse
     style="fill:#ffffff;stroke:#ffffff;stroke-width:1.00274992"
     id="path13"
     cx="13.003574"
     cy="12.374899"
     rx="10.005984"
     ry="9.6464386" />
<svg
   xmlns:dc="http://purl.org/dc/elements/1.1/"
   xmlns:cc="http://creativecommons.org/ns#"
   xmlns:rdf="http://www.w3.org/1999/02/22-rdf-syntax-ns#"
   xmlns:svg="http://www.w3.org/2000/svg"
   xmlns="http://www.w3.org/2000/svg"
   xmlns:sodipodi="http://sodipodi.sourceforge.net/DTD/sodipodi-0.dtd"
   xmlns:inkscape="http://www.inkscape.org/namespaces/inkscape"
   version="1.1"
   x="6.543"
   y="6.02"
   viewBox="0 0 39.883938 33.796221"
   enable-background="new 0 0 100 100"
   xml:space="preserve"
   id="svg2"
   inkscape:version="0.48.4 r9939"
   width="12.91"
   height="12.91"
   sodipodi:docname="Auditorium.svg"><metadata
     id="metadata30"><rdf:RDF><cc:Work
         rdf:about=""><dc:format>image/svg+xml</dc:format><dc:type
           rdf:resource="http://purl.org/dc/dcmitype/StillImage" /><dc:title></dc:title></cc:Work></rdf:RDF></metadata><defs
     id="defs28"><style
       id="style10827"
       type="text/css">
   
    .fil1 {fill:none}
    .fil0 {fill:black}
    .fil2 {fill:black;fill-rule:nonzero}
   
  </style><style
       id="style11273"
       type="text/css">
   
    .str3 {stroke:#0A0B0C;stroke-width:0.755909}
    .str2 {stroke:#0A0B0C;stroke-width:2.83466}
    .str1 {stroke:#0A0B0C;stroke-width:3.77955}
    .str0 {stroke:#0A0B0C;stroke-width:5.66932}
    .fil0 {fill:none}
    .fil1 {fill:#0A0B0C}
    .fil2 {fill:white}
   
  </style></defs><sodipodi:namedview
     pagecolor="#ffffff"
     bordercolor="#666666"
     borderopacity="1"
     objecttolerance="10"
     gridtolerance="10"
     guidetolerance="10"
     inkscape:pageopacity="0"
     inkscape:pageshadow="2"
     inkscape:window-width="1007"
     inkscape:window-height="812"
     id="namedview26"
     showgrid="false"
     fit-margin-top="0"
     fit-margin-left="0"
     fit-margin-right="0"
     fit-margin-bottom="0"
     inkscape:zoom="5.12"
     inkscape:cx="11.522145"
     inkscape:cy="-11.907678"
     inkscape:window-x="74"
     inkscape:window-y="59"
     inkscape:window-maximized="0"
     inkscape:current-layer="g12544" /><g
     id="g3217"
     transform="translate(-1266.6685,7675.3411)"><g
       id="g3355"
       transform="translate(0.52596752,-1.51338)"><g
         id="g3394"
         transform="translate(-1.304037,6.1068216)"><g
           id="g3432"
           transform="translate(1.3243604,-7.0685396)"><g
             id="g3490"
             transform="translate(14.50543,16.201175)"><g
               id="g3544"
               transform="translate(1.7832223,7.9070624)"><g
                 id="g3595"
                 transform="translate(9.5264836,-0.46901412)"><g
                   id="g3646"
                   transform="translate(-52.35165,-3.5880634)"><g
                     id="g3767"
                     transform="translate(6.0048559,8.7552768)"><g
                       id="g4075"
                       transform="translate(0.55239017,0.07303033)"><g
                         id="g4264"
                         transform="translate(3.0880737,-2.6377741)"><g
                           id="g4355"
                           transform="translate(8.4601992,5.328404)"><g
                             id="g4421"
                             transform="translate(-6.5255081,7.0858766)"><g
                               id="g4462"
                               transform="translate(25.518018,13.531166)"><g
                                 id="g4500"
                                 transform="translate(80.26127,-61.023322)"><g
                                   id="g5344"
                                   transform="translate(-17.614831,53.929153)"><g
                                   id="g5294"
                                   display="none"
                                   style="display:none"><rect
                                   id="rect5296"
                                   height="196"
                                   width="394.5"
                                   display="inline"
                                   y="-80.754997"
                                   x="-43.5"
                                   style="fill:#000000;display:inline" /></g><g
                                   id="g5316"
                                   display="none"
                                   style="display:none"><g
                                   id="g5318"
                                   display="inline"
                                   style="display:inline"><path
                                   id="path5320"
                                   d="M 1.581,10.718 H 30.418 L 16,1.051 1.581,10.718 z M 17.592,6.594 c 0,0.879 -0.713,1.592 -1.592,1.592 -0.879,0 -1.592,-0.713 -1.592,-1.592 0,-0.879 0.713,-1.592 1.592,-1.592 0.879,0 1.592,0.712 1.592,1.592 z"
                                   inkscape:connector-curvature="0" /><rect
                                   id="rect5322"
                                   height="3.0209999"
                                   width="31"
                                   y="28.030001"
                                   x="0.5" /><rect
                                   id="rect5324"
                                   height="11.875"
                                   width="3.0209999"
                                   y="13.363"
                                   x="3.6670001" /><rect
                                   id="rect5326"
                                   height="11.875"
                                   width="3.0209999"
                                   y="13.363"
                                   x="8.349" /><rect
                                   id="rect5328"
                                   height="11.875"
                                   width="3.0209999"
                                   y="13.363"
                                   x="20.629999" /><rect
                                   id="rect5330"
                                   height="11.875"
                                   width="3.0209999"
                                   y="13.363"
                                   x="25.312" /></g><path
                                   id="path5332"
                                   d="m 19.055,22.809 c -0.386,0.262 -1.035,0.524 -1.857,0.524 -1.01,0 -1.907,-0.386 -2.53,-1.11 -0.474,-0.524 -0.785,-1.246 -0.897,-2.144 h -0.773 v -0.611 h 0.711 c 0,-0.062 0,-0.125 0,-0.187 0,-0.2 0.012,-0.387 0.025,-0.561 h -0.735 v -0.624 h 0.823 c 0.15,-0.872 0.524,-1.595 1.022,-2.106 0.636,-0.66 1.446,-1.035 2.468,-1.035 0.735,0 1.309,0.212 1.658,0.399 l -0.249,0.822 c -0.312,-0.187 -0.835,-0.349 -1.396,-0.349 -0.673,0 -1.221,0.237 -1.645,0.685 -0.374,0.361 -0.623,0.922 -0.748,1.583 h 3.478 v 0.624 h -3.59 c -0.013,0.162 -0.025,0.349 -0.025,0.523 0,0.075 0,0.137 0,0.225 h 3.615 v 0.611 h -3.53 c 0.1,0.723 0.349,1.259 0.685,1.633 0.461,0.486 1.085,0.723 1.757,0.723 0.661,0 1.234,-0.249 1.521,-0.411 l 0.212,0.786 z"
                                   display="inline"
                                   inkscape:connector-curvature="0"
                                   style="display:inline" /></g><g
                                   id="g5453"
                                   transform="translate(-52.625356,-10.750909)"><g
                                   id="g5403"
                                   display="none"
                                   style="display:none"><rect
                                   id="rect5405"
                                   height="196"
                                   width="394.5"
                                   display="inline"
                                   y="-80.754997"
                                   x="-43.5"
                                   style="fill:#000000;display:inline" /></g><g
                                   id="g5425"
                                   display="none"
                                   style="display:none"><g
                                   id="g5427"
                                   display="inline"
                                   style="display:inline"><path
                                   id="path5429"
                                   d="M 1.581,10.718 H 30.418 L 16,1.051 1.581,10.718 z M 17.592,6.594 c 0,0.879 -0.713,1.592 -1.592,1.592 -0.879,0 -1.592,-0.713 -1.592,-1.592 0,-0.879 0.713,-1.592 1.592,-1.592 0.879,0 1.592,0.712 1.592,1.592 z"
                                   inkscape:connector-curvature="0" /><rect
                                   id="rect5431"
                                   height="3.0209999"
                                   width="31"
                                   y="28.030001"
                                   x="0.5" /><rect
                                   id="rect5433"
                                   height="11.875"
                                   width="3.0209999"
                                   y="13.363"
                                   x="3.6670001" /><rect
                                   id="rect5435"
                                   height="11.875"
                                   width="3.0209999"
                                   y="13.363"
                                   x="8.349" /><rect
                                   id="rect5437"
                                   height="11.875"
                                   width="3.0209999"
                                   y="13.363"
                                   x="20.629999" /><rect
                                   id="rect5439"
                                   height="11.875"
                                   width="3.0209999"
                                   y="13.363"
                                   x="25.312" /></g><path
                                   id="path5441"
                                   d="m 19.055,22.809 c -0.386,0.262 -1.035,0.524 -1.857,0.524 -1.01,0 -1.907,-0.386 -2.53,-1.11 -0.474,-0.524 -0.785,-1.246 -0.897,-2.144 h -0.773 v -0.611 h 0.711 c 0,-0.062 0,-0.125 0,-0.187 0,-0.2 0.012,-0.387 0.025,-0.561 h -0.735 v -0.624 h 0.823 c 0.15,-0.872 0.524,-1.595 1.022,-2.106 0.636,-0.66 1.446,-1.035 2.468,-1.035 0.735,0 1.309,0.212 1.658,0.399 l -0.249,0.822 c -0.312,-0.187 -0.835,-0.349 -1.396,-0.349 -0.673,0 -1.221,0.237 -1.645,0.685 -0.374,0.361 -0.623,0.922 -0.748,1.583 h 3.478 v 0.624 h -3.59 c -0.013,0.162 -0.025,0.349 -0.025,0.523 0,0.075 0,0.137 0,0.225 h 3.615 v 0.611 h -3.53 c 0.1,0.723 0.349,1.259 0.685,1.633 0.461,0.486 1.085,0.723 1.757,0.723 0.661,0 1.234,-0.249 1.521,-0.411 l 0.212,0.786 z"
                                   display="inline"
                                   inkscape:connector-curvature="0"
                                   style="display:inline" /></g><g
                                   id="g5911"
                                   transform="translate(34.803917,-34.731522)"><g
                                   id="g5969"
                                   transform="translate(-76.820846,20.463898)"><g
                                   id="g6024"
                                   transform="translate(-1.5269147,1.6004891)"><g
                                   id="g6071"
                                   transform="translate(7.3886843,1.0351706)"><g
                                   id="g6187"
                                   transform="translate(-0.71000052,-4.6322855)"><g
                                   id="g6263"
                                   transform="translate(-0.66737304,-5.3488176)"><g
                                   id="g6319"
                                   transform="translate(0.79720466,3.5647493)"><g
                                   id="g6384"
                                   transform="translate(-9.1472004,2.261335)"><g
                                   id="g6488"
                                   transform="translate(-2.0348122,-3.4042665)"><g
                                   id="g6516"
                                   transform="translate(-0.63832329,-2.3294036)"><g
                                   id="g6769"
                                   transform="translate(1565.7794,-3801.8487)"><g
                                   id="g6910"
                                   transform="translate(-308.09512,-3790.9493)"><g
                                   id="g6983"
                                   transform="translate(-14.231122,-15.611848)"><g
                                   id="g7151"
                                   transform="translate(33.267081,-22.491026)"><g
                                   id="g7382"
                                   transform="translate(-23.229266,23.886871)"><g
                                   id="g7549"
                                   transform="translate(14.444681,15.529545)"><g
                                   id="g7800"
                                   transform="translate(-10.517025,-15.548079)"><g
                                   id="g7999"
                                   transform="matrix(0.53445343,0,0,0.59502607,5.6563057,11.962949)"><g
                                   id="g8217"
                                   transform="matrix(0.65157633,0,0,0.66199506,14.891666,27.68312)"><g
                                   id="g8341"
                                   transform="matrix(0.81955739,0,0,0.8373697,16.904811,-6.2861215)"><g
                                   id="g8463"
                                   transform="matrix(1.0901467,0,0,0.7755316,14.691042,9.5565496)"><g
                                   id="g8628"
                                   transform="matrix(3.2141084,0,0,3.9092417,-42.983003,-211.13796)"><g
                                   id="g8709"
                                   transform="matrix(0.28046364,0,0,0.26137124,8.2602788,58.166419)"><g
                                   id="g8982"
                                   transform="matrix(0.85470616,0,0,0.82928987,-24.416347,-291.09779)"><g
                                   id="g9029"
                                   transform="matrix(0.56179905,0,0,0.59146659,71.827756,364.20217)"><g
                                   id="g9231"
                                   transform="matrix(1.6434845,0,0,1.6275903,-1.9010194,-26.060019)"><g
                                   id="g9437"
                                   transform="matrix(0.71903998,0,0,0.65801134,3.2171324,7.0571502)"><g
                                   id="g9598"
                                   transform="matrix(0.80108296,0,0,0.9233293,9.6403445,4.2821143)"><g
                                   id="g9708"
                                   transform="matrix(0.94363907,0,0,1.1480868,25.922318,9.4839725)"><g
                                   id="g9819"
                                   transform="matrix(1.095798,0,0,0.98226973,-24.771036,-19.505567)"><g
                                   id="g9923"
                                   transform="matrix(1.4565749,0,0,1.1402449,-4.0661436,-21.558968)"><g
                                   id="g10097"
                                   transform="matrix(0.11168619,0,0,0.17855319,5.2962471,-4.487068)"><g
                                   id="g10271"
                                   transform="matrix(13.365969,0,0,8.1997528,-133.46038,-213.50307)"><g
                                   style="fill-rule:evenodd"
                                   id="g10860"
                                   transform="matrix(3.4886731,0,0,4.1898505,17.112225,-334.18238)"><g
                                   id="g10926"
                                   transform="translate(-3.4835301,11.933542)"><g
                                   id="g10977"
                                   transform="translate(-23.300771,-27.486778)"><g
                                   id="g11027"
                                   transform="matrix(0.43252474,0,0,0.37672697,-8.3080623,-3.9894485)"><g
                                   id="g11075"
                                   transform="matrix(2.3120065,0,0,2.6544423,31.801403,32.696975)"><g
                                   id="g11120"
                                   transform="matrix(0.80941525,0,0,0.85267959,9.9659797,8.8655352)"><g
                                   id="g11165"
                                   transform="matrix(1.2354598,0,0,1.1727735,63.229892,29.359769)"><g
                                   id="g11232"
                                   transform="translate(-34.923095,-12.499473)"><g
                                   style="fill-rule:evenodd"
                                   id="g11310"
                                   transform="translate(-21.549182,-35.279603)"><g
                                   id="g11372"
                                   transform="translate(-5.4679176,-5.8668947)"><g
                                   id="g11436"
                                   transform="translate(2.7982997,0.93576032)"><g
                                   id="g11488"
                                   transform="translate(-3.587236,-5.6258516)"><g
                                   id="g11528"
                                   transform="translate(15.507114,-3.254385)"><g
                                   id="g11586"
                                   transform="translate(7.7187909,24.376849)"><g
                                   id="g11638"
                                   transform="translate(-6.4943311,-12.776285)"><g
                                   id="g11690"
                                   transform="translate(12.379153,16.3378)"><g
                                   id="g11782"
                                   transform="matrix(0.54704068,0,0,0.56101878,-2.4253841,-13.151439)"><g
                                   id="g11847"
                                   transform="matrix(1.8280176,0,0,1.7824715,-7.4215749,-14.616326)"><g
                                   id="g11896"
                                   transform="matrix(0.52061715,0,0,0.55247544,7.8149554,3.1926355)"><g
                                   id="g11940"
                                   transform="matrix(1.7613317,0,0,1.5303706,-44.906818,-32.537167)"><g
                                   id="g12083"
                                   transform="matrix(0.87081326,0,0,0.87011947,-1.2460319,10.958839)"><g
                                   id="g12172"
                                   transform="matrix(0.14184302,0,0,0.13716326,17.992837,18.041771)"><g
                                   id="g12247"
                                   transform="matrix(8.8289162,0,0,9.9100018,-173.22248,-267.28016)"><g
                                   id="g12299"
                                   transform="translate(-1.6739012,-4.3904753)"><g
                                   id="g12386"
                                   transform="matrix(0.46706407,0,0,0.48224205,22.985341,23.217551)"><g
                                   id="g12454"
                                   transform="matrix(2.1410338,0,0,2.0736474,23.760146,33.809102)"><g
                                   id="g12544"
                                   transform="translate(-30.537216,-22.809281)"><path
                                   id="path12494"
                                   d="m 61.05125,43.179172 c 0.504657,0 0.958688,0 1.417173,0 0.0085,-0.05988 0.03078,-0.111453 0.01539,-0.12809 -0.341433,-0.40132 -0.293236,-0.901201 -0.317942,-1.374468 -0.09154,-1.711327 -0.167679,-3.423902 -0.236128,-5.136061 -0.0081,-0.187144 0.04172,-0.39425 0.119071,-0.566423 0.328878,-0.732771 0.685703,-1.450156 1.011342,-2.184592 0.07492,-0.169678 0.109757,-0.386765 0.08465,-0.568918 -0.18145,-1.278401 -0.377886,-2.553475 -0.587688,-3.826053 -0.02066,-0.125179 -0.154314,-0.271567 -0.271365,-0.329789 -0.303363,-0.149716 -0.624544,-0.266992 -0.945322,-0.375952 -0.18712,-0.06446 -0.238963,-0.170925 -0.209396,-0.359317 0.04495,-0.281963 0.114619,-0.567669 0.09922,-0.847553 -0.02025,-0.361813 -0.106114,-0.721128 -0.185906,-1.074622 -0.01498,-0.06196 -0.140543,-0.132249 -0.218306,-0.13724 -0.276226,-0.01663 -0.553667,-0.0058 -0.820171,-0.0058 -0.304982,0.683699 -0.397327,1.346188 0.01944,2.048602 -0.500608,0.047 -0.931552,0.09856 -1.362495,0.125178 -0.194816,0.01162 -0.26367,0.09939 -0.300932,0.286954 -0.205346,1.046759 -0.430538,2.088526 -0.626569,3.136532 -0.03078,0.163855 -0.0036,0.394666 0.09154,0.517349 0.802349,1.051333 0.962333,2.278581 1.049412,3.560724 0.145808,2.142175 0.361686,4.279775 0.560147,6.419037 0.02227,0.23996 -0.03442,0.363059 -0.256784,0.44166 -0.172945,0.06071 -0.329284,0.170925 -0.492508,0.259922 0.01539,0.03743 0.03038,0.07611 0.04536,0.114369 0.63224,0 1.26367,0 1.932361,0 -0.07128,-1.478852 -0.142162,-2.948971 -0.213041,-4.419507 0.0239,-0.002 0.04739,-0.0033 0.07128,-0.0071 0.175375,1.471367 0.349939,2.944398 0.52815,4.431152 z"
                                   clip-rule="evenodd"
                                   inkscape:connector-curvature="0"
                                   style="fill-rule:evenodd" /><path
                                   id="path12496"
                                   d="m 26.804184,46.943675 c -0.660997,0 -1.25638,0 -1.856623,0 -0.01132,-0.07818 -0.0405,-0.146388 -0.02024,-0.168013 0.447145,-0.524834 0.383556,-1.180255 0.416768,-1.800741 0.119482,-2.241152 0.219522,-4.485215 0.309033,-6.727199 0.01057,-0.245367 -0.05468,-0.515686 -0.155935,-0.741506 -0.430133,-0.960257 -0.898339,-1.901382 -1.324827,-2.862471 -0.09761,-0.222493 -0.144189,-0.506952 -0.110578,-0.745664 0.237342,-1.674314 0.494531,-3.344469 0.769947,-5.011299 0.02714,-0.16427 0.201702,-0.355572 0.355609,-0.432509 0.396922,-0.196295 0.817336,-0.349752 1.238154,-0.493229 0.244633,-0.0836 0.312677,-0.223325 0.273795,-0.470771 -0.05913,-0.369297 -0.150264,-0.744001 -0.130012,-1.110387 0.02633,-0.474098 0.139327,-0.944869 0.243418,-1.408154 0.01944,-0.08109 0.183881,-0.172588 0.28635,-0.179659 0.361686,-0.02038 0.725395,-0.0074 1.074525,-0.0074 0.399757,0.89538 0.520453,1.764559 -0.02552,2.683644 0.655731,0.06238 1.220332,0.129754 1.784934,0.16427 0.255569,0.01621 0.345889,0.130169 0.394491,0.376368 0.268935,1.371557 0.563792,2.736044 0.820981,4.108018 0.04009,0.215422 0.0041,0.516932 -0.119892,0.678291 -1.051438,1.376964 -1.26043,2.984322 -1.374646,4.663212 -0.191171,2.806326 -0.473471,5.606 -0.733496,8.409415 -0.02916,0.313571 0.04496,0.476178 0.336168,0.578483 0.226409,0.07943 0.431349,0.224157 0.645202,0.339355 -0.02026,0.05032 -0.0405,0.100643 -0.05994,0.150962 -0.827866,0 -1.655327,0 -2.531796,0 0.09357,-1.937979 0.186311,-3.863898 0.279467,-5.789817 -0.03159,-0.0016 -0.06197,-0.0042 -0.09316,-0.0087 -0.230053,1.928414 -0.459701,3.856829 -0.692183,5.80562 z"
                                   clip-rule="evenodd"
                                   inkscape:connector-curvature="0"
                                   style="fill-rule:evenodd" /><g
                                   id="g12498"
                                   transform="matrix(0.4050223,0,0,0.41587537,22.623543,11.744399)"><g
                                   id="g12500"><polygon
                                   id="polygon12502"
                                   points="49.525,3.888 96.964,16.649 96.964,53.164 49.525,65.926 "
                                   stroke-miterlimit="10"
                                   style="fill:none;stroke:#000000;stroke-linecap:round;stroke-linejoin:round;stroke-miterlimit:10" /><g
                                   id="g12504"><g
                                   id="g12506"><path
                                   id="path12508"
                                   d="m 80.264,26.939 c 1.396,5.46 2.754,10.611 4.128,15.649 -6.892,0.658 -13.707,1.309 -20.654,1.972 2.085,-4.41 4.115,-8.543 6.14,-12.494 1.379,2.021 2.73,3.946 4.132,5.88 2.106,-3.89 4.148,-7.477 6.254,-11.007 z"
                                   clip-rule="evenodd"
                                   inkscape:connector-curvature="0"
                                   style="fill-rule:evenodd" /><path
                                   id="path12510"
                                   d="m 67.864,28.823 c 10e-4,1.701 -0.918,3.057 -2.054,3.031 -1.131,-0.025 -2.081,-1.507 -2.092,-3.252 -0.008,-1.754 0.925,-3.11 2.063,-3.008 1.16,0.105 2.079,1.533 2.083,3.229 z"
                                   clip-rule="evenodd"
                                   inkscape:connector-curvature="0"
                                   style="fill-rule:evenodd" /><path
                                   id="path12512"
                                   d="m 85.625,44.234 c 0,1.092 -0.728,2.078 -1.629,2.207 L 63.133,49.418 C 62.232,49.546 61.504,48.5 61.504,47.075 V 22.749 c 0,-1.422 0.728,-2.474 1.629,-2.345 l 20.863,2.975 c 0.901,0.129 1.629,1.118 1.629,2.208 v 18.647 z"
                                   stroke-miterlimit="10"
                                   clip-rule="evenodd"
                                   inkscape:connector-curvature="0"
                                   style="fill:none;stroke:#000000;stroke-miterlimit:10" /></g></g></g></g><g
                                   id="g12514"
                                   transform="matrix(0.4050223,0,0,0.41587537,22.623543,11.744399)"><g
                                   id="g12516"><polygon
                                   id="polygon12518"
                                   points="2.086,16.649 49.525,3.888 49.525,65.926 2.086,52.488 "
                                   stroke-miterlimit="10"
                                   style="fill:none;stroke:#000000;stroke-linecap:round;stroke-linejoin:round;stroke-miterlimit:10" /><g
                                   id="g12520"><g
                                   id="g12522"><path
                                   id="path12524"
                                   d="m 45.016,39.332 c 0,1.526 -0.619,2.713 -1.387,2.656 L 25.865,40.673 C 25.097,40.616 24.478,39.572 24.478,38.337 V 17.243 c 0,-1.233 0.619,-2.371 1.387,-2.538 l 17.764,-3.887 c 0.768,-0.168 1.387,0.934 1.387,2.457 v 26.057 z"
                                   stroke-miterlimit="10"
                                   clip-rule="evenodd"
                                   inkscape:connector-curvature="0"
                                   style="fill:none;stroke:#000000;stroke-miterlimit:10" /><g
                                   id="g12526"><path
                                   id="path12528"
                                   d="m 34.557,20.3 c 0.019,0.104 0.036,0.195 0.055,0.293 0.127,0 0.251,0 0.384,0.001 0,0.772 0,1.53 0,2.317 -0.481,0.055 -0.949,0.109 -1.434,0.164 -0.005,0.121 -0.011,0.214 -0.011,0.307 0.002,1.632 0.006,3.265 0.004,4.897 0,0.228 0.061,0.393 0.207,0.522 0.333,0.3 0.662,0.613 0.995,0.92 0.281,0.262 0.351,0.253 0.642,-0.075 -0.42,-0.294 -0.833,-0.589 -1.255,-0.863 -0.187,-0.121 -0.263,-0.288 -0.262,-0.553 0.01,-1.526 0.009,-3.052 0.011,-4.578 0,-0.061 0.005,-0.121 0.009,-0.203 0.88,-0.097 1.756,-0.193 2.651,-0.292 0,1.724 0,3.438 0,5.178 0.118,-0.007 0.217,-0.013 0.335,-0.02 0,-0.831 0,-1.66 0,-2.512 0.977,-0.081 1.938,-0.161 2.91,-0.242 0.013,0.189 0.025,0.379 0.04,0.6 0.2,-0.015 0.4,-0.031 0.62,-0.048 0,0.66 0.004,1.286 -0.002,1.912 -0.001,0.202 -0.122,0.251 -0.249,0.286 -0.908,0.249 -1.82,0.475 -2.724,0.75 -1.059,0.318 -2.077,0.798 -3.025,1.495 -0.06,0.043 -0.119,0.09 -0.179,0.138 0.276,0.408 0.333,0.424 0.697,0.185 0.797,-0.53 1.581,-1.11 2.466,-1.389 0.825,-0.264 1.651,-0.521 2.478,-0.785 0.335,-0.108 0.672,-0.215 1.022,-0.329 0,1.049 0,2.077 0,3.139 -0.487,-0.131 -0.958,-0.253 -1.429,-0.382 -0.933,-0.251 -1.863,-0.503 -2.793,-0.748 -0.333,-0.085 -0.483,-0.026 -0.86,0.35 0.078,0.036 0.138,0.066 0.199,0.091 1.52,0.653 3.04,1.326 4.559,2.022 0.336,0.157 0.35,0.182 0.35,0.659 0.002,0.436 10e-4,0.87 10e-4,1.323 -0.093,0.004 -0.162,0.012 -0.229,0.011 -0.952,-0.005 -1.902,-0.016 -2.852,-0.017 -0.21,0 -0.383,-0.082 -0.538,-0.26 -1.704,-1.946 -3.409,-3.824 -5.115,-5.635 -0.14,-0.145 -0.209,-0.317 -0.209,-0.546 0.002,-2.407 0.002,-4.814 0.002,-7.22 0,-0.049 0.008,-0.1 0.013,-0.163 0.136,-0.036 0.267,-0.071 0.402,-0.107 0.02,-0.101 0.038,-0.194 0.059,-0.302 0.677,-0.096 1.356,-0.192 2.055,-0.291 z"
                                   clip-rule="evenodd"
                                   inkscape:connector-curvature="0"
                                   style="fill-rule:evenodd" /><path
                                   id="path12530"
                                   d="m 35.415,34.76 c -1.206,-0.008 -2.366,-0.016 -3.545,-0.023 0.207,-0.481 0.395,-0.961 0.612,-1.424 0.216,-0.458 0.463,-0.898 0.718,-1.395 0.008,0.062 0.009,0.051 0.006,0.045 -0.26,-0.514 -0.332,-0.532 -0.759,-0.202 -0.373,0.285 -0.666,0.665 -0.925,1.085 -0.342,0.551 -0.693,1.089 -1.028,1.638 -0.124,0.205 -0.266,0.302 -0.476,0.284 -0.161,-0.014 -0.321,-0.004 -0.493,-0.006 0,-1.978 0,-3.928 0,-5.889 0.13,-0.027 0.252,-0.054 0.394,-0.083 0,-1.547 0,-3.083 0,-4.653 0.225,0.016 0.381,-0.188 0.55,-0.258 0.295,-0.123 0.632,-0.145 0.936,-0.11 0.144,0.017 0.292,0.212 0.29,0.485 -0.008,1.322 0,2.643 -0.005,3.966 -0.002,0.337 0.08,0.617 0.249,0.878 1.106,1.742 2.207,3.532 3.309,5.361 0.047,0.085 0.094,0.172 0.167,0.301 z"
                                   clip-rule="evenodd"
                                   inkscape:connector-curvature="0"
                                   style="fill-rule:evenodd" /><path
                                   id="path12532"
                                   d="m 38.897,25.163 c -0.654,0.058 -1.314,0.116 -1.997,0.175 0,-0.879 0,-1.749 0,-2.659 -0.418,0.048 -0.815,0.093 -1.222,0.14 0,-1.298 0,-2.558 0,-3.848 0.079,-0.003 0.153,-0.016 0.224,-0.007 0.914,0.113 1.826,0.24 2.741,0.359 0.173,0.022 0.281,0.101 0.281,0.351 -0.004,1.807 -0.006,3.613 -0.01,5.42 0,0.017 -0.008,0.035 -0.017,0.069 z"
                                   clip-rule="evenodd"
                                   inkscape:connector-curvature="0"
                                   style="fill-rule:evenodd" /></g></g></g></g></g></g></g></g></g></g></g></g></g></g></g></g></g></g></g></g></g></g></g></g></g></g></g></g></g></g></g></g></g></g></g></g></g></g></g></g></g></g></g></g></g></g></g></g></g></g></g></g></g></g></g></g></g></g></g></g></g></g></g></g></g></g></g></g></g></g></g></g></g></g></g></g></g></g></g></g></g></g></svg></svg>
