<?xml version="1.0" encoding="UTF-8"?>
<svg xmlns="http://www.w3.org/2000/svg" xmlns:xlink="http://www.w3.org/1999/xlink" width="30px" height="46px" viewBox="0 0 30 46" version="1.1">
<defs>
<clipPath id="clip1">
  <path d="M 20 12 L 22.445312 12 L 22.445312 20 L 20 20 Z M 20 12 "/>
</clipPath>
<clipPath id="clip2">
  <path d="M 7.550781 12 L 11 12 L 11 21 L 7.550781 21 Z M 7.550781 12 "/>
</clipPath>
<clipPath id="clip3">
  <path d="M 14 8 L 22.445312 8 L 22.445312 18 L 14 18 Z M 14 8 "/>
</clipPath>
<clipPath id="clip4">
  <path d="M 14 8 L 22.445312 8 L 22.445312 18 L 14 18 Z M 14 8 "/>
</clipPath>
<clipPath id="clip5">
  <path d="M 7.550781 8 L 15 8 L 15 18 L 7.550781 18 Z M 7.550781 8 "/>
</clipPath>
</defs>
<g id="surface1">
<path style="fill-rule:nonzero;fill:rgb(100%,40.000001%,0%);fill-opacity:1;stroke-width:1;stroke-linecap:round;stroke-linejoin:miter;stroke:rgb(83.137256%,33.333334%,0%);stroke-opacity:1;stroke-miterlimit:4;" d="M 13.040625 0.638587 C 6.25625 0.638587 0.609375 6.287364 0.609375 12.418478 C 0.609375 15.17663 2.224219 18.678668 3.388802 21.097147 L 13 38.828125 L 22.560417 21.097147 C 23.725 18.678668 25.383854 15.353261 25.383854 12.418478 C 25.383854 6.290761 19.828385 0.638587 13.04401 0.638587 Z M 13.040625 2.099185 C 18.934635 2.136549 23.721615 6.756114 23.721615 12.428668 C 23.721615 18.108016 18.938021 22.659647 13.040625 22.700408 C 7.146615 22.663043 2.369792 18.11481 2.369792 12.428668 C 2.369792 6.752717 7.15 2.129755 13.040625 2.099185 Z M 13.040625 2.099185 " transform="matrix(1.153846,0,0,1.15,0,0)"/>
<path style="fill-rule:nonzero;fill:rgb(100%,100%,100%);fill-opacity:1;stroke-width:1.00275;stroke-linecap:butt;stroke-linejoin:miter;stroke:rgb(100%,100%,100%);stroke-opacity:1;stroke-miterlimit:4;" d="M 23.010677 12.374321 C 23.010677 17.703804 18.528385 22.02106 13.003385 22.02106 C 7.478385 22.02106 2.996094 17.703804 2.996094 12.374321 C 2.996094 7.048234 7.478385 2.727582 13.003385 2.727582 C 18.528385 2.727582 23.010677 7.048234 23.010677 12.374321 Z M 23.010677 12.374321 " transform="matrix(1.153846,0,0,1.15,0,0)"/>
<g clip-path="url(#clip1)" clip-rule="nonzero">
<path style=" stroke:none;fill-rule:evenodd;fill:rgb(0%,0%,0%);fill-opacity:1;" d="M 21.660156 19.234375 C 21.847656 19.234375 22.019531 19.234375 22.191406 19.234375 C 22.191406 19.214844 22.203125 19.195312 22.195312 19.1875 C 22.070312 19.039062 22.085938 18.851562 22.078125 18.675781 C 22.042969 18.039062 22.015625 17.402344 21.988281 16.765625 C 21.984375 16.695312 22.003906 16.617188 22.035156 16.554688 C 22.15625 16.28125 22.289062 16.011719 22.410156 15.738281 C 22.4375 15.675781 22.453125 15.597656 22.441406 15.527344 C 22.375 15.050781 22.300781 14.578125 22.222656 14.105469 C 22.214844 14.058594 22.164062 14.003906 22.121094 13.980469 C 22.007812 13.925781 21.886719 13.882812 21.769531 13.839844 C 21.699219 13.816406 21.679688 13.777344 21.691406 13.707031 C 21.707031 13.601562 21.734375 13.496094 21.726562 13.390625 C 21.71875 13.257812 21.6875 13.125 21.660156 12.992188 C 21.652344 12.96875 21.605469 12.941406 21.578125 12.941406 C 21.472656 12.933594 21.371094 12.9375 21.269531 12.9375 C 21.15625 13.191406 21.121094 13.441406 21.277344 13.703125 C 21.089844 13.71875 20.929688 13.738281 20.769531 13.746094 C 20.695312 13.753906 20.671875 13.785156 20.65625 13.855469 C 20.578125 14.246094 20.496094 14.632812 20.421875 15.023438 C 20.410156 15.082031 20.421875 15.167969 20.457031 15.214844 C 20.757812 15.605469 20.816406 16.0625 20.847656 16.539062 C 20.902344 17.335938 20.984375 18.132812 21.058594 18.929688 C 21.066406 19.019531 21.042969 19.066406 20.960938 19.09375 C 20.898438 19.117188 20.839844 19.15625 20.777344 19.191406 C 20.785156 19.203125 20.789062 19.21875 20.792969 19.234375 C 21.03125 19.234375 21.265625 19.234375 21.515625 19.234375 C 21.488281 18.683594 21.464844 18.136719 21.4375 17.589844 C 21.445312 17.585938 21.453125 17.585938 21.464844 17.585938 C 21.527344 18.132812 21.59375 18.683594 21.660156 19.234375 Z M 21.660156 19.234375 "/>
</g>
<g clip-path="url(#clip2)" clip-rule="nonzero">
<path style=" stroke:none;fill-rule:evenodd;fill:rgb(0%,0%,0%);fill-opacity:1;" d="M 8.871094 20.636719 C 8.625 20.636719 8.402344 20.636719 8.175781 20.636719 C 8.171875 20.609375 8.160156 20.582031 8.167969 20.574219 C 8.335938 20.378906 8.3125 20.132812 8.324219 19.902344 C 8.371094 19.070312 8.40625 18.234375 8.441406 17.398438 C 8.445312 17.308594 8.417969 17.207031 8.382812 17.125 C 8.222656 16.765625 8.046875 16.414062 7.886719 16.058594 C 7.851562 15.976562 7.832031 15.871094 7.847656 15.78125 C 7.933594 15.15625 8.03125 14.535156 8.132812 13.914062 C 8.144531 13.855469 8.207031 13.78125 8.265625 13.753906 C 8.414062 13.679688 8.570312 13.625 8.730469 13.570312 C 8.820312 13.539062 8.84375 13.488281 8.832031 13.394531 C 8.808594 13.257812 8.773438 13.117188 8.78125 12.980469 C 8.792969 12.804688 8.835938 12.628906 8.875 12.457031 C 8.878906 12.425781 8.941406 12.394531 8.980469 12.390625 C 9.113281 12.382812 9.25 12.386719 9.382812 12.386719 C 9.53125 12.722656 9.574219 13.042969 9.371094 13.386719 C 9.617188 13.410156 9.828125 13.433594 10.039062 13.449219 C 10.132812 13.453125 10.167969 13.496094 10.1875 13.589844 C 10.285156 14.097656 10.394531 14.605469 10.492188 15.117188 C 10.507812 15.199219 10.492188 15.308594 10.449219 15.371094 C 10.054688 15.882812 9.976562 16.480469 9.933594 17.105469 C 9.863281 18.148438 9.757812 19.191406 9.660156 20.234375 C 9.648438 20.351562 9.675781 20.414062 9.785156 20.453125 C 9.871094 20.480469 9.945312 20.535156 10.027344 20.578125 C 10.019531 20.597656 10.011719 20.613281 10.003906 20.632812 C 9.695312 20.632812 9.386719 20.632812 9.058594 20.632812 C 9.09375 19.914062 9.128906 19.195312 9.164062 18.480469 C 9.152344 18.476562 9.140625 18.476562 9.128906 18.476562 C 9.042969 19.191406 8.957031 19.910156 8.871094 20.636719 Z M 8.871094 20.636719 "/>
</g>
<g clip-path="url(#clip3)" clip-rule="nonzero">
<path style="fill:none;stroke-width:1;stroke-linecap:round;stroke-linejoin:round;stroke:rgb(0%,0%,0%);stroke-opacity:1;stroke-miterlimit:10;" d="M 49.528395 3.894167 L 96.965055 16.63689 L 96.965055 53.174441 L 49.528395 65.917164 Z M 49.528395 3.894167 " transform="matrix(0.151271,0,0,0.154806,7.308581,7.533876)"/>
</g>
<path style=" stroke:none;fill-rule:evenodd;fill:rgb(0%,0%,0%);fill-opacity:1;" d="M 19.449219 11.703125 C 19.660156 12.550781 19.867188 13.347656 20.074219 14.125 C 19.03125 14.230469 18 14.328125 16.949219 14.433594 C 17.265625 13.75 17.574219 13.109375 17.878906 12.496094 C 18.085938 12.8125 18.292969 13.109375 18.503906 13.40625 C 18.824219 12.804688 19.132812 12.25 19.449219 11.703125 Z M 19.449219 11.703125 "/>
<path style=" stroke:none;fill-rule:evenodd;fill:rgb(0%,0%,0%);fill-opacity:1;" d="M 17.574219 11.996094 C 17.574219 12.257812 17.4375 12.46875 17.265625 12.464844 C 17.09375 12.460938 16.949219 12.230469 16.945312 11.960938 C 16.945312 11.691406 17.085938 11.480469 17.257812 11.496094 C 17.433594 11.511719 17.574219 11.734375 17.574219 11.996094 Z M 17.574219 11.996094 "/>
<g clip-path="url(#clip4)" clip-rule="nonzero">
<path style="fill:none;stroke-width:1;stroke-linecap:butt;stroke-linejoin:miter;stroke:rgb(0%,0%,0%);stroke-opacity:1;stroke-miterlimit:10;" d="M 85.628804 44.241918 C 85.628804 45.326942 84.905763 46.311034 84.001961 46.437199 L 63.137062 49.414707 C 62.23326 49.540872 61.510219 48.506315 61.510219 47.068027 L 61.510219 22.743304 C 61.510219 21.33025 62.23326 20.270459 63.137062 20.396625 L 84.001961 23.374132 C 84.905763 23.500298 85.628804 24.484389 85.628804 25.594646 Z M 85.628804 44.241918 " transform="matrix(0.151271,0,0,0.154806,7.308581,7.533876)"/>
</g>
<g clip-path="url(#clip5)" clip-rule="nonzero">
<path style="fill:none;stroke-width:1;stroke-linecap:round;stroke-linejoin:round;stroke:rgb(0%,0%,0%);stroke-opacity:1;stroke-miterlimit:10;" d="M 2.091736 16.63689 L 49.528395 3.894167 L 49.528395 65.917164 L 2.091736 52.493147 Z M 2.091736 16.63689 " transform="matrix(0.151271,0,0,0.154806,7.308581,7.533876)"/>
</g>
<path style="fill:none;stroke-width:1;stroke-linecap:butt;stroke-linejoin:miter;stroke:rgb(0%,0%,0%);stroke-opacity:1;stroke-miterlimit:10;" d="M 45.009389 39.321461 C 45.009389 40.860681 44.389639 42.046637 43.640775 41.996171 L 25.874623 40.684049 C 25.099936 40.60835 24.480186 39.573792 24.480186 38.337369 L 24.480186 17.242485 C 24.480186 16.006062 25.099936 14.870572 25.874623 14.693941 L 43.640775 10.808041 C 44.389639 10.656642 45.009389 11.741666 45.009389 13.280886 Z M 45.009389 39.321461 " transform="matrix(0.151271,0,0,0.154806,7.308581,7.533876)"/>
<path style=" stroke:none;fill-rule:evenodd;fill:rgb(0%,0%,0%);fill-opacity:1;" d="M 12.535156 10.675781 C 12.539062 10.691406 12.542969 10.707031 12.542969 10.722656 C 12.5625 10.722656 12.582031 10.722656 12.601562 10.722656 C 12.601562 10.839844 12.601562 10.957031 12.601562 11.082031 C 12.53125 11.089844 12.457031 11.097656 12.386719 11.105469 C 12.386719 11.125 12.382812 11.140625 12.382812 11.152344 C 12.382812 11.40625 12.386719 11.660156 12.382812 11.910156 C 12.382812 11.945312 12.394531 11.972656 12.414062 11.992188 C 12.464844 12.039062 12.515625 12.085938 12.566406 12.136719 C 12.609375 12.175781 12.621094 12.175781 12.664062 12.125 C 12.601562 12.078125 12.539062 12.03125 12.472656 11.988281 C 12.445312 11.972656 12.433594 11.945312 12.433594 11.902344 C 12.433594 11.667969 12.433594 11.429688 12.4375 11.195312 C 12.4375 11.1875 12.4375 11.175781 12.4375 11.164062 C 12.570312 11.148438 12.703125 11.132812 12.839844 11.117188 C 12.839844 11.386719 12.839844 11.652344 12.839844 11.921875 C 12.855469 11.917969 12.871094 11.917969 12.886719 11.917969 C 12.886719 11.789062 12.886719 11.660156 12.886719 11.527344 C 13.035156 11.515625 13.183594 11.503906 13.328125 11.492188 C 13.332031 11.519531 13.332031 11.550781 13.335938 11.582031 C 13.363281 11.582031 13.394531 11.578125 13.429688 11.578125 C 13.429688 11.679688 13.429688 11.777344 13.429688 11.871094 C 13.429688 11.902344 13.410156 11.910156 13.390625 11.917969 C 13.253906 11.957031 13.117188 11.988281 12.980469 12.03125 C 12.820312 12.082031 12.664062 12.15625 12.519531 12.265625 C 12.511719 12.269531 12.503906 12.277344 12.492188 12.285156 C 12.535156 12.347656 12.542969 12.351562 12.597656 12.3125 C 12.71875 12.230469 12.839844 12.140625 12.972656 12.097656 C 13.097656 12.058594 13.222656 12.019531 13.347656 11.976562 C 13.398438 11.960938 13.449219 11.945312 13.5 11.925781 C 13.5 12.089844 13.5 12.25 13.5 12.414062 C 13.429688 12.390625 13.355469 12.375 13.285156 12.351562 C 13.144531 12.316406 13.003906 12.277344 12.863281 12.238281 C 12.8125 12.222656 12.789062 12.234375 12.734375 12.292969 C 12.746094 12.296875 12.753906 12.300781 12.761719 12.304688 C 12.992188 12.40625 13.222656 12.511719 13.453125 12.617188 C 13.503906 12.644531 13.503906 12.648438 13.503906 12.722656 C 13.507812 12.789062 13.507812 12.855469 13.507812 12.925781 C 13.492188 12.925781 13.480469 12.925781 13.472656 12.925781 C 13.328125 12.925781 13.183594 12.925781 13.039062 12.925781 C 13.007812 12.925781 12.980469 12.914062 12.957031 12.882812 C 12.699219 12.582031 12.441406 12.292969 12.183594 12.011719 C 12.164062 11.988281 12.152344 11.964844 12.152344 11.929688 C 12.152344 11.554688 12.152344 11.183594 12.152344 10.808594 C 12.152344 10.800781 12.15625 10.792969 12.15625 10.785156 C 12.175781 10.777344 12.195312 10.773438 12.214844 10.769531 C 12.21875 10.753906 12.222656 10.738281 12.226562 10.722656 C 12.328125 10.707031 12.429688 10.691406 12.535156 10.675781 Z M 12.535156 10.675781 "/>
<path style=" stroke:none;fill-rule:evenodd;fill:rgb(0%,0%,0%);fill-opacity:1;" d="M 12.664062 12.914062 C 12.484375 12.914062 12.308594 12.914062 12.128906 12.910156 C 12.160156 12.835938 12.1875 12.761719 12.222656 12.691406 C 12.253906 12.621094 12.292969 12.550781 12.332031 12.476562 C 12.332031 12.484375 12.332031 12.484375 12.332031 12.480469 C 12.292969 12.402344 12.28125 12.398438 12.21875 12.449219 C 12.160156 12.496094 12.117188 12.554688 12.078125 12.617188 C 12.023438 12.703125 11.972656 12.789062 11.921875 12.871094 C 11.902344 12.902344 11.882812 12.917969 11.847656 12.917969 C 11.824219 12.914062 11.800781 12.914062 11.773438 12.914062 C 11.773438 12.609375 11.773438 12.308594 11.773438 12.003906 C 11.792969 12 11.8125 11.996094 11.835938 11.992188 C 11.835938 11.75 11.835938 11.511719 11.835938 11.269531 C 11.867188 11.273438 11.890625 11.242188 11.917969 11.230469 C 11.960938 11.210938 12.011719 11.207031 12.058594 11.214844 C 12.082031 11.214844 12.101562 11.246094 12.101562 11.289062 C 12.101562 11.492188 12.101562 11.699219 12.101562 11.902344 C 12.101562 11.953125 12.113281 11.996094 12.140625 12.039062 C 12.308594 12.308594 12.472656 12.585938 12.640625 12.867188 C 12.648438 12.882812 12.65625 12.894531 12.664062 12.914062 Z M 12.664062 12.914062 "/>
<path style=" stroke:none;fill-rule:evenodd;fill:rgb(0%,0%,0%);fill-opacity:1;" d="M 13.191406 11.429688 C 13.09375 11.4375 12.992188 11.445312 12.890625 11.457031 C 12.890625 11.320312 12.890625 11.1875 12.890625 11.042969 C 12.828125 11.050781 12.765625 11.058594 12.707031 11.066406 C 12.707031 10.867188 12.707031 10.671875 12.707031 10.472656 C 12.71875 10.46875 12.730469 10.46875 12.738281 10.46875 C 12.878906 10.488281 13.015625 10.507812 13.152344 10.523438 C 13.179688 10.527344 13.195312 10.539062 13.195312 10.578125 C 13.195312 10.859375 13.195312 11.140625 13.195312 11.417969 C 13.195312 11.421875 13.195312 11.425781 13.191406 11.429688 Z M 13.191406 11.429688 "/>
</g>
</svg>
