<?xml version="1.0" encoding="UTF-8"?>
<svg xmlns="http://www.w3.org/2000/svg" xmlns:xlink="http://www.w3.org/1999/xlink" width="30px" height="46px" viewBox="0 0 30 46" version="1.1">
<defs>
<clipPath id="clip1">
  <path d="M 8 6.921875 L 22 6.921875 L 22 21.769531 L 8 21.769531 Z M 8 6.921875 "/>
</clipPath>
</defs>
<g id="surface1">
<path style="fill-rule:nonzero;fill:rgb(100%,40.000001%,0%);fill-opacity:1;stroke-width:1;stroke-linecap:round;stroke-linejoin:miter;stroke:rgb(83.137256%,33.333334%,0%);stroke-opacity:1;stroke-miterlimit:4;" d="M 13.040625 0.638587 C 6.25625 0.638587 0.609375 6.287364 0.609375 12.418478 C 0.609375 15.17663 2.224219 18.678668 3.388802 21.097147 L 13 38.828125 L 22.560417 21.097147 C 23.725 18.678668 25.383854 15.353261 25.383854 12.418478 C 25.383854 6.290761 19.828385 0.638587 13.04401 0.638587 Z M 13.040625 2.099185 C 18.934635 2.136549 23.721615 6.756114 23.721615 12.428668 C 23.721615 18.108016 18.938021 22.659647 13.040625 22.700408 C 7.146615 22.663043 2.369792 18.11481 2.369792 12.428668 C 2.369792 6.752717 7.15 2.129755 13.040625 2.099185 Z M 13.040625 2.099185 " transform="matrix(1.153846,0,0,1.15,0,0)"/>
<path style="fill-rule:nonzero;fill:rgb(100%,100%,100%);fill-opacity:1;stroke-width:1.00275;stroke-linecap:butt;stroke-linejoin:miter;stroke:rgb(100%,100%,100%);stroke-opacity:1;stroke-miterlimit:4;" d="M 23.010677 12.374321 C 23.010677 17.703804 18.528385 22.02106 13.003385 22.02106 C 7.478385 22.02106 2.996094 17.703804 2.996094 12.374321 C 2.996094 7.048234 7.478385 2.727582 13.003385 2.727582 C 18.528385 2.727582 23.010677 7.048234 23.010677 12.374321 Z M 23.010677 12.374321 " transform="matrix(1.153846,0,0,1.15,0,0)"/>
<g clip-path="url(#clip1)" clip-rule="nonzero">
<path style=" stroke:none;fill-rule:nonzero;fill:rgb(0%,0%,0%);fill-opacity:1;" d="M 20.878906 20.101562 L 16.898438 20.101562 C 16.746094 20.101562 16.605469 19.933594 16.605469 19.746094 L 16.605469 15.703125 C 16.605469 15.617188 16.691406 15.597656 16.726562 15.660156 C 16.796875 15.785156 16.882812 15.929688 16.933594 16.078125 C 17.210938 16.660156 17.332031 17.285156 17.347656 17.953125 C 17.402344 18.976562 17.78125 19.664062 18.648438 19.914062 C 18.769531 19.914062 18.871094 19.894531 18.976562 19.894531 C 19.804688 19.539062 20.097656 18.953125 19.910156 17.871094 C 19.839844 17.453125 19.703125 17.078125 19.527344 16.722656 C 19.148438 15.929688 18.800781 15.140625 18.648438 14.242188 C 18.578125 13.804688 18.527344 13.347656 18.457031 12.886719 C 18.4375 12.742188 18.472656 12.65625 18.578125 12.574219 C 18.785156 12.429688 19.007812 12.261719 19.199219 12.09375 C 19.304688 12.011719 19.390625 11.867188 19.425781 11.71875 C 19.527344 11.28125 19.597656 10.84375 19.667969 10.40625 C 19.71875 10.09375 19.683594 10.007812 19.441406 9.84375 C 19.25 9.71875 19.0625 9.59375 18.871094 9.46875 C 18.769531 9.40625 18.734375 9.238281 18.800781 9.132812 L 19.355469 8.175781 C 19.460938 8.089844 19.441406 7.945312 19.371094 7.882812 C 19.269531 7.777344 19.097656 7.800781 19.0625 7.988281 C 18.957031 8.300781 18.800781 8.613281 18.558594 8.820312 C 18.214844 9.113281 18.164062 9.488281 18.109375 9.863281 C 18.007812 10.53125 17.902344 11.175781 17.800781 11.84375 C 17.78125 11.929688 17.78125 12.011719 17.800781 12.074219 C 17.988281 12.59375 17.972656 13.15625 18.042969 13.699219 C 18.179688 14.722656 18.457031 15.703125 18.886719 16.597656 C 19.128906 17.097656 19.390625 17.597656 19.441406 18.203125 C 19.492188 18.664062 19.355469 19.039062 19.0625 19.183594 C 18.769531 19.351562 18.386719 19.226562 18.164062 18.890625 C 17.988281 18.640625 17.902344 18.351562 17.886719 18.015625 C 17.832031 16.621094 17.402344 15.472656 16.605469 14.535156 C 16.589844 14.511719 16.589844 14.492188 16.589844 14.472656 L 16.589844 13.679688 C 16.589844 13.492188 16.710938 13.304688 16.882812 13.304688 C 17.039062 13.304688 17.160156 13.15625 17.175781 12.96875 L 17.46875 7.296875 C 17.488281 7.089844 17.347656 6.921875 17.175781 6.921875 L 10.15625 6.921875 C 9.984375 6.921875 9.863281 7.089844 9.863281 7.296875 L 10.15625 12.992188 C 10.171875 13.179688 10.292969 13.324219 10.449219 13.324219 C 10.605469 13.324219 10.742188 13.492188 10.742188 13.679688 L 10.742188 19.746094 C 10.742188 19.933594 10.605469 20.101562 10.449219 20.101562 L 9.117188 20.101562 C 8.960938 20.101562 8.824219 20.269531 8.824219 20.457031 L 8.824219 21.414062 C 8.824219 21.601562 8.960938 21.769531 9.117188 21.769531 L 20.878906 21.769531 C 21.03125 21.769531 21.171875 21.601562 21.171875 21.414062 L 21.171875 20.457031 C 21.171875 20.246094 21.03125 20.101562 20.878906 20.101562 Z M 18.578125 10.09375 C 18.613281 10.09375 18.628906 10.09375 18.648438 10.09375 C 19.128906 10.363281 19.128906 10.363281 19.007812 10.988281 C 19.007812 11.03125 18.992188 11.074219 18.992188 11.113281 C 18.921875 11.574219 18.921875 11.613281 18.59375 11.761719 C 18.542969 11.78125 18.472656 11.742188 18.472656 11.65625 Z M 15.722656 17.535156 L 14.996094 17.535156 C 14.84375 17.535156 14.722656 17.390625 14.722656 17.203125 L 14.722656 14.347656 C 14.722656 14.160156 14.84375 14.011719 14.996094 14.011719 L 15.722656 14.011719 C 15.878906 14.011719 16 14.160156 16 14.347656 L 16 17.203125 C 16 17.390625 15.878906 17.535156 15.722656 17.535156 Z M 16.363281 11.574219 C 16.363281 11.824219 16.207031 12.011719 16 12.011719 L 11.453125 12.011719 C 11.246094 12.011719 11.089844 11.824219 11.089844 11.574219 L 11.089844 8.550781 C 11.089844 8.300781 11.246094 8.113281 11.453125 8.113281 L 15.984375 8.113281 C 16.191406 8.113281 16.347656 8.300781 16.347656 8.550781 L 16.347656 11.574219 Z M 16.363281 11.574219 "/>
</g>
</g>
</svg>
