<?xml version="1.0" encoding="UTF-8"?>
<svg xmlns="http://www.w3.org/2000/svg" xmlns:xlink="http://www.w3.org/1999/xlink" width="30px" height="46px" viewBox="0 0 30 46" version="1.1">
<defs>
<clipPath id="clip1">
  <path d="M 8 6.921875 L 22 6.921875 L 22 21.769531 L 8 21.769531 Z M 8 6.921875 "/>
</clipPath>
</defs>
<g id="surface1">
<path style="fill-rule:nonzero;fill:rgb(100%,40.000001%,0%);fill-opacity:1;stroke-width:1;stroke-linecap:round;stroke-linejoin:miter;stroke:rgb(83.137256%,33.333334%,0%);stroke-opacity:1;stroke-miterlimit:4;" d="M 13.040625 0.638587 C 6.25625 0.638587 0.609375 6.287364 0.609375 12.418478 C 0.609375 15.17663 2.224219 18.678668 3.388802 21.097147 L 13 38.828125 L 22.560417 21.097147 C 23.725 18.678668 25.383854 15.353261 25.383854 12.418478 C 25.383854 6.290761 19.828385 0.638587 13.04401 0.638587 Z M 13.040625 2.099185 C 18.934635 2.136549 23.721615 6.756114 23.721615 12.428668 C 23.721615 18.108016 18.938021 22.659647 13.040625 22.700408 C 7.146615 22.663043 2.369792 18.11481 2.369792 12.428668 C 2.369792 6.752717 7.15 2.129755 13.040625 2.099185 Z M 13.040625 2.099185 " transform="matrix(1.153846,0,0,1.15,0,0)"/>
<path style="fill-rule:nonzero;fill:rgb(100%,100%,100%);fill-opacity:1;stroke-width:1.00275;stroke-linecap:butt;stroke-linejoin:miter;stroke:rgb(100%,100%,100%);stroke-opacity:1;stroke-miterlimit:4;" d="M 23.010677 12.374321 C 23.010677 17.703804 18.528385 22.02106 13.003385 22.02106 C 7.478385 22.02106 2.996094 17.703804 2.996094 12.374321 C 2.996094 7.048234 7.478385 2.727582 13.003385 2.727582 C 18.528385 2.727582 23.010677 7.048234 23.010677 12.374321 Z M 23.010677 12.374321 " transform="matrix(1.153846,0,0,1.15,0,0)"/>
<path style=" stroke:none;fill-rule:evenodd;fill:rgb(0%,0%,0%);fill-opacity:1;" d="M 15.113281 11.136719 Z M 15.15625 11.121094 C 15.203125 11.105469 15.25 11.074219 15.292969 11.058594 L 15.292969 11.042969 C 15.234375 11.074219 15.1875 11.105469 15.15625 11.121094 Z M 15.292969 10.804688 C 15.292969 10.804688 15.292969 10.820312 15.292969 10.804688 Z M 15.066406 10.535156 L 14.988281 10.535156 C 15.035156 10.535156 15.066406 10.550781 15.113281 10.566406 C 15.097656 10.550781 15.082031 10.535156 15.066406 10.535156 Z M 14.867188 11.136719 Z M 14.683594 11.027344 L 14.683594 11.042969 C 14.730469 11.074219 14.777344 11.089844 14.824219 11.105469 C 14.808594 11.105469 14.746094 11.074219 14.683594 11.027344 Z M 14.683594 10.820312 C 14.683594 10.820312 14.683594 10.804688 14.683594 10.820312 C 14.683594 10.804688 14.683594 10.804688 14.683594 10.820312 Z M 14.683594 10.820312 "/>
<g clip-path="url(#clip1)" clip-rule="nonzero">
<path style=" stroke:none;fill-rule:evenodd;fill:rgb(0%,0%,0%);fill-opacity:1;" d="M 20.519531 10.535156 L 16.332031 10.535156 C 18.933594 9.332031 20.519531 9.363281 20.535156 9.363281 C 20.703125 9.363281 20.839844 9.238281 20.855469 9.0625 C 20.855469 8.886719 20.730469 8.746094 20.566406 8.730469 C 20.503906 8.730469 19.269531 8.699219 17.214844 9.488281 C 17.746094 8.917969 18.007812 8.429688 18.007812 8 C 18.007812 7.730469 17.882812 7.367188 17.410156 7.097656 C 17.199219 6.988281 17 6.921875 16.789062 6.921875 C 15.84375 6.921875 15.308594 8.175781 15.019531 9.253906 C 14.699219 8.160156 14.152344 6.921875 13.222656 6.921875 C 13.023438 6.921875 12.8125 6.988281 12.597656 7.097656 C 12.125 7.367188 12.003906 7.730469 12.003906 8 C 11.988281 8.429688 12.25 8.917969 12.796875 9.488281 C 10.726562 8.699219 9.507812 8.730469 9.445312 8.730469 C 9.277344 8.730469 9.140625 8.886719 9.15625 9.0625 C 9.15625 9.238281 9.308594 9.378906 9.476562 9.363281 C 9.492188 9.363281 11.058594 9.332031 13.679688 10.535156 L 9.476562 10.535156 C 8.882812 10.535156 8.410156 11.027344 8.410156 11.644531 L 8.410156 13.101562 C 8.410156 13.71875 8.882812 14.210938 9.476562 14.210938 L 9.855469 14.210938 L 9.855469 20.5 C 9.855469 21.199219 10.40625 21.769531 11.074219 21.769531 L 18.613281 21.769531 C 19.285156 21.769531 19.832031 21.199219 19.832031 20.5 L 19.832031 14.210938 L 20.519531 14.210938 C 21.113281 14.210938 21.585938 13.71875 21.585938 13.101562 L 21.585938 11.644531 C 21.585938 11.027344 21.097656 10.535156 20.519531 10.535156 Z M 16.757812 7.558594 C 16.863281 7.558594 16.96875 7.589844 17.09375 7.652344 C 17.367188 7.808594 17.367188 7.953125 17.367188 8 C 17.382812 8.554688 16.359375 9.488281 15.402344 10.1875 C 15.628906 9.046875 16.101562 7.558594 16.757812 7.558594 Z M 15.292969 10.820312 C 15.292969 10.820312 15.292969 10.804688 15.292969 10.820312 C 15.292969 10.804688 15.292969 10.804688 15.292969 10.820312 Z M 14.683594 10.820312 C 14.683594 10.804688 14.683594 10.804688 14.683594 10.820312 C 14.683594 10.804688 14.683594 10.820312 14.683594 10.820312 Z M 12.613281 8 C 12.613281 7.953125 12.613281 7.792969 12.886719 7.652344 C 13.011719 7.589844 13.117188 7.558594 13.222656 7.558594 C 13.894531 7.558594 14.367188 9.0625 14.578125 10.203125 C 13.621094 9.503906 12.597656 8.554688 12.613281 8 Z M 14.683594 21.121094 L 11.074219 21.121094 C 10.742188 21.121094 10.464844 20.835938 10.464844 20.484375 L 10.464844 14.210938 L 14.699219 14.210938 L 14.699219 21.121094 Z M 14.683594 13.578125 L 9.476562 13.578125 C 9.234375 13.578125 9.019531 13.371094 9.019531 13.101562 L 9.019531 11.644531 C 9.019531 11.375 9.234375 11.167969 9.476562 11.167969 L 14.683594 11.167969 Z M 15.113281 11.136719 L 15.113281 11.136719 M 19.222656 20.484375 C 19.222656 20.835938 18.949219 21.121094 18.613281 21.121094 L 15.292969 21.121094 L 15.292969 14.210938 L 19.222656 14.210938 Z M 20.976562 13.101562 C 20.976562 13.371094 20.777344 13.578125 20.519531 13.578125 L 15.292969 13.578125 L 15.292969 11.167969 L 20.519531 11.167969 C 20.777344 11.167969 20.976562 11.375 20.976562 11.644531 Z M 20.976562 13.101562 "/>
</g>
</g>
</svg>
