<?xml version="1.0" encoding="UTF-8"?>
<svg xmlns="http://www.w3.org/2000/svg" xmlns:xlink="http://www.w3.org/1999/xlink" width="30px" height="46px" viewBox="0 0 30 46" version="1.1">
<defs>
<clipPath id="clip1">
  <path d="M 9 11 L 21 11 L 21 21.769531 L 9 21.769531 Z M 9 11 "/>
</clipPath>
<clipPath id="clip2">
  <path d="M 16 6.921875 L 19 6.921875 L 19 9 L 16 9 Z M 16 6.921875 "/>
</clipPath>
<clipPath id="clip3">
  <path d="M 11 15 L 15 15 L 15 21.769531 L 11 21.769531 Z M 11 15 "/>
</clipPath>
</defs>
<g id="surface1">
<path style="fill-rule:nonzero;fill:rgb(100%,40.000001%,0%);fill-opacity:1;stroke-width:1;stroke-linecap:round;stroke-linejoin:miter;stroke:rgb(83.137256%,33.333334%,0%);stroke-opacity:1;stroke-miterlimit:4;" d="M 13.040625 0.638587 C 6.25625 0.638587 0.609375 6.287364 0.609375 12.418478 C 0.609375 15.17663 2.224219 18.678668 3.388802 21.097147 L 13 38.828125 L 22.560417 21.097147 C 23.725 18.678668 25.383854 15.353261 25.383854 12.418478 C 25.383854 6.290761 19.828385 0.638587 13.04401 0.638587 Z M 13.040625 2.099185 C 18.934635 2.136549 23.721615 6.756114 23.721615 12.428668 C 23.721615 18.108016 18.938021 22.659647 13.040625 22.700408 C 7.146615 22.663043 2.369792 18.11481 2.369792 12.428668 C 2.369792 6.752717 7.15 2.129755 13.040625 2.099185 Z M 13.040625 2.099185 " transform="matrix(1.153846,0,0,1.15,0,0)"/>
<path style="fill-rule:nonzero;fill:rgb(100%,100%,100%);fill-opacity:1;stroke-width:1.00275;stroke-linecap:butt;stroke-linejoin:miter;stroke:rgb(100%,100%,100%);stroke-opacity:1;stroke-miterlimit:4;" d="M 23.010677 12.374321 C 23.010677 17.703804 18.528385 22.02106 13.003385 22.02106 C 7.478385 22.02106 2.996094 17.703804 2.996094 12.374321 C 2.996094 7.048234 7.478385 2.727582 13.003385 2.727582 C 18.528385 2.727582 23.010677 7.048234 23.010677 12.374321 Z M 23.010677 12.374321 " transform="matrix(1.153846,0,0,1.15,0,0)"/>
<g clip-path="url(#clip1)" clip-rule="nonzero">
<path style=" stroke:none;fill-rule:nonzero;fill:rgb(0%,0%,0%);fill-opacity:1;" d="M 20.160156 21.769531 L 9.828125 21.769531 C 9.652344 21.769531 9.539062 21.644531 9.539062 21.460938 L 9.539062 12.089844 C 9.539062 11.902344 9.652344 11.777344 9.828125 11.777344 L 20.160156 11.777344 C 20.332031 11.777344 20.449219 11.902344 20.449219 12.089844 L 20.449219 21.460938 C 20.449219 21.644531 20.332031 21.769531 20.160156 21.769531 Z M 10.117188 21.152344 L 19.871094 21.152344 L 19.871094 12.398438 L 10.117188 12.398438 Z M 10.117188 21.152344 "/>
</g>
<path style=" stroke:none;fill-rule:nonzero;fill:rgb(0%,0%,0%);fill-opacity:1;" d="M 21.628906 12.398438 L 8.355469 12.398438 C 8.269531 12.398438 8.152344 12.335938 8.125 12.242188 C 8.066406 12.148438 8.066406 12.027344 8.09375 11.933594 L 9.625 8.53125 C 9.683594 8.4375 9.769531 8.347656 9.882812 8.347656 L 20.101562 8.347656 C 20.214844 8.347656 20.304688 8.40625 20.359375 8.53125 L 21.863281 11.902344 C 21.890625 11.964844 21.917969 12.027344 21.917969 12.089844 C 21.917969 12.273438 21.804688 12.398438 21.628906 12.398438 Z M 8.816406 11.777344 L 21.167969 11.777344 L 19.929688 8.964844 L 10.058594 8.964844 Z M 8.816406 11.777344 "/>
<g clip-path="url(#clip2)" clip-rule="nonzero">
<path style=" stroke:none;fill-rule:nonzero;fill:rgb(0%,0%,0%);fill-opacity:1;" d="M 18.253906 8.964844 L 16.898438 8.964844 C 16.722656 8.964844 16.609375 8.839844 16.609375 8.65625 L 16.609375 7.230469 C 16.609375 7.046875 16.722656 6.921875 16.898438 6.921875 L 18.253906 6.921875 C 18.425781 6.921875 18.542969 7.046875 18.542969 7.230469 L 18.542969 8.65625 C 18.542969 8.839844 18.425781 8.964844 18.253906 8.964844 Z M 17.1875 8.347656 L 17.964844 8.347656 L 17.964844 7.542969 L 17.1875 7.542969 Z M 17.1875 8.347656 "/>
</g>
<g clip-path="url(#clip3)" clip-rule="nonzero">
<path style=" stroke:none;fill-rule:nonzero;fill:rgb(0%,0%,0%);fill-opacity:1;" d="M 14.214844 21.769531 L 11.328125 21.769531 C 11.152344 21.769531 11.039062 21.644531 11.039062 21.460938 L 11.039062 15.335938 C 11.039062 15.152344 11.152344 15.027344 11.328125 15.027344 L 14.214844 15.027344 C 14.386719 15.027344 14.503906 15.152344 14.503906 15.335938 L 14.503906 21.460938 C 14.503906 21.644531 14.386719 21.769531 14.214844 21.769531 Z M 11.617188 21.152344 L 13.925781 21.152344 L 13.925781 15.644531 L 11.617188 15.644531 Z M 11.617188 21.152344 "/>
</g>
<path style=" stroke:none;fill-rule:nonzero;fill:rgb(0%,0%,0%);fill-opacity:1;" d="M 18.253906 18.707031 L 15.945312 18.707031 C 15.773438 18.707031 15.65625 18.582031 15.65625 18.398438 L 15.65625 15.335938 C 15.65625 15.152344 15.773438 15.027344 15.945312 15.027344 L 18.253906 15.027344 C 18.425781 15.027344 18.542969 15.152344 18.542969 15.335938 L 18.542969 18.398438 C 18.542969 18.582031 18.425781 18.707031 18.253906 18.707031 Z M 16.234375 18.089844 L 17.964844 18.089844 L 17.964844 15.644531 L 16.234375 15.644531 Z M 16.234375 18.089844 "/>
</g>
</svg>
