<?xml version="1.0" encoding="UTF-8" standalone="no"?>
<svg
   xmlns:dc="http://purl.org/dc/elements/1.1/"
   xmlns:cc="http://creativecommons.org/ns#"
   xmlns:rdf="http://www.w3.org/1999/02/22-rdf-syntax-ns#"
   xmlns:svg="http://www.w3.org/2000/svg"
   xmlns="http://www.w3.org/2000/svg"
   xmlns:sodipodi="http://sodipodi.sourceforge.net/DTD/sodipodi-0.dtd"
   xmlns:inkscape="http://www.inkscape.org/namespaces/inkscape"
   height="44px"
   width="30px"
   version="1.1"
   viewBox="0 0 29.988946 43.988056"
   id="svg16"
   sodipodi:docname="new_Gym.svg"
   inkscape:version="0.92.5 (2060ec1f9f, 2020-04-08)">
  <metadata
     id="metadata20">
    <rdf:RDF>
      <cc:Work
         rdf:about="">
        <dc:format>image/svg+xml</dc:format>
        <dc:type
           rdf:resource="http://purl.org/dc/dcmitype/StillImage" />
        <dc:title />
      </cc:Work>
    </rdf:RDF>
  </metadata>
  <sodipodi:namedview
     pagecolor="#ffffff"
     bordercolor="#666666"
     borderopacity="1"
     objecttolerance="10"
     gridtolerance="10"
     guidetolerance="10"
     inkscape:pageopacity="0"
     inkscape:pageshadow="2"
     inkscape:window-width="1680"
     inkscape:window-height="974"
     id="namedview18"
     showgrid="false"
     inkscape:zoom="4.0678609"
     inkscape:cx="0.9366743"
     inkscape:cy="83.987249"
     inkscape:window-x="0"
     inkscape:window-y="0"
     inkscape:window-maximized="1"
     inkscape:current-layer="svg2" />
  <defs
     id="defs7">
    <radialGradient
       id="a"
       gradientUnits="userSpaceOnUse"
       cy="127.6"
       cx="-42.75"
       gradientTransform="matrix(4.2749643,0,0,0.98162997,197.99835,-82.088795)"
       r="2.3840001">
      <stop
         stop-color="#010101"
         offset="0"
         id="stop2" />
      <stop
         stop-opacity="0"
         stop-color="#090909"
         offset="1"
         id="stop4" />
    </radialGradient>
  </defs>
  <g
     id="g26"
     transform="translate(-2.0760358e-7,-1.6181156)">
    <path
       style="fill:#5846c5;stroke-width:4.27539158"
       inkscape:connector-curvature="0"
       id="path9"
       d="m 14.994475,1.7046139 c -8.2386814,0 -14.91684341,6.6781619 -14.91684341,14.9168421 0.008545,2.561815 0.67294669,5.079165 1.93504231,7.306643 L 15.595595,42.53888 27.955752,23.983679 c 1.277915,-2.243725 1.951716,-4.779887 1.955563,-7.362223 C 29.911273,8.3827758 23.233154,1.7046139 14.994475,1.7046139 Z" />
    <circle
       style="fill:#f9f3f3;stroke-width:4.27539158"
       id="circle11"
       r="9.4272394"
       cx="14.994473"
       cy="16.668474" />
    <ellipse
       style="opacity:0.4;fill:url(#a);stroke-width:4.27496433"
       id="ellipse13"
       cx="14.994473"
       cy="43.18018"
       ry="2.3394945"
       rx="10.192533" />
    <rect
       style="fill:none;stroke-width:4.27539158"
       x="8.2585926"
       y="9.8278542"
       width="13.471761"
       height="13.36915"
       ry="0"
       rx="0"
       id="replace" />
    <svg
       version="1.1"
       x="8.5"
       y="10"
       viewBox="0 0 100 125"
       enable-background="new 0 0 100 100"
       xml:space="preserve"
       id="svg2"
       inkscape:version="0.92.5 (2060ec1f9f, 2020-04-08)"
       sodipodi:docname="Gyms.svg"><metadata
         id="metadata28"><rdf:RDF><cc:Work
             rdf:about=""><dc:format>image/svg+xml</dc:format><dc:type
               rdf:resource="http://purl.org/dc/dcmitype/StillImage" /></cc:Work></rdf:RDF></metadata><defs
         id="defs26" /><sodipodi:namedview
         pagecolor="#ffffff"
         bordercolor="#666666"
         borderopacity="1"
         objecttolerance="10"
         gridtolerance="10"
         guidetolerance="10"
         inkscape:pageopacity="0"
         inkscape:pageshadow="2"
         inkscape:window-width="1680"
         inkscape:window-height="974"
         id="namedview24"
         showgrid="false"
         inkscape:zoom="1.888"
         inkscape:cx="-23.622881"
         inkscape:cy="62.5"
         inkscape:window-x="0"
         inkscape:window-y="0"
         inkscape:window-maximized="1"
         inkscape:current-layer="svg2" /><g
         id="g4"
         transform="matrix(0.45399122,0,0,0.45399122,-1.043338,-9.4119615)"><rect
           x="36.213001"
           y="43.757"
           width="27.573999"
           height="12.485"
           id="rect6" /><path
           d="m 98.611,43.757 h -2.437 v 12.485 h 2.437 c 0.764,0 1.389,-0.626 1.389,-1.39 v -9.707 c 0,-0.763 -0.625,-1.388 -1.389,-1.388 z"
           id="path8"
           inkscape:connector-curvature="0" /><path
           d="M 1.389,43.757 C 0.625,43.757 0,44.382 0,45.146 v 9.707 c 0,0.764 0.625,1.39 1.389,1.39 H 3.826 V 43.757 Z"
           id="path10"
           inkscape:connector-curvature="0" /><path
           d="m 32.383,24.484 h -9.754 c -0.765,0 -1.389,0.625 -1.389,1.389 v 17.883 12.485 17.883 c 0,0.764 0.624,1.389 1.389,1.389 h 9.754 c 0.764,0 1.389,-0.625 1.389,-1.389 V 56.242 43.757 25.874 c -10e-4,-0.764 -0.626,-1.39 -1.389,-1.39 z"
           id="path12"
           inkscape:connector-curvature="0" /><path
           d="M 17.41,30.563 H 7.655 c -0.764,0 -1.389,0.625 -1.389,1.389 v 11.804 12.485 11.803 c 0,0.764 0.625,1.389 1.389,1.389 h 9.755 c 0.762,0 1.389,-0.625 1.389,-1.389 V 56.242 43.757 31.953 c 0,-0.764 -0.627,-1.39 -1.389,-1.39 z"
           id="path14"
           inkscape:connector-curvature="0" /><path
           d="m 77.371,24.484 h -9.754 c -0.764,0 -1.389,0.625 -1.389,1.389 v 17.883 12.485 17.885 c 0,0.764 0.625,1.389 1.389,1.389 h 9.754 c 0.764,0 1.389,-0.625 1.389,-1.389 V 56.242 43.757 25.874 c 0,-0.764 -0.625,-1.39 -1.389,-1.39 z"
           id="path16"
           inkscape:connector-curvature="0" /><path
           d="M 92.345,30.565 H 82.59 c -0.764,0 -1.389,0.625 -1.389,1.389 v 11.803 12.485 11.804 c 0,0.764 0.625,1.389 1.389,1.389 h 9.755 c 0.764,0 1.389,-0.625 1.389,-1.389 V 56.242 43.757 31.954 C 93.733,31.19 93.108,30.565 92.345,30.565 Z"
           id="path18"
           inkscape:connector-curvature="0" /></g></svg>  </g>
</svg>
