<?xml version="1.0" encoding="UTF-8" standalone="no"?>
<svg
   xmlns:dc="http://purl.org/dc/elements/1.1/"
   xmlns:cc="http://creativecommons.org/ns#"
   xmlns:rdf="http://www.w3.org/1999/02/22-rdf-syntax-ns#"
   xmlns:svg="http://www.w3.org/2000/svg"
   xmlns="http://www.w3.org/2000/svg"
   xmlns:sodipodi="http://sodipodi.sourceforge.net/DTD/sodipodi-0.dtd"
   xmlns:inkscape="http://www.inkscape.org/namespaces/inkscape"
   height="40"
   width="26"
   version="1.1"
   id="svg17"
   sodipodi:docname="new_Gym.svg"
   inkscape:version="0.92.5 (2060ec1f9f, 2020-04-08)">
  <metadata
     id="metadata23" />
  <defs
     id="defs21" />
  <sodipodi:namedview
     pagecolor="#ffffff"
     bordercolor="#666666"
     borderopacity="1"
     objecttolerance="10"
     gridtolerance="10"
     guidetolerance="10"
     inkscape:pageopacity="0"
     inkscape:pageshadow="2"
     inkscape:window-width="640"
     inkscape:window-height="480"
     id="namedview19"
     showgrid="false"
     inkscape:zoom="5.9"
     inkscape:cx="13"
     inkscape:cy="20"
     inkscape:window-x="0"
     inkscape:window-y="0"
     inkscape:window-maximized="0"
     inkscape:current-layer="svg2" />
  <path
     d="m13.04 0.6387c-6.783 0-12.43 5.649-12.43 11.78 0 2.757 1.613 6.26 2.779 8.68l9.611 17.73 9.56-17.73c1.166-2.42 2.824-5.747 2.824-8.68 0-6.128-5.555-11.78-12.34-11.78zm0 1.461c5.895 0.0373 10.68 4.656 10.68 10.33 0 5.678-4.781 10.23-10.68 10.27-5.895-0.0373-10.67-4.585-10.67-10.27 0-5.678 4.779-10.3 10.67-10.33z"
     stroke="#d45500"
     stroke-linecap="round"
     fill="#f60"
     id="path2" />
  <ellipse
     style="fill:#ffffff;stroke:#ffffff;stroke-width:1.00274992"
     id="path13"
     cx="13.003574"
     cy="12.374899"
     rx="10.005984"
     ry="9.6464386" />
  <svg
     version="1.1"
     x="6.543"
     y="6.02"
     viewBox="0 0 100 125"
     enable-background="new 0 0 100 100"
     xml:space="preserve"
     id="svg2"
     inkscape:version="0.92.5 (2060ec1f9f, 2020-04-08)"
     sodipodi:docname="Gyms.svg"><metadata
       id="metadata28"><rdf:RDF><cc:Work
           rdf:about=""><dc:format>image/svg+xml</dc:format><dc:type
             rdf:resource="http://purl.org/dc/dcmitype/StillImage" /></cc:Work></rdf:RDF></metadata><defs
       id="defs26" /><sodipodi:namedview
       pagecolor="#ffffff"
       bordercolor="#666666"
       borderopacity="1"
       objecttolerance="10"
       gridtolerance="10"
       guidetolerance="10"
       inkscape:pageopacity="0"
       inkscape:pageshadow="2"
       inkscape:window-width="1680"
       inkscape:window-height="974"
       id="namedview24"
       showgrid="false"
       inkscape:zoom="1.888"
       inkscape:cx="-23.622881"
       inkscape:cy="62.5"
       inkscape:window-x="0"
       inkscape:window-y="0"
       inkscape:window-maximized="1"
       inkscape:current-layer="svg2" /><g
       id="g4"
       transform="matrix(0.45070074,0,0,0.45070074,3.9113428,-14.360605)"><rect
         x="36.213001"
         y="43.757"
         width="27.573999"
         height="12.485"
         id="rect6" /><path
         d="m 98.611,43.757 h -2.437 v 12.485 h 2.437 c 0.764,0 1.389,-0.626 1.389,-1.39 v -9.707 c 0,-0.763 -0.625,-1.388 -1.389,-1.388 z"
         id="path8"
         inkscape:connector-curvature="0" /><path
         d="M 1.389,43.757 C 0.625,43.757 0,44.382 0,45.146 v 9.707 c 0,0.764 0.625,1.39 1.389,1.39 H 3.826 V 43.757 Z"
         id="path10"
         inkscape:connector-curvature="0" /><path
         d="m 32.383,24.484 h -9.754 c -0.765,0 -1.389,0.625 -1.389,1.389 v 17.883 12.485 17.883 c 0,0.764 0.624,1.389 1.389,1.389 h 9.754 c 0.764,0 1.389,-0.625 1.389,-1.389 V 56.242 43.757 25.874 c -10e-4,-0.764 -0.626,-1.39 -1.389,-1.39 z"
         id="path12"
         inkscape:connector-curvature="0" /><path
         d="M 17.41,30.563 H 7.655 c -0.764,0 -1.389,0.625 -1.389,1.389 v 11.804 12.485 11.803 c 0,0.764 0.625,1.389 1.389,1.389 h 9.755 c 0.762,0 1.389,-0.625 1.389,-1.389 V 56.242 43.757 31.953 c 0,-0.764 -0.627,-1.39 -1.389,-1.39 z"
         id="path14"
         inkscape:connector-curvature="0" /><path
         d="m 77.371,24.484 h -9.754 c -0.764,0 -1.389,0.625 -1.389,1.389 v 17.883 12.485 17.885 c 0,0.764 0.625,1.389 1.389,1.389 h 9.754 c 0.764,0 1.389,-0.625 1.389,-1.389 V 56.242 43.757 25.874 c 0,-0.764 -0.625,-1.39 -1.389,-1.39 z"
         id="path16"
         inkscape:connector-curvature="0" /><path
         d="M 92.345,30.565 H 82.59 c -0.764,0 -1.389,0.625 -1.389,1.389 v 11.803 12.485 11.804 c 0,0.764 0.625,1.389 1.389,1.389 h 9.755 c 0.764,0 1.389,-0.625 1.389,-1.389 V 56.242 43.757 31.954 C 93.733,31.19 93.108,30.565 92.345,30.565 Z"
         id="path18"
         inkscape:connector-curvature="0" /></g></svg></svg>
