<?xml version="1.0" encoding="UTF-8"?>
<svg xmlns="http://www.w3.org/2000/svg" xmlns:xlink="http://www.w3.org/1999/xlink" width="30px" height="46px" viewBox="0 0 30 46" version="1.1">
<defs>
<clipPath id="clip1">
  <path d="M 7.550781 7 L 22.445312 7 L 22.445312 21.769531 L 7.550781 21.769531 Z M 7.550781 7 "/>
</clipPath>
</defs>
<g id="surface1">
<path style="fill-rule:nonzero;fill:rgb(100%,40.000001%,0%);fill-opacity:1;stroke-width:1;stroke-linecap:round;stroke-linejoin:miter;stroke:rgb(83.137256%,33.333334%,0%);stroke-opacity:1;stroke-miterlimit:4;" d="M 13.040625 0.638587 C 6.25625 0.638587 0.609375 6.287364 0.609375 12.418478 C 0.609375 15.17663 2.224219 18.678668 3.388802 21.097147 L 13 38.828125 L 22.560417 21.097147 C 23.725 18.678668 25.383854 15.353261 25.383854 12.418478 C 25.383854 6.290761 19.828385 0.638587 13.04401 0.638587 Z M 13.040625 2.099185 C 18.934635 2.136549 23.721615 6.756114 23.721615 12.428668 C 23.721615 18.108016 18.938021 22.659647 13.040625 22.700408 C 7.146615 22.663043 2.369792 18.11481 2.369792 12.428668 C 2.369792 6.752717 7.15 2.129755 13.040625 2.099185 Z M 13.040625 2.099185 " transform="matrix(1.153846,0,0,1.15,0,0)"/>
<path style="fill-rule:nonzero;fill:rgb(100%,100%,100%);fill-opacity:1;stroke-width:1.00275;stroke-linecap:butt;stroke-linejoin:miter;stroke:rgb(100%,100%,100%);stroke-opacity:1;stroke-miterlimit:4;" d="M 23.010677 12.374321 C 23.010677 17.703804 18.528385 22.02106 13.003385 22.02106 C 7.478385 22.02106 2.996094 17.703804 2.996094 12.374321 C 2.996094 7.048234 7.478385 2.727582 13.003385 2.727582 C 18.528385 2.727582 23.010677 7.048234 23.010677 12.374321 Z M 23.010677 12.374321 " transform="matrix(1.153846,0,0,1.15,0,0)"/>
<path style=" stroke:none;fill-rule:nonzero;fill:rgb(0%,0%,0%);fill-opacity:1;" d="M 13.835938 15.476562 L 13.835938 19.769531 L 16.160156 19.769531 L 16.160156 15.476562 L 20.578125 15.476562 L 20.578125 13.214844 L 16.160156 13.214844 L 16.160156 8.921875 L 13.835938 8.921875 L 13.835938 13.214844 L 9.417969 13.214844 L 9.417969 15.476562 Z M 13.835938 15.476562 "/>
<g clip-path="url(#clip1)" clip-rule="nonzero">
<path style=" stroke:none;fill-rule:nonzero;fill:rgb(0%,0%,0%);fill-opacity:1;" d="M 14.996094 21.585938 C 10.890625 21.585938 7.550781 18.339844 7.550781 14.347656 C 7.550781 10.351562 10.890625 7.105469 14.996094 7.105469 C 19.105469 7.105469 22.445312 10.351562 22.445312 14.347656 C 22.445312 18.339844 19.105469 21.585938 14.996094 21.585938 Z M 14.996094 7.886719 C 11.335938 7.886719 8.355469 10.785156 8.355469 14.347656 C 8.355469 17.910156 11.335938 20.804688 14.996094 20.804688 C 18.660156 20.804688 21.640625 17.910156 21.640625 14.347656 C 21.640625 10.785156 18.660156 7.886719 14.996094 7.886719 Z M 14.996094 7.886719 "/>
</g>
</g>
</svg>
