<?xml version="1.0" encoding="UTF-8"?>
<svg xmlns="http://www.w3.org/2000/svg" xmlns:xlink="http://www.w3.org/1999/xlink" width="30px" height="46px" viewBox="0 0 30 46" version="1.1">
<defs>
<clipPath id="clip1">
  <path d="M 7.550781 8 L 22.445312 8 L 22.445312 21 L 7.550781 21 Z M 7.550781 8 "/>
</clipPath>
</defs>
<g id="surface1">
<path style="fill-rule:nonzero;fill:rgb(100%,40.000001%,0%);fill-opacity:1;stroke-width:1;stroke-linecap:round;stroke-linejoin:miter;stroke:rgb(83.137256%,33.333334%,0%);stroke-opacity:1;stroke-miterlimit:4;" d="M 13.040625 0.638587 C 6.25625 0.638587 0.609375 6.287364 0.609375 12.418478 C 0.609375 15.17663 2.224219 18.678668 3.388802 21.097147 L 13 38.828125 L 22.560417 21.097147 C 23.725 18.678668 25.383854 15.353261 25.383854 12.418478 C 25.383854 6.290761 19.828385 0.638587 13.04401 0.638587 Z M 13.040625 2.099185 C 18.934635 2.136549 23.721615 6.756114 23.721615 12.428668 C 23.721615 18.108016 18.938021 22.659647 13.040625 22.700408 C 7.146615 22.663043 2.369792 18.11481 2.369792 12.428668 C 2.369792 6.752717 7.15 2.129755 13.040625 2.099185 Z M 13.040625 2.099185 " transform="matrix(1.153846,0,0,1.15,0,0)"/>
<path style="fill-rule:nonzero;fill:rgb(100%,100%,100%);fill-opacity:1;stroke-width:1.00275;stroke-linecap:butt;stroke-linejoin:miter;stroke:rgb(100%,100%,100%);stroke-opacity:1;stroke-miterlimit:4;" d="M 23.010677 12.374321 C 23.010677 17.703804 18.528385 22.02106 13.003385 22.02106 C 7.478385 22.02106 2.996094 17.703804 2.996094 12.374321 C 2.996094 7.048234 7.478385 2.727582 13.003385 2.727582 C 18.528385 2.727582 23.010677 7.048234 23.010677 12.374321 Z M 23.010677 12.374321 " transform="matrix(1.153846,0,0,1.15,0,0)"/>
<path style=" stroke:none;fill-rule:nonzero;fill:rgb(0%,0%,0%);fill-opacity:1;" d="M 10.945312 9.597656 C 10.945312 10.128906 10.539062 10.5625 10.035156 10.5625 C 9.535156 10.5625 9.128906 10.128906 9.128906 9.597656 C 9.128906 9.0625 9.535156 8.632812 10.035156 8.632812 C 10.539062 8.632812 10.945312 9.0625 10.945312 9.597656 Z M 10.945312 9.597656 "/>
<path style=" stroke:none;fill-rule:nonzero;fill:rgb(0%,0%,0%);fill-opacity:1;" d="M 9.144531 11.289062 C 9.144531 11.492188 9.300781 11.65625 9.488281 11.65625 L 11.621094 11.65625 C 11.628906 11.65625 11.632812 11.65625 11.640625 11.65625 C 11.824219 11.644531 11.964844 11.488281 11.964844 11.289062 L 11.964844 11.234375 C 11.964844 11.210938 11.957031 11.1875 11.949219 11.167969 L 11.964844 11.167969 L 11.964844 9.300781 C 11.964844 9.097656 11.8125 8.933594 11.621094 8.933594 C 11.433594 8.933594 11.277344 9.097656 11.277344 9.300781 L 11.277344 10.925781 L 9.488281 10.925781 C 9.300781 10.925781 9.144531 11.089844 9.144531 11.289062 Z M 9.144531 11.289062 "/>
<path style=" stroke:none;fill-rule:nonzero;fill:rgb(0%,0%,0%);fill-opacity:1;" d="M 20.566406 11.65625 L 20.566406 10.210938 C 20.566406 9.664062 20.140625 9.460938 19.824219 9.414062 L 14.277344 8.605469 C 14.242188 8.601562 14.207031 8.601562 14.171875 8.605469 C 14.121094 8.59375 14.09375 8.585938 14.09375 8.585938 C 13.144531 8.402344 12.445312 8.542969 12.445312 9.355469 C 12.445312 10.242188 12.449219 11.65625 12.449219 11.65625 Z M 20.566406 11.65625 "/>
<path style=" stroke:none;fill-rule:nonzero;fill:rgb(0%,0%,0%);fill-opacity:1;" d="M 10.945312 15.144531 C 10.945312 15.675781 10.539062 16.109375 10.035156 16.109375 C 9.535156 16.109375 9.128906 15.675781 9.128906 15.144531 C 9.128906 14.609375 9.535156 14.179688 10.035156 14.179688 C 10.539062 14.179688 10.945312 14.609375 10.945312 15.144531 Z M 10.945312 15.144531 "/>
<path style=" stroke:none;fill-rule:nonzero;fill:rgb(0%,0%,0%);fill-opacity:1;" d="M 11.621094 14.480469 C 11.433594 14.480469 11.277344 14.644531 11.277344 14.847656 L 11.277344 16.472656 L 9.488281 16.472656 C 9.300781 16.472656 9.144531 16.636719 9.144531 16.835938 C 9.144531 17.039062 9.300781 17.203125 9.488281 17.203125 L 11.621094 17.203125 C 11.628906 17.203125 11.632812 17.203125 11.640625 17.203125 C 11.824219 17.195312 11.964844 17.035156 11.964844 16.835938 L 11.964844 16.78125 C 11.964844 16.757812 11.957031 16.734375 11.949219 16.714844 L 11.964844 16.714844 L 11.964844 14.847656 C 11.964844 14.644531 11.8125 14.480469 11.621094 14.480469 Z M 11.621094 14.480469 "/>
<path style=" stroke:none;fill-rule:nonzero;fill:rgb(0%,0%,0%);fill-opacity:1;" d="M 19.824219 14.960938 L 14.277344 14.152344 C 14.242188 14.148438 14.207031 14.148438 14.171875 14.152344 C 14.121094 14.140625 14.09375 14.132812 14.09375 14.132812 C 13.144531 13.949219 12.445312 14.089844 12.445312 14.90625 C 12.445312 15.789062 12.449219 17.203125 12.449219 17.203125 L 20.566406 17.203125 L 20.566406 15.757812 C 20.566406 15.210938 20.140625 15.007812 19.824219 14.960938 Z M 19.824219 14.960938 "/>
<g clip-path="url(#clip1)" clip-rule="nonzero">
<path style=" stroke:none;fill-rule:nonzero;fill:rgb(0%,0%,0%);fill-opacity:1;" d="M 21.707031 10.101562 C 21.453125 10.101562 21.25 10.316406 21.25 10.585938 L 21.25 12.132812 L 8.460938 12.132812 L 8.460938 9.199219 C 8.460938 8.933594 8.257812 8.714844 8.003906 8.714844 C 7.753906 8.714844 7.550781 8.933594 7.550781 9.199219 L 7.550781 20.175781 L 8.460938 20.175781 L 8.460938 18.652344 L 21.25 18.652344 L 21.25 20.175781 L 22.160156 20.175781 L 22.160156 10.585938 C 22.160156 10.316406 21.957031 10.101562 21.707031 10.101562 Z M 21.25 17.683594 L 8.460938 17.683594 L 8.460938 13.101562 L 21.25 13.101562 Z M 21.25 17.683594 "/>
</g>
</g>
</svg>
