<?xml version="1.0" encoding="UTF-8"?>
<svg xmlns="http://www.w3.org/2000/svg" xmlns:xlink="http://www.w3.org/1999/xlink" width="30px" height="46px" viewBox="0 0 30 46" version="1.1">
<defs>
<clipPath id="clip1">
  <path d="M 8 6.921875 L 22 6.921875 L 22 21.769531 L 8 21.769531 Z M 8 6.921875 "/>
</clipPath>
</defs>
<g id="surface1">
<path style="fill-rule:nonzero;fill:rgb(100%,40.000001%,0%);fill-opacity:1;stroke-width:1;stroke-linecap:round;stroke-linejoin:miter;stroke:rgb(83.137256%,33.333334%,0%);stroke-opacity:1;stroke-miterlimit:4;" d="M 13.040625 0.638587 C 6.25625 0.638587 0.609375 6.287364 0.609375 12.418478 C 0.609375 15.17663 2.224219 18.678668 3.388802 21.097147 L 13 38.828125 L 22.560417 21.097147 C 23.725 18.678668 25.383854 15.353261 25.383854 12.418478 C 25.383854 6.290761 19.828385 0.638587 13.04401 0.638587 Z M 13.040625 2.099185 C 18.934635 2.136549 23.721615 6.756114 23.721615 12.428668 C 23.721615 18.108016 18.938021 22.659647 13.040625 22.700408 C 7.146615 22.663043 2.369792 18.11481 2.369792 12.428668 C 2.369792 6.752717 7.15 2.129755 13.040625 2.099185 Z M 13.040625 2.099185 " transform="matrix(1.153846,0,0,1.15,0,0)"/>
<path style="fill-rule:nonzero;fill:rgb(100%,100%,100%);fill-opacity:1;stroke-width:1.00275;stroke-linecap:butt;stroke-linejoin:miter;stroke:rgb(100%,100%,100%);stroke-opacity:1;stroke-miterlimit:4;" d="M 23.010677 12.374321 C 23.010677 17.703804 18.528385 22.02106 13.003385 22.02106 C 7.478385 22.02106 2.996094 17.703804 2.996094 12.374321 C 2.996094 7.048234 7.478385 2.727582 13.003385 2.727582 C 18.528385 2.727582 23.010677 7.048234 23.010677 12.374321 Z M 23.010677 12.374321 " transform="matrix(1.153846,0,0,1.15,0,0)"/>
<g clip-path="url(#clip1)" clip-rule="nonzero">
<path style=" stroke:none;fill-rule:nonzero;fill:rgb(0%,0%,0%);fill-opacity:1;" d="M 21.011719 9.480469 L 19.136719 9.480469 C 19.148438 9.476562 19.160156 9.476562 19.171875 9.46875 C 19.207031 9.445312 19.222656 9.402344 19.214844 9.359375 L 19.078125 8.566406 L 19.660156 8.003906 C 19.6875 7.976562 19.699219 7.929688 19.6875 7.890625 C 19.675781 7.851562 19.640625 7.824219 19.597656 7.816406 L 18.796875 7.703125 L 18.4375 6.976562 C 18.417969 6.941406 18.378906 6.921875 18.339844 6.921875 C 18.300781 6.921875 18.257812 6.941406 18.242188 6.976562 L 17.882812 7.703125 L 17.078125 7.816406 C 17.039062 7.824219 17.003906 7.851562 16.992188 7.890625 C 16.976562 7.929688 16.988281 7.976562 17.019531 8.003906 L 17.597656 8.566406 L 17.460938 9.359375 C 17.457031 9.402344 17.472656 9.445312 17.503906 9.46875 C 17.515625 9.476562 17.527344 9.476562 17.539062 9.480469 L 15.796875 9.480469 C 15.808594 9.476562 15.820312 9.476562 15.832031 9.46875 C 15.863281 9.445312 15.882812 9.402344 15.875 9.359375 L 15.738281 8.566406 L 16.320312 8.003906 C 16.347656 7.976562 16.359375 7.929688 16.347656 7.890625 C 16.332031 7.851562 16.300781 7.824219 16.257812 7.816406 L 15.453125 7.703125 L 15.097656 6.976562 C 15.078125 6.941406 15.039062 6.921875 14.996094 6.921875 C 14.957031 6.921875 14.917969 6.941406 14.898438 6.976562 L 14.539062 7.703125 L 13.738281 7.816406 C 13.695312 7.824219 13.664062 7.851562 13.648438 7.890625 C 13.636719 7.929688 13.648438 7.976562 13.675781 8.003906 L 14.257812 8.566406 L 14.121094 9.359375 C 14.113281 9.402344 14.132812 9.445312 14.164062 9.46875 C 14.175781 9.476562 14.1875 9.476562 14.199219 9.480469 L 12.453125 9.480469 C 12.464844 9.476562 12.480469 9.476562 12.488281 9.46875 C 12.523438 9.445312 12.539062 9.402344 12.53125 9.359375 L 12.394531 8.566406 L 12.976562 8.003906 C 13.007812 7.976562 13.015625 7.929688 13.003906 7.890625 C 12.992188 7.851562 12.957031 7.824219 12.917969 7.816406 L 12.113281 7.703125 L 11.753906 6.976562 C 11.734375 6.941406 11.695312 6.921875 11.65625 6.921875 C 11.617188 6.921875 11.578125 6.941406 11.558594 6.976562 L 11.199219 7.703125 L 10.398438 7.816406 C 10.355469 7.824219 10.320312 7.851562 10.308594 7.890625 C 10.296875 7.929688 10.304688 7.976562 10.335938 8.003906 L 10.917969 8.566406 L 10.78125 9.359375 C 10.773438 9.402344 10.789062 9.445312 10.824219 9.46875 C 10.832031 9.476562 10.847656 9.476562 10.859375 9.480469 L 8.984375 9.480469 C 8.523438 9.480469 8.148438 9.851562 8.148438 10.308594 L 8.148438 21.769531 L 21.847656 21.769531 L 21.847656 10.308594 C 21.847656 9.851562 21.472656 9.480469 21.011719 9.480469 Z M 17.578125 8.082031 L 17.929688 8.03125 C 18.039062 8.015625 18.132812 7.945312 18.183594 7.847656 L 18.339844 7.53125 L 18.496094 7.847656 C 18.546875 7.945312 18.640625 8.015625 18.746094 8.03125 L 19.101562 8.082031 L 18.84375 8.328125 C 18.765625 8.40625 18.730469 8.515625 18.75 8.621094 L 18.808594 8.972656 L 18.492188 8.804688 C 18.445312 8.78125 18.390625 8.769531 18.339844 8.769531 C 18.285156 8.769531 18.230469 8.78125 18.183594 8.804688 L 17.867188 8.972656 L 17.929688 8.621094 C 17.945312 8.515625 17.910156 8.40625 17.832031 8.328125 Z M 17.621094 9.476562 L 18.339844 9.101562 L 19.054688 9.476562 C 19.058594 9.476562 19.066406 9.476562 19.066406 9.480469 L 17.609375 9.480469 C 17.613281 9.476562 17.617188 9.476562 17.621094 9.476562 Z M 14.234375 8.082031 L 14.589844 8.03125 C 14.699219 8.015625 14.792969 7.945312 14.839844 7.847656 L 14.996094 7.53125 L 15.15625 7.847656 C 15.203125 7.945312 15.296875 8.015625 15.40625 8.03125 L 15.757812 8.082031 L 15.503906 8.328125 C 15.425781 8.40625 15.390625 8.515625 15.40625 8.621094 L 15.46875 8.972656 L 15.152344 8.804688 C 15.105469 8.78125 15.050781 8.769531 14.996094 8.769531 C 14.945312 8.769531 14.890625 8.78125 14.84375 8.804688 L 14.527344 8.972656 L 14.585938 8.621094 C 14.605469 8.515625 14.570312 8.40625 14.492188 8.328125 Z M 14.28125 9.476562 L 14.996094 9.101562 L 15.714844 9.476562 C 15.71875 9.476562 15.722656 9.476562 15.726562 9.480469 L 14.269531 9.480469 C 14.273438 9.476562 14.277344 9.476562 14.28125 9.476562 Z M 10.894531 8.082031 L 11.25 8.03125 C 11.355469 8.015625 11.449219 7.945312 11.5 7.847656 L 11.65625 7.53125 L 11.8125 7.847656 C 11.863281 7.945312 11.957031 8.015625 12.066406 8.03125 L 12.417969 8.082031 L 12.164062 8.328125 C 12.085938 8.40625 12.046875 8.515625 12.066406 8.621094 L 12.125 8.972656 L 11.8125 8.804688 C 11.765625 8.78125 11.710938 8.769531 11.65625 8.769531 C 11.601562 8.769531 11.550781 8.78125 11.5 8.804688 L 11.1875 8.972656 L 11.246094 8.621094 C 11.265625 8.515625 11.230469 8.40625 11.148438 8.328125 Z M 10.9375 9.476562 L 11.65625 9.101562 L 12.375 9.476562 C 12.378906 9.476562 12.382812 9.476562 12.386719 9.480469 L 10.925781 9.480469 C 10.929688 9.476562 10.933594 9.476562 10.9375 9.476562 Z M 16.148438 21.4375 L 13.8125 21.4375 L 13.8125 17.738281 L 16.148438 17.738281 Z M 21.511719 21.4375 L 16.484375 21.4375 L 16.484375 17.449219 L 13.476562 17.449219 L 13.476562 21.4375 L 8.484375 21.4375 L 8.484375 10.308594 C 8.484375 10.035156 8.707031 9.8125 8.984375 9.8125 L 21.011719 9.8125 C 21.289062 9.8125 21.511719 10.035156 21.511719 10.308594 Z M 21.511719 21.4375 "/>
</g>
<path style=" stroke:none;fill-rule:nonzero;fill:rgb(0%,0%,0%);fill-opacity:1;" d="M 13.476562 16.453125 L 16.484375 16.453125 L 16.484375 14.128906 L 13.476562 14.128906 Z M 13.8125 14.460938 L 16.148438 14.460938 L 16.148438 16.121094 L 13.8125 16.121094 Z M 13.8125 14.460938 "/>
<path style=" stroke:none;fill-rule:nonzero;fill:rgb(0%,0%,0%);fill-opacity:1;" d="M 17.488281 16.453125 L 20.492188 16.453125 L 20.492188 14.128906 L 17.488281 14.128906 Z M 17.820312 14.460938 L 20.160156 14.460938 L 20.160156 16.121094 L 17.820312 16.121094 Z M 17.820312 14.460938 "/>
<path style=" stroke:none;fill-rule:nonzero;fill:rgb(0%,0%,0%);fill-opacity:1;" d="M 9.484375 16.453125 L 12.492188 16.453125 L 12.492188 14.128906 L 9.484375 14.128906 Z M 9.820312 14.460938 L 12.15625 14.460938 L 12.15625 16.121094 L 9.820312 16.121094 Z M 9.820312 14.460938 "/>
<path style=" stroke:none;fill-rule:nonzero;fill:rgb(0%,0%,0%);fill-opacity:1;" d="M 13.476562 13.132812 L 16.484375 13.132812 L 16.484375 10.808594 L 13.476562 10.808594 Z M 13.8125 11.140625 L 16.148438 11.140625 L 16.148438 12.800781 L 13.8125 12.800781 Z M 13.8125 11.140625 "/>
<path style=" stroke:none;fill-rule:nonzero;fill:rgb(0%,0%,0%);fill-opacity:1;" d="M 17.488281 13.132812 L 20.492188 13.132812 L 20.492188 10.808594 L 17.488281 10.808594 Z M 17.820312 11.140625 L 20.160156 11.140625 L 20.160156 12.800781 L 17.820312 12.800781 Z M 17.820312 11.140625 "/>
<path style=" stroke:none;fill-rule:nonzero;fill:rgb(0%,0%,0%);fill-opacity:1;" d="M 9.484375 13.132812 L 12.492188 13.132812 L 12.492188 10.808594 L 9.484375 10.808594 Z M 9.820312 11.140625 L 12.15625 11.140625 L 12.15625 12.800781 L 9.820312 12.800781 Z M 9.820312 11.140625 "/>
<path style=" stroke:none;fill-rule:nonzero;fill:rgb(0%,0%,0%);fill-opacity:1;" d="M 17.488281 19.777344 L 20.492188 19.777344 L 20.492188 17.449219 L 17.488281 17.449219 Z M 17.820312 17.785156 L 20.160156 17.785156 L 20.160156 19.445312 L 17.820312 19.445312 Z M 17.820312 17.785156 "/>
<path style=" stroke:none;fill-rule:nonzero;fill:rgb(0%,0%,0%);fill-opacity:1;" d="M 9.484375 19.777344 L 12.492188 19.777344 L 12.492188 17.449219 L 9.484375 17.449219 Z M 9.820312 17.785156 L 12.15625 17.785156 L 12.15625 19.445312 L 9.820312 19.445312 Z M 9.820312 17.785156 "/>
</g>
</svg>
