<?xml version="1.0" encoding="UTF-8" standalone="no"?>
<svg xmlns="http://www.w3.org/2000/svg" height="40" width="26" version="1.1" xmlns:xlink="http://www.w3.org/1999/xlink">
 <path d="m13.04 0.6387c-6.783 0-12.43 5.649-12.43 11.78 0 2.757 1.613 6.26 2.779 8.68l9.611 17.73 9.56-17.73c1.166-2.42 2.824-5.747 2.824-8.68 0-6.128-5.555-11.78-12.34-11.78zm0 1.461c5.895 0.0373 10.68 4.656 10.68 10.33 0 5.678-4.781 10.23-10.68 10.27-5.895-0.0373-10.67-4.585-10.67-10.27 0-5.678 4.779-10.3 10.67-10.33z" stroke="#d45500" stroke-linecap="round" fill="#f60"/>
  <ellipse
     style="fill:#ffffff;stroke:#ffffff;stroke-width:1.00274992"
     id="path13"
     cx="13.003574"
     cy="12.374899"
     rx="10.005984"
     ry="9.6464386" />
<svg
   xmlns:dc="http://purl.org/dc/elements/1.1/"
   xmlns:cc="http://creativecommons.org/ns#"
   xmlns:rdf="http://www.w3.org/1999/02/22-rdf-syntax-ns#"
   xmlns:svg="http://www.w3.org/2000/svg"
   xmlns="http://www.w3.org/2000/svg"
   xmlns:sodipodi="http://sodipodi.sourceforge.net/DTD/sodipodi-0.dtd"
   xmlns:inkscape="http://www.inkscape.org/namespaces/inkscape"
   version="1.1"
   x="6.543"
   y="6.02"
   viewBox="0 0 19.999622 21.748466"
   enable-background="new 0 0 100 100"
   xml:space="preserve"
   id="svg2"
   inkscape:version="0.48.4 r9939"
   width="12.91"
   height="12.91"
   sodipodi:docname="Motel.svg"><metadata
     id="metadata30"><rdf:RDF><cc:Work
         rdf:about=""><dc:format>image/svg+xml</dc:format><dc:type
           rdf:resource="http://purl.org/dc/dcmitype/StillImage" /><dc:title></dc:title></cc:Work></rdf:RDF></metadata><defs
     id="defs28" /><sodipodi:namedview
     pagecolor="#ffffff"
     bordercolor="#666666"
     borderopacity="1"
     objecttolerance="10"
     gridtolerance="10"
     guidetolerance="10"
     inkscape:pageopacity="0"
     inkscape:pageshadow="2"
     inkscape:window-width="1322"
     inkscape:window-height="812"
     id="namedview26"
     showgrid="false"
     fit-margin-top="0"
     fit-margin-left="0"
     fit-margin-right="0"
     fit-margin-bottom="0"
     inkscape:zoom="14.481547"
     inkscape:cx="16.083247"
     inkscape:cy="8.7474113"
     inkscape:window-x="571"
     inkscape:window-y="110"
     inkscape:window-maximized="0"
     inkscape:current-layer="g8773" /><g
     id="g3217"
     transform="translate(-1252.7282,7562.6801)"><g
       id="g3355"
       transform="translate(0.52596752,-1.51338)"><g
         id="g3394"
         transform="translate(-1.304037,6.1068216)"><g
           id="g3432"
           transform="translate(1.3243604,-7.0685396)"><g
             id="g3490"
             transform="translate(14.50543,16.201175)"><g
               id="g3544"
               transform="translate(1.7832223,7.9070624)"><g
                 id="g3595"
                 transform="translate(9.5264836,-0.46901412)"><g
                   id="g3646"
                   transform="translate(-52.35165,-3.5880634)"><g
                     id="g3767"
                     transform="translate(6.0048559,8.7552768)"><g
                       id="g4075"
                       transform="translate(0.55239017,0.07303033)"><g
                         id="g4264"
                         transform="translate(3.0880737,-2.6377741)"><g
                           id="g4355"
                           transform="translate(8.4601992,5.328404)"><g
                             id="g4421"
                             transform="translate(-6.5255081,7.0858766)"><g
                               id="g4462"
                               transform="translate(25.518018,13.531166)"><g
                                 id="g4500"
                                 transform="translate(80.26127,-61.023322)"><g
                                   id="g5344"
                                   transform="translate(-17.614831,53.929153)"><g
                                   id="g5294"
                                   display="none"
                                   style="display:none"><rect
                                   id="rect5296"
                                   height="196"
                                   width="394.5"
                                   display="inline"
                                   y="-80.754997"
                                   x="-43.5"
                                   style="fill:#000000;display:inline" /></g><g
                                   id="g5316"
                                   display="none"
                                   style="display:none"><g
                                   id="g5318"
                                   display="inline"
                                   style="display:inline"><path
                                   id="path5320"
                                   d="M 1.581,10.718 H 30.418 L 16,1.051 1.581,10.718 z M 17.592,6.594 c 0,0.879 -0.713,1.592 -1.592,1.592 -0.879,0 -1.592,-0.713 -1.592,-1.592 0,-0.879 0.713,-1.592 1.592,-1.592 0.879,0 1.592,0.712 1.592,1.592 z"
                                   inkscape:connector-curvature="0" /><rect
                                   id="rect5322"
                                   height="3.0209999"
                                   width="31"
                                   y="28.030001"
                                   x="0.5" /><rect
                                   id="rect5324"
                                   height="11.875"
                                   width="3.0209999"
                                   y="13.363"
                                   x="3.6670001" /><rect
                                   id="rect5326"
                                   height="11.875"
                                   width="3.0209999"
                                   y="13.363"
                                   x="8.349" /><rect
                                   id="rect5328"
                                   height="11.875"
                                   width="3.0209999"
                                   y="13.363"
                                   x="20.629999" /><rect
                                   id="rect5330"
                                   height="11.875"
                                   width="3.0209999"
                                   y="13.363"
                                   x="25.312" /></g><path
                                   id="path5332"
                                   d="m 19.055,22.809 c -0.386,0.262 -1.035,0.524 -1.857,0.524 -1.01,0 -1.907,-0.386 -2.53,-1.11 -0.474,-0.524 -0.785,-1.246 -0.897,-2.144 h -0.773 v -0.611 h 0.711 c 0,-0.062 0,-0.125 0,-0.187 0,-0.2 0.012,-0.387 0.025,-0.561 h -0.735 v -0.624 h 0.823 c 0.15,-0.872 0.524,-1.595 1.022,-2.106 0.636,-0.66 1.446,-1.035 2.468,-1.035 0.735,0 1.309,0.212 1.658,0.399 l -0.249,0.822 c -0.312,-0.187 -0.835,-0.349 -1.396,-0.349 -0.673,0 -1.221,0.237 -1.645,0.685 -0.374,0.361 -0.623,0.922 -0.748,1.583 h 3.478 v 0.624 h -3.59 c -0.013,0.162 -0.025,0.349 -0.025,0.523 0,0.075 0,0.137 0,0.225 h 3.615 v 0.611 h -3.53 c 0.1,0.723 0.349,1.259 0.685,1.633 0.461,0.486 1.085,0.723 1.757,0.723 0.661,0 1.234,-0.249 1.521,-0.411 l 0.212,0.786 z"
                                   display="inline"
                                   inkscape:connector-curvature="0"
                                   style="display:inline" /></g><g
                                   id="g5453"
                                   transform="translate(-52.625356,-10.750909)"><g
                                   id="g5403"
                                   display="none"
                                   style="display:none"><rect
                                   id="rect5405"
                                   height="196"
                                   width="394.5"
                                   display="inline"
                                   y="-80.754997"
                                   x="-43.5"
                                   style="fill:#000000;display:inline" /></g><g
                                   id="g5425"
                                   display="none"
                                   style="display:none"><g
                                   id="g5427"
                                   display="inline"
                                   style="display:inline"><path
                                   id="path5429"
                                   d="M 1.581,10.718 H 30.418 L 16,1.051 1.581,10.718 z M 17.592,6.594 c 0,0.879 -0.713,1.592 -1.592,1.592 -0.879,0 -1.592,-0.713 -1.592,-1.592 0,-0.879 0.713,-1.592 1.592,-1.592 0.879,0 1.592,0.712 1.592,1.592 z"
                                   inkscape:connector-curvature="0" /><rect
                                   id="rect5431"
                                   height="3.0209999"
                                   width="31"
                                   y="28.030001"
                                   x="0.5" /><rect
                                   id="rect5433"
                                   height="11.875"
                                   width="3.0209999"
                                   y="13.363"
                                   x="3.6670001" /><rect
                                   id="rect5435"
                                   height="11.875"
                                   width="3.0209999"
                                   y="13.363"
                                   x="8.349" /><rect
                                   id="rect5437"
                                   height="11.875"
                                   width="3.0209999"
                                   y="13.363"
                                   x="20.629999" /><rect
                                   id="rect5439"
                                   height="11.875"
                                   width="3.0209999"
                                   y="13.363"
                                   x="25.312" /></g><path
                                   id="path5441"
                                   d="m 19.055,22.809 c -0.386,0.262 -1.035,0.524 -1.857,0.524 -1.01,0 -1.907,-0.386 -2.53,-1.11 -0.474,-0.524 -0.785,-1.246 -0.897,-2.144 h -0.773 v -0.611 h 0.711 c 0,-0.062 0,-0.125 0,-0.187 0,-0.2 0.012,-0.387 0.025,-0.561 h -0.735 v -0.624 h 0.823 c 0.15,-0.872 0.524,-1.595 1.022,-2.106 0.636,-0.66 1.446,-1.035 2.468,-1.035 0.735,0 1.309,0.212 1.658,0.399 l -0.249,0.822 c -0.312,-0.187 -0.835,-0.349 -1.396,-0.349 -0.673,0 -1.221,0.237 -1.645,0.685 -0.374,0.361 -0.623,0.922 -0.748,1.583 h 3.478 v 0.624 h -3.59 c -0.013,0.162 -0.025,0.349 -0.025,0.523 0,0.075 0,0.137 0,0.225 h 3.615 v 0.611 h -3.53 c 0.1,0.723 0.349,1.259 0.685,1.633 0.461,0.486 1.085,0.723 1.757,0.723 0.661,0 1.234,-0.249 1.521,-0.411 l 0.212,0.786 z"
                                   display="inline"
                                   inkscape:connector-curvature="0"
                                   style="display:inline" /></g><g
                                   id="g5911"
                                   transform="translate(34.803917,-34.731522)"><g
                                   id="g5969"
                                   transform="translate(-76.820846,20.463898)"><g
                                   id="g6024"
                                   transform="translate(-1.5269147,1.6004891)"><g
                                   id="g6071"
                                   transform="translate(7.3886843,1.0351706)"><g
                                   id="g6187"
                                   transform="translate(-0.71000052,-4.6322855)"><g
                                   id="g6263"
                                   transform="translate(-0.66737304,-5.3488176)"><g
                                   id="g6319"
                                   transform="translate(0.79720466,3.5647493)"><g
                                   id="g6384"
                                   transform="translate(-9.1472004,2.261335)"><g
                                   id="g6488"
                                   transform="translate(-2.0348122,-3.4042665)"><g
                                   id="g6516"
                                   transform="translate(-0.63832329,-2.3294036)"><g
                                   id="g6769"
                                   transform="translate(1565.7794,-3801.8487)"><g
                                   id="g6910"
                                   transform="translate(-308.09512,-3790.9493)"><g
                                   id="g6983"
                                   transform="translate(-14.231122,-15.611848)"><g
                                   id="g7151"
                                   transform="translate(33.267081,-22.491026)"><g
                                   id="g7382"
                                   transform="translate(-23.229266,23.886871)"><g
                                   id="g7549"
                                   transform="translate(14.444681,15.529545)"><g
                                   id="g7800"
                                   transform="translate(-10.517025,-15.548079)"><g
                                   id="g7999"
                                   transform="matrix(0.53445343,0,0,0.59502607,5.6563057,11.962949)"><g
                                   id="g8217"
                                   transform="matrix(0.65157633,0,0,0.66199506,14.891666,27.68312)"><g
                                   id="g8341"
                                   transform="matrix(0.81955739,0,0,0.8373697,16.904811,-6.2861215)"><g
                                   id="g8463"
                                   transform="matrix(1.0901467,0,0,0.7755316,14.691042,9.5565496)"><g
                                   id="g8628"
                                   transform="matrix(3.2141084,0,0,3.9092417,-42.983003,-211.13796)"><g
                                   id="g8709"
                                   transform="matrix(0.28046364,0,0,0.26137124,8.2602788,58.166419)"><line
                                   id="line8689"
                                   y2="34.698002"
                                   x2="91.972"
                                   y1="34.698002"
                                   x1="86.621002"
                                   style="fill:none" /><g
                                   id="g8773"
                                   transform="matrix(0.86370418,0,0,0.92454556,9.6420157,2.5614409)"><g
                                   id="g8741"
                                   transform="translate(5.986359,0.28575835)"><g
                                   id="g8743"><path
                                   id="path8745"
                                   d="m 77.528,15.492 h -11.3 c 0.07,-0.02 0.146,-0.023 0.213,-0.071 0.2,-0.142 0.303,-0.393 0.259,-0.645 L 65.875,9.962 69.379,6.548 C 69.556,6.375 69.619,6.108 69.544,5.872 69.465,5.636 69.261,5.463 69.009,5.423 L 64.172,4.724 62.008,0.334 C 61.898,0.114 61.658,0 61.418,0 61.183,0 60.939,0.114 60.828,0.334 l -2.163,4.39 -4.837,0.699 c -0.252,0.04 -0.457,0.213 -0.535,0.449 -0.075,0.235 -0.012,0.503 0.165,0.676 l 3.504,3.414 -0.825,4.814 c -0.044,0.252 0.059,0.503 0.259,0.645 0.063,0.048 0.142,0.052 0.213,0.071 H 46.092 c 0.07,-0.02 0.145,-0.023 0.212,-0.071 0.2,-0.142 0.303,-0.393 0.26,-0.645 L 45.738,9.962 49.243,6.548 C 49.42,6.375 49.482,6.108 49.407,5.872 49.329,5.636 49.124,5.463 48.873,5.423 L 44.035,4.724 41.872,0.334 C 41.761,0.114 41.521,0 41.281,0 c -0.236,0 -0.48,0.114 -0.59,0.334 l -2.163,4.39 -4.838,0.699 c -0.252,0.04 -0.456,0.213 -0.535,0.449 -0.074,0.235 -0.012,0.503 0.165,0.676 l 3.505,3.414 -0.826,4.814 c -0.043,0.252 0.06,0.503 0.26,0.645 0.063,0.048 0.142,0.052 0.212,0.071 H 25.954 c 0.071,-0.02 0.146,-0.023 0.212,-0.071 0.201,-0.142 0.303,-0.393 0.26,-0.645 L 25.6,9.962 29.105,6.548 C 29.282,6.375 29.344,6.108 29.27,5.872 29.192,5.636 28.987,5.463 28.735,5.423 L 23.897,4.724 21.735,0.334 C 21.624,0.114 21.384,0 21.145,0 20.909,0 20.665,0.114 20.554,0.334 l -2.163,4.39 -4.838,0.699 c -0.251,0.04 -0.456,0.213 -0.534,0.449 -0.075,0.235 -0.013,0.503 0.165,0.676 l 3.504,3.414 -0.826,4.814 c -0.043,0.252 0.06,0.503 0.26,0.645 0.063,0.048 0.142,0.052 0.213,0.071 H 5.035 C 2.258,15.492 0,17.749 0,20.526 V 90 H 32.117 50.24 82.562 V 20.526 c 0.001,-2.777 -2.257,-5.034 -5.034,-5.034 z m -20.7,-8.468 2.128,-0.311 c 0.653,-0.095 1.22,-0.508 1.515,-1.102 l 0.947,-1.92 0.948,1.92 c 0.295,0.594 0.861,1.007 1.515,1.102 l 2.127,0.311 -1.537,1.498 c -0.477,0.464 -0.692,1.129 -0.582,1.782 l 0.361,2.111 -1.896,-0.999 c -0.291,-0.153 -0.613,-0.228 -0.937,-0.228 -0.322,0 -0.645,0.074 -0.936,0.228 l -1.896,0.999 0.361,-2.111 C 59.056,9.651 58.84,8.986 58.364,8.522 L 56.828,7.024 z m 0.264,8.453 4.326,-2.273 4.326,2.273 c 0.024,0.008 0.048,0.008 0.071,0.016 h -8.794 c 0.024,-0.009 0.047,-0.009 0.071,-0.016 z M 36.691,7.024 38.819,6.713 c 0.652,-0.095 1.219,-0.508 1.514,-1.102 l 0.948,-1.92 0.947,1.92 c 0.295,0.594 0.861,1.007 1.515,1.102 l 2.128,0.311 -1.538,1.498 c -0.476,0.464 -0.692,1.129 -0.582,1.782 l 0.362,2.111 -1.896,-0.999 c -0.291,-0.153 -0.613,-0.228 -0.936,-0.228 -0.323,0 -0.645,0.074 -0.937,0.228 l -1.896,0.999 0.362,-2.111 C 38.92,9.651 38.704,8.986 38.227,8.522 L 36.691,7.024 z m 0.264,8.453 4.326,-2.273 4.326,2.273 c 0.023,0.008 0.047,0.008 0.07,0.016 h -8.794 c 0.024,-0.009 0.049,-0.009 0.072,-0.016 z M 16.554,7.024 18.682,6.713 c 0.653,-0.095 1.22,-0.508 1.515,-1.102 l 0.948,-1.92 0.947,1.92 c 0.295,0.594 0.861,1.007 1.514,1.102 l 2.129,0.311 -1.538,1.498 c -0.477,0.464 -0.692,1.129 -0.583,1.782 l 0.362,2.111 -1.896,-0.999 c -0.291,-0.153 -0.613,-0.228 -0.936,-0.228 -0.323,0 -0.646,0.074 -0.937,0.228 l -1.896,0.999 0.361,-2.111 C 18.782,9.651 18.567,8.986 18.09,8.522 L 16.554,7.024 z m 0.263,8.453 4.327,-2.273 4.326,2.273 c 0.023,0.008 0.047,0.008 0.07,0.016 h -8.794 c 0.025,-0.009 0.048,-0.009 0.071,-0.016 z m 31.41,72.509 H 34.131 V 65.567 h 14.096 v 22.419 z m 32.322,0 H 50.24 V 63.821 H 32.117 V 87.986 H 2.014 v -67.46 c 0,-1.668 1.353,-3.021 3.021,-3.021 h 72.494 c 1.667,0 3.021,1.353 3.021,3.021 v 67.46 z"
                                   inkscape:connector-curvature="0" /><path
                                   id="path8747"
                                   d="M 32.117,57.78 H 50.24 V 43.685 H 32.117 V 57.78 z M 34.131,45.698 H 48.227 V 55.766 H 34.131 V 45.698 z"
                                   inkscape:connector-curvature="0" /><path
                                   id="path8749"
                                   d="M 56.281,57.78 H 74.405 V 43.685 H 56.281 V 57.78 z M 58.295,45.698 H 72.392 V 55.766 H 58.295 V 45.698 z"
                                   inkscape:connector-curvature="0" /><path
                                   id="path8751"
                                   d="M 8.055,57.78 H 26.178 V 43.685 H 8.055 V 57.78 z M 10.068,45.698 H 24.164 V 55.766 H 10.068 V 45.698 z"
                                   inkscape:connector-curvature="0" /><path
                                   id="path8753"
                                   d="M 32.117,37.643 H 50.24 V 23.547 H 32.117 V 37.643 z M 34.131,25.561 H 48.227 V 35.629 H 34.131 V 25.561 z"
                                   inkscape:connector-curvature="0" /><path
                                   id="path8755"
                                   d="M 56.281,37.643 H 74.405 V 23.547 H 56.281 V 37.643 z M 58.295,25.561 H 72.392 V 35.629 H 58.295 V 25.561 z"
                                   inkscape:connector-curvature="0" /><path
                                   id="path8757"
                                   d="M 8.055,37.643 H 26.178 V 23.547 H 8.055 V 37.643 z M 10.068,25.561 H 24.164 V 35.629 H 10.068 V 25.561 z"
                                   inkscape:connector-curvature="0" /><path
                                   id="path8759"
                                   d="M 56.281,77.917 H 74.405 V 63.821 H 56.281 V 77.917 z M 58.295,65.835 H 72.392 V 75.903 H 58.295 V 65.835 z"
                                   inkscape:connector-curvature="0" /><path
                                   id="path8761"
                                   d="M 8.055,77.917 H 26.178 V 63.821 H 8.055 V 77.917 z M 10.068,65.835 H 24.164 V 75.903 H 10.068 V 65.835 z"
                                   inkscape:connector-curvature="0" /></g></g></g></g></g></g></g></g></g></g></g></g></g></g></g></g></g></g></g></g></g></g></g></g></g></g></g></g></g></g></g></g></g></g></g></g></g></g></g></g></g></g></g></svg></svg>
