<?xml version="1.0" encoding="UTF-8"?>
<svg xmlns="http://www.w3.org/2000/svg" xmlns:xlink="http://www.w3.org/1999/xlink" width="30px" height="46px" viewBox="0 0 30 46" version="1.1">
<defs>
<clipPath id="clip1">
  <path d="M 9 13 L 21 13 L 21 21.769531 L 9 21.769531 Z M 9 13 "/>
</clipPath>
<clipPath id="clip2">
  <path d="M 12 6.921875 L 18 6.921875 L 18 10 L 12 10 Z M 12 6.921875 "/>
</clipPath>
</defs>
<g id="surface1">
<path style="fill-rule:nonzero;fill:rgb(100%,40.000001%,0%);fill-opacity:1;stroke-width:1;stroke-linecap:round;stroke-linejoin:miter;stroke:rgb(83.137256%,33.333334%,0%);stroke-opacity:1;stroke-miterlimit:4;" d="M 13.040625 0.638587 C 6.25625 0.638587 0.609375 6.287364 0.609375 12.418478 C 0.609375 15.17663 2.224219 18.678668 3.388802 21.097147 L 13 38.828125 L 22.560417 21.097147 C 23.725 18.678668 25.383854 15.353261 25.383854 12.418478 C 25.383854 6.290761 19.828385 0.638587 13.04401 0.638587 Z M 13.040625 2.099185 C 18.934635 2.136549 23.721615 6.756114 23.721615 12.428668 C 23.721615 18.108016 18.938021 22.659647 13.040625 22.700408 C 7.146615 22.663043 2.369792 18.11481 2.369792 12.428668 C 2.369792 6.752717 7.15 2.129755 13.040625 2.099185 Z M 13.040625 2.099185 " transform="matrix(1.153846,0,0,1.15,0,0)"/>
<path style="fill-rule:nonzero;fill:rgb(100%,100%,100%);fill-opacity:1;stroke-width:1.00275;stroke-linecap:butt;stroke-linejoin:miter;stroke:rgb(100%,100%,100%);stroke-opacity:1;stroke-miterlimit:4;" d="M 23.010677 12.374321 C 23.010677 17.703804 18.528385 22.02106 13.003385 22.02106 C 7.478385 22.02106 2.996094 17.703804 2.996094 12.374321 C 2.996094 7.048234 7.478385 2.727582 13.003385 2.727582 C 18.528385 2.727582 23.010677 7.048234 23.010677 12.374321 Z M 23.010677 12.374321 " transform="matrix(1.153846,0,0,1.15,0,0)"/>
<g clip-path="url(#clip1)" clip-rule="nonzero">
<path style=" stroke:none;fill-rule:nonzero;fill:rgb(0%,0%,0%);fill-opacity:1;" d="M 16.261719 17.722656 L 19.808594 14.558594 C 20.308594 14.113281 20.273438 13.75 20.203125 13.574219 C 20.132812 13.390625 19.90625 13.082031 19.164062 13.082031 L 10.832031 13.082031 C 10.089844 13.082031 9.859375 13.390625 9.789062 13.574219 C 9.722656 13.75 9.683594 14.113281 10.1875 14.558594 L 13.734375 17.722656 C 13.96875 17.933594 14.257812 18.070312 14.574219 18.140625 L 14.574219 21.15625 L 13.386719 21.15625 C 13.214844 21.15625 13.078125 21.292969 13.078125 21.460938 C 13.078125 21.632812 13.214844 21.769531 13.386719 21.769531 L 16.609375 21.769531 C 16.78125 21.769531 16.917969 21.632812 16.917969 21.460938 C 16.917969 21.292969 16.78125 21.15625 16.609375 21.15625 L 15.421875 21.15625 L 15.421875 18.140625 C 15.734375 18.070312 16.027344 17.933594 16.261719 17.722656 Z M 16.261719 17.722656 "/>
</g>
<g clip-path="url(#clip2)" clip-rule="nonzero">
<path style=" stroke:none;fill-rule:nonzero;fill:rgb(0%,0%,0%);fill-opacity:1;" d="M 14.996094 9.050781 C 15 9.046875 15.003906 9.042969 15.007812 9.042969 C 15.488281 8.785156 16.042969 8.652344 16.601562 8.652344 C 16.910156 8.652344 17.203125 8.691406 17.484375 8.765625 C 17.273438 7.71875 16.234375 6.921875 14.988281 6.921875 C 13.734375 6.921875 12.695312 7.722656 12.488281 8.769531 C 12.773438 8.695312 13.078125 8.652344 13.390625 8.652344 C 13.976562 8.652344 14.527344 8.796875 14.996094 9.050781 Z M 14.996094 9.050781 "/>
</g>
<path style=" stroke:none;fill-rule:nonzero;fill:rgb(0%,0%,0%);fill-opacity:1;" d="M 15.585938 9.453125 C 16.179688 9.972656 16.546875 10.695312 16.546875 11.496094 C 16.546875 11.769531 16.503906 12.035156 16.421875 12.292969 L 18.972656 12.292969 C 19.085938 12.039062 19.144531 11.773438 19.144531 11.496094 C 19.144531 10.265625 18.003906 9.265625 16.601562 9.265625 C 16.25 9.265625 15.902344 9.332031 15.585938 9.453125 Z M 15.585938 9.453125 "/>
<path style=" stroke:none;fill-rule:nonzero;fill:rgb(0%,0%,0%);fill-opacity:1;" d="M 15.761719 12.292969 C 15.875 12.039062 15.933594 11.773438 15.933594 11.496094 C 15.933594 10.265625 14.792969 9.265625 13.390625 9.265625 C 11.992188 9.265625 10.851562 10.265625 10.851562 11.496094 C 10.851562 11.773438 10.910156 12.039062 11.023438 12.292969 Z M 15.761719 12.292969 "/>
</g>
</svg>
