<?xml version="1.0" encoding="UTF-8"?>
<svg xmlns="http://www.w3.org/2000/svg" xmlns:xlink="http://www.w3.org/1999/xlink" width="30px" height="46px" viewBox="0 0 30 46" version="1.1">
<defs>
<clipPath id="clip1">
  <path d="M 7.550781 7 L 22.445312 7 L 22.445312 20 L 7.550781 20 Z M 7.550781 7 "/>
</clipPath>
<clipPath id="clip2">
  <path d="M 9 20 L 21 20 L 21 21.769531 L 9 21.769531 Z M 9 20 "/>
</clipPath>
</defs>
<g id="surface1">
<path style="fill-rule:nonzero;fill:rgb(100%,40.000001%,0%);fill-opacity:1;stroke-width:1;stroke-linecap:round;stroke-linejoin:miter;stroke:rgb(83.137256%,33.333334%,0%);stroke-opacity:1;stroke-miterlimit:4;" d="M 13.040625 0.638587 C 6.25625 0.638587 0.609375 6.287364 0.609375 12.418478 C 0.609375 15.17663 2.224219 18.678668 3.388802 21.097147 L 13 38.828125 L 22.560417 21.097147 C 23.725 18.678668 25.383854 15.353261 25.383854 12.418478 C 25.383854 6.290761 19.828385 0.638587 13.04401 0.638587 Z M 13.040625 2.099185 C 18.934635 2.136549 23.721615 6.756114 23.721615 12.428668 C 23.721615 18.108016 18.938021 22.659647 13.040625 22.700408 C 7.146615 22.663043 2.369792 18.11481 2.369792 12.428668 C 2.369792 6.752717 7.15 2.129755 13.040625 2.099185 Z M 13.040625 2.099185 " transform="matrix(1.153846,0,0,1.15,0,0)"/>
<path style="fill-rule:nonzero;fill:rgb(100%,100%,100%);fill-opacity:1;stroke-width:1.00275;stroke-linecap:butt;stroke-linejoin:miter;stroke:rgb(100%,100%,100%);stroke-opacity:1;stroke-miterlimit:4;" d="M 23.010677 12.374321 C 23.010677 17.703804 18.528385 22.02106 13.003385 22.02106 C 7.478385 22.02106 2.996094 17.703804 2.996094 12.374321 C 2.996094 7.048234 7.478385 2.727582 13.003385 2.727582 C 18.528385 2.727582 23.010677 7.048234 23.010677 12.374321 Z M 23.010677 12.374321 " transform="matrix(1.153846,0,0,1.15,0,0)"/>
<g clip-path="url(#clip1)" clip-rule="nonzero">
<path style=" stroke:none;fill-rule:evenodd;fill:rgb(0%,0%,0%);fill-opacity:1;" d="M 21.390625 8.742188 L 21.390625 18.398438 L 8.605469 18.398438 L 8.605469 8.742188 L 21.390625 8.742188 M 21.988281 7.617188 L 8.007812 7.617188 C 7.753906 7.617188 7.550781 7.835938 7.550781 8.105469 L 7.550781 19.035156 C 7.550781 19.304688 7.753906 19.523438 8.007812 19.523438 L 21.988281 19.523438 C 22.242188 19.523438 22.445312 19.304688 22.445312 19.035156 L 22.445312 8.105469 C 22.445312 7.835938 22.242188 7.617188 21.988281 7.617188 Z M 21.988281 7.617188 "/>
</g>
<path style=" stroke:none;fill-rule:evenodd;fill:rgb(0%,0%,0%);fill-opacity:1;" d="M 15.851562 16.214844 L 15.851562 12.921875 C 15.851562 12.835938 15.785156 12.769531 15.703125 12.769531 L 13.082031 12.769531 C 13 12.769531 12.933594 12.835938 12.933594 12.921875 L 12.933594 13.582031 C 12.933594 13.667969 13 13.738281 13.082031 13.738281 L 14.226562 13.738281 L 14.226562 16.214844 L 13.082031 16.214844 C 13 16.214844 12.933594 16.285156 12.933594 16.371094 L 12.933594 17.03125 C 12.933594 17.117188 13 17.183594 13.105469 17.183594 L 16.941406 17.183594 C 16.996094 17.183594 17.058594 17.117188 17.058594 17.03125 L 17.058594 16.371094 C 17.058594 16.285156 16.996094 16.214844 16.914062 16.214844 Z M 15.851562 16.214844 "/>
<path style=" stroke:none;fill-rule:evenodd;fill:rgb(0%,0%,0%);fill-opacity:1;" d="M 16.035156 11.121094 C 16.035156 11.710938 15.582031 12.191406 15.027344 12.191406 C 14.46875 12.191406 14.019531 11.710938 14.019531 11.121094 C 14.019531 10.527344 14.46875 10.046875 15.027344 10.046875 C 15.582031 10.046875 16.035156 10.527344 16.035156 11.121094 Z M 16.035156 11.121094 "/>
<g clip-path="url(#clip2)" clip-rule="nonzero">
<path style=" stroke:none;fill-rule:evenodd;fill:rgb(0%,0%,0%);fill-opacity:1;" d="M 20.613281 20.914062 C 20.613281 21 20.542969 21.074219 20.460938 21.074219 L 9.535156 21.074219 C 9.453125 21.074219 9.382812 21 9.382812 20.914062 L 9.382812 20.335938 C 9.382812 20.246094 9.453125 20.175781 9.535156 20.175781 L 20.460938 20.175781 C 20.542969 20.175781 20.613281 20.246094 20.613281 20.335938 Z M 20.613281 20.914062 "/>
</g>
</g>
</svg>
