<?xml version="1.0" encoding="UTF-8"?>
<svg xmlns="http://www.w3.org/2000/svg" xmlns:xlink="http://www.w3.org/1999/xlink" width="30px" height="46px" viewBox="0 0 30 46" version="1.1">
<defs>
<clipPath id="clip1">
  <path d="M 7.550781 6.921875 L 22.445312 6.921875 L 22.445312 21.769531 L 7.550781 21.769531 Z M 7.550781 6.921875 "/>
</clipPath>
<clipPath id="clip2">
  <path d="M 7.550781 6.921875 L 22.445312 6.921875 L 22.445312 21.769531 L 7.550781 21.769531 Z M 7.550781 6.921875 "/>
</clipPath>
<clipPath id="clip3">
  <path d="M 7.550781 8 L 17 8 L 17 21 L 7.550781 21 Z M 7.550781 8 "/>
</clipPath>
</defs>
<g id="surface1">
<path style="fill-rule:nonzero;fill:rgb(100%,40.000001%,0%);fill-opacity:1;stroke-width:1;stroke-linecap:round;stroke-linejoin:miter;stroke:rgb(83.137256%,33.333334%,0%);stroke-opacity:1;stroke-miterlimit:4;" d="M 13.040625 0.638587 C 6.25625 0.638587 0.609375 6.287364 0.609375 12.418478 C 0.609375 15.17663 2.224219 18.678668 3.388802 21.097147 L 13 38.828125 L 22.560417 21.097147 C 23.725 18.678668 25.383854 15.353261 25.383854 12.418478 C 25.383854 6.290761 19.828385 0.638587 13.04401 0.638587 Z M 13.040625 2.099185 C 18.934635 2.136549 23.721615 6.756114 23.721615 12.428668 C 23.721615 18.108016 18.938021 22.659647 13.040625 22.700408 C 7.146615 22.663043 2.369792 18.11481 2.369792 12.428668 C 2.369792 6.752717 7.15 2.129755 13.040625 2.099185 Z M 13.040625 2.099185 " transform="matrix(1.153846,0,0,1.15,0,0)"/>
<path style="fill-rule:nonzero;fill:rgb(100%,100%,100%);fill-opacity:1;stroke-width:1.00275;stroke-linecap:butt;stroke-linejoin:miter;stroke:rgb(100%,100%,100%);stroke-opacity:1;stroke-miterlimit:4;" d="M 23.010677 12.374321 C 23.010677 17.703804 18.528385 22.02106 13.003385 22.02106 C 7.478385 22.02106 2.996094 17.703804 2.996094 12.374321 C 2.996094 7.048234 7.478385 2.727582 13.003385 2.727582 C 18.528385 2.727582 23.010677 7.048234 23.010677 12.374321 Z M 23.010677 12.374321 " transform="matrix(1.153846,0,0,1.15,0,0)"/>
<g clip-path="url(#clip1)" clip-rule="nonzero">
<path style="fill:none;stroke-width:5.66932;stroke-linecap:butt;stroke-linejoin:miter;stroke:rgb(3.921569%,4.313726%,4.705882%);stroke-opacity:1;stroke-miterlimit:4;" d="M 18.781916 6.900103 L 80.885672 6.900103 C 81.696074 6.900103 82.371408 7.568198 82.371408 8.384759 L 82.371408 91.946135 C 82.371408 92.762695 81.696074 93.43079 80.885672 93.43079 L 18.781916 93.43079 C 17.944501 93.43079 17.269167 92.762695 17.269167 91.946135 L 17.269167 8.384759 C 17.269167 7.568198 17.944501 6.900103 18.781916 6.900103 Z M 18.781916 6.900103 " transform="matrix(0.144604,0,0,0.157865,7.791867,6.426341)"/>
</g>
<path style="fill:none;stroke-width:3.77955;stroke-linecap:butt;stroke-linejoin:miter;stroke:rgb(3.921569%,4.313726%,4.705882%);stroke-opacity:1;stroke-miterlimit:4;" d="M 17.269167 20.880612 L 82.371408 20.880612 " transform="matrix(0.144604,0,0,0.157865,7.791867,6.426341)"/>
<g clip-path="url(#clip2)" clip-rule="nonzero">
<path style="fill:none;stroke-width:5.66932;stroke-linecap:butt;stroke-linejoin:miter;stroke:rgb(3.921569%,4.313726%,4.705882%);stroke-opacity:1;stroke-miterlimit:4;" d="M 49.820288 28.452356 C 63.083856 28.452356 73.835181 39.191366 73.835181 52.454291 C 73.835181 65.717216 63.083856 76.48097 49.820288 76.48097 C 36.583732 76.48097 25.832408 65.717216 25.832408 52.454291 C 25.832408 39.191366 36.583732 28.452356 49.820288 28.452356 Z M 49.820288 28.452356 " transform="matrix(0.144604,0,0,0.157865,7.791867,6.426341)"/>
</g>
<g clip-path="url(#clip3)" clip-rule="nonzero">
<path style="fill:none;stroke-width:5.66932;stroke-linecap:butt;stroke-linejoin:miter;stroke:rgb(3.921569%,4.313726%,4.705882%);stroke-opacity:1;stroke-miterlimit:4;" d="M 26.372675 57.155701 L 28.317639 55.943232 C 28.587772 55.794767 28.749853 55.52258 28.749853 55.200904 L 28.749853 52.454291 M 26.372675 47.752881 L 28.317639 48.96535 C 28.587772 49.13856 28.749853 49.410747 28.749853 49.707678 L 28.749853 52.454291 " transform="matrix(0.144604,0,0,0.157865,7.791867,6.426341)"/>
</g>
<path style="fill:none;stroke-width:3.77955;stroke-linecap:butt;stroke-linejoin:miter;stroke:rgb(3.921569%,4.313726%,4.705882%);stroke-opacity:1;stroke-miterlimit:4;" d="M 15.783431 86.626118 L 82.371408 86.626118 " transform="matrix(0.144604,0,0,0.157865,7.791867,6.426341)"/>
<path style="fill:none;stroke-width:2.83466;stroke-linecap:butt;stroke-linejoin:miter;stroke:rgb(3.921569%,4.313726%,4.705882%);stroke-opacity:1;stroke-miterlimit:4;" d="M 49.820288 36.568474 C 58.599635 36.568474 65.731167 43.670078 65.731167 52.454291 C 65.731167 61.238504 58.599635 68.364852 49.820288 68.364852 C 41.04094 68.364852 33.936421 61.238504 33.936421 52.454291 C 33.936421 43.670078 41.04094 36.568474 49.820288 36.568474 Z M 49.820288 36.568474 " transform="matrix(0.144604,0,0,0.157865,7.791867,6.426341)"/>
<path style="fill-rule:evenodd;fill:rgb(3.921569%,4.313726%,4.705882%);fill-opacity:1;stroke-width:0.755909;stroke-linecap:butt;stroke-linejoin:miter;stroke:rgb(3.921569%,4.313726%,4.705882%);stroke-opacity:1;stroke-miterlimit:4;" d="M 63.056843 12.442818 C 64.137378 12.442818 64.974793 13.308867 64.974793 14.372871 C 64.974793 15.41213 64.137378 16.278179 63.056843 16.278179 C 62.003321 16.278179 61.138893 15.41213 61.138893 14.372871 C 61.138893 13.308867 62.003321 12.442818 63.056843 12.442818 Z M 63.056843 12.442818 " transform="matrix(0.144604,0,0,0.157865,7.791867,6.426341)"/>
<path style="fill-rule:evenodd;fill:rgb(3.921569%,4.313726%,4.705882%);fill-opacity:1;stroke-width:0.755909;stroke-linecap:butt;stroke-linejoin:miter;stroke:rgb(3.921569%,4.313726%,4.705882%);stroke-opacity:1;stroke-miterlimit:4;" d="M 70.647602 12.442818 C 71.701124 12.442818 72.565552 13.308867 72.565552 14.372871 C 72.565552 15.41213 71.701124 16.278179 70.647602 16.278179 C 69.59408 16.278179 68.729652 15.41213 68.729652 14.372871 C 68.729652 13.308867 69.59408 12.442818 70.647602 12.442818 Z M 70.647602 12.442818 " transform="matrix(0.144604,0,0,0.157865,7.791867,6.426341)"/>
<path style="fill:none;stroke-width:0.755909;stroke-linecap:butt;stroke-linejoin:miter;stroke:rgb(3.921569%,4.313726%,4.705882%);stroke-opacity:1;stroke-miterlimit:4;" d="M 49.820288 37.657222 C 57.978328 37.657222 64.596605 44.288684 64.596605 52.454291 C 64.596605 60.619898 57.978328 67.25136 49.820288 67.25136 C 41.635234 67.25136 35.016956 60.619898 35.016956 52.454291 C 35.016956 44.288684 41.635234 37.657222 49.820288 37.657222 Z M 49.820288 37.657222 " transform="matrix(0.144604,0,0,0.157865,7.791867,6.426341)"/>
<path style=" stroke:none;fill-rule:evenodd;fill:rgb(3.921569%,4.313726%,4.705882%);fill-opacity:1;" d="M 12.882812 14.242188 C 13 14.265625 14.234375 13.5625 15.066406 14.628906 C 15.898438 15.695312 16.703125 15.664062 17.054688 14.992188 C 17.359375 14.402344 17.039062 16.09375 16.246094 16.644531 C 15.453125 17.195312 14.148438 17.019531 13.808594 16.683594 C 13.46875 16.347656 12.746094 15.554688 12.882812 14.242188 Z M 12.882812 14.242188 "/>
<path style=" stroke:none;fill-rule:evenodd;fill:rgb(100%,100%,100%);fill-opacity:1;" d="M 15.863281 15.824219 C 16 15.824219 16.109375 15.945312 16.109375 16.09375 C 16.109375 16.242188 16 16.363281 15.863281 16.363281 C 15.726562 16.363281 15.617188 16.242188 15.617188 16.09375 C 15.617188 15.945312 15.726562 15.824219 15.863281 15.824219 Z M 15.863281 15.824219 "/>
<path style=" stroke:none;fill-rule:evenodd;fill:rgb(100%,100%,100%);fill-opacity:1;" d="M 15.34375 15.582031 C 15.402344 15.582031 15.449219 15.632812 15.449219 15.699219 C 15.449219 15.765625 15.402344 15.816406 15.34375 15.816406 C 15.28125 15.816406 15.234375 15.765625 15.234375 15.699219 C 15.234375 15.632812 15.28125 15.582031 15.34375 15.582031 Z M 15.34375 15.582031 "/>
</g>
</svg>
