<?xml version="1.0" encoding="UTF-8"?>
<svg xmlns="http://www.w3.org/2000/svg" xmlns:xlink="http://www.w3.org/1999/xlink" width="30px" height="46px" viewBox="0 0 30 46" version="1.1">
<defs>
<clipPath id="clip1">
  <path d="M 8 6.921875 L 10 6.921875 L 10 14 L 8 14 Z M 8 6.921875 "/>
</clipPath>
<clipPath id="clip2">
  <path d="M 11 6.921875 L 14 6.921875 L 14 14 L 11 14 Z M 11 6.921875 "/>
</clipPath>
<clipPath id="clip3">
  <path d="M 14 6.921875 L 15 6.921875 L 15 14 L 14 14 Z M 14 6.921875 "/>
</clipPath>
<clipPath id="clip4">
  <path d="M 14 6.921875 L 19 6.921875 L 19 14 L 14 14 Z M 14 6.921875 "/>
</clipPath>
<clipPath id="clip5">
  <path d="M 8 20 L 14 20 L 14 21.769531 L 8 21.769531 Z M 8 20 "/>
</clipPath>
<clipPath id="clip6">
  <path d="M 13 20 L 15 20 L 15 21.769531 L 13 21.769531 Z M 13 20 "/>
</clipPath>
<clipPath id="clip7">
  <path d="M 15 20 L 21 20 L 21 21.769531 L 15 21.769531 Z M 15 20 "/>
</clipPath>
<clipPath id="clip8">
  <path d="M 21 20 L 22 20 L 22 21.769531 L 21 21.769531 Z M 21 20 "/>
</clipPath>
</defs>
<g id="surface1">
<path style="fill-rule:nonzero;fill:rgb(100%,40.000001%,0%);fill-opacity:1;stroke-width:1;stroke-linecap:round;stroke-linejoin:miter;stroke:rgb(83.137256%,33.333334%,0%);stroke-opacity:1;stroke-miterlimit:4;" d="M 13.040625 0.638587 C 6.25625 0.638587 0.609375 6.287364 0.609375 12.418478 C 0.609375 15.17663 2.224219 18.678668 3.388802 21.097147 L 13 38.828125 L 22.560417 21.097147 C 23.725 18.678668 25.383854 15.353261 25.383854 12.418478 C 25.383854 6.290761 19.828385 0.638587 13.04401 0.638587 Z M 13.040625 2.099185 C 18.934635 2.136549 23.721615 6.756114 23.721615 12.428668 C 23.721615 18.108016 18.938021 22.659647 13.040625 22.700408 C 7.146615 22.663043 2.369792 18.11481 2.369792 12.428668 C 2.369792 6.752717 7.15 2.129755 13.040625 2.099185 Z M 13.040625 2.099185 " transform="matrix(1.153846,0,0,1.15,0,0)"/>
<path style="fill-rule:nonzero;fill:rgb(100%,100%,100%);fill-opacity:1;stroke-width:1.00275;stroke-linecap:butt;stroke-linejoin:miter;stroke:rgb(100%,100%,100%);stroke-opacity:1;stroke-miterlimit:4;" d="M 23.010677 12.374321 C 23.010677 17.703804 18.528385 22.02106 13.003385 22.02106 C 7.478385 22.02106 2.996094 17.703804 2.996094 12.374321 C 2.996094 7.048234 7.478385 2.727582 13.003385 2.727582 C 18.528385 2.727582 23.010677 7.048234 23.010677 12.374321 Z M 23.010677 12.374321 " transform="matrix(1.153846,0,0,1.15,0,0)"/>
<g clip-path="url(#clip1)" clip-rule="nonzero">
<path style=" stroke:none;fill-rule:evenodd;fill:rgb(0%,0%,0%);fill-opacity:1;" d="M 8.152344 6.953125 L 9.519531 6.953125 L 9.519531 13.886719 L 8.152344 13.886719 Z M 8.152344 6.953125 "/>
</g>
<path style=" stroke:none;fill-rule:evenodd;fill:rgb(0%,0%,0%);fill-opacity:1;" d="M 10.070312 7.425781 L 11.164062 7.425781 L 11.164062 13.886719 L 10.070312 13.886719 Z M 10.070312 7.425781 "/>
<g clip-path="url(#clip2)" clip-rule="nonzero">
<path style=" stroke:none;fill-rule:evenodd;fill:rgb(0%,0%,0%);fill-opacity:1;" d="M 11.710938 6.953125 L 13.492188 6.953125 L 13.492188 13.886719 L 11.710938 13.886719 Z M 11.710938 6.953125 "/>
</g>
<g clip-path="url(#clip3)" clip-rule="nonzero">
<path style=" stroke:none;fill-rule:evenodd;fill:rgb(0%,0%,0%);fill-opacity:1;" d="M 14.039062 6.953125 L 14.722656 6.953125 L 14.722656 13.886719 L 14.039062 13.886719 Z M 14.039062 6.953125 "/>
</g>
<g clip-path="url(#clip4)" clip-rule="nonzero">
<path style=" stroke:none;fill-rule:evenodd;fill:rgb(0%,0%,0%);fill-opacity:1;" d="M 14.964844 7.542969 L 16.222656 6.921875 L 18.59375 13.300781 L 17.332031 13.917969 Z M 14.964844 7.542969 "/>
</g>
<path style=" stroke:none;fill-rule:evenodd;fill:rgb(0%,0%,0%);fill-opacity:1;" d="M 21.023438 7.425781 L 21.84375 7.425781 L 21.84375 13.886719 L 21.023438 13.886719 Z M 21.023438 7.425781 "/>
<path style=" stroke:none;fill-rule:evenodd;fill:rgb(0%,0%,0%);fill-opacity:1;" d="M 18.695312 7.109375 L 20.472656 7.109375 L 20.472656 13.886719 L 18.695312 13.886719 Z M 18.695312 7.109375 "/>
<path style=" stroke:none;fill-rule:evenodd;fill:rgb(0%,0%,0%);fill-opacity:1;" d="M 13.082031 15.308594 L 13.082031 18.144531 L 8.972656 18.144531 L 8.972656 15.308594 L 13.082031 15.308594 M 13.492188 14.835938 L 8.5625 14.835938 L 8.5625 18.617188 L 13.492188 18.617188 Z M 13.492188 14.835938 "/>
<path style=" stroke:none;fill-rule:evenodd;fill:rgb(0%,0%,0%);fill-opacity:1;" d="M 10.34375 18.617188 L 11.710938 18.617188 L 11.710938 19.089844 L 10.34375 19.089844 Z M 10.34375 18.617188 "/>
<g clip-path="url(#clip5)" clip-rule="nonzero">
<path style=" stroke:none;fill-rule:evenodd;fill:rgb(0%,0%,0%);fill-opacity:1;" d="M 13.765625 21.769531 L 8.152344 21.769531 L 8.5625 20.191406 L 13.355469 20.191406 Z M 13.765625 21.769531 "/>
</g>
<g clip-path="url(#clip6)" clip-rule="nonzero">
<path style=" stroke:none;fill-rule:evenodd;fill:rgb(0%,0%,0%);fill-opacity:1;" d="M 14.558594 20.984375 C 14.613281 21.285156 14.515625 21.5625 14.34375 21.605469 C 14.171875 21.648438 13.988281 21.4375 13.929688 21.136719 C 13.875 20.835938 13.972656 20.558594 14.144531 20.515625 C 14.320312 20.476562 14.503906 20.683594 14.558594 20.984375 Z M 14.558594 20.984375 "/>
</g>
<path style=" stroke:none;fill-rule:evenodd;fill:rgb(0%,0%,0%);fill-opacity:1;" d="M 9.65625 19.089844 L 12.394531 19.089844 L 12.394531 19.40625 L 9.65625 19.40625 Z M 9.65625 19.089844 "/>
<path style=" stroke:none;fill-rule:evenodd;fill:rgb(0%,0%,0%);fill-opacity:1;" d="M 20.199219 15.308594 L 20.199219 18.144531 L 16.09375 18.144531 L 16.09375 15.308594 L 20.199219 15.308594 M 20.609375 14.835938 L 15.683594 14.835938 L 15.683594 18.617188 L 20.609375 18.617188 Z M 20.609375 14.835938 "/>
<path style=" stroke:none;fill-rule:evenodd;fill:rgb(0%,0%,0%);fill-opacity:1;" d="M 17.460938 18.617188 L 18.832031 18.617188 L 18.832031 19.089844 L 17.460938 19.089844 Z M 17.460938 18.617188 "/>
<g clip-path="url(#clip7)" clip-rule="nonzero">
<path style=" stroke:none;fill-rule:evenodd;fill:rgb(0%,0%,0%);fill-opacity:1;" d="M 20.886719 21.769531 L 15.273438 21.769531 L 15.683594 20.191406 L 20.472656 20.191406 Z M 20.886719 21.769531 "/>
</g>
<g clip-path="url(#clip8)" clip-rule="nonzero">
<path style=" stroke:none;fill-rule:evenodd;fill:rgb(0%,0%,0%);fill-opacity:1;" d="M 21.679688 20.984375 C 21.734375 21.285156 21.636719 21.5625 21.464844 21.605469 C 21.289062 21.648438 21.105469 21.4375 21.050781 21.136719 C 20.996094 20.835938 21.09375 20.558594 21.265625 20.515625 C 21.4375 20.476562 21.625 20.683594 21.679688 20.984375 Z M 21.679688 20.984375 "/>
</g>
<path style=" stroke:none;fill-rule:evenodd;fill:rgb(0%,0%,0%);fill-opacity:1;" d="M 16.777344 19.089844 L 19.515625 19.089844 L 19.515625 19.40625 L 16.777344 19.40625 Z M 16.777344 19.089844 "/>
</g>
</svg>
