<?xml version="1.0" encoding="UTF-8" standalone="no"?>
<svg
   xmlns:dc="http://purl.org/dc/elements/1.1/"
   xmlns:cc="http://creativecommons.org/ns#"
   xmlns:rdf="http://www.w3.org/1999/02/22-rdf-syntax-ns#"
   xmlns:svg="http://www.w3.org/2000/svg"
   xmlns="http://www.w3.org/2000/svg"
   xmlns:sodipodi="http://sodipodi.sourceforge.net/DTD/sodipodi-0.dtd"
   xmlns:inkscape="http://www.inkscape.org/namespaces/inkscape"
   height="44px"
   width="30px"
   version="1.1"
   viewBox="0 0 29.988946 43.988056"
   id="svg16"
   sodipodi:docname="new_Library.svg"
   inkscape:version="0.92.5 (2060ec1f9f, 2020-04-08)">
  <metadata
     id="metadata20">
    <rdf:RDF>
      <cc:Work
         rdf:about="">
        <dc:format>image/svg+xml</dc:format>
        <dc:type
           rdf:resource="http://purl.org/dc/dcmitype/StillImage" />
        <dc:title />
      </cc:Work>
    </rdf:RDF>
  </metadata>
  <sodipodi:namedview
     pagecolor="#ffffff"
     bordercolor="#666666"
     borderopacity="1"
     objecttolerance="10"
     gridtolerance="10"
     guidetolerance="10"
     inkscape:pageopacity="0"
     inkscape:pageshadow="2"
     inkscape:window-width="1680"
     inkscape:window-height="974"
     id="namedview18"
     showgrid="false"
     inkscape:zoom="11.505648"
     inkscape:cx="10.66342"
     inkscape:cy="17.130394"
     inkscape:window-x="0"
     inkscape:window-y="0"
     inkscape:window-maximized="1"
     inkscape:current-layer="svg8" />
  <defs
     id="defs7">
    <radialGradient
       id="a"
       gradientUnits="userSpaceOnUse"
       cy="127.6"
       cx="-42.75"
       gradientTransform="matrix(4.2749643,0,0,0.98162997,197.99835,-82.088795)"
       r="2.3840001">
      <stop
         stop-color="#010101"
         offset="0"
         id="stop2" />
      <stop
         stop-opacity="0"
         stop-color="#090909"
         offset="1"
         id="stop4" />
    </radialGradient>
  </defs>
  <g
     id="g26"
     transform="translate(-2.0760358e-7,-1.6181156)">
    <path
       style="fill:#5846c5;stroke-width:4.27539158"
       inkscape:connector-curvature="0"
       id="path9"
       d="m 14.994475,1.7046139 c -8.2386814,0 -14.91684341,6.6781619 -14.91684341,14.9168421 0.008545,2.561815 0.67294669,5.079165 1.93504231,7.306643 L 15.595595,42.53888 27.955752,23.983679 c 1.277915,-2.243725 1.951716,-4.779887 1.955563,-7.362223 C 29.911273,8.3827758 23.233154,1.7046139 14.994475,1.7046139 Z" />
    <circle
       style="fill:#f9f3f3;stroke-width:4.27539158"
       id="circle11"
       r="9.4272394"
       cx="14.994473"
       cy="16.668474" />
    <ellipse
       style="opacity:0.4;fill:url(#a);stroke-width:4.27496433"
       id="ellipse13"
       cx="14.994473"
       cy="43.18018"
       ry="2.3394945"
       rx="10.192533" />
    <rect
       style="fill:none;stroke-width:4.27539158"
       x="8.2585926"
       y="9.8278542"
       width="13.471761"
       height="13.36915"
       ry="0"
       rx="0"
       id="replace" />
    <svg
       version="1.1"
       x="8.5"
       y="10"
       viewBox="0 0 100 100"
       enable-background="new 0 0 25 25"
       xml:space="preserve"
       id="svg8"
       sodipodi:docname="Library.svg"
       width="100"
       height="100"
       inkscape:version="0.92.5 (2060ec1f9f, 2020-04-08)"><metadata
         id="metadata14"><rdf:RDF><cc:Work
             rdf:about=""><dc:format>image/svg+xml</dc:format><dc:type
               rdf:resource="http://purl.org/dc/dcmitype/StillImage" /><dc:title /></cc:Work></rdf:RDF></metadata><defs
         id="defs12" /><sodipodi:namedview
         pagecolor="#ffffff"
         bordercolor="#666666"
         borderopacity="1"
         objecttolerance="10"
         gridtolerance="10"
         guidetolerance="10"
         inkscape:pageopacity="0"
         inkscape:pageshadow="2"
         inkscape:window-width="1680"
         inkscape:window-height="884"
         id="namedview10"
         showgrid="false"
         inkscape:zoom="2.6700352"
         inkscape:cx="-47.610489"
         inkscape:cy="24.997306"
         inkscape:window-x="0"
         inkscape:window-y="0"
         inkscape:window-maximized="1"
         inkscape:current-layer="svg8" /><g
         id="g17"
         transform="matrix(0.61795461,0,0,0.61795461,-1.6405023,-43.971444)"><path
           inkscape:connector-curvature="0"
           id="path2"
           d="m 20.613,72.96 c -0.021,-0.131 -0.094,-0.249 -0.2,-0.326 -0.106,-0.077 -0.235,-0.109 -0.373,-0.088 l -3.949,0.638 C 16.057,73.19 16.026,73.208 15.994,73.22 15.979,72.958 15.766,72.75 15.5,72.75 h -4 -4 -4 c -0.276,0 -0.5,0.224 -0.5,0.5 v 17 c 0,0.275 0.224,0.5 0.5,0.5 h 4 4 4 c 0.275,0 0.5,-0.225 0.5,-0.5 V 75.754 l 2.387,14.785 c 0.021,0.131 0.094,0.248 0.2,0.326 0.086,0.063 0.188,0.095 0.293,0.095 0.026,0 0.054,-0.002 0.08,-0.006 l 3.949,-0.638 c 0.272,-0.045 0.458,-0.301 0.413,-0.573 z M 5,74.75 c 0,-0.276 0.224,-0.5 0.5,-0.5 0.276,0 0.5,0.224 0.5,0.5 v 3 c 0,0.276 -0.224,0.5 -0.5,0.5 -0.276,0 -0.5,-0.224 -0.5,-0.5 z m 2,15 H 4 v -2 h 3 z m 2,-15 c 0,-0.276 0.224,-0.5 0.5,-0.5 0.276,0 0.5,0.224 0.5,0.5 v 3 c 0,0.276 -0.224,0.5 -0.5,0.5 -0.276,0 -0.5,-0.224 -0.5,-0.5 z m 2,15 H 8 v -2 h 3 z m 2,-15 c 0,-0.276 0.225,-0.5 0.5,-0.5 0.275,0 0.5,0.224 0.5,0.5 v 3 c 0,0.276 -0.225,0.5 -0.5,0.5 -0.275,0 -0.5,-0.224 -0.5,-0.5 z m 2,15 h -3 v -2 h 3 z m 3.943,-11.456 c -0.026,0.004 -0.055,0.006 -0.082,0.006 -0.238,0 -0.451,-0.174 -0.49,-0.42 l -0.479,-2.96 c -0.045,-0.272 0.142,-0.529 0.412,-0.573 0.276,-0.048 0.53,0.141 0.572,0.414 l 0.479,2.96 c 0.045,0.272 -0.14,0.529 -0.412,0.573 z m 0.351,11.593 -0.317,-1.975 2.961,-0.479 0.318,1.975 z" /></g></svg>  </g>
</svg>
