<?xml version="1.0" encoding="UTF-8"?>
<svg xmlns="http://www.w3.org/2000/svg" xmlns:xlink="http://www.w3.org/1999/xlink" width="30px" height="46px" viewBox="0 0 30 46" version="1.1">
<defs>
<clipPath id="clip1">
  <path d="M 7.550781 10 L 19 10 L 19 21.769531 L 7.550781 21.769531 Z M 7.550781 10 "/>
</clipPath>
<clipPath id="clip2">
  <path d="M 14 10 L 16 10 L 16 21.769531 L 14 21.769531 Z M 14 10 "/>
</clipPath>
<clipPath id="clip3">
  <path d="M 12 6.921875 L 22.445312 6.921875 L 22.445312 21.769531 L 12 21.769531 Z M 12 6.921875 "/>
</clipPath>
</defs>
<g id="surface1">
<path style="fill-rule:nonzero;fill:rgb(100%,40.000001%,0%);fill-opacity:1;stroke-width:1;stroke-linecap:round;stroke-linejoin:miter;stroke:rgb(83.137256%,33.333334%,0%);stroke-opacity:1;stroke-miterlimit:4;" d="M 13.040625 0.638587 C 6.25625 0.638587 0.609375 6.287364 0.609375 12.418478 C 0.609375 15.17663 2.224219 18.678668 3.388802 21.097147 L 13 38.828125 L 22.560417 21.097147 C 23.725 18.678668 25.383854 15.353261 25.383854 12.418478 C 25.383854 6.290761 19.828385 0.638587 13.04401 0.638587 Z M 13.040625 2.099185 C 18.934635 2.136549 23.721615 6.756114 23.721615 12.428668 C 23.721615 18.108016 18.938021 22.659647 13.040625 22.700408 C 7.146615 22.663043 2.369792 18.11481 2.369792 12.428668 C 2.369792 6.752717 7.15 2.129755 13.040625 2.099185 Z M 13.040625 2.099185 " transform="matrix(1.153846,0,0,1.15,0,0)"/>
<path style="fill-rule:nonzero;fill:rgb(100%,100%,100%);fill-opacity:1;stroke-width:1.00275;stroke-linecap:butt;stroke-linejoin:miter;stroke:rgb(100%,100%,100%);stroke-opacity:1;stroke-miterlimit:4;" d="M 23.010677 12.374321 C 23.010677 17.703804 18.528385 22.02106 13.003385 22.02106 C 7.478385 22.02106 2.996094 17.703804 2.996094 12.374321 C 2.996094 7.048234 7.478385 2.727582 13.003385 2.727582 C 18.528385 2.727582 23.010677 7.048234 23.010677 12.374321 Z M 23.010677 12.374321 " transform="matrix(1.153846,0,0,1.15,0,0)"/>
<g clip-path="url(#clip1)" clip-rule="nonzero">
<path style=" stroke:none;fill-rule:evenodd;fill:rgb(0%,0%,0%);fill-opacity:1;" d="M 18.660156 21.769531 L 7.859375 21.769531 C 7.671875 21.769531 7.550781 21.644531 7.550781 21.460938 L 7.550781 14.035156 C 7.550781 13.914062 7.613281 13.820312 7.734375 13.757812 L 14.8125 10.574219 C 14.875 10.542969 14.964844 10.542969 15.027344 10.574219 L 18.753906 11.871094 C 18.875 11.902344 18.96875 12.027344 18.96875 12.148438 L 18.96875 21.460938 C 18.96875 21.644531 18.847656 21.769531 18.660156 21.769531 Z M 8.171875 21.152344 L 18.347656 21.152344 L 18.347656 12.367188 L 14.9375 11.191406 L 8.171875 14.222656 Z M 8.171875 21.152344 "/>
</g>
<g clip-path="url(#clip2)" clip-rule="nonzero">
<path style=" stroke:none;fill-rule:evenodd;fill:rgb(0%,0%,0%);fill-opacity:1;" d="M 14.90625 21.769531 C 14.71875 21.769531 14.59375 21.644531 14.59375 21.460938 L 14.59375 11.097656 C 14.59375 10.914062 14.71875 10.789062 14.90625 10.789062 C 15.089844 10.789062 15.214844 10.914062 15.214844 11.097656 L 15.214844 21.460938 C 15.214844 21.644531 15.089844 21.769531 14.90625 21.769531 Z M 14.90625 21.769531 "/>
</g>
<path style=" stroke:none;fill-rule:evenodd;fill:rgb(0%,0%,0%);fill-opacity:1;" d="M 8.945312 15.582031 C 8.820312 15.582031 8.699219 15.492188 8.636719 15.367188 C 8.574219 15.210938 8.667969 15.027344 8.851562 14.964844 L 13.261719 13.605469 C 13.414062 13.542969 13.601562 13.636719 13.664062 13.820312 C 13.726562 13.976562 13.632812 14.160156 13.445312 14.222656 L 9.039062 15.582031 C 9.007812 15.582031 8.976562 15.582031 8.945312 15.582031 Z M 8.945312 15.582031 "/>
<path style=" stroke:none;fill-rule:evenodd;fill:rgb(0%,0%,0%);fill-opacity:1;" d="M 8.945312 17.222656 C 8.789062 17.222656 8.667969 17.128906 8.636719 16.976562 C 8.605469 16.820312 8.699219 16.636719 8.882812 16.605469 L 13.289062 15.675781 C 13.445312 15.644531 13.632812 15.738281 13.664062 15.921875 C 13.695312 16.078125 13.601562 16.265625 13.414062 16.292969 L 9.007812 17.222656 C 8.976562 17.222656 8.976562 17.222656 8.945312 17.222656 Z M 8.945312 17.222656 "/>
<path style=" stroke:none;fill-rule:evenodd;fill:rgb(0%,0%,0%);fill-opacity:1;" d="M 8.945312 18.832031 C 8.789062 18.832031 8.667969 18.707031 8.636719 18.554688 C 8.605469 18.398438 8.730469 18.242188 8.914062 18.210938 L 13.320312 17.75 C 13.476562 17.71875 13.632812 17.839844 13.664062 18.027344 C 13.695312 18.179688 13.570312 18.335938 13.382812 18.367188 L 8.976562 18.832031 C 8.976562 18.832031 8.945312 18.832031 8.945312 18.832031 Z M 8.945312 18.832031 "/>
<path style=" stroke:none;fill-rule:evenodd;fill:rgb(0%,0%,0%);fill-opacity:1;" d="M 13.351562 20.46875 L 8.945312 20.46875 C 8.761719 20.46875 8.636719 20.347656 8.636719 20.160156 C 8.636719 19.976562 8.761719 19.851562 8.945312 19.851562 L 13.351562 19.851562 C 13.539062 19.851562 13.664062 19.976562 13.664062 20.160156 C 13.664062 20.347656 13.539062 20.46875 13.351562 20.46875 Z M 13.351562 20.46875 "/>
<g clip-path="url(#clip3)" clip-rule="nonzero">
<path style=" stroke:none;fill-rule:evenodd;fill:rgb(0%,0%,0%);fill-opacity:1;" d="M 22.136719 21.769531 L 17.386719 21.769531 C 17.199219 21.769531 17.078125 21.644531 17.078125 21.460938 C 17.078125 21.273438 17.199219 21.152344 17.386719 21.152344 L 21.824219 21.152344 L 21.824219 8.933594 L 17.605469 7.574219 L 13.570312 9.367188 L 13.570312 11.4375 C 13.570312 11.625 13.445312 11.75 13.261719 11.75 C 13.074219 11.75 12.949219 11.625 12.949219 11.4375 L 12.949219 9.148438 C 12.949219 9.027344 13.011719 8.902344 13.136719 8.871094 L 17.449219 6.953125 C 17.511719 6.921875 17.605469 6.921875 17.667969 6.921875 L 22.230469 8.40625 C 22.351562 8.46875 22.445312 8.59375 22.445312 8.71875 L 22.445312 21.460938 C 22.445312 21.644531 22.320312 21.769531 22.136719 21.769531 Z M 22.136719 21.769531 "/>
</g>
<path style=" stroke:none;fill-rule:evenodd;fill:rgb(0%,0%,0%);fill-opacity:1;" d="M 20.273438 11.160156 C 20.085938 11.160156 19.964844 11.035156 19.964844 10.851562 L 19.964844 9.644531 C 19.964844 9.460938 20.085938 9.335938 20.273438 9.335938 C 20.460938 9.335938 20.582031 9.460938 20.582031 9.644531 L 20.582031 10.851562 C 20.582031 11.035156 20.460938 11.160156 20.273438 11.160156 Z M 20.273438 11.160156 "/>
<path style=" stroke:none;fill-rule:evenodd;fill:rgb(0%,0%,0%);fill-opacity:1;" d="M 20.273438 13.324219 C 20.085938 13.324219 19.964844 13.203125 19.964844 13.015625 L 19.964844 11.808594 C 19.964844 11.625 20.085938 11.5 20.273438 11.5 C 20.460938 11.5 20.582031 11.625 20.582031 11.808594 L 20.582031 13.015625 C 20.582031 13.203125 20.460938 13.324219 20.273438 13.324219 Z M 20.273438 13.324219 "/>
<path style=" stroke:none;fill-rule:evenodd;fill:rgb(0%,0%,0%);fill-opacity:1;" d="M 20.273438 15.523438 C 20.085938 15.523438 19.964844 15.398438 19.964844 15.210938 L 19.964844 13.976562 C 19.964844 13.789062 20.085938 13.664062 20.273438 13.664062 C 20.460938 13.664062 20.582031 13.789062 20.582031 13.976562 L 20.582031 15.210938 C 20.582031 15.398438 20.460938 15.523438 20.273438 15.523438 Z M 20.273438 15.523438 "/>
<path style=" stroke:none;fill-rule:evenodd;fill:rgb(0%,0%,0%);fill-opacity:1;" d="M 20.273438 17.6875 C 20.085938 17.6875 19.964844 17.5625 19.964844 17.378906 L 19.964844 16.171875 C 19.964844 15.984375 20.085938 15.863281 20.273438 15.863281 C 20.460938 15.863281 20.582031 15.984375 20.582031 16.171875 L 20.582031 17.378906 C 20.582031 17.5625 20.460938 17.6875 20.273438 17.6875 Z M 20.273438 17.6875 "/>
<path style=" stroke:none;fill-rule:evenodd;fill:rgb(0%,0%,0%);fill-opacity:1;" d="M 20.273438 19.851562 C 20.085938 19.851562 19.964844 19.726562 19.964844 19.542969 L 19.964844 18.335938 C 19.964844 18.152344 20.085938 18.027344 20.273438 18.027344 C 20.460938 18.027344 20.582031 18.152344 20.582031 18.335938 L 20.582031 19.542969 C 20.582031 19.726562 20.460938 19.851562 20.273438 19.851562 Z M 20.273438 19.851562 "/>
</g>
</svg>
