<?xml version="1.0" encoding="UTF-8" standalone="no"?>
<svg
   xmlns:dc="http://purl.org/dc/elements/1.1/"
   xmlns:cc="http://creativecommons.org/ns#"
   xmlns:rdf="http://www.w3.org/1999/02/22-rdf-syntax-ns#"
   xmlns:svg="http://www.w3.org/2000/svg"
   xmlns="http://www.w3.org/2000/svg"
   xmlns:sodipodi="http://sodipodi.sourceforge.net/DTD/sodipodi-0.dtd"
   xmlns:inkscape="http://www.inkscape.org/namespaces/inkscape"
   height="44px"
   width="30px"
   version="1.1"
   viewBox="0 0 29.988946 43.988056"
   id="svg16"
   sodipodi:docname="Marketplace.svg"
   inkscape:version="0.92.5 (2060ec1f9f, 2020-04-08)">
  <metadata
     id="metadata20">
    <rdf:RDF>
      <cc:Work
         rdf:about="">
        <dc:format>image/svg+xml</dc:format>
        <dc:type
           rdf:resource="http://purl.org/dc/dcmitype/StillImage" />
        <dc:title />
      </cc:Work>
    </rdf:RDF>
  </metadata>
  <sodipodi:namedview
     pagecolor="#ffffff"
     bordercolor="#666666"
     borderopacity="1"
     objecttolerance="10"
     gridtolerance="10"
     guidetolerance="10"
     inkscape:pageopacity="0"
     inkscape:pageshadow="2"
     inkscape:window-width="1680"
     inkscape:window-height="974"
     id="namedview18"
     showgrid="false"
     inkscape:zoom="8.1357218"
     inkscape:cx="10.19271"
     inkscape:cy="6.363599"
     inkscape:window-x="0"
     inkscape:window-y="0"
     inkscape:window-maximized="1"
     inkscape:current-layer="svg8" />
  <defs
     id="defs7">
    <radialGradient
       id="a"
       gradientUnits="userSpaceOnUse"
       cy="127.6"
       cx="-42.75"
       gradientTransform="matrix(4.2749643,0,0,0.98162997,197.99835,-82.088795)"
       r="2.3840001">
      <stop
         stop-color="#010101"
         offset="0"
         id="stop2" />
      <stop
         stop-opacity="0"
         stop-color="#090909"
         offset="1"
         id="stop4" />
    </radialGradient>
  </defs>
  <g
     id="g26"
     transform="translate(-2.0760358e-7,-1.6181156)">
    <path
       style="fill:#5846c5;stroke-width:4.27539158"
       inkscape:connector-curvature="0"
       id="path9"
       d="m 14.994475,1.7046139 c -8.2386814,0 -14.91684341,6.6781619 -14.91684341,14.9168421 0.008545,2.561815 0.67294669,5.079165 1.93504231,7.306643 L 15.595595,42.53888 27.955752,23.983679 c 1.277915,-2.243725 1.951716,-4.779887 1.955563,-7.362223 C 29.911273,8.3827758 23.233154,1.7046139 14.994475,1.7046139 Z" />
    <circle
       style="fill:#f9f3f3;stroke-width:4.27539158"
       id="circle11"
       r="9.4272394"
       cx="14.994473"
       cy="16.668474" />
    <ellipse
       style="opacity:0.4;fill:url(#a);stroke-width:4.27496433"
       id="ellipse13"
       cx="14.994473"
       cy="43.18018"
       ry="2.3394945"
       rx="10.192533" />
    <rect
       style="fill:none;stroke-width:4.27539158"
       x="8.2585926"
       y="9.8278542"
       width="13.471761"
       height="13.36915"
       ry="0"
       rx="0"
       id="replace" />
    <svg
       version="1.1"
       x="8.5"
       y="10"
       viewBox="0 0 100 100"
       xml:space="preserve"
       id="svg8"
       sodipodi:docname="Marketplace.svg"
       width="100"
       height="100"
       inkscape:version="0.92.5 (2060ec1f9f, 2020-04-08)"><metadata
         id="metadata14"><rdf:RDF><cc:Work
             rdf:about=""><dc:format>image/svg+xml</dc:format><dc:type
               rdf:resource="http://purl.org/dc/dcmitype/StillImage" /><dc:title /></cc:Work></rdf:RDF></metadata><defs
         id="defs12" /><sodipodi:namedview
         pagecolor="#ffffff"
         bordercolor="#666666"
         borderopacity="1"
         objecttolerance="10"
         gridtolerance="10"
         guidetolerance="10"
         inkscape:pageopacity="0"
         inkscape:pageshadow="2"
         inkscape:window-width="691"
         inkscape:window-height="480"
         id="namedview10"
         showgrid="false"
         inkscape:zoom="1.888"
         inkscape:cx="56.620763"
         inkscape:cy="62.5"
         inkscape:window-x="0"
         inkscape:window-y="0"
         inkscape:window-maximized="0"
         inkscape:current-layer="svg8" /><path
         d="m 11.774066,4.4802185 c 0,-0.00125 0,-0.00125 0,-0.0025 0,-0.00501 -0.0013,-0.010054 -0.0013,-0.015087 -0.0012,-0.013829 -0.0025,-0.026399 -0.005,-0.03897 0,-0.00125 0,-0.0025 0,-0.00501 L 11.013545,1.401677 C 10.984632,1.2897986 10.884068,1.2118609 10.768418,1.2118609 H 8.6314152 6.4944125 4.3574092 2.2204065 c -0.1156499,0 -0.2162146,0.077938 -0.2438699,0.1910732 l -0.7542361,3.016945 c 0,0.00125 0,0.0025 0,0.00501 -0.0025,0.012571 -0.00376,0.026399 -0.00501,0.03897 -0.00125,0.00376 -0.0025,0.0088 -0.0025,0.013829 0,0.00125 0,0.00125 0,0.0025 V 4.983012 c 0,0.382147 0.1433052,0.729095 0.3783751,0.995592 0,0.00376 -0.00125,0.00629 -0.00125,0.01006 v 6.285303 c 0,0.138276 0.1131353,0.251412 0.2514123,0.251412 h 1.2570597 2.2627091 4.5254183 1.257061 c 0.138276,0 0.251411,-0.113136 0.251411,-0.251412 V 5.9886908 c 0,-0.00376 -0.0012,-0.00629 -0.0012,-0.010054 0.235069,-0.2664969 0.378373,-0.6134456 0.378373,-0.9955919 z m -0.502824,0.5028239 c 0,0.5543639 -0.451284,1.0056484 -1.005648,1.0056484 -0.5543639,0 -1.0056484,-0.4512845 -1.0056484,-1.0056484 V 4.7316301 h 2.0112964 z m -2.5141203,0 c 0,0.5543639 -0.4512852,1.0056484 -1.0056492,1.0056484 -0.5543633,0 -1.0056484,-0.4512845 -1.0056484,-1.0056484 V 4.7316301 h 2.0112976 z m -2.5141215,0 c 0,0.5543639 -0.4512845,1.0056484 -1.0056484,1.0056484 -0.5543639,0 -1.0056484,-0.4512845 -1.0056484,-1.0056484 V 4.7316301 h 2.0112968 z m -2.5141213,0 c 0,0.5543639 -0.4512845,1.0056484 -1.0056485,1.0056484 -0.5543632,0 -1.0056484,-0.4512845 -1.0056484,-1.0056484 V 4.7316301 H 3.7288789 Z M 11.200847,4.2288063 H 9.2310332 L 8.9167681,1.7146851 h 1.6555489 z m -2.4776665,0 H 6.7458241 V 1.7146851 H 8.4089159 Z M 6.2430002,1.7146851 V 4.2288063 H 4.265644 L 4.5799091,1.7146851 Z m -3.8264926,0 H 4.0720564 L 3.7577912,4.2288063 H 1.7879773 Z M 5.6144699,7.748576 h 4.0225937 v 3.016945 H 5.6144699 Z M 5.1116454,12.022581 H 3.3517608 V 7.748576 h 1.7598846 z m 0.5028245,0 v -0.754236 h 4.0225937 v 0.754236 z m 4.5254171,0 V 7.4971637 c 0,-0.138277 -0.113135,-0.2514122 -0.2514111,-0.2514122 H 5.3630576 3.1003485 c -0.1382764,0 -0.2514122,0.1131352 -0.2514122,0.2514122 V 12.022581 H 2.0947001 V 6.3519813 c 0.1910735,0.087995 0.4035163,0.139534 0.6285303,0.139534 0.5241946,0 0.9867926,-0.269011 1.2570607,-0.6762985 0.2702682,0.4072875 0.7328662,0.6762985 1.2570607,0.6762985 0.5241945,0 0.9867925,-0.269011 1.2570607,-0.6762985 0.2702675,0.4072875 0.7328661,0.6762985 1.25706,0.6762985 0.5241946,0 0.9867933,-0.269011 1.2570608,-0.6762985 0.2702681,0.4072875 0.7328662,0.6762985 1.2570607,0.6762985 0.225014,0 0.437457,-0.050282 0.62853,-0.139534 v 5.6705997 z"
         id="path2"
         inkscape:connector-curvature="0"
         style="stroke-width:0.12570605" /></svg>  </g>
</svg>
