<?xml version="1.0" encoding="UTF-8"?>
<svg xmlns="http://www.w3.org/2000/svg" xmlns:xlink="http://www.w3.org/1999/xlink" width="30px" height="46px" viewBox="0 0 30 46" version="1.1">
<defs>
<clipPath id="clip1">
  <path d="M 7.550781 9 L 22.445312 9 L 22.445312 20 L 7.550781 20 Z M 7.550781 9 "/>
</clipPath>
</defs>
<g id="surface1">
<path style="fill-rule:nonzero;fill:rgb(100%,40.000001%,0%);fill-opacity:1;stroke-width:1;stroke-linecap:round;stroke-linejoin:miter;stroke:rgb(83.137256%,33.333334%,0%);stroke-opacity:1;stroke-miterlimit:4;" d="M 13.040625 0.638587 C 6.25625 0.638587 0.609375 6.287364 0.609375 12.418478 C 0.609375 15.17663 2.224219 18.678668 3.388802 21.097147 L 13 38.828125 L 22.560417 21.097147 C 23.725 18.678668 25.383854 15.353261 25.383854 12.418478 C 25.383854 6.290761 19.828385 0.638587 13.04401 0.638587 Z M 13.040625 2.099185 C 18.934635 2.136549 23.721615 6.756114 23.721615 12.428668 C 23.721615 18.108016 18.938021 22.659647 13.040625 22.700408 C 7.146615 22.663043 2.369792 18.11481 2.369792 12.428668 C 2.369792 6.752717 7.15 2.129755 13.040625 2.099185 Z M 13.040625 2.099185 " transform="matrix(1.153846,0,0,1.15,0,0)"/>
<path style="fill-rule:nonzero;fill:rgb(100%,100%,100%);fill-opacity:1;stroke-width:1.00275;stroke-linecap:butt;stroke-linejoin:miter;stroke:rgb(100%,100%,100%);stroke-opacity:1;stroke-miterlimit:4;" d="M 23.010677 12.374321 C 23.010677 17.703804 18.528385 22.02106 13.003385 22.02106 C 7.478385 22.02106 2.996094 17.703804 2.996094 12.374321 C 2.996094 7.048234 7.478385 2.727582 13.003385 2.727582 C 18.528385 2.727582 23.010677 7.048234 23.010677 12.374321 Z M 23.010677 12.374321 " transform="matrix(1.153846,0,0,1.15,0,0)"/>
<path style=" stroke:none;fill-rule:evenodd;fill:rgb(0%,0%,0%);fill-opacity:1;" d="M 14.910156 13.417969 L 15.085938 13.417969 L 15.085938 13.59375 L 14.910156 13.59375 Z M 14.910156 13.417969 "/>
<path style=" stroke:none;fill-rule:evenodd;fill:rgb(0%,0%,0%);fill-opacity:1;" d="M 15.351562 13.859375 L 15.53125 13.859375 L 15.53125 14.035156 L 15.351562 14.035156 Z M 15.351562 13.859375 "/>
<path style=" stroke:none;fill-rule:evenodd;fill:rgb(0%,0%,0%);fill-opacity:1;" d="M 14.910156 14.300781 L 15.085938 14.300781 L 15.085938 14.480469 L 14.910156 14.480469 Z M 14.910156 14.300781 "/>
<path style=" stroke:none;fill-rule:evenodd;fill:rgb(0%,0%,0%);fill-opacity:1;" d="M 14.464844 13.859375 L 14.644531 13.859375 L 14.644531 14.035156 L 14.464844 14.035156 Z M 14.464844 13.859375 "/>
<g clip-path="url(#clip1)" clip-rule="nonzero">
<path style=" stroke:none;fill-rule:evenodd;fill:rgb(0%,0%,0%);fill-opacity:1;" d="M 22.269531 16.070312 L 22.269531 16.851562 L 19.964844 15.539062 L 17.65625 16.851562 L 17.65625 16.070312 L 17.480469 15.894531 L 17.304688 16.070312 L 17.304688 16.851562 L 16.328125 16.296875 L 16.328125 12.710938 L 16.683594 12.710938 L 16.683594 12.179688 L 16.148438 12.179688 L 16.148438 11.472656 L 16.328125 11.472656 L 16.328125 11.296875 L 16.148438 11.296875 L 14.996094 9.089844 L 13.84375 11.296875 L 13.667969 11.296875 L 13.667969 11.472656 L 13.84375 11.472656 L 13.84375 12.179688 L 13.3125 12.179688 L 13.3125 12.710938 L 13.667969 12.710938 L 13.667969 16.296875 L 12.691406 16.851562 L 12.691406 16.070312 L 12.515625 15.894531 L 12.335938 16.070312 L 12.335938 16.851562 L 10.03125 15.539062 L 7.726562 16.851562 L 7.726562 16.070312 L 7.550781 15.894531 L 7.550781 19.605469 L 7.726562 19.605469 L 7.726562 18.191406 L 8.703125 18.191406 L 8.703125 19.605469 L 8.878906 19.605469 L 8.878906 18.191406 L 9.589844 18.191406 L 9.589844 19.605469 L 9.765625 19.605469 L 9.765625 18.191406 L 10.476562 18.191406 L 10.476562 19.605469 L 10.652344 19.605469 L 10.652344 18.191406 L 11.363281 18.191406 L 11.363281 19.605469 L 11.539062 19.605469 L 11.539062 18.191406 L 12.335938 18.191406 L 12.335938 19.605469 L 12.691406 19.605469 L 12.691406 18.191406 L 13.667969 18.191406 L 13.667969 19.605469 L 14.023438 19.605469 L 14.023438 17.835938 L 15.972656 17.835938 L 15.972656 19.605469 L 16.328125 19.605469 L 16.328125 18.191406 L 17.304688 18.191406 L 17.304688 19.605469 L 17.65625 19.605469 L 17.65625 18.191406 L 18.457031 18.191406 L 18.457031 19.605469 L 18.632812 19.605469 L 18.632812 18.191406 L 19.34375 18.191406 L 19.34375 19.605469 L 19.519531 19.605469 L 19.519531 18.191406 L 20.230469 18.191406 L 20.230469 19.605469 L 20.40625 19.605469 L 20.40625 18.191406 L 21.117188 18.191406 L 21.117188 19.605469 L 21.292969 19.605469 L 21.292969 18.191406 L 22.269531 18.191406 L 22.269531 19.605469 L 22.445312 19.605469 L 22.445312 15.894531 Z M 13.84375 12.535156 L 13.488281 12.535156 L 13.488281 12.359375 L 13.84375 12.359375 Z M 15.441406 11.472656 L 15.972656 11.472656 L 15.972656 12.179688 L 15.441406 12.179688 Z M 15.441406 12.359375 L 15.972656 12.359375 L 15.972656 12.535156 L 15.441406 12.535156 Z M 14.730469 11.472656 L 15.265625 11.472656 L 15.265625 12.179688 L 14.730469 12.179688 Z M 14.730469 12.359375 L 15.265625 12.359375 L 15.265625 12.535156 L 14.730469 12.535156 Z M 14.023438 11.472656 L 14.554688 11.472656 L 14.554688 12.179688 L 14.023438 12.179688 Z M 14.023438 12.359375 L 14.554688 12.359375 L 14.554688 12.535156 L 14.023438 12.535156 Z M 14.109375 15.449219 L 13.933594 15.449219 L 13.933594 14.921875 L 14.109375 14.921875 Z M 14.996094 14.65625 C 14.605469 14.65625 14.289062 14.339844 14.289062 13.949219 C 14.289062 13.558594 14.605469 13.242188 14.996094 13.242188 C 15.390625 13.242188 15.707031 13.558594 15.707031 13.949219 C 15.707031 14.339844 15.390625 14.65625 14.996094 14.65625 Z M 16.0625 15.449219 L 15.882812 15.449219 L 15.882812 14.921875 L 16.0625 14.921875 Z M 16.148438 12.535156 L 16.148438 12.359375 L 16.503906 12.359375 L 16.503906 12.535156 Z M 16.148438 12.535156 "/>
</g>
</g>
</svg>
