<?xml version="1.0" encoding="UTF-8"?>
<svg xmlns="http://www.w3.org/2000/svg" xmlns:xlink="http://www.w3.org/1999/xlink" width="30px" height="46px" viewBox="0 0 30 46" version="1.1">
<defs>
<clipPath id="clip1">
  <path d="M 11 7 L 20 7 L 20 21.769531 L 11 21.769531 Z M 11 7 "/>
</clipPath>
</defs>
<g id="surface1">
<path style="fill-rule:nonzero;fill:rgb(100%,40.000001%,0%);fill-opacity:1;stroke-width:1;stroke-linecap:round;stroke-linejoin:miter;stroke:rgb(83.137256%,33.333334%,0%);stroke-opacity:1;stroke-miterlimit:4;" d="M 13.040625 0.638587 C 6.25625 0.638587 0.609375 6.287364 0.609375 12.418478 C 0.609375 15.17663 2.224219 18.678668 3.388802 21.097147 L 13 38.828125 L 22.560417 21.097147 C 23.725 18.678668 25.383854 15.353261 25.383854 12.418478 C 25.383854 6.290761 19.828385 0.638587 13.04401 0.638587 Z M 13.040625 2.099185 C 18.934635 2.136549 23.721615 6.756114 23.721615 12.428668 C 23.721615 18.108016 18.938021 22.659647 13.040625 22.700408 C 7.146615 22.663043 2.369792 18.11481 2.369792 12.428668 C 2.369792 6.752717 7.15 2.129755 13.040625 2.099185 Z M 13.040625 2.099185 " transform="matrix(1.153846,0,0,1.15,0,0)"/>
<path style="fill-rule:nonzero;fill:rgb(100%,100%,100%);fill-opacity:1;stroke-width:1.00275;stroke-linecap:butt;stroke-linejoin:miter;stroke:rgb(100%,100%,100%);stroke-opacity:1;stroke-miterlimit:4;" d="M 23.010677 12.374321 C 23.010677 17.703804 18.528385 22.02106 13.003385 22.02106 C 7.478385 22.02106 2.996094 17.703804 2.996094 12.374321 C 2.996094 7.048234 7.478385 2.727582 13.003385 2.727582 C 18.528385 2.727582 23.010677 7.048234 23.010677 12.374321 Z M 23.010677 12.374321 " transform="matrix(1.153846,0,0,1.15,0,0)"/>
<g clip-path="url(#clip1)" clip-rule="nonzero">
<path style=" stroke:none;fill-rule:evenodd;fill:rgb(0%,0%,0%);fill-opacity:1;" d="M 18.679688 7.296875 L 11.914062 7.296875 C 11.585938 7.296875 11.320312 7.5625 11.320312 7.886719 L 11.320312 20.925781 C 11.320312 21.25 11.585938 21.515625 11.914062 21.515625 L 18.679688 21.515625 C 19.007812 21.515625 19.273438 21.25 19.273438 20.925781 L 19.273438 7.886719 C 19.273438 7.5625 19.007812 7.296875 18.679688 7.296875 Z M 15.296875 20.765625 C 15.035156 20.765625 14.824219 20.554688 14.824219 20.292969 C 14.824219 20.035156 15.035156 19.824219 15.296875 19.824219 C 15.558594 19.824219 15.769531 20.035156 15.769531 20.292969 C 15.769531 20.554688 15.558594 20.765625 15.296875 20.765625 Z M 18.382812 18.925781 L 12.210938 18.925781 L 12.210938 10.035156 L 18.382812 10.035156 C 18.382812 10.035156 18.382812 18.925781 18.382812 18.925781 Z M 18.382812 18.925781 "/>
</g>
</g>
</svg>
