<?xml version="1.0" encoding="UTF-8" standalone="no"?>
<svg
   xmlns:dc="http://purl.org/dc/elements/1.1/"
   xmlns:cc="http://creativecommons.org/ns#"
   xmlns:rdf="http://www.w3.org/1999/02/22-rdf-syntax-ns#"
   xmlns:svg="http://www.w3.org/2000/svg"
   xmlns="http://www.w3.org/2000/svg"
   xmlns:sodipodi="http://sodipodi.sourceforge.net/DTD/sodipodi-0.dtd"
   xmlns:inkscape="http://www.inkscape.org/namespaces/inkscape"
   height="44px"
   width="30px"
   version="1.1"
   viewBox="0 0 29.988946 43.988056"
   id="svg16"
   sodipodi:docname="Monument.svg"
   inkscape:version="0.92.5 (2060ec1f9f, 2020-04-08)">
  <metadata
     id="metadata20">
    <rdf:RDF>
      <cc:Work
         rdf:about="">
        <dc:format>image/svg+xml</dc:format>
        <dc:type
           rdf:resource="http://purl.org/dc/dcmitype/StillImage" />
        <dc:title />
      </cc:Work>
    </rdf:RDF>
  </metadata>
  <sodipodi:namedview
     pagecolor="#ffffff"
     bordercolor="#666666"
     borderopacity="1"
     objecttolerance="10"
     gridtolerance="10"
     guidetolerance="10"
     inkscape:pageopacity="0"
     inkscape:pageshadow="2"
     inkscape:window-width="1680"
     inkscape:window-height="974"
     id="namedview18"
     showgrid="false"
     inkscape:zoom="11.505648"
     inkscape:cx="4.6152702"
     inkscape:cy="9.1233907"
     inkscape:window-x="0"
     inkscape:window-y="0"
     inkscape:window-maximized="1"
     inkscape:current-layer="svg10" />
  <defs
     id="defs7">
    <radialGradient
       id="a"
       gradientUnits="userSpaceOnUse"
       cy="127.6"
       cx="-42.75"
       gradientTransform="matrix(4.2749643,0,0,0.98162997,197.99835,-82.088795)"
       r="2.3840001">
      <stop
         stop-color="#010101"
         offset="0"
         id="stop2" />
      <stop
         stop-opacity="0"
         stop-color="#090909"
         offset="1"
         id="stop4" />
    </radialGradient>
  </defs>
  <g
     id="g26"
     transform="translate(-2.0760358e-7,-1.6181156)">
    <path
       style="fill:#398DFF;stroke-width:4.27539158"
       inkscape:connector-curvature="0"
       id="path9"
       d="m 14.994475,1.7046139 c -8.2386814,0 -14.91684341,6.6781619 -14.91684341,14.9168421 0.008545,2.561815 0.67294669,5.079165 1.93504231,7.306643 L 15.595595,42.53888 27.955752,23.983679 c 1.277915,-2.243725 1.951716,-4.779887 1.955563,-7.362223 C 29.911273,8.3827758 23.233154,1.7046139 14.994475,1.7046139 Z" />
    <circle
       style="fill:#f9f3f3;stroke-width:4.27539158"
       id="circle11"
       r="9.4272394"
       cx="14.994473"
       cy="16.668474" />
    <ellipse
       style="opacity:0.4;fill:url(#a);stroke-width:4.27496433"
       id="ellipse13"
       cx="14.994473"
       cy="43.18018"
       ry="2.3394945"
       rx="10.192533" />
    <rect
       style="fill:none;stroke-width:4.27539158"
       x="8.2585926"
       y="9.8278542"
       width="13.471761"
       height="13.36915"
       ry="0"
       rx="0"
       id="replace" />
    <svg
       data-name="Layer 1"
       viewBox="0 0 100 100"
       x="8.5"
       y="10"
       version="1.1"
       id="svg10"
       sodipodi:docname="Monument.svg"
       width="100"
       height="100"
       inkscape:version="0.92.5 (2060ec1f9f, 2020-04-08)">
      <metadata
         id="metadata16">
        <rdf:RDF>
          <cc:Work
             rdf:about="">
            <dc:format>image/svg+xml</dc:format>
            <dc:type
               rdf:resource="http://purl.org/dc/dcmitype/StillImage" />
            <dc:title>city elements solid ai</dc:title>
          </cc:Work>
        </rdf:RDF>
      </metadata>
      <defs
         id="defs14" />
      <sodipodi:namedview
         pagecolor="#ffffff"
         bordercolor="#666666"
         borderopacity="1"
         objecttolerance="10"
         gridtolerance="10"
         guidetolerance="10"
         inkscape:pageopacity="0"
         inkscape:pageshadow="2"
         inkscape:window-width="691"
         inkscape:window-height="480"
         id="namedview12"
         showgrid="false"
         inkscape:zoom="1.475"
         inkscape:cx="72.474576"
         inkscape:cy="80"
         inkscape:window-x="0"
         inkscape:window-y="0"
         inkscape:window-maximized="0"
         inkscape:current-layer="svg10" />
      <title
         id="title2">city elements solid ai</title>
      <path
         d="M 11.922474,13.11376 H 10.619029 A 11.658414,11.658414 0 0 1 9.0633564,10.60437 0.7080594,0.7080594 0 0 0 8.8544882,9.2197777 H 8.4990061 A 19.49542,19.49542 0 0 1 7.9116153,7.2136689 0.23594231,0.23594231 0 0 0 7.9104653,6.7417887 H 7.80535 A 26.871549,26.871549 0 0 1 7.2348338,1.5498117 h 0.026628 a 0.23599902,0.23599902 0 0 0 0,-0.471998 h -0.025548 c 9.731e-4,-0.059043 0.00212,-0.10434456 0.00292,-0.13384455 L 7.4884491,0.35086008 a 0.23596001,0.23596001 0 0 0 -0.072194,-0.2774828 l -0.685758,-0.5358945 V -1.2821758 a 0.23599896,0.23599896 0 0 0 -0.4719978,0 v 0.84030018 l -0.6448485,0.5170972 a 0.2359671,0.2359671 0 0 0 -0.074036,0.2650953 l 0.224245,0.61367751 c 0.00177,0.0418738 0.00212,0.0821693 0.00363,0.12381931 h -0.040013 a 0.23599902,0.23599902 0 0 0 0,0.471998 h 0.053946 A 21.876759,21.876759 0 0 1 5.2897964,6.7417887 H 5.0784796 a 0.23599896,0.23599896 0 0 0 0,0.4719978 h 0.099822 A 17.766132,17.766132 0 0 1 4.5516736,9.2197777 H 4.1344832 A 0.70762045,0.70762045 0 0 0 3.9495783,10.610534 13.144245,13.144245 0 0 1 2.3710987,13.11376 H 1.0664972 a 0.23599933,0.23599933 0 0 0 0,0.471998 H 11.922449 a 0.23599933,0.23599933 0 0 0 0,-0.471998 z M 6.2541857,1.5498117 h 0.5047606 c 0.00195,0.4950077 0.022134,1.2337222 0.098993,2.1239904 h -0.656149 c 0.046249,-0.6736932 0.06649,-1.3802928 0.052398,-2.1239904 z M 5.6637817,7.2137865 H 7.4103199 A 19.977815,19.977815 0 0 0 7.9862953,9.2197777 H 5.0542845 A 18.384245,18.384245 0 0 0 5.6637817,7.2137865 Z M 5.0794491,13.11376 a 1.4150539,1.4150539 0 1 1 2.8301077,0 z M 8.8544882,10.163773 H 4.1345088 a 0.23599896,0.23599896 0 0 1 0,-0.4719976 h 4.7199794 a 0.23599896,0.23599896 0 0 1 0,0.4719976 z"
         id="path4"
         inkscape:connector-curvature="0"
         style="stroke-width:0.11799947" />
    </svg>
  </g>
</svg>
