<?xml version="1.0" encoding="UTF-8"?>
<svg xmlns="http://www.w3.org/2000/svg" xmlns:xlink="http://www.w3.org/1999/xlink" width="30px" height="46px" viewBox="0 0 30 46" version="1.1">
<defs>
<clipPath id="clip1">
  <path d="M 11 19 L 17 19 L 17 21.769531 L 11 21.769531 Z M 11 19 "/>
</clipPath>
<clipPath id="clip2">
  <path d="M 14 6.921875 L 19 6.921875 L 19 8 L 14 8 Z M 14 6.921875 "/>
</clipPath>
</defs>
<g id="surface1">
<path style="fill-rule:nonzero;fill:rgb(100%,40.000001%,0%);fill-opacity:1;stroke-width:1;stroke-linecap:round;stroke-linejoin:miter;stroke:rgb(83.137256%,33.333334%,0%);stroke-opacity:1;stroke-miterlimit:4;" d="M 13.040625 0.638587 C 6.25625 0.638587 0.609375 6.287364 0.609375 12.418478 C 0.609375 15.17663 2.224219 18.678668 3.388802 21.097147 L 13 38.828125 L 22.560417 21.097147 C 23.725 18.678668 25.383854 15.353261 25.383854 12.418478 C 25.383854 6.290761 19.828385 0.638587 13.04401 0.638587 Z M 13.040625 2.099185 C 18.934635 2.136549 23.721615 6.756114 23.721615 12.428668 C 23.721615 18.108016 18.938021 22.659647 13.040625 22.700408 C 7.146615 22.663043 2.369792 18.11481 2.369792 12.428668 C 2.369792 6.752717 7.15 2.129755 13.040625 2.099185 Z M 13.040625 2.099185 " transform="matrix(1.153846,0,0,1.15,0,0)"/>
<path style="fill-rule:nonzero;fill:rgb(100%,100%,100%);fill-opacity:1;stroke-width:1.00275;stroke-linecap:butt;stroke-linejoin:miter;stroke:rgb(100%,100%,100%);stroke-opacity:1;stroke-miterlimit:4;" d="M 23.010677 12.374321 C 23.010677 17.703804 18.528385 22.02106 13.003385 22.02106 C 7.478385 22.02106 2.996094 17.703804 2.996094 12.374321 C 2.996094 7.048234 7.478385 2.727582 13.003385 2.727582 C 18.528385 2.727582 23.010677 7.048234 23.010677 12.374321 Z M 23.010677 12.374321 " transform="matrix(1.153846,0,0,1.15,0,0)"/>
<g clip-path="url(#clip1)" clip-rule="nonzero">
<path style=" stroke:none;fill-rule:nonzero;fill:rgb(0%,0%,0%);fill-opacity:1;" d="M 11.402344 21.769531 L 11.777344 21.769531 L 11.9375 20.65625 C 11.976562 20.410156 12.203125 20.242188 12.453125 20.277344 C 12.699219 20.316406 12.867188 20.542969 12.832031 20.789062 L 12.6875 21.765625 L 12.910156 21.765625 L 13.054688 20.820312 C 13.09375 20.574219 13.320312 20.40625 13.570312 20.441406 C 13.816406 20.480469 13.984375 20.710938 13.949219 20.957031 L 13.828125 21.765625 L 14.050781 21.765625 L 14.167969 20.992188 C 14.207031 20.746094 14.4375 20.574219 14.683594 20.613281 C 14.929688 20.648438 15.101562 20.878906 15.066406 21.125 L 14.96875 21.765625 L 15.191406 21.765625 L 15.285156 21.15625 C 15.324219 20.910156 15.554688 20.742188 15.800781 20.777344 C 16.046875 20.816406 16.21875 21.042969 16.183594 21.292969 L 16.109375 21.765625 L 16.484375 21.765625 L 16.71875 20.222656 L 11.746094 19.480469 Z M 11.402344 21.769531 "/>
</g>
<path style=" stroke:none;fill-rule:nonzero;fill:rgb(0%,0%,0%);fill-opacity:1;" d="M 17.097656 19.832031 L 16.785156 19.785156 L 11.8125 19.042969 L 11.5 18.996094 L 11.453125 19.289062 L 11.765625 19.335938 L 16.738281 20.078125 L 17.050781 20.128906 Z M 17.097656 19.832031 "/>
<path style=" stroke:none;fill-rule:nonzero;fill:rgb(0%,0%,0%);fill-opacity:1;" d="M 16.804688 19.617188 L 17.015625 18.21875 L 12.042969 17.476562 L 11.832031 18.875 L 12.164062 18.925781 L 12.304688 17.996094 C 12.316406 17.910156 12.398438 17.855469 12.480469 17.867188 C 12.566406 17.878906 12.621094 17.960938 12.609375 18.042969 L 12.46875 18.972656 L 12.667969 19.003906 L 12.804688 18.074219 C 12.820312 17.988281 12.898438 17.933594 12.980469 17.945312 C 13.066406 17.957031 13.121094 18.039062 13.109375 18.121094 L 12.96875 19.050781 L 13.167969 19.078125 L 13.308594 18.148438 C 13.320312 18.066406 13.398438 18.011719 13.484375 18.023438 C 13.566406 18.035156 13.621094 18.113281 13.609375 18.199219 L 13.46875 19.128906 L 13.667969 19.15625 L 13.808594 18.226562 C 13.820312 18.144531 13.898438 18.085938 13.984375 18.097656 C 14.066406 18.113281 14.125 18.191406 14.109375 18.273438 L 13.972656 19.203125 L 14.167969 19.234375 L 14.308594 18.304688 C 14.320312 18.222656 14.398438 18.164062 14.484375 18.175781 C 14.566406 18.1875 14.625 18.269531 14.613281 18.351562 L 14.472656 19.28125 L 14.667969 19.3125 L 14.808594 18.382812 C 14.820312 18.296875 14.902344 18.242188 14.984375 18.253906 C 15.066406 18.265625 15.125 18.347656 15.113281 18.429688 L 14.972656 19.359375 L 15.167969 19.390625 L 15.308594 18.460938 C 15.320312 18.375 15.402344 18.320312 15.484375 18.332031 C 15.566406 18.34375 15.625 18.421875 15.613281 18.507812 L 15.472656 19.4375 L 15.667969 19.464844 L 15.808594 18.535156 C 15.820312 18.453125 15.902344 18.398438 15.984375 18.410156 C 16.070312 18.421875 16.125 18.5 16.113281 18.585938 L 15.972656 19.511719 L 16.167969 19.542969 L 16.308594 18.613281 C 16.320312 18.53125 16.402344 18.472656 16.484375 18.484375 C 16.570312 18.496094 16.625 18.578125 16.613281 18.660156 L 16.472656 19.566406 Z M 16.804688 19.617188 "/>
<path style=" stroke:none;fill-rule:nonzero;fill:rgb(0%,0%,0%);fill-opacity:1;" d="M 14.40625 8.171875 C 14.417969 8.085938 14.5 8.027344 14.582031 8.042969 C 14.664062 8.054688 14.726562 8.132812 14.710938 8.21875 L 14.566406 9.160156 L 15.195312 9.257812 L 15.339844 8.3125 C 15.351562 8.230469 15.429688 8.171875 15.515625 8.183594 C 15.597656 8.195312 15.65625 8.277344 15.644531 8.359375 L 15.5 9.304688 L 16.128906 9.398438 L 16.273438 8.457031 C 16.285156 8.371094 16.363281 8.3125 16.445312 8.328125 C 16.53125 8.339844 16.589844 8.417969 16.574219 8.503906 L 16.433594 9.445312 L 17.0625 9.542969 L 17.203125 8.597656 C 17.214844 8.515625 17.296875 8.457031 17.378906 8.46875 C 17.460938 8.480469 17.523438 8.5625 17.507812 8.644531 L 17.363281 9.589844 L 17.664062 9.632812 L 17.914062 7.964844 L 14.214844 7.40625 L 13.964844 9.074219 L 14.261719 9.117188 Z M 16.785156 8.183594 C 16.796875 8.097656 16.878906 8.039062 16.960938 8.054688 C 17.046875 8.066406 17.105469 8.144531 17.089844 8.230469 L 17.0625 8.414062 L 16.761719 8.367188 Z M 15.855469 8.046875 C 15.867188 7.960938 15.945312 7.902344 16.03125 7.917969 C 16.113281 7.929688 16.171875 8.007812 16.15625 8.09375 L 16.132812 8.277344 L 15.828125 8.230469 Z M 14.921875 7.90625 C 14.933594 7.824219 15.015625 7.761719 15.097656 7.777344 C 15.179688 7.789062 15.242188 7.871094 15.226562 7.953125 L 15.199219 8.136719 L 14.894531 8.09375 Z M 14.921875 7.90625 "/>
<g clip-path="url(#clip2)" clip-rule="nonzero">
<path style=" stroke:none;fill-rule:nonzero;fill:rgb(0%,0%,0%);fill-opacity:1;" d="M 14.03125 6.921875 L 14.085938 7.234375 L 18.085938 7.832031 L 18.230469 7.550781 Z M 14.03125 6.921875 "/>
</g>
<path style=" stroke:none;fill-rule:nonzero;fill:rgb(0%,0%,0%);fill-opacity:1;" d="M 18.292969 11.898438 L 17.976562 11.847656 L 13.007812 11.105469 L 12.691406 11.058594 L 12.648438 11.351562 L 12.960938 11.402344 L 17.933594 12.144531 L 18.246094 12.191406 Z M 18.292969 11.898438 "/>
<path style=" stroke:none;fill-rule:nonzero;fill:rgb(0%,0%,0%);fill-opacity:1;" d="M 18 11.683594 L 18.210938 10.285156 L 13.238281 9.542969 L 13.027344 10.941406 L 13.359375 10.992188 L 13.5 10.050781 C 13.511719 9.964844 13.59375 9.910156 13.675781 9.921875 C 13.757812 9.933594 13.816406 10.015625 13.804688 10.097656 L 13.664062 11.039062 L 13.859375 11.066406 L 14 10.125 C 14.011719 10.042969 14.09375 9.988281 14.175781 10 C 14.261719 10.011719 14.316406 10.089844 14.304688 10.175781 L 14.164062 11.117188 L 14.363281 11.144531 L 14.5 10.203125 C 14.511719 10.121094 14.59375 10.0625 14.675781 10.074219 C 14.761719 10.089844 14.816406 10.167969 14.804688 10.25 L 14.664062 11.191406 L 14.863281 11.222656 L 15.003906 10.28125 C 15.015625 10.199219 15.09375 10.140625 15.179688 10.152344 C 15.261719 10.164062 15.316406 10.246094 15.304688 10.328125 L 15.164062 11.269531 L 15.363281 11.300781 L 15.503906 10.359375 C 15.515625 10.273438 15.59375 10.21875 15.679688 10.230469 C 15.761719 10.242188 15.816406 10.324219 15.804688 10.40625 L 15.667969 11.347656 L 15.863281 11.375 L 16.003906 10.4375 C 16.015625 10.351562 16.097656 10.296875 16.179688 10.308594 C 16.261719 10.320312 16.320312 10.398438 16.308594 10.484375 L 16.167969 11.425781 L 16.363281 11.453125 L 16.503906 10.511719 C 16.515625 10.429688 16.597656 10.375 16.679688 10.386719 C 16.761719 10.398438 16.820312 10.476562 16.808594 10.558594 L 16.667969 11.5 L 16.863281 11.53125 L 17.003906 10.589844 C 17.015625 10.507812 17.097656 10.449219 17.179688 10.460938 C 17.261719 10.476562 17.320312 10.554688 17.308594 10.636719 L 17.167969 11.578125 L 17.363281 11.609375 L 17.503906 10.667969 C 17.515625 10.585938 17.597656 10.527344 17.679688 10.539062 C 17.765625 10.550781 17.820312 10.632812 17.808594 10.714844 L 17.664062 11.632812 Z M 18 11.683594 "/>
<path style=" stroke:none;fill-rule:nonzero;fill:rgb(0%,0%,0%);fill-opacity:1;" d="M 17.703125 13.671875 L 17.914062 12.273438 L 12.941406 11.53125 L 12.730469 12.929688 L 13.0625 12.980469 L 13.203125 12.042969 C 13.214844 11.957031 13.292969 11.902344 13.378906 11.914062 C 13.460938 11.925781 13.519531 12.007812 13.507812 12.089844 L 13.367188 13.027344 L 13.5625 13.058594 L 13.703125 12.121094 C 13.714844 12.035156 13.796875 11.980469 13.878906 11.992188 C 13.960938 12.003906 14.019531 12.082031 14.007812 12.167969 L 13.867188 13.105469 L 14.0625 13.132812 L 14.203125 12.195312 C 14.214844 12.113281 14.296875 12.058594 14.378906 12.070312 C 14.460938 12.082031 14.519531 12.160156 14.507812 12.242188 L 14.367188 13.183594 L 14.5625 13.210938 L 14.703125 12.273438 C 14.714844 12.191406 14.796875 12.132812 14.878906 12.144531 C 14.964844 12.15625 15.019531 12.238281 15.007812 12.320312 L 14.867188 13.257812 L 15.0625 13.289062 L 15.203125 12.351562 C 15.214844 12.269531 15.296875 12.210938 15.378906 12.222656 C 15.464844 12.234375 15.519531 12.316406 15.507812 12.398438 L 15.367188 13.335938 L 15.566406 13.367188 L 15.703125 12.429688 C 15.71875 12.34375 15.796875 12.289062 15.878906 12.300781 C 15.964844 12.3125 16.019531 12.394531 16.007812 12.476562 L 15.867188 13.40625 L 16.066406 13.433594 L 16.207031 12.496094 C 16.21875 12.414062 16.296875 12.355469 16.382812 12.367188 C 16.464844 12.382812 16.519531 12.460938 16.507812 12.542969 L 16.371094 13.484375 L 16.566406 13.511719 L 16.707031 12.574219 C 16.71875 12.492188 16.796875 12.433594 16.882812 12.445312 C 16.964844 12.457031 17.023438 12.539062 17.007812 12.621094 L 16.871094 13.558594 L 17.066406 13.589844 L 17.207031 12.652344 C 17.21875 12.566406 17.296875 12.511719 17.382812 12.523438 C 17.464844 12.535156 17.523438 12.617188 17.511719 12.699219 L 17.367188 13.621094 Z M 17.703125 13.671875 "/>
<path style=" stroke:none;fill-rule:nonzero;fill:rgb(0%,0%,0%);fill-opacity:1;" d="M 18.546875 10.207031 L 18.59375 9.914062 L 16.070312 9.535156 L 13.945312 9.21875 L 12.992188 9.074219 L 12.949219 9.371094 L 13.261719 9.417969 L 18.234375 10.160156 Z M 18.546875 10.207031 "/>
<path style=" stroke:none;fill-rule:nonzero;fill:rgb(0%,0%,0%);fill-opacity:1;" d="M 17.992188 13.878906 L 17.679688 13.832031 L 12.707031 13.089844 L 12.394531 13.042969 L 12.351562 13.335938 L 12.664062 13.382812 L 17.636719 14.125 L 17.949219 14.175781 Z M 17.992188 13.878906 "/>
<path style=" stroke:none;fill-rule:nonzero;fill:rgb(0%,0%,0%);fill-opacity:1;" d="M 17.105469 17.652344 L 17.316406 16.253906 L 12.34375 15.511719 L 12.132812 16.910156 L 12.464844 16.960938 L 12.605469 16.019531 C 12.617188 15.9375 12.699219 15.882812 12.78125 15.894531 C 12.867188 15.90625 12.921875 15.984375 12.910156 16.070312 L 12.769531 16.988281 L 12.96875 17.015625 L 13.105469 16.078125 C 13.117188 15.992188 13.199219 15.9375 13.28125 15.949219 C 13.367188 15.960938 13.421875 16.042969 13.410156 16.125 L 13.269531 17.0625 L 13.46875 17.09375 L 13.609375 16.15625 C 13.621094 16.070312 13.699219 16.015625 13.785156 16.027344 C 13.867188 16.039062 13.921875 16.117188 13.910156 16.203125 L 13.773438 17.140625 L 13.96875 17.171875 L 14.109375 16.230469 C 14.121094 16.148438 14.199219 16.09375 14.285156 16.105469 C 14.367188 16.117188 14.425781 16.195312 14.414062 16.28125 L 14.273438 17.21875 L 14.46875 17.246094 L 14.609375 16.308594 C 14.621094 16.226562 14.703125 16.167969 14.785156 16.179688 C 14.867188 16.195312 14.925781 16.273438 14.914062 16.355469 L 14.773438 17.296875 L 14.96875 17.324219 L 15.109375 16.386719 C 15.121094 16.304688 15.203125 16.246094 15.285156 16.257812 C 15.367188 16.269531 15.425781 16.351562 15.414062 16.433594 L 15.273438 17.371094 L 15.46875 17.402344 L 15.609375 16.464844 C 15.621094 16.378906 15.703125 16.324219 15.785156 16.335938 C 15.867188 16.347656 15.925781 16.429688 15.914062 16.511719 L 15.773438 17.449219 L 15.96875 17.480469 L 16.109375 16.542969 C 16.121094 16.457031 16.203125 16.402344 16.285156 16.414062 C 16.371094 16.425781 16.425781 16.503906 16.414062 16.589844 L 16.273438 17.527344 L 16.472656 17.554688 L 16.609375 16.617188 C 16.621094 16.535156 16.703125 16.480469 16.785156 16.492188 C 16.871094 16.503906 16.925781 16.582031 16.914062 16.664062 L 16.773438 17.601562 Z M 17.105469 17.652344 "/>
<path style=" stroke:none;fill-rule:nonzero;fill:rgb(0%,0%,0%);fill-opacity:1;" d="M 17.398438 15.648438 L 17.613281 14.25 L 12.640625 13.507812 L 12.429688 14.90625 L 12.761719 14.953125 L 12.902344 14.027344 C 12.914062 13.945312 12.992188 13.886719 13.078125 13.902344 C 13.160156 13.914062 13.21875 13.992188 13.207031 14.074219 L 13.066406 15.003906 L 13.261719 15.03125 L 13.402344 14.105469 C 13.414062 14.023438 13.496094 13.964844 13.578125 13.976562 C 13.660156 13.988281 13.71875 14.070312 13.707031 14.152344 L 13.566406 15.078125 L 13.761719 15.109375 L 13.902344 14.183594 C 13.914062 14.097656 13.996094 14.042969 14.078125 14.054688 C 14.160156 14.066406 14.21875 14.148438 14.207031 14.230469 L 14.066406 15.15625 L 14.261719 15.1875 L 14.402344 14.261719 C 14.414062 14.175781 14.496094 14.121094 14.578125 14.132812 C 14.664062 14.144531 14.71875 14.222656 14.707031 14.308594 L 14.566406 15.234375 L 14.761719 15.265625 L 14.902344 14.335938 C 14.914062 14.253906 14.996094 14.199219 15.078125 14.210938 C 15.164062 14.222656 15.21875 14.300781 15.207031 14.382812 L 15.066406 15.3125 L 15.265625 15.339844 L 15.402344 14.414062 C 15.414062 14.332031 15.496094 14.273438 15.578125 14.285156 C 15.664062 14.296875 15.71875 14.378906 15.707031 14.460938 L 15.566406 15.386719 L 15.765625 15.417969 L 15.90625 14.492188 C 15.917969 14.410156 15.996094 14.351562 16.082031 14.363281 C 16.164062 14.375 16.21875 14.457031 16.207031 14.539062 L 16.066406 15.464844 L 16.265625 15.496094 L 16.40625 14.570312 C 16.417969 14.484375 16.496094 14.429688 16.582031 14.441406 C 16.664062 14.453125 16.71875 14.535156 16.707031 14.617188 L 16.570312 15.542969 L 16.765625 15.574219 L 16.90625 14.644531 C 16.917969 14.5625 16.996094 14.507812 17.082031 14.519531 C 17.164062 14.53125 17.222656 14.609375 17.210938 14.695312 L 17.066406 15.597656 Z M 17.398438 15.648438 "/>
<path style=" stroke:none;fill-rule:nonzero;fill:rgb(0%,0%,0%);fill-opacity:1;" d="M 17.398438 17.847656 L 17.085938 17.800781 L 12.113281 17.058594 L 11.800781 17.011719 L 11.753906 17.304688 L 12.066406 17.351562 L 17.039062 18.09375 L 17.351562 18.140625 Z M 17.398438 17.847656 "/>
<path style=" stroke:none;fill-rule:nonzero;fill:rgb(0%,0%,0%);fill-opacity:1;" d="M 17.695312 15.863281 L 17.382812 15.816406 L 12.410156 15.074219 L 12.097656 15.027344 L 12.054688 15.320312 L 12.367188 15.367188 L 17.335938 16.109375 L 17.652344 16.15625 Z M 17.695312 15.863281 "/>
</g>
</svg>
