<?xml version="1.0" encoding="UTF-8" standalone="no"?>
<svg xmlns="http://www.w3.org/2000/svg" height="40" width="26" version="1.1" xmlns:xlink="http://www.w3.org/1999/xlink">
 <path d="m13.04 0.6387c-6.783 0-12.43 5.649-12.43 11.78 0 2.757 1.613 6.26 2.779 8.68l9.611 17.73 9.56-17.73c1.166-2.42 2.824-5.747 2.824-8.68 0-6.128-5.555-11.78-12.34-11.78zm0 1.461c5.895 0.0373 10.68 4.656 10.68 10.33 0 5.678-4.781 10.23-10.68 10.27-5.895-0.0373-10.67-4.585-10.67-10.27 0-5.678 4.779-10.3 10.67-10.33z" stroke="#d45500" stroke-linecap="round" fill="#f60"/>
  <ellipse
     style="fill:#ffffff;stroke:#ffffff;stroke-width:1.00274992"
     id="path13"
     cx="13.003574"
     cy="12.374899"
     rx="10.005984"
     ry="9.6464386" />
<svg
   xmlns:dc="http://purl.org/dc/elements/1.1/"
   xmlns:cc="http://creativecommons.org/ns#"
   xmlns:rdf="http://www.w3.org/1999/02/22-rdf-syntax-ns#"
   xmlns:svg="http://www.w3.org/2000/svg"
   xmlns="http://www.w3.org/2000/svg"
   xmlns:sodipodi="http://sodipodi.sourceforge.net/DTD/sodipodi-0.dtd"
   xmlns:inkscape="http://www.inkscape.org/namespaces/inkscape"
   version="1.1"
   x="6.543"
   y="6.02"
   viewBox="-120 78.1 40.956999 84.869997"
   xml:space="preserve"
   id="svg2"
   inkscape:version="0.48.4 r9939"
   width="12.91"
   height="12.91"
   sodipodi:docname="Castle.svg"><metadata
     id="metadata18"><rdf:RDF><cc:Work
         rdf:about=""><dc:format>image/svg+xml</dc:format><dc:type
           rdf:resource="http://purl.org/dc/dcmitype/StillImage" /><dc:title></dc:title></cc:Work></rdf:RDF></metadata><defs
     id="defs16" /><sodipodi:namedview
     pagecolor="#ffffff"
     bordercolor="#666666"
     borderopacity="1"
     objecttolerance="10"
     gridtolerance="10"
     guidetolerance="10"
     inkscape:pageopacity="0"
     inkscape:pageshadow="2"
     inkscape:window-width="725"
     inkscape:window-height="735"
     id="namedview14"
     showgrid="false"
     fit-margin-top="0"
     fit-margin-left="0"
     fit-margin-right="0"
     fit-margin-bottom="0"
     inkscape:zoom="2.6700352"
     inkscape:cx="19.957638"
     inkscape:cy="44.889775"
     inkscape:window-x="137"
     inkscape:window-y="103"
     inkscape:window-maximized="0"
     inkscape:current-layer="g3451" /><g
     id="g3032"
     transform="translate(-142.37958,82.481022)"><g
       id="g3082"
       transform="translate(-11.778449,-19.681681)"><g
         id="g3297"
         transform="translate(113.35527,48.840676)"><g
           id="g3451"
           transform="translate(-110.35024,-41.106017)"><g
             id="g3409"><g
               id="g3411"><path
                 id="path3413"
                 d="m 31.153,92.436 h 2.138 l 0.899,-6.365 c 0.221,-1.408 1.528,-2.377 2.937,-2.172 1.409,0.221 2.376,1.527 2.173,2.936 l -0.832,5.586 h 1.274 l 0.813,-5.4 c 0.222,-1.408 1.528,-2.375 2.938,-2.172 1.409,0.219 2.376,1.527 2.172,2.938 l -0.697,4.635 h 1.273 l 0.663,-4.432 c 0.22,-1.41 1.527,-2.377 2.936,-2.174 1.409,0.221 2.376,1.527 2.172,2.938 L 51.47,92.42 h 1.274 l 0.525,-3.482 c 0.221,-1.408 1.528,-2.375 2.937,-2.172 1.409,0.221 2.376,1.527 2.173,2.938 l -0.407,2.717 h 2.138 l 1.324,-8.83 -28.329,-4.24 -1.952,13.085 z"
                 inkscape:connector-curvature="0" /><polygon
                 id="polygon3415"
                 points="63.589,81.369 61.807,81.096 33.478,76.854 31.696,76.582 31.44,78.262 33.223,78.533 61.552,82.777 63.335,83.049 " /><path
                 id="path3417"
                 d="m 61.925,80.129 1.207,-7.996 -28.331,-4.242 -1.204,7.996 1.901,0.287 0.797,-5.313 c 0.068,-0.477 0.526,-0.797 1.001,-0.73 0.476,0.068 0.798,0.527 0.73,1.002 l -0.797,5.313 1.121,0.17 0.797,-5.313 c 0.068,-0.475 0.526,-0.799 1.001,-0.73 0.476,0.068 0.797,0.527 0.73,1.002 l -0.799,5.313 1.122,0.17 0.797,-5.313 c 0.068,-0.477 0.526,-0.799 1.002,-0.73 0.475,0.068 0.797,0.527 0.729,1.002 l -0.798,5.313 1.122,0.17 0.796,-5.313 c 0.069,-0.475 0.527,-0.799 1.002,-0.73 0.476,0.068 0.798,0.527 0.73,1.002 l -0.798,5.313 1.122,0.17 0.796,-5.313 c 0.069,-0.477 0.527,-0.797 1.002,-0.73 0.475,0.068 0.797,0.527 0.729,1.002 l -0.798,5.313 1.12,0.172 0.797,-5.314 c 0.068,-0.477 0.527,-0.799 1.001,-0.73 0.477,0.068 0.799,0.527 0.731,1.002 l -0.799,5.313 1.121,0.17 0.798,-5.314 c 0.068,-0.475 0.526,-0.795 1.002,-0.729 0.475,0.068 0.798,0.525 0.73,1 l -0.798,5.314 1.121,0.17 0.797,-5.314 c 0.068,-0.475 0.527,-0.795 1.002,-0.729 0.475,0.068 0.798,0.525 0.73,1.002 l -0.798,5.311 1.12,0.172 0.798,-5.314 c 0.068,-0.475 0.526,-0.797 1.001,-0.729 0.475,0.066 0.798,0.527 0.731,1.002 l -0.815,5.176 1.901,0.284 z"
                 inkscape:connector-curvature="0" /><path
                 id="path3419"
                 d="m 48.262,14.695 c 0.067,-0.475 0.526,-0.816 1.001,-0.732 0.475,0.07 0.814,0.527 0.729,1.004 l -0.814,5.396 3.582,0.543 0.815,-5.396 c 0.068,-0.477 0.526,-0.814 1.002,-0.73 0.475,0.068 0.813,0.525 0.729,1.002 l -0.814,5.398 3.582,0.541 0.815,-5.396 c 0.068,-0.475 0.525,-0.814 1.001,-0.73 0.475,0.068 0.814,0.527 0.729,1.002 l -0.814,5.396 3.58,0.543 0.815,-5.396 c 0.068,-0.475 0.526,-0.814 1.001,-0.73 0.475,0.068 0.815,0.525 0.73,1.002 l -0.814,5.398 1.697,0.254 1.426,-9.539 -21.065,-3.207 -1.425,9.539 1.698,0.254 0.814,-5.416 z m 13.563,0.067 c 0.067,-0.475 0.526,-0.814 1.001,-0.729 0.475,0.066 0.815,0.525 0.729,1 l -0.153,1.053 -1.731,-0.254 0.154,-1.07 z M 56.512,13.98 c 0.067,-0.475 0.525,-0.813 1.001,-0.729 0.475,0.068 0.814,0.525 0.729,1.002 l -0.153,1.051 -1.731,-0.271 0.154,-1.053 z m -5.313,-0.796 c 0.067,-0.475 0.526,-0.814 1.001,-0.73 0.475,0.068 0.814,0.525 0.729,1.002 l -0.152,1.053 -1.732,-0.254 0.154,-1.071 z"
                 inkscape:connector-curvature="0" /><polygon
                 id="polygon3421"
                 points="46.124,7.566 46.43,9.348 69.225,12.758 70.04,11.148 " /><polygon
                 id="polygon3423"
                 points="70.396,35.998 68.614,35.725 40.285,31.482 38.502,31.211 38.248,32.891 40.029,33.162 68.359,37.406 70.141,37.678 " /><path
                 id="path3425"
                 d="m 68.733,34.775 1.205,-7.996 -28.329,-4.244 -1.206,7.996 1.901,0.289 0.798,-5.381 c 0.068,-0.477 0.526,-0.799 1.001,-0.729 0.475,0.064 0.797,0.525 0.729,1 l -0.797,5.381 1.121,0.17 0.797,-5.381 c 0.069,-0.477 0.527,-0.799 1.002,-0.73 0.475,0.069 0.798,0.527 0.729,1.002 l -0.797,5.379 1.121,0.172 0.798,-5.383 c 0.067,-0.475 0.526,-0.797 1.001,-0.729 0.476,0.068 0.797,0.527 0.729,1 l -0.798,5.383 1.121,0.17 0.798,-5.381 c 0.068,-0.477 0.527,-0.799 1.001,-0.73 0.476,0.068 0.797,0.525 0.729,1.002 l -0.797,5.381 1.121,0.17 0.798,-5.381 c 0.068,-0.477 0.526,-0.797 1.002,-0.73 0.475,0.066 0.796,0.525 0.729,1 l -0.797,5.381 1.121,0.17 0.797,-5.379 c 0.068,-0.477 0.527,-0.799 1.002,-0.73 0.475,0.069 0.797,0.525 0.729,1.002 l -0.797,5.381 1.121,0.17 0.797,-5.383 c 0.069,-0.475 0.527,-0.797 1.003,-0.73 0.474,0.07 0.796,0.529 0.729,1.002 l -0.798,5.381 1.121,0.172 0.797,-5.381 c 0.069,-0.477 0.526,-0.799 1.001,-0.73 0.475,0.069 0.798,0.525 0.73,1 l -0.797,5.383 1.121,0.168 0.797,-5.381 c 0.068,-0.475 0.526,-0.797 1.001,-0.729 0.476,0.066 0.798,0.527 0.73,1.002 l -0.815,5.244 1.9,0.287 z"
                 inkscape:connector-curvature="0" /><path
                 id="path3427"
                 d="m 67.036,46.146 1.205,-7.994 -28.33,-4.242 -1.205,7.992 1.901,0.291 0.797,-5.365 c 0.068,-0.475 0.526,-0.799 1.001,-0.73 0.476,0.068 0.798,0.527 0.73,1.002 l -0.798,5.365 1.121,0.168 0.798,-5.363 c 0.067,-0.475 0.526,-0.797 1.001,-0.729 0.474,0.066 0.798,0.525 0.73,1 l -0.799,5.365 1.121,0.168 0.797,-5.363 c 0.068,-0.475 0.527,-0.797 1.001,-0.73 0.476,0.068 0.799,0.527 0.731,1.002 l -0.798,5.363 1.121,0.17 0.797,-5.363 c 0.068,-0.475 0.526,-0.799 1.001,-0.729 0.476,0.068 0.799,0.525 0.731,1 l -0.799,5.365 1.12,0.168 0.799,-5.363 c 0.067,-0.475 0.525,-0.799 1.001,-0.73 0.476,0.068 0.798,0.525 0.73,1.002 l -0.798,5.363 1.12,0.17 0.798,-5.363 c 0.068,-0.475 0.526,-0.797 1.001,-0.73 0.476,0.066 0.799,0.527 0.731,1.002 l -0.799,5.313 1.12,0.17 0.799,-5.363 c 0.067,-0.475 0.525,-0.799 1.001,-0.73 0.475,0.068 0.798,0.525 0.729,1.002 l -0.797,5.363 1.12,0.17 0.798,-5.363 c 0.068,-0.477 0.526,-0.799 1.001,-0.73 0.476,0.068 0.798,0.527 0.73,1 l -0.798,5.367 1.12,0.166 0.799,-5.361 c 0.067,-0.475 0.526,-0.799 1.001,-0.73 0.475,0.066 0.798,0.525 0.729,1.002 l -0.814,5.279 1.904,0.283 z"
                 inkscape:connector-curvature="0" /><polygon
                 id="polygon3429"
                 points="71.856,26.338 72.11,24.658 57.733,22.502 45.631,20.688 40.216,19.873 39.961,21.551 41.745,21.822 70.073,26.066 " /><polygon
                 id="polygon3431"
                 points="68.698,47.334 66.916,47.064 38.586,42.82 36.805,42.549 36.55,44.229 38.333,44.5 66.662,48.744 68.444,49.016 " /><path
                 id="path3433"
                 d="m 63.641,68.893 1.204,-7.996 -28.329,-4.242 -1.206,7.996 1.9,0.287 0.799,-5.363 c 0.067,-0.475 0.525,-0.799 1.001,-0.73 0.476,0.069 0.798,0.525 0.731,1.002 l -0.799,5.246 1.12,0.168 0.799,-5.363 c 0.067,-0.477 0.526,-0.797 1.001,-0.73 0.475,0.067 0.798,0.525 0.729,1 l -0.797,5.365 1.12,0.17 0.799,-5.363 c 0.067,-0.475 0.526,-0.797 1.001,-0.73 0.475,0.068 0.798,0.525 0.73,1.002 l -0.797,5.361 1.12,0.172 0.798,-5.363 c 0.068,-0.477 0.526,-0.799 1.001,-0.73 0.476,0.068 0.798,0.527 0.73,1.002 l -0.798,5.361 1.12,0.172 0.799,-5.365 c 0.067,-0.475 0.526,-0.797 1.001,-0.729 0.475,0.068 0.798,0.527 0.73,1.002 l -0.798,5.363 1.12,0.17 0.798,-5.365 c 0.068,-0.475 0.527,-0.797 1.001,-0.729 0.476,0.066 0.799,0.527 0.73,1.002 l -0.797,5.363 1.119,0.17 0.799,-5.363 c 0.067,-0.477 0.525,-0.799 1.001,-0.73 0.475,0.068 0.798,0.525 0.729,1.002 l -0.797,5.363 1.12,0.17 0.798,-5.363 c 0.067,-0.477 0.526,-0.799 1.001,-0.73 0.476,0.066 0.797,0.525 0.73,1.002 l -0.797,5.363 1.12,0.17 0.798,-5.365 c 0.068,-0.475 0.526,-0.797 1.001,-0.729 0.475,0.068 0.797,0.527 0.729,1 l -0.814,5.35 1.902,0.284 z"
                 inkscape:connector-curvature="0" /><path
                 id="path3435"
                 d="m 65.32,57.436 1.206,-7.996 -28.33,-4.242 -1.205,7.994 1.902,0.289 0.797,-5.297 c 0.069,-0.475 0.526,-0.799 1.001,-0.729 0.477,0.066 0.798,0.525 0.729,1 l -0.797,5.297 1.121,0.17 0.797,-5.297 c 0.068,-0.475 0.526,-0.797 1.002,-0.729 0.474,0.066 0.796,0.525 0.729,1 l -0.798,5.297 1.121,0.17 0.798,-5.297 c 0.068,-0.475 0.526,-0.797 1.001,-0.729 0.475,0.066 0.797,0.525 0.729,1 l -0.797,5.295 1.121,0.172 0.797,-5.297 c 0.068,-0.475 0.526,-0.797 1.001,-0.73 0.475,0.068 0.798,0.527 0.73,1.002 l -0.798,5.297 1.121,0.17 0.797,-5.297 c 0.068,-0.475 0.526,-0.799 1.001,-0.729 0.475,0.066 0.797,0.525 0.73,1 l -0.797,5.297 1.12,0.168 0.797,-5.295 c 0.068,-0.477 0.526,-0.797 1.001,-0.73 0.476,0.068 0.797,0.525 0.73,1.002 l -0.798,5.295 1.121,0.17 0.798,-5.295 c 0.067,-0.475 0.526,-0.797 1.001,-0.73 0.475,0.068 0.797,0.525 0.729,1.002 l -0.798,5.295 1.122,0.172 0.796,-5.297 c 0.069,-0.477 0.527,-0.797 1.002,-0.73 0.476,0.068 0.798,0.527 0.73,1.002 l -0.798,5.295 1.122,0.172 0.796,-5.297 c 0.069,-0.477 0.527,-0.797 1.002,-0.729 0.475,0.066 0.797,0.525 0.729,1 l -0.815,5.16 1.904,0.289 z"
                 inkscape:connector-curvature="0" /><polygon
                 id="polygon3437"
                 points="65.303,70.014 63.521,69.74 35.192,65.496 33.41,65.227 33.155,66.906 34.937,67.18 63.268,71.42 65.05,71.691 " /><polygon
                 id="polygon3439"
                 points="67.001,58.674 65.219,58.402 36.891,54.158 35.107,53.887 34.853,55.568 36.635,55.84 64.964,60.082 66.746,60.354 " /></g></g></g></g></g></g></svg></svg>
