<?xml version="1.0" encoding="UTF-8"?>
<svg xmlns="http://www.w3.org/2000/svg" xmlns:xlink="http://www.w3.org/1999/xlink" width="30px" height="46px" viewBox="0 0 30 46" version="1.1">
<defs>
<clipPath id="clip1">
  <path d="M 20 12 L 22.445312 12 L 22.445312 17 L 20 17 Z M 20 12 "/>
</clipPath>
<clipPath id="clip2">
  <path d="M 7.550781 13 L 13 13 L 13 20 L 7.550781 20 Z M 7.550781 13 "/>
</clipPath>
</defs>
<g id="surface1">
<path style="fill-rule:nonzero;fill:rgb(100%,40.000001%,0%);fill-opacity:1;stroke-width:1;stroke-linecap:round;stroke-linejoin:miter;stroke:rgb(83.137256%,33.333334%,0%);stroke-opacity:1;stroke-miterlimit:4;" d="M 13.040625 0.638587 C 6.25625 0.638587 0.609375 6.287364 0.609375 12.418478 C 0.609375 15.17663 2.224219 18.678668 3.388802 21.097147 L 13 38.828125 L 22.560417 21.097147 C 23.725 18.678668 25.383854 15.353261 25.383854 12.418478 C 25.383854 6.290761 19.828385 0.638587 13.04401 0.638587 Z M 13.040625 2.099185 C 18.934635 2.136549 23.721615 6.756114 23.721615 12.428668 C 23.721615 18.108016 18.938021 22.659647 13.040625 22.700408 C 7.146615 22.663043 2.369792 18.11481 2.369792 12.428668 C 2.369792 6.752717 7.15 2.129755 13.040625 2.099185 Z M 13.040625 2.099185 " transform="matrix(1.153846,0,0,1.15,0,0)"/>
<path style="fill-rule:nonzero;fill:rgb(100%,100%,100%);fill-opacity:1;stroke-width:1.00275;stroke-linecap:butt;stroke-linejoin:miter;stroke:rgb(100%,100%,100%);stroke-opacity:1;stroke-miterlimit:4;" d="M 23.010677 12.374321 C 23.010677 17.703804 18.528385 22.02106 13.003385 22.02106 C 7.478385 22.02106 2.996094 17.703804 2.996094 12.374321 C 2.996094 7.048234 7.478385 2.727582 13.003385 2.727582 C 18.528385 2.727582 23.010677 7.048234 23.010677 12.374321 Z M 23.010677 12.374321 " transform="matrix(1.153846,0,0,1.15,0,0)"/>
<path style=" stroke:none;fill-rule:nonzero;fill:rgb(0%,0%,0%);fill-opacity:1;" d="M 13.761719 10.445312 L 19.582031 10.445312 L 19.582031 11.339844 L 13.761719 11.339844 Z M 13.761719 10.445312 "/>
<path style=" stroke:none;fill-rule:nonzero;fill:rgb(0%,0%,0%);fill-opacity:1;" d="M 13.742188 10.539062 L 13.242188 10.539062 L 14.0625 9.460938 L 19.257812 9.460938 L 20.097656 10.539062 L 19.5625 10.539062 "/>
<path style=" stroke:none;fill-rule:nonzero;fill:rgb(0%,0%,0%);fill-opacity:1;" d="M 20.417969 12.265625 L 21.214844 12.265625 L 21.214844 12.765625 L 20.417969 12.765625 Z M 20.417969 12.265625 "/>
<g clip-path="url(#clip1)" clip-rule="nonzero">
<path style=" stroke:none;fill-rule:nonzero;fill:rgb(0%,0%,0%);fill-opacity:1;" d="M 22.445312 16.382812 L 20.890625 16.382812 L 20.890625 12.128906 L 22.445312 12.128906 Z M 21.214844 16.085938 L 22.125 16.085938 L 22.125 12.429688 L 21.214844 12.429688 Z M 21.214844 16.085938 "/>
</g>
<path style=" stroke:none;fill-rule:nonzero;fill:rgb(0%,0%,0%);fill-opacity:1;" d="M 20.476562 11.226562 L 12.816406 11.226562 L 12.816406 19.195312 L 15.113281 19.195312 L 15.113281 17.628906 L 16.492188 17.628906 L 16.492188 19.195312 L 16.953125 19.195312 L 16.953125 17.628906 L 18.179688 17.628906 L 18.179688 19.195312 L 20.476562 19.195312 Z M 16.035156 16.347656 L 13.734375 16.347656 L 13.734375 15.351562 L 16.035156 15.351562 Z M 16.035156 14.785156 L 13.734375 14.785156 L 13.734375 13.789062 L 16.035156 13.789062 Z M 16.035156 13.074219 L 13.734375 13.074219 L 13.734375 12.078125 L 16.035156 12.078125 Z M 19.558594 16.347656 L 17.257812 16.347656 L 17.257812 15.351562 L 19.558594 15.351562 Z M 19.558594 14.785156 L 17.257812 14.785156 L 17.257812 13.789062 L 19.558594 13.789062 Z M 19.558594 13.074219 L 17.257812 13.074219 L 17.257812 12.078125 L 19.558594 12.078125 Z M 19.558594 13.074219 "/>
<g clip-path="url(#clip2)" clip-rule="nonzero">
<path style=" stroke:none;fill-rule:nonzero;fill:rgb(0%,0%,0%);fill-opacity:1;" d="M 11.414062 19.230469 C 11.414062 19.230469 11.8125 17.652344 11.171875 16.710938 C 10.53125 15.773438 9.976562 15.628906 9.832031 15.582031 C 9.507812 15.476562 8.511719 16.363281 8.59375 17.117188 C 8.183594 16.597656 8.070312 15.5 9 15.089844 C 8.714844 14.933594 7.964844 15.25 7.550781 15.585938 C 7.550781 14.910156 8.332031 14.210938 9.167969 14.34375 C 9.300781 14.175781 9.355469 13.160156 11.003906 13.125 C 10.355469 13.433594 9.925781 14.152344 9.976562 14.4375 C 10.039062 14.363281 11.289062 13.480469 12.402344 14.890625 C 11.691406 14.660156 10.835938 14.660156 10.429688 15.238281 C 12.824219 16.273438 12.144531 19.230469 12.074219 19.230469 C 11.964844 19.230469 11.414062 19.230469 11.414062 19.230469 Z M 11.414062 19.230469 "/>
</g>
</g>
</svg>
