<?xml version="1.0" encoding="UTF-8" standalone="no"?>
<svg
   xmlns:dc="http://purl.org/dc/elements/1.1/"
   xmlns:cc="http://creativecommons.org/ns#"
   xmlns:rdf="http://www.w3.org/1999/02/22-rdf-syntax-ns#"
   xmlns:svg="http://www.w3.org/2000/svg"
   xmlns="http://www.w3.org/2000/svg"
   xmlns:sodipodi="http://sodipodi.sourceforge.net/DTD/sodipodi-0.dtd"
   xmlns:inkscape="http://www.inkscape.org/namespaces/inkscape"
   height="44px"
   width="30px"
   version="1.1"
   viewBox="0 0 29.988946 43.988056"
   id="svg16"
   sodipodi:docname="Museum.svg"
   inkscape:version="0.92.5 (2060ec1f9f, 2020-04-08)">
  <metadata
     id="metadata20">
    <rdf:RDF>
      <cc:Work
         rdf:about="">
        <dc:format>image/svg+xml</dc:format>
        <dc:type
           rdf:resource="http://purl.org/dc/dcmitype/StillImage" />
        <dc:title />
      </cc:Work>
    </rdf:RDF>
  </metadata>
  <sodipodi:namedview
     pagecolor="#ffffff"
     bordercolor="#666666"
     borderopacity="1"
     objecttolerance="10"
     gridtolerance="10"
     guidetolerance="10"
     inkscape:pageopacity="0"
     inkscape:pageshadow="2"
     inkscape:window-width="1680"
     inkscape:window-height="974"
     id="namedview18"
     showgrid="false"
     inkscape:zoom="4.0678609"
     inkscape:cx="0.9366743"
     inkscape:cy="83.987249"
     inkscape:window-x="0"
     inkscape:window-y="0"
     inkscape:window-maximized="1"
     inkscape:current-layer="svg2" />
  <defs
     id="defs7">
    <radialGradient
       id="a"
       gradientUnits="userSpaceOnUse"
       cy="127.6"
       cx="-42.75"
       gradientTransform="matrix(4.2749643,0,0,0.98162997,197.99835,-82.088795)"
       r="2.3840001">
      <stop
         stop-color="#010101"
         offset="0"
         id="stop2" />
      <stop
         stop-opacity="0"
         stop-color="#090909"
         offset="1"
         id="stop4" />
    </radialGradient>
  </defs>
  <g
     id="g26"
     transform="translate(-2.0760358e-7,-1.6181156)">
    <path
       style="fill:#FF8C00;stroke-width:4.27539158"
       inkscape:connector-curvature="0"
       id="path9"
       d="m 14.994475,1.7046139 c -8.2386814,0 -14.91684341,6.6781619 -14.91684341,14.9168421 0.008545,2.561815 0.67294669,5.079165 1.93504231,7.306643 L 15.595595,42.53888 27.955752,23.983679 c 1.277915,-2.243725 1.951716,-4.779887 1.955563,-7.362223 C 29.911273,8.3827758 23.233154,1.7046139 14.994475,1.7046139 Z" />
    <circle
       style="fill:#f9f3f3;stroke-width:4.27539158"
       id="circle11"
       r="9.4272394"
       cx="14.994473"
       cy="16.668474" />
    <ellipse
       style="opacity:0.4;fill:url(#a);stroke-width:4.27496433"
       id="ellipse13"
       cx="14.994473"
       cy="43.18018"
       ry="2.3394945"
       rx="10.192533" />
    <rect
       style="fill:none;stroke-width:4.27539158"
       x="8.2585926"
       y="9.8278542"
       width="13.471761"
       height="13.36915"
       ry="0"
       rx="0"
       id="replace" />
    <svg
       version="1.1"
       x="8.5"
       y="10"
       viewBox="-120 78.1 79.023 99.844"
       xml:space="preserve"
       id="svg2"
       inkscape:version="0.92.5 (2060ec1f9f, 2020-04-08)"
       width="13"
       height="13"
       sodipodi:docname="Museum.svg"
       inkscape:transform-center-x="4.9152543"
       inkscape:transform-center-y="-0.73728815"><metadata
         id="metadata18"><rdf:RDF><cc:Work
             rdf:about=""><dc:format>image/svg+xml</dc:format><dc:type
               rdf:resource="http://purl.org/dc/dcmitype/StillImage" /><dc:title /></cc:Work></rdf:RDF></metadata><defs
         id="defs16" /><sodipodi:namedview
         pagecolor="#ffffff"
         bordercolor="#666666"
         borderopacity="1"
         objecttolerance="10"
         gridtolerance="10"
         guidetolerance="10"
         inkscape:pageopacity="0"
         inkscape:pageshadow="2"
         inkscape:window-width="1680"
         inkscape:window-height="884"
         id="namedview14"
         showgrid="false"
         fit-margin-top="0"
         fit-margin-left="0"
         fit-margin-right="0"
         fit-margin-bottom="0"
         inkscape:zoom="2.6700352"
         inkscape:cx="-12.855505"
         inkscape:cy="36.619766"
         inkscape:window-x="0"
         inkscape:window-y="0"
         inkscape:window-maximized="1"
         inkscape:current-layer="g3556" /><g
         id="g3032"
         transform="translate(-126.69149,105.72503)"><g
           id="g3082"
           transform="translate(-11.778449,-19.681681)"><g
             id="g3297"
             transform="translate(113.35527,48.840676)"><g
               id="g3451"
               transform="translate(-110.35024,-41.106017)"><g
                 id="g3508"
                 transform="translate(37.661621,37.801481)"><g
                   id="g3556"
                   transform="translate(-33.173714,-53.557494)"><g
                     id="g3536"
                     transform="matrix(1.2735585,0,0,1.2735585,-13.636045,-27.642431)"><path
                       id="path3538"
                       d="m 35.217,98.18 c 0,0 2.147,-7.917 3.9,-11.026 1.753,-3.109 2.432,-4.239 2.318,-6.728 -0.113,-2.487 -0.27,-3.309 -2.771,-1.994 0,0 -1.555,0.75 -2.742,0.75 -1.186,0 -1.867,0.255 -2.401,-1.725 -0.538,-1.979 -2.658,-8.395 -2.658,-8.395 0,0 -0.735,-3.789 -0.735,-5.882 0,-2.092 -0.681,-4.694 2.148,-6.954 2.828,-2.263 7.025,-5.527 7.832,-6.374 0.805,-0.848 1.58,-1.316 1.341,-3.437 -0.238,-2.119 -0.579,-4.07 -1.723,-5.046 -1.145,-0.977 -2.842,-1.23 -3.689,-2.714 -0.847,-1.484 -2.052,-3.514 -1.273,-5.683 0.378,-1.051 0.524,-1.548 0.652,-3.266 0.11,-1.493 1.482,-2.77 2.444,-3.477 1.908,-1.399 4.537,-2.175 6.277,-2.417 1.736,-0.242 3.718,0.298 4.422,0.581 0.709,0.283 3.055,2.092 4.187,4.24 1.13,2.148 1.356,2.629 0.989,3.308 -0.369,0.678 -0.396,1.046 -0.086,1.866 0.312,0.82 -0.764,1.696 -0.791,2.176 -0.029,0.482 -0.23,5.107 -0.623,6.391 -0.453,1.477 -1.102,2.6 1.662,3.221 2.178,0.492 4.727,1.244 7.896,1.046 3.166,-0.197 4.013,-0.184 4.013,-0.184 0,0 2.291,-0.211 2.927,2.121 0.636,2.331 1.313,6.869 1.229,7.252 -0.084,0.383 0.043,1.653 -0.296,2.247 -0.34,0.593 -0.933,1.271 -0.933,1.271 0,0 0.296,12.34 0.721,15.225 0.423,2.883 -0.68,5.426 -0.68,7.888 0,2.457 1.782,7.576 1.867,15.718 H 35.217 Z"
                       inkscape:connector-curvature="0" /><path
                       id="path3540"
                       d="M 71.08,98.615 H 34.647 l 0.149,-0.55 c 0.088,-0.325 2.182,-8.005 3.941,-11.127 l 0.138,-0.243 c 1.622,-2.876 2.23,-3.952 2.124,-6.249 -0.078,-1.728 -0.203,-2.2 -0.582,-2.2 -0.312,0 -0.819,0.188 -1.55,0.571 -0.08,0.039 -1.673,0.8 -2.944,0.8 l -0.665,0.011 c -1.039,0 -1.69,-0.327 -2.156,-2.059 -0.529,-1.943 -2.631,-8.307 -2.652,-8.37 -0.044,-0.211 -0.757,-3.908 -0.757,-6.019 0,-0.323 -0.017,-0.66 -0.034,-1.005 -0.094,-1.893 -0.211,-4.247 2.345,-6.289 0.67,-0.537 1.419,-1.131 2.18,-1.734 2.35,-1.863 5.013,-3.976 5.609,-4.601 l 0.282,-0.29 c 0.656,-0.656 1.128,-1.13 0.941,-2.798 C 40.81,44.632 40.5,42.602 39.443,41.7 39.05,41.365 38.573,41.117 38.071,40.854 37.174,40.388 36.248,39.907 35.658,38.87 l -0.054,-0.095 c -0.878,-1.536 -2.082,-3.64 -1.251,-5.95 0.352,-0.981 0.5,-1.447 0.628,-3.151 0.128,-1.721 1.697,-3.117 2.619,-3.796 1.979,-1.451 4.643,-2.242 6.475,-2.497 1.852,-0.263 3.939,0.325 4.645,0.607 0.783,0.313 3.23,2.201 4.408,4.441 1.138,2.16 1.48,2.811 0.988,3.719 -0.299,0.547 -0.336,0.781 -0.063,1.503 0.277,0.727 -0.171,1.407 -0.499,1.903 -0.099,0.151 -0.251,0.379 -0.265,0.459 l -0.014,0.259 c -0.174,3.38 -0.377,5.418 -0.626,6.229 l -0.124,0.387 c -0.207,0.641 -0.373,1.146 -0.179,1.486 0.186,0.325 0.737,0.592 1.643,0.795 l 0.915,0.213 c 1.945,0.46 4.193,0.987 6.858,0.824 2.75,-0.172 3.757,-0.185 4.001,-0.185 -0.002,-0.002 0.058,-0.005 0.187,-0.005 0.595,0 2.581,0.177 3.2,2.446 0.564,2.078 1.361,6.888 1.233,7.461 -0.023,0.107 -0.023,0.296 -0.028,0.52 -0.015,0.604 -0.032,1.354 -0.315,1.85 -0.27,0.469 -0.675,0.977 -0.871,1.211 0.038,1.479 0.323,12.361 0.711,15.006 0.263,1.781 -0.029,3.401 -0.31,4.968 -0.188,1.039 -0.363,2.021 -0.363,2.983 0,0.847 0.23,2.079 0.525,3.64 0.543,2.885 1.286,6.834 1.341,12.073 z M 35.791,97.743 H 70.198 C 70.109,92.798 69.4,89.034 68.88,86.263 68.576,84.657 68.338,83.39 68.338,82.462 c 0,-1.04 0.184,-2.059 0.378,-3.137 0.269,-1.5 0.547,-3.048 0.307,-4.688 C 68.598,71.76 68.31,59.866 68.297,59.36 l -0.003,-0.168 0.11,-0.128 c 0.005,-0.007 0.568,-0.655 0.884,-1.202 0.173,-0.304 0.188,-0.985 0.198,-1.438 0.007,-0.295 0.017,-0.546 0.05,-0.688 0.037,-0.423 -0.603,-4.761 -1.224,-7.042 -0.444,-1.629 -1.799,-1.805 -2.359,-1.805 l -0.11,0.004 c -0.245,0.002 -1.229,0.01 -4.022,0.185 -2.802,0.178 -5.112,-0.372 -7.114,-0.845 L 53.803,46.022 C 52.615,45.755 51.914,45.369 51.594,44.808 51.209,44.134 51.449,43.399 51.7,42.621 l 0.12,-0.374 c 0.154,-0.502 0.381,-1.955 0.59,-6.019 l 0.014,-0.27 c 0.018,-0.292 0.197,-0.566 0.406,-0.882 0.248,-0.377 0.531,-0.803 0.414,-1.113 -0.352,-0.926 -0.328,-1.426 0.109,-2.229 0.24,-0.447 0.139,-0.744 -0.992,-2.896 -1.129,-2.141 -3.422,-3.822 -3.962,-4.037 -0.747,-0.3 -2.61,-0.776 -4.202,-0.554 -1.647,0.23 -4.227,0.979 -6.079,2.337 -0.801,0.59 -2.165,1.784 -2.267,3.158 -0.129,1.736 -0.279,2.277 -0.676,3.38 -0.694,1.934 0.349,3.758 1.187,5.223 l 0.054,0.096 c 0.464,0.814 1.239,1.216 2.059,1.644 0.524,0.273 1.067,0.554 1.535,0.955 1.299,1.108 1.637,3.24 1.872,5.329 0.234,2.083 -0.455,2.776 -1.188,3.509 l -0.269,0.275 c -0.638,0.668 -3.21,2.71 -5.7,4.684 -0.758,0.602 -1.506,1.195 -2.176,1.731 -2.208,1.764 -2.113,3.695 -2.021,5.564 0.019,0.36 0.036,0.711 0.036,1.049 0,2.026 0.72,5.76 0.726,5.798 0.074,0.209 2.117,6.396 2.652,8.364 0.381,1.409 0.75,1.414 1.309,1.414 0.001,0 0.005,0 0.007,0 l 0.665,-0.011 c 1.071,0 2.538,-0.699 2.553,-0.707 3.306,-1.739 3.298,0.253 3.396,2.367 0.115,2.547 -0.572,3.768 -2.236,6.717 l -0.138,0.245 c -1.443,2.556 -3.187,8.534 -3.707,10.375 z"
                       inkscape:connector-curvature="0" /></g></g></g></g></g></g></g></svg>  </g>
</svg>
