<?xml version="1.0" encoding="UTF-8"?>
<svg xmlns="http://www.w3.org/2000/svg" xmlns:xlink="http://www.w3.org/1999/xlink" width="30px" height="46px" viewBox="0 0 30 46" version="1.1">
<defs>
<clipPath id="clip1">
  <path d="M 11 10 L 19 10 L 19 21.769531 L 11 21.769531 Z M 11 10 "/>
</clipPath>
<clipPath id="clip2">
  <path d="M 9 6.921875 L 21 6.921875 L 21 21.769531 L 9 21.769531 Z M 9 6.921875 "/>
</clipPath>
</defs>
<g id="surface1">
<path style="fill-rule:nonzero;fill:rgb(100%,40.000001%,0%);fill-opacity:1;stroke-width:1;stroke-linecap:round;stroke-linejoin:miter;stroke:rgb(83.137256%,33.333334%,0%);stroke-opacity:1;stroke-miterlimit:4;" d="M 13.040625 0.638587 C 6.25625 0.638587 0.609375 6.287364 0.609375 12.418478 C 0.609375 15.17663 2.224219 18.678668 3.388802 21.097147 L 13 38.828125 L 22.560417 21.097147 C 23.725 18.678668 25.383854 15.353261 25.383854 12.418478 C 25.383854 6.290761 19.828385 0.638587 13.04401 0.638587 Z M 13.040625 2.099185 C 18.934635 2.136549 23.721615 6.756114 23.721615 12.428668 C 23.721615 18.108016 18.938021 22.659647 13.040625 22.700408 C 7.146615 22.663043 2.369792 18.11481 2.369792 12.428668 C 2.369792 6.752717 7.15 2.129755 13.040625 2.099185 Z M 13.040625 2.099185 " transform="matrix(1.153846,0,0,1.15,0,0)"/>
<path style="fill-rule:nonzero;fill:rgb(100%,100%,100%);fill-opacity:1;stroke-width:1.00275;stroke-linecap:butt;stroke-linejoin:miter;stroke:rgb(100%,100%,100%);stroke-opacity:1;stroke-miterlimit:4;" d="M 23.010677 12.374321 C 23.010677 17.703804 18.528385 22.02106 13.003385 22.02106 C 7.478385 22.02106 2.996094 17.703804 2.996094 12.374321 C 2.996094 7.048234 7.478385 2.727582 13.003385 2.727582 C 18.528385 2.727582 23.010677 7.048234 23.010677 12.374321 Z M 23.010677 12.374321 " transform="matrix(1.153846,0,0,1.15,0,0)"/>
<g clip-path="url(#clip1)" clip-rule="nonzero">
<path style=" stroke:none;fill-rule:nonzero;fill:rgb(0%,0%,0%);fill-opacity:1;" d="M 12.71875 21.511719 C 12.71875 21.511719 13.039062 20.332031 13.300781 19.871094 C 13.5625 19.410156 13.664062 19.242188 13.648438 18.871094 C 13.628906 18.5 13.605469 18.378906 13.234375 18.574219 C 13.234375 18.574219 13 18.683594 12.824219 18.683594 C 12.648438 18.683594 12.546875 18.722656 12.464844 18.429688 C 12.386719 18.132812 12.070312 17.179688 12.070312 17.179688 C 12.070312 17.179688 11.960938 16.617188 11.960938 16.304688 C 11.960938 15.996094 11.859375 15.609375 12.28125 15.273438 C 12.703125 14.933594 13.328125 14.449219 13.449219 14.324219 C 13.570312 14.199219 13.683594 14.128906 13.648438 13.8125 C 13.613281 13.5 13.5625 13.207031 13.390625 13.0625 C 13.222656 12.917969 12.96875 12.878906 12.839844 12.660156 C 12.714844 12.4375 12.535156 12.136719 12.652344 11.8125 C 12.707031 11.65625 12.730469 11.585938 12.75 11.328125 C 12.765625 11.105469 12.96875 10.917969 13.113281 10.8125 C 13.398438 10.605469 13.789062 10.488281 14.050781 10.453125 C 14.308594 10.417969 14.605469 10.496094 14.710938 10.539062 C 14.816406 10.582031 15.164062 10.851562 15.335938 11.167969 C 15.503906 11.488281 15.535156 11.558594 15.480469 11.660156 C 15.425781 11.761719 15.421875 11.816406 15.46875 11.9375 C 15.515625 12.058594 15.355469 12.191406 15.351562 12.261719 C 15.347656 12.332031 15.316406 13.019531 15.257812 13.210938 C 15.191406 13.433594 15.09375 13.597656 15.507812 13.691406 C 15.832031 13.765625 16.210938 13.875 16.683594 13.847656 C 17.15625 13.816406 17.28125 13.820312 17.28125 13.820312 C 17.28125 13.820312 17.625 13.789062 17.71875 14.136719 C 17.816406 14.480469 17.914062 15.15625 17.902344 15.214844 C 17.890625 15.269531 17.910156 15.457031 17.859375 15.546875 C 17.808594 15.636719 17.71875 15.734375 17.71875 15.734375 C 17.71875 15.734375 17.765625 17.570312 17.828125 18 C 17.890625 18.429688 17.726562 18.808594 17.726562 19.171875 C 17.726562 19.539062 17.992188 20.300781 18.003906 21.511719 Z M 12.71875 21.511719 "/>
<path style=" stroke:none;fill-rule:nonzero;fill:rgb(0%,0%,0%);fill-opacity:1;" d="M 18.070312 21.574219 L 12.632812 21.574219 L 12.65625 21.492188 C 12.667969 21.445312 12.980469 20.304688 13.246094 19.839844 L 13.265625 19.800781 C 13.507812 19.375 13.597656 19.214844 13.582031 18.875 C 13.570312 18.617188 13.550781 18.546875 13.496094 18.546875 C 13.449219 18.546875 13.371094 18.574219 13.265625 18.632812 C 13.25 18.636719 13.015625 18.75 12.824219 18.75 L 12.726562 18.75 C 12.570312 18.75 12.472656 18.703125 12.402344 18.445312 C 12.324219 18.15625 12.011719 17.210938 12.007812 17.199219 C 12 17.167969 11.894531 16.621094 11.894531 16.304688 C 11.894531 16.257812 11.894531 16.207031 11.890625 16.15625 C 11.875 15.875 11.859375 15.523438 12.238281 15.222656 C 12.339844 15.140625 12.453125 15.054688 12.566406 14.964844 C 12.914062 14.6875 13.3125 14.371094 13.402344 14.28125 L 13.445312 14.238281 C 13.542969 14.140625 13.613281 14.066406 13.585938 13.820312 C 13.554688 13.546875 13.507812 13.246094 13.351562 13.113281 C 13.292969 13.0625 13.21875 13.023438 13.144531 12.984375 C 13.011719 12.917969 12.875 12.84375 12.785156 12.691406 L 12.777344 12.675781 C 12.644531 12.449219 12.464844 12.136719 12.589844 11.792969 C 12.644531 11.648438 12.664062 11.578125 12.683594 11.324219 C 12.703125 11.066406 12.9375 10.859375 13.074219 10.757812 C 13.371094 10.542969 13.765625 10.425781 14.039062 10.386719 C 14.316406 10.347656 14.628906 10.4375 14.734375 10.476562 C 14.851562 10.523438 15.214844 10.804688 15.390625 11.140625 C 15.5625 11.460938 15.613281 11.558594 15.539062 11.691406 C 15.496094 11.773438 15.488281 11.808594 15.53125 11.914062 C 15.570312 12.023438 15.503906 12.125 15.453125 12.199219 C 15.441406 12.21875 15.417969 12.253906 15.414062 12.265625 L 15.414062 12.304688 C 15.386719 12.808594 15.355469 13.109375 15.320312 13.230469 L 15.300781 13.289062 C 15.269531 13.382812 15.246094 13.460938 15.273438 13.507812 C 15.300781 13.558594 15.386719 13.597656 15.519531 13.628906 L 15.65625 13.660156 C 15.945312 13.726562 16.28125 13.804688 16.679688 13.78125 C 17.089844 13.757812 17.238281 13.753906 17.277344 13.753906 C 17.277344 13.753906 17.285156 13.753906 17.304688 13.753906 C 17.394531 13.753906 17.691406 13.78125 17.78125 14.117188 C 17.867188 14.425781 17.984375 15.140625 17.964844 15.226562 C 17.960938 15.242188 17.960938 15.269531 17.960938 15.304688 C 17.960938 15.394531 17.957031 15.503906 17.914062 15.578125 C 17.875 15.648438 17.8125 15.726562 17.785156 15.757812 C 17.789062 15.980469 17.832031 17.597656 17.890625 17.992188 C 17.929688 18.253906 17.886719 18.496094 17.84375 18.730469 C 17.816406 18.882812 17.789062 19.03125 17.789062 19.171875 C 17.789062 19.300781 17.824219 19.480469 17.867188 19.714844 C 17.949219 20.144531 18.0625 20.730469 18.070312 21.507812 Z M 12.804688 21.445312 L 17.9375 21.445312 C 17.925781 20.710938 17.820312 20.152344 17.742188 19.738281 C 17.695312 19.5 17.660156 19.3125 17.660156 19.171875 C 17.660156 19.019531 17.6875 18.867188 17.71875 18.707031 C 17.757812 18.484375 17.796875 18.253906 17.761719 18.007812 C 17.699219 17.582031 17.65625 15.8125 17.65625 15.738281 L 17.652344 15.714844 L 17.671875 15.695312 C 17.671875 15.691406 17.753906 15.597656 17.800781 15.515625 C 17.828125 15.46875 17.832031 15.367188 17.832031 15.300781 C 17.832031 15.257812 17.835938 15.21875 17.839844 15.199219 C 17.84375 15.136719 17.75 14.492188 17.65625 14.152344 C 17.589844 13.910156 17.386719 13.882812 17.304688 13.882812 L 17.289062 13.882812 C 17.25 13.882812 17.105469 13.886719 16.6875 13.910156 C 16.269531 13.9375 15.925781 13.855469 15.628906 13.785156 L 15.492188 13.753906 C 15.316406 13.714844 15.210938 13.65625 15.164062 13.574219 C 15.105469 13.472656 15.140625 13.363281 15.179688 13.25 L 15.195312 13.195312 C 15.21875 13.117188 15.253906 12.902344 15.285156 12.296875 L 15.285156 12.257812 C 15.289062 12.214844 15.316406 12.175781 15.347656 12.128906 C 15.382812 12.070312 15.425781 12.007812 15.410156 11.960938 C 15.355469 11.824219 15.359375 11.75 15.425781 11.628906 C 15.460938 11.5625 15.445312 11.519531 15.277344 11.199219 C 15.109375 10.882812 14.765625 10.632812 14.6875 10.597656 C 14.574219 10.554688 14.296875 10.484375 14.058594 10.515625 C 13.8125 10.550781 13.429688 10.664062 13.152344 10.863281 C 13.03125 10.953125 12.828125 11.128906 12.8125 11.332031 C 12.792969 11.59375 12.773438 11.671875 12.714844 11.835938 C 12.609375 12.125 12.765625 12.394531 12.890625 12.613281 L 12.898438 12.628906 C 12.96875 12.75 13.082031 12.808594 13.207031 12.871094 C 13.285156 12.914062 13.363281 12.953125 13.433594 13.015625 C 13.628906 13.179688 13.679688 13.496094 13.714844 13.804688 C 13.75 14.117188 13.644531 14.21875 13.535156 14.328125 L 13.496094 14.367188 C 13.402344 14.46875 13.015625 14.773438 12.644531 15.066406 C 12.53125 15.15625 12.421875 15.242188 12.320312 15.324219 C 11.992188 15.585938 12.007812 15.871094 12.019531 16.148438 C 12.023438 16.203125 12.023438 16.257812 12.023438 16.304688 C 12.023438 16.609375 12.132812 17.164062 12.132812 17.167969 C 12.144531 17.199219 12.449219 18.121094 12.527344 18.410156 C 12.585938 18.621094 12.640625 18.621094 12.722656 18.621094 C 12.722656 18.621094 12.726562 18.621094 12.726562 18.621094 L 12.824219 18.621094 C 12.984375 18.621094 13.203125 18.515625 13.207031 18.515625 C 13.699219 18.257812 13.699219 18.554688 13.710938 18.867188 C 13.730469 19.246094 13.625 19.429688 13.378906 19.867188 L 13.359375 19.902344 C 13.144531 20.28125 12.882812 21.171875 12.804688 21.445312 Z M 12.804688 21.445312 "/>
</g>
<g clip-path="url(#clip2)" clip-rule="nonzero">
<path style=" stroke:none;fill-rule:nonzero;fill:rgb(0%,0%,0%);fill-opacity:1;" d="M 20.894531 21.769531 L 9.101562 21.769531 L 9.101562 6.921875 L 20.894531 6.921875 Z M 9.621094 21.25 L 20.371094 21.25 L 20.371094 7.441406 L 9.621094 7.441406 Z M 9.621094 21.25 "/>
</g>
</g>
</svg>
