<?xml version="1.0" encoding="UTF-8"?>
<svg xmlns="http://www.w3.org/2000/svg" xmlns:xlink="http://www.w3.org/1999/xlink" width="30px" height="46px" viewBox="0 0 30 46" version="1.1">
<g id="surface1">
<path style="fill-rule:nonzero;fill:rgb(100%,40.000001%,0%);fill-opacity:1;stroke-width:1;stroke-linecap:round;stroke-linejoin:miter;stroke:rgb(83.137256%,33.333334%,0%);stroke-opacity:1;stroke-miterlimit:4;" d="M 13.040625 0.638587 C 6.25625 0.638587 0.609375 6.287364 0.609375 12.418478 C 0.609375 15.17663 2.224219 18.678668 3.388802 21.097147 L 13 38.828125 L 22.560417 21.097147 C 23.725 18.678668 25.383854 15.353261 25.383854 12.418478 C 25.383854 6.290761 19.828385 0.638587 13.04401 0.638587 Z M 13.040625 2.099185 C 18.934635 2.136549 23.721615 6.756114 23.721615 12.428668 C 23.721615 18.108016 18.938021 22.659647 13.040625 22.700408 C 7.146615 22.663043 2.369792 18.11481 2.369792 12.428668 C 2.369792 6.752717 7.15 2.129755 13.040625 2.099185 Z M 13.040625 2.099185 " transform="matrix(1.153846,0,0,1.15,0,0)"/>
<path style="fill-rule:nonzero;fill:rgb(100%,100%,100%);fill-opacity:1;stroke-width:1.00275;stroke-linecap:butt;stroke-linejoin:miter;stroke:rgb(100%,100%,100%);stroke-opacity:1;stroke-miterlimit:4;" d="M 23.010677 12.374321 C 23.010677 17.703804 18.528385 22.02106 13.003385 22.02106 C 7.478385 22.02106 2.996094 17.703804 2.996094 12.374321 C 2.996094 7.048234 7.478385 2.727582 13.003385 2.727582 C 18.528385 2.727582 23.010677 7.048234 23.010677 12.374321 Z M 23.010677 12.374321 " transform="matrix(1.153846,0,0,1.15,0,0)"/>
<path style=" stroke:none;fill-rule:evenodd;fill:rgb(0%,0%,0%);fill-opacity:1;" d="M 11.683594 11.898438 C 11.683594 11.898438 11.847656 12.003906 11.96875 11.875 C 12.089844 11.75 12.292969 11.429688 11.828125 11.171875 C 11.359375 10.914062 11.035156 10.425781 10.667969 10.722656 L 8.238281 14.078125 C 8.226562 14.082031 8.210938 14.089844 8.199219 14.097656 C 8.125 14.136719 8.195312 15.039062 8.210938 15.074219 C 8.234375 15.132812 8.457031 15.558594 8.71875 16.585938 C 8.890625 17.539062 9.457031 18.277344 11.132812 18.277344 C 12.253906 18.277344 13.117188 17.914062 13.648438 17.257812 C 13.652344 17.253906 13.652344 17.253906 13.652344 17.25 C 14.492188 16.253906 14.125 15.234375 15.058594 15.234375 C 15.992188 15.234375 15.628906 16.253906 16.464844 17.25 C 16.46875 17.253906 16.46875 17.253906 16.472656 17.257812 C 17 17.914062 17.863281 18.277344 18.988281 18.277344 C 20.664062 18.277344 21.230469 17.539062 21.402344 16.585938 C 21.660156 15.558594 21.886719 15.132812 21.910156 15.074219 C 21.925781 15.039062 21.996094 14.136719 21.921875 14.097656 C 21.910156 14.089844 21.894531 14.082031 21.878906 14.078125 L 19.449219 10.722656 C 19.082031 10.425781 18.757812 10.914062 18.292969 11.171875 C 17.824219 11.429688 18.027344 11.75 18.148438 11.875 C 18.269531 12.003906 18.433594 11.898438 18.433594 11.898438 C 18.738281 11.128906 19.105469 10.957031 19.308594 11.257812 C 19.335938 11.300781 20.089844 12.652344 20.707031 13.769531 C 19.988281 13.671875 19.234375 13.675781 18.902344 13.675781 C 18.898438 13.675781 18.894531 13.675781 18.894531 13.675781 C 18.859375 13.675781 18.828125 13.675781 18.792969 13.675781 C 18.382812 13.675781 18.023438 13.703125 17.714844 13.75 C 17.714844 13.75 17.710938 13.75 17.707031 13.75 C 17.699219 13.75 17.691406 13.753906 17.683594 13.753906 C 17.457031 13.792969 17.257812 13.839844 17.085938 13.898438 C 16.472656 14.078125 15.890625 14.3125 15.058594 14.3125 C 14.230469 14.3125 13.648438 14.078125 13.035156 13.898438 C 12.859375 13.839844 12.660156 13.792969 12.4375 13.753906 C 12.429688 13.753906 12.421875 13.753906 12.414062 13.75 C 12.410156 13.75 12.40625 13.75 12.402344 13.75 C 12.097656 13.699219 11.738281 13.675781 11.328125 13.675781 C 11.292969 13.675781 11.261719 13.675781 11.226562 13.675781 C 11.222656 13.675781 11.222656 13.675781 11.21875 13.675781 C 10.886719 13.675781 10.132812 13.671875 9.410156 13.769531 C 10.027344 12.652344 10.78125 11.300781 10.8125 11.257812 C 11.011719 10.957031 11.378906 11.128906 11.683594 11.898438 Z M 18.792969 13.980469 C 20.894531 13.980469 21.179688 14.640625 21.179688 15.667969 C 21.179688 16.914062 20.960938 17.96875 18.988281 17.96875 C 16.886719 17.96875 16.164062 16.683594 16.164062 15.363281 C 16.164062 14.550781 16.875 13.980469 18.792969 13.980469 Z M 11.328125 13.980469 C 13.242188 13.980469 13.957031 14.550781 13.957031 15.363281 C 13.957031 16.683594 13.230469 17.96875 11.132812 17.96875 C 9.160156 17.96875 8.941406 16.914062 8.941406 15.667969 C 8.941406 14.640625 9.226562 13.980469 11.328125 13.980469 Z M 11.328125 13.980469 "/>
</g>
</svg>
