<?xml version="1.0" encoding="UTF-8" standalone="no"?>
<svg
   xmlns:dc="http://purl.org/dc/elements/1.1/"
   xmlns:cc="http://creativecommons.org/ns#"
   xmlns:rdf="http://www.w3.org/1999/02/22-rdf-syntax-ns#"
   xmlns:svg="http://www.w3.org/2000/svg"
   xmlns="http://www.w3.org/2000/svg"
   xmlns:sodipodi="http://sodipodi.sourceforge.net/DTD/sodipodi-0.dtd"
   xmlns:inkscape="http://www.inkscape.org/namespaces/inkscape"
   height="44px"
   width="30px"
   version="1.1"
   viewBox="0 0 29.988946 43.988056"
   id="svg16"
   sodipodi:docname="Park.svg"
   inkscape:version="0.92.5 (2060ec1f9f, 2020-04-08)">
  <metadata
     id="metadata20">
    <rdf:RDF>
      <cc:Work
         rdf:about="">
        <dc:format>image/svg+xml</dc:format>
        <dc:type
           rdf:resource="http://purl.org/dc/dcmitype/StillImage" />
        <dc:title />
      </cc:Work>
    </rdf:RDF>
  </metadata>
  <sodipodi:namedview
     pagecolor="#ffffff"
     bordercolor="#666666"
     borderopacity="1"
     objecttolerance="10"
     gridtolerance="10"
     guidetolerance="10"
     inkscape:pageopacity="0"
     inkscape:pageshadow="2"
     inkscape:window-width="1680"
     inkscape:window-height="974"
     id="namedview18"
     showgrid="false"
     inkscape:zoom="4.0678609"
     inkscape:cx="0.9366743"
     inkscape:cy="83.987249"
     inkscape:window-x="0"
     inkscape:window-y="0"
     inkscape:window-maximized="1"
     inkscape:current-layer="svg2" />
  <defs
     id="defs7">
    <radialGradient
       id="a"
       gradientUnits="userSpaceOnUse"
       cy="127.6"
       cx="-42.75"
       gradientTransform="matrix(4.2749643,0,0,0.98162997,197.99835,-82.088795)"
       r="2.3840001">
      <stop
         stop-color="#010101"
         offset="0"
         id="stop2" />
      <stop
         stop-opacity="0"
         stop-color="#090909"
         offset="1"
         id="stop4" />
    </radialGradient>
  </defs>
  <g
     id="g26"
     transform="translate(-2.0760358e-7,-1.6181156)">
    <path
       style="fill:#FF8C00;stroke-width:4.27539158"
       inkscape:connector-curvature="0"
       id="path9"
       d="m 14.994475,1.7046139 c -8.2386814,0 -14.91684341,6.6781619 -14.91684341,14.9168421 0.008545,2.561815 0.67294669,5.079165 1.93504231,7.306643 L 15.595595,42.53888 27.955752,23.983679 c 1.277915,-2.243725 1.951716,-4.779887 1.955563,-7.362223 C 29.911273,8.3827758 23.233154,1.7046139 14.994475,1.7046139 Z" />
    <circle
       style="fill:#f9f3f3;stroke-width:4.27539158"
       id="circle11"
       r="9.4272394"
       cx="14.994473"
       cy="16.668474" />
    <ellipse
       style="opacity:0.4;fill:url(#a);stroke-width:4.27496433"
       id="ellipse13"
       cx="14.994473"
       cy="43.18018"
       ry="2.3394945"
       rx="10.192533" />
    <rect
       style="fill:none;stroke-width:4.27539158"
       x="8.2585926"
       y="9.8278542"
       width="13.471761"
       height="13.36915"
       ry="0"
       rx="0"
       id="replace" />
    <svg
       version="1.1"
       x="8.5"
       y="10"
       viewBox="-120 78.1 76.826552 79.60806"
       xml:space="preserve"
       id="svg2"
       inkscape:version="0.92.5 (2060ec1f9f, 2020-04-08)"
       width="13"
       height="13"
       sodipodi:docname="Park.svg"><metadata
         id="metadata18"><rdf:RDF><cc:Work
             rdf:about=""><dc:format>image/svg+xml</dc:format><dc:type
               rdf:resource="http://purl.org/dc/dcmitype/StillImage" /><dc:title /></cc:Work></rdf:RDF></metadata><defs
         id="defs16" /><sodipodi:namedview
         pagecolor="#ffffff"
         bordercolor="#666666"
         borderopacity="1"
         objecttolerance="10"
         gridtolerance="10"
         guidetolerance="10"
         inkscape:pageopacity="0"
         inkscape:pageshadow="2"
         inkscape:window-width="1680"
         inkscape:window-height="884"
         id="namedview14"
         showgrid="false"
         fit-margin-top="0"
         fit-margin-left="0"
         fit-margin-right="0"
         fit-margin-bottom="0"
         inkscape:zoom="3.776"
         inkscape:cx="5.4709962"
         inkscape:cy="27.592601"
         inkscape:window-x="0"
         inkscape:window-y="0"
         inkscape:window-maximized="1"
         inkscape:current-layer="g3947" /><g
         id="g3032"
         transform="translate(-130.85481,101.70284)"><g
           id="g3082"
           transform="translate(-11.778449,-19.681681)"><g
             id="g3297"
             transform="translate(113.35527,48.840676)"><g
               id="g3451"
               transform="translate(-110.35024,-41.106017)"><g
                 id="g3508"
                 transform="translate(37.661621,37.801481)"><g
                   id="g3556"
                   transform="translate(-33.173714,-53.557494)"><g
                     id="g3600"
                     transform="translate(1.6437441,2.3337983)"><g
                       id="g3673"
                       transform="translate(3.1326802,-1.9259882)"><g
                         id="g3728"
                         transform="translate(16.15499,5.0801784)"><g
                           id="g3774"
                           transform="matrix(1.3062103,0,0,1.1506075,-1.2423141,14.177607)"><g
                             id="g3814"
                             transform="matrix(0.76557355,0,0,0.86910615,-9.6088369,-25.571004)"><g
                               id="g3898"
                               transform="translate(-253.23308,-590.39679)"><g
                                 id="g3947"
                                 transform="matrix(0.79675749,0,0,0.79608053,260.40923,604.25358)"><path
                                   id="path3949"
                                   d="m 61.132,64.483 -2.073,12.85 -0.591,3.784 h -1.124 v 0.002 h -6.3 v -0.002 h -3.211 l -6.027,18.881 h 3.211 l 4.889,-15.316 h 8.579 l 4.891,15.316 h 3.012 L 61.501,84.683 H 77.767 L 72.879,100 h 3.208 l 4.892,-15.317 h 8.58 L 94.444,100 h 3.017 l -5.793,-18.147 0.707,-4.52 2.067,-12.849 H 92.2 63.376 l -2.244,-10e-4 0,0 z m 27.636,16.634 h -0.35 v 0.002 h -6.302 l 0.002,-0.002 H 78.904 L 78.9,81.119 H 61.277 l 0.591,-3.786 h 27.49 l -0.59,3.784 z"
                                   inkscape:connector-curvature="0" /><path
                                   id="path3951"
                                   d="m 41.006,73.291 c 3.328,-1.187 6.307,-3.304 8.718,-6.1 1.905,0.895 4.026,1.409 6.271,1.409 0.736,0 1.456,-0.076 2.163,-0.187 l 0.693,-4.3 c 0.18,-1.118 1.145,-1.939 2.277,-1.939 h 2.246 4.748 c 1.652,-2.39 2.666,-5.248 2.666,-8.371 -0.004,-4.554 -2.061,-8.623 -5.297,-11.338 3.235,-2.714 5.293,-6.782 5.293,-11.339 0,-8.171 -6.622,-14.795 -14.795,-14.795 -0.301,0 -0.592,0.026 -0.891,0.045 C 52.163,6.832 44.396,0 35.241,0 23.565,0 14.103,11.095 14.103,24.787 c 0,0.036 0.004,0.072 0.004,0.107 -7.358,0.856 -13.07,7.104 -13.07,14.69 0,6.163 3.765,11.437 9.12,13.663 -0.909,1.921 -1.433,4.058 -1.433,6.324 0,8.169 6.624,14.791 14.796,14.791 1.829,0 3.571,-0.343 5.189,-0.95 v 21.55 h 12.284 l 0.014,-0.041 v -21.63 z"
                                   inkscape:connector-curvature="0" /></g></g></g></g></g></g></g></g></g></g></g></g></g></svg>  </g>
</svg>
