<?xml version="1.0" encoding="UTF-8"?>
<svg xmlns="http://www.w3.org/2000/svg" xmlns:xlink="http://www.w3.org/1999/xlink" width="30px" height="46px" viewBox="0 0 30 46" version="1.1">
<defs>
<clipPath id="clip1">
  <path d="M 7.550781 6.921875 L 22.445312 6.921875 L 22.445312 21.769531 L 7.550781 21.769531 Z M 7.550781 6.921875 "/>
</clipPath>
</defs>
<g id="surface1">
<path style="fill-rule:nonzero;fill:rgb(100%,40.000001%,0%);fill-opacity:1;stroke-width:1;stroke-linecap:round;stroke-linejoin:miter;stroke:rgb(83.137256%,33.333334%,0%);stroke-opacity:1;stroke-miterlimit:4;" d="M 13.040625 0.638587 C 6.25625 0.638587 0.609375 6.287364 0.609375 12.418478 C 0.609375 15.17663 2.224219 18.678668 3.388802 21.097147 L 13 38.828125 L 22.560417 21.097147 C 23.725 18.678668 25.383854 15.353261 25.383854 12.418478 C 25.383854 6.290761 19.828385 0.638587 13.04401 0.638587 Z M 13.040625 2.099185 C 18.934635 2.136549 23.721615 6.756114 23.721615 12.428668 C 23.721615 18.108016 18.938021 22.659647 13.040625 22.700408 C 7.146615 22.663043 2.369792 18.11481 2.369792 12.428668 C 2.369792 6.752717 7.15 2.129755 13.040625 2.099185 Z M 13.040625 2.099185 " transform="matrix(1.153846,0,0,1.15,0,0)"/>
<path style="fill-rule:nonzero;fill:rgb(100%,100%,100%);fill-opacity:1;stroke-width:1.00275;stroke-linecap:butt;stroke-linejoin:miter;stroke:rgb(100%,100%,100%);stroke-opacity:1;stroke-miterlimit:4;" d="M 23.010677 12.374321 C 23.010677 17.703804 18.528385 22.02106 13.003385 22.02106 C 7.478385 22.02106 2.996094 17.703804 2.996094 12.374321 C 2.996094 7.048234 7.478385 2.727582 13.003385 2.727582 C 18.528385 2.727582 23.010677 7.048234 23.010677 12.374321 Z M 23.010677 12.374321 " transform="matrix(1.153846,0,0,1.15,0,0)"/>
<path style=" stroke:none;fill-rule:nonzero;fill:rgb(0%,0%,0%);fill-opacity:1;" d="M 15.464844 11.5625 L 14.066406 11.5625 L 14.066406 14.347656 L 15.464844 14.347656 C 16.238281 14.347656 16.859375 13.726562 16.859375 12.953125 C 16.859375 12.179688 16.238281 11.5625 15.464844 11.5625 Z M 15.464844 13.882812 L 14.53125 13.882812 L 14.53125 12.027344 L 15.464844 12.027344 C 15.976562 12.027344 16.394531 12.445312 16.394531 12.953125 C 16.394531 13.464844 15.976562 13.882812 15.464844 13.882812 Z M 15.464844 13.882812 "/>
<g clip-path="url(#clip1)" clip-rule="nonzero">
<path style=" stroke:none;fill-rule:nonzero;fill:rgb(0%,0%,0%);fill-opacity:1;" d="M 20.582031 6.921875 L 9.410156 6.921875 C 8.386719 6.921875 7.550781 7.757812 7.550781 8.777344 L 7.550781 19.914062 C 7.550781 20.933594 8.386719 21.769531 9.410156 21.769531 L 20.582031 21.769531 C 21.609375 21.769531 22.445312 20.933594 22.445312 19.914062 L 22.445312 8.777344 C 22.445312 7.757812 21.609375 6.921875 20.582031 6.921875 Z M 21.980469 12.492188 L 21.980469 19.914062 C 21.980469 20.6875 21.359375 21.304688 20.582031 21.304688 L 9.410156 21.304688 C 8.636719 21.304688 8.015625 20.6875 8.015625 19.914062 L 8.015625 8.777344 C 8.015625 8.003906 8.636719 7.386719 9.410156 7.386719 L 20.582031 7.386719 C 21.359375 7.386719 21.980469 8.003906 21.980469 8.777344 Z M 21.980469 12.492188 "/>
</g>
<path style=" stroke:none;fill-rule:nonzero;fill:rgb(0%,0%,0%);fill-opacity:1;" d="M 15.929688 10.171875 L 12.4375 10.171875 C 12.3125 10.171875 12.203125 10.277344 12.203125 10.402344 L 12.203125 18.289062 C 12.203125 18.414062 12.3125 18.523438 12.4375 18.523438 L 14.300781 18.523438 C 14.421875 18.523438 14.53125 18.414062 14.53125 18.289062 L 14.53125 15.738281 L 15.929688 15.738281 C 17.464844 15.738281 18.722656 14.484375 18.722656 12.953125 C 18.722656 11.421875 17.464844 10.171875 15.929688 10.171875 Z M 15.929688 15.273438 L 14.066406 15.273438 L 14.066406 18.058594 L 12.671875 18.058594 L 12.671875 10.632812 L 15.929688 10.632812 C 17.214844 10.632812 18.257812 11.671875 18.257812 12.953125 C 18.257812 14.238281 17.214844 15.273438 15.929688 15.273438 Z M 15.929688 15.273438 "/>
</g>
</svg>
