<?xml version="1.0" encoding="UTF-8"?>
<svg xmlns="http://www.w3.org/2000/svg" xmlns:xlink="http://www.w3.org/1999/xlink" width="30px" height="46px" viewBox="0 0 30 46" version="1.1">
<defs>
<clipPath id="clip1">
  <path d="M 13 16 L 22.445312 16 L 22.445312 21.769531 L 13 21.769531 Z M 13 16 "/>
</clipPath>
<clipPath id="clip2">
  <path d="M 7.550781 6.921875 L 19 6.921875 L 19 21.769531 L 7.550781 21.769531 Z M 7.550781 6.921875 "/>
</clipPath>
</defs>
<g id="surface1">
<path style="fill-rule:nonzero;fill:rgb(100%,40.000001%,0%);fill-opacity:1;stroke-width:1;stroke-linecap:round;stroke-linejoin:miter;stroke:rgb(83.137256%,33.333334%,0%);stroke-opacity:1;stroke-miterlimit:4;" d="M 13.040625 0.638587 C 6.25625 0.638587 0.609375 6.287364 0.609375 12.418478 C 0.609375 15.17663 2.224219 18.678668 3.388802 21.097147 L 13 38.828125 L 22.560417 21.097147 C 23.725 18.678668 25.383854 15.353261 25.383854 12.418478 C 25.383854 6.290761 19.828385 0.638587 13.04401 0.638587 Z M 13.040625 2.099185 C 18.934635 2.136549 23.721615 6.756114 23.721615 12.428668 C 23.721615 18.108016 18.938021 22.659647 13.040625 22.700408 C 7.146615 22.663043 2.369792 18.11481 2.369792 12.428668 C 2.369792 6.752717 7.15 2.129755 13.040625 2.099185 Z M 13.040625 2.099185 " transform="matrix(1.153846,0,0,1.15,0,0)"/>
<path style="fill-rule:nonzero;fill:rgb(100%,100%,100%);fill-opacity:1;stroke-width:1.00275;stroke-linecap:butt;stroke-linejoin:miter;stroke:rgb(100%,100%,100%);stroke-opacity:1;stroke-miterlimit:4;" d="M 23.010677 12.374321 C 23.010677 17.703804 18.528385 22.02106 13.003385 22.02106 C 7.478385 22.02106 2.996094 17.703804 2.996094 12.374321 C 2.996094 7.048234 7.478385 2.727582 13.003385 2.727582 C 18.528385 2.727582 23.010677 7.048234 23.010677 12.374321 Z M 23.010677 12.374321 " transform="matrix(1.153846,0,0,1.15,0,0)"/>
<g clip-path="url(#clip1)" clip-rule="nonzero">
<path style=" stroke:none;fill-rule:nonzero;fill:rgb(0%,0%,0%);fill-opacity:1;" d="M 16.769531 16.496094 L 16.460938 18.402344 L 16.371094 18.964844 L 14.785156 18.964844 L 13.886719 21.769531 L 14.367188 21.769531 L 15.09375 19.496094 L 16.375 19.496094 L 17.105469 21.769531 L 17.554688 21.769531 L 16.824219 19.496094 L 19.25 19.496094 L 18.519531 21.769531 L 19 21.769531 L 19.726562 19.496094 L 21.007812 19.496094 L 21.734375 21.769531 L 22.183594 21.769531 L 21.320312 19.074219 L 21.425781 18.402344 L 21.734375 16.496094 Z M 20.890625 18.964844 L 16.789062 18.964844 L 16.878906 18.402344 L 20.976562 18.402344 Z M 20.890625 18.964844 "/>
</g>
<g clip-path="url(#clip2)" clip-rule="nonzero">
<path style=" stroke:none;fill-rule:nonzero;fill:rgb(0%,0%,0%);fill-opacity:1;" d="M 13.769531 17.804688 C 14.265625 17.628906 14.710938 17.3125 15.070312 16.898438 C 15.351562 17.03125 15.667969 17.109375 16.003906 17.109375 C 16.113281 17.109375 16.21875 17.097656 16.324219 17.078125 L 16.429688 16.441406 C 16.457031 16.277344 16.601562 16.152344 16.769531 16.152344 L 17.8125 16.152344 C 18.058594 15.800781 18.207031 15.375 18.207031 14.910156 C 18.207031 14.234375 17.902344 13.628906 17.417969 13.226562 C 17.902344 12.824219 18.207031 12.21875 18.207031 11.542969 C 18.207031 10.332031 17.222656 9.347656 16.003906 9.347656 C 15.957031 9.347656 15.914062 9.351562 15.871094 9.355469 C 15.433594 7.9375 14.273438 6.921875 12.910156 6.921875 C 11.167969 6.921875 9.757812 8.570312 9.757812 10.601562 C 9.757812 10.609375 9.757812 10.613281 9.757812 10.617188 C 8.660156 10.746094 7.808594 11.671875 7.808594 12.800781 C 7.808594 13.714844 8.371094 14.496094 9.167969 14.828125 C 9.035156 15.113281 8.957031 15.429688 8.957031 15.765625 C 8.957031 16.980469 9.945312 17.964844 11.160156 17.964844 C 11.433594 17.964844 11.695312 17.914062 11.933594 17.820312 L 11.933594 21.023438 L 13.765625 21.023438 L 13.769531 21.015625 Z M 13.769531 17.804688 "/>
</g>
<path style=" stroke:none;fill-rule:nonzero;fill:rgb(0%,0%,0%);fill-opacity:1;" d="M 19.972656 9.066406 C 19.824219 9.039062 19.726562 8.894531 19.757812 8.746094 C 19.796875 8.554688 19.132812 8.191406 18.414062 8.007812 C 18.269531 7.96875 18.179688 7.820312 18.21875 7.671875 C 18.257812 7.527344 18.410156 7.4375 18.554688 7.476562 C 18.871094 7.558594 19.699219 7.804688 20.09375 8.230469 C 20.542969 7.898438 21.3125 7.867188 21.761719 7.957031 C 21.914062 7.984375 22.007812 8.128906 21.980469 8.277344 C 21.949219 8.425781 21.804688 8.523438 21.65625 8.496094 C 21.230469 8.410156 20.371094 8.484375 20.296875 8.851562 C 20.269531 9 20.125 9.097656 19.972656 9.066406 Z M 19.972656 9.066406 "/>
</g>
</svg>
