<?xml version="1.0" encoding="UTF-8"?>
<svg xmlns="http://www.w3.org/2000/svg" xmlns:xlink="http://www.w3.org/1999/xlink" width="30px" height="46px" viewBox="0 0 30 46" version="1.1">
<defs>
<clipPath id="clip1">
  <path d="M 13 18 L 21 18 L 21 21.769531 L 13 21.769531 Z M 13 18 "/>
</clipPath>
<clipPath id="clip2">
  <path d="M 9 6.921875 L 16 6.921875 L 16 10 L 9 10 Z M 9 6.921875 "/>
</clipPath>
</defs>
<g id="surface1">
<path style="fill-rule:nonzero;fill:rgb(100%,40.000001%,0%);fill-opacity:1;stroke-width:1;stroke-linecap:round;stroke-linejoin:miter;stroke:rgb(83.137256%,33.333334%,0%);stroke-opacity:1;stroke-miterlimit:4;" d="M 13.040625 0.638587 C 6.25625 0.638587 0.609375 6.287364 0.609375 12.418478 C 0.609375 15.17663 2.224219 18.678668 3.388802 21.097147 L 13 38.828125 L 22.560417 21.097147 C 23.725 18.678668 25.383854 15.353261 25.383854 12.418478 C 25.383854 6.290761 19.828385 0.638587 13.04401 0.638587 Z M 13.040625 2.099185 C 18.934635 2.136549 23.721615 6.756114 23.721615 12.428668 C 23.721615 18.108016 18.938021 22.659647 13.040625 22.700408 C 7.146615 22.663043 2.369792 18.11481 2.369792 12.428668 C 2.369792 6.752717 7.15 2.129755 13.040625 2.099185 Z M 13.040625 2.099185 " transform="matrix(1.153846,0,0,1.15,0,0)"/>
<path style="fill-rule:nonzero;fill:rgb(100%,100%,100%);fill-opacity:1;stroke-width:1.00275;stroke-linecap:butt;stroke-linejoin:miter;stroke:rgb(100%,100%,100%);stroke-opacity:1;stroke-miterlimit:4;" d="M 23.010677 12.374321 C 23.010677 17.703804 18.528385 22.02106 13.003385 22.02106 C 7.478385 22.02106 2.996094 17.703804 2.996094 12.374321 C 2.996094 7.048234 7.478385 2.727582 13.003385 2.727582 C 18.528385 2.727582 23.010677 7.048234 23.010677 12.374321 Z M 23.010677 12.374321 " transform="matrix(1.153846,0,0,1.15,0,0)"/>
<g clip-path="url(#clip1)" clip-rule="nonzero">
<path style=" stroke:none;fill-rule:nonzero;fill:rgb(0%,0%,0%);fill-opacity:1;" d="M 19.625 19.222656 L 14.765625 18.921875 C 13.96875 18.875 13.289062 19.402344 13.246094 20.105469 C 13.203125 20.804688 13.8125 21.417969 14.605469 21.464844 L 19.464844 21.765625 C 20.261719 21.816406 20.941406 21.285156 20.984375 20.582031 C 21.027344 19.882812 20.417969 19.273438 19.625 19.222656 Z M 17.03125 21.355469 L 14.621094 21.203125 C 13.972656 21.164062 13.472656 20.679688 13.507812 20.121094 C 13.542969 19.5625 14.097656 19.144531 14.75 19.183594 L 17.15625 19.332031 Z M 17.03125 21.355469 "/>
</g>
<g clip-path="url(#clip2)" clip-rule="nonzero">
<path style=" stroke:none;fill-rule:nonzero;fill:rgb(0%,0%,0%);fill-opacity:1;" d="M 11.171875 9.136719 L 11.597656 9.136719 L 11.597656 7.628906 L 11.855469 7.628906 L 11.855469 9.136719 L 12.285156 9.136719 L 12.285156 7.628906 L 12.539062 7.628906 L 12.539062 9.136719 L 12.96875 9.136719 L 12.96875 7.628906 L 13.222656 7.628906 L 13.222656 9.136719 L 13.652344 9.136719 L 13.652344 7.628906 L 13.910156 7.628906 L 13.910156 9.136719 L 14.335938 9.136719 L 14.335938 7.628906 L 14.59375 7.628906 L 14.59375 9.136719 L 15.023438 9.136719 L 15.023438 7.628906 L 15.277344 7.628906 L 15.277344 9.136719 L 15.621094 9.136719 L 15.621094 7.285156 L 15.320312 7.285156 L 15.320312 6.921875 L 10.1875 6.921875 L 10.1875 7.285156 L 9.886719 7.285156 L 9.886719 9.136719 L 10.230469 9.136719 L 10.230469 7.628906 L 10.484375 7.628906 L 10.484375 9.136719 L 10.914062 9.136719 L 10.914062 7.628906 L 11.171875 7.628906 Z M 11.171875 9.136719 "/>
</g>
<path style=" stroke:none;fill-rule:nonzero;fill:rgb(0%,0%,0%);fill-opacity:1;" d="M 14.664062 18.707031 C 14.703125 18.707031 14.738281 18.710938 14.777344 18.710938 L 15.125 18.734375 L 16.5 17.222656 L 16.5 11.621094 L 15.417969 9.4375 L 10.089844 9.4375 L 9.007812 11.621094 L 9.007812 19.585938 L 9.011719 19.585938 C 9.011719 19.589844 9.011719 19.59375 9.011719 19.597656 L 9.011719 20.046875 C 9.011719 20.277344 9.199219 20.46875 9.429688 20.46875 L 13.066406 20.46875 C 13.039062 20.347656 13.027344 20.222656 13.035156 20.09375 C 13.082031 19.316406 13.796875 18.707031 14.664062 18.707031 Z M 10.308594 12.617188 L 15.199219 12.617188 L 15.199219 18 L 10.308594 18 Z M 10.308594 12.617188 "/>
<path style=" stroke:none;fill-rule:nonzero;fill:rgb(0%,0%,0%);fill-opacity:1;" d="M 15.757812 18.820312 L 17.042969 17.488281 L 18.664062 18.476562 L 18.226562 18.929688 L 18.667969 18.949219 L 20.484375 16.945312 C 21.019531 16.359375 21.03125 15.496094 20.507812 15.023438 C 19.984375 14.550781 19.125 14.648438 18.589844 15.234375 L 15.351562 18.800781 Z M 15.757812 18.820312 "/>
</g>
</svg>
