<?xml version="1.0" encoding="UTF-8" standalone="no"?>
<svg
   xmlns:dc="http://purl.org/dc/elements/1.1/"
   xmlns:cc="http://creativecommons.org/ns#"
   xmlns:rdf="http://www.w3.org/1999/02/22-rdf-syntax-ns#"
   xmlns:svg="http://www.w3.org/2000/svg"
   xmlns="http://www.w3.org/2000/svg"
   xmlns:sodipodi="http://sodipodi.sourceforge.net/DTD/sodipodi-0.dtd"
   xmlns:inkscape="http://www.inkscape.org/namespaces/inkscape"
   height="44px"
   width="30px"
   version="1.1"
   viewBox="0 0 29.988946 43.988056"
   id="svg16"
   sodipodi:docname="Picnic Site.svg"
   inkscape:version="0.92.5 (2060ec1f9f, 2020-04-08)">
  <metadata
     id="metadata20">
    <rdf:RDF>
      <cc:Work
         rdf:about="">
        <dc:format>image/svg+xml</dc:format>
        <dc:type
           rdf:resource="http://purl.org/dc/dcmitype/StillImage" />
        <dc:title />
      </cc:Work>
    </rdf:RDF>
  </metadata>
  <sodipodi:namedview
     pagecolor="#ffffff"
     bordercolor="#666666"
     borderopacity="1"
     objecttolerance="10"
     gridtolerance="10"
     guidetolerance="10"
     inkscape:pageopacity="0"
     inkscape:pageshadow="2"
     inkscape:window-width="1680"
     inkscape:window-height="987"
     id="namedview18"
     showgrid="false"
     inkscape:zoom="5.7528241"
     inkscape:cx="-30.146964"
     inkscape:cy="42.205709"
     inkscape:window-x="1440"
     inkscape:window-y="0"
     inkscape:window-maximized="1"
     inkscape:current-layer="svg14" />
  <defs
     id="defs7">
    <radialGradient
       id="a"
       gradientUnits="userSpaceOnUse"
       cy="127.6"
       cx="-42.75"
       gradientTransform="matrix(4.2749643,0,0,0.98162997,197.99835,-83.706911)"
       r="2.3840001">
      <stop
         stop-color="#010101"
         offset="0"
         id="stop2" />
      <stop
         stop-opacity="0"
         stop-color="#090909"
         offset="1"
         id="stop4" />
    </radialGradient>
  </defs>
  <path
     d="m 14.994475,0.0864983 c -8.2386816,0 -14.91684362,6.6781619 -14.91684362,14.9168417 0.008545,2.561815 0.67294669,5.079165 1.93504232,7.306643 L 15.595595,40.920764 27.955752,22.365563 C 29.233667,20.121838 29.907468,17.585676 29.911315,15.00334 29.911273,6.7646602 23.233154,0.0864983 14.994475,0.0864983 Z"
     id="path9"
     inkscape:connector-curvature="0"
     style="fill:#db4e35;stroke-width:4.27539158" />
  <circle
     cy="15.050359"
     cx="14.994473"
     r="9.4272394"
     id="circle11"
     style="fill:#f9f3f3;stroke-width:4.27539158" />
  <ellipse
     rx="10.192533"
     ry="2.3394945"
     cy="41.562065"
     cx="14.994473"
     id="ellipse13"
     style="opacity:0.4;fill:url(#a);stroke-width:4.27496433" />
  <rect
     id="replace"
     rx="0"
     ry="0"
     height="13.36915"
     width="13.471761"
     y="8.2097387"
     x="8.2585926"
     style="fill:none;stroke-width:4.27539158" />
  <svg
     inkscape:version="0.92.5 (2060ec1f9f, 2020-04-08)"
     height="100"
     width="100"
     sodipodi:docname="Campsite.svg"
     id="svg14"
     xml:space="preserve"
     viewBox="0 0 100 100"
     y="10"
     x="8.5"
     version="1.1"><metadata
       id="metadata572"><rdf:RDF><cc:Work
           rdf:about=""><dc:format>image/svg+xml</dc:format><dc:type
             rdf:resource="http://purl.org/dc/dcmitype/StillImage" /><dc:title /></cc:Work></rdf:RDF></metadata><defs
       id="defs18" /><sodipodi:namedview
       inkscape:current-layer="svg14"
       inkscape:window-maximized="0"
       inkscape:window-y="0"
       inkscape:window-x="0"
       inkscape:cy="62.5"
       inkscape:cx="56.620763"
       inkscape:zoom="1.888"
       showgrid="false"
       id="namedview16"
       inkscape:window-height="480"
       inkscape:window-width="691"
       inkscape:pageshadow="2"
       inkscape:pageopacity="0"
       guidetolerance="10"
       gridtolerance="10"
       objecttolerance="10"
       borderopacity="1"
       bordercolor="#666666"
       pagecolor="#ffffff" /><style
       id="style2"
       type="text/css">
	.st0{fill:#020202;}
</style><g
       style="fill:none;fill-rule:evenodd;stroke:none;stroke-width:1"
       transform="matrix(0.22773014,0,0,0.22773014,-4.9460066,-6.8083469)"
       id="g12"><g
         style="fill:#000000"
         id="g10"><path
           inkscape:connector-curvature="0"
           id="path6"
           d="M 26.833333,70 H 26.000106 C 24.895478,70 24,69.11227 24,68 c 0,-1.104569 0.890058,-2 2.000106,-2 H 38.999894 C 40.104522,66 41,66.88773 41,68 c 0,1.104569 -0.890058,2 -2.000106,2 h -0.681495 l 0.668203,4.009222 C 39.07657,74.549025 38.704017,75 38.151732,75 37.595597,75 37.009849,74.574349 36.834826,74.049282 L 35.485065,70 h -5.818398 l -1.349761,4.049282 C 28.141884,74.574349 27.556135,75 27,75 26.447715,75 26.075162,74.549025 26.16513,74.009222 Z" /><path
           inkscape:connector-curvature="0"
           id="path8"
           d="M 64,68.796121 C 68.842869,68.59438 73.395284,67.975182 76.474005,66.948942 72.773568,63.248503 69.557602,58.371488 66.925136,53.440195 69.279274,53.190332 71.395416,52.796766 73,52.261905 69.450295,48.712198 66.470296,43.778917 64.202754,39.079895 65.67621,38.931008 67.002764,38.689555 68,38.357143 64.357144,34.714286 61.714286,28.642857 60.5,25 c -1.214286,3.642857 -3.857143,9.714286 -7.5,13.357143 1.007398,0.335799 2.331787,0.57686 3.796288,0.724739 C 54.528866,43.780307 51.549206,48.712699 48,52.261905 c 1.620549,0.540183 3.733272,0.93327 6.073101,1.181594 -2.632139,4.930167 -5.847494,9.805831 -9.547106,13.505443 3.117752,1.03925 7.661027,1.652456 12.474005,1.84979 v 4.201653 C 57,74.112567 57.898081,75 59.005919,75 h 2.988162 C 63.113445,75 64,74.104742 64,73.000385 Z" /></g></g></svg></svg>
