<?xml version="1.0" encoding="UTF-8"?>
<svg xmlns="http://www.w3.org/2000/svg" xmlns:xlink="http://www.w3.org/1999/xlink" width="30px" height="46px" viewBox="0 0 30 46" version="1.1">
<defs>
<clipPath id="clip1">
  <path d="M 8 6.921875 L 22 6.921875 L 22 21.769531 L 8 21.769531 Z M 8 6.921875 "/>
</clipPath>
</defs>
<g id="surface1">
<path style="fill-rule:nonzero;fill:rgb(100%,40.000001%,0%);fill-opacity:1;stroke-width:1;stroke-linecap:round;stroke-linejoin:miter;stroke:rgb(83.137256%,33.333334%,0%);stroke-opacity:1;stroke-miterlimit:4;" d="M 13.040625 0.638587 C 6.25625 0.638587 0.609375 6.287364 0.609375 12.418478 C 0.609375 15.17663 2.224219 18.678668 3.388802 21.097147 L 13 38.828125 L 22.560417 21.097147 C 23.725 18.678668 25.383854 15.353261 25.383854 12.418478 C 25.383854 6.290761 19.828385 0.638587 13.04401 0.638587 Z M 13.040625 2.099185 C 18.934635 2.136549 23.721615 6.756114 23.721615 12.428668 C 23.721615 18.108016 18.938021 22.659647 13.040625 22.700408 C 7.146615 22.663043 2.369792 18.11481 2.369792 12.428668 C 2.369792 6.752717 7.15 2.129755 13.040625 2.099185 Z M 13.040625 2.099185 " transform="matrix(1.153846,0,0,1.15,0,0)"/>
<path style="fill-rule:nonzero;fill:rgb(100%,100%,100%);fill-opacity:1;stroke-width:1.00275;stroke-linecap:butt;stroke-linejoin:miter;stroke:rgb(100%,100%,100%);stroke-opacity:1;stroke-miterlimit:4;" d="M 23.010677 12.374321 C 23.010677 17.703804 18.528385 22.02106 13.003385 22.02106 C 7.478385 22.02106 2.996094 17.703804 2.996094 12.374321 C 2.996094 7.048234 7.478385 2.727582 13.003385 2.727582 C 18.528385 2.727582 23.010677 7.048234 23.010677 12.374321 Z M 23.010677 12.374321 " transform="matrix(1.153846,0,0,1.15,0,0)"/>
<path style=" stroke:none;fill-rule:nonzero;fill:rgb(0%,0%,0%);fill-opacity:1;" d="M 16.175781 12.96875 C 16.175781 14.011719 15.257812 14.011719 14.765625 14.011719 L 14.148438 14.011719 L 14.148438 12.039062 L 14.921875 12.039062 C 15.355469 12.039062 16.175781 12.039062 16.175781 12.96875 Z M 16.175781 12.96875 "/>
<g clip-path="url(#clip1)" clip-rule="nonzero">
<path style=" stroke:none;fill-rule:nonzero;fill:rgb(0%,0%,0%);fill-opacity:1;" d="M 20.90625 11.929688 C 20.996094 10.867188 21.324219 9.894531 21.898438 9.003906 L 19.691406 6.921875 C 18.992188 7.488281 18.199219 7.800781 17.300781 7.855469 C 16.472656 7.925781 15.691406 7.78125 14.957031 7.414062 C 14.199219 7.769531 13.421875 7.914062 12.609375 7.855469 C 11.769531 7.785156 11.011719 7.507812 10.332031 7.007812 L 8.117188 9.085938 C 8.664062 9.992188 8.964844 10.9375 9.027344 11.929688 C 9.054688 12.382812 8.914062 13.007812 8.605469 13.820312 C 8.445312 14.269531 8.320312 14.660156 8.238281 14.984375 C 8.160156 15.308594 8.113281 15.570312 8.097656 15.765625 C 8.085938 16.628906 8.34375 17.410156 8.871094 18.101562 C 9.28125 18.609375 9.960938 19.167969 10.90625 19.777344 C 11.9375 20.273438 12.738281 20.59375 13.296875 20.730469 C 13.457031 20.800781 13.613281 20.867188 13.761719 20.933594 C 13.90625 21 14.0625 21.0625 14.226562 21.132812 C 14.578125 21.332031 14.824219 21.546875 14.957031 21.769531 C 15.117188 21.527344 15.367188 21.320312 15.703125 21.132812 C 15.941406 21.035156 16.140625 20.953125 16.304688 20.878906 C 16.464844 20.8125 16.585938 20.761719 16.65625 20.730469 C 16.773438 20.675781 16.929688 20.609375 17.121094 20.539062 C 17.3125 20.46875 17.546875 20.382812 17.832031 20.285156 C 18.375 20.105469 18.773438 19.933594 19.023438 19.777344 C 19.941406 19.167969 20.609375 18.617188 21.035156 18.125 C 21.582031 17.429688 21.847656 16.648438 21.835938 15.765625 C 21.804688 15.371094 21.625 14.742188 21.304688 13.882812 C 20.996094 13.046875 20.859375 12.398438 20.90625 11.929688 Z M 16.847656 14.777344 C 16.324219 15.097656 15.601562 15.097656 15.226562 15.097656 L 14.191406 15.097656 L 14.191406 17.761719 L 12.636719 17.761719 L 12.636719 10.933594 L 14.84375 10.933594 C 15.867188 10.933594 16.726562 10.996094 17.320312 11.679688 C 17.695312 12.113281 17.757812 12.609375 17.757812 12.957031 C 17.757812 13.753906 17.410156 14.425781 16.847656 14.777344 Z M 16.847656 14.777344 "/>
</g>
</g>
</svg>
