<?xml version="1.0" encoding="UTF-8"?>
<svg xmlns="http://www.w3.org/2000/svg" xmlns:xlink="http://www.w3.org/1999/xlink" width="30px" height="46px" viewBox="0 0 30 46" version="1.1">
<defs>
<clipPath id="clip1">
  <path d="M 9 6.921875 L 21 6.921875 L 21 21.769531 L 9 21.769531 Z M 9 6.921875 "/>
</clipPath>
</defs>
<g id="surface1">
<path style="fill-rule:nonzero;fill:rgb(100%,40.000001%,0%);fill-opacity:1;stroke-width:1;stroke-linecap:round;stroke-linejoin:miter;stroke:rgb(83.137256%,33.333334%,0%);stroke-opacity:1;stroke-miterlimit:4;" d="M 13.040625 0.638587 C 6.25625 0.638587 0.609375 6.287364 0.609375 12.418478 C 0.609375 15.17663 2.224219 18.678668 3.388802 21.097147 L 13 38.828125 L 22.560417 21.097147 C 23.725 18.678668 25.383854 15.353261 25.383854 12.418478 C 25.383854 6.290761 19.828385 0.638587 13.04401 0.638587 Z M 13.040625 2.099185 C 18.934635 2.136549 23.721615 6.756114 23.721615 12.428668 C 23.721615 18.108016 18.938021 22.659647 13.040625 22.700408 C 7.146615 22.663043 2.369792 18.11481 2.369792 12.428668 C 2.369792 6.752717 7.15 2.129755 13.040625 2.099185 Z M 13.040625 2.099185 " transform="matrix(1.153846,0,0,1.15,0,0)"/>
<path style="fill-rule:nonzero;fill:rgb(100%,100%,100%);fill-opacity:1;stroke-width:1.00275;stroke-linecap:butt;stroke-linejoin:miter;stroke:rgb(100%,100%,100%);stroke-opacity:1;stroke-miterlimit:4;" d="M 23.010677 12.374321 C 23.010677 17.703804 18.528385 22.02106 13.003385 22.02106 C 7.478385 22.02106 2.996094 17.703804 2.996094 12.374321 C 2.996094 7.048234 7.478385 2.727582 13.003385 2.727582 C 18.528385 2.727582 23.010677 7.048234 23.010677 12.374321 Z M 23.010677 12.374321 " transform="matrix(1.153846,0,0,1.15,0,0)"/>
<g clip-path="url(#clip1)" clip-rule="nonzero">
<path style=" stroke:none;fill-rule:evenodd;fill:rgb(0%,0%,0%);fill-opacity:1;" d="M 20.746094 9.707031 L 20.746094 19.914062 L 19.699219 19.914062 L 19.699219 18.566406 L 17.085938 19.828125 L 17.082031 9.636719 C 16.875 8.441406 16.058594 7.464844 14.9375 6.921875 L 17.609375 6.921875 C 19.203125 7.125 20.496094 8.261719 20.746094 9.707031 Z M 16.566406 9.707031 L 16.566406 21.769531 L 15.519531 21.769531 L 15.519531 19.785156 L 15.523438 19.785156 L 10.296875 19.121094 L 10.296875 20.839844 L 9.25 20.839844 L 9.25 9.707031 C 9.527344 8.105469 11.082031 6.921875 12.90625 6.921875 C 14.734375 6.921875 16.289062 8.105469 16.566406 9.707031 Z M 14.996094 9.707031 L 10.816406 9.707031 L 10.816406 11.5625 L 14.996094 11.5625 Z M 14.996094 9.707031 "/>
</g>
</g>
</svg>
