<?xml version="1.0" encoding="UTF-8"?>
<svg xmlns="http://www.w3.org/2000/svg" xmlns:xlink="http://www.w3.org/1999/xlink" width="30px" height="46px" viewBox="0 0 30 46" version="1.1">
<defs>
<clipPath id="clip1">
  <path d="M 7.550781 7 L 22.445312 7 L 22.445312 21 L 7.550781 21 Z M 7.550781 7 "/>
</clipPath>
</defs>
<g id="surface1">
<path style="fill-rule:nonzero;fill:rgb(100%,40.000001%,0%);fill-opacity:1;stroke-width:1;stroke-linecap:round;stroke-linejoin:miter;stroke:rgb(83.137256%,33.333334%,0%);stroke-opacity:1;stroke-miterlimit:4;" d="M 13.040625 0.638587 C 6.25625 0.638587 0.609375 6.287364 0.609375 12.418478 C 0.609375 15.17663 2.224219 18.678668 3.388802 21.097147 L 13 38.828125 L 22.560417 21.097147 C 23.725 18.678668 25.383854 15.353261 25.383854 12.418478 C 25.383854 6.290761 19.828385 0.638587 13.04401 0.638587 Z M 13.040625 2.099185 C 18.934635 2.136549 23.721615 6.756114 23.721615 12.428668 C 23.721615 18.108016 18.938021 22.659647 13.040625 22.700408 C 7.146615 22.663043 2.369792 18.11481 2.369792 12.428668 C 2.369792 6.752717 7.15 2.129755 13.040625 2.099185 Z M 13.040625 2.099185 " transform="matrix(1.153846,0,0,1.15,0,0)"/>
<path style="fill-rule:nonzero;fill:rgb(100%,100%,100%);fill-opacity:1;stroke-width:1.00275;stroke-linecap:butt;stroke-linejoin:miter;stroke:rgb(100%,100%,100%);stroke-opacity:1;stroke-miterlimit:4;" d="M 23.010677 12.374321 C 23.010677 17.703804 18.528385 22.02106 13.003385 22.02106 C 7.478385 22.02106 2.996094 17.703804 2.996094 12.374321 C 2.996094 7.048234 7.478385 2.727582 13.003385 2.727582 C 18.528385 2.727582 23.010677 7.048234 23.010677 12.374321 Z M 23.010677 12.374321 " transform="matrix(1.153846,0,0,1.15,0,0)"/>
<g clip-path="url(#clip1)" clip-rule="nonzero">
<path style=" stroke:none;fill-rule:evenodd;fill:rgb(0%,0%,0%);fill-opacity:1;" d="M 22.445312 13.445312 C 22.445312 13.410156 22.398438 13.382812 22.339844 13.382812 C 22.300781 13.382812 22.265625 13.398438 22.25 13.417969 C 22.234375 13.398438 22.199219 13.382812 22.160156 13.382812 C 22.121094 13.382812 22.085938 13.398438 22.066406 13.417969 C 22.050781 13.398438 22.015625 13.382812 21.976562 13.382812 C 21.9375 13.382812 21.902344 13.398438 21.886719 13.417969 C 21.867188 13.398438 21.835938 13.382812 21.796875 13.382812 C 21.753906 13.382812 21.722656 13.398438 21.703125 13.417969 C 21.6875 13.398438 21.652344 13.382812 21.613281 13.382812 C 21.574219 13.382812 21.539062 13.398438 21.523438 13.417969 C 21.503906 13.398438 21.472656 13.382812 21.429688 13.382812 C 21.390625 13.382812 21.355469 13.398438 21.339844 13.417969 C 21.324219 13.398438 21.289062 13.382812 21.25 13.382812 C 21.210938 13.382812 21.175781 13.398438 21.15625 13.417969 C 21.140625 13.398438 21.105469 13.382812 21.066406 13.382812 C 21.027344 13.382812 20.992188 13.398438 20.976562 13.417969 C 20.960938 13.398438 20.925781 13.382812 20.886719 13.382812 C 20.84375 13.382812 20.8125 13.398438 20.792969 13.417969 C 20.777344 13.398438 20.742188 13.382812 20.703125 13.382812 C 20.664062 13.382812 20.628906 13.398438 20.613281 13.417969 C 20.59375 13.398438 20.5625 13.382812 20.519531 13.382812 C 20.480469 13.382812 20.445312 13.398438 20.429688 13.417969 C 20.414062 13.398438 20.378906 13.382812 20.339844 13.382812 C 20.300781 13.382812 20.265625 13.398438 20.246094 13.417969 C 20.230469 13.398438 20.195312 13.382812 20.15625 13.382812 C 20.117188 13.382812 20.082031 13.398438 20.066406 13.417969 C 20.050781 13.398438 20.015625 13.382812 19.976562 13.382812 C 19.933594 13.382812 19.902344 13.398438 19.882812 13.417969 C 19.867188 13.398438 19.832031 13.382812 19.792969 13.382812 C 19.753906 13.382812 19.71875 13.398438 19.703125 13.417969 C 19.683594 13.398438 19.652344 13.382812 19.609375 13.382812 C 19.570312 13.382812 19.535156 13.398438 19.519531 13.417969 C 19.503906 13.398438 19.46875 13.382812 19.429688 13.382812 C 19.390625 13.382812 19.355469 13.398438 19.335938 13.417969 C 19.320312 13.398438 19.285156 13.382812 19.246094 13.382812 C 19.207031 13.382812 19.171875 13.398438 19.15625 13.417969 C 19.136719 13.398438 19.105469 13.382812 19.066406 13.382812 C 19.023438 13.382812 18.992188 13.398438 18.972656 13.417969 C 18.957031 13.398438 18.921875 13.382812 18.882812 13.382812 C 18.84375 13.382812 18.808594 13.398438 18.792969 13.417969 C 18.773438 13.398438 18.742188 13.382812 18.699219 13.382812 C 18.660156 13.382812 18.628906 13.398438 18.609375 13.417969 C 18.59375 13.398438 18.558594 13.382812 18.519531 13.382812 C 18.480469 13.382812 18.445312 13.398438 18.429688 13.417969 C 18.410156 13.398438 18.375 13.382812 18.335938 13.382812 C 18.296875 13.382812 18.261719 13.398438 18.246094 13.417969 C 18.230469 13.398438 18.195312 13.382812 18.15625 13.382812 C 18.113281 13.382812 18.082031 13.398438 18.0625 13.417969 C 18.046875 13.398438 18.011719 13.382812 17.972656 13.382812 C 17.933594 13.382812 17.898438 13.398438 17.882812 13.417969 C 17.863281 13.398438 17.832031 13.382812 17.789062 13.382812 C 17.75 13.382812 17.71875 13.394531 17.699219 13.417969 L 17.699219 12.804688 L 17.863281 12.507812 L 16.128906 12.507812 L 16.128906 10.539062 L 16.292969 10.246094 L 15.820312 10.246094 L 15.820312 8.96875 C 15.820312 8.90625 15.761719 8.855469 15.695312 8.855469 C 15.691406 8.855469 15.691406 8.855469 15.6875 8.855469 C 15.652344 8.574219 15.421875 8.351562 15.121094 8.300781 L 15.121094 8.109375 C 15.121094 8.046875 15.066406 7.996094 14.996094 7.996094 C 14.929688 7.996094 14.875 8.046875 14.875 8.109375 L 14.875 8.300781 C 14.574219 8.351562 14.339844 8.574219 14.304688 8.855469 C 14.304688 8.855469 14.300781 8.855469 14.300781 8.855469 C 14.230469 8.855469 14.175781 8.90625 14.175781 8.96875 L 14.175781 10.246094 L 13.703125 10.246094 L 13.867188 10.542969 L 13.867188 12.507812 L 12.132812 12.507812 L 12.296875 12.804688 L 12.296875 13.417969 C 12.28125 13.398438 12.246094 13.382812 12.207031 13.382812 C 12.167969 13.382812 12.132812 13.394531 12.117188 13.417969 C 12.097656 13.394531 12.066406 13.382812 12.023438 13.382812 C 11.984375 13.382812 11.949219 13.394531 11.933594 13.417969 C 11.917969 13.394531 11.882812 13.382812 11.84375 13.382812 C 11.800781 13.382812 11.769531 13.394531 11.75 13.417969 C 11.734375 13.394531 11.699219 13.382812 11.660156 13.382812 C 11.621094 13.382812 11.585938 13.394531 11.570312 13.417969 C 11.550781 13.394531 11.519531 13.382812 11.476562 13.382812 C 11.4375 13.382812 11.40625 13.394531 11.386719 13.417969 C 11.371094 13.394531 11.335938 13.382812 11.296875 13.382812 C 11.257812 13.382812 11.222656 13.394531 11.207031 13.417969 C 11.1875 13.394531 11.152344 13.382812 11.113281 13.382812 C 11.074219 13.382812 11.039062 13.394531 11.023438 13.417969 C 11.007812 13.394531 10.972656 13.382812 10.933594 13.382812 C 10.890625 13.382812 10.859375 13.394531 10.839844 13.417969 C 10.824219 13.394531 10.789062 13.382812 10.75 13.382812 C 10.710938 13.382812 10.675781 13.394531 10.660156 13.417969 C 10.640625 13.394531 10.609375 13.382812 10.566406 13.382812 C 10.527344 13.382812 10.492188 13.394531 10.476562 13.417969 C 10.460938 13.394531 10.425781 13.382812 10.386719 13.382812 C 10.34375 13.382812 10.3125 13.394531 10.292969 13.417969 C 10.277344 13.394531 10.242188 13.382812 10.203125 13.382812 C 10.164062 13.382812 10.128906 13.394531 10.113281 13.417969 C 10.09375 13.394531 10.0625 13.382812 10.019531 13.382812 C 9.980469 13.382812 9.949219 13.394531 9.929688 13.417969 C 9.914062 13.394531 9.878906 13.382812 9.839844 13.382812 C 9.800781 13.382812 9.765625 13.394531 9.75 13.417969 C 9.730469 13.394531 9.699219 13.382812 9.65625 13.382812 C 9.617188 13.382812 9.582031 13.394531 9.566406 13.417969 C 9.550781 13.394531 9.515625 13.382812 9.476562 13.382812 C 9.433594 13.382812 9.402344 13.394531 9.382812 13.417969 C 9.367188 13.394531 9.332031 13.382812 9.292969 13.382812 C 9.253906 13.382812 9.21875 13.394531 9.203125 13.417969 C 9.183594 13.394531 9.152344 13.382812 9.109375 13.382812 C 9.070312 13.382812 9.039062 13.394531 9.019531 13.417969 C 9.003906 13.394531 8.96875 13.382812 8.929688 13.382812 C 8.890625 13.382812 8.855469 13.394531 8.839844 13.417969 C 8.820312 13.394531 8.785156 13.382812 8.746094 13.382812 C 8.707031 13.382812 8.671875 13.394531 8.65625 13.417969 C 8.636719 13.394531 8.605469 13.382812 8.566406 13.382812 C 8.523438 13.382812 8.492188 13.394531 8.472656 13.417969 C 8.457031 13.394531 8.421875 13.382812 8.382812 13.382812 C 8.34375 13.382812 8.308594 13.394531 8.292969 13.417969 C 8.273438 13.394531 8.242188 13.382812 8.199219 13.382812 C 8.160156 13.382812 8.125 13.394531 8.109375 13.417969 C 8.09375 13.394531 8.058594 13.382812 8.019531 13.382812 C 7.976562 13.382812 7.945312 13.394531 7.925781 13.417969 C 7.910156 13.394531 7.875 13.382812 7.835938 13.382812 C 7.796875 13.382812 7.761719 13.394531 7.746094 13.417969 C 7.726562 13.394531 7.695312 13.382812 7.652344 13.382812 C 7.597656 13.382812 7.550781 13.410156 7.550781 13.445312 L 7.550781 20.695312 L 12.308594 20.695312 L 12.308594 20.113281 L 7.878906 20.113281 L 7.878906 17.210938 L 12.519531 17.210938 L 12.679688 17.859375 L 12.984375 17.859375 L 13.078125 17.210938 L 13.789062 17.210938 L 13.882812 17.859375 L 14.257812 17.859375 L 14.351562 17.210938 L 15.640625 17.210938 L 15.734375 17.859375 L 16.109375 17.859375 L 16.199219 17.210938 L 16.917969 17.210938 L 17.011719 17.859375 L 17.316406 17.859375 L 17.476562 17.210938 L 22.113281 17.210938 L 22.113281 20.113281 L 17.691406 20.113281 L 17.691406 20.695312 L 22.445312 20.695312 Z M 22.113281 14.550781 L 17.640625 14.550781 L 16.671875 14.019531 L 22.113281 14.019531 Z M 14.632812 10.246094 L 14.996094 10 L 15.363281 10.246094 Z M 13.347656 14.425781 L 14.996094 13.511719 L 16.648438 14.425781 Z M 15.796875 10.566406 L 15.796875 13.433594 L 15.617188 13.433594 L 14.996094 13.09375 L 14.378906 13.433594 L 14.199219 13.433594 L 14.199219 10.566406 Z M 16.128906 13.445312 L 16.128906 12.816406 L 17.367188 12.816406 L 17.367188 13.445312 Z M 13.867188 12.816406 L 13.867188 13.445312 L 12.628906 13.445312 L 12.628906 12.816406 Z M 7.878906 14.019531 L 13.324219 14.019531 L 12.355469 14.550781 L 7.878906 14.550781 Z M 14.792969 9.542969 C 14.792969 9.648438 14.882812 9.730469 14.996094 9.730469 C 15.109375 9.730469 15.203125 9.648438 15.203125 9.542969 C 15.355469 9.5 15.484375 9.410156 15.570312 9.292969 L 15.570312 10.136719 L 15.503906 10.089844 L 15.125 9.839844 L 14.996094 9.753906 L 14.871094 9.839844 L 14.492188 10.089844 L 14.425781 10.136719 L 14.425781 9.292969 C 14.511719 9.410156 14.640625 9.5 14.792969 9.542969 Z M 7.878906 16.910156 L 7.878906 14.78125 L 22.113281 14.78125 L 22.113281 16.910156 Z M 7.878906 16.910156 "/>
</g>
<path style=" stroke:none;fill-rule:evenodd;fill:rgb(0%,0%,0%);fill-opacity:1;" d="M 12.941406 15.535156 L 13.722656 15.535156 L 13.722656 16.71875 L 12.941406 16.71875 Z M 12.941406 15.535156 "/>
<path style=" stroke:none;fill-rule:evenodd;fill:rgb(0%,0%,0%);fill-opacity:1;" d="M 14.371094 15.535156 L 15.621094 15.535156 L 15.621094 16.71875 L 14.371094 16.71875 Z M 14.371094 15.535156 "/>
<path style=" stroke:none;fill-rule:evenodd;fill:rgb(0%,0%,0%);fill-opacity:1;" d="M 16.28125 15.535156 L 17.0625 15.535156 L 17.0625 16.71875 L 16.28125 16.71875 Z M 16.28125 15.535156 "/>
<path style=" stroke:none;fill-rule:evenodd;fill:rgb(0%,0%,0%);fill-opacity:1;" d="M 12.941406 15.007812 L 13.722656 15.007812 L 13.722656 15.320312 L 12.941406 15.320312 Z M 12.941406 15.007812 "/>
<path style=" stroke:none;fill-rule:evenodd;fill:rgb(0%,0%,0%);fill-opacity:1;" d="M 14.371094 15.007812 L 15.621094 15.007812 L 15.621094 15.320312 L 14.371094 15.320312 Z M 14.371094 15.007812 "/>
<path style=" stroke:none;fill-rule:evenodd;fill:rgb(0%,0%,0%);fill-opacity:1;" d="M 16.28125 15.007812 L 17.0625 15.007812 L 17.0625 15.320312 L 16.28125 15.320312 Z M 16.28125 15.007812 "/>
<path style=" stroke:none;fill-rule:evenodd;fill:rgb(0%,0%,0%);fill-opacity:1;" d="M 12.941406 18.734375 L 13.722656 18.734375 L 13.722656 19.839844 L 12.941406 19.839844 Z M 12.941406 18.734375 "/>
<path style=" stroke:none;fill-rule:evenodd;fill:rgb(0%,0%,0%);fill-opacity:1;" d="M 15.8125 18.800781 C 15.8125 18.386719 15.445312 18.054688 14.996094 18.054688 C 14.550781 18.054688 14.183594 18.386719 14.183594 18.800781 L 14.183594 20.695312 L 15.8125 20.695312 Z M 15.8125 18.800781 "/>
<path style=" stroke:none;fill-rule:evenodd;fill:rgb(0%,0%,0%);fill-opacity:1;" d="M 16.28125 18.734375 L 17.0625 18.734375 L 17.0625 19.839844 L 16.28125 19.839844 Z M 16.28125 18.734375 "/>
<path style=" stroke:none;fill-rule:evenodd;fill:rgb(0%,0%,0%);fill-opacity:1;" d="M 12.941406 18.152344 L 13.722656 18.152344 L 13.722656 18.449219 L 12.941406 18.449219 Z M 12.941406 18.152344 "/>
<path style=" stroke:none;fill-rule:evenodd;fill:rgb(0%,0%,0%);fill-opacity:1;" d="M 16.28125 18.152344 L 17.0625 18.152344 L 17.0625 18.449219 L 16.28125 18.449219 Z M 16.28125 18.152344 "/>
<path style=" stroke:none;fill-rule:evenodd;fill:rgb(0%,0%,0%);fill-opacity:1;" d="M 12.894531 12.996094 L 13.652344 12.996094 L 13.652344 13.308594 L 12.894531 13.308594 Z M 12.894531 12.996094 "/>
<path style=" stroke:none;fill-rule:evenodd;fill:rgb(0%,0%,0%);fill-opacity:1;" d="M 15.5625 10.914062 L 14.433594 10.914062 L 14.433594 11.890625 L 15.5625 11.890625 Z M 14.996094 11.785156 C 14.882812 11.785156 14.777344 11.742188 14.703125 11.671875 C 14.625 11.601562 14.578125 11.507812 14.578125 11.402344 C 14.578125 11.296875 14.625 11.199219 14.703125 11.128906 C 14.777344 11.058594 14.882812 11.015625 14.996094 11.015625 C 15.113281 11.015625 15.21875 11.058594 15.292969 11.128906 C 15.371094 11.199219 15.414062 11.296875 15.414062 11.402344 C 15.414062 11.507812 15.371094 11.601562 15.292969 11.671875 C 15.21875 11.742188 15.113281 11.785156 14.996094 11.785156 Z M 14.996094 11.785156 "/>
<path style=" stroke:none;fill-rule:evenodd;fill:rgb(0%,0%,0%);fill-opacity:1;" d="M 14.429688 12.28125 L 15.558594 12.28125 L 15.558594 12.824219 L 14.429688 12.824219 Z M 14.429688 12.28125 "/>
<path style=" stroke:none;fill-rule:evenodd;fill:rgb(0%,0%,0%);fill-opacity:1;" d="M 16.339844 12.996094 L 17.097656 12.996094 L 17.097656 13.308594 L 16.339844 13.308594 Z M 16.339844 12.996094 "/>
<path style=" stroke:none;fill-rule:evenodd;fill:rgb(0%,0%,0%);fill-opacity:1;" d="M 9.863281 14.175781 L 10.644531 14.175781 L 10.644531 14.378906 L 9.863281 14.378906 Z M 9.863281 14.175781 "/>
<path style=" stroke:none;fill-rule:evenodd;fill:rgb(0%,0%,0%);fill-opacity:1;" d="M 11.105469 14.175781 L 11.886719 14.175781 L 11.886719 14.378906 L 11.105469 14.378906 Z M 11.105469 14.175781 "/>
<path style=" stroke:none;fill-rule:evenodd;fill:rgb(0%,0%,0%);fill-opacity:1;" d="M 8.621094 14.175781 L 9.402344 14.175781 L 9.402344 14.378906 L 8.621094 14.378906 Z M 8.621094 14.175781 "/>
<path style=" stroke:none;fill-rule:evenodd;fill:rgb(0%,0%,0%);fill-opacity:1;" d="M 13.722656 20.695312 L 13.722656 20.113281 L 12.941406 20.113281 L 12.941406 20.695312 Z M 13.722656 20.695312 "/>
<path style=" stroke:none;fill-rule:evenodd;fill:rgb(0%,0%,0%);fill-opacity:1;" d="M 16.273438 20.394531 L 16.273438 20.695312 L 17.0625 20.695312 L 17.0625 20.113281 L 16.273438 20.113281 Z M 16.273438 20.394531 "/>
<path style=" stroke:none;fill-rule:evenodd;fill:rgb(0%,0%,0%);fill-opacity:1;" d="M 14.992188 11.132812 C 15 11.132812 15.007812 11.128906 15.007812 11.121094 L 15.007812 11.058594 C 15.007812 11.050781 15 11.042969 14.992188 11.042969 C 14.984375 11.042969 14.976562 11.050781 14.976562 11.058594 L 14.976562 11.121094 C 14.976562 11.128906 14.984375 11.132812 14.992188 11.132812 Z M 14.992188 11.132812 "/>
<path style=" stroke:none;fill-rule:evenodd;fill:rgb(0%,0%,0%);fill-opacity:1;" d="M 14.992188 11.667969 C 14.984375 11.667969 14.976562 11.675781 14.976562 11.683594 L 14.976562 11.746094 C 14.976562 11.753906 14.984375 11.757812 14.992188 11.757812 C 15 11.757812 15.007812 11.753906 15.007812 11.746094 L 15.007812 11.683594 C 15.007812 11.675781 15 11.667969 14.992188 11.667969 Z M 14.992188 11.667969 "/>
<path style=" stroke:none;fill-rule:evenodd;fill:rgb(0%,0%,0%);fill-opacity:1;" d="M 14.6875 11.382812 L 14.621094 11.382812 C 14.609375 11.382812 14.605469 11.386719 14.605469 11.394531 C 14.605469 11.402344 14.609375 11.410156 14.621094 11.410156 L 14.6875 11.410156 C 14.695312 11.410156 14.703125 11.402344 14.703125 11.394531 C 14.703125 11.386719 14.695312 11.382812 14.6875 11.382812 Z M 14.6875 11.382812 "/>
<path style=" stroke:none;fill-rule:evenodd;fill:rgb(0%,0%,0%);fill-opacity:1;" d="M 15.371094 11.382812 L 15.300781 11.382812 C 15.292969 11.382812 15.289062 11.386719 15.289062 11.394531 C 15.289062 11.402344 15.292969 11.410156 15.300781 11.410156 L 15.371094 11.410156 C 15.378906 11.410156 15.386719 11.402344 15.386719 11.394531 C 15.386719 11.386719 15.378906 11.382812 15.371094 11.382812 Z M 15.371094 11.382812 "/>
<path style=" stroke:none;fill-rule:evenodd;fill:rgb(0%,0%,0%);fill-opacity:1;" d="M 15.027344 11.390625 L 15.027344 11.183594 C 15.027344 11.164062 15.011719 11.148438 14.992188 11.148438 C 14.972656 11.148438 14.957031 11.164062 14.957031 11.183594 L 14.957031 11.402344 C 14.957031 11.410156 14.960938 11.417969 14.96875 11.425781 C 14.96875 11.425781 14.972656 11.429688 14.972656 11.429688 L 15.089844 11.546875 C 15.101562 11.558594 15.125 11.558594 15.136719 11.546875 C 15.152344 11.535156 15.152344 11.515625 15.140625 11.503906 Z M 15.027344 11.390625 "/>
<path style=" stroke:none;fill-rule:evenodd;fill:rgb(0%,0%,0%);fill-opacity:1;" d="M 11.226562 17.5625 L 11.75 17.5625 L 11.75 17.894531 L 11.226562 17.894531 Z M 11.226562 17.5625 "/>
<path style=" stroke:none;fill-rule:evenodd;fill:rgb(0%,0%,0%);fill-opacity:1;" d="M 9.988281 17.5625 L 10.511719 17.5625 L 10.511719 17.894531 L 9.988281 17.894531 Z M 9.988281 17.5625 "/>
<path style=" stroke:none;fill-rule:evenodd;fill:rgb(0%,0%,0%);fill-opacity:1;" d="M 10.675781 17.5625 L 10.675781 18.40625 L 9.824219 18.40625 L 9.824219 17.5625 L 9.4375 17.5625 L 9.4375 18.40625 L 8.585938 18.40625 L 8.585938 17.5625 L 8.195312 17.5625 L 8.195312 19.867188 L 8.621094 19.867188 L 8.621094 18.753906 L 9.402344 18.753906 L 9.402344 19.867188 L 9.863281 19.867188 L 9.863281 18.753906 L 10.644531 18.753906 L 10.644531 19.867188 L 11.105469 19.867188 L 11.105469 18.753906 L 11.886719 18.753906 L 11.886719 19.867188 L 12.308594 19.867188 L 12.308594 17.5625 L 11.914062 17.5625 L 11.914062 18.40625 L 11.0625 18.40625 L 11.0625 17.5625 Z M 10.675781 17.5625 "/>
<path style=" stroke:none;fill-rule:evenodd;fill:rgb(0%,0%,0%);fill-opacity:1;" d="M 8.753906 17.5625 L 9.273438 17.5625 L 9.273438 17.894531 L 8.753906 17.894531 Z M 8.753906 17.5625 "/>
<path style=" stroke:none;fill-rule:evenodd;fill:rgb(0%,0%,0%);fill-opacity:1;" d="M 11.914062 15.007812 L 12.308594 15.007812 L 12.308594 16.71875 L 11.914062 16.71875 Z M 11.914062 15.007812 "/>
<path style=" stroke:none;fill-rule:evenodd;fill:rgb(0%,0%,0%);fill-opacity:1;" d="M 10.675781 15.007812 L 11.0625 15.007812 L 11.0625 16.71875 L 10.675781 16.71875 Z M 10.675781 15.007812 "/>
<path style=" stroke:none;fill-rule:evenodd;fill:rgb(0%,0%,0%);fill-opacity:1;" d="M 11.226562 15.007812 L 11.75 15.007812 L 11.75 15.535156 L 11.226562 15.535156 Z M 11.226562 15.007812 "/>
<path style=" stroke:none;fill-rule:evenodd;fill:rgb(0%,0%,0%);fill-opacity:1;" d="M 8.753906 15.007812 L 9.273438 15.007812 L 9.273438 15.535156 L 8.753906 15.535156 Z M 8.753906 15.007812 "/>
<path style=" stroke:none;fill-rule:evenodd;fill:rgb(0%,0%,0%);fill-opacity:1;" d="M 9.4375 15.007812 L 9.824219 15.007812 L 9.824219 16.71875 L 9.4375 16.71875 Z M 9.4375 15.007812 "/>
<path style=" stroke:none;fill-rule:evenodd;fill:rgb(0%,0%,0%);fill-opacity:1;" d="M 9.988281 15.007812 L 10.511719 15.007812 L 10.511719 15.535156 L 9.988281 15.535156 Z M 9.988281 15.007812 "/>
<path style=" stroke:none;fill-rule:evenodd;fill:rgb(0%,0%,0%);fill-opacity:1;" d="M 8.195312 16.71875 L 8.589844 16.71875 L 8.589844 15.007812 L 8.195312 15.007812 Z M 8.195312 16.71875 "/>
<path style=" stroke:none;fill-rule:evenodd;fill:rgb(0%,0%,0%);fill-opacity:1;" d="M 19.359375 14.175781 L 20.140625 14.175781 L 20.140625 14.378906 L 19.359375 14.378906 Z M 19.359375 14.175781 "/>
<path style=" stroke:none;fill-rule:evenodd;fill:rgb(0%,0%,0%);fill-opacity:1;" d="M 20.601562 14.175781 L 21.382812 14.175781 L 21.382812 14.378906 L 20.601562 14.378906 Z M 20.601562 14.175781 "/>
<path style=" stroke:none;fill-rule:evenodd;fill:rgb(0%,0%,0%);fill-opacity:1;" d="M 18.117188 14.175781 L 18.898438 14.175781 L 18.898438 14.378906 L 18.117188 14.378906 Z M 18.117188 14.175781 "/>
<path style=" stroke:none;fill-rule:evenodd;fill:rgb(0%,0%,0%);fill-opacity:1;" d="M 20.722656 17.5625 L 21.246094 17.5625 L 21.246094 17.894531 L 20.722656 17.894531 Z M 20.722656 17.5625 "/>
<path style=" stroke:none;fill-rule:evenodd;fill:rgb(0%,0%,0%);fill-opacity:1;" d="M 20.601562 18.753906 L 21.382812 18.753906 L 21.382812 19.867188 L 21.804688 19.867188 L 21.804688 17.5625 L 21.410156 17.5625 L 21.410156 18.40625 L 20.558594 18.40625 L 20.558594 17.5625 L 20.171875 17.5625 L 20.171875 18.40625 L 19.320312 18.40625 L 19.320312 17.5625 L 18.933594 17.5625 L 18.933594 18.40625 L 18.082031 18.40625 L 18.082031 17.5625 L 17.691406 17.5625 L 17.691406 19.867188 L 18.117188 19.867188 L 18.117188 18.753906 L 18.898438 18.753906 L 18.898438 19.867188 L 19.359375 19.867188 L 19.359375 18.753906 L 20.140625 18.753906 L 20.140625 19.867188 L 20.601562 19.867188 Z M 20.601562 18.753906 "/>
<path style=" stroke:none;fill-rule:evenodd;fill:rgb(0%,0%,0%);fill-opacity:1;" d="M 19.484375 17.5625 L 20.007812 17.5625 L 20.007812 17.894531 L 19.484375 17.894531 Z M 19.484375 17.5625 "/>
<path style=" stroke:none;fill-rule:evenodd;fill:rgb(0%,0%,0%);fill-opacity:1;" d="M 18.246094 17.5625 L 18.769531 17.5625 L 18.769531 17.894531 L 18.246094 17.894531 Z M 18.246094 17.5625 "/>
<path style=" stroke:none;fill-rule:evenodd;fill:rgb(0%,0%,0%);fill-opacity:1;" d="M 19.484375 15.007812 L 20.007812 15.007812 L 20.007812 15.535156 L 19.484375 15.535156 Z M 19.484375 15.007812 "/>
<path style=" stroke:none;fill-rule:evenodd;fill:rgb(0%,0%,0%);fill-opacity:1;" d="M 20.171875 15.007812 L 20.558594 15.007812 L 20.558594 16.71875 L 20.171875 16.71875 Z M 20.171875 15.007812 "/>
<path style=" stroke:none;fill-rule:evenodd;fill:rgb(0%,0%,0%);fill-opacity:1;" d="M 18.246094 15.007812 L 18.769531 15.007812 L 18.769531 15.535156 L 18.246094 15.535156 Z M 18.246094 15.007812 "/>
<path style=" stroke:none;fill-rule:evenodd;fill:rgb(0%,0%,0%);fill-opacity:1;" d="M 20.722656 15.007812 L 21.246094 15.007812 L 21.246094 15.535156 L 20.722656 15.535156 Z M 20.722656 15.007812 "/>
<path style=" stroke:none;fill-rule:evenodd;fill:rgb(0%,0%,0%);fill-opacity:1;" d="M 18.933594 15.007812 L 19.320312 15.007812 L 19.320312 16.71875 L 18.933594 16.71875 Z M 18.933594 15.007812 "/>
<path style=" stroke:none;fill-rule:evenodd;fill:rgb(0%,0%,0%);fill-opacity:1;" d="M 21.410156 15.007812 L 21.804688 15.007812 L 21.804688 16.71875 L 21.410156 16.71875 Z M 21.410156 15.007812 "/>
<path style=" stroke:none;fill-rule:evenodd;fill:rgb(0%,0%,0%);fill-opacity:1;" d="M 17.691406 16.71875 L 18.082031 16.71875 L 18.082031 15.007812 L 17.691406 15.007812 Z M 17.691406 16.71875 "/>
</g>
</svg>
