<?xml version="1.0" encoding="UTF-8" standalone="no"?>
<svg xmlns="http://www.w3.org/2000/svg" height="40" width="26" version="1.1" xmlns:xlink="http://www.w3.org/1999/xlink">
 <path d="m13.04 0.6387c-6.783 0-12.43 5.649-12.43 11.78 0 2.757 1.613 6.26 2.779 8.68l9.611 17.73 9.56-17.73c1.166-2.42 2.824-5.747 2.824-8.68 0-6.128-5.555-11.78-12.34-11.78zm0 1.461c5.895 0.0373 10.68 4.656 10.68 10.33 0 5.678-4.781 10.23-10.68 10.27-5.895-0.0373-10.67-4.585-10.67-10.27 0-5.678 4.779-10.3 10.67-10.33z" stroke="#d45500" stroke-linecap="round" fill="#f60"/>
  <ellipse
     style="fill:#ffffff;stroke:#ffffff;stroke-width:1.00274992"
     id="path13"
     cx="13.003574"
     cy="12.374899"
     rx="10.005984"
     ry="9.6464386" />
<svg
   xmlns:dc="http://purl.org/dc/elements/1.1/"
   xmlns:cc="http://creativecommons.org/ns#"
   xmlns:rdf="http://www.w3.org/1999/02/22-rdf-syntax-ns#"
   xmlns:svg="http://www.w3.org/2000/svg"
   xmlns="http://www.w3.org/2000/svg"
   xmlns:sodipodi="http://sodipodi.sourceforge.net/DTD/sodipodi-0.dtd"
   xmlns:inkscape="http://www.inkscape.org/namespaces/inkscape"
   version="1.1"
   x="6.543"
   y="6.02"
   viewBox="0 0 79.717638 68.200405"
   enable-background="new 0 0 100 100"
   xml:space="preserve"
   id="svg2"
   inkscape:version="0.48.4 r9939"
   width="12.91"
   height="12.91"
   sodipodi:docname="Public Telephone.svg"><metadata
     id="metadata30"><rdf:RDF><cc:Work
         rdf:about=""><dc:format>image/svg+xml</dc:format><dc:type
           rdf:resource="http://purl.org/dc/dcmitype/StillImage" /><dc:title></dc:title></cc:Work></rdf:RDF></metadata><defs
     id="defs28"><style
       id="style10827"
       type="text/css">
   
    .fil1 {fill:none}
    .fil0 {fill:black}
    .fil2 {fill:black;fill-rule:nonzero}
   
  </style><style
       id="style11273"
       type="text/css">
   
    .str3 {stroke:#0A0B0C;stroke-width:0.755909}
    .str2 {stroke:#0A0B0C;stroke-width:2.83466}
    .str1 {stroke:#0A0B0C;stroke-width:3.77955}
    .str0 {stroke:#0A0B0C;stroke-width:5.66932}
    .fil0 {fill:none}
    .fil1 {fill:#0A0B0C}
    .fil2 {fill:white}
   
  </style></defs><sodipodi:namedview
     pagecolor="#ffffff"
     bordercolor="#666666"
     borderopacity="1"
     objecttolerance="10"
     gridtolerance="10"
     guidetolerance="10"
     inkscape:pageopacity="0"
     inkscape:pageshadow="2"
     inkscape:window-width="965"
     inkscape:window-height="812"
     id="namedview26"
     showgrid="false"
     fit-margin-top="0"
     fit-margin-left="0"
     fit-margin-right="0"
     fit-margin-bottom="0"
     inkscape:zoom="5.12"
     inkscape:cx="38.654291"
     inkscape:cy="26.278801"
     inkscape:window-x="74"
     inkscape:window-y="59"
     inkscape:window-maximized="0"
     inkscape:current-layer="g12083" /><g
     id="g3217"
     transform="translate(-1246.8472,7681.7453)"><g
       id="g3355"
       transform="translate(0.52596752,-1.51338)"><g
         id="g3394"
         transform="translate(-1.304037,6.1068216)"><g
           id="g3432"
           transform="translate(1.3243604,-7.0685396)"><g
             id="g3490"
             transform="translate(14.50543,16.201175)"><g
               id="g3544"
               transform="translate(1.7832223,7.9070624)"><g
                 id="g3595"
                 transform="translate(9.5264836,-0.46901412)"><g
                   id="g3646"
                   transform="translate(-52.35165,-3.5880634)"><g
                     id="g3767"
                     transform="translate(6.0048559,8.7552768)"><g
                       id="g4075"
                       transform="translate(0.55239017,0.07303033)"><g
                         id="g4264"
                         transform="translate(3.0880737,-2.6377741)"><g
                           id="g4355"
                           transform="translate(8.4601992,5.328404)"><g
                             id="g4421"
                             transform="translate(-6.5255081,7.0858766)"><g
                               id="g4462"
                               transform="translate(25.518018,13.531166)"><g
                                 id="g4500"
                                 transform="translate(80.26127,-61.023322)"><g
                                   id="g5344"
                                   transform="translate(-17.614831,53.929153)"><g
                                   id="g5294"
                                   display="none"
                                   style="display:none"><rect
                                   id="rect5296"
                                   height="196"
                                   width="394.5"
                                   display="inline"
                                   y="-80.754997"
                                   x="-43.5"
                                   style="fill:#000000;display:inline" /></g><g
                                   id="g5316"
                                   display="none"
                                   style="display:none"><g
                                   id="g5318"
                                   display="inline"
                                   style="display:inline"><path
                                   id="path5320"
                                   d="M 1.581,10.718 H 30.418 L 16,1.051 1.581,10.718 z M 17.592,6.594 c 0,0.879 -0.713,1.592 -1.592,1.592 -0.879,0 -1.592,-0.713 -1.592,-1.592 0,-0.879 0.713,-1.592 1.592,-1.592 0.879,0 1.592,0.712 1.592,1.592 z"
                                   inkscape:connector-curvature="0" /><rect
                                   id="rect5322"
                                   height="3.0209999"
                                   width="31"
                                   y="28.030001"
                                   x="0.5" /><rect
                                   id="rect5324"
                                   height="11.875"
                                   width="3.0209999"
                                   y="13.363"
                                   x="3.6670001" /><rect
                                   id="rect5326"
                                   height="11.875"
                                   width="3.0209999"
                                   y="13.363"
                                   x="8.349" /><rect
                                   id="rect5328"
                                   height="11.875"
                                   width="3.0209999"
                                   y="13.363"
                                   x="20.629999" /><rect
                                   id="rect5330"
                                   height="11.875"
                                   width="3.0209999"
                                   y="13.363"
                                   x="25.312" /></g><path
                                   id="path5332"
                                   d="m 19.055,22.809 c -0.386,0.262 -1.035,0.524 -1.857,0.524 -1.01,0 -1.907,-0.386 -2.53,-1.11 -0.474,-0.524 -0.785,-1.246 -0.897,-2.144 h -0.773 v -0.611 h 0.711 c 0,-0.062 0,-0.125 0,-0.187 0,-0.2 0.012,-0.387 0.025,-0.561 h -0.735 v -0.624 h 0.823 c 0.15,-0.872 0.524,-1.595 1.022,-2.106 0.636,-0.66 1.446,-1.035 2.468,-1.035 0.735,0 1.309,0.212 1.658,0.399 l -0.249,0.822 c -0.312,-0.187 -0.835,-0.349 -1.396,-0.349 -0.673,0 -1.221,0.237 -1.645,0.685 -0.374,0.361 -0.623,0.922 -0.748,1.583 h 3.478 v 0.624 h -3.59 c -0.013,0.162 -0.025,0.349 -0.025,0.523 0,0.075 0,0.137 0,0.225 h 3.615 v 0.611 h -3.53 c 0.1,0.723 0.349,1.259 0.685,1.633 0.461,0.486 1.085,0.723 1.757,0.723 0.661,0 1.234,-0.249 1.521,-0.411 l 0.212,0.786 z"
                                   display="inline"
                                   inkscape:connector-curvature="0"
                                   style="display:inline" /></g><g
                                   id="g5453"
                                   transform="translate(-52.625356,-10.750909)"><g
                                   id="g5403"
                                   display="none"
                                   style="display:none"><rect
                                   id="rect5405"
                                   height="196"
                                   width="394.5"
                                   display="inline"
                                   y="-80.754997"
                                   x="-43.5"
                                   style="fill:#000000;display:inline" /></g><g
                                   id="g5425"
                                   display="none"
                                   style="display:none"><g
                                   id="g5427"
                                   display="inline"
                                   style="display:inline"><path
                                   id="path5429"
                                   d="M 1.581,10.718 H 30.418 L 16,1.051 1.581,10.718 z M 17.592,6.594 c 0,0.879 -0.713,1.592 -1.592,1.592 -0.879,0 -1.592,-0.713 -1.592,-1.592 0,-0.879 0.713,-1.592 1.592,-1.592 0.879,0 1.592,0.712 1.592,1.592 z"
                                   inkscape:connector-curvature="0" /><rect
                                   id="rect5431"
                                   height="3.0209999"
                                   width="31"
                                   y="28.030001"
                                   x="0.5" /><rect
                                   id="rect5433"
                                   height="11.875"
                                   width="3.0209999"
                                   y="13.363"
                                   x="3.6670001" /><rect
                                   id="rect5435"
                                   height="11.875"
                                   width="3.0209999"
                                   y="13.363"
                                   x="8.349" /><rect
                                   id="rect5437"
                                   height="11.875"
                                   width="3.0209999"
                                   y="13.363"
                                   x="20.629999" /><rect
                                   id="rect5439"
                                   height="11.875"
                                   width="3.0209999"
                                   y="13.363"
                                   x="25.312" /></g><path
                                   id="path5441"
                                   d="m 19.055,22.809 c -0.386,0.262 -1.035,0.524 -1.857,0.524 -1.01,0 -1.907,-0.386 -2.53,-1.11 -0.474,-0.524 -0.785,-1.246 -0.897,-2.144 h -0.773 v -0.611 h 0.711 c 0,-0.062 0,-0.125 0,-0.187 0,-0.2 0.012,-0.387 0.025,-0.561 h -0.735 v -0.624 h 0.823 c 0.15,-0.872 0.524,-1.595 1.022,-2.106 0.636,-0.66 1.446,-1.035 2.468,-1.035 0.735,0 1.309,0.212 1.658,0.399 l -0.249,0.822 c -0.312,-0.187 -0.835,-0.349 -1.396,-0.349 -0.673,0 -1.221,0.237 -1.645,0.685 -0.374,0.361 -0.623,0.922 -0.748,1.583 h 3.478 v 0.624 h -3.59 c -0.013,0.162 -0.025,0.349 -0.025,0.523 0,0.075 0,0.137 0,0.225 h 3.615 v 0.611 h -3.53 c 0.1,0.723 0.349,1.259 0.685,1.633 0.461,0.486 1.085,0.723 1.757,0.723 0.661,0 1.234,-0.249 1.521,-0.411 l 0.212,0.786 z"
                                   display="inline"
                                   inkscape:connector-curvature="0"
                                   style="display:inline" /></g><g
                                   id="g5911"
                                   transform="translate(34.803917,-34.731522)"><g
                                   id="g5969"
                                   transform="translate(-76.820846,20.463898)"><g
                                   id="g6024"
                                   transform="translate(-1.5269147,1.6004891)"><g
                                   id="g6071"
                                   transform="translate(7.3886843,1.0351706)"><g
                                   id="g6187"
                                   transform="translate(-0.71000052,-4.6322855)"><g
                                   id="g6263"
                                   transform="translate(-0.66737304,-5.3488176)"><g
                                   id="g6319"
                                   transform="translate(0.79720466,3.5647493)"><g
                                   id="g6384"
                                   transform="translate(-9.1472004,2.261335)"><g
                                   id="g6488"
                                   transform="translate(-2.0348122,-3.4042665)"><g
                                   id="g6516"
                                   transform="translate(-0.63832329,-2.3294036)"><g
                                   id="g6769"
                                   transform="translate(1565.7794,-3801.8487)"><g
                                   id="g6910"
                                   transform="translate(-308.09512,-3790.9493)"><g
                                   id="g6983"
                                   transform="translate(-14.231122,-15.611848)"><g
                                   id="g7151"
                                   transform="translate(33.267081,-22.491026)"><g
                                   id="g7382"
                                   transform="translate(-23.229266,23.886871)"><g
                                   id="g7549"
                                   transform="translate(14.444681,15.529545)"><g
                                   id="g7800"
                                   transform="translate(-10.517025,-15.548079)"><g
                                   id="g7999"
                                   transform="matrix(0.53445343,0,0,0.59502607,5.6563057,11.962949)"><g
                                   id="g8217"
                                   transform="matrix(0.65157633,0,0,0.66199506,14.891666,27.68312)"><g
                                   id="g8341"
                                   transform="matrix(0.81955739,0,0,0.8373697,16.904811,-6.2861215)"><g
                                   id="g8463"
                                   transform="matrix(1.0901467,0,0,0.7755316,14.691042,9.5565496)"><g
                                   id="g8628"
                                   transform="matrix(3.2141084,0,0,3.9092417,-42.983003,-211.13796)"><g
                                   id="g8709"
                                   transform="matrix(0.28046364,0,0,0.26137124,8.2602788,58.166419)"><g
                                   id="g8982"
                                   transform="matrix(0.85470616,0,0,0.82928987,-24.416347,-291.09779)"><g
                                   id="g9029"
                                   transform="matrix(0.56179905,0,0,0.59146659,71.827756,364.20217)"><g
                                   id="g9231"
                                   transform="matrix(1.6434845,0,0,1.6275903,-1.9010194,-26.060019)"><g
                                   id="g9437"
                                   transform="matrix(0.71903998,0,0,0.65801134,3.2171324,7.0571502)"><g
                                   id="g9598"
                                   transform="matrix(0.80108296,0,0,0.9233293,9.6403445,4.2821143)"><g
                                   id="g9708"
                                   transform="matrix(0.94363907,0,0,1.1480868,25.922318,9.4839725)"><g
                                   id="g9819"
                                   transform="matrix(1.095798,0,0,0.98226973,-24.771036,-19.505567)"><g
                                   id="g9923"
                                   transform="matrix(1.4565749,0,0,1.1402449,-4.0661436,-21.558968)"><g
                                   id="g10097"
                                   transform="matrix(0.11168619,0,0,0.17855319,5.2962471,-4.487068)"><g
                                   id="g10271"
                                   transform="matrix(13.365969,0,0,8.1997528,-133.46038,-213.50307)"><g
                                   style="fill-rule:evenodd"
                                   id="g10860"
                                   transform="matrix(3.4886731,0,0,4.1898505,17.112225,-334.18238)"><g
                                   id="g10926"
                                   transform="translate(-3.4835301,11.933542)"><g
                                   id="g10977"
                                   transform="translate(-23.300771,-27.486778)"><g
                                   id="g11027"
                                   transform="matrix(0.43252474,0,0,0.37672697,-8.3080623,-3.9894485)"><g
                                   id="g11075"
                                   transform="matrix(2.3120065,0,0,2.6544423,31.801403,32.696975)"><g
                                   id="g11120"
                                   transform="matrix(0.80941525,0,0,0.85267959,9.9659797,8.8655352)"><g
                                   id="g11165"
                                   transform="matrix(1.2354598,0,0,1.1727735,63.229892,29.359769)"><g
                                   id="g11232"
                                   transform="translate(-34.923095,-12.499473)"><g
                                   style="fill-rule:evenodd"
                                   id="g11310"
                                   transform="translate(-21.549182,-35.279603)"><g
                                   id="g11372"
                                   transform="translate(-5.4679176,-5.8668947)"><g
                                   id="g11436"
                                   transform="translate(2.7982997,0.93576032)"><g
                                   id="g11488"
                                   transform="translate(-3.587236,-5.6258516)"><g
                                   id="g11528"
                                   transform="translate(15.507114,-3.254385)"><g
                                   id="g11586"
                                   transform="translate(7.7187909,24.376849)"><g
                                   id="g11638"
                                   transform="translate(-6.4943311,-12.776285)"><g
                                   id="g11690"
                                   transform="translate(12.379153,16.3378)"><g
                                   id="g11782"
                                   transform="matrix(0.54704068,0,0,0.56101878,-2.4253841,-13.151439)"><g
                                   id="g11847"
                                   transform="matrix(1.8280176,0,0,1.7824715,-7.4215749,-14.616326)"><g
                                   id="g11896"
                                   transform="matrix(0.52061715,0,0,0.55247544,7.8149554,3.1926355)"><g
                                   id="g11940"
                                   transform="matrix(1.7613317,0,0,1.5303706,-44.906818,-32.537167)"><g
                                   id="g12083"
                                   transform="matrix(0.87081326,0,0,0.87011947,-1.2460319,10.958839)"><g
                                   id="g11969"><path
                                   id="path11971"
                                   d="m 99.909,47.083 c 0,-0.002 0,-0.003 0,-0.005 0,-0.258 -0.311,-0.468 -0.693,-0.468 -0.27,0 -0.495,0.107 -0.61,0.258 -0.115,-0.151 -0.341,-0.258 -0.61,-0.258 -0.269,0 -0.495,0.107 -0.61,0.258 -0.115,-0.151 -0.341,-0.258 -0.61,-0.258 -0.269,0 -0.495,0.107 -0.61,0.258 -0.115,-0.151 -0.341,-0.258 -0.61,-0.258 -0.269,0 -0.495,0.107 -0.61,0.258 -0.115,-0.151 -0.341,-0.258 -0.61,-0.258 -0.268,0 -0.495,0.107 -0.61,0.257 -0.115,-0.15 -0.342,-0.257 -0.611,-0.257 -0.269,0 -0.495,0.107 -0.61,0.258 -0.114,-0.151 -0.341,-0.258 -0.61,-0.258 -0.267,0 -0.495,0.107 -0.61,0.258 -0.112,-0.151 -0.341,-0.258 -0.607,-0.258 -0.27,0 -0.496,0.107 -0.61,0.258 -0.115,-0.151 -0.344,-0.258 -0.611,-0.258 -0.27,0 -0.495,0.107 -0.61,0.258 -0.115,-0.151 -0.343,-0.258 -0.61,-0.258 -0.27,0 -0.495,0.107 -0.61,0.258 -0.115,-0.151 -0.341,-0.258 -0.61,-0.258 -0.269,0 -0.495,0.107 -0.61,0.258 -0.115,-0.151 -0.341,-0.258 -0.61,-0.258 -0.269,0 -0.495,0.107 -0.61,0.258 -0.115,-0.151 -0.343,-0.258 -0.61,-0.258 -0.27,0 -0.495,0.107 -0.61,0.258 -0.115,-0.151 -0.341,-0.258 -0.61,-0.258 -0.268,0 -0.495,0.107 -0.61,0.258 -0.115,-0.151 -0.341,-0.258 -0.61,-0.258 -0.268,0 -0.496,0.107 -0.61,0.258 -0.115,-0.151 -0.342,-0.258 -0.61,-0.258 -0.268,0 -0.496,0.107 -0.611,0.258 -0.115,-0.151 -0.341,-0.258 -0.61,-0.258 -0.267,0 -0.495,0.107 -0.61,0.258 -0.115,-0.151 -0.341,-0.258 -0.61,-0.258 -0.269,0 -0.495,0.107 -0.61,0.258 -0.115,-0.151 -0.341,-0.258 -0.61,-0.258 -0.268,0 -0.495,0.107 -0.608,0.258 -0.115,-0.151 -0.343,-0.258 -0.61,-0.258 -0.27,0 -0.495,0.107 -0.61,0.258 -0.115,-0.151 -0.343,-0.258 -0.61,-0.258 -0.27,0 -0.495,0.107 -0.61,0.258 -0.115,-0.151 -0.343,-0.258 -0.61,-0.258 -0.27,0 -0.495,0.107 -0.61,0.257 -0.115,-0.15 -0.344,-0.257 -0.61,-0.257 -0.27,0 -0.495,0.107 -0.61,0.258 -0.115,-0.151 -0.341,-0.258 -0.61,-0.258 -0.269,0 -0.495,0.107 -0.61,0.258 -0.115,-0.151 -0.341,-0.258 -0.61,-0.258 -0.269,0 -0.496,0.107 -0.61,0.257 -0.115,-0.15 -0.344,-0.257 -0.611,-0.257 -0.267,0 -0.492,0.106 -0.607,0.256 v -4.477 l 1.107,-2.153 H 57.575 V 25.867 l 1.108,-2.151 H 55.5 v -9.318 c 0,-0.459 -0.373,-0.832 -0.831,-0.832 -0.012,0 -0.023,0.003 -0.034,0.004 -0.24,-2.045 -1.798,-3.683 -3.804,-4.044 V 8.128 c 0,-0.459 -0.372,-0.832 -0.832,-0.832 -0.458,0 -0.831,0.372 -0.831,0.832 v 1.397 c -2.006,0.361 -3.566,1.999 -3.805,4.044 -0.012,0 -0.023,-0.004 -0.035,-0.004 -0.459,0 -0.831,0.372 -0.831,0.832 v 9.318 h -3.181 l 1.101,2.174 h 0.006 v 14.346 h -11.61 l 1.095,2.163 v 4.472 c -0.114,-0.153 -0.343,-0.261 -0.614,-0.261 -0.269,0 -0.495,0.107 -0.61,0.258 -0.115,-0.151 -0.342,-0.258 -0.61,-0.258 -0.269,0 -0.496,0.107 -0.61,0.258 -0.116,-0.151 -0.342,-0.258 -0.611,-0.258 -0.268,0 -0.495,0.107 -0.61,0.258 -0.114,-0.151 -0.341,-0.258 -0.61,-0.258 -0.269,0 -0.495,0.107 -0.61,0.258 -0.115,-0.151 -0.341,-0.258 -0.61,-0.258 -0.269,0 -0.495,0.107 -0.61,0.258 -0.116,-0.151 -0.342,-0.258 -0.61,-0.258 -0.27,0 -0.495,0.107 -0.61,0.258 -0.115,-0.151 -0.342,-0.258 -0.611,-0.258 -0.268,0 -0.495,0.107 -0.609,0.258 -0.115,-0.151 -0.342,-0.258 -0.611,-0.258 -0.268,0 -0.495,0.107 -0.61,0.258 -0.116,-0.151 -0.342,-0.258 -0.611,-0.258 -0.268,0 -0.495,0.107 -0.61,0.258 -0.115,-0.151 -0.341,-0.258 -0.61,-0.258 -0.269,0 -0.495,0.107 -0.61,0.258 -0.115,-0.151 -0.342,-0.258 -0.61,-0.258 -0.269,0 -0.496,0.107 -0.61,0.258 -0.116,-0.151 -0.342,-0.258 -0.61,-0.258 -0.27,0 -0.496,0.107 -0.611,0.258 -0.116,-0.151 -0.342,-0.258 -0.61,-0.258 -0.268,0 -0.495,0.107 -0.61,0.258 -0.115,-0.151 -0.341,-0.258 -0.61,-0.258 -0.269,0 -0.495,0.107 -0.61,0.258 -0.116,-0.151 -0.341,-0.258 -0.61,-0.258 -0.269,0 -0.495,0.107 -0.611,0.258 -0.115,-0.151 -0.342,-0.258 -0.61,-0.258 -0.268,0 -0.495,0.107 -0.609,0.258 -0.115,-0.151 -0.342,-0.258 -0.61,-0.258 -0.269,0 -0.496,0.107 -0.61,0.258 -0.115,-0.151 -0.342,-0.258 -0.611,-0.258 -0.269,0 -0.495,0.107 -0.611,0.258 -0.115,-0.151 -0.341,-0.258 -0.61,-0.258 -0.269,0 -0.495,0.107 -0.61,0.258 -0.116,-0.151 -0.342,-0.258 -0.61,-0.258 -0.27,0 -0.496,0.107 -0.611,0.258 -0.115,-0.151 -0.342,-0.258 -0.61,-0.258 -0.268,0 -0.495,0.107 -0.611,0.258 -0.115,-0.151 -0.341,-0.258 -0.61,-0.258 -0.268,0 -0.495,0.107 -0.61,0.257 -0.115,-0.15 -0.341,-0.257 -0.61,-0.257 -0.268,0 -0.495,0.107 -0.61,0.258 -0.115,-0.151 -0.341,-0.258 -0.61,-0.258 -0.269,0 -0.495,0.107 -0.611,0.258 C 2.495,46.716 2.269,46.609 2,46.609 c -0.269,0 -0.495,0.107 -0.61,0.258 -0.115,-0.151 -0.342,-0.258 -0.61,-0.258 -0.383,0 -0.693,0.21 -0.693,0.468 0,0.002 0.001,0.003 0.001,0.005 H 0.084 V 72.348 100 H 31.989 V 95.731 H 2.3 V 74.567 h 31.083 l 1.088,4.718 h 2.033 l 0.622,-4.718 h 4.783 l 0.622,4.718 h 2.505 l 0.621,-4.718 h 8.657 l 0.622,4.718 h 2.505 l 0.622,-4.718 h 4.812 l 0.622,4.718 h 2.034 l 1.087,-4.718 H 97.7 V 95.731 H 68.057 V 100 H 99.916 V 98.892 72.349 47.083 H 99.909 z M 97.7,55.149 H 67.704 L 61.227,51.252 H 97.7 v 3.897 z M 47.557,23.716 50,21.929 52.443,23.716 H 47.557 z M 38.94,54.215 50,47.559 61.059,54.215 H 38.94 z M 55.358,26.068 V 46.993 H 54.151 L 50,44.496 45.849,46.994 H 44.642 V 26.068 h 10.716 z m 2.217,21.015 V 42.48 h 8.301 v 4.602 H 57.575 z M 42.425,42.48 v 4.602 H 34.126 V 42.48 h 8.299 z M 2.3,51.252 h 36.472 l -6.476,3.897 H 2.3 v -3.897 z m 46.328,-32.67 c 0,0.002 0,0.004 0,0.007 0,0.759 0.615,1.373 1.373,1.373 0.758,0 1.374,-0.614 1.374,-1.373 0,-0.003 0,-0.004 0,-0.007 1.011,-0.311 1.875,-0.957 2.464,-1.808 v 6.154 L 53.386,22.595 50.864,20.751 50,20.12 l -0.861,0.631 -2.522,1.844 -0.455,0.333 v -6.154 c 0.589,0.851 1.453,1.497 2.466,1.808 z M 2.3,72.349 V 56.813 H 97.7 V 72.349 H 2.3 z"
                                   inkscape:connector-curvature="0" /><rect
                                   id="rect11973"
                                   height="8.6339998"
                                   width="5.2340002"
                                   y="62.328999"
                                   x="36.223" /><rect
                                   id="rect11975"
                                   height="8.6339998"
                                   width="8.3739996"
                                   y="62.328999"
                                   x="45.813" /><rect
                                   id="rect11977"
                                   height="8.6339998"
                                   width="5.2350001"
                                   y="62.328999"
                                   x="58.605999" /><rect
                                   id="rect11979"
                                   height="2.267"
                                   width="5.2340002"
                                   y="58.479"
                                   x="36.223" /><rect
                                   id="rect11981"
                                   height="2.267"
                                   width="8.3739996"
                                   y="58.479"
                                   x="45.813" /><rect
                                   id="rect11983"
                                   height="2.267"
                                   width="5.2350001"
                                   y="58.479"
                                   x="58.605999" /><rect
                                   id="rect11985"
                                   height="8.0710001"
                                   width="5.2340002"
                                   y="85.681999"
                                   x="36.223" /><path
                                   id="path11987"
                                   d="m 55.448,86.151 c 0,-3.008 -2.439,-5.447 -5.448,-5.447 -3.007,0 -5.445,2.437 -5.448,5.442 V 86.151 98.891 100 H 55.448 V 98.892 86.151 z"
                                   inkscape:connector-curvature="0" /><rect
                                   id="rect11989"
                                   height="8.0710001"
                                   width="5.2220001"
                                   y="85.681999"
                                   x="58.605999" /><rect
                                   id="rect11991"
                                   height="2.1589999"
                                   width="5.2340002"
                                   y="81.440002"
                                   x="36.223" /><rect
                                   id="rect11993"
                                   height="2.1589999"
                                   width="5.2350001"
                                   y="81.440002"
                                   x="58.605999" /><rect
                                   id="rect11995"
                                   height="2.2920001"
                                   width="5.072"
                                   y="43.783001"
                                   x="35.915001" /><path
                                   id="path11997"
                                   d="m 53.784,28.595 h -7.568 v 7.12 h 7.568 v -7.12 z M 50,34.958 c -0.775,0 -1.475,-0.314 -1.982,-0.822 -0.507,-0.508 -0.822,-1.207 -0.822,-1.982 0,-0.775 0.314,-1.475 0.822,-1.982 0.508,-0.507 1.207,-0.821 1.982,-0.821 0.774,0 1.473,0.313 1.982,0.821 0.509,0.508 0.821,1.207 0.821,1.982 0,0.775 -0.313,1.474 -0.821,1.982 -0.508,0.508 -1.208,0.822 -1.982,0.822 z"
                                   inkscape:connector-curvature="0" /><rect
                                   id="rect11999"
                                   height="3.9649999"
                                   width="7.5679998"
                                   y="38.578999"
                                   x="46.192001" /><rect
                                   id="rect12001"
                                   height="2.2920001"
                                   width="5.0739999"
                                   y="43.783001"
                                   x="59" /><rect
                                   id="rect12003"
                                   height="1.467"
                                   width="5.2319999"
                                   y="52.411999"
                                   x="15.594" /><rect
                                   id="rect12005"
                                   height="1.467"
                                   width="5.2319999"
                                   y="52.411999"
                                   x="23.915001" /><rect
                                   id="rect12007"
                                   height="1.467"
                                   width="5.2319999"
                                   y="52.411999"
                                   x="7.2729998" /><polygon
                                   id="polygon12009"
                                   points="41.458,100 41.458,99.954 41.458,95.731 36.217,95.731 36.217,100 " /><polygon
                                   id="polygon12011"
                                   points="58.543,97.784 58.542,97.784 58.542,100 63.828,100 63.828,95.731 58.543,95.731 " /><path
                                   id="path12013"
                                   d="m 49.965,30.199 c 0.054,0 0.097,-0.047 0.097,-0.104 V 29.65 c 0,-0.058 -0.042,-0.105 -0.097,-0.105 -0.052,0 -0.095,0.047 -0.095,0.105 v 0.445 c 0,0.057 0.043,0.104 0.095,0.104 z"
                                   inkscape:connector-curvature="0" /><path
                                   id="path12015"
                                   d="m 49.965,34.109 c -0.052,0 -0.095,0.046 -0.095,0.104 v 0.446 c 0,0.058 0.043,0.104 0.095,0.104 0.054,0 0.097,-0.046 0.097,-0.104 v -0.446 c 0,-0.058 -0.043,-0.104 -0.097,-0.104 z"
                                   inkscape:connector-curvature="0" /><path
                                   id="path12017"
                                   d="m 47.909,32.015 h -0.445 c -0.058,0 -0.104,0.043 -0.104,0.096 0,0.053 0.046,0.097 0.104,0.097 h 0.445 c 0.057,0 0.104,-0.043 0.104,-0.097 0,-0.053 -0.047,-0.096 -0.104,-0.096 z"
                                   inkscape:connector-curvature="0" /><path
                                   id="path12019"
                                   d="m 52.491,32.015 h -0.447 c -0.057,0 -0.103,0.043 -0.103,0.096 0,0.053 0.046,0.097 0.103,0.097 h 0.447 c 0.058,0 0.104,-0.043 0.104,-0.097 0,-0.053 -0.046,-0.096 -0.104,-0.096 z"
                                   inkscape:connector-curvature="0" /><path
                                   id="path12021"
                                   d="m 50.202,32.075 v -1.518 c 0,-0.13 -0.107,-0.235 -0.237,-0.235 -0.13,0 -0.236,0.105 -0.236,0.235 v 1.599 c 0,0.069 0.031,0.13 0.078,0.173 0.009,0.016 0.016,0.032 0.029,0.046 l 0.772,0.838 c 0.088,0.096 0.237,0.102 0.333,0.013 0.097,-0.088 0.104,-0.237 0.016,-0.333 l -0.755,-0.818 z"
                                   inkscape:connector-curvature="0" /><rect
                                   id="rect12023"
                                   height="2.4260001"
                                   width="3.4949999"
                                   y="77.112"
                                   x="24.737" /><rect
                                   id="rect12025"
                                   height="2.4260001"
                                   width="3.4949999"
                                   y="77.112"
                                   x="16.440001" /><polygon
                                   id="polygon12027"
                                   points="21.042,77.112 21.042,83.276 20.826,83.276 19.935,83.276 16.44,83.276 15.594,83.276 15.331,83.276 15.331,77.112 12.746,77.112 12.746,83.276 12.506,83.276 11.637,83.276 8.143,83.276 7.273,83.276 7.034,83.276 7.034,77.112 4.421,77.112 4.421,93.951 7.273,93.951 7.273,85.813 12.506,85.813 12.506,93.951 15.594,93.951 15.594,85.813 20.826,85.813 20.826,93.951 23.915,93.951 23.915,85.813 29.146,85.813 29.146,93.951 31.989,93.951 31.989,85.813 31.989,77.112 29.34,77.112 29.34,83.276 29.146,83.276 28.232,83.276 24.737,83.276 23.915,83.276 23.628,83.276 23.628,77.112 " /><rect
                                   id="rect12029"
                                   height="2.4260001"
                                   width="3.4949999"
                                   y="77.112"
                                   x="8.1429996" /><rect
                                   id="rect12031"
                                   height="12.487"
                                   width="2.6489999"
                                   y="58.476002"
                                   x="29.34" /><rect
                                   id="rect12033"
                                   height="12.487"
                                   width="2.586"
                                   y="58.476002"
                                   x="21.042" /><rect
                                   id="rect12035"
                                   height="3.8540001"
                                   width="3.4949999"
                                   y="58.476002"
                                   x="24.737" /><rect
                                   id="rect12037"
                                   height="3.8540001"
                                   width="3.4949999"
                                   y="58.476002"
                                   x="8.1429996" /><rect
                                   id="rect12039"
                                   height="12.487"
                                   width="2.585"
                                   y="58.476002"
                                   x="12.746" /><rect
                                   id="rect12041"
                                   height="3.8540001"
                                   width="3.4949999"
                                   y="58.476002"
                                   x="16.440001" /><polygon
                                   id="polygon12043"
                                   points="4.421,70.963 7.034,70.963 7.046,70.963 7.046,58.476 7.034,58.476 4.421,58.476 " /><rect
                                   id="rect12045"
                                   height="1.467"
                                   width="5.2329998"
                                   y="52.411999"
                                   x="79.228996" /><rect
                                   id="rect12047"
                                   height="1.467"
                                   width="5.2309999"
                                   y="52.411999"
                                   x="87.551003" /><rect
                                   id="rect12049"
                                   height="1.467"
                                   width="5.2340002"
                                   y="52.411999"
                                   x="70.907997" /><rect
                                   id="rect12051"
                                   height="2.4260001"
                                   width="3.494"
                                   y="77.112"
                                   x="88.374001" /><polygon
                                   id="polygon12053"
                                   points="87.551,85.813 92.782,85.813 92.782,93.951 95.625,93.951 95.625,77.112 92.976,77.112 92.976,83.276 92.782,83.276 91.868,83.276 88.374,83.276 87.551,83.276 87.264,83.276 87.264,77.112 84.679,77.112 84.679,83.276 84.462,83.276 83.571,83.276 80.074,83.276 79.229,83.276 78.966,83.276 78.966,77.112 76.382,77.112 76.382,83.276 76.143,83.276 75.273,83.276 71.779,83.276 70.908,83.276 70.669,83.276 70.669,77.112 68.057,77.112 68.057,85.813 68.057,93.951 70.908,93.951 70.908,85.813 76.143,85.813 76.143,93.951 79.229,93.951 79.229,85.813 84.462,85.813 84.462,93.951 87.551,93.951 " /><rect
                                   id="rect12055"
                                   height="2.4260001"
                                   width="3.497"
                                   y="77.112"
                                   x="80.073997" /><rect
                                   id="rect12057"
                                   height="2.4260001"
                                   width="3.494"
                                   y="77.112"
                                   x="71.778999" /><rect
                                   id="rect12059"
                                   height="3.8540001"
                                   width="3.497"
                                   y="58.476002"
                                   x="80.073997" /><rect
                                   id="rect12061"
                                   height="12.487"
                                   width="2.585"
                                   y="58.476002"
                                   x="84.679001" /><rect
                                   id="rect12063"
                                   height="3.8540001"
                                   width="3.494"
                                   y="58.476002"
                                   x="71.778999" /><rect
                                   id="rect12065"
                                   height="3.8540001"
                                   width="3.494"
                                   y="58.476002"
                                   x="88.374001" /><rect
                                   id="rect12067"
                                   height="12.487"
                                   width="2.5840001"
                                   y="58.476002"
                                   x="76.382004" /><rect
                                   id="rect12069"
                                   height="12.487"
                                   width="2.6489999"
                                   y="58.476002"
                                   x="92.975998" /><polygon
                                   id="polygon12071"
                                   points="68.057,70.963 70.669,70.963 70.681,70.963 70.681,58.476 70.669,58.476 68.057,58.476 " /></g></g></g></g></g></g></g></g></g></g></g></g></g></g></g></g></g></g></g></g></g></g></g></g></g></g></g></g></g></g></g></g></g></g></g></g></g></g></g></g></g></g></g></g></g></g></g></g></g></g></g></g></g></g></g></g></g></g></g></g></g></g></g></g></g></g></g></g></g></g></g></g></svg></svg>
