<?xml version="1.0" encoding="UTF-8"?>
<svg xmlns="http://www.w3.org/2000/svg" xmlns:xlink="http://www.w3.org/1999/xlink" width="30px" height="46px" viewBox="0 0 30 46" version="1.1">
<defs>
<clipPath id="clip1">
  <path d="M 14 11 L 21 11 L 21 21.769531 L 14 21.769531 Z M 14 11 "/>
</clipPath>
<clipPath id="clip2">
  <path d="M 10 6.921875 L 13 6.921875 L 13 8 L 10 8 Z M 10 6.921875 "/>
</clipPath>
<clipPath id="clip3">
  <path d="M 9 7 L 15 7 L 15 21.769531 L 9 21.769531 Z M 9 7 "/>
</clipPath>
</defs>
<g id="surface1">
<path style="fill-rule:nonzero;fill:rgb(100%,40.000001%,0%);fill-opacity:1;stroke-width:1;stroke-linecap:round;stroke-linejoin:miter;stroke:rgb(83.137256%,33.333334%,0%);stroke-opacity:1;stroke-miterlimit:4;" d="M 13.040625 0.638587 C 6.25625 0.638587 0.609375 6.287364 0.609375 12.418478 C 0.609375 15.17663 2.224219 18.678668 3.388802 21.097147 L 13 38.828125 L 22.560417 21.097147 C 23.725 18.678668 25.383854 15.353261 25.383854 12.418478 C 25.383854 6.290761 19.828385 0.638587 13.04401 0.638587 Z M 13.040625 2.099185 C 18.934635 2.136549 23.721615 6.756114 23.721615 12.428668 C 23.721615 18.108016 18.938021 22.659647 13.040625 22.700408 C 7.146615 22.663043 2.369792 18.11481 2.369792 12.428668 C 2.369792 6.752717 7.15 2.129755 13.040625 2.099185 Z M 13.040625 2.099185 " transform="matrix(1.153846,0,0,1.15,0,0)"/>
<path style="fill-rule:nonzero;fill:rgb(100%,100%,100%);fill-opacity:1;stroke-width:1.00275;stroke-linecap:butt;stroke-linejoin:miter;stroke:rgb(100%,100%,100%);stroke-opacity:1;stroke-miterlimit:4;" d="M 23.010677 12.374321 C 23.010677 17.703804 18.528385 22.02106 13.003385 22.02106 C 7.478385 22.02106 2.996094 17.703804 2.996094 12.374321 C 2.996094 7.048234 7.478385 2.727582 13.003385 2.727582 C 18.528385 2.727582 23.010677 7.048234 23.010677 12.374321 Z M 23.010677 12.374321 " transform="matrix(1.153846,0,0,1.15,0,0)"/>
<g clip-path="url(#clip1)" clip-rule="nonzero">
<path style=" stroke:none;fill-rule:nonzero;fill:rgb(0%,0%,0%);fill-opacity:1;" d="M 19.882812 14.296875 L 19.917969 13.632812 C 19.917969 13.601562 19.914062 13.574219 19.90625 13.546875 C 20.175781 13.398438 20.355469 13.199219 20.355469 12.921875 C 20.355469 12.5625 20.066406 12.269531 19.707031 12.269531 C 19.660156 12.269531 19.613281 12.273438 19.566406 12.285156 C 19.386719 11.851562 18.960938 11.554688 18.488281 11.554688 C 18.351562 11.554688 18.214844 11.582031 18.085938 11.628906 C 17.863281 11.257812 17.464844 11.027344 17.027344 11.027344 C 16.480469 11.027344 16.007812 11.390625 15.847656 11.902344 C 15.507812 11.921875 15.164062 12.125 14.957031 12.4375 C 14.769531 12.722656 14.726562 13.054688 14.847656 13.347656 C 14.882812 13.429688 14.925781 13.5 14.972656 13.5625 C 14.96875 13.585938 14.96875 13.609375 14.96875 13.632812 L 15 14.257812 C 15 14.269531 14.996094 14.300781 14.984375 14.335938 C 14.769531 14.601562 14.65625 14.902344 14.65625 15.207031 C 14.65625 15.558594 14.800781 15.894531 15.074219 16.183594 C 15.089844 16.21875 15.09375 16.253906 15.097656 16.265625 L 15.324219 21.003906 C 15.339844 21.746094 17.226562 21.769531 17.441406 21.769531 C 17.65625 21.769531 19.546875 21.746094 19.558594 21.003906 L 19.789062 16.226562 C 19.792969 16.210938 19.800781 16.175781 19.8125 16.136719 C 20.058594 15.859375 20.1875 15.539062 20.1875 15.207031 C 20.1875 14.921875 20.089844 14.636719 19.898438 14.386719 C 19.886719 14.347656 19.882812 14.3125 19.882812 14.296875 Z M 15.253906 12.636719 C 15.402344 12.414062 15.660156 12.261719 15.894531 12.261719 C 15.917969 12.261719 15.945312 12.265625 15.96875 12.265625 C 16.0625 12.277344 16.144531 12.210938 16.164062 12.121094 C 16.238281 11.695312 16.601562 11.390625 17.027344 11.390625 C 17.382812 11.390625 17.703125 11.601562 17.839844 11.933594 C 17.859375 11.980469 17.898438 12.019531 17.945312 12.035156 C 17.992188 12.050781 18.046875 12.046875 18.089844 12.019531 C 18.210938 11.953125 18.347656 11.917969 18.488281 11.917969 C 18.867188 11.917969 19.199219 12.1875 19.28125 12.5625 C 19.292969 12.617188 19.332031 12.664062 19.386719 12.6875 C 19.441406 12.710938 19.5 12.707031 19.550781 12.675781 C 19.597656 12.644531 19.652344 12.628906 19.707031 12.628906 C 19.867188 12.628906 20 12.761719 20 12.921875 C 20 13.289062 19.070312 13.480469 18.457031 13.609375 C 18.082031 13.6875 17.757812 13.753906 17.582031 13.855469 C 16.921875 14.230469 17.027344 14.878906 17.121094 15.453125 C 17.152344 15.667969 17.1875 15.871094 17.183594 16.054688 C 17.167969 16.441406 16.980469 16.65625 16.859375 16.65625 C 16.773438 16.65625 16.652344 16.554688 16.5625 16.277344 C 16.472656 16.015625 16.511719 15.746094 16.550781 15.460938 C 16.59375 15.132812 16.640625 14.789062 16.507812 14.417969 C 16.359375 13.996094 16.019531 13.820312 15.71875 13.664062 C 15.476562 13.539062 15.265625 13.429688 15.175781 13.207031 C 15.078125 12.964844 15.183594 12.746094 15.253906 12.636719 Z M 17.441406 21.28125 C 16.476562 21.28125 15.90625 21.078125 15.808594 20.96875 L 15.578125 16.242188 C 15.574219 16.148438 15.542969 16.039062 15.492188 15.9375 C 15.480469 15.914062 15.464844 15.890625 15.449219 15.871094 C 15.308594 15.730469 15.140625 15.5 15.140625 15.207031 C 15.140625 15.003906 15.222656 14.804688 15.378906 14.617188 C 15.394531 14.597656 15.410156 14.578125 15.417969 14.554688 C 15.460938 14.449219 15.484375 14.328125 15.480469 14.234375 L 15.464844 13.9375 C 15.496094 13.953125 15.527344 13.96875 15.558594 13.984375 C 15.832031 14.128906 16.070312 14.25 16.171875 14.542969 C 16.203125 14.625 16.21875 14.707031 16.230469 14.789062 C 15.988281 14.753906 15.96875 14.714844 15.75 14.660156 C 15.617188 14.835938 15.546875 15.019531 15.546875 15.207031 C 15.546875 15.5 15.714844 15.730469 15.855469 15.871094 C 15.871094 15.890625 15.886719 15.914062 15.898438 15.9375 C 15.949219 16.039062 15.980469 16.148438 15.984375 16.242188 L 16 20.96875 C 16.097656 21.074219 16.628906 21.269531 17.539062 21.28125 C 17.507812 21.28125 17.476562 21.28125 17.441406 21.28125 Z M 17.445312 14.871094 C 17.433594 14.871094 17.421875 14.871094 17.40625 14.871094 C 17.398438 14.554688 17.472656 14.328125 17.757812 14.167969 C 17.886719 14.09375 18.199219 14.03125 18.527344 13.960938 C 18.820312 13.898438 19.140625 13.832031 19.425781 13.742188 L 19.402344 14.273438 C 19.398438 14.371094 19.417969 14.488281 19.460938 14.59375 C 19.464844 14.605469 19.472656 14.617188 19.476562 14.628906 C 18.886719 14.78125 18.191406 14.871094 17.445312 14.871094 Z M 17.445312 14.871094 "/>
</g>
<g clip-path="url(#clip2)" clip-rule="nonzero">
<path style=" stroke:none;fill-rule:nonzero;fill:rgb(0%,0%,0%);fill-opacity:1;" d="M 11.011719 7.65625 L 12.710938 7.65625 C 12.804688 7.582031 12.871094 7.464844 12.871094 7.332031 C 12.871094 7.105469 12.6875 6.921875 12.464844 6.921875 L 11.253906 6.921875 C 11.03125 6.921875 10.851562 7.105469 10.851562 7.332031 C 10.851562 7.464844 10.914062 7.582031 11.011719 7.65625 Z M 11.011719 7.65625 "/>
</g>
<g clip-path="url(#clip3)" clip-rule="nonzero">
<path style=" stroke:none;fill-rule:nonzero;fill:rgb(0%,0%,0%);fill-opacity:1;" d="M 13.476562 13 C 13.070312 12.59375 13.070312 12.1875 13.070312 11.574219 C 13.070312 10.910156 12.886719 9.269531 12.765625 8.285156 C 12.828125 8.246094 12.871094 8.183594 12.871094 8.109375 C 12.871094 8.015625 12.804688 7.9375 12.722656 7.914062 C 12.71875 7.914062 12.71875 7.914062 12.71875 7.910156 L 11 7.910156 C 11 7.914062 11 7.914062 11 7.914062 C 10.914062 7.9375 10.851562 8.015625 10.851562 8.109375 C 10.851562 8.183594 10.894531 8.246094 10.953125 8.285156 C 10.835938 9.269531 10.648438 10.910156 10.648438 11.574219 C 10.648438 12.1875 10.648438 12.59375 10.246094 13 C 9.839844 13.410156 9.640625 13.816406 9.640625 14.429688 L 9.640625 21.363281 C 9.640625 21.585938 9.820312 21.769531 10.042969 21.769531 L 13.675781 21.769531 C 13.898438 21.769531 14.082031 21.585938 14.082031 21.363281 L 14.082031 14.429688 C 14.082031 13.816406 13.878906 13.410156 13.476562 13 Z M 10.605469 15.5 C 10.605469 14.796875 11.167969 14.230469 11.859375 14.230469 C 12.550781 14.230469 13.113281 14.796875 13.113281 15.5 L 13.113281 16.191406 L 10.605469 16.191406 Z M 13.113281 18.785156 C 13.113281 19.484375 12.550781 20.050781 11.859375 20.050781 C 11.167969 20.050781 10.605469 19.484375 10.605469 18.785156 L 10.605469 17.871094 L 13.113281 17.871094 Z M 13.574219 17.554688 L 10.144531 17.554688 L 10.144531 16.507812 L 13.574219 16.507812 Z M 13.574219 17.554688 "/>
</g>
</g>
</svg>
