<?xml version="1.0" encoding="UTF-8"?>
<svg xmlns="http://www.w3.org/2000/svg" xmlns:xlink="http://www.w3.org/1999/xlink" width="30px" height="46px" viewBox="0 0 30 46" version="1.1">
<defs>
<clipPath id="clip1">
  <path d="M 7.550781 8 L 11 8 L 11 20 L 7.550781 20 Z M 7.550781 8 "/>
</clipPath>
<clipPath id="clip2">
  <path d="M 11 20 L 18 20 L 18 21.769531 L 11 21.769531 Z M 11 20 "/>
</clipPath>
<clipPath id="clip3">
  <path d="M 19 9 L 22.445312 9 L 22.445312 21 L 19 21 Z M 19 9 "/>
</clipPath>
<clipPath id="clip4">
  <path d="M 9 15 L 15 15 L 15 21.769531 L 9 21.769531 Z M 9 15 "/>
</clipPath>
<clipPath id="clip5">
  <path d="M 10 6.921875 L 20 6.921875 L 20 21.769531 L 10 21.769531 Z M 10 6.921875 "/>
</clipPath>
</defs>
<g id="surface1">
<path style="fill-rule:nonzero;fill:rgb(100%,40.000001%,0%);fill-opacity:1;stroke-width:1;stroke-linecap:round;stroke-linejoin:miter;stroke:rgb(83.137256%,33.333334%,0%);stroke-opacity:1;stroke-miterlimit:4;" d="M 13.040625 0.638587 C 6.25625 0.638587 0.609375 6.287364 0.609375 12.418478 C 0.609375 15.17663 2.224219 18.678668 3.388802 21.097147 L 13 38.828125 L 22.560417 21.097147 C 23.725 18.678668 25.383854 15.353261 25.383854 12.418478 C 25.383854 6.290761 19.828385 0.638587 13.04401 0.638587 Z M 13.040625 2.099185 C 18.934635 2.136549 23.721615 6.756114 23.721615 12.428668 C 23.721615 18.108016 18.938021 22.659647 13.040625 22.700408 C 7.146615 22.663043 2.369792 18.11481 2.369792 12.428668 C 2.369792 6.752717 7.15 2.129755 13.040625 2.099185 Z M 13.040625 2.099185 " transform="matrix(1.153846,0,0,1.15,0,0)"/>
<path style="fill-rule:nonzero;fill:rgb(100%,100%,100%);fill-opacity:1;stroke-width:1.00275;stroke-linecap:butt;stroke-linejoin:miter;stroke:rgb(100%,100%,100%);stroke-opacity:1;stroke-miterlimit:4;" d="M 23.010677 12.374321 C 23.010677 17.703804 18.528385 22.02106 13.003385 22.02106 C 7.478385 22.02106 2.996094 17.703804 2.996094 12.374321 C 2.996094 7.048234 7.478385 2.727582 13.003385 2.727582 C 18.528385 2.727582 23.010677 7.048234 23.010677 12.374321 Z M 23.010677 12.374321 " transform="matrix(1.153846,0,0,1.15,0,0)"/>
<g clip-path="url(#clip1)" clip-rule="nonzero">
<path style=" stroke:none;fill-rule:nonzero;fill:rgb(0%,0%,0%);fill-opacity:1;" d="M 9.816406 9.183594 C 8.433594 10.5625 7.671875 12.394531 7.671875 14.347656 C 7.671875 16.148438 8.324219 17.851562 9.515625 19.1875 C 9.589844 19.097656 9.671875 19.003906 9.761719 18.898438 C 8.65625 17.636719 8.050781 16.039062 8.050781 14.347656 C 8.050781 12.496094 8.773438 10.757812 10.085938 9.449219 C 10.179688 9.355469 10.273438 9.265625 10.371094 9.179688 C 10.332031 9.046875 10.292969 8.910156 10.261719 8.777344 C 10.109375 8.90625 9.960938 9.042969 9.816406 9.183594 Z M 9.816406 9.183594 "/>
</g>
<g clip-path="url(#clip2)" clip-rule="nonzero">
<path style=" stroke:none;fill-rule:nonzero;fill:rgb(0%,0%,0%);fill-opacity:1;" d="M 14.996094 21.269531 C 13.824219 21.269531 12.691406 20.980469 11.6875 20.4375 C 11.613281 20.542969 11.535156 20.648438 11.464844 20.746094 C 12.535156 21.335938 13.742188 21.648438 14.996094 21.648438 C 15.847656 21.648438 16.679688 21.503906 17.457031 21.226562 C 17.394531 21.125 17.328125 21.015625 17.253906 20.898438 C 16.539062 21.144531 15.777344 21.269531 14.996094 21.269531 Z M 14.996094 21.269531 "/>
</g>
<g clip-path="url(#clip3)" clip-rule="nonzero">
<path style=" stroke:none;fill-rule:nonzero;fill:rgb(0%,0%,0%);fill-opacity:1;" d="M 20.476562 10.085938 C 21.429688 11.296875 21.945312 12.78125 21.945312 14.347656 C 21.945312 16.195312 21.222656 17.933594 19.910156 19.242188 C 19.714844 19.4375 19.511719 19.617188 19.300781 19.785156 L 19.503906 20.101562 C 19.738281 19.921875 19.964844 19.722656 20.175781 19.507812 C 21.5625 18.128906 22.324219 16.296875 22.324219 14.347656 C 22.324219 12.648438 21.746094 11.042969 20.683594 9.742188 C 20.621094 9.851562 20.550781 9.964844 20.476562 10.085938 Z M 20.476562 10.085938 "/>
</g>
<path style=" stroke:none;fill-rule:nonzero;fill:rgb(0%,0%,0%);fill-opacity:1;" d="M 17.683594 7.957031 C 17.789062 7.855469 17.886719 7.761719 17.976562 7.671875 C 17.050781 7.261719 16.042969 7.046875 14.996094 7.046875 C 13.792969 7.046875 12.636719 7.332031 11.597656 7.875 L 11.804688 8.191406 C 12.78125 7.6875 13.867188 7.421875 14.996094 7.421875 C 15.9375 7.421875 16.84375 7.605469 17.683594 7.957031 Z M 17.683594 7.957031 "/>
<path style=" stroke:none;fill-rule:nonzero;fill:rgb(0%,0%,0%);fill-opacity:1;" d="M 14.996094 9.882812 C 15.261719 9.882812 15.519531 9.90625 15.773438 9.949219 C 15.835938 9.875 15.902344 9.804688 15.964844 9.738281 C 15.652344 9.671875 15.328125 9.636719 14.996094 9.636719 C 14.292969 9.636719 13.621094 9.792969 13.019531 10.070312 L 13.152344 10.277344 C 13.714844 10.023438 14.339844 9.882812 14.996094 9.882812 Z M 14.996094 9.882812 "/>
<path style=" stroke:none;fill-rule:nonzero;fill:rgb(0%,0%,0%);fill-opacity:1;" d="M 11.304688 11.410156 C 10.660156 12.214844 10.273438 13.238281 10.273438 14.347656 C 10.273438 15.441406 10.648438 16.445312 11.277344 17.246094 C 11.335938 17.1875 11.390625 17.128906 11.449219 17.066406 C 10.867188 16.3125 10.519531 15.371094 10.519531 14.347656 C 10.519531 13.332031 10.859375 12.390625 11.4375 11.640625 C 11.390625 11.5625 11.347656 11.488281 11.304688 11.410156 Z M 11.304688 11.410156 "/>
<path style=" stroke:none;fill-rule:nonzero;fill:rgb(0%,0%,0%);fill-opacity:1;" d="M 17.953125 17.699219 L 18.085938 17.90625 C 19.085938 17.042969 19.722656 15.765625 19.722656 14.347656 C 19.722656 13.523438 19.507812 12.75 19.136719 12.078125 C 19.082031 12.148438 19.03125 12.222656 18.976562 12.292969 C 19.296875 12.910156 19.476562 13.605469 19.476562 14.347656 C 19.476562 15.679688 18.886719 16.882812 17.953125 17.699219 Z M 17.953125 17.699219 "/>
<path style=" stroke:none;fill-rule:nonzero;fill:rgb(0%,0%,0%);fill-opacity:1;" d="M 14.996094 19.054688 C 15.398438 19.054688 15.789062 19.003906 16.160156 18.910156 C 16.121094 18.835938 16.082031 18.761719 16.042969 18.6875 C 15.707031 18.769531 15.359375 18.8125 14.996094 18.8125 C 14.324219 18.8125 13.683594 18.660156 13.109375 18.394531 C 13.0625 18.460938 13.015625 18.53125 12.96875 18.597656 C 13.585938 18.890625 14.273438 19.054688 14.996094 19.054688 Z M 14.996094 19.054688 "/>
<path style=" stroke:none;fill-rule:nonzero;fill:rgb(0%,0%,0%);fill-opacity:1;" d="M 13.496094 14.972656 C 13.488281 14.976562 13.480469 14.984375 13.472656 14.988281 L 13.488281 15.003906 C 13.492188 15 13.5 14.996094 13.507812 14.992188 Z M 13.496094 14.972656 "/>
<g clip-path="url(#clip4)" clip-rule="nonzero">
<path style=" stroke:none;fill-rule:nonzero;fill:rgb(0%,0%,0%);fill-opacity:1;" d="M 9.015625 20.289062 C 9.015625 20.441406 9.039062 20.589844 9.085938 20.726562 C 9.207031 21.074219 9.476562 21.355469 9.8125 21.484375 C 10.101562 21.597656 10.402344 21.582031 10.65625 21.445312 C 11.050781 21.230469 12.980469 18.332031 14.566406 15.878906 C 14.46875 15.679688 14.375 15.488281 14.289062 15.308594 L 13.621094 15.0625 C 13.617188 15.058594 13.609375 15.054688 13.605469 15.054688 C 13.003906 15.65625 12.363281 16.308594 11.75 16.941406 C 9.304688 19.488281 9.019531 20.074219 9.015625 20.289062 Z M 9.015625 20.289062 "/>
</g>
<path style=" stroke:none;fill-rule:nonzero;fill:rgb(0%,0%,0%);fill-opacity:1;" d="M 19.453125 7.570312 C 19.429688 7.574219 19.402344 7.585938 19.386719 7.605469 L 16.671875 10.960938 C 16.652344 10.988281 16.617188 11.003906 16.582031 11.007812 C 16.546875 11.011719 16.511719 11.003906 16.484375 10.980469 C 16.464844 10.964844 16.449219 10.945312 16.441406 10.917969 C 16.425781 10.875 16.433594 10.828125 16.464844 10.792969 L 19.179688 7.4375 C 19.210938 7.394531 19.207031 7.335938 19.164062 7.300781 L 18.980469 7.15625 C 18.945312 7.125 18.894531 7.125 18.859375 7.15625 C 18.84375 7.167969 17.464844 8.320312 15.285156 10.777344 C 14.917969 11.191406 14.8125 11.800781 15.011719 12.371094 C 15.113281 12.660156 15.289062 12.933594 15.527344 13.160156 C 15.449219 13.238281 15.363281 13.320312 15.269531 13.410156 L 15.710938 14.089844 C 15.832031 13.898438 15.949219 13.71875 16.054688 13.550781 C 16.820312 14.007812 17.507812 13.871094 18.09375 13.144531 C 19.785156 11.054688 20.957031 8.875 20.96875 8.851562 C 20.988281 8.8125 20.980469 8.761719 20.941406 8.730469 L 20.730469 8.5625 C 20.6875 8.527344 20.628906 8.535156 20.59375 8.574219 L 17.878906 11.929688 C 17.855469 11.957031 17.824219 11.976562 17.789062 11.980469 C 17.753906 11.984375 17.71875 11.972656 17.6875 11.949219 C 17.667969 11.933594 17.65625 11.914062 17.648438 11.890625 C 17.632812 11.84375 17.640625 11.796875 17.667969 11.761719 L 20.382812 8.40625 C 20.398438 8.386719 20.40625 8.359375 20.40625 8.335938 C 20.402344 8.308594 20.390625 8.285156 20.367188 8.269531 L 20.128906 8.078125 C 20.085938 8.042969 20.023438 8.050781 19.992188 8.089844 L 17.277344 11.445312 C 17.253906 11.472656 17.222656 11.492188 17.183594 11.492188 C 17.148438 11.496094 17.113281 11.488281 17.085938 11.464844 C 17.066406 11.449219 17.050781 11.429688 17.042969 11.40625 C 17.027344 11.359375 17.035156 11.3125 17.066406 11.277344 L 19.78125 7.921875 C 19.816406 7.878906 19.808594 7.820312 19.765625 7.785156 L 19.527344 7.589844 C 19.503906 7.574219 19.480469 7.566406 19.453125 7.570312 Z M 19.453125 7.570312 "/>
<g clip-path="url(#clip5)" clip-rule="nonzero">
<path style=" stroke:none;fill-rule:nonzero;fill:rgb(0%,0%,0%);fill-opacity:1;" d="M 19.636719 20.570312 L 10.855469 6.988281 C 10.84375 6.96875 10.828125 6.957031 10.808594 6.949219 C 10.761719 6.929688 10.71875 6.921875 10.675781 6.921875 C 10.605469 6.921875 10.503906 6.949219 10.429688 7.066406 C 10.085938 7.625 10.703125 9.832031 11.285156 10.976562 C 12.019531 12.417969 13.632812 14.792969 13.652344 14.816406 C 13.660156 14.835938 13.679688 14.847656 13.699219 14.855469 L 14.449219 15.132812 C 14.996094 16.269531 15.789062 17.886719 16.496094 19.210938 C 17.621094 21.316406 17.96875 21.636719 18.128906 21.695312 C 18.261719 21.746094 18.398438 21.769531 18.539062 21.769531 C 18.878906 21.769531 19.210938 21.617188 19.429688 21.363281 C 19.617188 21.140625 19.695312 20.871094 19.652344 20.605469 C 19.648438 20.59375 19.644531 20.582031 19.636719 20.570312 Z M 19.636719 20.570312 "/>
</g>
</g>
</svg>
