<?xml version="1.0" encoding="UTF-8" standalone="no"?>
<svg xmlns="http://www.w3.org/2000/svg" height="40" width="26" version="1.1" xmlns:xlink="http://www.w3.org/1999/xlink">
 <path d="m13.04 0.6387c-6.783 0-12.43 5.649-12.43 11.78 0 2.757 1.613 6.26 2.779 8.68l9.611 17.73 9.56-17.73c1.166-2.42 2.824-5.747 2.824-8.68 0-6.128-5.555-11.78-12.34-11.78zm0 1.461c5.895 0.0373 10.68 4.656 10.68 10.33 0 5.678-4.781 10.23-10.68 10.27-5.895-0.0373-10.67-4.585-10.67-10.27 0-5.678 4.779-10.3 10.67-10.33z" stroke="#d45500" stroke-linecap="round" fill="#f60"/>
  <ellipse
     style="fill:#ffffff;stroke:#ffffff;stroke-width:1.00274992"
     id="path13"
     cx="13.003574"
     cy="12.374899"
     rx="10.005984"
     ry="9.6464386" />
<svg
   xmlns:dc="http://purl.org/dc/elements/1.1/"
   xmlns:cc="http://creativecommons.org/ns#"
   xmlns:rdf="http://www.w3.org/1999/02/22-rdf-syntax-ns#"
   xmlns:svg="http://www.w3.org/2000/svg"
   xmlns="http://www.w3.org/2000/svg"
   xmlns:sodipodi="http://sodipodi.sourceforge.net/DTD/sodipodi-0.dtd"
   xmlns:inkscape="http://www.inkscape.org/namespaces/inkscape"
   version="1.1"
   x="6.543"
   y="6.02"
   viewBox="0 0 86.000001 87.437001"
   enable-background="new 0 0 100 100"
   xml:space="preserve"
   id="svg2"
   inkscape:version="0.48.4 r9939"
   width="12.91"
   height="12.91"
   sodipodi:docname="Airport.svg"><metadata
     id="metadata30"><rdf:RDF><cc:Work
         rdf:about=""><dc:format>image/svg+xml</dc:format><dc:type
           rdf:resource="http://purl.org/dc/dcmitype/StillImage" /><dc:title></dc:title></cc:Work></rdf:RDF></metadata><defs
     id="defs28" /><sodipodi:namedview
     pagecolor="#ffffff"
     bordercolor="#666666"
     borderopacity="1"
     objecttolerance="10"
     gridtolerance="10"
     guidetolerance="10"
     inkscape:pageopacity="0"
     inkscape:pageshadow="2"
     inkscape:window-width="1322"
     inkscape:window-height="812"
     id="namedview26"
     showgrid="false"
     fit-margin-top="0"
     fit-margin-left="0"
     fit-margin-right="0"
     fit-margin-bottom="0"
     inkscape:zoom="3.6203867"
     inkscape:cx="37.226252"
     inkscape:cy="39.123728"
     inkscape:window-x="571"
     inkscape:window-y="110"
     inkscape:window-maximized="0"
     inkscape:current-layer="g6983" /><g
     id="g3217"
     transform="translate(-1223.0264,7591.7825)"><g
       id="g3355"
       transform="translate(0.52596752,-1.51338)"><g
         id="g3394"
         transform="translate(-1.304037,6.1068216)"><g
           id="g3432"
           transform="translate(1.3243604,-7.0685396)"><g
             id="g3490"
             transform="translate(14.50543,16.201175)"><g
               id="g3544"
               transform="translate(1.7832223,7.9070624)"><g
                 id="g3595"
                 transform="translate(9.5264836,-0.46901412)"><g
                   id="g3646"
                   transform="translate(-52.35165,-3.5880634)"><g
                     id="g3767"
                     transform="translate(6.0048559,8.7552768)"><g
                       id="g4075"
                       transform="translate(0.55239017,0.07303033)"><g
                         id="g4264"
                         transform="translate(3.0880737,-2.6377741)"><g
                           id="g4355"
                           transform="translate(8.4601992,5.328404)"><g
                             id="g4421"
                             transform="translate(-6.5255081,7.0858766)"><g
                               id="g4462"
                               transform="translate(25.518018,13.531166)"><g
                                 id="g4500"
                                 transform="translate(80.26127,-61.023322)"><g
                                   id="g5344"
                                   transform="translate(-17.614831,53.929153)"><g
                                   id="g5294"
                                   display="none"
                                   style="display:none"><rect
                                   id="rect5296"
                                   height="196"
                                   width="394.5"
                                   display="inline"
                                   y="-80.754997"
                                   x="-43.5"
                                   style="fill:#000000;display:inline" /></g><g
                                   id="g5316"
                                   display="none"
                                   style="display:none"><g
                                   id="g5318"
                                   display="inline"
                                   style="display:inline"><path
                                   id="path5320"
                                   d="M 1.581,10.718 H 30.418 L 16,1.051 1.581,10.718 z M 17.592,6.594 c 0,0.879 -0.713,1.592 -1.592,1.592 -0.879,0 -1.592,-0.713 -1.592,-1.592 0,-0.879 0.713,-1.592 1.592,-1.592 0.879,0 1.592,0.712 1.592,1.592 z"
                                   inkscape:connector-curvature="0" /><rect
                                   id="rect5322"
                                   height="3.0209999"
                                   width="31"
                                   y="28.030001"
                                   x="0.5" /><rect
                                   id="rect5324"
                                   height="11.875"
                                   width="3.0209999"
                                   y="13.363"
                                   x="3.6670001" /><rect
                                   id="rect5326"
                                   height="11.875"
                                   width="3.0209999"
                                   y="13.363"
                                   x="8.349" /><rect
                                   id="rect5328"
                                   height="11.875"
                                   width="3.0209999"
                                   y="13.363"
                                   x="20.629999" /><rect
                                   id="rect5330"
                                   height="11.875"
                                   width="3.0209999"
                                   y="13.363"
                                   x="25.312" /></g><path
                                   id="path5332"
                                   d="m 19.055,22.809 c -0.386,0.262 -1.035,0.524 -1.857,0.524 -1.01,0 -1.907,-0.386 -2.53,-1.11 -0.474,-0.524 -0.785,-1.246 -0.897,-2.144 h -0.773 v -0.611 h 0.711 c 0,-0.062 0,-0.125 0,-0.187 0,-0.2 0.012,-0.387 0.025,-0.561 h -0.735 v -0.624 h 0.823 c 0.15,-0.872 0.524,-1.595 1.022,-2.106 0.636,-0.66 1.446,-1.035 2.468,-1.035 0.735,0 1.309,0.212 1.658,0.399 l -0.249,0.822 c -0.312,-0.187 -0.835,-0.349 -1.396,-0.349 -0.673,0 -1.221,0.237 -1.645,0.685 -0.374,0.361 -0.623,0.922 -0.748,1.583 h 3.478 v 0.624 h -3.59 c -0.013,0.162 -0.025,0.349 -0.025,0.523 0,0.075 0,0.137 0,0.225 h 3.615 v 0.611 h -3.53 c 0.1,0.723 0.349,1.259 0.685,1.633 0.461,0.486 1.085,0.723 1.757,0.723 0.661,0 1.234,-0.249 1.521,-0.411 l 0.212,0.786 z"
                                   display="inline"
                                   inkscape:connector-curvature="0"
                                   style="display:inline" /></g><g
                                   id="g5453"
                                   transform="translate(-52.625356,-10.750909)"><g
                                   id="g5403"
                                   display="none"
                                   style="display:none"><rect
                                   id="rect5405"
                                   height="196"
                                   width="394.5"
                                   display="inline"
                                   y="-80.754997"
                                   x="-43.5"
                                   style="fill:#000000;display:inline" /></g><g
                                   id="g5425"
                                   display="none"
                                   style="display:none"><g
                                   id="g5427"
                                   display="inline"
                                   style="display:inline"><path
                                   id="path5429"
                                   d="M 1.581,10.718 H 30.418 L 16,1.051 1.581,10.718 z M 17.592,6.594 c 0,0.879 -0.713,1.592 -1.592,1.592 -0.879,0 -1.592,-0.713 -1.592,-1.592 0,-0.879 0.713,-1.592 1.592,-1.592 0.879,0 1.592,0.712 1.592,1.592 z"
                                   inkscape:connector-curvature="0" /><rect
                                   id="rect5431"
                                   height="3.0209999"
                                   width="31"
                                   y="28.030001"
                                   x="0.5" /><rect
                                   id="rect5433"
                                   height="11.875"
                                   width="3.0209999"
                                   y="13.363"
                                   x="3.6670001" /><rect
                                   id="rect5435"
                                   height="11.875"
                                   width="3.0209999"
                                   y="13.363"
                                   x="8.349" /><rect
                                   id="rect5437"
                                   height="11.875"
                                   width="3.0209999"
                                   y="13.363"
                                   x="20.629999" /><rect
                                   id="rect5439"
                                   height="11.875"
                                   width="3.0209999"
                                   y="13.363"
                                   x="25.312" /></g><path
                                   id="path5441"
                                   d="m 19.055,22.809 c -0.386,0.262 -1.035,0.524 -1.857,0.524 -1.01,0 -1.907,-0.386 -2.53,-1.11 -0.474,-0.524 -0.785,-1.246 -0.897,-2.144 h -0.773 v -0.611 h 0.711 c 0,-0.062 0,-0.125 0,-0.187 0,-0.2 0.012,-0.387 0.025,-0.561 h -0.735 v -0.624 h 0.823 c 0.15,-0.872 0.524,-1.595 1.022,-2.106 0.636,-0.66 1.446,-1.035 2.468,-1.035 0.735,0 1.309,0.212 1.658,0.399 l -0.249,0.822 c -0.312,-0.187 -0.835,-0.349 -1.396,-0.349 -0.673,0 -1.221,0.237 -1.645,0.685 -0.374,0.361 -0.623,0.922 -0.748,1.583 h 3.478 v 0.624 h -3.59 c -0.013,0.162 -0.025,0.349 -0.025,0.523 0,0.075 0,0.137 0,0.225 h 3.615 v 0.611 h -3.53 c 0.1,0.723 0.349,1.259 0.685,1.633 0.461,0.486 1.085,0.723 1.757,0.723 0.661,0 1.234,-0.249 1.521,-0.411 l 0.212,0.786 z"
                                   display="inline"
                                   inkscape:connector-curvature="0"
                                   style="display:inline" /></g><g
                                   id="g5911"
                                   transform="translate(34.803917,-34.731522)"><g
                                   id="g5969"
                                   transform="translate(-76.820846,20.463898)"><g
                                   id="g6024"
                                   transform="translate(-1.5269147,1.6004891)"><g
                                   id="g6071"
                                   transform="translate(7.3886843,1.0351706)"><g
                                   id="g6187"
                                   transform="translate(-0.71000052,-4.6322855)"><g
                                   id="g6263"
                                   transform="translate(-0.66737304,-5.3488176)"><g
                                   id="g6319"
                                   transform="translate(0.79720466,3.5647493)"><g
                                   id="g6384"
                                   transform="translate(-9.1472004,2.261335)"><g
                                   id="g6488"
                                   transform="translate(-2.0348122,-3.4042665)"><g
                                   id="g6516"
                                   transform="translate(-0.63832329,-2.3294036)"><g
                                   id="g6769"
                                   transform="translate(1565.7794,-3801.8487)"><g
                                   id="g6910"
                                   transform="translate(-308.09512,-3790.9493)"><g
                                   id="g6983"
                                   transform="translate(-14.231122,-15.611848)"><g
                                   id="g6947"><path
                                   id="path6949"
                                   d="M 19.595,19.594 C 11.473,27.716 7,38.514 7,50 c 0,10.618 3.825,20.646 10.82,28.519 0.444,-0.532 0.926,-1.1 1.451,-1.707 C 12.77,69.382 9.219,59.965 9.219,50 c 0,-10.893 4.242,-21.134 11.944,-28.837 0.548,-0.548 1.11,-1.076 1.684,-1.589 -0.233,-0.793 -0.452,-1.588 -0.653,-2.374 -0.893,0.759 -1.761,1.556 -2.599,2.394 z"
                                   inkscape:connector-curvature="0"
                                   style="fill:#000000" /><path
                                   id="path6951"
                                   d="m 50,90.781 c -6.896,0 -13.53,-1.702 -19.425,-4.904 -0.452,0.627 -0.893,1.23 -1.319,1.807 C 35.537,91.153 42.626,93 50,93 55,93 59.868,92.151 64.443,90.524 64.069,89.933 63.672,89.288 63.253,88.586 59.044,90.028 54.58,90.781 50,90.781 z"
                                   inkscape:connector-curvature="0"
                                   style="fill:#000000" /><path
                                   id="path6953"
                                   d="m 82.152,24.904 c 5.595,7.139 8.629,15.884 8.629,25.096 0,10.893 -4.241,21.134 -11.944,28.836 -1.142,1.143 -2.342,2.207 -3.589,3.194 l 1.208,1.875 c 1.376,-1.078 2.695,-2.245 3.949,-3.5 C 88.527,72.283 93,61.485 93,50 93,40.007 89.613,30.536 83.384,22.894 c -0.383,0.633 -0.794,1.305 -1.232,2.01 z"
                                   inkscape:connector-curvature="0"
                                   style="fill:#000000" /><path
                                   id="path6955"
                                   d="m 65.775,12.371 c 0.608,-0.597 1.183,-1.157 1.721,-1.675 C 62.062,8.274 56.128,7 50,7 42.936,7 36.133,8.695 30.051,11.887 l 1.207,1.874 C 36.981,10.793 43.369,9.218 50,9.218 c 5.507,0 10.847,1.086 15.775,3.153 z"
                                   inkscape:connector-curvature="0"
                                   style="fill:#000000" /><path
                                   id="path6957"
                                   d="m 50,23.704 c 1.548,0 3.066,0.136 4.542,0.394 0.384,-0.422 0.764,-0.836 1.137,-1.244 -1.833,-0.383 -3.732,-0.585 -5.678,-0.585 -4.145,0 -8.08,0.916 -11.615,2.552 l 0.785,1.218 C 42.475,24.54 46.142,23.704 50,23.704 z"
                                   inkscape:connector-curvature="0"
                                   style="fill:#000000" /><path
                                   id="path6959"
                                   d="M 28.333,32.712 C 24.541,37.457 22.269,43.467 22.269,50 c 0,6.438 2.205,12.369 5.899,17.081 0.327,-0.345 0.66,-0.695 1.001,-1.053 -3.424,-4.439 -5.465,-10 -5.465,-16.028 0,-5.985 2.011,-11.509 5.392,-15.934 -0.261,-0.457 -0.515,-0.909 -0.763,-1.354 z"
                                   inkscape:connector-curvature="0"
                                   style="fill:#000000" /><path
                                   id="path6961"
                                   d="m 67.338,69.753 0.785,1.22 C 74.005,65.884 77.731,58.369 77.731,50 c 0,-4.845 -1.25,-9.403 -3.442,-13.37 -0.31,0.426 -0.623,0.854 -0.94,1.282 1.882,3.622 2.947,7.732 2.947,12.088 0,7.863 -3.47,14.931 -8.958,19.753 z"
                                   inkscape:connector-curvature="0"
                                   style="fill:#000000" /><path
                                   id="path6963"
                                   d="m 50,77.731 c 2.352,0 4.635,-0.296 6.818,-0.85 -0.227,-0.434 -0.453,-0.872 -0.68,-1.312 -1.971,0.474 -4.025,0.726 -6.138,0.726 -3.963,0 -7.722,-0.883 -11.095,-2.459 -0.269,0.4 -0.54,0.802 -0.812,1.205 3.611,1.724 7.648,2.69 11.907,2.69 z"
                                   inkscape:connector-curvature="0"
                                   style="fill:#000000" /><path
                                   id="path6965"
                                   d="m 41.184,53.693 c -0.048,0.024 -0.091,0.054 -0.129,0.087 l 0.085,0.1 c 0.032,-0.027 0.068,-0.052 0.105,-0.072 l -0.061,-0.115 z"
                                   inkscape:connector-curvature="0"
                                   style="fill:#000000" /><path
                                   id="path6967"
                                   d="m 14.889,85.003 c -0.013,0.889 0.125,1.758 0.41,2.582 0.703,2.027 2.296,3.694 4.264,4.457 1.706,0.661 3.466,0.579 4.959,-0.232 2.307,-1.256 13.634,-18.347 22.936,-32.79 -0.567,-1.172 -1.111,-2.299 -1.616,-3.352 L 41.918,54.209 C 41.887,54.197 41.86,54.182 41.831,54.169 38.304,57.706 34.527,61.546 30.942,65.294 16.591,80.293 14.907,83.726 14.889,85.003 z"
                                   inkscape:connector-curvature="0"
                                   style="fill:#000000" /><path
                                   id="path6969"
                                   d="m 76.157,10.095 c -0.152,0.016 -0.292,0.091 -0.387,0.21 L 59.837,30.056 c -0.133,0.165 -0.322,0.268 -0.533,0.29 -0.209,0.022 -0.415,-0.038 -0.58,-0.171 -0.116,-0.094 -0.203,-0.216 -0.252,-0.356 -0.09,-0.259 -0.04,-0.542 0.133,-0.756 L 74.538,9.311 c 0.2,-0.247 0.16,-0.608 -0.086,-0.809 L 73.389,7.643 c -0.214,-0.173 -0.52,-0.169 -0.73,0.006 -0.079,0.066 -8.166,6.859 -20.976,21.338 -2.149,2.43 -2.762,6.023 -1.6,9.377 0.594,1.715 1.638,3.31 3.036,4.644 -0.469,0.458 -0.975,0.95 -1.513,1.478 l 2.58,4.003 c 0.717,-1.131 1.392,-2.194 2.008,-3.169 4.51,2.676 8.537,1.873 11.978,-2.39 9.927,-12.307 16.805,-25.157 16.874,-25.284 0.128,-0.244 0.066,-0.544 -0.147,-0.717 l -1.242,-1.001 c -0.248,-0.2 -0.61,-0.161 -0.809,0.086 L 66.912,35.765 c -0.132,0.165 -0.321,0.268 -0.532,0.292 -0.21,0.022 -0.416,-0.04 -0.581,-0.171 -0.115,-0.095 -0.202,-0.218 -0.251,-0.357 -0.091,-0.259 -0.04,-0.542 0.132,-0.756 L 81.614,15.02 c 0.097,-0.119 0.142,-0.271 0.125,-0.422 -0.018,-0.152 -0.093,-0.292 -0.211,-0.387 l -1.411,-1.138 c -0.246,-0.2 -0.608,-0.161 -0.808,0.086 L 63.374,32.911 c -0.133,0.165 -0.321,0.268 -0.532,0.29 -0.21,0.022 -0.416,-0.038 -0.58,-0.169 -0.115,-0.094 -0.202,-0.217 -0.251,-0.356 -0.09,-0.26 -0.041,-0.545 0.133,-0.757 L 78.078,12.168 c 0.199,-0.247 0.161,-0.609 -0.087,-0.809 l -1.41,-1.14 c -0.12,-0.097 -0.272,-0.141 -0.424,-0.124 z"
                                   inkscape:connector-curvature="0"
                                   style="fill:#000000" /><path
                                   id="path6971"
                                   d="M 77.236,86.654 25.691,6.657 C 25.624,6.551 25.523,6.47 25.404,6.427 25.137,6.33 24.879,6.281 24.637,6.281 c -0.421,0 -1.015,0.147 -1.449,0.854 -2.012,3.276 1.594,16.269 5.015,23.012 4.312,8.502 13.795,22.492 13.89,22.631 0.067,0.1 0.164,0.175 0.275,0.217 l 4.414,1.64 c 3.208,6.689 7.862,16.213 12.019,24.024 6.595,12.392 8.627,14.284 9.579,14.631 0.781,0.282 1.588,0.428 2.401,0.428 2.002,0 3.955,-0.896 5.227,-2.396 1.106,-1.304 1.572,-2.885 1.312,-4.451 -0.013,-0.077 -0.042,-0.15 -0.084,-0.217 z"
                                   inkscape:connector-curvature="0"
                                   style="fill:#000000" /></g></g></g></g></g></g></g></g></g></g></g></g></g></g></g></g></g></g></g></g></g></g></g></g></g></g></g></g></g></g></g></svg></svg>
