<?xml version="1.0" encoding="UTF-8"?>
<svg xmlns="http://www.w3.org/2000/svg" xmlns:xlink="http://www.w3.org/1999/xlink" width="30px" height="46px" viewBox="0 0 30 46" version="1.1">
<defs>
<clipPath id="clip1">
  <path d="M 7.550781 8 L 22 8 L 22 21 L 7.550781 21 Z M 7.550781 8 "/>
</clipPath>
<clipPath id="clip2">
  <path d="M 18 11 L 22.445312 11 L 22.445312 16 L 18 16 Z M 18 11 "/>
</clipPath>
<clipPath id="clip3">
  <path d="M 19 9 L 22.445312 9 L 22.445312 13 L 19 13 Z M 19 9 "/>
</clipPath>
</defs>
<g id="surface1">
<path style="fill-rule:nonzero;fill:rgb(100%,40.000001%,0%);fill-opacity:1;stroke-width:1;stroke-linecap:round;stroke-linejoin:miter;stroke:rgb(83.137256%,33.333334%,0%);stroke-opacity:1;stroke-miterlimit:4;" d="M 13.040625 0.638587 C 6.25625 0.638587 0.609375 6.287364 0.609375 12.418478 C 0.609375 15.17663 2.224219 18.678668 3.388802 21.097147 L 13 38.828125 L 22.560417 21.097147 C 23.725 18.678668 25.383854 15.353261 25.383854 12.418478 C 25.383854 6.290761 19.828385 0.638587 13.04401 0.638587 Z M 13.040625 2.099185 C 18.934635 2.136549 23.721615 6.756114 23.721615 12.428668 C 23.721615 18.108016 18.938021 22.659647 13.040625 22.700408 C 7.146615 22.663043 2.369792 18.11481 2.369792 12.428668 C 2.369792 6.752717 7.15 2.129755 13.040625 2.099185 Z M 13.040625 2.099185 " transform="matrix(1.153846,0,0,1.15,0,0)"/>
<path style="fill-rule:nonzero;fill:rgb(100%,100%,100%);fill-opacity:1;stroke-width:1.00275;stroke-linecap:butt;stroke-linejoin:miter;stroke:rgb(100%,100%,100%);stroke-opacity:1;stroke-miterlimit:4;" d="M 23.010677 12.374321 C 23.010677 17.703804 18.528385 22.02106 13.003385 22.02106 C 7.478385 22.02106 2.996094 17.703804 2.996094 12.374321 C 2.996094 7.048234 7.478385 2.727582 13.003385 2.727582 C 18.528385 2.727582 23.010677 7.048234 23.010677 12.374321 Z M 23.010677 12.374321 " transform="matrix(1.153846,0,0,1.15,0,0)"/>
<g clip-path="url(#clip1)" clip-rule="nonzero">
<path style=" stroke:none;fill-rule:nonzero;fill:rgb(0%,0%,0%);fill-opacity:1;" d="M 20.527344 17.425781 L 20.484375 17.425781 C 20.46875 17.136719 20.300781 16.886719 20.058594 16.753906 C 19.558594 16.957031 19.019531 17.078125 18.472656 17.101562 C 18.464844 17.101562 18.453125 17.101562 18.445312 17.101562 C 18.394531 17.101562 18.347656 17.09375 18.300781 17.082031 C 18.25 17.097656 18.199219 17.105469 18.148438 17.105469 C 18.140625 17.105469 18.136719 17.105469 18.132812 17.105469 C 17.988281 17.101562 17.84375 17.089844 17.699219 17.074219 L 17.699219 17.476562 L 16.363281 17.476562 L 16.363281 16.71875 C 15.914062 16.53125 15.496094 16.277344 15.121094 15.957031 L 15.121094 17.476562 L 13.785156 17.476562 L 13.785156 14.128906 C 13.503906 13.457031 13.378906 12.722656 13.425781 11.976562 C 13.429688 11.917969 13.445312 11.859375 13.464844 11.808594 C 13.457031 11.753906 13.453125 11.695312 13.460938 11.640625 C 13.597656 10.648438 14.03125 9.738281 14.714844 9.003906 C 14.753906 8.960938 14.800781 8.929688 14.847656 8.902344 C 14.878906 8.851562 14.910156 8.808594 14.953125 8.769531 C 15.027344 8.695312 15.109375 8.628906 15.1875 8.566406 L 14.917969 8.382812 C 14.777344 8.289062 14.613281 8.242188 14.453125 8.242188 C 14.289062 8.242188 14.128906 8.289062 13.988281 8.382812 L 10.949219 10.433594 L 7.914062 12.484375 C 7.613281 12.6875 7.480469 13.0625 7.585938 13.410156 C 7.691406 13.757812 8.015625 13.996094 8.378906 13.996094 L 9.132812 13.996094 L 9.132812 16.65625 C 8.746094 16.710938 8.445312 17.03125 8.417969 17.425781 L 8.378906 17.425781 C 7.921875 17.425781 7.550781 17.792969 7.550781 18.25 L 7.550781 19.820312 C 7.550781 20.277344 7.921875 20.644531 8.378906 20.644531 L 20.527344 20.644531 C 20.984375 20.644531 21.355469 20.277344 21.355469 19.820312 L 21.355469 18.25 C 21.355469 17.792969 20.984375 17.425781 20.527344 17.425781 Z M 12.539062 17.476562 L 11.207031 17.476562 L 11.207031 13.167969 L 12.539062 13.167969 Z M 12.539062 17.476562 "/>
</g>
<path style=" stroke:none;fill-rule:nonzero;fill:rgb(0%,0%,0%);fill-opacity:1;" d="M 14.027344 12.144531 C 13.996094 12.144531 13.964844 12.144531 13.933594 12.148438 C 13.894531 13.273438 14.308594 14.367188 15.078125 15.191406 L 16.898438 13.375 C 16.875 13.347656 16.847656 13.324219 16.824219 13.300781 C 16.078125 12.554688 15.085938 12.144531 14.027344 12.144531 Z M 14.027344 12.144531 "/>
<path style=" stroke:none;fill-rule:nonzero;fill:rgb(0%,0%,0%);fill-opacity:1;" d="M 17.277344 13.84375 L 15.515625 15.597656 C 16.210938 16.15625 17.066406 16.484375 17.957031 16.53125 C 18.0625 15.585938 17.820312 14.621094 17.277344 13.84375 Z M 17.277344 13.84375 "/>
<path style=" stroke:none;fill-rule:nonzero;fill:rgb(0%,0%,0%);fill-opacity:1;" d="M 14.027344 11.546875 C 15.246094 11.546875 16.386719 12.019531 17.25 12.875 C 17.273438 12.902344 17.296875 12.925781 17.324219 12.953125 L 17.875 12.402344 L 14.976562 9.507812 C 14.46875 10.089844 14.132812 10.789062 13.996094 11.546875 C 14.007812 11.546875 14.019531 11.546875 14.027344 11.546875 Z M 14.027344 11.546875 "/>
<path style=" stroke:none;fill-rule:nonzero;fill:rgb(0%,0%,0%);fill-opacity:1;" d="M 18.5625 16.523438 C 19.457031 16.445312 20.304688 16.085938 20.984375 15.5 L 18.300781 12.824219 L 17.707031 13.414062 C 18.359375 14.304688 18.664062 15.421875 18.5625 16.523438 Z M 18.5625 16.523438 "/>
<path style=" stroke:none;fill-rule:nonzero;fill:rgb(0%,0%,0%);fill-opacity:1;" d="M 17.445312 8.113281 C 16.683594 8.246094 15.980469 8.578125 15.398438 9.085938 L 18.300781 11.976562 L 18.855469 11.425781 C 18.828125 11.402344 18.804688 11.375 18.777344 11.351562 C 17.917969 10.492188 17.4375 9.320312 17.445312 8.113281 Z M 17.445312 8.113281 "/>
<g clip-path="url(#clip2)" clip-rule="nonzero">
<path style=" stroke:none;fill-rule:nonzero;fill:rgb(0%,0%,0%);fill-opacity:1;" d="M 22 12.679688 C 21.039062 12.679688 20.089844 12.371094 19.316406 11.8125 L 18.722656 12.402344 L 21.410156 15.074219 C 22 14.398438 22.359375 13.550781 22.4375 12.660156 C 22.292969 12.671875 22.144531 12.679688 22 12.679688 Z M 22 12.679688 "/>
</g>
<path style=" stroke:none;fill-rule:nonzero;fill:rgb(0%,0%,0%);fill-opacity:1;" d="M 18.191406 8.046875 C 18.144531 8.046875 18.09375 8.046875 18.046875 8.050781 C 18.019531 9.125 18.4375 10.167969 19.203125 10.929688 C 19.226562 10.953125 19.253906 10.976562 19.277344 11.003906 L 21.101562 9.1875 C 20.308594 8.449219 19.28125 8.046875 18.191406 8.046875 Z M 18.191406 8.046875 "/>
<g clip-path="url(#clip3)" clip-rule="nonzero">
<path style=" stroke:none;fill-rule:nonzero;fill:rgb(0%,0%,0%);fill-opacity:1;" d="M 22.445312 12.058594 C 22.398438 11.171875 22.066406 10.316406 21.507812 9.625 L 19.746094 11.382812 C 20.402344 11.835938 21.199219 12.082031 22 12.082031 C 22.148438 12.082031 22.296875 12.074219 22.445312 12.058594 Z M 22.445312 12.058594 "/>
</g>
</g>
</svg>
