<?xml version="1.0" encoding="UTF-8"?>
<svg xmlns="http://www.w3.org/2000/svg" xmlns:xlink="http://www.w3.org/1999/xlink" width="30px" height="46px" viewBox="0 0 30 46" version="1.1">
<defs>
<clipPath id="clip1">
  <path d="M 7.550781 9 L 22.445312 9 L 22.445312 20 L 7.550781 20 Z M 7.550781 9 "/>
</clipPath>
</defs>
<g id="surface1">
<path style="fill-rule:nonzero;fill:rgb(100%,40.000001%,0%);fill-opacity:1;stroke-width:1;stroke-linecap:round;stroke-linejoin:miter;stroke:rgb(83.137256%,33.333334%,0%);stroke-opacity:1;stroke-miterlimit:4;" d="M 13.040625 0.638587 C 6.25625 0.638587 0.609375 6.287364 0.609375 12.418478 C 0.609375 15.17663 2.224219 18.678668 3.388802 21.097147 L 13 38.828125 L 22.560417 21.097147 C 23.725 18.678668 25.383854 15.353261 25.383854 12.418478 C 25.383854 6.290761 19.828385 0.638587 13.04401 0.638587 Z M 13.040625 2.099185 C 18.934635 2.136549 23.721615 6.756114 23.721615 12.428668 C 23.721615 18.108016 18.938021 22.659647 13.040625 22.700408 C 7.146615 22.663043 2.369792 18.11481 2.369792 12.428668 C 2.369792 6.752717 7.15 2.129755 13.040625 2.099185 Z M 13.040625 2.099185 " transform="matrix(1.153846,0,0,1.15,0,0)"/>
<path style="fill-rule:nonzero;fill:rgb(100%,100%,100%);fill-opacity:1;stroke-width:1.00275;stroke-linecap:butt;stroke-linejoin:miter;stroke:rgb(100%,100%,100%);stroke-opacity:1;stroke-miterlimit:4;" d="M 23.010677 12.374321 C 23.010677 17.703804 18.528385 22.02106 13.003385 22.02106 C 7.478385 22.02106 2.996094 17.703804 2.996094 12.374321 C 2.996094 7.048234 7.478385 2.727582 13.003385 2.727582 C 18.528385 2.727582 23.010677 7.048234 23.010677 12.374321 Z M 23.010677 12.374321 " transform="matrix(1.153846,0,0,1.15,0,0)"/>
<g clip-path="url(#clip1)" clip-rule="nonzero">
<path style=" stroke:none;fill-rule:nonzero;fill:rgb(0%,0%,0%);fill-opacity:1;" d="M 7.699219 17.351562 C 8.003906 18.050781 9.625 18.664062 11.785156 18.96875 C 12.773438 19.109375 13.894531 19.1875 15.078125 19.1875 C 16.15625 19.1875 17.183594 19.121094 18.105469 19.003906 C 18.199219 18.992188 18.292969 18.980469 18.382812 18.96875 L 18.386719 18.964844 C 20.796875 18.625 22.445312 17.925781 22.445312 17.117188 L 22.445312 12.847656 L 22.4375 12.855469 C 22.367188 11.90625 19.992188 11.113281 16.800781 10.890625 L 16.800781 10.425781 L 18.1875 10.425781 L 16.679688 9.660156 L 16.597656 9.660156 L 16.597656 10.878906 C 16.121094 10.851562 15.621094 10.835938 15.113281 10.832031 L 15.113281 10.273438 L 16.5 10.273438 L 14.992188 9.503906 L 14.910156 9.503906 L 14.910156 10.832031 C 14.304688 10.832031 13.71875 10.855469 13.15625 10.894531 L 13.15625 10.425781 L 14.542969 10.425781 L 13.03125 9.660156 L 12.953125 9.660156 L 12.953125 10.910156 C 9.832031 11.15625 7.550781 11.953125 7.550781 12.902344 C 7.550781 13.050781 7.585938 13.167969 7.699219 13.3125 Z M 16.980469 11.214844 C 17.972656 11.292969 18.863281 11.425781 19.589844 11.601562 L 18.90625 12.671875 C 18.371094 12.488281 17.558594 12.34375 16.574219 12.265625 Z M 18.574219 14.148438 C 17.542969 14.3125 16.316406 14.410156 14.996094 14.410156 C 13.75 14.410156 12.582031 14.324219 11.589844 14.175781 L 11.75 13.972656 C 12.582031 14.117188 13.652344 14.203125 14.820312 14.203125 C 16.238281 14.203125 17.511719 14.074219 18.390625 13.871094 Z M 14.996094 11.140625 C 15.492188 11.140625 15.976562 11.152344 16.445312 11.179688 L 16.210938 12.246094 C 15.773438 12.21875 15.304688 12.203125 14.820312 12.203125 C 14.449219 12.203125 14.089844 12.210938 13.742188 12.226562 L 13.542969 11.1875 Z M 13.074219 11.210938 L 13.347656 12.25 C 12.449219 12.3125 11.664062 12.425781 11.082031 12.574219 L 10.582031 11.558594 C 11.289062 11.402344 12.136719 11.28125 13.074219 11.210938 Z M 8.398438 12.773438 C 8.398438 12.355469 9.042969 11.96875 10.097656 11.679688 L 10.777344 12.664062 C 10.453125 12.769531 10.222656 12.886719 10.109375 13.015625 L 8.777344 12.175781 L 8.511719 12.375 L 10.019531 13.203125 C 10.019531 13.488281 10.601562 13.75 11.527344 13.929688 L 11.316406 14.132812 C 9.558594 13.839844 8.398438 13.339844 8.398438 12.773438 Z M 9.832031 17.964844 C 9.289062 17.78125 8.894531 17.566406 8.695312 17.335938 L 8.695312 16.738281 C 9.011719 16.894531 9.394531 17.035156 9.832031 17.15625 Z M 9.832031 16.550781 C 9.289062 16.367188 8.894531 16.15625 8.695312 15.925781 L 8.695312 15.464844 C 9.011719 15.617188 9.394531 15.757812 9.832031 15.882812 Z M 9.832031 14.394531 L 9.832031 15.277344 C 9.289062 15.09375 8.894531 14.878906 8.695312 14.648438 L 8.695312 14.003906 C 9.019531 14.144531 9.402344 14.277344 9.835938 14.394531 Z M 11.785156 18.402344 C 11.269531 18.328125 10.804688 18.234375 10.394531 18.128906 L 10.394531 17.300781 C 10.820312 17.402344 11.285156 17.484375 11.785156 17.554688 Z M 11.785156 16.992188 C 11.269531 16.914062 10.804688 16.824219 10.394531 16.71875 L 10.394531 16.027344 C 10.820312 16.125 11.285156 16.210938 11.785156 16.28125 Z M 15.078125 18.625 C 14.5 18.625 13.941406 18.605469 13.40625 18.570312 L 13.40625 16.441406 L 16.601562 16.441406 L 16.613281 18.582031 C 16.121094 18.609375 15.605469 18.625 15.078125 18.625 Z M 18.105469 15.75 L 18.105469 18.441406 C 17.722656 18.488281 17.316406 18.53125 16.890625 18.5625 L 16.890625 16.207031 L 13.066406 16.207031 L 13.066406 18.546875 C 12.6875 18.515625 12.320312 18.476562 11.972656 18.429688 L 11.972656 15.453125 L 18.105469 15.453125 Z M 19.550781 18.183594 C 19.195312 18.265625 18.808594 18.339844 18.386719 18.402344 L 18.386719 17.554688 C 18.796875 17.496094 19.1875 17.425781 19.550781 17.351562 Z M 19.550781 16.769531 C 19.195312 16.851562 18.808594 16.925781 18.386719 16.988281 L 18.386719 16.277344 C 18.796875 16.21875 19.1875 16.152344 19.550781 16.074219 Z M 19.550781 15.492188 C 19.195312 15.578125 18.808594 15.648438 18.386719 15.710938 L 18.386719 15.28125 L 11.785156 15.28125 L 11.785156 15.714844 C 11.269531 15.640625 10.804688 15.546875 10.394531 15.441406 L 10.394531 14.527344 C 11.660156 14.804688 13.257812 14.96875 14.996094 14.96875 C 16.710938 14.96875 18.289062 14.808594 19.550781 14.539062 Z M 21.160156 17.585938 C 20.90625 17.75 20.550781 17.898438 20.109375 18.03125 L 20.109375 17.214844 C 20.503906 17.113281 20.855469 17 21.160156 16.875 Z M 21.160156 16.175781 C 20.90625 16.335938 20.550781 16.488281 20.109375 16.621094 L 20.109375 15.941406 C 20.503906 15.835938 20.855469 15.722656 21.160156 15.597656 Z M 21.160156 14.898438 C 20.90625 15.058594 20.550781 15.210938 20.109375 15.34375 L 20.109375 14.402344 C 20.503906 14.300781 20.855469 14.183594 21.160156 14.058594 Z M 18.578125 14.148438 L 18.90625 14.085938 L 18.625 13.8125 C 19.097656 13.6875 19.421875 13.535156 19.554688 13.367188 C 19.671875 13.34375 21.164062 13.039062 21.554688 12.949219 C 21.335938 13.453125 20.203125 13.886719 18.578125 14.148438 Z M 19.621094 13.195312 C 19.613281 13.035156 19.429688 12.878906 19.105469 12.742188 C 19.105469 12.742188 19.988281 11.707031 20.003906 11.710938 C 20.914062 11.972656 21.492188 12.308594 21.578125 12.675781 Z M 19.621094 13.195312 "/>
</g>
</g>
</svg>
