<?xml version="1.0" encoding="UTF-8" standalone="no"?>
<svg xmlns="http://www.w3.org/2000/svg" height="40" width="26" version="1.1" xmlns:xlink="http://www.w3.org/1999/xlink">
 <path d="m13.04 0.6387c-6.783 0-12.43 5.649-12.43 11.78 0 2.757 1.613 6.26 2.779 8.68l9.611 17.73 9.56-17.73c1.166-2.42 2.824-5.747 2.824-8.68 0-6.128-5.555-11.78-12.34-11.78zm0 1.461c5.895 0.0373 10.68 4.656 10.68 10.33 0 5.678-4.781 10.23-10.68 10.27-5.895-0.0373-10.67-4.585-10.67-10.27 0-5.678 4.779-10.3 10.67-10.33z" stroke="#d45500" stroke-linecap="round" fill="#f60"/>
  <ellipse
     style="fill:#ffffff;stroke:#ffffff;stroke-width:1.00274992"
     id="path13"
     cx="13.003574"
     cy="12.374899"
     rx="10.005984"
     ry="9.6464386" />
<svg
   xmlns:dc="http://purl.org/dc/elements/1.1/"
   xmlns:cc="http://creativecommons.org/ns#"
   xmlns:rdf="http://www.w3.org/1999/02/22-rdf-syntax-ns#"
   xmlns:svg="http://www.w3.org/2000/svg"
   xmlns="http://www.w3.org/2000/svg"
   xmlns:sodipodi="http://sodipodi.sourceforge.net/DTD/sodipodi-0.dtd"
   xmlns:inkscape="http://www.inkscape.org/namespaces/inkscape"
   version="1.1"
   x="6.543"
   y="6.02"
   viewBox="0 0 9.9491916 10.140508"
   enable-background="new 0 0 100 100"
   xml:space="preserve"
   id="svg2"
   inkscape:version="0.48.4 r9939"
   width="12.91"
   height="12.91"
   sodipodi:docname="Taxi.svg"><metadata
     id="metadata30"><rdf:RDF><cc:Work
         rdf:about=""><dc:format>image/svg+xml</dc:format><dc:type
           rdf:resource="http://purl.org/dc/dcmitype/StillImage" /><dc:title></dc:title></cc:Work></rdf:RDF></metadata><defs
     id="defs28" /><sodipodi:namedview
     pagecolor="#ffffff"
     bordercolor="#666666"
     borderopacity="1"
     objecttolerance="10"
     gridtolerance="10"
     guidetolerance="10"
     inkscape:pageopacity="0"
     inkscape:pageshadow="2"
     inkscape:window-width="1322"
     inkscape:window-height="812"
     id="namedview26"
     showgrid="false"
     fit-margin-top="0"
     fit-margin-left="0"
     fit-margin-right="0"
     fit-margin-bottom="0"
     inkscape:zoom="28.963094"
     inkscape:cx="2.6042427"
     inkscape:cy="5.7057583"
     inkscape:window-x="571"
     inkscape:window-y="110"
     inkscape:window-maximized="0"
     inkscape:current-layer="g9598" /><g
     id="g3217"
     transform="translate(-1263.2664,7560.3467)"><g
       id="g3355"
       transform="translate(0.52596752,-1.51338)"><g
         id="g3394"
         transform="translate(-1.304037,6.1068216)"><g
           id="g3432"
           transform="translate(1.3243604,-7.0685396)"><g
             id="g3490"
             transform="translate(14.50543,16.201175)"><g
               id="g3544"
               transform="translate(1.7832223,7.9070624)"><g
                 id="g3595"
                 transform="translate(9.5264836,-0.46901412)"><g
                   id="g3646"
                   transform="translate(-52.35165,-3.5880634)"><g
                     id="g3767"
                     transform="translate(6.0048559,8.7552768)"><g
                       id="g4075"
                       transform="translate(0.55239017,0.07303033)"><g
                         id="g4264"
                         transform="translate(3.0880737,-2.6377741)"><g
                           id="g4355"
                           transform="translate(8.4601992,5.328404)"><g
                             id="g4421"
                             transform="translate(-6.5255081,7.0858766)"><g
                               id="g4462"
                               transform="translate(25.518018,13.531166)"><g
                                 id="g4500"
                                 transform="translate(80.26127,-61.023322)"><g
                                   id="g5344"
                                   transform="translate(-17.614831,53.929153)"><g
                                   id="g5294"
                                   display="none"
                                   style="display:none"><rect
                                   id="rect5296"
                                   height="196"
                                   width="394.5"
                                   display="inline"
                                   y="-80.754997"
                                   x="-43.5"
                                   style="fill:#000000;display:inline" /></g><g
                                   id="g5316"
                                   display="none"
                                   style="display:none"><g
                                   id="g5318"
                                   display="inline"
                                   style="display:inline"><path
                                   id="path5320"
                                   d="M 1.581,10.718 H 30.418 L 16,1.051 1.581,10.718 z M 17.592,6.594 c 0,0.879 -0.713,1.592 -1.592,1.592 -0.879,0 -1.592,-0.713 -1.592,-1.592 0,-0.879 0.713,-1.592 1.592,-1.592 0.879,0 1.592,0.712 1.592,1.592 z"
                                   inkscape:connector-curvature="0" /><rect
                                   id="rect5322"
                                   height="3.0209999"
                                   width="31"
                                   y="28.030001"
                                   x="0.5" /><rect
                                   id="rect5324"
                                   height="11.875"
                                   width="3.0209999"
                                   y="13.363"
                                   x="3.6670001" /><rect
                                   id="rect5326"
                                   height="11.875"
                                   width="3.0209999"
                                   y="13.363"
                                   x="8.349" /><rect
                                   id="rect5328"
                                   height="11.875"
                                   width="3.0209999"
                                   y="13.363"
                                   x="20.629999" /><rect
                                   id="rect5330"
                                   height="11.875"
                                   width="3.0209999"
                                   y="13.363"
                                   x="25.312" /></g><path
                                   id="path5332"
                                   d="m 19.055,22.809 c -0.386,0.262 -1.035,0.524 -1.857,0.524 -1.01,0 -1.907,-0.386 -2.53,-1.11 -0.474,-0.524 -0.785,-1.246 -0.897,-2.144 h -0.773 v -0.611 h 0.711 c 0,-0.062 0,-0.125 0,-0.187 0,-0.2 0.012,-0.387 0.025,-0.561 h -0.735 v -0.624 h 0.823 c 0.15,-0.872 0.524,-1.595 1.022,-2.106 0.636,-0.66 1.446,-1.035 2.468,-1.035 0.735,0 1.309,0.212 1.658,0.399 l -0.249,0.822 c -0.312,-0.187 -0.835,-0.349 -1.396,-0.349 -0.673,0 -1.221,0.237 -1.645,0.685 -0.374,0.361 -0.623,0.922 -0.748,1.583 h 3.478 v 0.624 h -3.59 c -0.013,0.162 -0.025,0.349 -0.025,0.523 0,0.075 0,0.137 0,0.225 h 3.615 v 0.611 h -3.53 c 0.1,0.723 0.349,1.259 0.685,1.633 0.461,0.486 1.085,0.723 1.757,0.723 0.661,0 1.234,-0.249 1.521,-0.411 l 0.212,0.786 z"
                                   display="inline"
                                   inkscape:connector-curvature="0"
                                   style="display:inline" /></g><g
                                   id="g5453"
                                   transform="translate(-52.625356,-10.750909)"><g
                                   id="g5403"
                                   display="none"
                                   style="display:none"><rect
                                   id="rect5405"
                                   height="196"
                                   width="394.5"
                                   display="inline"
                                   y="-80.754997"
                                   x="-43.5"
                                   style="fill:#000000;display:inline" /></g><g
                                   id="g5425"
                                   display="none"
                                   style="display:none"><g
                                   id="g5427"
                                   display="inline"
                                   style="display:inline"><path
                                   id="path5429"
                                   d="M 1.581,10.718 H 30.418 L 16,1.051 1.581,10.718 z M 17.592,6.594 c 0,0.879 -0.713,1.592 -1.592,1.592 -0.879,0 -1.592,-0.713 -1.592,-1.592 0,-0.879 0.713,-1.592 1.592,-1.592 0.879,0 1.592,0.712 1.592,1.592 z"
                                   inkscape:connector-curvature="0" /><rect
                                   id="rect5431"
                                   height="3.0209999"
                                   width="31"
                                   y="28.030001"
                                   x="0.5" /><rect
                                   id="rect5433"
                                   height="11.875"
                                   width="3.0209999"
                                   y="13.363"
                                   x="3.6670001" /><rect
                                   id="rect5435"
                                   height="11.875"
                                   width="3.0209999"
                                   y="13.363"
                                   x="8.349" /><rect
                                   id="rect5437"
                                   height="11.875"
                                   width="3.0209999"
                                   y="13.363"
                                   x="20.629999" /><rect
                                   id="rect5439"
                                   height="11.875"
                                   width="3.0209999"
                                   y="13.363"
                                   x="25.312" /></g><path
                                   id="path5441"
                                   d="m 19.055,22.809 c -0.386,0.262 -1.035,0.524 -1.857,0.524 -1.01,0 -1.907,-0.386 -2.53,-1.11 -0.474,-0.524 -0.785,-1.246 -0.897,-2.144 h -0.773 v -0.611 h 0.711 c 0,-0.062 0,-0.125 0,-0.187 0,-0.2 0.012,-0.387 0.025,-0.561 h -0.735 v -0.624 h 0.823 c 0.15,-0.872 0.524,-1.595 1.022,-2.106 0.636,-0.66 1.446,-1.035 2.468,-1.035 0.735,0 1.309,0.212 1.658,0.399 l -0.249,0.822 c -0.312,-0.187 -0.835,-0.349 -1.396,-0.349 -0.673,0 -1.221,0.237 -1.645,0.685 -0.374,0.361 -0.623,0.922 -0.748,1.583 h 3.478 v 0.624 h -3.59 c -0.013,0.162 -0.025,0.349 -0.025,0.523 0,0.075 0,0.137 0,0.225 h 3.615 v 0.611 h -3.53 c 0.1,0.723 0.349,1.259 0.685,1.633 0.461,0.486 1.085,0.723 1.757,0.723 0.661,0 1.234,-0.249 1.521,-0.411 l 0.212,0.786 z"
                                   display="inline"
                                   inkscape:connector-curvature="0"
                                   style="display:inline" /></g><g
                                   id="g5911"
                                   transform="translate(34.803917,-34.731522)"><g
                                   id="g5969"
                                   transform="translate(-76.820846,20.463898)"><g
                                   id="g6024"
                                   transform="translate(-1.5269147,1.6004891)"><g
                                   id="g6071"
                                   transform="translate(7.3886843,1.0351706)"><g
                                   id="g6187"
                                   transform="translate(-0.71000052,-4.6322855)"><g
                                   id="g6263"
                                   transform="translate(-0.66737304,-5.3488176)"><g
                                   id="g6319"
                                   transform="translate(0.79720466,3.5647493)"><g
                                   id="g6384"
                                   transform="translate(-9.1472004,2.261335)"><g
                                   id="g6488"
                                   transform="translate(-2.0348122,-3.4042665)"><g
                                   id="g6516"
                                   transform="translate(-0.63832329,-2.3294036)"><g
                                   id="g6769"
                                   transform="translate(1565.7794,-3801.8487)"><g
                                   id="g6910"
                                   transform="translate(-308.09512,-3790.9493)"><g
                                   id="g6983"
                                   transform="translate(-14.231122,-15.611848)"><g
                                   id="g7151"
                                   transform="translate(33.267081,-22.491026)"><g
                                   id="g7382"
                                   transform="translate(-23.229266,23.886871)"><g
                                   id="g7549"
                                   transform="translate(14.444681,15.529545)"><g
                                   id="g7800"
                                   transform="translate(-10.517025,-15.548079)"><g
                                   id="g7999"
                                   transform="matrix(0.53445343,0,0,0.59502607,5.6563057,11.962949)"><g
                                   id="g8217"
                                   transform="matrix(0.65157633,0,0,0.66199506,14.891666,27.68312)"><g
                                   id="g8341"
                                   transform="matrix(0.81955739,0,0,0.8373697,16.904811,-6.2861215)"><g
                                   id="g8463"
                                   transform="matrix(1.0901467,0,0,0.7755316,14.691042,9.5565496)"><g
                                   id="g8628"
                                   transform="matrix(3.2141084,0,0,3.9092417,-42.983003,-211.13796)"><g
                                   id="g8709"
                                   transform="matrix(0.28046364,0,0,0.26137124,8.2602788,58.166419)"><line
                                   id="line8689"
                                   y2="46.813301"
                                   x2="90.136131"
                                   y1="46.813301"
                                   x1="85.334206"
                                   style="fill:none" /><g
                                   id="g8982"
                                   transform="matrix(0.85470616,0,0,0.82928987,-24.416347,-291.09779)"><g
                                   id="g9029"
                                   transform="matrix(0.56179905,0,0,0.59146659,71.827756,364.20217)"><g
                                   id="g9231"
                                   transform="matrix(1.6434845,0,0,1.6275903,-1.9010194,-26.060019)"><g
                                   id="g9437"
                                   transform="matrix(0.71903998,0,0,0.65801134,3.2171324,7.0571502)"><g
                                   id="g9598"
                                   transform="matrix(0.80108296,0,0,0.9233293,9.6403445,4.2821143)"><path
                                   id="path9586"
                                   d="m 96.333026,50.544698 c 0,-21.37 -17.38,-38.75 -38.75,-38.75 -21.37,0 -38.75,17.38 -38.75,38.75 0,9.68 3.53,18.82 9.97,25.95 l -10.51,10.51 2.83,2.83 12.76,-12.76 h 12.63 l -3.05,3.05 h -7.58 v 2 h 5.58 l -3.17,3.17 h -7.54 v 2 h 5.54 l -2.69,2.69 1.42,1.409 4.1,-4.1 h 35.71 l 4.31,4.49 1.44,-1.379 -2.98,-3.11 h 5.051 v -2 h -6.971 l -3.04,-3.17 h 5.78 v -2 h -7.7 l -2.93,-3.05 h 11.97 l 12.12,12.72 2.9,-2.75 -9.22,-9.69 c 6.96,-7.24 10.77,-16.69 10.77,-26.81 z m -23.42,34.75 h -31.79 l 3.17,-3.17 h 25.58 l 3.04,3.17 z m -4.96,-5.17 h -21.66 l 3.05,-3.05 h 15.68 l 2.93,3.05 z m -1.87,-32.5 -3.5,-3.03 v -11.67 h 9.12 l 1.76,2.17 1,12.53 h -8.38 z m 5.5,9.54 c 0,0.76 -1.26,1.38 -2.81,1.38 -1.561,0 -2.811,-0.62 -2.811,-1.38 0,-0.75 1.25,-1.37 2.811,-1.37 1.55,0 2.81,0.62 2.81,1.37 z m -8.75,-27.74 h -9.96 v -2.5 c 0,0 1.25,-1.63 4.98,-1.63 3.73,0 4.98,1.63 4.98,1.63 v 2.5 z m -1.42,4.12 v 10.5 h -7.25 v -10.5 h 7.25 z m 0.98,37.25 v 3.28 h -10.2 v -3.28 h 10.2 z m -9.52,-26.2 -3.5,3.03 h -8.37 l 1,-12.53 1.75,-2.17 h 9.12 v 11.67 z m -6.6,11.2 c 1.55,0 2.81,0.62 2.81,1.37 0,0.76 -1.26,1.38 -2.81,1.38 -1.56,0 -2.81,-0.62 -2.81,-1.38 0,-0.75 1.25,-1.37 2.81,-1.37 z m 34.08,18.28 h -14.5 v -3.28 h 3.851 v -4 h 3.11 v -2.08 h 4.439 v -12.92 l -1.34,-16.92 c 0,0 -4.771,-10.71 -18.06,-10.99 -0.09,-0.01 -0.18,-0.01 -0.27,0 -0.09,-0.01 -0.18,-0.01 -0.27,0 -13.29,0.28 -17.81,10.99 -17.81,10.99 l -1.59,16.92 v 12.92 h 4.44 v 2.08 h 3.11 v 4 h 3.27 v 3.28 h -13.95 l -0.36,-0.36 v -0.01 c -6.18,-6.19 -9.59,-14.41 -9.59,-23.16 0,-9.11 3.73,-17.35 9.75,-23.3 0.79,-0.77 1.61,-1.51 2.47,-2.2 5.62,-4.53 12.76,-7.25 20.53,-7.25 7.77,0 14.91,2.72 20.53,7.25 0.979,0.79 1.91,1.64 2.8,2.53 5.82,5.92 9.42,14.03 9.42,22.97 0,8.46 -3.15,16.36 -8.92,22.46 -0.34,0.37 -0.7,0.73 -1.06,1.07 z"
                                   inkscape:connector-curvature="0" /></g></g></g></g></g></g></g></g></g></g></g></g></g></g></g></g></g></g></g></g></g></g></g></g></g></g></g></g></g></g></g></g></g></g></g></g></g></g></g></g></g></g></g></g></g></svg></svg>
