<?xml version="1.0" encoding="UTF-8"?>
<svg xmlns="http://www.w3.org/2000/svg" xmlns:xlink="http://www.w3.org/1999/xlink" width="30px" height="46px" viewBox="0 0 30 46" version="1.1">
<defs>
<clipPath id="clip1">
  <path d="M 7.550781 8 L 22.445312 8 L 22.445312 18 L 7.550781 18 Z M 7.550781 8 "/>
</clipPath>
</defs>
<g id="surface1">
<path style="fill-rule:nonzero;fill:rgb(100%,40.000001%,0%);fill-opacity:1;stroke-width:1;stroke-linecap:round;stroke-linejoin:miter;stroke:rgb(83.137256%,33.333334%,0%);stroke-opacity:1;stroke-miterlimit:4;" d="M 13.040625 0.638587 C 6.25625 0.638587 0.609375 6.287364 0.609375 12.418478 C 0.609375 15.17663 2.224219 18.678668 3.388802 21.097147 L 13 38.828125 L 22.560417 21.097147 C 23.725 18.678668 25.383854 15.353261 25.383854 12.418478 C 25.383854 6.290761 19.828385 0.638587 13.04401 0.638587 Z M 13.040625 2.099185 C 18.934635 2.136549 23.721615 6.756114 23.721615 12.428668 C 23.721615 18.108016 18.938021 22.659647 13.040625 22.700408 C 7.146615 22.663043 2.369792 18.11481 2.369792 12.428668 C 2.369792 6.752717 7.15 2.129755 13.040625 2.099185 Z M 13.040625 2.099185 " transform="matrix(1.153846,0,0,1.15,0,0)"/>
<path style="fill-rule:nonzero;fill:rgb(100%,100%,100%);fill-opacity:1;stroke-width:1.00275;stroke-linecap:butt;stroke-linejoin:miter;stroke:rgb(100%,100%,100%);stroke-opacity:1;stroke-miterlimit:4;" d="M 23.010677 12.374321 C 23.010677 17.703804 18.528385 22.02106 13.003385 22.02106 C 7.478385 22.02106 2.996094 17.703804 2.996094 12.374321 C 2.996094 7.048234 7.478385 2.727582 13.003385 2.727582 C 18.528385 2.727582 23.010677 7.048234 23.010677 12.374321 Z M 23.010677 12.374321 " transform="matrix(1.153846,0,0,1.15,0,0)"/>
<g clip-path="url(#clip1)" clip-rule="nonzero">
<path style=" stroke:none;fill-rule:evenodd;fill:rgb(0%,0%,0%);fill-opacity:1;" d="M 20.199219 15.566406 C 20.375 15.566406 20.53125 15.457031 20.585938 15.292969 L 22.421875 10.003906 C 22.464844 9.878906 22.445312 9.742188 22.371094 9.636719 C 22.292969 9.527344 22.167969 9.464844 22.039062 9.464844 L 9.679688 9.464844 L 9.363281 8.523438 C 9.308594 8.355469 9.152344 8.246094 8.976562 8.246094 L 7.957031 8.246094 C 7.730469 8.246094 7.550781 8.425781 7.550781 8.652344 C 7.550781 8.875 7.730469 9.058594 7.957031 9.058594 L 8.683594 9.058594 L 8.996094 9.992188 C 9 10 9 10.007812 9.003906 10.015625 L 10.796875 15.179688 L 10.417969 16.6875 C 10.386719 16.808594 10.414062 16.9375 10.492188 17.035156 C 10.570312 17.136719 10.6875 17.195312 10.816406 17.195312 L 20.609375 17.195312 C 20.835938 17.195312 21.015625 17.011719 21.015625 16.785156 C 21.015625 16.5625 20.835938 16.378906 20.609375 16.378906 L 11.335938 16.378906 L 11.542969 15.566406 Z M 16.800781 14.753906 L 16.886719 13.53125 L 18.414062 13.53125 L 18.160156 14.753906 Z M 13.265625 14.753906 L 13.011719 13.53125 L 14.539062 13.53125 L 14.621094 14.753906 Z M 11.511719 14.753906 L 11.089844 13.53125 L 12.59375 13.53125 L 12.847656 14.753906 Z M 14.945312 13.53125 L 16.476562 13.53125 L 16.394531 14.753906 L 15.03125 14.753906 Z M 14.917969 13.125 L 14.832031 11.90625 L 16.589844 11.90625 L 16.503906 13.125 Z M 18.832031 13.53125 L 20.335938 13.53125 L 19.910156 14.753906 L 18.578125 14.753906 Z M 20.476562 13.125 L 18.914062 13.125 L 19.167969 11.90625 L 20.898438 11.90625 Z M 18.5 13.125 L 16.914062 13.125 L 17 11.90625 L 18.753906 11.90625 Z M 17.027344 11.5 L 17.113281 10.277344 L 19.089844 10.277344 L 18.835938 11.5 Z M 16.617188 11.5 L 14.804688 11.5 L 14.71875 10.277344 L 16.703125 10.277344 Z M 14.394531 11.5 L 12.585938 11.5 L 12.332031 10.277344 L 14.3125 10.277344 Z M 14.425781 11.90625 L 14.507812 13.125 L 12.925781 13.125 L 12.671875 11.90625 Z M 12.507812 13.125 L 10.949219 13.125 L 10.523438 11.90625 L 12.253906 11.90625 Z M 21.039062 11.5 L 19.253906 11.5 L 19.507812 10.277344 L 21.464844 10.277344 Z M 11.914062 10.277344 L 12.167969 11.5 L 10.382812 11.5 L 9.960938 10.277344 Z M 11.914062 10.277344 "/>
</g>
<path style=" stroke:none;fill-rule:evenodd;fill:rgb(0%,0%,0%);fill-opacity:1;" d="M 11.628906 18.007812 C 10.957031 18.007812 10.40625 18.554688 10.40625 19.226562 C 10.40625 19.898438 10.957031 20.449219 11.628906 20.449219 C 12.304688 20.449219 12.855469 19.898438 12.855469 19.226562 C 12.855469 18.554688 12.304688 18.007812 11.628906 18.007812 Z M 11.628906 19.632812 C 11.40625 19.632812 11.222656 19.453125 11.222656 19.226562 C 11.222656 19.003906 11.40625 18.820312 11.628906 18.820312 C 11.855469 18.820312 12.039062 19.003906 12.039062 19.226562 C 12.039062 19.453125 11.855469 19.632812 11.628906 19.632812 Z M 11.628906 19.632812 "/>
<path style=" stroke:none;fill-rule:evenodd;fill:rgb(0%,0%,0%);fill-opacity:1;" d="M 19.792969 18.007812 C 19.117188 18.007812 18.570312 18.554688 18.570312 19.226562 C 18.570312 19.898438 19.117188 20.449219 19.792969 20.449219 C 20.46875 20.449219 21.015625 19.898438 21.015625 19.226562 C 21.015625 18.554688 20.46875 18.007812 19.792969 18.007812 Z M 19.792969 19.632812 C 19.566406 19.632812 19.386719 19.453125 19.386719 19.226562 C 19.386719 19.003906 19.566406 18.820312 19.792969 18.820312 C 20.019531 18.820312 20.199219 19.003906 20.199219 19.226562 C 20.199219 19.453125 20.019531 19.632812 19.792969 19.632812 Z M 19.792969 19.632812 "/>
</g>
</svg>
