<?xml version="1.0" encoding="UTF-8"?>
<svg xmlns="http://www.w3.org/2000/svg" xmlns:xlink="http://www.w3.org/1999/xlink" width="30px" height="46px" viewBox="0 0 30 46" version="1.1">
<defs>
<clipPath id="clip1">
  <path d="M 7.550781 7 L 22.445312 7 L 22.445312 21 L 7.550781 21 Z M 7.550781 7 "/>
</clipPath>
</defs>
<g id="surface1">
<path style="fill-rule:nonzero;fill:rgb(100%,40.000001%,0%);fill-opacity:1;stroke-width:1;stroke-linecap:round;stroke-linejoin:miter;stroke:rgb(83.137256%,33.333334%,0%);stroke-opacity:1;stroke-miterlimit:4;" d="M 13.040625 0.638587 C 6.25625 0.638587 0.609375 6.287364 0.609375 12.418478 C 0.609375 15.17663 2.224219 18.678668 3.388802 21.097147 L 13 38.828125 L 22.560417 21.097147 C 23.725 18.678668 25.383854 15.353261 25.383854 12.418478 C 25.383854 6.290761 19.828385 0.638587 13.04401 0.638587 Z M 13.040625 2.099185 C 18.934635 2.136549 23.721615 6.756114 23.721615 12.428668 C 23.721615 18.108016 18.938021 22.659647 13.040625 22.700408 C 7.146615 22.663043 2.369792 18.11481 2.369792 12.428668 C 2.369792 6.752717 7.15 2.129755 13.040625 2.099185 Z M 13.040625 2.099185 " transform="matrix(1.153846,0,0,1.15,0,0)"/>
<path style="fill-rule:nonzero;fill:rgb(100%,100%,100%);fill-opacity:1;stroke-width:1.00275;stroke-linecap:butt;stroke-linejoin:miter;stroke:rgb(100%,100%,100%);stroke-opacity:1;stroke-miterlimit:4;" d="M 23.010677 12.374321 C 23.010677 17.703804 18.528385 22.02106 13.003385 22.02106 C 7.478385 22.02106 2.996094 17.703804 2.996094 12.374321 C 2.996094 7.048234 7.478385 2.727582 13.003385 2.727582 C 18.528385 2.727582 23.010677 7.048234 23.010677 12.374321 Z M 23.010677 12.374321 " transform="matrix(1.153846,0,0,1.15,0,0)"/>
<path style=" stroke:none;fill-rule:nonzero;fill:rgb(0%,0%,0%);fill-opacity:1;" d="M 9.996094 15.796875 C 10.570312 15.796875 11.0625 15.453125 11.25 14.976562 C 11.273438 14.96875 11.300781 14.96875 11.328125 14.96875 C 11.574219 14.96875 11.894531 15.382812 11.894531 15.382812 C 12.136719 15.636719 12.492188 15.796875 12.886719 15.796875 C 13.15625 15.796875 13.410156 15.722656 13.621094 15.589844 C 13.621094 15.589844 13.785156 15.5 13.800781 15.457031 C 13.878906 15.390625 13.945312 15.3125 14.003906 15.230469 C 14.066406 15.195312 14.140625 15.175781 14.21875 15.175781 C 14.296875 15.175781 14.371094 15.195312 14.433594 15.230469 C 14.492188 15.3125 14.5625 15.390625 14.636719 15.457031 C 14.652344 15.5 14.816406 15.589844 14.816406 15.589844 C 15.027344 15.722656 15.28125 15.796875 15.554688 15.796875 C 15.824219 15.796875 16.078125 15.722656 16.289062 15.589844 C 16.289062 15.589844 16.453125 15.5 16.46875 15.457031 C 16.546875 15.390625 16.613281 15.3125 16.671875 15.230469 C 16.734375 15.195312 16.808594 15.175781 16.886719 15.175781 C 16.964844 15.175781 17.039062 15.195312 17.101562 15.230469 C 17.160156 15.3125 17.230469 15.390625 17.304688 15.457031 C 17.320312 15.5 17.484375 15.589844 17.484375 15.589844 C 17.695312 15.722656 17.949219 15.796875 18.222656 15.796875 C 18.492188 15.796875 18.746094 15.722656 18.957031 15.589844 C 18.957031 15.589844 19.121094 15.5 19.136719 15.457031 C 19.214844 15.390625 19.28125 15.3125 19.339844 15.230469 C 19.402344 15.195312 19.476562 15.175781 19.554688 15.175781 C 19.800781 15.175781 20 15.363281 20 15.589844 L 20.890625 15.589844 C 20.890625 14.902344 20.292969 14.34375 19.554688 14.34375 C 19.285156 14.34375 19.03125 14.421875 18.820312 14.550781 C 18.820312 14.550781 18.65625 14.644531 18.640625 14.6875 C 18.5625 14.753906 18.496094 14.828125 18.4375 14.914062 C 18.375 14.945312 18.300781 14.96875 18.222656 14.96875 C 18.144531 14.96875 18.070312 14.945312 18.003906 14.914062 C 17.949219 14.828125 17.878906 14.753906 17.804688 14.6875 C 17.789062 14.644531 17.625 14.550781 17.625 14.550781 C 17.414062 14.421875 17.160156 14.34375 16.886719 14.34375 C 16.617188 14.34375 16.363281 14.421875 16.152344 14.550781 C 16.152344 14.550781 15.988281 14.644531 15.972656 14.6875 C 15.894531 14.753906 15.828125 14.828125 15.769531 14.914062 C 15.707031 14.945312 15.632812 14.96875 15.554688 14.96875 C 15.476562 14.96875 15.402344 14.945312 15.335938 14.914062 C 15.28125 14.828125 15.210938 14.753906 15.132812 14.6875 C 15.121094 14.644531 14.957031 14.550781 14.957031 14.550781 C 14.746094 14.421875 14.492188 14.34375 14.21875 14.34375 C 13.949219 14.34375 13.695312 14.421875 13.484375 14.550781 C 13.484375 14.550781 13.320312 14.644531 13.304688 14.6875 C 13.226562 14.753906 13.160156 14.828125 13.101562 14.914062 C 13.039062 14.945312 12.964844 14.96875 12.886719 14.96875 C 12.640625 14.96875 12.320312 14.550781 12.320312 14.550781 C 12.078125 14.296875 11.722656 14.136719 11.328125 14.136719 C 10.753906 14.136719 10.261719 14.480469 10.074219 14.960938 C 10.050781 14.964844 10.023438 14.96875 9.996094 14.96875 C 9.75 14.96875 9.550781 14.78125 9.550781 14.550781 L 8.660156 14.550781 C 8.660156 15.238281 9.257812 15.796875 9.996094 15.796875 Z M 9.996094 15.796875 "/>
<g clip-path="url(#clip1)" clip-rule="nonzero">
<path style=" stroke:none;fill-rule:nonzero;fill:rgb(0%,0%,0%);fill-opacity:1;" d="M 19.222656 7.800781 C 17.558594 7.800781 16.183594 8.988281 16.015625 10.503906 L 12.914062 10.503906 C 13.074219 9.445312 14.046875 8.632812 15.21875 8.632812 C 15.578125 8.632812 15.917969 8.710938 16.222656 8.847656 C 16.398438 8.613281 16.605469 8.398438 16.839844 8.210938 C 16.363281 7.953125 15.808594 7.800781 15.21875 7.800781 C 13.441406 7.800781 11.996094 9.152344 11.996094 10.8125 L 11.996094 13.410156 C 11.996094 13.640625 12.195312 13.828125 12.441406 13.828125 C 12.6875 13.828125 12.886719 13.640625 12.886719 13.410156 L 12.886719 13.203125 L 16 13.203125 L 16 13.410156 C 16 13.640625 16.199219 13.828125 16.441406 13.828125 C 16.6875 13.828125 16.886719 13.640625 16.886719 13.410156 L 16.886719 10.8125 C 16.886719 9.609375 17.933594 8.632812 19.222656 8.632812 C 20.507812 8.632812 21.554688 9.609375 21.554688 10.8125 L 21.554688 20.0625 L 8.4375 20.0625 L 8.4375 12.996094 C 8.4375 12.765625 8.238281 12.578125 7.996094 12.578125 C 7.75 12.578125 7.550781 12.765625 7.550781 12.996094 L 7.550781 20.890625 L 22.445312 20.890625 L 22.445312 10.8125 C 22.445312 9.152344 21 7.800781 19.222656 7.800781 Z M 16 11.957031 L 16 12.371094 L 12.886719 12.371094 L 12.886719 11.539062 L 16 11.539062 Z M 16 11.957031 "/>
</g>
<path style=" stroke:none;fill-rule:nonzero;fill:rgb(0%,0%,0%);fill-opacity:1;" d="M 9.996094 17.667969 C 10.570312 17.667969 11.0625 17.324219 11.25 16.84375 C 11.273438 16.839844 11.300781 16.835938 11.328125 16.835938 C 11.574219 16.835938 11.894531 17.253906 11.894531 17.253906 C 12.136719 17.507812 12.492188 17.667969 12.886719 17.667969 C 13.15625 17.667969 13.410156 17.59375 13.621094 17.460938 C 13.621094 17.460938 13.785156 17.371094 13.800781 17.328125 C 13.878906 17.257812 13.945312 17.183594 14.003906 17.101562 C 14.066406 17.066406 14.140625 17.046875 14.21875 17.046875 C 14.296875 17.046875 14.371094 17.066406 14.433594 17.101562 C 14.492188 17.183594 14.5625 17.257812 14.636719 17.328125 C 14.652344 17.371094 14.816406 17.460938 14.816406 17.460938 C 15.027344 17.59375 15.28125 17.667969 15.554688 17.667969 C 15.824219 17.667969 16.078125 17.59375 16.289062 17.460938 C 16.289062 17.460938 16.453125 17.371094 16.46875 17.328125 C 16.546875 17.257812 16.613281 17.183594 16.671875 17.101562 C 16.734375 17.066406 16.808594 17.046875 16.886719 17.046875 C 16.964844 17.046875 17.039062 17.066406 17.101562 17.101562 C 17.160156 17.183594 17.230469 17.257812 17.304688 17.328125 C 17.320312 17.371094 17.484375 17.460938 17.484375 17.460938 C 17.695312 17.59375 17.949219 17.667969 18.222656 17.667969 C 18.492188 17.667969 18.746094 17.59375 18.957031 17.460938 C 18.957031 17.460938 19.121094 17.371094 19.136719 17.328125 C 19.214844 17.257812 19.28125 17.183594 19.339844 17.101562 C 19.402344 17.066406 19.476562 17.046875 19.554688 17.046875 C 19.800781 17.046875 20 17.230469 20 17.460938 L 20.890625 17.460938 C 20.890625 16.773438 20.292969 16.214844 19.554688 16.214844 C 19.285156 16.214844 19.03125 16.292969 18.820312 16.421875 C 18.820312 16.421875 18.65625 16.515625 18.640625 16.554688 C 18.5625 16.625 18.496094 16.699219 18.4375 16.78125 C 18.375 16.816406 18.300781 16.835938 18.222656 16.835938 C 18.144531 16.835938 18.070312 16.816406 18.003906 16.78125 C 17.949219 16.699219 17.878906 16.625 17.804688 16.554688 C 17.789062 16.515625 17.625 16.421875 17.625 16.421875 C 17.414062 16.292969 17.160156 16.214844 16.886719 16.214844 C 16.617188 16.214844 16.363281 16.292969 16.152344 16.421875 C 16.152344 16.421875 15.988281 16.515625 15.972656 16.554688 C 15.894531 16.625 15.828125 16.699219 15.769531 16.78125 C 15.707031 16.816406 15.632812 16.835938 15.554688 16.835938 C 15.476562 16.835938 15.402344 16.816406 15.335938 16.78125 C 15.28125 16.699219 15.210938 16.625 15.132812 16.554688 C 15.121094 16.515625 14.957031 16.421875 14.957031 16.421875 C 14.746094 16.292969 14.492188 16.214844 14.21875 16.214844 C 13.949219 16.214844 13.695312 16.292969 13.484375 16.421875 C 13.484375 16.421875 13.320312 16.515625 13.304688 16.554688 C 13.226562 16.625 13.160156 16.699219 13.101562 16.78125 C 13.039062 16.816406 12.964844 16.835938 12.886719 16.835938 C 12.640625 16.835938 12.320312 16.421875 12.320312 16.421875 C 12.078125 16.167969 11.722656 16.007812 11.328125 16.007812 C 10.753906 16.007812 10.261719 16.351562 10.074219 16.828125 C 10.050781 16.835938 10.023438 16.835938 9.996094 16.835938 C 9.75 16.835938 9.550781 16.652344 9.550781 16.421875 L 8.660156 16.421875 C 8.660156 17.109375 9.257812 17.667969 9.996094 17.667969 Z M 9.996094 17.667969 "/>
<path style=" stroke:none;fill-rule:nonzero;fill:rgb(0%,0%,0%);fill-opacity:1;" d="M 19.777344 18.085938 C 19.507812 18.085938 19.253906 18.160156 19.042969 18.292969 C 19.042969 18.292969 18.878906 18.382812 18.863281 18.425781 C 18.785156 18.496094 18.71875 18.570312 18.660156 18.652344 C 18.59375 18.6875 18.523438 18.707031 18.445312 18.707031 C 18.363281 18.707031 18.292969 18.6875 18.226562 18.652344 C 18.171875 18.570312 18.101562 18.496094 18.023438 18.425781 C 18.007812 18.382812 17.84375 18.292969 17.84375 18.292969 C 17.632812 18.160156 17.382812 18.085938 17.109375 18.085938 C 16.835938 18.085938 16.585938 18.160156 16.375 18.292969 C 16.375 18.292969 16.210938 18.382812 16.195312 18.425781 C 16.117188 18.496094 16.050781 18.570312 15.992188 18.652344 C 15.925781 18.6875 15.855469 18.707031 15.777344 18.707031 C 15.695312 18.707031 15.625 18.6875 15.558594 18.652344 C 15.503906 18.570312 15.433594 18.496094 15.355469 18.425781 C 15.339844 18.382812 15.175781 18.292969 15.175781 18.292969 C 14.964844 18.160156 14.714844 18.085938 14.441406 18.085938 C 14.167969 18.085938 13.917969 18.160156 13.707031 18.292969 C 13.707031 18.292969 13.542969 18.382812 13.527344 18.425781 C 13.449219 18.496094 13.382812 18.570312 13.324219 18.652344 C 13.257812 18.6875 13.1875 18.707031 13.109375 18.707031 C 12.863281 18.707031 12.542969 18.292969 12.542969 18.292969 C 12.296875 18.039062 11.945312 17.875 11.550781 17.875 C 10.976562 17.875 10.484375 18.21875 10.296875 18.699219 C 10.273438 18.703125 10.246094 18.707031 10.21875 18.707031 C 9.972656 18.707031 9.773438 18.519531 9.773438 18.292969 L 8.882812 18.292969 C 8.882812 18.980469 9.480469 19.539062 10.21875 19.539062 C 10.792969 19.539062 11.285156 19.195312 11.46875 18.714844 C 11.496094 18.710938 11.523438 18.707031 11.550781 18.707031 C 11.796875 18.707031 12.117188 19.125 12.117188 19.125 C 12.359375 19.378906 12.714844 19.539062 13.109375 19.539062 C 13.378906 19.539062 13.632812 19.460938 13.84375 19.332031 C 13.84375 19.332031 14.007812 19.238281 14.023438 19.195312 C 14.101562 19.128906 14.167969 19.054688 14.226562 18.96875 C 14.289062 18.9375 14.363281 18.914062 14.441406 18.914062 C 14.519531 18.914062 14.59375 18.9375 14.65625 18.96875 C 14.714844 19.054688 14.785156 19.128906 14.859375 19.195312 C 14.875 19.238281 15.039062 19.332031 15.039062 19.332031 C 15.25 19.460938 15.503906 19.539062 15.777344 19.539062 C 16.046875 19.539062 16.300781 19.460938 16.511719 19.332031 C 16.511719 19.332031 16.675781 19.238281 16.691406 19.195312 C 16.769531 19.128906 16.835938 19.054688 16.894531 18.96875 C 16.957031 18.9375 17.03125 18.914062 17.109375 18.914062 C 17.1875 18.914062 17.261719 18.9375 17.324219 18.96875 C 17.382812 19.054688 17.453125 19.128906 17.527344 19.195312 C 17.542969 19.238281 17.707031 19.332031 17.707031 19.332031 C 17.917969 19.460938 18.171875 19.539062 18.445312 19.539062 C 18.714844 19.539062 18.96875 19.460938 19.179688 19.332031 C 19.179688 19.332031 19.34375 19.238281 19.359375 19.195312 C 19.4375 19.128906 19.503906 19.054688 19.5625 18.96875 C 19.625 18.9375 19.699219 18.914062 19.777344 18.914062 C 20.023438 18.914062 20.222656 19.101562 20.222656 19.332031 L 21.113281 19.332031 C 21.113281 18.644531 20.511719 18.085938 19.777344 18.085938 Z M 19.777344 18.085938 "/>
</g>
</svg>
