<?xml version="1.0" encoding="UTF-8"?>
<svg xmlns="http://www.w3.org/2000/svg" xmlns:xlink="http://www.w3.org/1999/xlink" width="30px" height="46px" viewBox="0 0 30 46" version="1.1">
<defs>
<clipPath id="clip1">
  <path d="M 8 8 L 22.445312 8 L 22.445312 21 L 8 21 Z M 8 8 "/>
</clipPath>
</defs>
<g id="surface1">
<path style="fill-rule:nonzero;fill:rgb(100%,40.000001%,0%);fill-opacity:1;stroke-width:1;stroke-linecap:round;stroke-linejoin:miter;stroke:rgb(83.137256%,33.333334%,0%);stroke-opacity:1;stroke-miterlimit:4;" d="M 13.040625 0.638587 C 6.25625 0.638587 0.609375 6.287364 0.609375 12.418478 C 0.609375 15.17663 2.224219 18.678668 3.388802 21.097147 L 13 38.828125 L 22.560417 21.097147 C 23.725 18.678668 25.383854 15.353261 25.383854 12.418478 C 25.383854 6.290761 19.828385 0.638587 13.04401 0.638587 Z M 13.040625 2.099185 C 18.934635 2.136549 23.721615 6.756114 23.721615 12.428668 C 23.721615 18.108016 18.938021 22.659647 13.040625 22.700408 C 7.146615 22.663043 2.369792 18.11481 2.369792 12.428668 C 2.369792 6.752717 7.15 2.129755 13.040625 2.099185 Z M 13.040625 2.099185 " transform="matrix(1.153846,0,0,1.15,0,0)"/>
<path style="fill-rule:nonzero;fill:rgb(100%,100%,100%);fill-opacity:1;stroke-width:1.00275;stroke-linecap:butt;stroke-linejoin:miter;stroke:rgb(100%,100%,100%);stroke-opacity:1;stroke-miterlimit:4;" d="M 23.010677 12.374321 C 23.010677 17.703804 18.528385 22.02106 13.003385 22.02106 C 7.478385 22.02106 2.996094 17.703804 2.996094 12.374321 C 2.996094 7.048234 7.478385 2.727582 13.003385 2.727582 C 18.528385 2.727582 23.010677 7.048234 23.010677 12.374321 Z M 23.010677 12.374321 " transform="matrix(1.153846,0,0,1.15,0,0)"/>
<g clip-path="url(#clip1)" clip-rule="nonzero">
<path style=" stroke:none;fill-rule:evenodd;fill:rgb(0%,0%,0%);fill-opacity:1;" d="M 22.097656 13.421875 L 22.097656 12.851562 C 22.097656 12.804688 22.050781 12.765625 21.996094 12.765625 L 20.742188 12.765625 C 20.734375 12.765625 20.726562 12.765625 20.71875 12.765625 L 20.335938 11.175781 C 20.1875 10.542969 19.554688 10.097656 18.800781 10.097656 L 17.28125 10.097656 L 17.28125 9.570312 C 17.28125 9.109375 16.84375 8.734375 16.3125 8.734375 L 13.832031 8.734375 C 13.300781 8.734375 12.863281 9.109375 12.863281 9.570312 L 12.863281 10.097656 L 11.347656 10.097656 C 10.597656 10.097656 9.964844 10.542969 9.8125 11.175781 L 9.433594 12.769531 C 9.425781 12.765625 9.414062 12.765625 9.40625 12.765625 L 8.148438 12.765625 C 8.09375 12.765625 8.046875 12.804688 8.046875 12.851562 L 8.046875 13.421875 C 8.046875 13.472656 8.09375 13.511719 8.148438 13.511719 L 9.257812 13.511719 L 9.253906 13.523438 C 8.578125 13.773438 8.105469 14.351562 8.105469 15.023438 L 8.105469 18.46875 L 9.007812 18.46875 L 9.007812 19.894531 C 9.007812 20.136719 9.324219 20.335938 9.714844 20.335938 L 10.707031 20.335938 C 11.09375 20.335938 11.414062 20.136719 11.414062 19.894531 L 11.414062 18.46875 L 18.535156 18.46875 L 18.535156 19.894531 C 18.535156 20.136719 18.855469 20.335938 19.242188 20.335938 L 20.234375 20.335938 C 20.625 20.335938 20.941406 20.136719 20.941406 19.894531 L 20.941406 18.46875 L 22.082031 18.46875 L 22.082031 15.023438 C 22.082031 14.339844 21.589844 13.753906 20.894531 13.511719 L 21.996094 13.511719 C 22.050781 13.511719 22.097656 13.472656 22.097656 13.421875 Z M 13.65625 9.074219 L 14.222656 9.074219 L 14.222656 9.558594 L 14.789062 9.558594 L 14.789062 9.074219 L 15.355469 9.074219 L 15.355469 9.558594 L 15.921875 9.558594 L 15.921875 9.074219 L 16.488281 9.074219 L 16.488281 9.558594 L 15.921875 9.558594 L 15.921875 10.046875 L 15.355469 10.046875 L 15.355469 9.558594 L 14.789062 9.558594 L 14.789062 10.046875 L 14.222656 10.046875 L 14.222656 9.558594 L 13.65625 9.558594 Z M 10.640625 11.546875 C 10.765625 11.042969 11.300781 10.691406 11.933594 10.691406 L 18.21875 10.691406 C 18.851562 10.691406 19.382812 11.042969 19.511719 11.546875 L 19.976562 13.390625 L 10.175781 13.390625 Z M 11.839844 16.53125 C 11.839844 16.609375 11.765625 16.671875 11.679688 16.671875 L 8.882812 16.671875 C 8.796875 16.671875 8.722656 16.609375 8.722656 16.53125 L 8.722656 15.523438 C 8.722656 15.449219 8.796875 15.386719 8.882812 15.386719 L 11.679688 15.386719 C 11.765625 15.386719 11.839844 15.449219 11.839844 15.523438 Z M 17.796875 16.710938 L 12.578125 16.710938 L 12.578125 16.464844 L 17.796875 16.464844 Z M 17.796875 16.152344 L 12.578125 16.152344 L 12.578125 15.902344 L 17.796875 15.902344 Z M 17.796875 15.605469 L 12.578125 15.605469 L 12.578125 15.355469 L 17.796875 15.355469 Z M 21.300781 15.386719 C 21.390625 15.386719 21.460938 15.449219 21.460938 15.523438 L 21.460938 16.53125 C 21.460938 16.609375 21.390625 16.671875 21.300781 16.671875 L 18.507812 16.671875 C 18.417969 16.671875 18.347656 16.609375 18.347656 16.53125 L 18.347656 15.523438 C 18.347656 15.449219 18.417969 15.386719 18.507812 15.386719 Z M 21.300781 15.386719 "/>
</g>
</g>
</svg>
