<?xml version="1.0" encoding="UTF-8" standalone="no"?>
<svg
   xmlns:dc="http://purl.org/dc/elements/1.1/"
   xmlns:cc="http://creativecommons.org/ns#"
   xmlns:rdf="http://www.w3.org/1999/02/22-rdf-syntax-ns#"
   xmlns:svg="http://www.w3.org/2000/svg"
   xmlns="http://www.w3.org/2000/svg"
   xmlns:sodipodi="http://sodipodi.sourceforge.net/DTD/sodipodi-0.dtd"
   xmlns:inkscape="http://www.inkscape.org/namespaces/inkscape"
   height="44px"
   width="30px"
   version="1.1"
   viewBox="0 0 29.988946 43.988056"
   id="svg16"
   sodipodi:docname="Theatre.svg"
   inkscape:version="0.92.5 (2060ec1f9f, 2020-04-08)">
  <metadata
     id="metadata20">
    <rdf:RDF>
      <cc:Work
         rdf:about="">
        <dc:format>image/svg+xml</dc:format>
        <dc:type
           rdf:resource="http://purl.org/dc/dcmitype/StillImage" />
        <dc:title />
      </cc:Work>
    </rdf:RDF>
  </metadata>
  <sodipodi:namedview
     pagecolor="#ffffff"
     bordercolor="#666666"
     borderopacity="1"
     objecttolerance="10"
     gridtolerance="10"
     guidetolerance="10"
     inkscape:pageopacity="0"
     inkscape:pageshadow="2"
     inkscape:window-width="1680"
     inkscape:window-height="974"
     id="namedview18"
     showgrid="false"
     inkscape:zoom="16.271444"
     inkscape:cx="10.162193"
     inkscape:cy="41.998402"
     inkscape:window-x="0"
     inkscape:window-y="0"
     inkscape:window-maximized="1"
     inkscape:current-layer="svg2" />
  <defs
     id="defs7">
    <radialGradient
       id="a"
       gradientUnits="userSpaceOnUse"
       cy="127.6"
       cx="-42.75"
       gradientTransform="matrix(4.2749643,0,0,0.98162997,197.99835,-82.088795)"
       r="2.3840001">
      <stop
         stop-color="#010101"
         offset="0"
         id="stop2" />
      <stop
         stop-opacity="0"
         stop-color="#090909"
         offset="1"
         id="stop4" />
    </radialGradient>
  </defs>
  <g
     id="g26"
     transform="translate(-2.0760358e-7,-1.6181156)">
    <path
       style="fill:#db4e35;stroke-width:4.27539158"
       inkscape:connector-curvature="0"
       id="path9"
       d="m 14.994475,1.7046139 c -8.2386814,0 -14.91684341,6.6781619 -14.91684341,14.9168421 0.008545,2.561815 0.67294669,5.079165 1.93504231,7.306643 L 15.595595,42.53888 27.955752,23.983679 c 1.277915,-2.243725 1.951716,-4.779887 1.955563,-7.362223 C 29.911273,8.3827758 23.233154,1.7046139 14.994475,1.7046139 Z" />
    <circle
       style="fill:#f9f3f3;stroke-width:4.27539158"
       id="circle11"
       r="9.4272394"
       cx="14.994473"
       cy="16.668474" />
    <ellipse
       style="opacity:0.4;fill:url(#a);stroke-width:4.27496433"
       id="ellipse13"
       cx="14.994473"
       cy="43.18018"
       ry="2.3394945"
       rx="10.192533" />
    <rect
       style="fill:none;stroke-width:4.27539158"
       x="8.2585926"
       y="9.8278542"
       width="13.471761"
       height="13.36915"
       ry="0"
       rx="0"
       id="replace" />
    <svg
       version="1.1"
       x="8.5"
       y="10"
       viewBox="-120 78.1 90.6 74.71315"
       xml:space="preserve"
       id="svg2"
       inkscape:version="0.48.4 r9939"
       width="13"
       height="13"
       sodipodi:docname="noun_415118_cc.svg"><metadata
         id="metadata18"><rdf:RDF><cc:Work
             rdf:about=""><dc:format>image/svg+xml</dc:format><dc:type
               rdf:resource="http://purl.org/dc/dcmitype/StillImage" /><dc:title /></cc:Work></rdf:RDF></metadata><defs
         id="defs16" /><sodipodi:namedview
         pagecolor="#ffffff"
         bordercolor="#666666"
         borderopacity="1"
         objecttolerance="10"
         gridtolerance="10"
         guidetolerance="10"
         inkscape:pageopacity="0"
         inkscape:pageshadow="2"
         inkscape:window-width="725"
         inkscape:window-height="735"
         id="namedview14"
         showgrid="false"
         fit-margin-top="0"
         fit-margin-left="0"
         fit-margin-right="0"
         fit-margin-bottom="0"
         inkscape:zoom="2.6700352"
         inkscape:cx="52.244499"
         inkscape:cy="35.360374"
         inkscape:window-x="137"
         inkscape:window-y="103"
         inkscape:window-maximized="0"
         inkscape:current-layer="svg2" /><g
         id="g4"
         transform="translate(-4.8385175,-8.7331016)"><path
           d="m -52.6,95.5 c -21.8,0 -27.2,-14.6 -27.7,7.1 3.9,-0.7 7.1,-1.7 9.7,-2.6 2.6,-0.9 4.7,-1.6 6.7,-1.6 v 0 c 7.9,0 7.9,9.7 7.9,20.1 0,1.7 -0.1,3.4 -0.2,5.1 1.1,-0.2 2.4,-0.4 3.7,-0.4 10.2,0 14.4,7.7 14.6,8.1 0.5,0.9 0.1,2 -0.7,2.4 -0.3,0.1 -0.6,0.2 -0.8,0.2 -0.6,0 -1.3,-0.3 -1.6,-1 -0.1,-0.2 -3.5,-6.2 -11.4,-6.2 -1.6,0 -3,0.2 -4.2,0.6 -1.2,7.7 -3.9,14.3 -6.8,19.7 4.6,4.6 8.9,7.2 11,7.2 5.7,0 27.8,-19 27.8,-47.1 -0.1,-28.1 -4.8,-11.6 -28,-11.6 z m 12.2,19.7 c -2.2,0 -4,-1.8 -4,-4 0,-2.2 1.8,-4 4,-4 2.2,0 4,1.8 4,4 0,2.2 -1.8,4 -4,4 z"
           id="path6"
           inkscape:connector-curvature="0" /><path
           d="m -60,124.8 c 0.2,-2.1 0.4,-4.2 0.4,-6.4 0,-13 -1,-16.5 -4.3,-16.5 -3.1,0 -8.2,3 -16.4,4.2 -2.2,0.3 -4.5,0.5 -7.1,0.5 -12.5,0 -19.6,-4.8 -23.5,-4.8 -3.3,0 -4.3,3.5 -4.3,16.5 0,28.1 22.1,47.1 27.8,47.1 3.7,0 14.3,-8 21.3,-21.3 2.3,-4.4 4.2,-9.3 5.3,-14.8 0.3,-1.4 0.6,-2.9 0.8,-4.5 z m -43.6,-2.3 c 0,-2.2 1.8,-4 4,-4 2.2,0 4,1.8 4,4 0,2.2 -1.8,4 -4,4 -2.2,0 -4,-1.8 -4,-4 z m 30.7,20.3 c -0.2,0.3 -4.4,8.1 -14.6,8.1 -10.2,0 -14.4,-7.7 -14.6,-8.1 -0.5,-0.9 -0.1,-2 0.7,-2.4 0.9,-0.5 2,-0.1 2.4,0.7 0.1,0.2 3.5,6.2 11.4,6.2 8,0 11.4,-6.1 11.4,-6.2 0.5,-0.9 1.6,-1.2 2.4,-0.7 1.1,0.4 1.4,1.5 0.9,2.4 z m -6.3,-20.3 c 0,-0.8 0.2,-1.4 0.6,-2 0.7,-1.2 2,-1.9 3.4,-1.9 2.2,0 4,1.8 4,4 0,2.2 -1.8,4 -4,4 -0.6,0 -1.1,-0.1 -1.6,-0.4 -1.5,-0.7 -2.4,-2.1 -2.4,-3.7 z"
           id="path8"
           inkscape:connector-curvature="0" /></g></svg>  </g>
</svg>
