<?xml version="1.0" encoding="UTF-8"?>
<svg xmlns="http://www.w3.org/2000/svg" xmlns:xlink="http://www.w3.org/1999/xlink" width="30px" height="46px" viewBox="0 0 30 46" version="1.1">
<defs>
<clipPath id="clip1">
  <path d="M 13 8 L 22.445312 8 L 22.445312 19 L 13 19 Z M 13 8 "/>
</clipPath>
<clipPath id="clip2">
  <path d="M 7.550781 10 L 17 10 L 17 21 L 7.550781 21 Z M 7.550781 10 "/>
</clipPath>
</defs>
<g id="surface1">
<path style="fill-rule:nonzero;fill:rgb(100%,40.000001%,0%);fill-opacity:1;stroke-width:1;stroke-linecap:round;stroke-linejoin:miter;stroke:rgb(83.137256%,33.333334%,0%);stroke-opacity:1;stroke-miterlimit:4;" d="M 13.040625 0.638587 C 6.25625 0.638587 0.609375 6.287364 0.609375 12.418478 C 0.609375 15.17663 2.224219 18.678668 3.388802 21.097147 L 13 38.828125 L 22.560417 21.097147 C 23.725 18.678668 25.383854 15.353261 25.383854 12.418478 C 25.383854 6.290761 19.828385 0.638587 13.04401 0.638587 Z M 13.040625 2.099185 C 18.934635 2.136549 23.721615 6.756114 23.721615 12.428668 C 23.721615 18.108016 18.938021 22.659647 13.040625 22.700408 C 7.146615 22.663043 2.369792 18.11481 2.369792 12.428668 C 2.369792 6.752717 7.15 2.129755 13.040625 2.099185 Z M 13.040625 2.099185 " transform="matrix(1.153846,0,0,1.15,0,0)"/>
<path style="fill-rule:nonzero;fill:rgb(100%,100%,100%);fill-opacity:1;stroke-width:1.00275;stroke-linecap:butt;stroke-linejoin:miter;stroke:rgb(100%,100%,100%);stroke-opacity:1;stroke-miterlimit:4;" d="M 23.010677 12.374321 C 23.010677 17.703804 18.528385 22.02106 13.003385 22.02106 C 7.478385 22.02106 2.996094 17.703804 2.996094 12.374321 C 2.996094 7.048234 7.478385 2.727582 13.003385 2.727582 C 18.528385 2.727582 23.010677 7.048234 23.010677 12.374321 Z M 23.010677 12.374321 " transform="matrix(1.153846,0,0,1.15,0,0)"/>
<g clip-path="url(#clip1)" clip-rule="nonzero">
<path style=" stroke:none;fill-rule:nonzero;fill:rgb(0%,0%,0%);fill-opacity:1;" d="M 17.84375 9.011719 C 14.257812 9.011719 13.371094 6.621094 13.289062 10.175781 C 13.929688 10.0625 14.457031 9.898438 14.882812 9.75 C 15.308594 9.601562 15.65625 9.488281 15.984375 9.488281 C 17.28125 9.488281 17.28125 11.078125 17.28125 12.78125 C 17.28125 13.0625 17.265625 13.339844 17.25 13.617188 C 17.429688 13.585938 17.644531 13.550781 17.859375 13.550781 C 19.535156 13.550781 20.226562 14.8125 20.257812 14.878906 C 20.339844 15.027344 20.277344 15.207031 20.144531 15.273438 C 20.09375 15.289062 20.046875 15.304688 20.011719 15.304688 C 19.914062 15.304688 19.796875 15.257812 19.75 15.140625 C 19.734375 15.109375 19.175781 14.125 17.875 14.125 C 17.613281 14.125 17.382812 14.160156 17.183594 14.222656 C 16.988281 15.484375 16.542969 16.566406 16.066406 17.453125 C 16.824219 18.207031 17.53125 18.632812 17.875 18.632812 C 18.8125 18.632812 22.445312 15.519531 22.445312 10.914062 C 22.429688 6.308594 21.65625 9.011719 17.84375 9.011719 Z M 19.847656 12.242188 C 19.484375 12.242188 19.191406 11.945312 19.191406 11.585938 C 19.191406 11.226562 19.484375 10.929688 19.847656 10.929688 C 20.210938 10.929688 20.503906 11.226562 20.503906 11.585938 C 20.503906 11.945312 20.210938 12.242188 19.847656 12.242188 Z M 19.847656 12.242188 "/>
</g>
<g clip-path="url(#clip2)" clip-rule="nonzero">
<path style=" stroke:none;fill-rule:nonzero;fill:rgb(0%,0%,0%);fill-opacity:1;" d="M 16.625 13.816406 C 16.660156 13.46875 16.691406 13.125 16.691406 12.765625 C 16.691406 10.636719 16.527344 10.0625 15.984375 10.0625 C 15.472656 10.0625 14.636719 10.554688 13.289062 10.75 C 12.925781 10.800781 12.546875 10.832031 12.121094 10.832031 C 10.066406 10.832031 8.898438 10.046875 8.257812 10.046875 C 7.714844 10.046875 7.550781 10.621094 7.550781 12.75 C 7.550781 17.355469 11.183594 20.46875 12.121094 20.46875 C 12.730469 20.46875 14.472656 19.15625 15.621094 16.976562 C 16 16.257812 16.3125 15.453125 16.492188 14.550781 C 16.542969 14.324219 16.59375 14.078125 16.625 13.816406 Z M 9.457031 13.4375 C 9.457031 13.078125 9.753906 12.78125 10.113281 12.78125 C 10.476562 12.78125 10.773438 13.078125 10.773438 13.4375 C 10.773438 13.796875 10.476562 14.09375 10.113281 14.09375 C 9.753906 14.09375 9.457031 13.796875 9.457031 13.4375 Z M 14.503906 16.765625 C 14.472656 16.8125 13.78125 18.089844 12.105469 18.089844 C 10.425781 18.089844 9.738281 16.828125 9.703125 16.765625 C 9.621094 16.617188 9.6875 16.4375 9.820312 16.371094 C 9.964844 16.289062 10.148438 16.355469 10.214844 16.484375 C 10.230469 16.519531 10.789062 17.5 12.085938 17.5 C 13.402344 17.5 13.960938 16.503906 13.960938 16.484375 C 14.042969 16.339844 14.226562 16.289062 14.355469 16.371094 C 14.539062 16.4375 14.585938 16.617188 14.503906 16.765625 Z M 13.46875 13.4375 C 13.46875 13.308594 13.5 13.207031 13.566406 13.109375 C 13.683594 12.914062 13.894531 12.796875 14.125 12.796875 C 14.488281 12.796875 14.785156 13.09375 14.785156 13.453125 C 14.785156 13.816406 14.488281 14.109375 14.125 14.109375 C 14.027344 14.109375 13.945312 14.09375 13.863281 14.042969 C 13.617188 13.929688 13.46875 13.699219 13.46875 13.4375 Z M 13.46875 13.4375 "/>
</g>
</g>
</svg>
