<?xml version="1.0" encoding="UTF-8" standalone="no"?>
<svg xmlns="http://www.w3.org/2000/svg" height="40" width="26" version="1.1" xmlns:xlink="http://www.w3.org/1999/xlink">
 <path d="m13.04 0.6387c-6.783 0-12.43 5.649-12.43 11.78 0 2.757 1.613 6.26 2.779 8.68l9.611 17.73 9.56-17.73c1.166-2.42 2.824-5.747 2.824-8.68 0-6.128-5.555-11.78-12.34-11.78zm0 1.461c5.895 0.0373 10.68 4.656 10.68 10.33 0 5.678-4.781 10.23-10.68 10.27-5.895-0.0373-10.67-4.585-10.67-10.27 0-5.678 4.779-10.3 10.67-10.33z" stroke="#d45500" stroke-linecap="round" fill="#f60"/>
  <ellipse
     style="fill:#ffffff;stroke:#ffffff;stroke-width:1.00274992"
     id="path13"
     cx="13.003574"
     cy="12.374899"
     rx="10.005984"
     ry="9.6464386" />
<svg
   xmlns:dc="http://purl.org/dc/elements/1.1/"
   xmlns:cc="http://creativecommons.org/ns#"
   xmlns:rdf="http://www.w3.org/1999/02/22-rdf-syntax-ns#"
   xmlns:svg="http://www.w3.org/2000/svg"
   xmlns="http://www.w3.org/2000/svg"
   xmlns:sodipodi="http://sodipodi.sourceforge.net/DTD/sodipodi-0.dtd"
   xmlns:inkscape="http://www.inkscape.org/namespaces/inkscape"
   version="1.1"
   x="6.543"
   y="6.02"
   viewBox="-120 78.1 90.6 74.71315"
   xml:space="preserve"
   id="svg2"
   inkscape:version="0.48.4 r9939"
   width="12.91"
   height="12.91"
   sodipodi:docname="noun_415118_cc.svg"><metadata
     id="metadata18"><rdf:RDF><cc:Work
         rdf:about=""><dc:format>image/svg+xml</dc:format><dc:type
           rdf:resource="http://purl.org/dc/dcmitype/StillImage" /><dc:title></dc:title></cc:Work></rdf:RDF></metadata><defs
     id="defs16" /><sodipodi:namedview
     pagecolor="#ffffff"
     bordercolor="#666666"
     borderopacity="1"
     objecttolerance="10"
     gridtolerance="10"
     guidetolerance="10"
     inkscape:pageopacity="0"
     inkscape:pageshadow="2"
     inkscape:window-width="725"
     inkscape:window-height="735"
     id="namedview14"
     showgrid="false"
     fit-margin-top="0"
     fit-margin-left="0"
     fit-margin-right="0"
     fit-margin-bottom="0"
     inkscape:zoom="2.6700352"
     inkscape:cx="52.244499"
     inkscape:cy="35.360374"
     inkscape:window-x="137"
     inkscape:window-y="103"
     inkscape:window-maximized="0"
     inkscape:current-layer="svg2" /><g
     id="g4"
     transform="translate(-4.8,-12.58685)"><path
       d="m -52.6,95.5 c -21.8,0 -27.2,-14.6 -27.7,7.1 3.9,-0.7 7.1,-1.7 9.7,-2.6 2.6,-0.9 4.7,-1.6 6.7,-1.6 h 0 c 7.9,0 7.9,9.7 7.9,20.1 0,1.7 -0.1,3.4 -0.2,5.1 1.1,-0.2 2.4,-0.4 3.7,-0.4 10.2,0 14.4,7.7 14.6,8.1 0.5,0.9 0.1,2 -0.7,2.4 -0.3,0.1 -0.6,0.2 -0.8,0.2 -0.6,0 -1.3,-0.3 -1.6,-1 -0.1,-0.2 -3.5,-6.2 -11.4,-6.2 -1.6,0 -3,0.2 -4.2,0.6 -1.2,7.7 -3.9,14.3 -6.8,19.7 4.6,4.6 8.9,7.2 11,7.2 5.7,0 27.8,-19 27.8,-47.1 -0.1,-28.1 -4.8,-11.6 -28,-11.6 z m 12.2,19.7 c -2.2,0 -4,-1.8 -4,-4 0,-2.2 1.8,-4 4,-4 2.2,0 4,1.8 4,4 0,2.2 -1.8,4 -4,4 z"
       id="path6"
       inkscape:connector-curvature="0" /><path
       d="m -60,124.8 c 0.2,-2.1 0.4,-4.2 0.4,-6.4 0,-13 -1,-16.5 -4.3,-16.5 -3.1,0 -8.2,3 -16.4,4.2 -2.2,0.3 -4.5,0.5 -7.1,0.5 -12.5,0 -19.6,-4.8 -23.5,-4.8 -3.3,0 -4.3,3.5 -4.3,16.5 0,28.1 22.1,47.1 27.8,47.1 3.7,0 14.3,-8 21.3,-21.3 2.3,-4.4 4.2,-9.3 5.3,-14.8 0.3,-1.4 0.6,-2.9 0.8,-4.5 z m -43.6,-2.3 c 0,-2.2 1.8,-4 4,-4 2.2,0 4,1.8 4,4 0,2.2 -1.8,4 -4,4 -2.2,0 -4,-1.8 -4,-4 z m 30.7,20.3 c -0.2,0.3 -4.4,8.1 -14.6,8.1 -10.2,0 -14.4,-7.7 -14.6,-8.1 -0.5,-0.9 -0.1,-2 0.7,-2.4 0.9,-0.5 2,-0.1 2.4,0.7 0.1,0.2 3.5,6.2 11.4,6.2 8,0 11.4,-6.1 11.4,-6.2 0.5,-0.9 1.6,-1.2 2.4,-0.7 1.1,0.4 1.4,1.5 0.9,2.4 z m -6.3,-20.3 c 0,-0.8 0.2,-1.4 0.6,-2 0.7,-1.2 2,-1.9 3.4,-1.9 2.2,0 4,1.8 4,4 0,2.2 -1.8,4 -4,4 -0.6,0 -1.1,-0.1 -1.6,-0.4 -1.5,-0.7 -2.4,-2.1 -2.4,-3.7 z"
       id="path8"
       inkscape:connector-curvature="0" /></g></svg></svg>
