<?xml version="1.0" encoding="UTF-8"?>
<svg xmlns="http://www.w3.org/2000/svg" xmlns:xlink="http://www.w3.org/1999/xlink" width="30px" height="46px" viewBox="0 0 30 46" version="1.1">
<defs>
<clipPath id="clip1">
  <path d="M 7.550781 6.921875 L 22.445312 6.921875 L 22.445312 21.769531 L 7.550781 21.769531 Z M 7.550781 6.921875 "/>
</clipPath>
</defs>
<g id="surface1">
<path style="fill-rule:nonzero;fill:rgb(100%,40.000001%,0%);fill-opacity:1;stroke-width:1;stroke-linecap:round;stroke-linejoin:miter;stroke:rgb(83.137256%,33.333334%,0%);stroke-opacity:1;stroke-miterlimit:4;" d="M 13.040625 0.638587 C 6.25625 0.638587 0.609375 6.287364 0.609375 12.418478 C 0.609375 15.17663 2.224219 18.678668 3.388802 21.097147 L 13 38.828125 L 22.560417 21.097147 C 23.725 18.678668 25.383854 15.353261 25.383854 12.418478 C 25.383854 6.290761 19.828385 0.638587 13.04401 0.638587 Z M 13.040625 2.099185 C 18.934635 2.136549 23.721615 6.756114 23.721615 12.428668 C 23.721615 18.108016 18.938021 22.659647 13.040625 22.700408 C 7.146615 22.663043 2.369792 18.11481 2.369792 12.428668 C 2.369792 6.752717 7.15 2.129755 13.040625 2.099185 Z M 13.040625 2.099185 " transform="matrix(1.153846,0,0,1.15,0,0)"/>
<path style="fill-rule:nonzero;fill:rgb(100%,100%,100%);fill-opacity:1;stroke-width:1.00275;stroke-linecap:butt;stroke-linejoin:miter;stroke:rgb(100%,100%,100%);stroke-opacity:1;stroke-miterlimit:4;" d="M 23.010677 12.374321 C 23.010677 17.703804 18.528385 22.02106 13.003385 22.02106 C 7.478385 22.02106 2.996094 17.703804 2.996094 12.374321 C 2.996094 7.048234 7.478385 2.727582 13.003385 2.727582 C 18.528385 2.727582 23.010677 7.048234 23.010677 12.374321 Z M 23.010677 12.374321 " transform="matrix(1.153846,0,0,1.15,0,0)"/>
<g clip-path="url(#clip1)" clip-rule="nonzero">
<path style=" stroke:none;fill-rule:evenodd;fill:rgb(0%,0%,0%);fill-opacity:1;" d="M 20.847656 13.109375 L 14.996094 13.109375 C 14.351562 13.109375 13.828125 13.664062 13.828125 14.347656 C 13.828125 14.492188 13.851562 14.628906 13.894531 14.757812 L 13.078125 14.757812 L 13.414062 9.746094 C 13.882812 9.582031 14.21875 9.121094 14.21875 8.574219 C 14.21875 7.890625 13.691406 7.335938 13.046875 7.335938 L 11.878906 7.335938 C 11.878906 7.109375 11.703125 6.921875 11.488281 6.921875 L 10.707031 6.921875 C 10.492188 6.921875 10.320312 7.109375 10.320312 7.335938 L 9.148438 7.335938 C 8.503906 7.335938 7.980469 7.890625 7.980469 8.574219 C 7.980469 9.121094 8.316406 9.582031 8.78125 9.746094 L 9.148438 15.199219 C 9.164062 15.417969 9.335938 15.582031 9.539062 15.582031 L 10.859375 15.582031 L 11.878906 17.742188 L 11.878906 21.355469 C 11.878906 21.585938 12.054688 21.769531 12.269531 21.769531 L 17.335938 21.769531 C 17.519531 21.769531 17.675781 21.636719 17.71875 21.449219 L 18.058594 19.859375 C 19.835938 19.222656 21.089844 17.496094 21.222656 15.515625 C 21.683594 15.351562 22.015625 14.890625 22.015625 14.347656 C 22.015625 13.664062 21.492188 13.109375 20.847656 13.109375 Z M 9.148438 8.160156 L 13.046875 8.160156 C 13.261719 8.160156 13.4375 8.34375 13.4375 8.574219 C 13.4375 8.800781 13.261719 8.984375 13.046875 8.984375 L 9.148438 8.984375 C 8.933594 8.984375 8.757812 8.800781 8.757812 8.574219 C 8.757812 8.34375 8.933594 8.160156 9.148438 8.160156 Z M 20.847656 14.757812 L 14.996094 14.757812 C 14.78125 14.757812 14.609375 14.574219 14.609375 14.347656 C 14.609375 14.117188 14.78125 13.933594 14.996094 13.933594 L 20.847656 13.933594 C 21.0625 13.933594 21.238281 14.117188 21.238281 14.347656 C 21.238281 14.574219 21.0625 14.757812 20.847656 14.757812 Z M 20.847656 14.757812 "/>
</g>
</g>
</svg>
