<?xml version="1.0" encoding="UTF-8"?>
<svg xmlns="http://www.w3.org/2000/svg" xmlns:xlink="http://www.w3.org/1999/xlink" width="30px" height="46px" viewBox="0 0 30 46" version="1.1">
<defs>
<clipPath id="clip1">
  <path d="M 8 6.921875 L 22 6.921875 L 22 21.769531 L 8 21.769531 Z M 8 6.921875 "/>
</clipPath>
</defs>
<g id="surface1">
<path style="fill-rule:nonzero;fill:rgb(100%,40.000001%,0%);fill-opacity:1;stroke-width:1;stroke-linecap:round;stroke-linejoin:miter;stroke:rgb(83.137256%,33.333334%,0%);stroke-opacity:1;stroke-miterlimit:4;" d="M 13.040625 0.638587 C 6.25625 0.638587 0.609375 6.287364 0.609375 12.418478 C 0.609375 15.17663 2.224219 18.678668 3.388802 21.097147 L 13 38.828125 L 22.560417 21.097147 C 23.725 18.678668 25.383854 15.353261 25.383854 12.418478 C 25.383854 6.290761 19.828385 0.638587 13.04401 0.638587 Z M 13.040625 2.099185 C 18.934635 2.136549 23.721615 6.756114 23.721615 12.428668 C 23.721615 18.108016 18.938021 22.659647 13.040625 22.700408 C 7.146615 22.663043 2.369792 18.11481 2.369792 12.428668 C 2.369792 6.752717 7.15 2.129755 13.040625 2.099185 Z M 13.040625 2.099185 " transform="matrix(1.153846,0,0,1.15,0,0)"/>
<path style="fill-rule:nonzero;fill:rgb(100%,100%,100%);fill-opacity:1;stroke-width:1.00275;stroke-linecap:butt;stroke-linejoin:miter;stroke:rgb(100%,100%,100%);stroke-opacity:1;stroke-miterlimit:4;" d="M 23.010677 12.374321 C 23.010677 17.703804 18.528385 22.02106 13.003385 22.02106 C 7.478385 22.02106 2.996094 17.703804 2.996094 12.374321 C 2.996094 7.048234 7.478385 2.727582 13.003385 2.727582 C 18.528385 2.727582 23.010677 7.048234 23.010677 12.374321 Z M 23.010677 12.374321 " transform="matrix(1.153846,0,0,1.15,0,0)"/>
<path style=" stroke:none;fill-rule:nonzero;fill:rgb(0.392157%,0.392157%,0.392157%);fill-opacity:1;" d="M 14.203125 12.464844 C 14.203125 13.199219 13.609375 13.796875 12.871094 13.796875 C 12.136719 13.796875 11.539062 13.199219 11.539062 12.464844 C 11.539062 11.734375 12.136719 11.136719 12.871094 11.136719 C 13.609375 11.136719 14.203125 11.734375 14.203125 12.464844 Z M 14.203125 12.464844 "/>
<path style=" stroke:none;fill-rule:nonzero;fill:rgb(0.392157%,0.392157%,0.392157%);fill-opacity:1;" d="M 14.472656 14.0625 L 11.273438 14.0625 C 10.609375 14.0625 10.070312 14.597656 10.070312 15.257812 L 10.070312 16.121094 C 10.070312 16.453125 10.339844 16.71875 10.671875 16.71875 L 12.136719 16.71875 C 12.46875 16.71875 12.738281 16.453125 12.738281 16.121094 C 12.738281 15.789062 12.46875 15.523438 12.136719 15.523438 L 11.273438 15.523438 L 11.273438 15.257812 L 14.472656 15.257812 L 14.472656 15.523438 L 13.605469 15.523438 C 13.273438 15.523438 13.003906 15.792969 13.003906 16.121094 C 13.003906 16.453125 13.273438 16.71875 13.605469 16.71875 L 15.070312 16.71875 C 15.402344 16.71875 15.671875 16.453125 15.671875 16.121094 L 15.671875 15.257812 C 15.671875 14.597656 15.132812 14.0625 14.472656 14.0625 Z M 14.472656 14.0625 "/>
<path style=" stroke:none;fill-rule:nonzero;fill:rgb(0.392157%,0.392157%,0.392157%);fill-opacity:1;" d="M 18.101562 12.320312 L 16.945312 12.011719 L 17.632812 9.445312 L 18.792969 9.753906 Z M 18.101562 12.320312 "/>
<path style=" stroke:none;fill-rule:nonzero;fill:rgb(0.392157%,0.392157%,0.392157%);fill-opacity:1;" d="M 19.039062 8.765625 C 19.039062 9.097656 18.769531 9.363281 18.4375 9.363281 C 18.105469 9.363281 17.835938 9.097656 17.835938 8.765625 C 17.835938 8.4375 18.105469 8.167969 18.4375 8.167969 C 18.769531 8.167969 19.039062 8.4375 19.039062 8.765625 Z M 19.039062 8.765625 "/>
<g clip-path="url(#clip1)" clip-rule="nonzero">
<path style=" stroke:none;fill-rule:nonzero;fill:rgb(0.392157%,0.392157%,0.392157%);fill-opacity:1;" d="M 16.171875 6.921875 L 14.792969 12.058594 L 17.078125 12.667969 L 15.917969 16.984375 L 8.671875 16.984375 L 8.671875 21.769531 L 17.070312 21.769531 L 17.070312 16.984375 L 16.539062 16.984375 L 17.65625 12.824219 L 19.945312 13.433594 L 21.324219 8.300781 Z M 19.714844 13.035156 L 15.191406 11.828125 L 16.402344 7.320312 L 20.925781 8.527344 Z M 19.714844 13.035156 "/>
</g>
</g>
</svg>
