<?xml version="1.0" encoding="UTF-8"?>
<svg xmlns="http://www.w3.org/2000/svg" xmlns:xlink="http://www.w3.org/1999/xlink" width="30px" height="46px" viewBox="0 0 30 46" version="1.1">
<defs>
<clipPath id="clip1">
  <path d="M 9 6.921875 L 21 6.921875 L 21 21.769531 L 9 21.769531 Z M 9 6.921875 "/>
</clipPath>
</defs>
<g id="surface1">
<path style="fill-rule:nonzero;fill:rgb(100%,40.000001%,0%);fill-opacity:1;stroke-width:1;stroke-linecap:round;stroke-linejoin:miter;stroke:rgb(83.137256%,33.333334%,0%);stroke-opacity:1;stroke-miterlimit:4;" d="M 13.040625 0.638587 C 6.25625 0.638587 0.609375 6.287364 0.609375 12.418478 C 0.609375 15.17663 2.224219 18.678668 3.388802 21.097147 L 13 38.828125 L 22.560417 21.097147 C 23.725 18.678668 25.383854 15.353261 25.383854 12.418478 C 25.383854 6.290761 19.828385 0.638587 13.04401 0.638587 Z M 13.040625 2.099185 C 18.934635 2.136549 23.721615 6.756114 23.721615 12.428668 C 23.721615 18.108016 18.938021 22.659647 13.040625 22.700408 C 7.146615 22.663043 2.369792 18.11481 2.369792 12.428668 C 2.369792 6.752717 7.15 2.129755 13.040625 2.099185 Z M 13.040625 2.099185 " transform="matrix(1.153846,0,0,1.15,0,0)"/>
<path style="fill-rule:nonzero;fill:rgb(100%,100%,100%);fill-opacity:1;stroke-width:1.00275;stroke-linecap:butt;stroke-linejoin:miter;stroke:rgb(100%,100%,100%);stroke-opacity:1;stroke-miterlimit:4;" d="M 23.010677 12.374321 C 23.010677 17.703804 18.528385 22.02106 13.003385 22.02106 C 7.478385 22.02106 2.996094 17.703804 2.996094 12.374321 C 2.996094 7.048234 7.478385 2.727582 13.003385 2.727582 C 18.528385 2.727582 23.010677 7.048234 23.010677 12.374321 Z M 23.010677 12.374321 " transform="matrix(1.153846,0,0,1.15,0,0)"/>
<g clip-path="url(#clip1)" clip-rule="nonzero">
<path style=" stroke:none;fill-rule:nonzero;fill:rgb(0%,0%,0%);fill-opacity:1;" d="M 20.0625 16.054688 L 19.914062 16.574219 L 19.914062 17.464844 L 19.46875 16.574219 L 16.785156 16.574219 L 16.785156 13.308594 L 16.710938 13.160156 L 16.636719 13.308594 L 16.636719 14.421875 L 16.5625 14.421875 L 16.339844 11.75 L 15.746094 6.921875 L 15.148438 11.75 L 14.925781 14.421875 L 14.847656 14.421875 L 14.847656 13.308594 L 14.773438 13.160156 L 14.699219 13.308594 L 14.699219 16.574219 L 10.53125 16.574219 L 10.082031 17.464844 L 10.082031 16.574219 L 9.933594 16.054688 L 9.785156 16.574219 L 9.785156 21.769531 L 10.15625 21.769531 L 10.15625 21.027344 C 10.15625 20.804688 10.316406 20.625 10.527344 20.589844 C 10.738281 20.625 10.902344 20.804688 10.902344 21.027344 L 10.902344 21.769531 L 11.644531 21.769531 L 11.644531 21.027344 C 11.644531 20.804688 11.808594 20.625 12.019531 20.589844 C 12.230469 20.625 12.390625 20.804688 12.390625 21.027344 L 12.390625 21.769531 L 13.136719 21.769531 L 13.136719 21.027344 C 13.136719 20.804688 13.296875 20.625 13.507812 20.589844 C 13.71875 20.625 13.878906 20.804688 13.878906 21.027344 L 13.878906 21.769531 L 15.222656 21.769531 L 15.222656 20.953125 C 15.222656 20.648438 15.449219 20.402344 15.742188 20.363281 C 16.035156 20.402344 16.265625 20.648438 16.265625 20.953125 L 16.265625 21.769531 L 17.605469 21.769531 L 17.605469 21.027344 C 17.605469 20.804688 17.765625 20.625 17.976562 20.589844 C 18.1875 20.625 18.347656 20.804688 18.347656 21.027344 L 18.347656 21.769531 L 19.09375 21.769531 L 19.09375 21.027344 C 19.09375 20.804688 19.253906 20.625 19.464844 20.589844 C 19.679688 20.625 19.839844 20.804688 19.839844 21.027344 L 19.839844 21.769531 L 20.210938 21.769531 L 20.210938 16.574219 Z M 10.753906 20.136719 L 10.304688 20.136719 L 10.304688 19.542969 L 10.753906 19.542969 Z M 10.753906 19.023438 L 10.304688 19.023438 L 10.304688 18.578125 C 10.304688 18.4375 10.402344 18.324219 10.527344 18.292969 C 10.65625 18.324219 10.753906 18.4375 10.753906 18.578125 Z M 12.242188 20.136719 L 11.796875 20.136719 L 11.796875 19.542969 L 12.242188 19.542969 Z M 12.242188 19.023438 L 11.796875 19.023438 L 11.796875 18.578125 C 11.796875 18.4375 11.890625 18.324219 12.019531 18.292969 C 12.148438 18.324219 12.242188 18.4375 12.242188 18.578125 Z M 13.730469 20.136719 L 13.285156 20.136719 L 13.285156 19.542969 L 13.730469 19.542969 Z M 13.730469 19.023438 L 13.285156 19.023438 L 13.285156 18.578125 C 13.285156 18.4375 13.378906 18.324219 13.507812 18.292969 C 13.636719 18.324219 13.730469 18.4375 13.730469 18.578125 Z M 16.113281 11.882812 L 16.113281 12.269531 L 15.816406 12.269531 L 15.816406 11.882812 C 15.816406 11.785156 15.878906 11.703125 15.964844 11.671875 C 16.050781 11.703125 16.113281 11.785156 16.113281 11.882812 Z M 15.816406 13.457031 L 15.816406 12.9375 C 15.816406 12.839844 15.878906 12.757812 15.964844 12.726562 C 16.050781 12.757812 16.113281 12.839844 16.113281 12.9375 L 16.113281 13.457031 Z M 16.113281 14.125 L 16.113281 14.867188 L 15.816406 14.867188 L 15.816406 14.125 C 15.816406 14.027344 15.878906 13.945312 15.964844 13.914062 C 16.050781 13.945312 16.113281 14.027344 16.113281 14.125 Z M 15.667969 20.136719 L 15.222656 20.136719 L 15.222656 19.542969 L 15.667969 19.542969 Z M 15.667969 19.023438 L 15.222656 19.023438 L 15.222656 18.578125 C 15.222656 18.4375 15.316406 18.324219 15.445312 18.292969 C 15.574219 18.324219 15.667969 18.4375 15.667969 18.578125 Z M 15.667969 17.835938 L 15.222656 17.835938 L 15.222656 17.09375 C 15.222656 16.953125 15.316406 16.839844 15.445312 16.804688 C 15.574219 16.839844 15.667969 16.953125 15.667969 17.09375 Z M 15.667969 16.351562 L 15.222656 16.351562 L 15.222656 15.609375 C 15.222656 15.46875 15.316406 15.355469 15.445312 15.320312 C 15.574219 15.355469 15.667969 15.46875 15.667969 15.609375 Z M 15.667969 14.867188 L 15.371094 14.867188 L 15.371094 14.125 C 15.371094 14.027344 15.433594 13.945312 15.519531 13.914062 C 15.605469 13.945312 15.667969 14.027344 15.667969 14.125 Z M 15.667969 13.457031 L 15.371094 13.457031 L 15.371094 12.9375 C 15.371094 12.839844 15.433594 12.757812 15.519531 12.726562 C 15.605469 12.757812 15.667969 12.839844 15.667969 12.9375 Z M 15.667969 12.269531 L 15.371094 12.269531 L 15.371094 11.882812 C 15.371094 11.785156 15.433594 11.703125 15.519531 11.671875 C 15.605469 11.703125 15.667969 11.785156 15.667969 11.882812 Z M 16.265625 20.136719 L 15.816406 20.136719 L 15.816406 19.542969 L 16.265625 19.542969 Z M 16.265625 19.023438 L 15.816406 19.023438 L 15.816406 18.578125 C 15.816406 18.4375 15.914062 18.324219 16.039062 18.292969 C 16.167969 18.324219 16.265625 18.4375 16.265625 18.578125 Z M 16.265625 17.835938 L 15.816406 17.835938 L 15.816406 17.09375 C 15.816406 16.953125 15.914062 16.839844 16.039062 16.804688 C 16.167969 16.839844 16.265625 16.953125 16.265625 17.09375 Z M 16.265625 16.351562 L 15.816406 16.351562 L 15.816406 15.609375 C 15.816406 15.46875 15.914062 15.355469 16.039062 15.320312 C 16.167969 15.355469 16.265625 15.46875 16.265625 15.609375 Z M 18.199219 20.136719 L 17.753906 20.136719 L 17.753906 19.542969 L 18.199219 19.542969 Z M 18.199219 19.023438 L 17.753906 19.023438 L 17.753906 18.578125 C 17.753906 18.4375 17.847656 18.324219 17.976562 18.292969 C 18.105469 18.324219 18.199219 18.4375 18.199219 18.578125 Z M 19.691406 20.136719 L 19.242188 20.136719 L 19.242188 19.542969 L 19.691406 19.542969 Z M 19.691406 19.023438 L 19.242188 19.023438 L 19.242188 18.578125 C 19.242188 18.4375 19.339844 18.324219 19.464844 18.292969 C 19.59375 18.324219 19.691406 18.4375 19.691406 18.578125 Z M 19.691406 19.023438 "/>
</g>
</g>
</svg>
