<?xml version="1.0" encoding="UTF-8"?>
<svg xmlns="http://www.w3.org/2000/svg" xmlns:xlink="http://www.w3.org/1999/xlink" width="30px" height="46px" viewBox="0 0 30 46" version="1.1">
<defs>
<clipPath id="clip1">
  <path d="M 7.550781 17 L 22.445312 17 L 22.445312 19 L 7.550781 19 Z M 7.550781 17 "/>
</clipPath>
</defs>
<g id="surface1">
<path style="fill-rule:nonzero;fill:rgb(100%,40.000001%,0%);fill-opacity:1;stroke-width:1;stroke-linecap:round;stroke-linejoin:miter;stroke:rgb(83.137256%,33.333334%,0%);stroke-opacity:1;stroke-miterlimit:4;" d="M 13.040625 0.638587 C 6.25625 0.638587 0.609375 6.287364 0.609375 12.418478 C 0.609375 15.17663 2.224219 18.678668 3.388802 21.097147 L 13 38.828125 L 22.560417 21.097147 C 23.725 18.678668 25.383854 15.353261 25.383854 12.418478 C 25.383854 6.290761 19.828385 0.638587 13.04401 0.638587 Z M 13.040625 2.099185 C 18.934635 2.136549 23.721615 6.756114 23.721615 12.428668 C 23.721615 18.108016 18.938021 22.659647 13.040625 22.700408 C 7.146615 22.663043 2.369792 18.11481 2.369792 12.428668 C 2.369792 6.752717 7.15 2.129755 13.040625 2.099185 Z M 13.040625 2.099185 " transform="matrix(1.153846,0,0,1.15,0,0)"/>
<path style="fill-rule:nonzero;fill:rgb(100%,100%,100%);fill-opacity:1;stroke-width:1.00275;stroke-linecap:butt;stroke-linejoin:miter;stroke:rgb(100%,100%,100%);stroke-opacity:1;stroke-miterlimit:4;" d="M 23.010677 12.374321 C 23.010677 17.703804 18.528385 22.02106 13.003385 22.02106 C 7.478385 22.02106 2.996094 17.703804 2.996094 12.374321 C 2.996094 7.048234 7.478385 2.727582 13.003385 2.727582 C 18.528385 2.727582 23.010677 7.048234 23.010677 12.374321 Z M 23.010677 12.374321 " transform="matrix(1.153846,0,0,1.15,0,0)"/>
<g clip-path="url(#clip1)" clip-rule="nonzero">
<path style=" stroke:none;fill-rule:nonzero;fill:rgb(0%,0%,0%);fill-opacity:1;" d="M 10.945312 17.65625 L 7.550781 17.65625 L 7.550781 18.25 L 22.445312 18.25 L 22.445312 17.65625 Z M 10.945312 17.65625 "/>
</g>
<path style=" stroke:none;fill-rule:nonzero;fill:rgb(0%,0%,0%);fill-opacity:1;" d="M 10.945312 15.671875 C 10.945312 15.339844 11.242188 15.058594 11.601562 15.058594 C 11.960938 15.058594 12.261719 15.339844 12.261719 15.671875 L 12.261719 17.398438 L 13.980469 17.398438 L 13.980469 15.265625 C 13.980469 14.726562 14.457031 14.28125 15.039062 14.28125 C 15.617188 14.28125 16.097656 14.726562 16.097656 15.265625 L 16.097656 17.398438 L 17.792969 17.398438 L 17.792969 15.671875 C 17.792969 15.339844 18.09375 15.058594 18.453125 15.058594 C 18.8125 15.058594 19.109375 15.339844 19.109375 15.671875 L 19.109375 17.398438 L 20.828125 17.398438 L 20.828125 12.945312 L 15.039062 10.445312 L 9.226562 12.945312 L 9.226562 17.398438 L 10.945312 17.398438 Z M 15.078125 11.628906 C 15.617188 11.628906 16.054688 12.039062 16.054688 12.539062 C 16.054688 13.039062 15.617188 13.445312 15.078125 13.445312 C 14.539062 13.445312 14.097656 13.039062 14.097656 12.539062 C 14.097656 12.039062 14.539062 11.628906 15.078125 11.628906 Z M 15.078125 11.628906 "/>
<path style=" stroke:none;fill-rule:nonzero;fill:rgb(0%,0%,0%);fill-opacity:1;" d="M 15.15625 12.707031 L 15.578125 12.074219 L 15.296875 11.925781 L 14.996094 12.371094 L 14.679688 12.277344 L 14.597656 12.558594 Z M 15.15625 12.707031 "/>
</g>
</svg>
