<?xml version="1.0" encoding="UTF-8"?>
<svg xmlns="http://www.w3.org/2000/svg" xmlns:xlink="http://www.w3.org/1999/xlink" width="30px" height="46px" viewBox="0 0 30 46" version="1.1">
<defs>
<clipPath id="clip1">
  <path d="M 7.550781 7 L 22.445312 7 L 22.445312 21.769531 L 7.550781 21.769531 Z M 7.550781 7 "/>
</clipPath>
</defs>
<g id="surface1">
<path style="fill-rule:nonzero;fill:rgb(100%,40.000001%,0%);fill-opacity:1;stroke-width:1;stroke-linecap:round;stroke-linejoin:miter;stroke:rgb(83.137256%,33.333334%,0%);stroke-opacity:1;stroke-miterlimit:4;" d="M 13.040625 0.638587 C 6.25625 0.638587 0.609375 6.287364 0.609375 12.418478 C 0.609375 15.17663 2.224219 18.678668 3.388802 21.097147 L 13 38.828125 L 22.560417 21.097147 C 23.725 18.678668 25.383854 15.353261 25.383854 12.418478 C 25.383854 6.290761 19.828385 0.638587 13.04401 0.638587 Z M 13.040625 2.099185 C 18.934635 2.136549 23.721615 6.756114 23.721615 12.428668 C 23.721615 18.108016 18.938021 22.659647 13.040625 22.700408 C 7.146615 22.663043 2.369792 18.11481 2.369792 12.428668 C 2.369792 6.752717 7.15 2.129755 13.040625 2.099185 Z M 13.040625 2.099185 " transform="matrix(1.153846,0,0,1.15,0,0)"/>
<path style="fill-rule:nonzero;fill:rgb(100%,100%,100%);fill-opacity:1;stroke-width:1.00275;stroke-linecap:butt;stroke-linejoin:miter;stroke:rgb(100%,100%,100%);stroke-opacity:1;stroke-miterlimit:4;" d="M 23.010677 12.374321 C 23.010677 17.703804 18.528385 22.02106 13.003385 22.02106 C 7.478385 22.02106 2.996094 17.703804 2.996094 12.374321 C 2.996094 7.048234 7.478385 2.727582 13.003385 2.727582 C 18.528385 2.727582 23.010677 7.048234 23.010677 12.374321 Z M 23.010677 12.374321 " transform="matrix(1.153846,0,0,1.15,0,0)"/>
<path style=" stroke:none;fill-rule:evenodd;fill:rgb(0%,0%,0%);fill-opacity:1;" d="M 16.089844 13.429688 C 16.101562 13.4375 16.113281 13.441406 16.121094 13.449219 C 16.128906 13.453125 16.140625 13.457031 16.148438 13.460938 C 16.175781 13.472656 16.210938 13.480469 16.238281 13.480469 C 16.273438 13.480469 16.304688 13.46875 16.339844 13.457031 C 16.347656 13.453125 16.355469 13.449219 16.367188 13.441406 C 16.378906 13.4375 16.390625 13.429688 16.402344 13.421875 L 18.472656 11.628906 L 18.472656 12.984375 C 18.472656 13.121094 18.585938 13.234375 18.722656 13.234375 C 18.859375 13.234375 18.96875 13.121094 18.96875 12.984375 L 18.96875 11.203125 L 20.125 10.203125 C 20.230469 10.113281 20.238281 9.960938 20.148438 9.855469 C 20.058594 9.75 19.902344 9.742188 19.800781 9.832031 L 18.722656 10.757812 L 16.488281 10.757812 C 16.351562 10.757812 16.238281 10.871094 16.238281 11.003906 C 16.238281 11.140625 16.351562 11.253906 16.488281 11.253906 L 18.152344 11.253906 L 16.226562 12.917969 L 15.394531 12.292969 C 15.285156 12.210938 15.128906 12.234375 15.046875 12.34375 C 14.964844 12.449219 14.988281 12.605469 15.097656 12.6875 Z M 16.089844 13.429688 "/>
<g clip-path="url(#clip1)" clip-rule="nonzero">
<path style=" stroke:none;fill-rule:evenodd;fill:rgb(0%,0%,0%);fill-opacity:1;" d="M 21.328125 7.292969 L 8.667969 7.292969 C 8.050781 7.292969 7.550781 7.792969 7.550781 8.40625 L 7.550781 17.5625 C 7.550781 18.175781 8.050781 18.675781 8.667969 18.675781 L 13.101562 18.675781 C 13.136719 19.109375 12.945312 19.539062 12.597656 19.78125 L 12.152344 20.097656 C 12.121094 20.117188 12.101562 20.140625 12.082031 20.167969 C 11.769531 20.199219 11.523438 20.460938 11.523438 20.78125 C 11.523438 21.121094 11.800781 21.398438 12.144531 21.398438 L 17.851562 21.398438 C 18.195312 21.398438 18.472656 21.121094 18.472656 20.78125 C 18.472656 20.460938 18.230469 20.199219 17.917969 20.167969 C 17.898438 20.140625 17.875 20.117188 17.84375 20.097656 L 17.398438 19.785156 C 17.046875 19.539062 16.859375 19.113281 16.894531 18.679688 L 21.328125 18.679688 C 21.945312 18.679688 22.445312 18.179688 22.445312 17.566406 L 22.445312 8.40625 C 22.445312 7.792969 21.945312 7.292969 21.328125 7.292969 Z M 8.046875 8.40625 C 8.046875 8.066406 8.324219 7.789062 8.667969 7.789062 L 21.328125 7.789062 C 21.671875 7.789062 21.949219 8.066406 21.949219 8.40625 L 21.949219 15.953125 L 8.046875 15.953125 Z M 17.851562 20.902344 L 12.144531 20.902344 C 12.074219 20.902344 12.019531 20.847656 12.019531 20.78125 C 12.019531 20.714844 12.074219 20.65625 12.144531 20.65625 L 17.855469 20.65625 C 17.921875 20.65625 17.980469 20.714844 17.980469 20.78125 C 17.980469 20.847656 17.917969 20.902344 17.851562 20.902344 Z M 17.074219 20.160156 L 12.917969 20.160156 C 13.378906 19.820312 13.628906 19.253906 13.597656 18.675781 L 16.398438 18.675781 C 16.367188 19.253906 16.617188 19.820312 17.074219 20.160156 Z M 21.949219 17.5625 C 21.949219 17.90625 21.671875 18.179688 21.328125 18.179688 L 8.667969 18.179688 C 8.324219 18.179688 8.046875 17.90625 8.046875 17.5625 L 8.046875 16.449219 L 21.949219 16.449219 Z M 21.949219 17.5625 "/>
</g>
<path style=" stroke:none;fill-rule:evenodd;fill:rgb(0%,0%,0%);fill-opacity:1;" d="M 8.789062 8.53125 L 8.789062 15.460938 L 21.203125 15.460938 L 21.203125 8.53125 Z M 9.289062 9.027344 L 13.757812 9.027344 L 13.757812 14.964844 L 9.289062 14.964844 Z M 20.707031 14.964844 L 14.253906 14.964844 L 14.253906 9.027344 L 20.707031 9.027344 Z M 20.707031 14.964844 "/>
<path style=" stroke:none;fill-rule:evenodd;fill:rgb(0%,0%,0%);fill-opacity:1;" d="M 13.261719 11.003906 L 12.988281 11.003906 C 12.953125 10.78125 12.863281 10.574219 12.734375 10.394531 L 12.925781 10.203125 C 13.023438 10.109375 13.023438 9.953125 12.925781 9.855469 C 12.832031 9.757812 12.675781 9.757812 12.578125 9.855469 L 12.386719 10.046875 C 12.207031 9.917969 12 9.832031 11.773438 9.792969 L 11.773438 9.519531 C 11.773438 9.386719 11.660156 9.273438 11.523438 9.273438 C 11.386719 9.273438 11.277344 9.386719 11.277344 9.519531 L 11.277344 9.789062 C 11.050781 9.828125 10.839844 9.917969 10.664062 10.042969 L 10.472656 9.851562 C 10.375 9.757812 10.21875 9.757812 10.121094 9.851562 C 10.023438 9.949219 10.023438 10.105469 10.121094 10.203125 L 10.3125 10.390625 C 10.1875 10.570312 10.097656 10.777344 10.058594 11.003906 L 9.785156 11.003906 C 9.648438 11.003906 9.535156 11.113281 9.535156 11.25 C 9.535156 11.386719 9.648438 11.5 9.785156 11.5 L 10.054688 11.5 C 10.09375 11.722656 10.179688 11.929688 10.308594 12.109375 L 10.117188 12.300781 C 10.019531 12.394531 10.019531 12.550781 10.117188 12.648438 C 10.167969 12.699219 10.226562 12.71875 10.292969 12.71875 C 10.359375 12.71875 10.417969 12.695312 10.46875 12.648438 L 10.660156 12.457031 C 10.839844 12.585938 11.046875 12.671875 11.273438 12.710938 L 11.273438 12.984375 C 11.273438 13.121094 11.386719 13.234375 11.523438 13.234375 C 11.660156 13.234375 11.769531 13.121094 11.769531 12.984375 L 11.769531 12.714844 C 11.996094 12.679688 12.203125 12.589844 12.382812 12.464844 L 12.574219 12.652344 C 12.625 12.703125 12.6875 12.726562 12.75 12.726562 C 12.816406 12.726562 12.878906 12.699219 12.925781 12.652344 C 13.023438 12.558594 13.023438 12.402344 12.925781 12.304688 L 12.734375 12.113281 C 12.863281 11.9375 12.953125 11.726562 12.988281 11.503906 L 13.261719 11.503906 C 13.394531 11.503906 13.507812 11.390625 13.507812 11.253906 C 13.507812 11.121094 13.394531 11.003906 13.261719 11.003906 Z M 11.523438 12.242188 C 10.972656 12.242188 10.527344 11.800781 10.527344 11.253906 C 10.527344 10.707031 10.972656 10.261719 11.523438 10.261719 C 12.070312 10.261719 12.515625 10.707031 12.515625 11.253906 C 12.515625 11.800781 12.070312 12.242188 11.523438 12.242188 Z M 11.523438 12.242188 "/>
<path style=" stroke:none;fill-rule:evenodd;fill:rgb(0%,0%,0%);fill-opacity:1;" d="M 12.515625 13.726562 C 12.515625 13.589844 12.402344 13.480469 12.265625 13.480469 L 10.03125 13.480469 C 9.894531 13.480469 9.785156 13.589844 9.785156 13.726562 C 9.785156 13.863281 9.894531 13.976562 10.03125 13.976562 L 12.265625 13.976562 C 12.402344 13.976562 12.515625 13.863281 12.515625 13.726562 Z M 12.515625 13.726562 "/>
<path style=" stroke:none;fill-rule:evenodd;fill:rgb(0%,0%,0%);fill-opacity:1;" d="M 13.011719 14.222656 L 11.023438 14.222656 C 10.890625 14.222656 10.777344 14.332031 10.777344 14.46875 C 10.777344 14.605469 10.890625 14.71875 11.023438 14.71875 L 13.011719 14.71875 C 13.148438 14.71875 13.261719 14.605469 13.261719 14.46875 C 13.261719 14.332031 13.148438 14.222656 13.011719 14.222656 Z M 13.011719 14.222656 "/>
<path style=" stroke:none;fill-rule:evenodd;fill:rgb(0%,0%,0%);fill-opacity:1;" d="M 17.976562 13.976562 L 17.230469 13.976562 C 17.09375 13.976562 16.984375 14.085938 16.984375 14.222656 C 16.984375 14.359375 17.09375 14.46875 17.230469 14.46875 L 17.976562 14.46875 C 18.113281 14.46875 18.226562 14.359375 18.226562 14.222656 C 18.226562 14.085938 18.113281 13.976562 17.976562 13.976562 Z M 17.976562 13.976562 "/>
<path style=" stroke:none;fill-rule:evenodd;fill:rgb(0%,0%,0%);fill-opacity:1;" d="M 19.714844 13.976562 L 19.21875 13.976562 C 19.082031 13.976562 18.96875 14.085938 18.96875 14.222656 C 18.96875 14.359375 19.082031 14.46875 19.21875 14.46875 L 19.714844 14.46875 C 19.851562 14.46875 19.964844 14.359375 19.964844 14.222656 C 19.964844 14.085938 19.851562 13.976562 19.714844 13.976562 Z M 19.714844 13.976562 "/>
<path style=" stroke:none;fill-rule:evenodd;fill:rgb(0%,0%,0%);fill-opacity:1;" d="M 15.992188 13.976562 L 15.246094 13.976562 C 15.109375 13.976562 14.996094 14.085938 14.996094 14.222656 C 14.996094 14.359375 15.109375 14.46875 15.246094 14.46875 L 15.992188 14.46875 C 16.128906 14.46875 16.238281 14.359375 16.238281 14.222656 C 16.238281 14.085938 16.128906 13.976562 15.992188 13.976562 Z M 15.992188 13.976562 "/>
</g>
</svg>
