<?xml version="1.0" encoding="UTF-8"?>
<svg xmlns="http://www.w3.org/2000/svg" xmlns:xlink="http://www.w3.org/1999/xlink" width="30px" height="46px" viewBox="0 0 30 46" version="1.1">
<defs>
<clipPath id="clip1">
  <path d="M 7.550781 7 L 22 7 L 22 12 L 7.550781 12 Z M 7.550781 7 "/>
</clipPath>
<clipPath id="clip2">
  <path d="M 7.550781 20 L 16 20 L 16 21 L 7.550781 21 Z M 7.550781 20 "/>
</clipPath>
<clipPath id="clip3">
  <path d="M 16 14 L 22.445312 14 L 22.445312 21 L 16 21 Z M 16 14 "/>
</clipPath>
<clipPath id="clip4">
  <path d="M 17 15 L 22 15 L 22 21.769531 L 17 21.769531 Z M 17 15 "/>
</clipPath>
</defs>
<g id="surface1">
<path style="fill-rule:nonzero;fill:rgb(100%,40.000001%,0%);fill-opacity:1;stroke-width:1;stroke-linecap:round;stroke-linejoin:miter;stroke:rgb(83.137256%,33.333334%,0%);stroke-opacity:1;stroke-miterlimit:4;" d="M 13.040625 0.638587 C 6.25625 0.638587 0.609375 6.287364 0.609375 12.418478 C 0.609375 15.17663 2.224219 18.678668 3.388802 21.097147 L 13 38.828125 L 22.560417 21.097147 C 23.725 18.678668 25.383854 15.353261 25.383854 12.418478 C 25.383854 6.290761 19.828385 0.638587 13.04401 0.638587 Z M 13.040625 2.099185 C 18.934635 2.136549 23.721615 6.756114 23.721615 12.428668 C 23.721615 18.108016 18.938021 22.659647 13.040625 22.700408 C 7.146615 22.663043 2.369792 18.11481 2.369792 12.428668 C 2.369792 6.752717 7.15 2.129755 13.040625 2.099185 Z M 13.040625 2.099185 " transform="matrix(1.153846,0,0,1.15,0,0)"/>
<path style="fill-rule:nonzero;fill:rgb(100%,100%,100%);fill-opacity:1;stroke-width:1.00275;stroke-linecap:butt;stroke-linejoin:miter;stroke:rgb(100%,100%,100%);stroke-opacity:1;stroke-miterlimit:4;" d="M 23.010677 12.374321 C 23.010677 17.703804 18.528385 22.02106 13.003385 22.02106 C 7.478385 22.02106 2.996094 17.703804 2.996094 12.374321 C 2.996094 7.048234 7.478385 2.727582 13.003385 2.727582 C 18.528385 2.727582 23.010677 7.048234 23.010677 12.374321 Z M 23.010677 12.374321 " transform="matrix(1.153846,0,0,1.15,0,0)"/>
<g clip-path="url(#clip1)" clip-rule="nonzero">
<path style=" stroke:none;fill-rule:nonzero;fill:rgb(0%,0%,0%);fill-opacity:1;" d="M 14.347656 7.878906 L 18.988281 10.710938 L 9.703125 10.710938 L 14.347656 7.878906 M 14.347656 7.167969 L 7.550781 11.316406 L 21.140625 11.316406 Z M 14.347656 7.167969 "/>
</g>
<path style=" stroke:none;fill-rule:nonzero;fill:rgb(0%,0%,0%);fill-opacity:1;" d="M 9.167969 12.710938 L 10.40625 12.710938 L 10.40625 18.835938 L 9.167969 18.835938 Z M 9.167969 12.710938 "/>
<path style=" stroke:none;fill-rule:nonzero;fill:rgb(0%,0%,0%);fill-opacity:1;" d="M 11.449219 12.710938 L 12.683594 12.710938 L 12.683594 18.835938 L 11.449219 18.835938 Z M 11.449219 12.710938 "/>
<path style=" stroke:none;fill-rule:nonzero;fill:rgb(0%,0%,0%);fill-opacity:1;" d="M 13.726562 12.710938 L 14.964844 12.710938 L 14.964844 18.835938 L 13.726562 18.835938 Z M 13.726562 12.710938 "/>
<path style=" stroke:none;fill-rule:nonzero;fill:rgb(0%,0%,0%);fill-opacity:1;" d="M 8.566406 11.710938 L 20.125 11.710938 L 20.125 12.316406 L 8.566406 12.316406 Z M 8.566406 11.710938 "/>
<path style=" stroke:none;fill-rule:nonzero;fill:rgb(0%,0%,0%);fill-opacity:1;" d="M 15.085938 9.242188 C 15.085938 9.640625 14.753906 9.964844 14.347656 9.964844 C 13.9375 9.964844 13.605469 9.640625 13.605469 9.242188 C 13.605469 8.84375 13.9375 8.519531 14.347656 8.519531 C 14.753906 8.519531 15.085938 8.84375 15.085938 9.242188 Z M 15.085938 9.242188 "/>
<path style=" stroke:none;fill-rule:nonzero;fill:rgb(0%,0%,0%);fill-opacity:1;" d="M 18.285156 12.710938 L 19.523438 12.710938 L 19.523438 14.148438 L 18.285156 14.148438 Z M 18.285156 12.710938 "/>
<path style=" stroke:none;fill-rule:nonzero;fill:rgb(0%,0%,0%);fill-opacity:1;" d="M 16.007812 12.710938 L 17.242188 12.710938 L 17.242188 14.148438 L 16.007812 14.148438 Z M 16.007812 12.710938 "/>
<path style=" stroke:none;fill-rule:nonzero;fill:rgb(0%,0%,0%);fill-opacity:1;" d="M 8.566406 19.230469 L 15.609375 19.230469 L 15.609375 19.832031 L 8.566406 19.832031 Z M 8.566406 19.230469 "/>
<g clip-path="url(#clip2)" clip-rule="nonzero">
<path style=" stroke:none;fill-rule:nonzero;fill:rgb(0%,0%,0%);fill-opacity:1;" d="M 7.800781 20.222656 L 15.609375 20.222656 L 15.609375 20.828125 L 7.800781 20.828125 Z M 7.800781 20.222656 "/>
</g>
<g clip-path="url(#clip3)" clip-rule="nonzero">
<path style=" stroke:none;fill-rule:nonzero;fill:rgb(0%,0%,0%);fill-opacity:1;" d="M 20.125 20.222656 L 20.125 20.828125 L 22.445312 20.828125 L 22.445312 14.535156 L 16.007812 14.535156 L 16.007812 20.828125 L 18.285156 20.828125 L 18.285156 20.222656 L 16.625 20.222656 L 16.625 15.140625 L 21.828125 15.140625 L 21.828125 20.222656 Z M 20.125 20.222656 "/>
</g>
<g clip-path="url(#clip4)" clip-rule="nonzero">
<path style=" stroke:none;fill-rule:nonzero;fill:rgb(0%,0%,0%);fill-opacity:1;" d="M 20.53125 16.671875 L 20.507812 16.671875 C 20.21875 16.671875 19.960938 16.488281 19.871094 16.21875 L 19.863281 16.195312 C 19.664062 15.59375 18.789062 15.59375 18.589844 16.195312 L 18.582031 16.21875 C 18.492188 16.488281 18.234375 16.671875 17.945312 16.671875 L 17.921875 16.671875 C 17.273438 16.671875 17.003906 17.480469 17.527344 17.855469 L 17.546875 17.867188 C 17.78125 18.035156 17.878906 18.328125 17.789062 18.597656 L 17.78125 18.625 C 17.605469 19.160156 18.144531 19.609375 18.632812 19.441406 L 18.632812 21.523438 L 19.171875 20.882812 L 19.757812 21.523438 L 19.757812 19.410156 C 20.261719 19.644531 20.855469 19.183594 20.671875 18.625 L 20.664062 18.597656 C 20.574219 18.328125 20.671875 18.035156 20.90625 17.867188 L 20.925781 17.855469 C 21.449219 17.480469 21.179688 16.671875 20.53125 16.671875 Z M 19.226562 18.539062 C 18.773438 18.539062 18.410156 18.179688 18.410156 17.738281 C 18.410156 17.296875 18.773438 16.941406 19.226562 16.941406 C 19.679688 16.941406 20.046875 17.296875 20.046875 17.738281 C 20.046875 18.179688 19.679688 18.539062 19.226562 18.539062 Z M 19.226562 18.539062 "/>
</g>
</g>
</svg>
