<?xml version="1.0" encoding="UTF-8"?>
<svg xmlns="http://www.w3.org/2000/svg" xmlns:xlink="http://www.w3.org/1999/xlink" width="30px" height="46px" viewBox="0 0 30 46" version="1.1">
<g id="surface1">
<path style="fill-rule:nonzero;fill:rgb(100%,40.000001%,0%);fill-opacity:1;stroke-width:1;stroke-linecap:round;stroke-linejoin:miter;stroke:rgb(83.137256%,33.333334%,0%);stroke-opacity:1;stroke-miterlimit:4;" d="M 13.040625 0.638587 C 6.25625 0.638587 0.609375 6.287364 0.609375 12.418478 C 0.609375 15.17663 2.224219 18.678668 3.388802 21.097147 L 13 38.828125 L 22.560417 21.097147 C 23.725 18.678668 25.383854 15.353261 25.383854 12.418478 C 25.383854 6.290761 19.828385 0.638587 13.04401 0.638587 Z M 13.040625 2.099185 C 18.934635 2.136549 23.721615 6.756114 23.721615 12.428668 C 23.721615 18.108016 18.938021 22.659647 13.040625 22.700408 C 7.146615 22.663043 2.369792 18.11481 2.369792 12.428668 C 2.369792 6.752717 7.15 2.129755 13.040625 2.099185 Z M 13.040625 2.099185 " transform="matrix(1.153846,0,0,1.15,0,0)"/>
<path style="fill-rule:nonzero;fill:rgb(100%,100%,100%);fill-opacity:1;stroke-width:1.00275;stroke-linecap:butt;stroke-linejoin:miter;stroke:rgb(100%,100%,100%);stroke-opacity:1;stroke-miterlimit:4;" d="M 23.010677 12.374321 C 23.010677 17.703804 18.528385 22.02106 13.003385 22.02106 C 7.478385 22.02106 2.996094 17.703804 2.996094 12.374321 C 2.996094 7.048234 7.478385 2.727582 13.003385 2.727582 C 18.528385 2.727582 23.010677 7.048234 23.010677 12.374321 Z M 23.010677 12.374321 " transform="matrix(1.153846,0,0,1.15,0,0)"/>
<path style=" stroke:none;fill-rule:nonzero;fill:rgb(0%,0%,0%);fill-opacity:1;" d="M 21.960938 12.457031 L 21.148438 13.242188 C 21.148438 13.242188 20.394531 13.855469 19.042969 12.875 L 18.617188 13.730469 L 16.300781 11.476562 L 16.4375 11.40625 L 19.738281 8.550781 L 19.738281 9.765625 Z M 10.949219 11.976562 C 10.433594 11.976562 10.347656 10.550781 9.683594 10.785156 C 9.015625 11.023438 10.394531 12.6875 10.394531 12.6875 L 10.394531 18.152344 C 10.394531 18.484375 10.71875 18.753906 11.113281 18.753906 C 11.507812 18.753906 11.832031 18.484375 11.832031 18.152344 L 11.832031 15.878906 L 16.71875 16.632812 L 16.71875 18.0625 C 16.71875 18.445312 17.042969 18.753906 17.4375 18.753906 C 17.832031 18.753906 18.15625 18.445312 18.15625 18.0625 L 18.15625 14.980469 L 18.289062 14.40625 L 15.84375 11.976562 Z M 13.324219 16.523438 L 12.261719 16.292969 L 12.261719 17.839844 C 12.261719 17.839844 12.296875 18.863281 13.070312 18.773438 C 13.847656 18.683594 13.597656 17.707031 13.597656 17.707031 Z M 13.324219 16.523438 "/>
</g>
</svg>
