<?xml version="1.0" encoding="UTF-8" standalone="no"?>
<svg
   xmlns:dc="http://purl.org/dc/elements/1.1/"
   xmlns:cc="http://creativecommons.org/ns#"
   xmlns:rdf="http://www.w3.org/1999/02/22-rdf-syntax-ns#"
   xmlns:svg="http://www.w3.org/2000/svg"
   xmlns="http://www.w3.org/2000/svg"
   xmlns:sodipodi="http://sodipodi.sourceforge.net/DTD/sodipodi-0.dtd"
   xmlns:inkscape="http://www.inkscape.org/namespaces/inkscape"
   viewBox="0 0 34 34"
   version="1.1"
   x="0px"
   y="0px"
   id="svg16"
   sodipodi:docname="radar-100.svg"
   width="34"
   height="34"
   inkscape:version="0.92.5 (2060ec1f9f, 2020-04-08)">
  <metadata
     id="metadata22">
    <rdf:RDF>
      <cc:Work
         rdf:about="">
        <dc:format>image/svg+xml</dc:format>
        <dc:type
           rdf:resource="http://purl.org/dc/dcmitype/StillImage" />
        <dc:title>Axle Weight Limit</dc:title>
      </cc:Work>
    </rdf:RDF>
  </metadata>
  <defs
     id="defs20" />
  <sodipodi:namedview
     pagecolor="#ffffff"
     bordercolor="#666666"
     borderopacity="1"
     objecttolerance="10"
     gridtolerance="10"
     guidetolerance="10"
     inkscape:pageopacity="0"
     inkscape:pageshadow="2"
     inkscape:window-width="1680"
     inkscape:window-height="974"
     id="namedview18"
     showgrid="false"
     inkscape:zoom="10.680141"
     inkscape:cx="-7.3808844"
     inkscape:cy="23.376706"
     inkscape:window-x="0"
     inkscape:window-y="0"
     inkscape:window-maximized="1"
     inkscape:current-layer="g10" />
  <title
     id="title2">Axle Weight Limit</title>
  <desc
     id="desc4">Created with Sketch.</desc>
  <g
     id="g10"
     style="fill:none;fill-rule:evenodd;stroke:none;stroke-width:1"
     transform="translate(0,-91)">
    <circle
       style="fill:#ffffff;fill-rule:evenodd;stroke:#ffffff;stroke-width:0.85196865"
       id="path132"
       cx="17"
       cy="108"
       r="16.153688" />
    <path
       d="m 16.999999,124.70532 c -9.2260922,0 -16.7053177,-7.47922 -16.7053177,-16.70531 0,-9.2261 7.4792255,-16.705326 16.7053177,-16.705326 9.226093,0 16.70532,7.479226 16.70532,16.705326 0,9.22609 -7.479227,16.70531 -16.70532,16.70531 z m 0,-0.39307 c 9.009009,0 16.312253,-7.30323 16.312253,-16.31224 0,-9.009016 -7.303244,-16.312261 -16.312253,-16.312261 -9.0090075,0 -16.31225133,7.303245 -16.31225133,16.312261 0,9.00901 7.30324383,16.31224 16.31225133,16.31224 z m 0,-4.1665 c 6.707914,0 12.14575,-5.43783 12.14575,-12.14574 0,-6.70792 -5.437836,-12.145758 -12.14575,-12.145758 -6.707912,0 -12.1457487,5.437838 -12.1457487,12.145758 0,6.70791 5.4378367,12.14574 12.1457487,12.14574 z m 0,3.53761 c -8.6616724,0 -15.6833452,-7.02168 -15.6833452,-15.68335 0,-8.661681 7.0216728,-15.683355 15.6833452,-15.683355 8.661675,0 15.683346,7.021674 15.683346,15.683355 0,8.66167 -7.021671,15.68335 -15.683346,15.68335 z"
       id="path8"
       style="fill:#ff0000;fill-rule:nonzero;stroke-width:0.39774567"
       inkscape:connector-curvature="0" />
    <text
       xml:space="preserve"
       style="font-style:normal;font-weight:normal;font-size:34.0787468px;line-height:1.25;font-family:sans-serif;letter-spacing:0px;word-spacing:0px;fill:#000000;fill-opacity:1;stroke:none;stroke-width:0.85196865"
       x="16.706917"
       y="112.73013"
       id="text26"><tspan
         sodipodi:role="line"
         id="tspan24"
         x="16.706917"
         y="112.73013"
         style="font-style:normal;font-variant:normal;font-weight:normal;font-stretch:normal;font-size:13.63149834px;font-family:Ubuntu;-inkscape-font-specification:Ubuntu;text-align:center;text-anchor:middle;stroke-width:0.85196865">100</tspan></text>
  </g>
</svg>
