<?xml version="1.0" encoding="UTF-8" standalone="no"?>
<svg
   xmlns:dc="http://purl.org/dc/elements/1.1/"
   xmlns:cc="http://creativecommons.org/ns#"
   xmlns:rdf="http://www.w3.org/1999/02/22-rdf-syntax-ns#"
   xmlns:svg="http://www.w3.org/2000/svg"
   xmlns="http://www.w3.org/2000/svg"
   xmlns:sodipodi="http://sodipodi.sourceforge.net/DTD/sodipodi-0.dtd"
   xmlns:inkscape="http://www.inkscape.org/namespaces/inkscape"
   version="1.1"
   x="0px"
   y="0px"
   viewBox="-6.412 -17.19 34 34"
   enable-background="new -6.412 -17.19 100 100"
   xml:space="preserve"
   id="svg24"
   sodipodi:docname="radar.svg"
   width="34"
   height="34"
   inkscape:version="0.92.5 (2060ec1f9f, 2020-04-08)"><metadata
     id="metadata30"><rdf:RDF><cc:Work
         rdf:about=""><dc:format>image/svg+xml</dc:format><dc:type
           rdf:resource="http://purl.org/dc/dcmitype/StillImage" /><dc:title></dc:title></cc:Work></rdf:RDF></metadata><defs
     id="defs28" /><sodipodi:namedview
     pagecolor="#ffffff"
     bordercolor="#666666"
     borderopacity="1"
     objecttolerance="10"
     gridtolerance="10"
     guidetolerance="10"
     inkscape:pageopacity="0"
     inkscape:pageshadow="2"
     inkscape:window-width="1680"
     inkscape:window-height="974"
     id="namedview26"
     showgrid="false"
     inkscape:zoom="7.552"
     inkscape:cx="23.145791"
     inkscape:cy="29.666138"
     inkscape:window-x="0"
     inkscape:window-y="0"
     inkscape:window-maximized="1"
     inkscape:current-layer="svg24" /><circle
     style="fill:#ffffff;stroke:#ffffff;stroke-width:0.85143054"
     id="path19"
     cx="10.588"
     cy="-0.19"
     r="16.234903" /><g
     id="g56"
     transform="matrix(0.19256002,0,0,0.19256002,2.2040328,-6.5077979)"><path
       id="path2"
       d="m 55.768,42.167 c -0.803,-0.353 -1.685,-0.548 -2.615,-0.548 -2.254,0 -4.232,1.127 -5.417,2.851 l -4.018,-13.696 8.024,-2.352 z"
       inkscape:connector-curvature="0" /><polygon
       id="polygon4"
       points="6.243,26.212 9.195,25.348 10.05,26.077 12.633,34.921 9.096,35.957 " /><polygon
       id="polygon6"
       points="66.445,17.32 68.135,23.103 51.519,27.966 43.423,30.339 14.38,38.84 13.688,36.467 10.851,26.76 16.743,31.871 20.351,30.813 " /><polygon
       id="polygon8"
       points="66.006,16.915 20.468,30.245 16.903,31.29 11.083,26.241 10.155,25.45 1.522,17.969 62.911,0 67.715,16.417 " /><polygon
       id="polygon10"
       points="8.514,35.914 9.036,37.695 3.771,39.234 0,26.339 5.265,24.8 5.661,26.168 " /><path
       id="path12"
       d="m 81.249,44.727 v 7.826 h -23.12 c 1.008,-1.143 1.617,-2.645 1.617,-4.281 0,-1.308 -0.388,-2.528 -1.056,-3.545 z"
       inkscape:connector-curvature="0" /><path
       id="path14"
       d="m 59.22,48.25 c 0,1.516 -0.565,2.907 -1.498,3.967 -1.095,1.255 -2.711,2.046 -4.515,2.046 -3.329,0 -6.013,-2.692 -6.013,-6.013 0,-1.266 0.387,-2.433 1.051,-3.401 1.086,-1.579 2.898,-2.611 4.962,-2.611 0.854,0 1.661,0.18 2.396,0.502 1.086,0.467 2.001,1.248 2.638,2.227 0.62,0.942 0.979,2.071 0.979,3.283 z"
       inkscape:connector-curvature="0" /><rect
       id="rect16"
       height="34.569"
       width="5.1799998"
       y="31.049999"
       x="81.899002" /></g><polygon
     display="none"
     points="6.554,28.089 10.358,26.977 10.645,27.965 12.707,35.002 13.084,36.29 9.279,37.402 "
     id="polygon18"
     style="display:none"
     transform="translate(0,-91)" /><path
     d="m 10.587999,16.504764 c -9.2202593,0 -16.6947635,-7.4744955 -16.6947635,-16.6947552 0,-9.2202715 7.4745042,-16.6947738 16.6947635,-16.6947738 9.220269,0 16.694765,7.4745023 16.694765,16.6947738 0,9.2202597 -7.474496,16.6947552 -16.694765,16.6947552 z m 0,-0.392824 c 9.003316,0 16.301949,-7.2986155 16.301949,-16.3019312 0,-9.0033245 -7.298633,-16.3019548 -16.301949,-16.3019548 -9.0033149,0 -16.3019475,7.2986303 -16.3019475,16.3019548 0,9.0033157 7.2986326,16.3019312 16.3019475,16.3019312 z m 0,-4.163862 c 6.703679,0 12.138079,-5.4343995 12.138079,-12.1380692 0,-6.7036822 -5.4344,-12.1380848 -12.138079,-12.1380848 -6.7036777,0 -12.1380777,5.4344026 -12.1380777,12.1380848 0,6.7036697 5.4344,12.1380692 12.1380777,12.1380692 z m 0,3.535371 c -8.6562037,0 -15.6734385,-7.0172445 -15.6734385,-15.6734402 0,-8.656209 7.0172348,-15.6734468 15.6734385,-15.6734468 8.656205,0 15.67344,7.0172378 15.67344,15.6734468 0,8.6561957 -7.017235,15.6734402 -15.67344,15.6734402 z"
     id="path8"
     style="fill:#ff0000;fill-rule:nonzero;stroke:none;stroke-width:0.39749444"
     inkscape:connector-curvature="0" /></svg>