<?xml version="1.0" encoding="UTF-8" standalone="no"?>
<svg
   xmlns:dc="http://purl.org/dc/elements/1.1/"
   xmlns:cc="http://creativecommons.org/ns#"
   xmlns:rdf="http://www.w3.org/1999/02/22-rdf-syntax-ns#"
   xmlns:svg="http://www.w3.org/2000/svg"
   xmlns="http://www.w3.org/2000/svg"
   xmlns:sodipodi="http://sodipodi.sourceforge.net/DTD/sodipodi-0.dtd"
   xmlns:inkscape="http://www.inkscape.org/namespaces/inkscape"
   version="1.1"
   x="0px"
   y="0px"
   viewBox="-6.412 -17.19 40 40"
   enable-background="new -6.412 -17.19 100 100"
   xml:space="preserve"
   id="svg24"
   sodipodi:docname="radar.svg"
   width="40"
   height="40"
   inkscape:version="0.92.5 (2060ec1f9f, 2020-04-08)"><metadata
     id="metadata30"><rdf:RDF><cc:Work
         rdf:about=""><dc:format>image/svg+xml</dc:format><dc:type
           rdf:resource="http://purl.org/dc/dcmitype/StillImage" /><dc:title /></cc:Work></rdf:RDF></metadata><defs
     id="defs28" /><sodipodi:namedview
     pagecolor="#ffffff"
     bordercolor="#666666"
     borderopacity="1"
     objecttolerance="10"
     gridtolerance="10"
     guidetolerance="10"
     inkscape:pageopacity="0"
     inkscape:pageshadow="2"
     inkscape:window-width="1440"
     inkscape:window-height="824"
     id="namedview26"
     showgrid="false"
     inkscape:zoom="7.552"
     inkscape:cx="40.492189"
     inkscape:cy="29.666138"
     inkscape:window-x="0"
     inkscape:window-y="0"
     inkscape:window-maximized="1"
     inkscape:current-layer="svg24" /><circle
     style="fill:#ffffff;stroke:#ffffff"
     id="path19"
     cx="13.588"
     cy="2.8099999"
     r="19.067797" /><g
     id="g56"
     transform="matrix(0.22616058,0,0,0.22616058,3.7410812,-4.6102155)"><path
       id="path2"
       d="m 55.768,42.167 c -0.803,-0.353 -1.685,-0.548 -2.615,-0.548 -2.254,0 -4.232,1.127 -5.417,2.851 l -4.018,-13.696 8.024,-2.352 z"
       inkscape:connector-curvature="0" /><polygon
       id="polygon4"
       points="12.633,34.921 9.096,35.957 6.243,26.212 9.195,25.348 10.05,26.077 " /><polygon
       id="polygon6"
       points="51.519,27.966 43.423,30.339 14.38,38.84 13.688,36.467 10.851,26.76 16.743,31.871 20.351,30.813 66.445,17.32 68.135,23.103 " /><polygon
       id="polygon8"
       points="20.468,30.245 16.903,31.29 11.083,26.241 10.155,25.45 1.522,17.969 62.911,0 67.715,16.417 66.006,16.915 " /><polygon
       id="polygon10"
       points="5.661,26.168 8.514,35.914 9.036,37.695 3.771,39.234 0,26.339 5.265,24.8 " /><path
       id="path12"
       d="m 81.249,44.727 v 7.826 h -23.12 c 1.008,-1.143 1.617,-2.645 1.617,-4.281 0,-1.308 -0.388,-2.528 -1.056,-3.545 z"
       inkscape:connector-curvature="0" /><path
       id="path14"
       d="m 59.22,48.25 c 0,1.516 -0.565,2.907 -1.498,3.967 -1.095,1.255 -2.711,2.046 -4.515,2.046 -3.329,0 -6.013,-2.692 -6.013,-6.013 0,-1.266 0.387,-2.433 1.051,-3.401 1.086,-1.579 2.898,-2.611 4.962,-2.611 0.854,0 1.661,0.18 2.396,0.502 1.086,0.467 2.001,1.248 2.638,2.227 0.62,0.942 0.979,2.071 0.979,3.283 z"
       inkscape:connector-curvature="0" /><rect
       id="rect16"
       height="34.569"
       width="5.1799998"
       y="31.049999"
       x="81.899002" /></g><polygon
     display="none"
     points="10.645,27.965 12.707,35.002 13.084,36.29 9.279,37.402 6.554,28.089 10.358,26.977 "
     id="polygon18"
     style="display:none"
     transform="translate(0,-85)" /><path
     d="M 13.588,22.4179 C 2.75886,22.4179 -6.0199,13.63915 -6.0199,2.8100102 -6.0199,-8.019143 2.75886,-16.7979 13.588,-16.7979 c 10.82915,0 19.6079,8.778757 19.6079,19.6079102 C 33.1959,13.63915 24.41715,22.4179 13.588,22.4179 Z m 0,-0.46137 c 10.57434,0 19.14654,-8.57218 19.14654,-19.1465198 0,-10.5743502 -8.5722,-19.1465482 -19.14654,-19.1465482 -10.57434,0 -19.14654,8.572198 -19.14654,19.1465482 0,10.5743398 8.5722,19.1465198 19.14654,19.1465198 z m 0,-4.89043 c 7.87343,0 14.2561,-6.38267 14.2561,-14.2560898 0,-7.8734342 -6.38267,-14.2561062 -14.2561,-14.2561062 -7.87343,0 -14.2561,6.382672 -14.2561,14.2561062 0,7.8734198 6.38267,14.2560898 14.2561,14.2560898 z m 0,4.15227 c -10.16666,0 -18.40836,-8.24171 -18.40836,-18.4083598 0,-10.1666652 8.2417,-18.4083682 18.40836,-18.4083682 10.16666,0 18.40836,8.241703 18.40836,18.4083682 0,10.1666498 -8.2417,18.4083598 -18.40836,18.4083598 z"
     id="path8"
     style="fill:#ff0000;fill-rule:nonzero;stroke:none;stroke-width:0.46685481"
     inkscape:connector-curvature="0" /></svg>