<?xml version="1.0" encoding="UTF-8" standalone="no"?>
<svg
   xmlns:dc="http://purl.org/dc/elements/1.1/"
   xmlns:cc="http://creativecommons.org/ns#"
   xmlns:rdf="http://www.w3.org/1999/02/22-rdf-syntax-ns#"
   xmlns:svg="http://www.w3.org/2000/svg"
   xmlns="http://www.w3.org/2000/svg"
   xmlns:sodipodi="http://sodipodi.sourceforge.net/DTD/sodipodi-0.dtd"
   xmlns:inkscape="http://www.inkscape.org/namespaces/inkscape"
   viewBox="0 0 40 40"
   version="1.1"
   x="0px"
   y="0px"
   id="svg16"
   sodipodi:docname="radar-70.svg"
   width="40"
   height="40"
   inkscape:version="0.92.5 (2060ec1f9f, 2020-04-08)">
  <metadata
     id="metadata22">
    <rdf:RDF>
      <cc:Work
         rdf:about="">
        <dc:format>image/svg+xml</dc:format>
        <dc:type
           rdf:resource="http://purl.org/dc/dcmitype/StillImage" />
        <dc:title>Axle Weight Limit</dc:title>
      </cc:Work>
    </rdf:RDF>
  </metadata>
  <defs
     id="defs20" />
  <sodipodi:namedview
     pagecolor="#ffffff"
     bordercolor="#666666"
     borderopacity="1"
     objecttolerance="10"
     gridtolerance="10"
     guidetolerance="10"
     inkscape:pageopacity="0"
     inkscape:pageshadow="2"
     inkscape:window-width="1440"
     inkscape:window-height="824"
     id="namedview18"
     showgrid="false"
     inkscape:zoom="10.680141"
     inkscape:cx="4.8848713"
     inkscape:cy="23.376706"
     inkscape:window-x="0"
     inkscape:window-y="0"
     inkscape:window-maximized="1"
     inkscape:current-layer="g10" />
  <title
     id="title2">Axle Weight Limit</title>
  <desc
     id="desc4">Created with Sketch.</desc>
  <g
     id="g10"
     style="fill:none;fill-rule:evenodd;stroke:none;stroke-width:1"
     transform="translate(0,-85)">
    <circle
       style="fill:#ffffff;fill-rule:evenodd;stroke:#ffffff;stroke-width:1"
       id="path132"
       cx="20"
       cy="105"
       r="18.960424" />
    <path
       d="m 19.999999,124.6079 c -10.829145,0 -19.6079014,-8.77875 -19.6079014,-19.60789 0,-10.829153 8.7787564,-19.60791 19.6079014,-19.60791 10.829145,0 19.607903,8.778757 19.607903,19.60791 0,10.82914 -8.778758,19.60789 -19.607903,19.60789 z m 0,-0.46137 c 10.574342,0 19.14654,-8.57218 19.14654,-19.14652 0,-10.57435 -8.572198,-19.146548 -19.14654,-19.146548 -10.5743413,0 -19.14653893,8.572198 -19.14653893,19.146548 0,10.57434 8.57219763,19.14652 19.14653893,19.14652 z m 0,-4.89043 c 7.873427,0 14.256099,-6.38267 14.256099,-14.25609 0,-7.873434 -6.382672,-14.256106 -14.256099,-14.256106 -7.873426,0 -14.2560978,6.382672 -14.2560978,14.256106 0,7.87342 6.3826718,14.25609 14.2560978,14.25609 z m 0,4.15227 c -10.1666561,0 -18.4083591,-8.24171 -18.4083591,-18.40836 0,-10.166665 8.241703,-18.408368 18.4083591,-18.408368 10.166658,0 18.40836,8.241703 18.40836,18.408368 0,10.16665 -8.241702,18.40836 -18.40836,18.40836 z"
       id="path8"
       style="fill:#ff0000;fill-rule:nonzero;stroke-width:0.46685481"
       inkscape:connector-curvature="0" />
    <text
       xml:space="preserve"
       style="font-style:normal;font-weight:normal;font-size:40px;line-height:1.25;font-family:sans-serif;letter-spacing:0px;word-spacing:0px;fill:#000000;fill-opacity:1;stroke:none"
       x="19.655993"
       y="110.552"
       id="text26"><tspan
         sodipodi:role="line"
         id="tspan24"
         x="19.655993"
         y="110.552"
         style="font-style:normal;font-variant:normal;font-weight:normal;font-stretch:normal;font-size:16px;font-family:Ubuntu;-inkscape-font-specification:Ubuntu;text-align:center;text-anchor:middle">70</tspan></text>
  </g>
</svg>
