<?xml version="1.0" encoding="UTF-8" standalone="no"?>
<svg
   xmlns:dc="http://purl.org/dc/elements/1.1/"
   xmlns:cc="http://creativecommons.org/ns#"
   xmlns:rdf="http://www.w3.org/1999/02/22-rdf-syntax-ns#"
   xmlns:svg="http://www.w3.org/2000/svg"
   xmlns="http://www.w3.org/2000/svg"
   xmlns:sodipodi="http://sodipodi.sourceforge.net/DTD/sodipodi-0.dtd"
   xmlns:inkscape="http://www.inkscape.org/namespaces/inkscape"
   version="1.1"
   x="0px"
   y="0px"
   viewBox="0 0 100 100"
   xml:space="preserve"
   id="svg2"
   inkscape:version="0.91 r13725"
   sodipodi:docname="Alpine Hut.svg"
   width="100"
   height="100"><metadata
     id="metadata16"><rdf:RDF><cc:Work
         rdf:about=""><dc:format>image/svg+xml</dc:format><dc:type
           rdf:resource="http://purl.org/dc/dcmitype/StillImage" /><dc:title></dc:title></cc:Work></rdf:RDF></metadata><defs
     id="defs14" /><sodipodi:namedview
     pagecolor="#ffffff"
     bordercolor="#666666"
     borderopacity="1"
     objecttolerance="10"
     gridtolerance="10"
     guidetolerance="10"
     inkscape:pageopacity="0"
     inkscape:pageshadow="2"
     inkscape:window-width="640"
     inkscape:window-height="480"
     id="namedview12"
     showgrid="false"
     inkscape:zoom="1.888"
     inkscape:cx="50"
     inkscape:cy="62.5"
     inkscape:window-x="0"
     inkscape:window-y="0"
     inkscape:window-maximized="0"
     inkscape:current-layer="svg2" /><path
     d="m 0.62878247,99.828151 c 0.17678548,0.08839 0.36602065,0.129477 0.55152093,0.129477 0.4581483,0 0.900112,-0.253974 1.1154915,-0.692203 L 29.697546,44.008756 35.431869,56.889197 c 0.20044,0.450679 0.646139,0.739511 1.137901,0.739511 0.491763,0 0.937461,-0.288832 1.136656,-0.738266 l 5.443001,-12.219363 5.436777,12.219363 c 0.200439,0.449434 0.646138,0.738266 1.137901,0.738266 0.491762,0 0.937461,-0.288832 1.136656,-0.738266 l 5.44549,-12.223098 5.449226,12.223098 c 0.199195,0.448189 0.646139,0.738266 1.136656,0.738266 0.490518,0 0.937461,-0.288832 1.136656,-0.738266 L 69.583838,44.427065 97.30181,99.27414 c 0.220359,0.433249 0.658588,0.683488 1.114247,0.683488 0.18799,0 0.38096,-0.04357 0.560235,-0.133212 0.61377,-0.309997 0.859028,-1.059468 0.549031,-1.673237 L 50.448676,1.0436573 C 50.237031,0.624103 49.807517,0.36016949 49.338164,0.36016949 c -0.0012,0 -0.0037,0 -0.005,0 -0.471843,0.001245 -0.901357,0.26891338 -1.110512,0.69220261 L 39.456852,18.727186 c -1.246214,-3.428642 -4.52795,-5.889944 -8.381126,-5.889944 -3.234428,0 -6.191227,1.770344 -7.754907,4.526704 -0.961116,-0.459393 -2.011869,-0.698427 -3.097481,-0.698427 -2.883347,0 -5.471636,1.729261 -6.613272,4.311325 -0.09711,-0.0037 -0.19048,-0.005 -0.285097,-0.005 -4.9201151,0 -8.9239329,4.002573 -8.9239329,8.922687 0,4.920115 4.0038178,8.922687 8.9239329,8.922687 l 16.169647,0 -29.42855917,59.342656 c -0.30626218,0.615014 -0.05353363,1.361995 0.56272564,1.668257 z M 6.8897276,29.897041 c 0,-3.546914 2.8858363,-6.432751 6.4339964,-6.432751 0.321202,0 0.634934,0.03237 0.944931,0.07843 0.621239,0.09213 1.215089,-0.293812 1.381914,-0.900112 0.566461,-2.051707 2.446363,-3.484666 4.571524,-3.484666 1.047018,0 2.044237,0.339877 2.882101,0.983525 0.314977,0.241524 0.724572,0.318712 1.108022,0.20791 0.38096,-0.112047 0.685977,-0.39839 0.820434,-0.77188 0.918786,-2.540981 3.346474,-4.247832 6.043076,-4.247832 3.548159,0 6.433995,2.885836 6.433995,6.432751 0,0.602564 -0.08839,1.211354 -0.263933,1.808939 -0.113292,0.387185 -0.03237,0.803004 0.216625,1.119226 0.248993,0.316222 0.631198,0.478068 1.037058,0.474333 0.0087,0 0.246504,-0.01369 0.255219,-0.01494 3.082541,0 5.589907,2.508611 5.589907,5.591153 0,2.965514 -2.321866,5.413121 -5.286135,5.573722 -0.0498,0.0025 -0.09835,0.0087 -0.146906,0.01743 l -25.587832,0 C 9.7755639,36.329792 6.8897276,33.443956 6.8897276,29.897041 Z M 39.1232,38.819728 c 0.0996,0 0.196705,-0.01245 0.291323,-0.0361 4.178113,-0.338631 7.42001,-3.829522 7.42001,-8.043739 0,-3.956509 -2.864672,-7.238246 -6.624476,-7.929203 L 49.349369,4.386397 68.137184,41.562393 62.893378,53.326098 57.444152,41.101755 c -0.199194,-0.448188 -0.646138,-0.738266 -1.136656,-0.738266 -0.490517,0 -0.937461,0.288833 -1.136656,0.738266 L 49.726594,53.322363 44.288573,41.101755 c -0.20044,-0.449433 -0.646138,-0.738266 -1.137901,-0.738266 -0.491762,0 -0.937461,0.288833 -1.136656,0.738266 l -5.443001,12.220608 -5.435531,-12.208158 1.137901,-2.294477 6.849815,0 z"
     id="path4"
     inkscape:connector-curvature="0" /><path
     d="m 73.882713,25.598166 19.615719,0 c 0.09213,0 0.18301,-0.01 0.271403,-0.02988 3.319085,-0.282608 5.8887,-3.060132 5.8887,-6.411587 0,-3.13234 -2.248413,-5.750508 -5.213927,-6.324438 0.01245,-0.166826 0.01867,-0.334897 0.01867,-0.501723 0,-3.9054651 -3.177158,-7.082624 -7.081379,-7.082624 -2.474997,0 -4.745819,1.3047267 -6.018176,3.3589242 -0.700917,-0.2950574 -1.456613,-0.4481885 -2.234718,-0.4481885 -2.243433,0 -4.262771,1.3047267 -5.216417,3.2742663 -0.01,0 -0.01867,0 -0.02739,0 -3.905466,0 -7.081379,3.177159 -7.081379,7.082625 0,3.905465 3.174668,7.082624 7.078889,7.082624 z m 0,-11.674067 c 0.229074,0 0.453168,0.02365 0.672283,0.05602 0.617504,0.0996 1.217579,-0.292567 1.384404,-0.900112 0.394655,-1.430468 1.705607,-2.430178 3.188364,-2.430178 0.730796,0 1.426733,0.236544 2.010624,0.685978 0.314977,0.242768 0.724571,0.319956 1.108021,0.206664 0.380961,-0.110802 0.685978,-0.39839 0.820434,-0.77188 0.654854,-1.8139187 2.389094,-3.0327426 4.313815,-3.0327426 2.532266,0 4.591443,2.0604224 4.591443,4.5926876 0,0.432005 -0.06349,0.866498 -0.186745,1.289788 -0.114537,0.38594 -0.03361,0.803004 0.214134,1.119226 0.248994,0.316222 0.633689,0.493007 1.035814,0.475578 0.01,0 0.17305,-0.01 0.181765,-0.01121 2.178695,0 3.951529,1.772835 3.951529,3.951529 0,2.096527 -1.640868,3.827033 -3.736149,3.93908 -0.04108,0.0025 -0.08217,0.0062 -0.123252,0.01245 l -19.426484,0 c -2.532266,0 -4.591443,-2.060422 -4.591443,-4.592687 0,-2.532266 2.059177,-4.590198 4.591443,-4.590198 z"
     id="path6"
     inkscape:connector-curvature="0" /></svg>