<?xml version="1.0" encoding="UTF-8" standalone="no"?>
<svg
   xmlns:dc="http://purl.org/dc/elements/1.1/"
   xmlns:cc="http://creativecommons.org/ns#"
   xmlns:rdf="http://www.w3.org/1999/02/22-rdf-syntax-ns#"
   xmlns:svg="http://www.w3.org/2000/svg"
   xmlns="http://www.w3.org/2000/svg"
   xmlns:sodipodi="http://sodipodi.sourceforge.net/DTD/sodipodi-0.dtd"
   xmlns:inkscape="http://www.inkscape.org/namespaces/inkscape"
   version="1.1"
   x="0px"
   y="0px"
   viewBox="-120 78.1 71.22705 70.310293"
   xml:space="preserve"
   id="svg2"
   inkscape:version="0.48.4 r9939"
   width="100%"
   height="100%"
   sodipodi:docname="Theatre.svg"><metadata
     id="metadata18"><rdf:RDF><cc:Work
         rdf:about=""><dc:format>image/svg+xml</dc:format><dc:type
           rdf:resource="http://purl.org/dc/dcmitype/StillImage" /><dc:title></dc:title></cc:Work></rdf:RDF></metadata><defs
     id="defs16" /><sodipodi:namedview
     pagecolor="#ffffff"
     bordercolor="#666666"
     borderopacity="1"
     objecttolerance="10"
     gridtolerance="10"
     guidetolerance="10"
     inkscape:pageopacity="0"
     inkscape:pageshadow="2"
     inkscape:window-width="725"
     inkscape:window-height="735"
     id="namedview14"
     showgrid="false"
     fit-margin-top="0"
     fit-margin-left="0"
     fit-margin-right="0"
     fit-margin-bottom="0"
     inkscape:zoom="2.6700352"
     inkscape:cx="42.064271"
     inkscape:cy="35.6008"
     inkscape:window-x="137"
     inkscape:window-y="103"
     inkscape:window-maximized="0"
     inkscape:current-layer="g3032" /><g
     id="g3032"
     transform="translate(-120.27295,77.210294)"><g
       id="g3016"><path
         id="path3018"
         d="m 69.3,64.5 c 0.4,-3.1 0.9,-6.9 0.7,-7.4 -0.2,-0.6 -3.2,-1.9 -4.9,-2.5 -0.8,-0.3 -1.3,-1 -1.3,-1.9 V 40.1 c 0,-0.5 -0.2,-1 -0.5,-1.3 L 55.5,30 C 55.2,29.6 55,29.2 55,28.7 V 6.2 C 55,5.8 54.9,5.5 54.7,5.2 L 52.8,1.9 C 51.9,0.3 49.5,0.7 49.1,2.4 L 45.2,18 c -0.2,0.9 -1,1.5 -2,1.5 h -1.4 c -1,0 -1.8,0.7 -2,1.7 L 33,64.5 H 0.5 v 6.7 h 71 v -6.7 h -2.2 z"
         inkscape:connector-curvature="0"
         style="fill:#000000" /><path
         id="path3020"
         d="m 12.9,10 c 1.4,1.7 3.1,2.5 5.2,2.8 1,0.1 2.1,0.4 3.1,0.9 1.6,0.9 3.1,1.9 4.5,3 4.4,3.4 7.2,7.8 8,13.4 0,0.1 0,0.2 0,0.3 -0.2,0.8 -1.2,0.9 -1.6,0.2 0,-0.1 -0.1,-0.1 -0.1,-0.2 -0.8,-2.1 -1.9,-4 -3.8,-5.4 -3.5,-2.5 -6.9,-1.9 -9.1,1.9 -0.4,0.7 -0.8,1.4 -1.2,2.1 -0.2,0.4 -0.7,0.7 -1.2,0.7 -0.3,0 -0.6,0.1 -0.7,0.4 -3.1,5.6 -6.3,11.3 -9.4,17 0,0.1 -0.1,0.1 -0.1,0.2 -0.4,0.8 -1.3,1.3 -2.2,1 C 3,48 1.9,47.4 0.9,46.4 0.3,45.8 0,45.2 0.6,44.3 3.9,38.5 7.1,32.7 10.3,26.9 c 0.1,-0.2 0.1,-0.5 0,-0.8 -0.1,-0.3 -0.1,-0.6 0,-0.9 0.3,-0.9 0.6,-1.8 0.6,-2.7 C 11,21.3 10.8,19.9 10.2,19 9.8,18.4 8.9,18 8.1,17.7 7.6,17.5 7.4,16.9 7.7,16.4 l 3.4,-6.2 C 11.7,9.6 12.5,9.5 12.9,10 z"
         inkscape:connector-curvature="0"
         style="fill:#000000" /></g></g></svg>