<?xml version="1.0" encoding="UTF-8" standalone="no"?>
<svg
   xmlns:dc="http://purl.org/dc/elements/1.1/"
   xmlns:cc="http://creativecommons.org/ns#"
   xmlns:rdf="http://www.w3.org/1999/02/22-rdf-syntax-ns#"
   xmlns:svg="http://www.w3.org/2000/svg"
   xmlns="http://www.w3.org/2000/svg"
   xmlns:sodipodi="http://sodipodi.sourceforge.net/DTD/sodipodi-0.dtd"
   xmlns:inkscape="http://www.inkscape.org/namespaces/inkscape"
   version="1.1"
   x="0px"
   y="0px"
   viewBox="0 0 38.944271 48.224207"
   enable-background="new 0 0 100 100"
   xml:space="preserve"
   id="svg2"
   inkscape:version="0.48.4 r9939"
   width="100%"
   height="100%"
   sodipodi:docname="Art Center.svg"><metadata
     id="metadata30"><rdf:RDF><cc:Work
         rdf:about=""><dc:format>image/svg+xml</dc:format><dc:type
           rdf:resource="http://purl.org/dc/dcmitype/StillImage" /><dc:title></dc:title></cc:Work></rdf:RDF></metadata><defs
     id="defs28"><style
       id="style10827"
       type="text/css">
   
    .fil1 {fill:none}
    .fil0 {fill:black}
    .fil2 {fill:black;fill-rule:nonzero}
   
  </style><style
       id="style11273"
       type="text/css">
   
    .str3 {stroke:#0A0B0C;stroke-width:0.755909}
    .str2 {stroke:#0A0B0C;stroke-width:2.83466}
    .str1 {stroke:#0A0B0C;stroke-width:3.77955}
    .str0 {stroke:#0A0B0C;stroke-width:5.66932}
    .fil0 {fill:none}
    .fil1 {fill:#0A0B0C}
    .fil2 {fill:white}
   
  </style></defs><sodipodi:namedview
     pagecolor="#ffffff"
     bordercolor="#666666"
     borderopacity="1"
     objecttolerance="10"
     gridtolerance="10"
     guidetolerance="10"
     inkscape:pageopacity="0"
     inkscape:pageshadow="2"
     inkscape:window-width="993"
     inkscape:window-height="812"
     id="namedview26"
     showgrid="false"
     fit-margin-top="0"
     fit-margin-left="0"
     fit-margin-right="0"
     fit-margin-bottom="0"
     inkscape:zoom="5.12"
     inkscape:cx="11.470115"
     inkscape:cy="-4.1221588"
     inkscape:window-x="74"
     inkscape:window-y="59"
     inkscape:window-maximized="0"
     inkscape:current-layer="g12386" /><g
     id="g3217"
     transform="translate(-1266.7205,7681.9836)"><g
       id="g3355"
       transform="translate(0.52596752,-1.51338)"><g
         id="g3394"
         transform="translate(-1.304037,6.1068216)"><g
           id="g3432"
           transform="translate(1.3243604,-7.0685396)"><g
             id="g3490"
             transform="translate(14.50543,16.201175)"><g
               id="g3544"
               transform="translate(1.7832223,7.9070624)"><g
                 id="g3595"
                 transform="translate(9.5264836,-0.46901412)"><g
                   id="g3646"
                   transform="translate(-52.35165,-3.5880634)"><g
                     id="g3767"
                     transform="translate(6.0048559,8.7552768)"><g
                       id="g4075"
                       transform="translate(0.55239017,0.07303033)"><g
                         id="g4264"
                         transform="translate(3.0880737,-2.6377741)"><g
                           id="g4355"
                           transform="translate(8.4601992,5.328404)"><g
                             id="g4421"
                             transform="translate(-6.5255081,7.0858766)"><g
                               id="g4462"
                               transform="translate(25.518018,13.531166)"><g
                                 id="g4500"
                                 transform="translate(80.26127,-61.023322)"><g
                                   id="g5344"
                                   transform="translate(-17.614831,53.929153)"><g
                                   id="g5294"
                                   display="none"
                                   style="display:none"><rect
                                   id="rect5296"
                                   height="196"
                                   width="394.5"
                                   display="inline"
                                   y="-80.754997"
                                   x="-43.5"
                                   style="fill:#000000;display:inline" /></g><g
                                   id="g5316"
                                   display="none"
                                   style="display:none"><g
                                   id="g5318"
                                   display="inline"
                                   style="display:inline"><path
                                   id="path5320"
                                   d="M 1.581,10.718 H 30.418 L 16,1.051 1.581,10.718 z M 17.592,6.594 c 0,0.879 -0.713,1.592 -1.592,1.592 -0.879,0 -1.592,-0.713 -1.592,-1.592 0,-0.879 0.713,-1.592 1.592,-1.592 0.879,0 1.592,0.712 1.592,1.592 z"
                                   inkscape:connector-curvature="0" /><rect
                                   id="rect5322"
                                   height="3.0209999"
                                   width="31"
                                   y="28.030001"
                                   x="0.5" /><rect
                                   id="rect5324"
                                   height="11.875"
                                   width="3.0209999"
                                   y="13.363"
                                   x="3.6670001" /><rect
                                   id="rect5326"
                                   height="11.875"
                                   width="3.0209999"
                                   y="13.363"
                                   x="8.349" /><rect
                                   id="rect5328"
                                   height="11.875"
                                   width="3.0209999"
                                   y="13.363"
                                   x="20.629999" /><rect
                                   id="rect5330"
                                   height="11.875"
                                   width="3.0209999"
                                   y="13.363"
                                   x="25.312" /></g><path
                                   id="path5332"
                                   d="m 19.055,22.809 c -0.386,0.262 -1.035,0.524 -1.857,0.524 -1.01,0 -1.907,-0.386 -2.53,-1.11 -0.474,-0.524 -0.785,-1.246 -0.897,-2.144 h -0.773 v -0.611 h 0.711 c 0,-0.062 0,-0.125 0,-0.187 0,-0.2 0.012,-0.387 0.025,-0.561 h -0.735 v -0.624 h 0.823 c 0.15,-0.872 0.524,-1.595 1.022,-2.106 0.636,-0.66 1.446,-1.035 2.468,-1.035 0.735,0 1.309,0.212 1.658,0.399 l -0.249,0.822 c -0.312,-0.187 -0.835,-0.349 -1.396,-0.349 -0.673,0 -1.221,0.237 -1.645,0.685 -0.374,0.361 -0.623,0.922 -0.748,1.583 h 3.478 v 0.624 h -3.59 c -0.013,0.162 -0.025,0.349 -0.025,0.523 0,0.075 0,0.137 0,0.225 h 3.615 v 0.611 h -3.53 c 0.1,0.723 0.349,1.259 0.685,1.633 0.461,0.486 1.085,0.723 1.757,0.723 0.661,0 1.234,-0.249 1.521,-0.411 l 0.212,0.786 z"
                                   display="inline"
                                   inkscape:connector-curvature="0"
                                   style="display:inline" /></g><g
                                   id="g5453"
                                   transform="translate(-52.625356,-10.750909)"><g
                                   id="g5403"
                                   display="none"
                                   style="display:none"><rect
                                   id="rect5405"
                                   height="196"
                                   width="394.5"
                                   display="inline"
                                   y="-80.754997"
                                   x="-43.5"
                                   style="fill:#000000;display:inline" /></g><g
                                   id="g5425"
                                   display="none"
                                   style="display:none"><g
                                   id="g5427"
                                   display="inline"
                                   style="display:inline"><path
                                   id="path5429"
                                   d="M 1.581,10.718 H 30.418 L 16,1.051 1.581,10.718 z M 17.592,6.594 c 0,0.879 -0.713,1.592 -1.592,1.592 -0.879,0 -1.592,-0.713 -1.592,-1.592 0,-0.879 0.713,-1.592 1.592,-1.592 0.879,0 1.592,0.712 1.592,1.592 z"
                                   inkscape:connector-curvature="0" /><rect
                                   id="rect5431"
                                   height="3.0209999"
                                   width="31"
                                   y="28.030001"
                                   x="0.5" /><rect
                                   id="rect5433"
                                   height="11.875"
                                   width="3.0209999"
                                   y="13.363"
                                   x="3.6670001" /><rect
                                   id="rect5435"
                                   height="11.875"
                                   width="3.0209999"
                                   y="13.363"
                                   x="8.349" /><rect
                                   id="rect5437"
                                   height="11.875"
                                   width="3.0209999"
                                   y="13.363"
                                   x="20.629999" /><rect
                                   id="rect5439"
                                   height="11.875"
                                   width="3.0209999"
                                   y="13.363"
                                   x="25.312" /></g><path
                                   id="path5441"
                                   d="m 19.055,22.809 c -0.386,0.262 -1.035,0.524 -1.857,0.524 -1.01,0 -1.907,-0.386 -2.53,-1.11 -0.474,-0.524 -0.785,-1.246 -0.897,-2.144 h -0.773 v -0.611 h 0.711 c 0,-0.062 0,-0.125 0,-0.187 0,-0.2 0.012,-0.387 0.025,-0.561 h -0.735 v -0.624 h 0.823 c 0.15,-0.872 0.524,-1.595 1.022,-2.106 0.636,-0.66 1.446,-1.035 2.468,-1.035 0.735,0 1.309,0.212 1.658,0.399 l -0.249,0.822 c -0.312,-0.187 -0.835,-0.349 -1.396,-0.349 -0.673,0 -1.221,0.237 -1.645,0.685 -0.374,0.361 -0.623,0.922 -0.748,1.583 h 3.478 v 0.624 h -3.59 c -0.013,0.162 -0.025,0.349 -0.025,0.523 0,0.075 0,0.137 0,0.225 h 3.615 v 0.611 h -3.53 c 0.1,0.723 0.349,1.259 0.685,1.633 0.461,0.486 1.085,0.723 1.757,0.723 0.661,0 1.234,-0.249 1.521,-0.411 l 0.212,0.786 z"
                                   display="inline"
                                   inkscape:connector-curvature="0"
                                   style="display:inline" /></g><g
                                   id="g5911"
                                   transform="translate(34.803917,-34.731522)"><g
                                   id="g5969"
                                   transform="translate(-76.820846,20.463898)"><g
                                   id="g6024"
                                   transform="translate(-1.5269147,1.6004891)"><g
                                   id="g6071"
                                   transform="translate(7.3886843,1.0351706)"><g
                                   id="g6187"
                                   transform="translate(-0.71000052,-4.6322855)"><g
                                   id="g6263"
                                   transform="translate(-0.66737304,-5.3488176)"><g
                                   id="g6319"
                                   transform="translate(0.79720466,3.5647493)"><g
                                   id="g6384"
                                   transform="translate(-9.1472004,2.261335)"><g
                                   id="g6488"
                                   transform="translate(-2.0348122,-3.4042665)"><g
                                   id="g6516"
                                   transform="translate(-0.63832329,-2.3294036)"><g
                                   id="g6769"
                                   transform="translate(1565.7794,-3801.8487)"><g
                                   id="g6910"
                                   transform="translate(-308.09512,-3790.9493)"><g
                                   id="g6983"
                                   transform="translate(-14.231122,-15.611848)"><g
                                   id="g7151"
                                   transform="translate(33.267081,-22.491026)"><g
                                   id="g7382"
                                   transform="translate(-23.229266,23.886871)"><g
                                   id="g7549"
                                   transform="translate(14.444681,15.529545)"><g
                                   id="g7800"
                                   transform="translate(-10.517025,-15.548079)"><g
                                   id="g7999"
                                   transform="matrix(0.53445343,0,0,0.59502607,5.6563057,11.962949)"><g
                                   id="g8217"
                                   transform="matrix(0.65157633,0,0,0.66199506,14.891666,27.68312)"><g
                                   id="g8341"
                                   transform="matrix(0.81955739,0,0,0.8373697,16.904811,-6.2861215)"><g
                                   id="g8463"
                                   transform="matrix(1.0901467,0,0,0.7755316,14.691042,9.5565496)"><g
                                   id="g8628"
                                   transform="matrix(3.2141084,0,0,3.9092417,-42.983003,-211.13796)"><g
                                   id="g8709"
                                   transform="matrix(0.28046364,0,0,0.26137124,8.2602788,58.166419)"><g
                                   id="g8982"
                                   transform="matrix(0.85470616,0,0,0.82928987,-24.416347,-291.09779)"><g
                                   id="g9029"
                                   transform="matrix(0.56179905,0,0,0.59146659,71.827756,364.20217)"><g
                                   id="g9231"
                                   transform="matrix(1.6434845,0,0,1.6275903,-1.9010194,-26.060019)"><g
                                   id="g9437"
                                   transform="matrix(0.71903998,0,0,0.65801134,3.2171324,7.0571502)"><g
                                   id="g9598"
                                   transform="matrix(0.80108296,0,0,0.9233293,9.6403445,4.2821143)"><g
                                   id="g9708"
                                   transform="matrix(0.94363907,0,0,1.1480868,25.922318,9.4839725)"><g
                                   id="g9819"
                                   transform="matrix(1.095798,0,0,0.98226973,-24.771036,-19.505567)"><g
                                   id="g9923"
                                   transform="matrix(1.4565749,0,0,1.1402449,-4.0661436,-21.558968)"><g
                                   id="g10097"
                                   transform="matrix(0.11168619,0,0,0.17855319,5.2962471,-4.487068)"><g
                                   id="g10271"
                                   transform="matrix(13.365969,0,0,8.1997528,-133.46038,-213.50307)"><g
                                   style="fill-rule:evenodd"
                                   id="g10860"
                                   transform="matrix(3.4886731,0,0,4.1898505,17.112225,-334.18238)"><g
                                   id="g10926"
                                   transform="translate(-3.4835301,11.933542)"><g
                                   id="g10977"
                                   transform="translate(-23.300771,-27.486778)"><g
                                   id="g11027"
                                   transform="matrix(0.43252474,0,0,0.37672697,-8.3080623,-3.9894485)"><g
                                   id="g11075"
                                   transform="matrix(2.3120065,0,0,2.6544423,31.801403,32.696975)"><g
                                   id="g11120"
                                   transform="matrix(0.80941525,0,0,0.85267959,9.9659797,8.8655352)"><g
                                   id="g11165"
                                   transform="matrix(1.2354598,0,0,1.1727735,63.229892,29.359769)"><g
                                   id="g11232"
                                   transform="translate(-34.923095,-12.499473)"><g
                                   style="fill-rule:evenodd"
                                   id="g11310"
                                   transform="translate(-21.549182,-35.279603)"><g
                                   id="g11372"
                                   transform="translate(-5.4679176,-5.8668947)"><g
                                   id="g11436"
                                   transform="translate(2.7982997,0.93576032)"><g
                                   id="g11488"
                                   transform="translate(-3.587236,-5.6258516)"><g
                                   id="g11528"
                                   transform="translate(15.507114,-3.254385)"><g
                                   id="g11586"
                                   transform="translate(7.7187909,24.376849)"><g
                                   id="g11638"
                                   transform="translate(-6.4943311,-12.776285)"><g
                                   id="g11690"
                                   transform="translate(12.379153,16.3378)"><g
                                   id="g11782"
                                   transform="matrix(0.54704068,0,0,0.56101878,-2.4253841,-13.151439)"><g
                                   id="g11847"
                                   transform="matrix(1.8280176,0,0,1.7824715,-7.4215749,-14.616326)"><g
                                   id="g11896"
                                   transform="matrix(0.52061715,0,0,0.55247544,7.8149554,3.1926355)"><g
                                   id="g11940"
                                   transform="matrix(1.7613317,0,0,1.5303706,-44.906818,-32.537167)"><g
                                   id="g12083"
                                   transform="matrix(0.87081326,0,0,0.87011947,-1.2460319,10.958839)"><g
                                   id="g12172"
                                   transform="matrix(0.14184302,0,0,0.13716326,17.992837,18.041771)"><g
                                   id="g12247"
                                   transform="matrix(8.8289162,0,0,9.9100018,-173.22248,-267.28016)"><g
                                   id="g12299"
                                   transform="translate(-1.6739012,-4.3904753)"><g
                                   id="g12386"
                                   transform="matrix(0.46706407,0,0,0.48224205,22.985341,23.217551)"><g
                                   id="g12370"><path
                                   id="path12372"
                                   d="m 51.263,23.333 c 2.549,0.615 6.502,2.458 7.93,6.265 0.83,2.209 0.774,7.062 0.586,10.747 -0.674,3.906 -2.234,6.754 -4.662,8.482 -3.25,2.313 -7.322,2.075 -9.288,1.774 C 43.146,49.289 41.563,45.3 40.876,42.044 40.072,38.239 40.56,36.255 40.56,36.255 V 34.83 c -0.714,-1.903 -0.079,-7.533 0.872,-9.437 0.951,-1.903 3.974,-1.934 4.837,-2.617 1.208,-0.954 2.833,-5.08 3.309,-6.334 -9.906,1.245 -12.379,9.59 -12.862,11.806 -1.181,1.126 -2.151,3.148 -1.163,5.336 -0.354,0.455 -0.71,1.078 -0.852,1.861 -0.118,0.654 -0.114,1.613 0.443,2.729 -0.984,1.906 -3.084,7.236 -0.784,14.809 2.218,7.308 1.275,9.263 0.666,10.154 -1.493,0.588 -6.417,2.816 -8.482,7.354 -0.591,0.262 -1.244,0.684 -1.859,1.282 V 83.65 H 75.456 V 63.17 C 73.977,60.998 72.252,58.649 70.753,57.102 70.341,54.733 68.3,42.847 68.231,38.694 68.192,36.353 68.102,30.87 66.102,25.903 63.774,20.116 59.507,16.839 53.71,16.348 h -3.14 c -3.697,6.073 -0.133,6.786 0.693,6.985 z m 9.278,37.706 c 0,0.639 0.248,1.215 0.649,1.646 -0.348,0.307 -0.571,0.748 -0.571,1.248 0,0.227 0.047,0.44 0.129,0.641 -0.519,0.484 -0.842,1.172 -0.842,1.938 0,0.465 0.12,0.9 0.329,1.281 -0.538,0.438 -0.887,1.104 -0.887,1.852 0,0.383 0.094,0.744 0.256,1.064 -2.313,1.068 -4.934,4.326 -4.934,4.326 C 49.438,75.431 37.462,73.527 36.986,69.562 36.509,65.597 47.85,57.113 47.85,57.113 c 0,-0.488 -0.272,-2.703 -0.48,-4.324 0.296,0.016 0.606,0.025 0.928,0.025 2.354,0 5.341,-0.476 7.968,-2.338 1.258,-0.892 2.314,-2.023 3.174,-3.38 0.175,5.104 1.338,11.286 1.338,11.286 l 0.767,0.697 c -0.608,0.441 -1.004,1.153 -1.004,1.96 z"
                                   inkscape:connector-curvature="0" /><path
                                   id="path12374"
                                   d="m 88.426,92.723 c 0.271,-0.178 0.531,-0.387 0.771,-0.627 1.862,-1.861 1.862,-4.881 0,-6.74 -0.523,-0.524 -1.14,-0.896 -1.794,-1.125 0.797,-2.676 2.265,-9.848 -0.647,-20.201 1.785,-0.305 3.146,-1.854 3.146,-3.727 0,-1.139 -0.504,-2.158 -1.299,-2.852 1.83,-1.365 3.088,-4.188 3.088,-7.452 0,-3.263 -1.258,-6.085 -3.088,-7.45 0.795,-0.694 1.299,-1.713 1.299,-2.851 0,-1.871 -1.359,-3.421 -3.146,-3.726 2.582,-9.182 1.724,-15.86 0.938,-19.121 0.547,-0.231 1.059,-0.566 1.505,-1.012 1.862,-1.862 1.862,-4.88 0,-6.742 C 88.96,8.857 88.699,8.648 88.427,8.47 88.851,8.27 89.253,7.993 89.613,7.635 91.107,6.142 91.241,3.853 89.912,2.525 88.585,1.196 86.296,1.33 84.802,2.823 84.446,3.18 84.169,3.584 83.968,4.008 83.789,3.734 83.58,3.475 83.341,3.235 81.481,1.374 78.46,1.374 76.6,3.235 76.259,3.575 75.987,3.955 75.77,4.358 73.831,3.666 69.667,2.704 63.819,4.169 c -0.56,-1.394 -1.918,-2.38 -3.512,-2.38 -1.14,0 -2.156,0.502 -2.853,1.297 C 56.086,1.257 53.265,0 50,0 46.737,0 43.916,1.257 42.55,3.086 41.857,2.292 40.836,1.79 39.699,1.79 38.106,1.79 36.745,2.776 36.187,4.17 30.335,2.706 26.174,3.667 24.235,4.359 24.02,3.956 23.745,3.576 23.405,3.236 c -1.862,-1.861 -4.88,-1.861 -6.742,0 -0.24,0.24 -0.449,0.5 -0.626,0.773 C 15.837,3.585 15.558,3.181 15.203,2.824 13.709,1.33 11.421,1.197 10.092,2.526 c -1.328,1.329 -1.193,3.617 0.3,5.11 0.356,0.358 0.761,0.635 1.185,0.835 -0.275,0.179 -0.534,0.387 -0.775,0.628 -1.86,1.861 -1.86,4.88 0,6.742 0.446,0.445 0.958,0.783 1.505,1.014 -0.784,3.262 -1.645,9.939 0.938,19.119 -1.785,0.305 -3.146,1.855 -3.146,3.726 0,1.138 0.502,2.157 1.298,2.851 C 9.565,43.916 8.31,46.739 8.31,50 c 0,3.264 1.257,6.085 3.087,7.451 -0.794,0.693 -1.298,1.713 -1.298,2.852 0,1.871 1.359,3.422 3.146,3.727 -2.914,10.355 -1.446,17.525 -0.648,20.203 -0.654,0.229 -1.271,0.601 -1.795,1.123 -1.86,1.861 -1.86,4.881 0,6.742 0.24,0.238 0.5,0.447 0.773,0.627 -0.424,0.199 -0.827,0.478 -1.185,0.834 -1.493,1.494 -1.628,3.781 -0.3,5.109 1.329,1.33 3.617,1.195 5.111,-0.299 0.356,-0.355 0.634,-0.76 0.834,-1.184 0.178,0.272 0.387,0.532 0.627,0.771 1.861,1.862 4.88,1.862 6.742,0 0.625,-0.623 1.035,-1.379 1.239,-2.179 2.083,0.671 6.074,1.421 11.543,0.052 0.558,1.396 1.918,2.381 3.512,2.381 1.137,0 2.157,-0.502 2.851,-1.297 1.366,1.831 4.188,3.087 7.45,3.087 3.264,0 6.085,-1.256 7.451,-3.086 0.693,0.795 1.713,1.297 2.851,1.297 1.595,0 2.955,-0.984 3.513,-2.381 5.47,1.369 9.461,0.619 11.543,-0.051 0.205,0.799 0.615,1.555 1.24,2.178 1.86,1.863 4.879,1.863 6.739,0 0.24,-0.238 0.449,-0.498 0.627,-0.771 0.201,0.424 0.479,0.828 0.834,1.185 1.494,1.494 3.783,1.629 5.111,0.299 1.329,-1.328 1.194,-3.614 -0.3,-5.108 -0.356,-0.363 -0.757,-0.64 -1.182,-0.839 z M 78.64,86.949 H 21.495 V 13.273 H 78.64 v 73.676 l 0,0 z"
                                   inkscape:connector-curvature="0" /></g></g></g></g></g></g></g></g></g></g></g></g></g></g></g></g></g></g></g></g></g></g></g></g></g></g></g></g></g></g></g></g></g></g></g></g></g></g></g></g></g></g></g></g></g></g></g></g></g></g></g></g></g></g></g></g></g></g></g></g></g></g></g></g></g></g></g></g></g></g></g></g></g></g></g></g></svg>