<?xml version="1.0" encoding="UTF-8" standalone="no"?>
<svg
   xmlns:dc="http://purl.org/dc/elements/1.1/"
   xmlns:cc="http://creativecommons.org/ns#"
   xmlns:rdf="http://www.w3.org/1999/02/22-rdf-syntax-ns#"
   xmlns:svg="http://www.w3.org/2000/svg"
   xmlns="http://www.w3.org/2000/svg"
   xmlns:sodipodi="http://sodipodi.sourceforge.net/DTD/sodipodi-0.dtd"
   xmlns:inkscape="http://www.inkscape.org/namespaces/inkscape"
   version="1.1"
   x="0px"
   y="0px"
   viewBox="0 0 64 80"
   enable-background="new 0 0 64 64"
   xml:space="preserve"
   id="svg2"
   inkscape:version="0.91 r13725"
   sodipodi:docname="ATM.svg"><metadata
     id="metadata20"><rdf:RDF><cc:Work
         rdf:about=""><dc:format>image/svg+xml</dc:format><dc:type
           rdf:resource="http://purl.org/dc/dcmitype/StillImage" /></cc:Work></rdf:RDF></metadata><defs
     id="defs18" /><sodipodi:namedview
     pagecolor="#ffffff"
     bordercolor="#666666"
     borderopacity="1"
     objecttolerance="10"
     gridtolerance="10"
     guidetolerance="10"
     inkscape:pageopacity="0"
     inkscape:pageshadow="2"
     inkscape:window-width="668"
     inkscape:window-height="480"
     id="namedview16"
     showgrid="false"
     inkscape:zoom="2.95"
     inkscape:cx="32"
     inkscape:cy="40"
     inkscape:window-x="75"
     inkscape:window-y="34"
     inkscape:window-maximized="0"
     inkscape:current-layer="svg2" /><g
     id="g4"><polygon
       points="46.045,20.139 44.094,20.139 52.518,52.563 11.895,52.563 19.858,20.139 17.954,20.139 6.773,56.256    57.227,56.256  "
       id="polygon6" /><path
       d="M56.174,7.744H7.827C3.512,7.744,0,11.256,0,15.57v14.027c0,4.316,3.512,7.828,7.827,7.828h2.357l1.556-4.473H7.827   c-1.85,0-3.354-1.506-3.354-3.355V15.57c0-1.85,1.505-3.354,3.354-3.354h48.347c1.85,0,3.354,1.504,3.354,3.354v14.027   c0,1.85-1.504,3.355-3.354,3.355h-3.916l1.557,4.473h2.359c4.314,0,7.826-3.512,7.826-7.828V15.57   C64,11.256,60.488,7.744,56.174,7.744z"
       id="path8" /><path
       d="M41.785,20.139H22.159l-7.412,30.188h34.88L41.785,20.139z M32,46.898c-1.578,0-2.855-0.834-2.855-1.865   c0-1.029,1.277-1.863,2.855-1.863c1.576,0,2.853,0.834,2.853,1.863C34.854,46.064,33.576,46.898,32,46.898z M41.137,34.219   l-3.725-0.684c0.193-0.58,0.617-1.551,0.234-2.934c-0.311-1.125-1.127-1.469-1.846-1.469c-0.85,0-1.301,0.574-1.971,2.102   c-1.013,2.508-2.708,3.67-5.611,3.668c-2.871-0.002-4.893-1.508-4.771-3.881H20.61l0.729-1.713l2.459,0.002   c0.402-1.039,1.113-1.963,1.77-2.465l2.65,0.395c-0.637,0.58-1.305,1.453-1.5,2.5c-0.182,1.004,0.305,1.742,1.439,1.742   c1.076,0,1.783-0.607,2.496-1.908c0.9-1.652,2.033-2.652,4.281-2.652c2.043,0,3.957,0.844,5.111,2.473h2.473l0.871,1.729   l-2.463-0.002C41.379,32.461,41.344,33.445,41.137,34.219z"
       id="path10" /></g></svg>