<?xml version="1.0" encoding="UTF-8" standalone="no"?>
<svg
   xmlns:dc="http://purl.org/dc/elements/1.1/"
   xmlns:cc="http://creativecommons.org/ns#"
   xmlns:rdf="http://www.w3.org/1999/02/22-rdf-syntax-ns#"
   xmlns:svg="http://www.w3.org/2000/svg"
   xmlns="http://www.w3.org/2000/svg"
   xmlns:sodipodi="http://sodipodi.sourceforge.net/DTD/sodipodi-0.dtd"
   xmlns:inkscape="http://www.inkscape.org/namespaces/inkscape"
   data-name="Layer 1"
   viewBox="0 0 100 100"
   x="0px"
   y="0px"
   version="1.1"
   id="svg14"
   sodipodi:docname="ATM.svg"
   width="100"
   height="100"
   inkscape:version="0.92.5 (2060ec1f9f, 2020-04-08)">
  <metadata
     id="metadata20">
    <rdf:RDF>
      <cc:Work
         rdf:about="">
        <dc:format>image/svg+xml</dc:format>
        <dc:type
           rdf:resource="http://purl.org/dc/dcmitype/StillImage" />
        <dc:title>97</dc:title>
      </cc:Work>
    </rdf:RDF>
  </metadata>
  <defs
     id="defs18" />
  <sodipodi:namedview
     pagecolor="#ffffff"
     bordercolor="#666666"
     borderopacity="1"
     objecttolerance="10"
     gridtolerance="10"
     guidetolerance="10"
     inkscape:pageopacity="0"
     inkscape:pageshadow="2"
     inkscape:window-width="691"
     inkscape:window-height="480"
     id="namedview16"
     showgrid="false"
     inkscape:zoom="1.888"
     inkscape:cx="63.516675"
     inkscape:cy="62.5"
     inkscape:window-x="0"
     inkscape:window-y="0"
     inkscape:window-maximized="0"
     inkscape:current-layer="svg14" />
  <title
     id="title2">97</title>
  <g
     id="g25"
     transform="translate(0,25)">
    <path
       inkscape:connector-curvature="0"
       id="path4"
       d="M 93,-20 H 7 a 2.0001,2.0001 0 0 0 -2,2 v 30 a 2.0001,2.0001 0 0 0 2,2 h 9 V 10 H 9 v -26 h 82 v 26 h -7 v 4 h 9 a 2.0001,2.0001 0 0 0 2,-2 v -30 a 2.0001,2.0001 0 0 0 -2,-2 z" />
    <path
       inkscape:connector-curvature="0"
       id="path6"
       d="M 81.99866,-8 H 18.00134 A 1.00132,1.00132 0 0 0 17,-6.99866 V 0.99866 A 1.00132,1.00132 0 0 0 18.00134,2 H 22 V 60.99609 A 9.014,9.014 0 0 0 31.00391,70 H 68.99609 A 9.014,9.014 0 0 0 78,60.99609 V 2 h 3.99866 A 1.00132,1.00132 0 0 0 83,0.99866 V -6.99866 A 1.00132,1.00132 0 0 0 81.99866,-8 Z M 26,60.99609 V 2 h 9 V 66 H 31.00391 A 5.01006,5.01006 0 0 1 26,60.99609 Z m 48,0 A 5.01006,5.01006 0 0 1 68.99609,66 H 43 V 2 h 31 z" />
    <rect
       id="rect8"
       rx="2.3636501"
       height="13"
       width="13"
       y="7"
       x="52" />
  </g>
</svg>
