<?xml version="1.0" encoding="UTF-8" standalone="no"?>
<svg
   xmlns:dc="http://purl.org/dc/elements/1.1/"
   xmlns:cc="http://creativecommons.org/ns#"
   xmlns:rdf="http://www.w3.org/1999/02/22-rdf-syntax-ns#"
   xmlns:svg="http://www.w3.org/2000/svg"
   xmlns="http://www.w3.org/2000/svg"
   xmlns:sodipodi="http://sodipodi.sourceforge.net/DTD/sodipodi-0.dtd"
   xmlns:inkscape="http://www.inkscape.org/namespaces/inkscape"
   viewBox="0 0 100 100"
   version="1.1"
   x="0px"
   y="0px"
   id="svg2"
   inkscape:version="0.91 r13725"
   sodipodi:docname="Attraction.svg"
   width="100"
   height="100">
  <metadata
     id="metadata60">
    <rdf:RDF>
      <cc:Work
         rdf:about="">
        <dc:format>image/svg+xml</dc:format>
        <dc:type
           rdf:resource="http://purl.org/dc/dcmitype/StillImage" />
        <dc:title>icon_pvh_carousel</dc:title>
      </cc:Work>
    </rdf:RDF>
  </metadata>
  <defs
     id="defs58" />
  <sodipodi:namedview
     pagecolor="#ffffff"
     bordercolor="#666666"
     borderopacity="1"
     objecttolerance="10"
     gridtolerance="10"
     guidetolerance="10"
     inkscape:pageopacity="0"
     inkscape:pageshadow="2"
     inkscape:window-width="640"
     inkscape:window-height="480"
     id="namedview56"
     showgrid="false"
     inkscape:zoom="1.888"
     inkscape:cx="50"
     inkscape:cy="62.5"
     inkscape:window-x="0"
     inkscape:window-y="0"
     inkscape:window-maximized="0"
     inkscape:current-layer="svg2" />
  <title
     id="title4">icon_pvh_carousel</title>
  <desc
     id="desc6">Created with Sketch.</desc>
  <g
     id="g8"
     style="fill:none;fill-rule:evenodd;stroke:none;stroke-width:1"
     transform="matrix(1.1535249,0,0,1.1535249,-7.0544706,-8.1237718)">
    <g
       id="g10"
       style="fill:#000000">
      <path
         d="m 19.406213,34.778069 -1.422426,-0.476137 c -2.509721,7.497614 -2.319811,15.636651 0.536878,23.009049 l 1.39867,-0.541962 C 17.189048,49.722833 17.00754,41.94393 19.406213,34.778069 Z"
         id="path12"
         inkscape:connector-curvature="0" />
      <path
         d="m 25.374823,65.858255 -1.149646,0.96349 c 4.304203,5.135814 10.039812,8.874106 16.476136,10.738637 l 0.417374,-1.440764 C 34.968421,74.337956 29.487728,70.765809 25.374823,65.858255 Z"
         id="path14"
         inkscape:connector-curvature="0" />
      <path
         d="m 58.795338,76.133464 0.409324,1.443072 c 6.247513,-1.772092 11.851123,-5.308971 16.138636,-10.186364 l -1.126596,-0.990344 c -4.096957,4.66062 -9.451517,8.040305 -15.421364,9.733636 z"
         id="path16"
         inkscape:connector-curvature="0" />
      <path
         d="m 80.109531,56.681964 1.400938,0.536071 c 2.84129,-7.425271 2.982457,-15.61296 0.398824,-23.131764 l -1.418586,0.487458 c 2.469314,7.186114 2.334393,15.011516 -0.381176,22.108235 z"
         id="path18"
         inkscape:connector-curvature="0" />
      <path
         d="m 75.082663,24.767635 1.164674,-0.94527 C 71.859034,18.415508 65.905694,14.498414 59.203587,12.60816 l -0.407174,1.44368 c 6.404236,1.806242 12.092983,5.549243 16.28625,10.715795 z"
         id="path20"
         inkscape:connector-curvature="0" />
      <path
         d="m 41.453845,13.99316 -0.39769,-1.44632 C 34.10627,14.457823 27.950723,18.543601 23.490814,24.205931 l 1.178371,0.928138 c 4.261691,-5.41067 10.143659,-9.314858 16.78466,-11.140909 z"
         id="path22"
         inkscape:connector-curvature="0" />
      <polygon
         points="17,44.125 17,45.625 83,45.625 83,44.125 "
         id="polygon24" />
      <polygon
         points="32.85046,73.315036 34.14954,74.064964 67.14954,16.899964 65.85046,16.150036 "
         id="polygon26" />
      <polygon
         points="25.110455,86.725045 26.409545,87.474955 67.149545,16.899955 65.850455,16.150045 "
         id="polygon28" />
      <polygon
         points="73.725475,87.69999 75.024525,86.95001 34.149525,16.15001 32.850475,16.89999 "
         id="polygon30" />
      <polygon
         points="73.725475,87.69999 75.024525,86.95001 34.149525,16.15001 32.850475,16.89999 "
         id="polygon32" />
      <path
         d="m 90.485963,88.375 c 0.0065,0 0.01404,3.747803 0.01404,3.747803 0,0.0034 -80.9859628,0.0022 -80.9859628,0.0022 C 9.5075331,92.125 9.5,88.377197 9.5,88.377197 9.5,88.373819 90.485963,88.375 90.485963,88.375 Z M 8,92.122803 C 8,92.948851 8.6819716,93.625 9.5140372,93.625 l 80.9719258,0 C 91.327329,93.625 92,92.956913 92,92.122803 l 0,-3.745606 C 92,87.551149 91.318028,86.875 90.485963,86.875 l -80.9719258,0 C 8.6726713,86.875 8,87.543087 8,88.377197 l 0,3.745606 z"
         id="path34"
         inkscape:connector-curvature="0" />
      <path
         d="m 61.985,45.1 c 0,-6.619133 -5.365867,-11.985 -11.985,-11.985 -6.619133,0 -11.985,5.365867 -11.985,11.985 0,6.619133 5.365867,11.985 11.985,11.985 6.619133,0 11.985,-5.365867 11.985,-11.985 z m -22.47,0 c 0,-5.790706 4.694294,-10.485 10.485,-10.485 5.790706,0 10.485,4.694294 10.485,10.485 0,5.790706 -4.694294,10.485 -10.485,10.485 -5.790706,0 -10.485,-4.694294 -10.485,-10.485 z"
         id="path36"
         inkscape:connector-curvature="0" />
      <path
         d="m 58.235,73.375 c 0.01591,0 0.03117,0.0063 0.04243,0.01757 0.01125,0.01125 0.01757,0.02651 0.01757,0.04243 l 0,4.335 c 0,2.120773 -1.719227,3.84 -3.84,3.84 l -8.955,0 c -2.071068,0 -3.75,-1.678932 -3.75,-3.75 l 0,-4.5 c 0,0.0083 16.485,0.015 16.485,0.015 z M 40.25,73.36 l 0,4.5 c 0,2.899495 2.350505,5.25 5.25,5.25 l 8.955,0 c 2.949201,0 5.34,-2.390799 5.34,-5.34 l 0,-4.335 c 0,-0.413738 -0.164357,-0.81053 -0.456913,-1.103087 C 59.04553,72.039357 58.648738,71.875 58.235,71.875 l -16.5,0 c -0.820143,0 -1.485,0.664857 -1.485,1.485 z"
         id="path38"
         inkscape:connector-curvature="0" />
      <path
         d="m 58.19,8.875 c 0.03314,0 0.06,0.026863 0.06,0.06 l 0,4.215 c 0,2.195332 -1.779668,3.975 -3.975,3.975 l -8.775,0 c -2.071068,0 -3.75,-1.678932 -3.75,-3.75 l 0,-4.65 c 0,0.082843 -0.06716,0.15 -0.15,0.15 l 16.59,0 z m -17.94,-0.15 0,4.65 c 0,2.899495 2.350505,5.25 5.25,5.25 l 8.775,0 c 3.023759,0 5.475,-2.451241 5.475,-5.475 l 0,-4.215 c 0,-0.8615642 -0.698436,-1.56 -1.56,-1.56 l -16.59,0 c -0.745584,0 -1.35,0.6044156 -1.35,1.35 z"
         id="path40"
         inkscape:connector-curvature="0" />
      <path
         d="m 30.005,25.375 c -0.140833,0 -0.255,-0.114167 -0.255,-0.255 l 0,4.5 c 0,2.195332 -1.779668,3.975 -3.975,3.975 l -8.445,0 c -1.084286,5e-6 -2.123975,-0.43159 -2.889488,-1.199481 -0.765514,-0.767891 -1.193883,-1.808913 -1.190516,-2.89319 L 13.25,25.225 c 0,0.08284 -0.06716,0.15 -0.15,0.15 l 16.905,0 z m -18.255,-0.15 0,4.275 c -0.0046,1.480579 0.581256,2.90433 1.628208,3.954534 1.046953,1.050204 2.46888,1.640473 3.951796,1.640466 l 8.444996,0 c 3.023759,0 5.475,-2.451241 5.475,-5.475 l 0,-4.5 c 0,-0.687594 -0.557406,-1.245 -1.245,-1.245 l -16.905,0 c -0.745584,0 -1.35,0.604416 -1.35,1.35 z"
         id="path42"
         inkscape:connector-curvature="0" />
      <path
         d="M 86.375,25.375 C 86.167893,25.375 86,25.207107 86,25 l 0,4.65 c 0,2.195332 -1.779668,3.975 -3.975,3.975 l -8.325,0 c -1.905382,0 -3.45,-1.544618 -3.45,-3.45 l 0,-4.95 c 0,0.08284 -0.06716,0.15 -0.15,0.15 l 16.275,0 z m -17.625,-0.15 0,4.95 c 0,2.733809 2.21619,4.95 4.95,4.95 l 8.325,0 c 3.023759,0 5.475,-2.451241 5.475,-5.475 l 0,-4.65 c 0,-0.62132 -0.50368,-1.125 -1.125,-1.125 l -16.275,0 c -0.745584,0 -1.35,0.604416 -1.35,1.35 z"
         id="path44"
         inkscape:connector-curvature="0" />
      <path
         d="m 30.005,57.625 c -0.140833,0 -0.255,-0.114167 -0.255,-0.255 l 0,4.59 c 0,2.162195 -1.752805,3.915 -3.915,3.915 l -8.505,0 c -2.253322,0 -4.08,-1.826678 -4.08,-4.08 l 0,-4.245 c 0,0.04142 -0.03358,0.075 -0.075,0.075 l 16.83,0 z M 11.75,57.55 l 0,4.245 c 0,3.081749 2.498251,5.58 5.58,5.58 l 8.505,0 c 2.990622,0 5.415,-2.424378 5.415,-5.415 l 0,-4.59 c 0,-0.687594 -0.557406,-1.245 -1.245,-1.245 l -16.83,0 c -0.787006,0 -1.425,0.637994 -1.425,1.425 z"
         id="path46"
         inkscape:connector-curvature="0" />
      <path
         d="M 86.375,57.625 C 86.167893,57.625 86,57.457107 86,57.25 l 0,4.71 c 0,2.162195 -1.752805,3.915 -3.915,3.915 l -8.385,0 c -1.905382,0 -3.45,-1.544618 -3.45,-3.45 l 0,-4.875 c 0,0.04142 -0.03358,0.075 -0.075,0.075 l 16.2,0 z M 68.75,57.55 l 0,4.875 c 0,2.73381 2.21619,4.95 4.95,4.95 l 8.385,0 c 2.990622,0 5.415,-2.424378 5.415,-5.415 l 0,-4.71 c 0,-0.62132 -0.50368,-1.125 -1.125,-1.125 l -16.2,0 c -0.787006,0 -1.425,0.637994 -1.425,1.425 z"
         id="path48"
         inkscape:connector-curvature="0" />
      <path
         d="m 67.595,45.1 c 0,-9.71745 -7.87755,-17.595 -17.595,-17.595 -9.71745,0 -17.595,7.87755 -17.595,17.595 0,9.71745 7.87755,17.595 17.595,17.595 9.71745,0 17.595,-7.87755 17.595,-17.595 z m -33.69,0 c 0,-8.889023 7.205977,-16.095 16.095,-16.095 8.889023,0 16.095,7.205977 16.095,16.095 0,8.889023 -7.205977,16.095 -16.095,16.095 -8.889023,0 -16.095,-7.205977 -16.095,-16.095 z"
         id="path50"
         inkscape:connector-curvature="0" />
    </g>
  </g>
</svg>
