<?xml version="1.0" encoding="UTF-8" standalone="no"?>
<svg
   xmlns:dc="http://purl.org/dc/elements/1.1/"
   xmlns:cc="http://creativecommons.org/ns#"
   xmlns:rdf="http://www.w3.org/1999/02/22-rdf-syntax-ns#"
   xmlns:svg="http://www.w3.org/2000/svg"
   xmlns="http://www.w3.org/2000/svg"
   xmlns:sodipodi="http://sodipodi.sourceforge.net/DTD/sodipodi-0.dtd"
   xmlns:inkscape="http://www.inkscape.org/namespaces/inkscape"
   version="1.1"
   x="0px"
   y="0px"
   viewBox="0 0 100 100"
   xml:space="preserve"
   id="svg14"
   sodipodi:docname="Attraction.svg"
   width="100"
   height="100"
   inkscape:version="0.92.5 (2060ec1f9f, 2020-04-08)"><metadata
     id="metadata20"><rdf:RDF><cc:Work
         rdf:about=""><dc:format>image/svg+xml</dc:format><dc:type
           rdf:resource="http://purl.org/dc/dcmitype/StillImage" /><dc:title></dc:title></cc:Work></rdf:RDF></metadata><defs
     id="defs18" /><sodipodi:namedview
     pagecolor="#ffffff"
     bordercolor="#666666"
     borderopacity="1"
     objecttolerance="10"
     gridtolerance="10"
     guidetolerance="10"
     inkscape:pageopacity="0"
     inkscape:pageshadow="2"
     inkscape:window-width="1680"
     inkscape:window-height="884"
     id="namedview16"
     showgrid="false"
     inkscape:zoom="1.2586667"
     inkscape:cx="84.931144"
     inkscape:cy="93.75"
     inkscape:window-x="0"
     inkscape:window-y="0"
     inkscape:window-maximized="1"
     inkscape:current-layer="svg14" /><g
     id="g8"
     transform="matrix(0.80082385,0,0,0.80082385,-10.10183,-10.061789)"><path
       d="m 96.5,113.8 c -1.2,0.6 -2.4,1.1 -3.7,1.6 l 7.7,18.4 c 0.3,0.8 1.1,1.2 1.8,1.2 0.3,0 0.5,-0.1 0.8,-0.2 1,-0.4 1.5,-1.6 1.1,-2.6 z"
       id="path2"
       inkscape:connector-curvature="0" /><path
       d="m 45.8,132.2 c -0.4,1 0.1,2.2 1.1,2.6 0.3,0.1 0.5,0.2 0.8,0.2 0.8,0 1.5,-0.5 1.8,-1.2 l 7.7,-18.4 c -1.2,-0.5 -2.5,-1 -3.7,-1.6 z"
       id="path4"
       inkscape:connector-curvature="0" /><path
       d="m 126.9,60.2 h -5.6 c -1.1,-7.3 -3.9,-14.1 -8.1,-20.1 1.6,-1.6 2.6,-3.9 2.6,-6.4 v -3.5 c 0,-1.1 -0.9,-2 -2,-2 H 101 c -5.1,-3.5 -10.9,-5.9 -17,-7.1 0,-0.2 0,-0.5 0,-0.7 V 17 c 0,-1.1 -0.9,-2 -2,-2 H 67.9 c -1.1,0 -2,0.9 -2,2 v 3.5 c 0,0.2 0,0.5 0,0.7 -6.1,1.2 -11.8,3.6 -17,7.1 H 36.3 c -1.1,0 -2,0.9 -2,2 v 3.5 c 0,2.5 1,4.8 2.6,6.4 -4.2,6 -7,12.8 -8.1,20.1 h -5.6 c -1.1,0 -2,0.9 -2,2 v 3.5 c 0,4.5 3.3,8.3 7.6,9 1,6.4 3.2,12.4 6.5,17.8 -0.6,0.3 -1,1 -1,1.7 v 3.5 c 0,5 4.1,9.1 9.1,9.1 1.5,0 2.9,-0.4 4.2,-1 5.6,4.1 12.1,6.9 18.9,8.2 1.2,3.5 4.6,6.1 8.6,6.1 4,0 7.3,-2.5 8.6,-6.1 6.7,-1.2 13.1,-4 18.6,-8 1.2,0.5 2.4,0.8 3.8,0.8 5,0 9.1,-4.1 9.1,-9.1 v -3.5 c 0,-0.5 -0.2,-1 -0.6,-1.4 3.5,-5.5 5.8,-11.7 6.7,-18.2 4.3,-0.7 7.6,-4.4 7.6,-9 v -3.5 c 0,-1.1 -0.9,-2 -2,-2 z M 103,42 c 1.1,0.5 2.3,0.8 3.6,0.8 1.1,0 2.1,-0.2 3.1,-0.5 3.8,5.3 6.4,11.5 7.4,18 h -4.5 c -1.1,0 -2,0.9 -2,2 v 3.3 H 85 C 84.7,64.2 84.2,63 83.5,61.9 Z M 82.9,25 c 5.2,1 10.2,2.9 14.7,5.8 v 2.9 c 0,2.3 0.8,4.3 2.2,5.9 L 80.7,58.9 C 79.6,58.2 78.4,57.6 77,57.4 V 29.3 c 2.5,-0.5 4.6,-2.1 5.9,-4.3 z m -1.7,42.5 c 0,3.5 -2.8,6.3 -6.2,6.3 -3.4,0 -6.2,-2.8 -6.2,-6.3 0,-3.5 2.8,-6.3 6.2,-6.3 3.4,0 6.2,2.8 6.2,6.3 z M 52.4,33.7 V 30.8 C 56.9,28 61.9,26 67.1,25 c 1.3,2.2 3.4,3.7 5.9,4.3 v 28.1 c -1.3,0.3 -2.6,0.8 -3.7,1.5 L 50.2,39.6 C 51.6,38 52.4,36 52.4,33.7 Z m -12.1,8.5 c 1,0.3 2,0.5 3.1,0.5 1.3,0 2.5,-0.3 3.6,-0.8 L 66.5,61.6 C 65.8,62.7 65.2,64 65,65.3 H 39.3 V 62 c 0,-1.1 -0.9,-2 -2,-2 h -4.5 c 1.1,-6.3 3.7,-12.4 7.5,-17.8 z m -7.5,32.2 c 2.5,-0.7 4.6,-2.5 5.7,-4.9 H 65 c 0.3,1.4 0.8,2.6 1.5,3.7 l -18.8,19 H 39.9 C 36.2,86.8 33.8,80.8 32.8,74.4 Z m 35.1,31 c -1.1,0 -2,0.9 -2,2 v 2.3 c -5.5,-1.2 -10.6,-3.5 -15.3,-6.7 1.1,-1.5 1.8,-3.4 1.8,-5.4 v -3.5 c 0,-0.3 -0.1,-0.6 -0.2,-0.9 l 17,-17.1 -11.1,26.6 c 1.2,0.6 2.4,1.1 3.7,1.6 L 73,77.5 c 0,0 0,0 0,0 v 27.8 h -5.1 z m 16.2,4.3 v -2.3 c 0,-1.1 -0.9,-2 -2,-2 H 77 V 77.6 c 0,0 0,0 0,0 l 11.2,26.8 c 1.3,-0.5 2.5,-1 3.7,-1.6 L 80.8,76.2 97.3,92.9 c -0.3,0.3 -0.5,0.8 -0.5,1.3 v 3.5 c 0,2.2 0.8,4.1 2,5.7 -4.4,3 -9.4,5.1 -14.7,6.3 z m 26,-17.5 h -7.8 l -18.8,-19 c 0.7,-1.1 1.3,-2.4 1.5,-3.7 h 26.5 c 1.1,2.4 3.2,4.2 5.7,4.9 -1,6.4 -3.4,12.4 -7.1,17.8 z"
       id="path6"
       inkscape:connector-curvature="0" /></g></svg>