<?xml version="1.0" encoding="UTF-8" standalone="no"?>
<svg
   xmlns:dc="http://purl.org/dc/elements/1.1/"
   xmlns:cc="http://creativecommons.org/ns#"
   xmlns:rdf="http://www.w3.org/1999/02/22-rdf-syntax-ns#"
   xmlns:svg="http://www.w3.org/2000/svg"
   xmlns="http://www.w3.org/2000/svg"
   xmlns:sodipodi="http://sodipodi.sourceforge.net/DTD/sodipodi-0.dtd"
   xmlns:inkscape="http://www.inkscape.org/namespaces/inkscape"
   version="1.1"
   x="0px"
   y="0px"
   viewBox="0 0 22.141475 19.731824"
   enable-background="new 0 0 100 100"
   xml:space="preserve"
   id="svg2"
   inkscape:version="0.48.4 r9939"
   width="100%"
   height="100%"
   sodipodi:docname="Bar.svg"><metadata
     id="metadata30"><rdf:RDF><cc:Work
         rdf:about=""><dc:format>image/svg+xml</dc:format><dc:type
           rdf:resource="http://purl.org/dc/dcmitype/StillImage" /><dc:title></dc:title></cc:Work></rdf:RDF></metadata><defs
     id="defs28" /><sodipodi:namedview
     pagecolor="#ffffff"
     bordercolor="#666666"
     borderopacity="1"
     objecttolerance="10"
     gridtolerance="10"
     guidetolerance="10"
     inkscape:pageopacity="0"
     inkscape:pageshadow="2"
     inkscape:window-width="1322"
     inkscape:window-height="812"
     id="namedview26"
     showgrid="false"
     fit-margin-top="0"
     fit-margin-left="0"
     fit-margin-right="0"
     fit-margin-bottom="0"
     inkscape:zoom="14.481547"
     inkscape:cx="14.895936"
     inkscape:cy="11.93631"
     inkscape:window-x="571"
     inkscape:window-y="110"
     inkscape:window-maximized="0"
     inkscape:current-layer="g8628" /><g
     id="g3217"
     transform="translate(-1256.1733,7562.8473)"><g
       id="g3355"
       transform="translate(0.52596752,-1.51338)"><g
         id="g3394"
         transform="translate(-1.304037,6.1068216)"><g
           id="g3432"
           transform="translate(1.3243604,-7.0685396)"><g
             id="g3490"
             transform="translate(14.50543,16.201175)"><g
               id="g3544"
               transform="translate(1.7832223,7.9070624)"><g
                 id="g3595"
                 transform="translate(9.5264836,-0.46901412)"><g
                   id="g3646"
                   transform="translate(-52.35165,-3.5880634)"><g
                     id="g3767"
                     transform="translate(6.0048559,8.7552768)"><g
                       id="g4075"
                       transform="translate(0.55239017,0.07303033)"><g
                         id="g4264"
                         transform="translate(3.0880737,-2.6377741)"><g
                           id="g4355"
                           transform="translate(8.4601992,5.328404)"><g
                             id="g4421"
                             transform="translate(-6.5255081,7.0858766)"><g
                               id="g4462"
                               transform="translate(25.518018,13.531166)"><g
                                 id="g4500"
                                 transform="translate(80.26127,-61.023322)"><g
                                   id="g5344"
                                   transform="translate(-17.614831,53.929153)"><g
                                   id="g5294"
                                   display="none"
                                   style="display:none"><rect
                                   id="rect5296"
                                   height="196"
                                   width="394.5"
                                   display="inline"
                                   y="-80.754997"
                                   x="-43.5"
                                   style="fill:#000000;display:inline" /></g><g
                                   id="g5316"
                                   display="none"
                                   style="display:none"><g
                                   id="g5318"
                                   display="inline"
                                   style="display:inline"><path
                                   id="path5320"
                                   d="M 1.581,10.718 H 30.418 L 16,1.051 1.581,10.718 z M 17.592,6.594 c 0,0.879 -0.713,1.592 -1.592,1.592 -0.879,0 -1.592,-0.713 -1.592,-1.592 0,-0.879 0.713,-1.592 1.592,-1.592 0.879,0 1.592,0.712 1.592,1.592 z"
                                   inkscape:connector-curvature="0" /><rect
                                   id="rect5322"
                                   height="3.0209999"
                                   width="31"
                                   y="28.030001"
                                   x="0.5" /><rect
                                   id="rect5324"
                                   height="11.875"
                                   width="3.0209999"
                                   y="13.363"
                                   x="3.6670001" /><rect
                                   id="rect5326"
                                   height="11.875"
                                   width="3.0209999"
                                   y="13.363"
                                   x="8.349" /><rect
                                   id="rect5328"
                                   height="11.875"
                                   width="3.0209999"
                                   y="13.363"
                                   x="20.629999" /><rect
                                   id="rect5330"
                                   height="11.875"
                                   width="3.0209999"
                                   y="13.363"
                                   x="25.312" /></g><path
                                   id="path5332"
                                   d="m 19.055,22.809 c -0.386,0.262 -1.035,0.524 -1.857,0.524 -1.01,0 -1.907,-0.386 -2.53,-1.11 -0.474,-0.524 -0.785,-1.246 -0.897,-2.144 h -0.773 v -0.611 h 0.711 c 0,-0.062 0,-0.125 0,-0.187 0,-0.2 0.012,-0.387 0.025,-0.561 h -0.735 v -0.624 h 0.823 c 0.15,-0.872 0.524,-1.595 1.022,-2.106 0.636,-0.66 1.446,-1.035 2.468,-1.035 0.735,0 1.309,0.212 1.658,0.399 l -0.249,0.822 c -0.312,-0.187 -0.835,-0.349 -1.396,-0.349 -0.673,0 -1.221,0.237 -1.645,0.685 -0.374,0.361 -0.623,0.922 -0.748,1.583 h 3.478 v 0.624 h -3.59 c -0.013,0.162 -0.025,0.349 -0.025,0.523 0,0.075 0,0.137 0,0.225 h 3.615 v 0.611 h -3.53 c 0.1,0.723 0.349,1.259 0.685,1.633 0.461,0.486 1.085,0.723 1.757,0.723 0.661,0 1.234,-0.249 1.521,-0.411 l 0.212,0.786 z"
                                   display="inline"
                                   inkscape:connector-curvature="0"
                                   style="display:inline" /></g><g
                                   id="g5453"
                                   transform="translate(-52.625356,-10.750909)"><g
                                   id="g5403"
                                   display="none"
                                   style="display:none"><rect
                                   id="rect5405"
                                   height="196"
                                   width="394.5"
                                   display="inline"
                                   y="-80.754997"
                                   x="-43.5"
                                   style="fill:#000000;display:inline" /></g><g
                                   id="g5425"
                                   display="none"
                                   style="display:none"><g
                                   id="g5427"
                                   display="inline"
                                   style="display:inline"><path
                                   id="path5429"
                                   d="M 1.581,10.718 H 30.418 L 16,1.051 1.581,10.718 z M 17.592,6.594 c 0,0.879 -0.713,1.592 -1.592,1.592 -0.879,0 -1.592,-0.713 -1.592,-1.592 0,-0.879 0.713,-1.592 1.592,-1.592 0.879,0 1.592,0.712 1.592,1.592 z"
                                   inkscape:connector-curvature="0" /><rect
                                   id="rect5431"
                                   height="3.0209999"
                                   width="31"
                                   y="28.030001"
                                   x="0.5" /><rect
                                   id="rect5433"
                                   height="11.875"
                                   width="3.0209999"
                                   y="13.363"
                                   x="3.6670001" /><rect
                                   id="rect5435"
                                   height="11.875"
                                   width="3.0209999"
                                   y="13.363"
                                   x="8.349" /><rect
                                   id="rect5437"
                                   height="11.875"
                                   width="3.0209999"
                                   y="13.363"
                                   x="20.629999" /><rect
                                   id="rect5439"
                                   height="11.875"
                                   width="3.0209999"
                                   y="13.363"
                                   x="25.312" /></g><path
                                   id="path5441"
                                   d="m 19.055,22.809 c -0.386,0.262 -1.035,0.524 -1.857,0.524 -1.01,0 -1.907,-0.386 -2.53,-1.11 -0.474,-0.524 -0.785,-1.246 -0.897,-2.144 h -0.773 v -0.611 h 0.711 c 0,-0.062 0,-0.125 0,-0.187 0,-0.2 0.012,-0.387 0.025,-0.561 h -0.735 v -0.624 h 0.823 c 0.15,-0.872 0.524,-1.595 1.022,-2.106 0.636,-0.66 1.446,-1.035 2.468,-1.035 0.735,0 1.309,0.212 1.658,0.399 l -0.249,0.822 c -0.312,-0.187 -0.835,-0.349 -1.396,-0.349 -0.673,0 -1.221,0.237 -1.645,0.685 -0.374,0.361 -0.623,0.922 -0.748,1.583 h 3.478 v 0.624 h -3.59 c -0.013,0.162 -0.025,0.349 -0.025,0.523 0,0.075 0,0.137 0,0.225 h 3.615 v 0.611 h -3.53 c 0.1,0.723 0.349,1.259 0.685,1.633 0.461,0.486 1.085,0.723 1.757,0.723 0.661,0 1.234,-0.249 1.521,-0.411 l 0.212,0.786 z"
                                   display="inline"
                                   inkscape:connector-curvature="0"
                                   style="display:inline" /></g><g
                                   id="g5911"
                                   transform="translate(34.803917,-34.731522)"><g
                                   id="g5969"
                                   transform="translate(-76.820846,20.463898)"><g
                                   id="g6024"
                                   transform="translate(-1.5269147,1.6004891)"><g
                                   id="g6071"
                                   transform="translate(7.3886843,1.0351706)"><g
                                   id="g6187"
                                   transform="translate(-0.71000052,-4.6322855)"><g
                                   id="g6263"
                                   transform="translate(-0.66737304,-5.3488176)"><g
                                   id="g6319"
                                   transform="translate(0.79720466,3.5647493)"><g
                                   id="g6384"
                                   transform="translate(-9.1472004,2.261335)"><g
                                   id="g6488"
                                   transform="translate(-2.0348122,-3.4042665)"><g
                                   id="g6516"
                                   transform="translate(-0.63832329,-2.3294036)"><g
                                   id="g6769"
                                   transform="translate(1565.7794,-3801.8487)"><g
                                   id="g6910"
                                   transform="translate(-308.09512,-3790.9493)"><g
                                   id="g6983"
                                   transform="translate(-14.231122,-15.611848)"><g
                                   id="g7151"
                                   transform="translate(33.267081,-22.491026)"><g
                                   id="g7382"
                                   transform="translate(-23.229266,23.886871)"><g
                                   id="g7549"
                                   transform="translate(14.444681,15.529545)"><g
                                   id="g7800"
                                   transform="translate(-10.517025,-15.548079)"><g
                                   id="g7999"
                                   transform="matrix(0.53445343,0,0,0.59502607,5.6563057,11.962949)"><g
                                   id="g8217"
                                   transform="matrix(0.65157633,0,0,0.66199506,14.891666,27.68312)"><g
                                   id="g8341"
                                   transform="matrix(0.81955739,0,0,0.8373697,16.904811,-6.2861215)"><g
                                   id="g8463"
                                   transform="matrix(1.0901467,0,0,0.7755316,14.691042,9.5565496)"><g
                                   id="g8628"
                                   transform="matrix(3.2141084,0,0,3.9092417,-42.983003,-211.13796)"><g
                                   id="g8594"
                                   transform="matrix(0.24577057,0,0,0.2622143,14.64339,55.485502)"><path
                                   id="path8596"
                                   d="m 95,69.4 c 0,-0.3 0,-0.7 0,-1.1 0.1,-4.2 -1.1,-7.3 -3.4,-9.1 -2.3,-1.8 -5.1,-2 -6.8,-1.9 l 0.1,-1.4 c 0,-0.2 0,-0.3 0,-0.5 l 0,-0.2 c 0,0 0,0 0,0 0,-0.3 0,-0.6 -0.1,-1 -0.5,-2.2 -2.3,-4 -5,-4.8 -0.7,-0.2 -1.5,-0.3 -2.4,-0.3 h 0 c -3.5,0 -8.6,1.5 -12.2,2.7 l 0,-13.5 c 0,-1 -0.1,-3.5 -0.5,-4.7 L 64.3,32.2 C 65.6,30 65.5,27.6 64.1,25.4 63.5,24.6 62.8,23.8 62,23.1 62,23.1 62,23 62,23 44.8,10.2 22,11.7 17.2,13.8 c -3.2,1.4 -6.4,2.3 -8.6,5 -6.9,8.2 -1.9,17 -1.9,17 l 27.7,9.7 v 0.1 L 6.6,38.2 c 0,0 -2.5,5.6 -0.5,19.6 0.3,1.8 1.5,3.4 3.2,4.1 l 25.5,11.2 0,0 c 0.2,0.1 0.3,0.2 0.5,0.2 0.3,0 0.5,-0.1 0.7,-0.3 0,0 0.1,0 0.1,0 l 2.1,3.8 c 0.4,0.7 1.2,0.9 1.8,0.6 1.4,-0.7 4.5,-1.9 7.9,-3.2 l -2.6,2 c -0.3,0.2 -0.4,0.6 -0.3,1 l 0.1,3.5 c 0,0.9 0.7,1.6 1.6,1.7 l 25.2,3 c 0,0 6.3,3.6 12.4,1.7 C 91.2,85 95.5,78.5 95,69.4 z m -15.8,-18 c 4.5,1.3 4.3,5.2 2.5,6.8 -1.8,1.6 -8.1,5.7 -16.5,5.7 -7.8,0 -17.2,2.6 -28.5,7.2 0,0 -0.1,0 -0.1,0 -0.2,0 -0.3,-0.2 -0.1,-0.3 L 61.8,55.2 c 0,0 10,-4 15.5,-4 0.8,0 1.4,0.1 1.9,0.2 z M 62.5,31.7 c -0.2,0.2 -0.2,0.5 -0.1,0.8 l 0.5,1.8 c 0.2,0.8 0.4,3 0.4,4.1 l 0,14.2 c -1.2,0.4 -2,0.7 -2.1,0.8 -0.1,0 -0.2,0.1 -0.3,0.1 L 36.3,68.8 V 45.3 c 0,-0.1 0,-0.2 0,-0.2 0,-0.1 -2,-8.3 2,-15 2.2,-3.6 7.2,-6.6 12.5,-7.6 5,-0.9 9.9,1.4 11.6,4.1 0.9,1.2 1.5,3 0.1,5.1 z m -2.8,38.9 c 6.5,-0.7 20.5,-0.7 24.5,-7.8 0.2,-0.4 0.3,-0.8 0.3,-1.2 l 0.1,-2.2 c 1.4,-0.1 3.9,-0.1 5.7,1.4 1.8,1.5 2.7,4 2.7,7.6 C 92.9,77 86.4,81 80.4,81 c -3,0 -7.1,-1.8 -7.1,-1.8 -0.1,0 -0.2,-0.1 -0.3,-0.1 l -24.7,-2.7 5.4,-4.1 c 2.6,-1 4.8,-1.6 6,-1.7 z"
                                   inkscape:connector-curvature="0" /><path
                                   id="path8598"
                                   d="m 83.6,63.8 c 0,0 0.1,-0.1 0.1,-0.2 0,0.1 -0.1,0.2 -0.1,0.2 z"
                                   inkscape:connector-curvature="0" /><circle
                                   id="circle8600"
                                   r="1.3"
                                   cy="35.900002"
                                   cx="50.099998"
                                   sodipodi:cx="50.099998"
                                   sodipodi:cy="35.900002"
                                   sodipodi:rx="1.3"
                                   sodipodi:ry="1.3"
                                   d="m 51.399998,35.900002 c 0,0.71797 -0.582029,1.299999 -1.3,1.299999 -0.71797,0 -1.299999,-0.582029 -1.299999,-1.299999 0,-0.717971 0.582029,-1.3 1.299999,-1.3 0.717971,0 1.3,0.582029 1.3,1.3 z" /><circle
                                   id="circle8602"
                                   r="1"
                                   cy="41.900002"
                                   cx="45"
                                   sodipodi:cx="45"
                                   sodipodi:cy="41.900002"
                                   sodipodi:rx="1"
                                   sodipodi:ry="1"
                                   d="m 46,41.900002 c 0,0.552284 -0.447715,1 -1,1 -0.552285,0 -1,-0.447716 -1,-1 0,-0.552285 0.447715,-1 1,-1 0.552285,0 1,0.447715 1,1 z" /><circle
                                   id="circle8604"
                                   r="1.1"
                                   cy="39.900002"
                                   cx="56.400002"
                                   sodipodi:cx="56.400002"
                                   sodipodi:cy="39.900002"
                                   sodipodi:rx="1.1"
                                   sodipodi:ry="1.1"
                                   d="m 57.500002,39.900002 c 0,0.607513 -0.492487,1.1 -1.1,1.1 -0.607514,0 -1.1,-0.492487 -1.1,-1.1 0,-0.607514 0.492486,-1.1 1.1,-1.1 0.607513,0 1.1,0.492486 1.1,1.1 z" /><circle
                                   id="circle8606"
                                   r="1"
                                   cy="30.1"
                                   cx="55.599998"
                                   sodipodi:cx="55.599998"
                                   sodipodi:cy="30.1"
                                   sodipodi:rx="1"
                                   sodipodi:ry="1"
                                   d="m 56.599998,30.1 c 0,0.552285 -0.447715,1 -1,1 -0.552284,0 -1,-0.447715 -1,-1 0,-0.552284 0.447716,-1 1,-1 0.552285,0 1,0.447716 1,1 z" /><circle
                                   id="circle8608"
                                   r="1.3"
                                   cy="72"
                                   cx="75.400002"
                                   sodipodi:cx="75.400002"
                                   sodipodi:cy="72"
                                   sodipodi:rx="1.3"
                                   sodipodi:ry="1.3"
                                   d="m 76.700001,72 c 0,0.71797 -0.582029,1.3 -1.299999,1.3 -0.717971,0 -1.3,-0.58203 -1.3,-1.3 0,-0.71797 0.582029,-1.3 1.3,-1.3 0.71797,0 1.299999,0.58203 1.299999,1.3 z" /><circle
                                   id="circle8610"
                                   r="1.3"
                                   cy="59"
                                   cx="67.900002"
                                   sodipodi:cx="67.900002"
                                   sodipodi:cy="59"
                                   sodipodi:rx="1.3"
                                   sodipodi:ry="1.3"
                                   d="m 69.200001,59 c 0,0.71797 -0.582029,1.3 -1.299999,1.3 -0.717971,0 -1.3,-0.58203 -1.3,-1.3 0,-0.71797 0.582029,-1.3 1.3,-1.3 0.71797,0 1.299999,0.58203 1.299999,1.3 z" /><circle
                                   id="circle8612"
                                   r="1.1"
                                   cy="75.900002"
                                   cx="81.800003"
                                   sodipodi:cx="81.800003"
                                   sodipodi:cy="75.900002"
                                   sodipodi:rx="1.1"
                                   sodipodi:ry="1.1"
                                   d="m 82.900003,75.900002 c 0,0.607513 -0.492487,1.1 -1.1,1.1 -0.607513,0 -1.1,-0.492487 -1.1,-1.1 0,-0.607514 0.492487,-1.1 1.1,-1.1 0.607513,0 1.1,0.492486 1.1,1.1 z" /><circle
                                   id="circle8614"
                                   r="1"
                                   cy="68.5"
                                   cx="83.5"
                                   sodipodi:cx="83.5"
                                   sodipodi:cy="68.5"
                                   sodipodi:rx="1"
                                   sodipodi:ry="1"
                                   d="m 84.5,68.5 c 0,0.552285 -0.447715,1 -1,1 -0.552285,0 -1,-0.447715 -1,-1 0,-0.552285 0.447715,-1 1,-1 0.552285,0 1,0.447715 1,1 z" /><circle
                                   id="circle8616"
                                   r="1"
                                   cy="55.299999"
                                   cx="74.199997"
                                   sodipodi:cx="74.199997"
                                   sodipodi:cy="55.299999"
                                   sodipodi:rx="1"
                                   sodipodi:ry="1"
                                   d="m 75.199997,55.299999 c 0,0.552285 -0.447715,1 -1,1 -0.552285,0 -1,-0.447715 -1,-1 0,-0.552285 0.447715,-1 1,-1 0.552285,0 1,0.447715 1,1 z" /></g></g></g></g></g></g></g></g></g></g></g></g></g></g></g></g></g></g></g></g></g></g></g></g></g></g></g></g></g></g></g></g></g></g></g></g></g></g></g></g></svg>