<?xml version="1.0" encoding="UTF-8" standalone="no"?>
<svg
   xmlns:dc="http://purl.org/dc/elements/1.1/"
   xmlns:cc="http://creativecommons.org/ns#"
   xmlns:rdf="http://www.w3.org/1999/02/22-rdf-syntax-ns#"
   xmlns:svg="http://www.w3.org/2000/svg"
   xmlns="http://www.w3.org/2000/svg"
   xmlns:sodipodi="http://sodipodi.sourceforge.net/DTD/sodipodi-0.dtd"
   xmlns:inkscape="http://www.inkscape.org/namespaces/inkscape"
   version="1.1"
   x="0px"
   y="0px"
   viewBox="0 0 72 90"
   enable-background="new 0 0 72 72"
   xml:space="preserve"
   id="svg2"
   inkscape:version="0.91 r13725"
   sodipodi:docname="Bank.svg"><metadata
     id="metadata16"><rdf:RDF><cc:Work
         rdf:about=""><dc:format>image/svg+xml</dc:format><dc:type
           rdf:resource="http://purl.org/dc/dcmitype/StillImage" /></cc:Work></rdf:RDF></metadata><defs
     id="defs14" /><sodipodi:namedview
     pagecolor="#ffffff"
     bordercolor="#666666"
     borderopacity="1"
     objecttolerance="10"
     gridtolerance="10"
     guidetolerance="10"
     inkscape:pageopacity="0"
     inkscape:pageshadow="2"
     inkscape:window-width="668"
     inkscape:window-height="480"
     id="namedview12"
     showgrid="false"
     inkscape:zoom="2.6222222"
     inkscape:cx="36"
     inkscape:cy="45"
     inkscape:window-x="75"
     inkscape:window-y="34"
     inkscape:window-maximized="0"
     inkscape:current-layer="svg2" /><g
     id="g4"><path
       fill="#000000"
       d="M70.5,63.8h-2c-0.5,0-1-0.4-1-1V17.5c0-0.5-0.4-1-1-1H48.7c-0.5,0-1-0.4-1-1v-2.7c0-6.5-5.1-12-11.5-12.1   c-6.6-0.1-11.9,5.2-11.9,11.7v3.1c0,0.5-0.4,1-1,1H5.4c-0.5,0-1,0.4-1,1v45.4c0,0.5-0.4,1-1,1h-2c-0.5,0-1,0.4-1,1v5.6   c0,0.5,0.4,1,1,1h3h63.1h3c0.5,0,1-0.4,1-1v-5.6C71.5,64.2,71.1,63.8,70.5,63.8z M32.4,13.3h1.9c0.1,0,0.1,0,0.1,0.1   c0,0.6,0.2,1.1,0.5,1.3c0.3,0.3,0.7,0.4,1.2,0.4c0.5,0,0.8-0.1,1-0.4c0.2-0.2,0.4-0.6,0.4-1c0-0.4-0.1-0.7-0.3-1   c-0.2-0.3-0.6-0.5-1.2-0.7c-1.1-0.4-1.9-0.9-2.5-1.3c-0.5-0.5-0.8-1.2-0.8-2.1c0-0.8,0.3-1.5,0.8-2.1c0.5-0.5,1.2-0.8,2.1-0.9   c0.1,0,0.1-0.1,0.1-0.1V4.2c0-0.1,0.1-0.1,0.1-0.1h0.9c0.1,0,0.1,0.1,0.1,0.1v1.4c0,0.1,0,0.1,0.1,0.1c0.8,0.1,1.5,0.5,2,1.1   c0.5,0.6,0.7,1.3,0.7,2.2c0,0,0,0,0,0c0,0.1-0.1,0.2-0.2,0.2h-1.8c-0.1,0-0.2-0.1-0.2-0.2c0-0.5-0.1-0.9-0.4-1.2   c-0.2-0.3-0.6-0.5-1-0.5c-0.4,0-0.7,0.1-1,0.4c-0.2,0.2-0.3,0.6-0.3,1c0,0.4,0.1,0.7,0.3,0.9c0.2,0.2,0.6,0.5,1.2,0.7   c1.1,0.4,1.9,0.9,2.5,1.4c0.5,0.5,0.8,1.2,0.8,2.1c0,0.9-0.3,1.6-0.8,2.1c-0.5,0.5-1.2,0.8-2.1,0.9c-0.1,0-0.1,0.1-0.1,0.1v1.3   c0,0.1-0.1,0.1-0.1,0.1h-1c-0.1,0-0.1-0.1-0.1-0.1v-1.3c0-0.1,0-0.1-0.1-0.1c-0.9-0.1-1.6-0.4-2.2-1c-0.5-0.5-0.8-1.2-0.9-2.1   c0-0.1,0-0.2,0-0.3C32.3,13.3,32.4,13.3,32.4,13.3z M31.3,25.1c0-0.5,0.4-1,1-1h7.4c0.5,0,1,0.4,1,1v9.4c0,0.5-0.4,1-1,1h-7.4   c-0.5,0-1-0.4-1-1V25.1z M19.9,34.5c0,0.5-0.4,1-1,1h-7.4c-0.5,0-1-0.4-1-1v-9.4c0-0.5,0.4-1,1-1h7.4c0.5,0,1,0.4,1,1V34.5z    M48.8,62.8c0,0.5-0.4,1-1,1H24.2c-0.5,0-1-0.4-1-1V44.9c0-0.5,0.4-1,1-1h23.6c0.5,0,1,0.4,1,1V62.8z M61.5,34.5c0,0.5-0.4,1-1,1   h-7.4c-0.5,0-1-0.4-1-1v-9.4c0-0.5,0.4-1,1-1h7.4c0.5,0,1,0.4,1,1V34.5z"
       id="path6" /></g></svg>