<?xml version="1.0" encoding="UTF-8" standalone="no"?>
<svg
   xmlns:dc="http://purl.org/dc/elements/1.1/"
   xmlns:cc="http://creativecommons.org/ns#"
   xmlns:rdf="http://www.w3.org/1999/02/22-rdf-syntax-ns#"
   xmlns:svg="http://www.w3.org/2000/svg"
   xmlns="http://www.w3.org/2000/svg"
   xmlns:sodipodi="http://sodipodi.sourceforge.net/DTD/sodipodi-0.dtd"
   xmlns:inkscape="http://www.inkscape.org/namespaces/inkscape"
   version="1.1"
   x="0px"
   y="0px"
   viewBox="-120 78.1 76.900667 99.99979"
   xml:space="preserve"
   id="svg2"
   inkscape:version="0.48.4 r9939"
   width="100%"
   height="100%"
   sodipodi:docname="Archaeological Site.svg"><metadata
     id="metadata18"><rdf:RDF><cc:Work
         rdf:about=""><dc:format>image/svg+xml</dc:format><dc:type
           rdf:resource="http://purl.org/dc/dcmitype/StillImage" /><dc:title></dc:title></cc:Work></rdf:RDF></metadata><defs
     id="defs16" /><sodipodi:namedview
     pagecolor="#ffffff"
     bordercolor="#666666"
     borderopacity="1"
     objecttolerance="10"
     gridtolerance="10"
     guidetolerance="10"
     inkscape:pageopacity="0"
     inkscape:pageshadow="2"
     inkscape:window-width="725"
     inkscape:window-height="735"
     id="namedview14"
     showgrid="false"
     fit-margin-top="0"
     fit-margin-left="0"
     fit-margin-right="0"
     fit-margin-bottom="0"
     inkscape:zoom="2.6700352"
     inkscape:cx="42.564913"
     inkscape:cy="44.71891"
     inkscape:window-x="137"
     inkscape:window-y="103"
     inkscape:window-maximized="0"
     inkscape:current-layer="g3082" /><g
     id="g3032"
     transform="translate(-119.77231,97.78168)"><g
       id="g3082"
       transform="translate(-11.778449,-19.681681)"><path
         id="path3060"
         d="m 25.711,0 c 0.303,0.228 0.465,0.582 0.665,0.895 2.458,4.074 4.915,8.15 7.386,12.217 0.726,-0.213 1.488,-0.485 2.249,-0.264 1.744,0.497 2.744,2.6 2.141,4.285 -0.214,0.554 -0.64,0.989 -1.101,1.35 0.673,1.313 1.529,2.533 2.247,3.826 -0.33,0.281 -0.783,0.352 -1.135,0.604 0.896,2.154 1.912,4.257 2.852,6.393 0.64,1.454 1.341,2.884 1.939,4.355 -1.197,0.28 -2.375,0.64 -3.57,0.927 -0.162,-0.234 -0.258,-0.503 -0.373,-0.761 -1.391,-3.121 -2.797,-6.235 -4.237,-9.334 -0.376,-0.006 -0.689,0.269 -1.04,0.379 -0.029,-0.042 -0.086,-0.125 -0.115,-0.167 -0.396,-1.106 -0.698,-2.245 -1.095,-3.352 -0.233,0.105 -0.399,0.307 -0.589,0.471 -2.197,2.122 -3.583,4.99 -4.165,7.968 -0.335,1.585 -0.407,3.212 -0.337,4.826 0.047,0.538 0.096,1.079 0.065,1.62 -3.773,-0.796 -7.447,-2.334 -10.447,-4.79 -2.684,-2.17 -4.636,-5.274 -5.237,-8.688 -0.678,-3.652 0.021,-7.423 1.327,-10.856 0.501,-1.26 1.06,-2.507 1.778,-3.659 0.052,0.043 0.153,0.132 0.205,0.176 2.836,3.148 6.704,5.545 10.973,6.017 1.383,0.124 2.804,0.134 4.162,-0.177 C 28.77,9.498 27.23,4.752 25.711,0 z"
         inkscape:connector-curvature="0"
         style="fill:#000000" /><path
         id="path3062"
         d="m 73.841,0.531 c 0.126,-0.186 0.233,-0.399 0.436,-0.515 -1.512,4.747 -3.05,9.485 -4.537,14.239 2.244,0.492 4.61,0.281 6.807,-0.357 2.349,-0.709 4.502,-1.991 6.371,-3.569 0.775,-0.638 1.452,-1.381 2.156,-2.095 1.017,1.666 1.777,3.481 2.363,5.339 0.893,2.929 1.323,6.061 0.764,9.096 -0.313,1.843 -1.028,3.605 -2.022,5.184 -1.312,2.042 -3.146,3.713 -5.183,5.014 -2.592,1.627 -5.494,2.764 -8.492,3.358 -0.056,-0.683 0.057,-1.361 0.089,-2.042 0.076,-2.542 -0.323,-5.112 -1.28,-7.475 -0.733,-1.799 -1.797,-3.479 -3.203,-4.829 -0.2,-0.192 -0.385,-0.414 -0.644,-0.529 -0.394,1.153 -0.714,2.332 -1.136,3.472 -0.355,0.025 -0.692,-0.281 -1.045,-0.377 -0.662,1.251 -1.204,2.564 -1.81,3.845 -0.836,1.844 -1.661,3.694 -2.493,5.541 -0.119,0.255 -0.204,0.531 -0.378,0.757 -1.186,-0.331 -2.4,-0.581 -3.562,-0.981 1.537,-3.41 3.077,-6.819 4.617,-10.229 0.074,-0.17 0.162,-0.346 0.124,-0.537 -0.365,-0.164 -0.759,-0.287 -1.086,-0.523 0.732,-1.289 1.542,-2.534 2.277,-3.822 -0.646,-0.463 -1.192,-1.143 -1.271,-1.96 -0.218,-1.554 0.744,-3.266 2.296,-3.689 0.752,-0.211 1.518,0.025 2.23,0.27 2.55,-4.187 5.076,-8.389 7.612,-12.586 z"
         inkscape:connector-curvature="0"
         style="fill:#000000" /><path
         id="path3064"
         d="m 36.877,78.301 c 0.406,0.262 0.731,0.629 1.115,0.924 0.594,0.518 1.236,0.977 1.846,1.477 -2.774,6.104 -5.516,12.223 -8.281,18.33 -0.298,0.668 -1.069,1.016 -1.775,0.959 -1.203,-0.043 -2.096,-1.48 -1.535,-2.564 2.875,-6.378 5.747,-12.753 8.63,-19.126 z"
         inkscape:connector-curvature="0"
         style="fill:#000000" /><path
         id="path3066"
         d="m 61.802,79.393 c 0.451,-0.35 0.85,-0.762 1.309,-1.1 2.856,6.277 5.674,12.574 8.519,18.855 0.138,0.301 0.291,0.613 0.283,0.953 0.044,0.912 -0.692,1.785 -1.603,1.881 -0.771,0.111 -1.612,-0.305 -1.912,-1.037 -2.741,-6.078 -5.481,-12.154 -8.226,-18.23 0.508,-0.481 1.107,-0.856 1.63,-1.322 z"
         inkscape:connector-curvature="0"
         style="fill:#000000" /><g
         id="g3068"><path
           id="path3070"
           d="m 49.854,33.738 c 0.154,-0.067 0.31,0.022 0.46,0.051 4.164,1.12 8.337,2.21 12.502,3.327 0.192,0.027 0.171,0.259 0.228,0.397 0.172,0.58 0.585,1.061 1.038,1.449 1.251,1.028 2.71,1.751 4.161,2.449 0.377,0.166 0.783,0.246 1.163,0.399 0.118,0.145 0.061,0.351 0.081,0.523 -0.008,6.439 -0.003,12.878 -0.002,19.317 -0.002,0.139 -0.029,0.275 -0.081,0.406 -0.12,0.471 0.054,0.973 -0.114,1.438 -0.087,0.287 -0.021,0.592 -0.065,0.887 -0.118,0.484 -0.271,0.961 -0.352,1.453 -0.163,0.941 -0.545,1.82 -0.899,2.699 -0.326,0.895 -0.852,1.691 -1.329,2.51 -0.259,0.588 -0.723,1.043 -1.048,1.594 -0.355,0.553 -0.793,1.045 -1.188,1.568 -0.701,0.699 -1.256,1.545 -2.072,2.125 -0.62,0.496 -1.09,1.16 -1.749,1.607 -1.286,1.193 -2.814,2.078 -4.253,3.068 -1.656,0.969 -3.3,1.986 -5.084,2.711 -0.432,0.184 -0.841,0.48 -1.317,0.521 -0.919,-0.328 -1.767,-0.822 -2.645,-1.242 -1.123,-0.52 -2.138,-1.234 -3.236,-1.803 -1.231,-0.803 -2.451,-1.625 -3.671,-2.445 -0.588,-0.533 -1.223,-1.01 -1.77,-1.59 -0.581,-0.371 -0.965,-0.963 -1.538,-1.34 -0.314,-0.246 -0.579,-0.549 -0.802,-0.877 -0.803,-0.846 -1.555,-1.748 -2.178,-2.74 -0.583,-0.693 -0.934,-1.535 -1.433,-2.283 -0.818,-1.559 -1.446,-3.229 -1.758,-4.965 -0.194,-0.529 -0.126,-1.1 -0.284,-1.635 -0.038,-0.414 0.061,-0.84 -0.076,-1.24 -0.095,-0.336 -0.038,-0.689 -0.049,-1.031 -0.002,-6.238 0.005,-12.476 -0.004,-18.713 0.02,-0.173 -0.041,-0.38 0.081,-0.524 0.234,-0.1 0.484,-0.149 0.721,-0.242 1.312,-0.618 2.655,-1.194 3.854,-2.022 0.813,-0.576 1.708,-1.277 1.871,-2.326 0.112,-0.158 0.343,-0.141 0.511,-0.208 4.112,-1.081 8.222,-2.17 12.326,-3.273 z"
           inkscape:connector-curvature="0"
           style="fill:#000000" /></g></g></g></svg>