<?xml version="1.0" encoding="UTF-8" standalone="no"?>
<svg
   xmlns:dc="http://purl.org/dc/elements/1.1/"
   xmlns:cc="http://creativecommons.org/ns#"
   xmlns:rdf="http://www.w3.org/1999/02/22-rdf-syntax-ns#"
   xmlns:svg="http://www.w3.org/2000/svg"
   xmlns="http://www.w3.org/2000/svg"
   xmlns:sodipodi="http://sodipodi.sourceforge.net/DTD/sodipodi-0.dtd"
   xmlns:inkscape="http://www.inkscape.org/namespaces/inkscape"
   version="1.1"
   x="0px"
   y="0px"
   viewBox="0 0 100 125"
   enable-background="new 0 0 100 100"
   xml:space="preserve"
   id="svg2"
   inkscape:version="0.91 r13725"
   sodipodi:docname="B&amp;B.svg"><metadata
     id="metadata46"><rdf:RDF><cc:Work
         rdf:about=""><dc:format>image/svg+xml</dc:format><dc:type
           rdf:resource="http://purl.org/dc/dcmitype/StillImage" /></cc:Work></rdf:RDF></metadata><defs
     id="defs44" /><sodipodi:namedview
     pagecolor="#ffffff"
     bordercolor="#666666"
     borderopacity="1"
     objecttolerance="10"
     gridtolerance="10"
     guidetolerance="10"
     inkscape:pageopacity="0"
     inkscape:pageshadow="2"
     inkscape:window-width="668"
     inkscape:window-height="480"
     id="namedview42"
     showgrid="false"
     inkscape:zoom="1.888"
     inkscape:cx="50"
     inkscape:cy="62.5"
     inkscape:window-x="75"
     inkscape:window-y="34"
     inkscape:window-maximized="0"
     inkscape:current-layer="svg2" /><path
     d="M67.779,85.551"
     id="path4" /><path
     d="M67.774,85.546"
     id="path6" /><path
     d="M67.775,85.548"
     id="path8" /><g
     id="g10"><path
       d="M29.892,63.6c2.177,0,3.936-1.768,3.936-3.94c0-2.182-1.759-3.937-3.936-3.937c-2.175,0-3.936,1.755-3.936,3.937   C25.956,61.832,27.717,63.6,29.892,63.6z M29.892,57.294c1.302,0,2.361,1.061,2.361,2.365c0,1.3-1.059,2.365-2.361,2.365   c-1.304,0-2.363-1.065-2.363-2.365C27.528,58.354,28.587,57.294,29.892,57.294z"
       id="path12" /><path
       d="M76.731,58.346v4.377v4.373v5.254H23.326v-8.754v-4.373v-4.382c-2.418,0-4.375,1.962-4.375,4.382v21.882h4.375v-4.373   h53.406v4.373h4.373V62.723C81.104,60.302,79.139,58.346,76.731,58.346z"
       id="path14" /><path
       d="M49.586,54.841h-2.623h-2.627v11.382v1.75c0,1.451,1.178,2.632,2.627,2.632h25.391c1.446,0,2.627-1.181,2.627-2.632v-9.627   l-19.263-3.505H49.586z"
       id="path16" /><path
       d="M27.705,70.604H38.2c0,0,0.005,0,0.009,0c0.54,0,1.045-0.17,1.465-0.459c0.703-0.469,1.162-1.264,1.162-2.173   c0,0-0.002-0.009-0.002-0.019v-1.731h1.748V54.841h-1.748h-2.625c-1.447,0-2.625,1.186-2.625,2.623v2.632v0.872v4.378h-7.879   c-1.447,0-2.627,1.18-2.627,2.627C25.078,69.415,26.258,70.604,27.705,70.604z M27.705,66.921h7.879h1.573v-1.575v-7.882   c0-0.579,0.473-1.048,1.052-1.048c0.57,0,1.052,0.482,1.052,1.048v10.49v0.073c-0.018,0.326-0.188,0.625-0.468,0.813   c-0.115,0.078-0.301,0.179-0.54,0.184H38.2H27.705c-0.583,0-1.052-0.473-1.052-1.052C26.653,67.403,27.136,66.921,27.705,66.921z"
       id="path18" /><path
       d="M69.062,36.536h0.05v11.903c0,0.854,0.698,1.552,1.548,1.552h0.005c0.854,0,1.553-0.698,1.553-1.552V36.536v-6.725v-1.552   v-2.071v-1.034c0-0.154-0.014-0.298-0.019-0.448c0-0.025,0.014-0.046,0.014-0.071v-4.138c0-0.854-0.698-1.553-1.553-1.553h-1.033   c-1.424,0-2.586,2.795-2.586,6.21v1.034v2.071v6.26C68.051,34.726,68.854,35.521,69.062,36.536z"
       id="path20" /><path
       d="M29.855,31.148v17.233c0,0.854,0.698,1.553,1.552,1.553c0.854,0,1.553-0.698,1.553-1.553V31.15   c1.199-0.319,2.071-1.146,2.071-2.136v-9.611c0-0.285-0.234-0.517-0.519-0.517s-0.517,0.232-0.517,0.517v7.243   c0,0.29-0.232,0.519-0.517,0.519c-0.287,0-0.519-0.229-0.519-0.519v-7.243c0-0.285-0.232-0.517-0.517-0.517   c-0.285,0-0.517,0.232-0.517,0.517v7.243c0,0.29-0.234,0.519-0.519,0.519c-0.287,0-0.517-0.229-0.517-0.519v-7.243   c0-0.285-0.232-0.517-0.517-0.517c-0.285,0-0.519,0.232-0.519,0.517v7.243c0,0.29-0.23,0.519-0.517,0.519   c-0.287,0-0.517-0.229-0.517-0.519v-7.243c0-0.285-0.232-0.517-0.519-0.517c-0.285,0-0.514,0.232-0.514,0.517v9.611   C27.788,30.004,28.658,30.831,29.855,31.148z"
       id="path22" /><path
       d="M50.004,24.812c-4.092,0-7.406,3.314-7.406,7.406h14.81C57.408,28.125,54.093,24.812,50.004,24.812z M50.004,26.38   c2.678,0,4.938,1.81,5.623,4.269H44.38C45.067,28.19,47.327,26.38,50.004,26.38z"
       id="path24" /><rect
       x="49.003"
       y="18.887"
       width="1.998"
       height="4.444"
       id="rect26" /><rect
       x="37.908"
       y="24.922"
       transform="matrix(0.866 0.5 -0.5 0.866 18.3356 -16.5906)"
       width="4.442"
       height="2"
       id="rect28" /><rect
       x="42.333"
       y="21.333"
       transform="matrix(0.5 0.866 -0.866 0.5 41.6191 -27.4185)"
       width="4.442"
       height="2"
       id="rect30" /><rect
       x="58.903"
       y="23.7"
       transform="matrix(0.5009 0.8655 -0.8655 0.5009 52.3358 -38.9089)"
       width="2"
       height="4.443"
       id="rect32" /><rect
       x="54.477"
       y="20.112"
       transform="matrix(0.8657 0.5005 -0.5005 0.8657 18.6258 -24.7677)"
       width="2"
       height="4.441"
       id="rect34" /><path
       d="M59.567,35.181h-3.146H39.643v4.644v0.951v0.698c0,3.461,2.834,6.292,6.292,6.292h7.344c2.719,0,5.027-1.762,5.9-4.193   h1.439c2.314,0,4.193-1.879,4.193-4.198c0-2.315-1.879-4.193-4.193-4.193H59.567z M61.983,39.374c0,0.753-0.615,1.364-1.364,1.364   h-1.052v-0.914v-1.812h1.052C61.372,38.012,61.983,38.623,61.983,39.374z"
       id="path36" /></g></svg>