<?xml version="1.0" encoding="UTF-8" standalone="no"?>
<svg
   xmlns:dc="http://purl.org/dc/elements/1.1/"
   xmlns:cc="http://creativecommons.org/ns#"
   xmlns:rdf="http://www.w3.org/1999/02/22-rdf-syntax-ns#"
   xmlns:svg="http://www.w3.org/2000/svg"
   xmlns="http://www.w3.org/2000/svg"
   xmlns:sodipodi="http://sodipodi.sourceforge.net/DTD/sodipodi-0.dtd"
   xmlns:inkscape="http://www.inkscape.org/namespaces/inkscape"
   version="1.1"
   x="0px"
   y="0px"
   viewBox="0 0 84.316762 89.899459"
   enable-background="new 0 0 100 100"
   xml:space="preserve"
   id="svg2"
   inkscape:version="0.48.4 r9939"
   width="100%"
   height="100%"
   sodipodi:docname="Bicycle Rental.svg"><metadata
     id="metadata30"><rdf:RDF><cc:Work
         rdf:about=""><dc:format>image/svg+xml</dc:format><dc:type
           rdf:resource="http://purl.org/dc/dcmitype/StillImage" /><dc:title></dc:title></cc:Work></rdf:RDF></metadata><defs
     id="defs28" /><sodipodi:namedview
     pagecolor="#ffffff"
     bordercolor="#666666"
     borderopacity="1"
     objecttolerance="10"
     gridtolerance="10"
     guidetolerance="10"
     inkscape:pageopacity="0"
     inkscape:pageshadow="2"
     inkscape:window-width="1322"
     inkscape:window-height="812"
     id="namedview26"
     showgrid="false"
     fit-margin-top="0"
     fit-margin-left="0"
     fit-margin-right="0"
     fit-margin-bottom="0"
     inkscape:zoom="3.776"
     inkscape:cx="55.893772"
     inkscape:cy="38.221676"
     inkscape:window-x="571"
     inkscape:window-y="110"
     inkscape:window-maximized="0"
     inkscape:current-layer="g6516" /><g
     id="g3217"
     transform="translate(19.183537,-15.952611)"><g
       id="g3355"
       transform="translate(0.52596752,-1.51338)"><g
         id="g3394"
         transform="translate(-1.304037,6.1068216)"><g
           id="g3432"
           transform="translate(1.3243604,-7.0685396)"><g
             id="g3490"
             transform="translate(14.50543,16.201175)"><g
               id="g3544"
               transform="translate(1.7832223,7.9070624)"><g
                 id="g3595"
                 transform="translate(9.5264836,-0.46901412)"><g
                   id="g3646"
                   transform="translate(-52.35165,-3.5880634)"><g
                     id="g3767"
                     transform="translate(6.0048559,8.7552768)"><g
                       id="g4075"
                       transform="translate(0.55239017,0.07303033)"><g
                         id="g4264"
                         transform="translate(3.0880737,-2.6377741)"><g
                           id="g4355"
                           transform="translate(8.4601992,5.328404)"><g
                             id="g4421"
                             transform="translate(-6.5255081,7.0858766)"><g
                               id="g4462"
                               transform="translate(25.518018,13.531166)"><g
                                 id="g4500"
                                 transform="translate(80.26127,-61.023322)"><g
                                   id="g5344"
                                   transform="translate(-17.614831,53.929153)"><g
                                   id="g5294"
                                   display="none"
                                   style="display:none"><rect
                                   id="rect5296"
                                   height="196"
                                   width="394.5"
                                   display="inline"
                                   y="-80.754997"
                                   x="-43.5"
                                   style="fill:#000000;display:inline" /></g><g
                                   id="g5316"
                                   display="none"
                                   style="display:none"><g
                                   id="g5318"
                                   display="inline"
                                   style="display:inline"><path
                                   id="path5320"
                                   d="M 1.581,10.718 H 30.418 L 16,1.051 1.581,10.718 z M 17.592,6.594 c 0,0.879 -0.713,1.592 -1.592,1.592 -0.879,0 -1.592,-0.713 -1.592,-1.592 0,-0.879 0.713,-1.592 1.592,-1.592 0.879,0 1.592,0.712 1.592,1.592 z"
                                   inkscape:connector-curvature="0" /><rect
                                   id="rect5322"
                                   height="3.0209999"
                                   width="31"
                                   y="28.030001"
                                   x="0.5" /><rect
                                   id="rect5324"
                                   height="11.875"
                                   width="3.0209999"
                                   y="13.363"
                                   x="3.6670001" /><rect
                                   id="rect5326"
                                   height="11.875"
                                   width="3.0209999"
                                   y="13.363"
                                   x="8.349" /><rect
                                   id="rect5328"
                                   height="11.875"
                                   width="3.0209999"
                                   y="13.363"
                                   x="20.629999" /><rect
                                   id="rect5330"
                                   height="11.875"
                                   width="3.0209999"
                                   y="13.363"
                                   x="25.312" /></g><path
                                   id="path5332"
                                   d="m 19.055,22.809 c -0.386,0.262 -1.035,0.524 -1.857,0.524 -1.01,0 -1.907,-0.386 -2.53,-1.11 -0.474,-0.524 -0.785,-1.246 -0.897,-2.144 h -0.773 v -0.611 h 0.711 c 0,-0.062 0,-0.125 0,-0.187 0,-0.2 0.012,-0.387 0.025,-0.561 h -0.735 v -0.624 h 0.823 c 0.15,-0.872 0.524,-1.595 1.022,-2.106 0.636,-0.66 1.446,-1.035 2.468,-1.035 0.735,0 1.309,0.212 1.658,0.399 l -0.249,0.822 c -0.312,-0.187 -0.835,-0.349 -1.396,-0.349 -0.673,0 -1.221,0.237 -1.645,0.685 -0.374,0.361 -0.623,0.922 -0.748,1.583 h 3.478 v 0.624 h -3.59 c -0.013,0.162 -0.025,0.349 -0.025,0.523 0,0.075 0,0.137 0,0.225 h 3.615 v 0.611 h -3.53 c 0.1,0.723 0.349,1.259 0.685,1.633 0.461,0.486 1.085,0.723 1.757,0.723 0.661,0 1.234,-0.249 1.521,-0.411 l 0.212,0.786 z"
                                   display="inline"
                                   inkscape:connector-curvature="0"
                                   style="display:inline" /></g><g
                                   id="g5453"
                                   transform="translate(-52.625356,-10.750909)"><g
                                   id="g5403"
                                   display="none"
                                   style="display:none"><rect
                                   id="rect5405"
                                   height="196"
                                   width="394.5"
                                   display="inline"
                                   y="-80.754997"
                                   x="-43.5"
                                   style="fill:#000000;display:inline" /></g><g
                                   id="g5425"
                                   display="none"
                                   style="display:none"><g
                                   id="g5427"
                                   display="inline"
                                   style="display:inline"><path
                                   id="path5429"
                                   d="M 1.581,10.718 H 30.418 L 16,1.051 1.581,10.718 z M 17.592,6.594 c 0,0.879 -0.713,1.592 -1.592,1.592 -0.879,0 -1.592,-0.713 -1.592,-1.592 0,-0.879 0.713,-1.592 1.592,-1.592 0.879,0 1.592,0.712 1.592,1.592 z"
                                   inkscape:connector-curvature="0" /><rect
                                   id="rect5431"
                                   height="3.0209999"
                                   width="31"
                                   y="28.030001"
                                   x="0.5" /><rect
                                   id="rect5433"
                                   height="11.875"
                                   width="3.0209999"
                                   y="13.363"
                                   x="3.6670001" /><rect
                                   id="rect5435"
                                   height="11.875"
                                   width="3.0209999"
                                   y="13.363"
                                   x="8.349" /><rect
                                   id="rect5437"
                                   height="11.875"
                                   width="3.0209999"
                                   y="13.363"
                                   x="20.629999" /><rect
                                   id="rect5439"
                                   height="11.875"
                                   width="3.0209999"
                                   y="13.363"
                                   x="25.312" /></g><path
                                   id="path5441"
                                   d="m 19.055,22.809 c -0.386,0.262 -1.035,0.524 -1.857,0.524 -1.01,0 -1.907,-0.386 -2.53,-1.11 -0.474,-0.524 -0.785,-1.246 -0.897,-2.144 h -0.773 v -0.611 h 0.711 c 0,-0.062 0,-0.125 0,-0.187 0,-0.2 0.012,-0.387 0.025,-0.561 h -0.735 v -0.624 h 0.823 c 0.15,-0.872 0.524,-1.595 1.022,-2.106 0.636,-0.66 1.446,-1.035 2.468,-1.035 0.735,0 1.309,0.212 1.658,0.399 l -0.249,0.822 c -0.312,-0.187 -0.835,-0.349 -1.396,-0.349 -0.673,0 -1.221,0.237 -1.645,0.685 -0.374,0.361 -0.623,0.922 -0.748,1.583 h 3.478 v 0.624 h -3.59 c -0.013,0.162 -0.025,0.349 -0.025,0.523 0,0.075 0,0.137 0,0.225 h 3.615 v 0.611 h -3.53 c 0.1,0.723 0.349,1.259 0.685,1.633 0.461,0.486 1.085,0.723 1.757,0.723 0.661,0 1.234,-0.249 1.521,-0.411 l 0.212,0.786 z"
                                   display="inline"
                                   inkscape:connector-curvature="0"
                                   style="display:inline" /></g><g
                                   id="g5911"
                                   transform="translate(34.803917,-34.731522)"><g
                                   id="g5969"
                                   transform="translate(-76.820846,20.463898)"><g
                                   id="g6024"
                                   transform="translate(-1.5269147,1.6004891)"><g
                                   id="g6071"
                                   transform="translate(7.3886843,1.0351706)"><g
                                   id="g6187"
                                   transform="translate(-0.71000052,-4.6322855)"><g
                                   id="g6263"
                                   transform="translate(-0.66737304,-5.3488176)"><g
                                   id="g6319"
                                   transform="translate(0.79720466,3.5647493)"><g
                                   id="g6384"
                                   transform="translate(-9.1472004,2.261335)"><g
                                   id="g6488"
                                   transform="translate(-2.0348122,-3.4042665)"><g
                                   id="g6516"
                                   transform="translate(-0.63832329,-2.3294036)"><path
                                   id="path6496"
                                   d="m 34.639,58.6 v -1.19 c 0,-0.41 0.245,-0.76 0.594,-0.924 v 3.038 C 34.883,59.359 34.639,59.012 34.639,58.6 z"
                                   inkscape:connector-curvature="0" /><path
                                   id="path6498"
                                   d="m 46.354,53.113 c 0.084,0.02 0.166,0.029 0.245,0.029 0.462,0 0.884,-0.315 0.997,-0.784 0.135,-0.552 -0.204,-1.107 -0.755,-1.241 l -6.335,-1.542 c -0.549,-0.134 -1.107,0.205 -1.242,0.756 -0.135,0.551 0.205,1.107 0.757,1.241 l 6.333,1.541 z"
                                   inkscape:connector-curvature="0" /><path
                                   id="path6500"
                                   d="m 38.482,58.004 v -0.085 c 0,-0.566 -0.46,-1.027 -1.028,-1.027 l -1.629,-0.456 v 3.13 l 1.629,-0.533 c 0.568,-0.001 1.028,-0.462 1.028,-1.029 z"
                                   inkscape:connector-curvature="0" /><path
                                   id="path6502"
                                   d="m 76.147,63.717 c -2.596,0 -5.043,0.635 -7.215,1.736 l -0.379,-0.646 c 0.051,-0.033 0.107,-0.065 0.16,-0.1 0.762,-0.335 1.455,-0.784 2.188,-1.034 0.358,-0.146 0.71,-0.287 1.051,-0.423 0.348,-0.109 0.684,-0.218 1.009,-0.319 0.647,-0.227 1.264,-0.359 1.811,-0.483 0.277,-0.066 0.532,-0.129 0.772,-0.186 0.242,-0.036 0.463,-0.072 0.665,-0.103 0.807,-0.128 1.279,-0.219 1.279,-0.219 0,0 -0.459,-0.081 -1.291,-0.188 -0.207,-0.027 -0.439,-0.054 -0.691,-0.084 -0.253,-0.002 -0.525,-0.002 -0.816,-0.003 -0.586,-0.004 -1.255,-0.014 -1.971,0.111 -0.36,0.047 -0.738,0.096 -1.128,0.147 -0.384,0.096 -0.776,0.194 -1.181,0.296 -0.828,0.174 -1.641,0.539 -2.5,0.866 -0.093,0.051 -0.191,0.098 -0.287,0.147 l -1.894,-3.217 1.629,-2.617 c 3.408,0.072 6.11,1.329 6.313,-1.175 0.614,-0.327 1.196,-0.828 1.659,-1.471 0.099,-0.136 0.176,-0.277 0.259,-0.415 0.376,0.071 0.758,0.12 1.149,0.12 5.225,0 9.319,-6.688 9.319,-15.225 0,-1.041 -0.063,-2.052 -0.18,-3.029 1.059,-1.503 1.922,-3.178 2.53,-5.012 C 91.763,21.086 86.291,10.174 76.189,6.819 66.084,3.466 55.175,8.937 51.818,19.04 c -0.835,2.515 -1.122,5.078 -0.929,7.563 -0.253,0.293 -0.591,0.546 -0.939,0.728 l -0.076,0.04 c -0.655,0.342 -1.425,0.24 -1.965,-0.197 l -0.158,-0.303 c -0.121,-0.228 -0.28,-0.418 -0.466,-0.568 l -0.087,-0.161 -0.081,0.042 C 46.592,25.851 45.909,25.797 45.32,26.106 l -0.077,0.039 c -0.593,0.308 -0.938,0.898 -0.967,1.519 0,0 0.06,0.619 0.089,0.743 C 44.513,29.053 45,30.336 45,30.336 L 10.541,48.298 c 0,0 -0.789,0.418 -0.978,0.658 -0.206,0.264 -0.42,1.204 -0.42,1.204 l -1.271,5.156 c 0,0 -0.101,0.246 0.063,0.562 0.129,0.251 0.279,0.34 0.479,0.396 l 6.062,1.625 c 0.01,0.002 0.017,0.008 0.024,0.01 0.188,-0.188 0.469,-0.271 0.742,-0.189 0,0 1.425,0.721 1.847,0.495 0.445,-0.238 0.852,-1.759 0.852,-1.759 0.118,-0.397 0.538,-0.624 0.933,-0.507 0,0 3.434,0.707 4.117,0.378 0.694,-0.332 0.917,-1.935 0.917,-1.935 0.117,-0.398 0.404,-0.853 0.801,-0.735 0,0 1.755,0.89 2.435,0.507 0.594,-0.339 2.156,-3.753 2.156,-3.753 0.118,-0.397 0.535,-0.625 0.934,-0.507 0,0 1.508,0.626 2.307,0.207 1.06,-0.552 0.148,-2.14 2.88,-3.48 1.824,-0.895 4.161,0.417 5.263,-0.213 0.408,-0.233 0.718,-1.212 0.718,-1.212 0.118,-0.398 0.533,-0.625 0.93,-0.508 l 2.777,0.82 L 49.933,43 c 0.886,-0.46 1.971,-0.118 2.434,0.765 l 0.395,0.64 c 0.52,0.689 1.476,0.923 2.27,0.512 l 0.073,-0.04 c 0.883,-0.46 1.227,-1.548 0.768,-2.432 l -0.509,-0.969 c -0.049,-0.693 0.313,-1.381 0.964,-1.724 l 0.076,-0.039 c 0.265,-0.137 0.587,-0.186 0.924,-0.166 1.896,1.683 4.155,3.017 6.714,3.864 7.273,2.416 14.952,0.239 19.942,-4.931 0.008,0.251 0.021,0.5 0.021,0.754 0,7.139 -3.328,13.17 -7.266,13.17 -0.165,0 -0.327,-0.013 -0.489,-0.034 0.079,-0.981 -0.222,-1.866 -0.932,-2.38 -0.374,-0.27 -0.832,-0.411 -1.325,-0.411 -0.332,0 -0.673,0.07 -1.009,0.186 l 0.648,0.901 c 0.122,-0.023 0.243,-0.062 0.36,-0.062 0.28,0 0.523,0.074 0.722,0.218 0.361,0.261 0.525,0.73 0.519,1.281 -2.207,-0.885 -4.072,-3.655 -5.042,-7.29 -0.004,0 -0.006,0 -0.01,0 -0.729,0 -1.443,-0.041 -2.145,-0.1 1.073,4.674 3.486,8.191 6.521,9.341 -0.021,0.032 -0.038,0.066 -0.061,0.099 -0.232,0.319 -0.505,0.594 -0.796,0.818 -0.047,-0.78 -0.497,-1.2 -3.388,-1.2 -3.87,0 -10.639,0.75 -10.639,2.114 0,1.198 1.362,1.582 5.242,1.552 L 64,58.904 H 40.6 l 1.529,-5.463 c 0.153,-0.549 -0.167,-1.115 -0.712,-1.268 -0.542,-0.149 -1.113,0.166 -1.266,0.713 l -1.854,6.628 -2.494,4.039 c -0.313,-0.156 -0.625,-0.308 -0.923,-0.468 -0.861,-0.327 -1.672,-0.692 -2.499,-0.866 -0.405,-0.102 -0.799,-0.2 -1.183,-0.296 -0.388,-0.052 -0.766,-0.101 -1.126,-0.147 -0.716,-0.125 -1.385,-0.115 -1.971,-0.111 -0.291,10e-4 -0.563,10e-4 -0.816,0.003 -0.253,0.03 -0.483,0.057 -0.692,0.084 -0.832,0.107 -1.293,0.188 -1.293,0.188 0,0 0.475,0.091 1.28,0.219 0.203,0.03 0.424,0.066 0.667,0.103 0.238,0.057 0.495,0.119 0.772,0.186 0.548,0.124 1.162,0.257 1.809,0.483 0.325,0.102 0.663,0.21 1.012,0.319 0.339,0.136 0.689,0.277 1.049,0.423 0.733,0.25 1.426,0.699 2.19,1.034 0.24,0.151 0.486,0.3 0.733,0.449 l -0.271,0.442 c -2.243,-1.2 -4.801,-1.882 -7.517,-1.882 -8.827,0 -16.008,7.181 -16.008,16.007 0,8.828 7.181,16.009 16.008,16.009 8.828,0 16.01,-7.181 16.01,-16.009 0,-5.376 -2.674,-10.132 -6.751,-13.036 l 0.233,-0.378 c 0.621,0.441 1.19,0.958 1.779,1.453 0.622,0.629 1.285,1.226 1.814,1.923 0.585,0.652 1.06,1.372 1.556,2.049 0.392,0.733 0.895,1.389 1.199,2.102 0.172,0.348 0.34,0.686 0.503,1.015 0.137,0.34 0.268,0.667 0.395,0.982 0.276,0.633 0.452,1.227 0.619,1.759 0.086,0.269 0.167,0.52 0.243,0.752 0.057,0.242 0.105,0.465 0.154,0.667 0.189,0.806 0.316,1.265 0.316,1.265 0,0 0.044,-0.475 0.087,-1.3 0.01,-0.208 0.021,-0.437 0.033,-0.685 -0.019,-0.253 -0.039,-0.527 -0.06,-0.818 -0.042,-0.589 -0.085,-1.268 -0.263,-1.967 -0.074,-0.357 -0.153,-0.729 -0.233,-1.113 -0.126,-0.374 -0.254,-0.759 -0.387,-1.156 -0.236,-0.811 -0.66,-1.591 -1.053,-2.424 C 42.726,70.04 42.293,69.176 41.655,68.443 41.083,67.657 40.371,66.971 39.693,66.255 38.995,65.684 38.31,65.1 37.566,64.61 l 2.13,-3.452 c 1.445,0.556 5.029,2.371 8.279,7.522 3.555,5.629 1.79,11.601 1.771,11.661 -0.097,0.317 -0.035,0.661 0.168,0.924 0.193,0.255 0.497,0.402 0.813,0.402 0.013,0 0.026,0 0.04,-0.002 l 9.452,-0.34 c 0.808,8.078 7.644,14.406 15.928,14.406 8.828,0 16.011,-7.181 16.011,-16.009 0,-8.825 -7.182,-16.005 -16.011,-16.005 z M 78.203,40.629 C 73.965,42.838 69.136,43.225 64.6,41.72 60.164,40.246 56.569,37.135 54.475,32.957 52.379,28.78 52.036,24.036 53.511,19.603 c 1.438,-4.337 4.464,-7.889 8.515,-10 4.236,-2.209 9.068,-2.596 13.604,-1.091 9.155,3.04 14.131,12.962 11.088,22.119 -0.344,1.038 -0.786,2.027 -1.304,2.966 C 85.231,32.83 85.012,32.098 84.759,31.4 84.937,30.988 85.103,30.57 85.246,30.141 88.015,21.797 83.483,12.756 75.139,9.985 71.01,8.611 66.606,8.966 62.743,10.979 c -3.69,1.924 -6.446,5.161 -7.759,9.113 -1.342,4.042 -1.03,8.364 0.878,12.171 1.909,3.806 5.186,6.642 9.228,7.983 4.133,1.374 8.533,1.021 12.396,-0.992 2.411,-1.257 4.412,-3.081 5.885,-5.291 0.166,0.665 0.296,1.359 0.4,2.073 -1.502,1.879 -3.377,3.452 -5.568,4.593 z m 2.514,-15.197 c -1.202,-0.906 -2.545,-1.424 -3.978,-1.424 -1.049,0 -2.047,0.28 -2.98,0.778 0.552,0.627 1.236,1.123 2.017,1.412 0.315,-0.08 0.635,-0.136 0.964,-0.136 0.688,0 1.354,0.194 1.991,0.536 -0.979,0.301 -2.052,0.321 -3.097,-0.026 -2.672,-0.888 -4.119,-3.772 -3.229,-6.445 0.885,-2.672 3.77,-4.119 6.445,-3.231 2.668,0.887 4.117,3.773 3.229,6.445 -0.277,0.833 -0.764,1.529 -1.362,2.091 z m -9.072,29.027 c 0.604,0 1.089,0.43 1.223,0.992 -0.554,0.214 -1.09,0.222 -1.463,-0.049 -0.156,-0.113 -0.273,-0.269 -0.36,-0.451 -0.196,0.181 -0.337,0.425 -0.363,0.714 -0.017,0.212 0.044,0.4 0.133,0.574 0.372,0.267 0.823,0.408 1.316,0.408 0.146,0 0.295,-0.013 0.442,-0.036 -0.232,0.248 -0.56,0.408 -0.928,0.408 -0.708,0 -1.279,-0.574 -1.279,-1.281 -0.001,-0.706 0.571,-1.279 1.279,-1.279 z M 40.981,79.724 c 0,7.694 -6.26,13.955 -13.955,13.955 -7.693,0 -13.954,-6.261 -13.954,-13.955 0,-7.694 6.26,-13.953 13.954,-13.953 2.322,0 4.506,0.576 6.433,1.584 l -5.319,8.612 c -0.354,-0.105 -0.724,-0.18 -1.113,-0.18 -2.17,0 -3.935,1.766 -3.935,3.937 0,2.171 1.765,3.938 3.935,3.938 2.17,0 3.938,-1.767 3.938,-3.938 0,-1.039 -0.414,-1.979 -1.073,-2.684 l 5.311,-8.6 c 3.493,2.539 5.778,6.645 5.778,11.284 z m -14.494,0.875 c 0.168,0.104 0.355,0.153 0.539,0.153 0.343,0 0.682,-0.172 0.874,-0.488 l 0.825,-1.336 c 0.115,0.242 0.185,0.511 0.185,0.796 0,1.039 -0.845,1.884 -1.884,1.884 -1.037,0 -1.882,-0.845 -1.882,-1.884 0,-1.022 0.819,-1.852 1.836,-1.876 l -0.826,1.338 c -0.299,0.481 -0.15,1.114 0.333,1.413 z M 49.715,67.585 C 47.648,64.309 45.444,62.245 43.61,60.96 H 62.724 L 52.221,77.819 c 0.175,-2.594 -0.12,-6.453 -2.506,-10.234 z m 7.924,9.888 c -0.022,0.291 -0.041,0.565 -0.061,0.818 0.014,0.248 0.022,0.477 0.032,0.685 0.008,0.146 0.016,0.265 0.022,0.389 l -4.047,0.146 10.918,-17.527 1.312,2.226 c -0.129,0.083 -0.261,0.164 -0.384,0.257 -0.829,0.511 -1.566,1.166 -2.332,1.79 -0.678,0.716 -1.391,1.401 -1.961,2.188 -0.639,0.733 -1.071,1.597 -1.563,2.37 -0.394,0.833 -0.818,1.613 -1.055,2.424 -0.133,0.397 -0.261,0.782 -0.388,1.156 -0.079,0.384 -0.156,0.756 -0.23,1.113 -0.178,0.697 -0.221,1.376 -0.263,1.965 z m 2.524,1.799 -2.231,0.081 c 0.028,-0.111 0.053,-0.214 0.083,-0.343 0.048,-0.202 0.099,-0.425 0.153,-0.667 0.075,-0.232 0.157,-0.483 0.244,-0.752 0.166,-0.532 0.342,-1.126 0.617,-1.759 0.127,-0.315 0.259,-0.643 0.396,-0.982 0.162,-0.329 0.33,-0.667 0.502,-1.015 0.305,-0.713 0.808,-1.368 1.198,-2.102 0.499,-0.677 0.972,-1.396 1.558,-2.049 0.528,-0.697 1.192,-1.294 1.813,-1.923 0.677,-0.571 1.319,-1.188 2.058,-1.661 0.087,-0.068 0.18,-0.121 0.271,-0.184 l 0.335,0.57 c -4.115,2.805 -6.847,7.478 -6.997,12.786 z m 8.043,-11.007 5.132,8.712 c -0.495,0.506 -0.851,1.145 -1.015,1.857 L 62.22,79.198 c 0.172,-4.525 2.496,-8.505 5.986,-10.933 z m 7.941,25.414 c -7.177,0 -13.101,-5.448 -13.864,-12.427 l 10.125,-0.364 c 0.499,1.601 1.977,2.773 3.739,2.773 2.171,0 3.94,-1.767 3.94,-3.938 0,-2.171 -1.77,-3.937 -3.94,-3.937 -0.36,0 -0.703,0.064 -1.035,0.155 l -5.133,-8.715 c 1.861,-0.924 3.951,-1.457 6.168,-1.457 7.696,0 13.957,6.259 13.957,13.953 0,7.694 -6.26,13.957 -13.957,13.957 z M 77.034,79.204 76.236,77.85 c 0.998,0.046 1.795,0.866 1.795,1.873 0,1.039 -0.845,1.884 -1.884,1.884 -0.633,0 -1.192,-0.317 -1.534,-0.799 l 1.574,-0.057 c 0.36,-0.014 0.689,-0.216 0.861,-0.533 0.177,-0.317 0.169,-0.702 -0.014,-1.014 z"
                                   inkscape:connector-curvature="0" /><path
                                   id="path6504"
                                   d="m 71.361,52.519 -0.659,-0.912 c -0.412,0.605 -0.677,1.245 -0.79,1.861 h 1.058 c 0.076,-0.315 0.218,-0.634 0.391,-0.949 z"
                                   inkscape:connector-curvature="0" /></g></g></g></g></g></g></g></g></g></g></g></g></g></g></g></g></g></g></g></g></g></g></g></g></g></g></g></svg>