<?xml version="1.0" encoding="UTF-8" standalone="no"?>
<svg
   xmlns:dc="http://purl.org/dc/elements/1.1/"
   xmlns:cc="http://creativecommons.org/ns#"
   xmlns:rdf="http://www.w3.org/1999/02/22-rdf-syntax-ns#"
   xmlns:svg="http://www.w3.org/2000/svg"
   xmlns="http://www.w3.org/2000/svg"
   xmlns:sodipodi="http://sodipodi.sourceforge.net/DTD/sodipodi-0.dtd"
   xmlns:inkscape="http://www.inkscape.org/namespaces/inkscape"
   version="1.1"
   x="0px"
   y="0px"
   viewBox="0 0 86.202997 84.083998"
   enable-background="new 0 0 100 100"
   xml:space="preserve"
   id="svg2"
   inkscape:version="0.48.4 r9939"
   width="100%"
   height="100%"
   sodipodi:docname="Bus Station.svg"><metadata
     id="metadata30"><rdf:RDF><cc:Work
         rdf:about=""><dc:format>image/svg+xml</dc:format><dc:type
           rdf:resource="http://purl.org/dc/dcmitype/StillImage" /><dc:title></dc:title></cc:Work></rdf:RDF></metadata><defs
     id="defs28" /><sodipodi:namedview
     pagecolor="#ffffff"
     bordercolor="#666666"
     borderopacity="1"
     objecttolerance="10"
     gridtolerance="10"
     guidetolerance="10"
     inkscape:pageopacity="0"
     inkscape:pageshadow="2"
     inkscape:window-width="1322"
     inkscape:window-height="812"
     id="namedview26"
     showgrid="false"
     fit-margin-top="0"
     fit-margin-left="0"
     fit-margin-right="0"
     fit-margin-bottom="0"
     inkscape:zoom="3.6203867"
     inkscape:cx="-16.729513"
     inkscape:cy="5.459704"
     inkscape:window-x="571"
     inkscape:window-y="110"
     inkscape:window-maximized="0"
     inkscape:current-layer="g6769" /><g
     id="g3217"
     transform="translate(-1545.2506,3783.5434)"><g
       id="g3355"
       transform="translate(0.52596752,-1.51338)"><g
         id="g3394"
         transform="translate(-1.304037,6.1068216)"><g
           id="g3432"
           transform="translate(1.3243604,-7.0685396)"><g
             id="g3490"
             transform="translate(14.50543,16.201175)"><g
               id="g3544"
               transform="translate(1.7832223,7.9070624)"><g
                 id="g3595"
                 transform="translate(9.5264836,-0.46901412)"><g
                   id="g3646"
                   transform="translate(-52.35165,-3.5880634)"><g
                     id="g3767"
                     transform="translate(6.0048559,8.7552768)"><g
                       id="g4075"
                       transform="translate(0.55239017,0.07303033)"><g
                         id="g4264"
                         transform="translate(3.0880737,-2.6377741)"><g
                           id="g4355"
                           transform="translate(8.4601992,5.328404)"><g
                             id="g4421"
                             transform="translate(-6.5255081,7.0858766)"><g
                               id="g4462"
                               transform="translate(25.518018,13.531166)"><g
                                 id="g4500"
                                 transform="translate(80.26127,-61.023322)"><g
                                   id="g5344"
                                   transform="translate(-17.614831,53.929153)"><g
                                   id="g5294"
                                   display="none"
                                   style="display:none"><rect
                                   id="rect5296"
                                   height="196"
                                   width="394.5"
                                   display="inline"
                                   y="-80.754997"
                                   x="-43.5"
                                   style="fill:#000000;display:inline" /></g><g
                                   id="g5316"
                                   display="none"
                                   style="display:none"><g
                                   id="g5318"
                                   display="inline"
                                   style="display:inline"><path
                                   id="path5320"
                                   d="M 1.581,10.718 H 30.418 L 16,1.051 1.581,10.718 z M 17.592,6.594 c 0,0.879 -0.713,1.592 -1.592,1.592 -0.879,0 -1.592,-0.713 -1.592,-1.592 0,-0.879 0.713,-1.592 1.592,-1.592 0.879,0 1.592,0.712 1.592,1.592 z"
                                   inkscape:connector-curvature="0" /><rect
                                   id="rect5322"
                                   height="3.0209999"
                                   width="31"
                                   y="28.030001"
                                   x="0.5" /><rect
                                   id="rect5324"
                                   height="11.875"
                                   width="3.0209999"
                                   y="13.363"
                                   x="3.6670001" /><rect
                                   id="rect5326"
                                   height="11.875"
                                   width="3.0209999"
                                   y="13.363"
                                   x="8.349" /><rect
                                   id="rect5328"
                                   height="11.875"
                                   width="3.0209999"
                                   y="13.363"
                                   x="20.629999" /><rect
                                   id="rect5330"
                                   height="11.875"
                                   width="3.0209999"
                                   y="13.363"
                                   x="25.312" /></g><path
                                   id="path5332"
                                   d="m 19.055,22.809 c -0.386,0.262 -1.035,0.524 -1.857,0.524 -1.01,0 -1.907,-0.386 -2.53,-1.11 -0.474,-0.524 -0.785,-1.246 -0.897,-2.144 h -0.773 v -0.611 h 0.711 c 0,-0.062 0,-0.125 0,-0.187 0,-0.2 0.012,-0.387 0.025,-0.561 h -0.735 v -0.624 h 0.823 c 0.15,-0.872 0.524,-1.595 1.022,-2.106 0.636,-0.66 1.446,-1.035 2.468,-1.035 0.735,0 1.309,0.212 1.658,0.399 l -0.249,0.822 c -0.312,-0.187 -0.835,-0.349 -1.396,-0.349 -0.673,0 -1.221,0.237 -1.645,0.685 -0.374,0.361 -0.623,0.922 -0.748,1.583 h 3.478 v 0.624 h -3.59 c -0.013,0.162 -0.025,0.349 -0.025,0.523 0,0.075 0,0.137 0,0.225 h 3.615 v 0.611 h -3.53 c 0.1,0.723 0.349,1.259 0.685,1.633 0.461,0.486 1.085,0.723 1.757,0.723 0.661,0 1.234,-0.249 1.521,-0.411 l 0.212,0.786 z"
                                   display="inline"
                                   inkscape:connector-curvature="0"
                                   style="display:inline" /></g><g
                                   id="g5453"
                                   transform="translate(-52.625356,-10.750909)"><g
                                   id="g5403"
                                   display="none"
                                   style="display:none"><rect
                                   id="rect5405"
                                   height="196"
                                   width="394.5"
                                   display="inline"
                                   y="-80.754997"
                                   x="-43.5"
                                   style="fill:#000000;display:inline" /></g><g
                                   id="g5425"
                                   display="none"
                                   style="display:none"><g
                                   id="g5427"
                                   display="inline"
                                   style="display:inline"><path
                                   id="path5429"
                                   d="M 1.581,10.718 H 30.418 L 16,1.051 1.581,10.718 z M 17.592,6.594 c 0,0.879 -0.713,1.592 -1.592,1.592 -0.879,0 -1.592,-0.713 -1.592,-1.592 0,-0.879 0.713,-1.592 1.592,-1.592 0.879,0 1.592,0.712 1.592,1.592 z"
                                   inkscape:connector-curvature="0" /><rect
                                   id="rect5431"
                                   height="3.0209999"
                                   width="31"
                                   y="28.030001"
                                   x="0.5" /><rect
                                   id="rect5433"
                                   height="11.875"
                                   width="3.0209999"
                                   y="13.363"
                                   x="3.6670001" /><rect
                                   id="rect5435"
                                   height="11.875"
                                   width="3.0209999"
                                   y="13.363"
                                   x="8.349" /><rect
                                   id="rect5437"
                                   height="11.875"
                                   width="3.0209999"
                                   y="13.363"
                                   x="20.629999" /><rect
                                   id="rect5439"
                                   height="11.875"
                                   width="3.0209999"
                                   y="13.363"
                                   x="25.312" /></g><path
                                   id="path5441"
                                   d="m 19.055,22.809 c -0.386,0.262 -1.035,0.524 -1.857,0.524 -1.01,0 -1.907,-0.386 -2.53,-1.11 -0.474,-0.524 -0.785,-1.246 -0.897,-2.144 h -0.773 v -0.611 h 0.711 c 0,-0.062 0,-0.125 0,-0.187 0,-0.2 0.012,-0.387 0.025,-0.561 h -0.735 v -0.624 h 0.823 c 0.15,-0.872 0.524,-1.595 1.022,-2.106 0.636,-0.66 1.446,-1.035 2.468,-1.035 0.735,0 1.309,0.212 1.658,0.399 l -0.249,0.822 c -0.312,-0.187 -0.835,-0.349 -1.396,-0.349 -0.673,0 -1.221,0.237 -1.645,0.685 -0.374,0.361 -0.623,0.922 -0.748,1.583 h 3.478 v 0.624 h -3.59 c -0.013,0.162 -0.025,0.349 -0.025,0.523 0,0.075 0,0.137 0,0.225 h 3.615 v 0.611 h -3.53 c 0.1,0.723 0.349,1.259 0.685,1.633 0.461,0.486 1.085,0.723 1.757,0.723 0.661,0 1.234,-0.249 1.521,-0.411 l 0.212,0.786 z"
                                   display="inline"
                                   inkscape:connector-curvature="0"
                                   style="display:inline" /></g><g
                                   id="g5911"
                                   transform="translate(34.803917,-34.731522)"><g
                                   id="g5969"
                                   transform="translate(-76.820846,20.463898)"><g
                                   id="g6024"
                                   transform="translate(-1.5269147,1.6004891)"><g
                                   id="g6071"
                                   transform="translate(7.3886843,1.0351706)"><g
                                   id="g6187"
                                   transform="translate(-0.71000052,-4.6322855)"><g
                                   id="g6263"
                                   transform="translate(-0.66737304,-5.3488176)"><g
                                   id="g6319"
                                   transform="translate(0.79720466,3.5647493)"><g
                                   id="g6384"
                                   transform="translate(-9.1472004,2.261335)"><g
                                   id="g6488"
                                   transform="translate(-2.0348122,-3.4042665)"><g
                                   id="g6516"
                                   transform="translate(-0.63832329,-2.3294036)"><g
                                   id="g6769"
                                   transform="translate(1565.7794,-3801.8487)"><path
                                   id="path6751"
                                   d="m 76.337,58.511 c -2.106,0 -4.122,0.395 -5.98,1.106 l -4.12,-8.105 1.7,-3.937 h 0.586 c 0.974,0 1.764,-0.79 1.764,-1.764 0,-0.974 -0.79,-1.764 -1.764,-1.764 h -9.656 c -0.975,0 -1.765,0.79 -1.765,1.764 0,0.974 0.79,1.764 1.765,1.764 h 5.228 L 63.13,49.809 H 39.012 c 0.189,-0.306 0.402,-0.624 0.639,-0.94 1.522,-2.029 3.283,-3.058 5.234,-3.058 0.974,0 1.764,-0.79 1.764,-1.764 0,-0.974 -0.79,-1.764 -1.764,-1.764 -3.078,0 -5.863,1.545 -8.057,4.468 -1.43,1.906 -2.158,3.813 -2.292,4.186 l -3.448,8.273 c -1.518,-0.452 -3.123,-0.699 -4.785,-0.699 -9.244,0 -16.765,7.521 -16.765,16.766 0,1.824 0.297,3.579 0.838,5.225 -2.172,2.671 -3.478,6.073 -3.478,9.776 v 1.764 H 50.234 V 88.514 H 37.846 C 37.81,88.191 37.76,87.871 37.703,87.555 41,84.492 43.068,80.122 43.068,75.278 c 0,-6.333 -3.531,-11.855 -8.725,-14.707 l 2.232,-5.358 14.766,21.077 c 0.014,0.02 0.029,0.037 0.043,0.057 0.021,0.026 0.043,0.054 0.064,0.079 0.025,0.03 0.054,0.059 0.081,0.087 0.023,0.023 0.046,0.048 0.07,0.069 0.03,0.027 0.062,0.052 0.093,0.077 0.025,0.02 0.049,0.04 0.075,0.059 0.034,0.023 0.068,0.044 0.104,0.065 0.026,0.016 0.052,0.033 0.079,0.048 0.037,0.02 0.076,0.036 0.113,0.054 0.028,0.013 0.055,0.025 0.083,0.036 0.04,0.017 0.082,0.028 0.124,0.041 0.027,0.009 0.054,0.019 0.082,0.025 0.047,0.012 0.096,0.021 0.144,0.028 0.023,0.004 0.046,0.01 0.069,0.013 0.072,0.009 0.146,0.014 0.219,0.014 l 0,0 h 10e-4 6.879 c 0.884,8.418 8.022,15.001 16.672,15.001 9.243,0 16.765,-7.521 16.765,-16.765 0,-9.244 -7.521,-16.767 -16.764,-16.767 z m -50.034,3.528 c 1.182,0 2.327,0.158 3.418,0.45 l -5.046,12.108 c -0.042,0.101 -0.071,0.203 -0.093,0.307 -0.707,-0.099 -1.427,-0.15 -2.16,-0.15 -3.408,0 -6.561,1.106 -9.125,2.977 -0.148,-0.796 -0.23,-1.616 -0.23,-2.454 -10e-4,-7.3 5.937,-13.238 13.236,-13.238 z m 0,26.474 c -5.141,0 -9.604,-2.947 -11.795,-7.24 2.113,-1.86 4.885,-2.99 7.914,-2.99 5.197,0 9.631,3.323 11.293,7.956 -2.117,1.434 -4.668,2.274 -7.412,2.274 z m -15.746,0 c 0.231,-1.565 0.77,-3.032 1.545,-4.341 1.049,1.667 2.381,3.137 3.932,4.341 H 10.557 z M 39.54,75.276 c 0,3.205 -1.146,6.148 -3.05,8.441 -1.693,-3.618 -4.744,-6.479 -8.491,-7.927 l 4.977,-11.94 c 3.922,2.301 6.564,6.559 6.564,11.426 z m 20.125,-1.763 h -4.063 l 8.724,-17.975 2.889,5.684 c -4.131,2.689 -7.01,7.145 -7.55,12.291 z m 9.158,-9.126 4.638,9.126 h -10.24 c 0.506,-3.777 2.605,-7.052 5.602,-9.126 z m -7.35,-11.05 -8.963,18.47 -12.938,-18.47 h 21.901 z m 14.864,35.176 c -6.7,0 -12.251,-5.005 -13.116,-11.473 h 13.116 c 0.002,0 0.004,0 0.007,0 0.975,0 1.764,-0.789 1.764,-1.764 0,-0.342 -0.098,-0.661 -0.266,-0.932 L 71.965,62.783 c 1.37,-0.48 2.84,-0.745 4.372,-0.745 7.298,0 13.237,5.938 13.237,13.237 0,7.3 -5.939,13.238 -13.237,13.238 z"
                                   inkscape:connector-curvature="0" /><g
                                   id="g6753"><path
                                   id="path6755"
                                   d="M 60.236,7.959 H 40.285 c -0.779,0 -1.411,0.632 -1.411,1.411 v 24.445 c 0,0.779 0.632,1.411 1.411,1.411 h 19.951 c 0.779,0 1.412,-0.632 1.412,-1.411 V 9.37 c 0,-0.779 -0.632,-1.411 -1.412,-1.411 z M 55.581,22.386 C 54.49,23.348 52.992,23.83 51.09,23.83 h -3.273 v 6.003 h -3.32 V 13.278 h 6.594 c 1.902,0 3.4,0.485 4.491,1.456 1.092,0.97 1.638,2.248 1.638,3.832 0,1.584 -0.547,2.857 -1.639,3.82 z"
                                   inkscape:connector-curvature="0" /><path
                                   id="path6757"
                                   d="m 51.09,15.837 h -3.273 v 5.435 h 3.273 c 0.926,0 1.626,-0.252 2.104,-0.756 0.478,-0.504 0.717,-1.146 0.717,-1.927 0,-0.795 -0.237,-1.453 -0.711,-1.972 -0.474,-0.519 -1.178,-0.78 -2.11,-0.78 z"
                                   inkscape:connector-curvature="0" /></g></g></g></g></g></g></g></g></g></g></g></g></g></g></g></g></g></g></g></g></g></g></g></g></g></g></g></g></g></svg>