<?xml version="1.0" encoding="UTF-8" standalone="no"?>
<svg
   xmlns:dc="http://purl.org/dc/elements/1.1/"
   xmlns:cc="http://creativecommons.org/ns#"
   xmlns:rdf="http://www.w3.org/1999/02/22-rdf-syntax-ns#"
   xmlns:svg="http://www.w3.org/2000/svg"
   xmlns="http://www.w3.org/2000/svg"
   xmlns:sodipodi="http://sodipodi.sourceforge.net/DTD/sodipodi-0.dtd"
   xmlns:inkscape="http://www.inkscape.org/namespaces/inkscape"
   version="1.1"
   x="0px"
   y="0px"
   viewBox="0 0 86.202997 84.083998"
   enable-background="new 0 0 100 100"
   xml:space="preserve"
   id="svg2"
   inkscape:version="0.91 r13725"
   width="100%"
   height="100%"
   sodipodi:docname="Bicycle Shop.svg"><metadata
     id="metadata30"><rdf:RDF><cc:Work
         rdf:about=""><dc:format>image/svg+xml</dc:format><dc:type
           rdf:resource="http://purl.org/dc/dcmitype/StillImage" /><dc:title /></cc:Work></rdf:RDF></metadata><defs
     id="defs28" /><sodipodi:namedview
     pagecolor="#ffffff"
     bordercolor="#666666"
     borderopacity="1"
     objecttolerance="10"
     gridtolerance="10"
     guidetolerance="10"
     inkscape:pageopacity="0"
     inkscape:pageshadow="2"
     inkscape:window-width="1680"
     inkscape:window-height="974"
     id="namedview26"
     showgrid="false"
     fit-margin-top="0"
     fit-margin-left="0"
     fit-margin-right="0"
     fit-margin-bottom="0"
     inkscape:zoom="7.2407734"
     inkscape:cx="27.669728"
     inkscape:cy="62.916942"
     inkscape:window-x="0"
     inkscape:window-y="24"
     inkscape:window-maximized="1"
     inkscape:current-layer="g6769" /><g
     id="g3217"
     transform="translate(-1545.2506,3783.5434)"><g
       id="g3355"
       transform="translate(0.52596752,-1.51338)"><g
         id="g3394"
         transform="translate(-1.304037,6.1068216)"><g
           id="g3432"
           transform="translate(1.3243604,-7.0685396)"><g
             id="g3490"
             transform="translate(14.50543,16.201175)"><g
               id="g3544"
               transform="translate(1.7832223,7.9070624)"><g
                 id="g3595"
                 transform="translate(9.5264836,-0.46901412)"><g
                   id="g3646"
                   transform="translate(-52.35165,-3.5880634)"><g
                     id="g3767"
                     transform="translate(6.0048559,8.7552768)"><g
                       id="g4075"
                       transform="translate(0.55239017,0.07303033)"><g
                         id="g4264"
                         transform="translate(3.0880737,-2.6377741)"><g
                           id="g4355"
                           transform="translate(8.4601992,5.328404)"><g
                             id="g4421"
                             transform="translate(-6.5255081,7.0858766)"><g
                               id="g4462"
                               transform="translate(25.518018,13.531166)"><g
                                 id="g4500"
                                 transform="translate(80.26127,-61.023322)"><g
                                   id="g5344"
                                   transform="translate(-17.614831,53.929153)"><g
                                   id="g5294"
                                   display="none"
                                   style="display:none"><rect
                                   id="rect5296"
                                   height="196"
                                   width="394.5"
                                   display="inline"
                                   y="-80.754997"
                                   x="-43.5"
                                   style="fill:#000000;display:inline" /></g><g
                                   id="g5316"
                                   display="none"
                                   style="display:none"><g
                                   id="g5318"
                                   display="inline"
                                   style="display:inline"><path
                                   id="path5320"
                                   d="M 1.581,10.718 H 30.418 L 16,1.051 1.581,10.718 z M 17.592,6.594 c 0,0.879 -0.713,1.592 -1.592,1.592 -0.879,0 -1.592,-0.713 -1.592,-1.592 0,-0.879 0.713,-1.592 1.592,-1.592 0.879,0 1.592,0.712 1.592,1.592 z"
                                   inkscape:connector-curvature="0" /><rect
                                   id="rect5322"
                                   height="3.0209999"
                                   width="31"
                                   y="28.030001"
                                   x="0.5" /><rect
                                   id="rect5324"
                                   height="11.875"
                                   width="3.0209999"
                                   y="13.363"
                                   x="3.6670001" /><rect
                                   id="rect5326"
                                   height="11.875"
                                   width="3.0209999"
                                   y="13.363"
                                   x="8.349" /><rect
                                   id="rect5328"
                                   height="11.875"
                                   width="3.0209999"
                                   y="13.363"
                                   x="20.629999" /><rect
                                   id="rect5330"
                                   height="11.875"
                                   width="3.0209999"
                                   y="13.363"
                                   x="25.312" /></g><path
                                   id="path5332"
                                   d="m 19.055,22.809 c -0.386,0.262 -1.035,0.524 -1.857,0.524 -1.01,0 -1.907,-0.386 -2.53,-1.11 -0.474,-0.524 -0.785,-1.246 -0.897,-2.144 h -0.773 v -0.611 h 0.711 c 0,-0.062 0,-0.125 0,-0.187 0,-0.2 0.012,-0.387 0.025,-0.561 h -0.735 v -0.624 h 0.823 c 0.15,-0.872 0.524,-1.595 1.022,-2.106 0.636,-0.66 1.446,-1.035 2.468,-1.035 0.735,0 1.309,0.212 1.658,0.399 l -0.249,0.822 c -0.312,-0.187 -0.835,-0.349 -1.396,-0.349 -0.673,0 -1.221,0.237 -1.645,0.685 -0.374,0.361 -0.623,0.922 -0.748,1.583 h 3.478 v 0.624 h -3.59 c -0.013,0.162 -0.025,0.349 -0.025,0.523 0,0.075 0,0.137 0,0.225 h 3.615 v 0.611 h -3.53 c 0.1,0.723 0.349,1.259 0.685,1.633 0.461,0.486 1.085,0.723 1.757,0.723 0.661,0 1.234,-0.249 1.521,-0.411 l 0.212,0.786 z"
                                   display="inline"
                                   inkscape:connector-curvature="0"
                                   style="display:inline" /></g><g
                                   id="g5453"
                                   transform="translate(-52.625356,-10.750909)"><g
                                   id="g5403"
                                   display="none"
                                   style="display:none"><rect
                                   id="rect5405"
                                   height="196"
                                   width="394.5"
                                   display="inline"
                                   y="-80.754997"
                                   x="-43.5"
                                   style="fill:#000000;display:inline" /></g><g
                                   id="g5425"
                                   display="none"
                                   style="display:none"><g
                                   id="g5427"
                                   display="inline"
                                   style="display:inline"><path
                                   id="path5429"
                                   d="M 1.581,10.718 H 30.418 L 16,1.051 1.581,10.718 z M 17.592,6.594 c 0,0.879 -0.713,1.592 -1.592,1.592 -0.879,0 -1.592,-0.713 -1.592,-1.592 0,-0.879 0.713,-1.592 1.592,-1.592 0.879,0 1.592,0.712 1.592,1.592 z"
                                   inkscape:connector-curvature="0" /><rect
                                   id="rect5431"
                                   height="3.0209999"
                                   width="31"
                                   y="28.030001"
                                   x="0.5" /><rect
                                   id="rect5433"
                                   height="11.875"
                                   width="3.0209999"
                                   y="13.363"
                                   x="3.6670001" /><rect
                                   id="rect5435"
                                   height="11.875"
                                   width="3.0209999"
                                   y="13.363"
                                   x="8.349" /><rect
                                   id="rect5437"
                                   height="11.875"
                                   width="3.0209999"
                                   y="13.363"
                                   x="20.629999" /><rect
                                   id="rect5439"
                                   height="11.875"
                                   width="3.0209999"
                                   y="13.363"
                                   x="25.312" /></g><path
                                   id="path5441"
                                   d="m 19.055,22.809 c -0.386,0.262 -1.035,0.524 -1.857,0.524 -1.01,0 -1.907,-0.386 -2.53,-1.11 -0.474,-0.524 -0.785,-1.246 -0.897,-2.144 h -0.773 v -0.611 h 0.711 c 0,-0.062 0,-0.125 0,-0.187 0,-0.2 0.012,-0.387 0.025,-0.561 h -0.735 v -0.624 h 0.823 c 0.15,-0.872 0.524,-1.595 1.022,-2.106 0.636,-0.66 1.446,-1.035 2.468,-1.035 0.735,0 1.309,0.212 1.658,0.399 l -0.249,0.822 c -0.312,-0.187 -0.835,-0.349 -1.396,-0.349 -0.673,0 -1.221,0.237 -1.645,0.685 -0.374,0.361 -0.623,0.922 -0.748,1.583 h 3.478 v 0.624 h -3.59 c -0.013,0.162 -0.025,0.349 -0.025,0.523 0,0.075 0,0.137 0,0.225 h 3.615 v 0.611 h -3.53 c 0.1,0.723 0.349,1.259 0.685,1.633 0.461,0.486 1.085,0.723 1.757,0.723 0.661,0 1.234,-0.249 1.521,-0.411 l 0.212,0.786 z"
                                   display="inline"
                                   inkscape:connector-curvature="0"
                                   style="display:inline" /></g><g
                                   id="g5911"
                                   transform="translate(34.803917,-34.731522)"><g
                                   id="g5969"
                                   transform="translate(-76.820846,20.463898)"><g
                                   id="g6024"
                                   transform="translate(-1.5269147,1.6004891)"><g
                                   id="g6071"
                                   transform="translate(7.3886843,1.0351706)"><g
                                   id="g6187"
                                   transform="translate(-0.71000052,-4.6322855)"><g
                                   id="g6263"
                                   transform="translate(-0.66737304,-5.3488176)"><g
                                   id="g6319"
                                   transform="translate(0.79720466,3.5647493)"><g
                                   id="g6384"
                                   transform="translate(-9.1472004,2.261335)"><g
                                   id="g6488"
                                   transform="translate(-2.0348122,-3.4042665)"><g
                                   id="g6516"
                                   transform="translate(-0.63832329,-2.3294036)"><g
                                   id="g6769"
                                   transform="translate(1565.7794,-3801.8487)"><path
                                   inkscape:connector-curvature="0"
                                   d="m 24.073684,58.03985 c 0.872549,0 1.722311,0.08735 2.558781,0.215526 l 3.086679,-14.557047 c 0.0085,-0.03988 0.03323,-0.06931 0.04652,-0.107288 0.02089,-0.06076 0.04273,-0.119631 0.07596,-0.1747 0.03228,-0.05412 0.07026,-0.09969 0.112036,-0.145266 0.03893,-0.04368 0.07691,-0.08355 0.123429,-0.119632 0.05507,-0.04178 0.113934,-0.07216 0.176598,-0.101592 0.03323,-0.01519 0.05792,-0.04178 0.094,-0.05317 l 6.556938,-2.180899 c 0.495616,-0.166154 1.033007,0.103491 1.198212,0.600056 0.165206,0.496565 -0.10349,1.033007 -0.601005,1.198213 l -6.041383,2.009047 -1.058643,4.995084 32.226409,0 0.671264,-3.404747 c 0.01899,-0.09874 0.06456,-0.183245 0.110137,-0.266797 l -6.30913,0 c -0.523149,0 -0.947556,-0.424406 -0.947556,-0.947556 0,-0.52315 0.424407,-0.947556 0.947556,-0.947556 l 12.692317,0 c 0.52315,0 0.947557,0.424406 0.947557,0.947556 0,0.52315 -0.424407,0.947556 -0.947557,0.947556 l -4.743478,0 c 0.103491,0.187992 0.154762,0.406367 0.110137,0.633287 l -0.757665,3.842445 4.732085,9.091034 c 2.092599,-0.936163 4.402623,-1.472605 6.841774,-1.472605 9.293267,0 16.853779,7.560511 16.853779,16.853779 0,9.294213 -7.560512,16.853775 -16.853779,16.853775 -6.993687,0 -12.967659,-4.298184 -15.507452,-10.381343 l -0.395923,0.134823 c -0.0057,0.0019 -0.01139,9.49e-4 -0.01804,0.0028 -0.584865,0.264898 -1.228595,0.420609 -1.911254,0.420609 -2.567327,0 -4.656128,-2.087852 -4.656128,-4.655175 0,-0.698799 0.165205,-1.354873 0.442446,-1.950181 L 28.895966,56.71631 28.486751,58.645602 c 7.156044,1.947333 12.439762,8.483383 12.439762,16.247078 0,9.294213 -7.560511,16.853775 -16.853779,16.853775 -9.293267,0 -16.8537799,-7.560512 -16.8537799,-16.853775 C 7.2199036,65.599412 14.780416,58.03985 24.073684,58.03985 Z M 63.81408,53.399863 61.138515,66.972325 c 1.462161,-2.734431 3.648757,-5.015023 6.311029,-6.58922 L 63.81408,53.399863 Z m -6.310079,22.213453 0.20888,-1.061491 c -0.394024,0.06266 -0.761463,0.201285 -1.082379,0.412064 l 0.873499,0.649427 z m 5.063444,3.035408 9.514491,-3.24144 -10.027196,-0.64468 c 0.466182,0.725384 0.745322,1.582742 0.745322,2.507512 -9.5e-4,0.483272 -0.09589,0.93996 -0.232617,1.378608 z M 74.35778,73.65459 68.324942,62.06554 c -3.794023,2.274895 -6.499021,6.176206 -7.139903,10.741187 L 74.35778,73.65459 Z m 1.616922,16.196753 c 8.247917,0 14.958667,-6.71075 14.958667,-14.958663 0,-8.247918 -6.7098,-14.958667 -14.958667,-14.958667 -2.122982,0 -4.138675,0.45384 -5.968275,1.25518 l 6.648085,12.772071 c 0.343703,0.04747 0.650377,0.274393 0.770008,0.625691 0.168054,0.494666 -0.09589,1.033957 -0.59151,1.20201 l -14.574138,4.965647 c 2.28439,5.336888 7.553866,9.096731 13.71583,9.096731 z M 55.382918,77.270116 c 0,1.521976 1.23809,2.760062 2.760066,2.760062 1.521977,0 2.761016,-1.238086 2.761016,-2.760062 0,-0.997878 -0.536442,-1.86473 -1.332086,-2.349902 l -0.499413,2.533146 c -0.0019,0.0076 -0.0066,0.01329 -0.0076,0.01994 -0.0085,0.03893 -0.02943,0.07311 -0.04273,0.110137 -0.02753,0.07691 -0.05697,0.150963 -0.101592,0.215526 -0.0076,0.01139 -0.0085,0.02469 -0.01709,0.03608 -0.01424,0.01899 -0.03703,0.02658 -0.05317,0.04367 -0.06836,0.07976 -0.147165,0.144318 -0.237363,0.197487 -0.03228,0.01899 -0.06077,0.03893 -0.094,0.05317 -0.117732,0.05222 -0.24306,0.08735 -0.375984,0.08735 0,0 -9.49e-4,0 -9.49e-4,0 0,0 0,0 -9.5e-4,0 -9.49e-4,0 -0.0019,0 -0.0028,0 -0.05887,0 -0.118682,-0.0057 -0.179447,-0.01709 -0.01614,-0.0028 -0.02753,-0.01424 -0.04368,-0.01804 -0.0826,-0.01994 -0.159508,-0.05507 -0.236414,-0.09779 -0.02658,-0.01519 -0.05697,-0.02469 -0.08165,-0.04178 -0.0066,-0.0047 -0.01424,-0.0057 -0.02089,-0.01044 l -2.069812,-1.538118 c -0.07216,0.246859 -0.123429,0.504161 -0.123429,0.776655 z m -0.316169,-3.467411 c 0.810835,-0.720636 1.862831,-1.171628 3.027813,-1.18397 l 4.160513,-21.106389 -32.254892,0 -0.671265,3.163584 25.737831,19.126775 z M 24.073684,89.851343 c 8.247917,0 14.958666,-6.71075 14.958666,-14.958663 0,-6.853168 -4.639038,-12.630603 -10.937724,-14.393741 l -3.093325,14.589329 c -0.094,0.446243 -0.488969,0.751968 -0.926668,0.751968 -0.06456,0 -0.131025,-0.0066 -0.197487,-0.01994 -0.512705,-0.109187 -0.839318,-0.611449 -0.73108,-1.123205 l 3.093325,-14.58648 c -0.709243,-0.103491 -1.427981,-0.1747 -2.165707,-0.1747 -8.247918,0 -14.9586679,6.7098 -14.9586679,14.958667 0,8.248863 6.7107499,14.956764 14.9586679,14.956764 z"
                                   id="path4" /><g
                                   transform="matrix(0.67073289,0,0,0.67073289,26.013251,4.7766939)"
                                   id="g18"><path
                                   inkscape:connector-curvature="0"
                                   d="m 56.07,29.299 c 0.932,0 1.736,-0.641 1.949,-1.547 L 63.455,10.041 C 63.705,8.964 63.037,7.888 61.961,7.637 60.885,7.386 59.811,8.054 59.559,9.128 l -0.574,2.446 -36.763,0 -1.062,-4.99 C 20.964,5.66 20.148,5 19.203,5 L 10.017,5 C 8.912,5 8.015,5.896 8.015,7 c 0,1.105 0.896,2.002 2.002,2.002 l 7.566,0 5.094,23.925 c -0.004,0.019 -0.014,0.035 -0.018,0.055 l -1.303,6.385 c -0.1,0.488 0.025,0.996 0.342,1.383 0.314,0.385 0.787,0.609 1.285,0.609 l 33.584,0 c 0.918,0 1.66,-0.744 1.66,-1.66 0,-0.916 -0.742,-1.66 -1.66,-1.66 l -31.552,0 0.691,-3.384 30.364,-5.356 z"
                                   id="path20" /><path
                                   inkscape:connector-curvature="0"
                                   d="m 27.062,45.003 c -2.598,0 -4.703,2.104 -4.703,4.699 0,2.6 2.105,4.701 4.703,4.701 2.596,0 4.699,-2.102 4.699,-4.701 0,-2.596 -2.103,-4.699 -4.699,-4.699 z"
                                   id="path22" /><path
                                   inkscape:connector-curvature="0"
                                   d="m 51.894,45.003 c -2.598,0 -4.701,2.104 -4.701,4.699 0,2.6 2.104,4.701 4.701,4.701 2.596,0 4.699,-2.102 4.699,-4.701 0,-2.596 -2.103,-4.699 -4.699,-4.699 z"
                                   id="path24" /></g></g></g></g></g></g></g></g></g></g></g></g></g></g></g></g></g></g></g></g></g></g></g></g></g></g></g></g></g></svg>