<?xml version="1.0" encoding="UTF-8" standalone="no"?>
<svg
   xmlns:dc="http://purl.org/dc/elements/1.1/"
   xmlns:cc="http://creativecommons.org/ns#"
   xmlns:rdf="http://www.w3.org/1999/02/22-rdf-syntax-ns#"
   xmlns:svg="http://www.w3.org/2000/svg"
   xmlns="http://www.w3.org/2000/svg"
   xmlns:sodipodi="http://sodipodi.sourceforge.net/DTD/sodipodi-0.dtd"
   xmlns:inkscape="http://www.inkscape.org/namespaces/inkscape"
   version="1.1"
   data-icon="dollar"
   data-container-transform="translate(3)"
   viewBox="0 0 100 100"
   x="0px"
   y="0px"
   id="svg8"
   sodipodi:docname="Bureau de Change.svg"
   width="100"
   height="100"
   inkscape:version="0.92.5 (2060ec1f9f, 2020-04-08)">
  <metadata
     id="metadata14">
    <rdf:RDF>
      <cc:Work
         rdf:about="">
        <dc:format>image/svg+xml</dc:format>
        <dc:type
           rdf:resource="http://purl.org/dc/dcmitype/StillImage" />
        <dc:title></dc:title>
      </cc:Work>
    </rdf:RDF>
  </metadata>
  <defs
     id="defs12" />
  <sodipodi:namedview
     pagecolor="#ffffff"
     bordercolor="#666666"
     borderopacity="1"
     objecttolerance="10"
     gridtolerance="10"
     guidetolerance="10"
     inkscape:pageopacity="0"
     inkscape:pageshadow="2"
     inkscape:window-width="1680"
     inkscape:window-height="884"
     id="namedview10"
     showgrid="false"
     inkscape:zoom="2.085965"
     inkscape:cx="-44.934529"
     inkscape:cy="-18.270721"
     inkscape:window-x="0"
     inkscape:window-y="0"
     inkscape:window-maximized="1"
     inkscape:current-layer="svg8" />
  <path
     d="M 47.147971,4.3675374 V 15.952479 c -9.411696,0.541886 -15.663343,3.633485 -19.074369,8.019906 -3.75327,4.825633 -3.741862,10.341456 -3.741862,11.767471 0,6.890502 4.38642,12.474774 9.269093,15.149977 4.375013,2.395705 9.029524,3.336874 13.547138,4.278044 V 72.639406 C 42.613245,72.297162 39.846777,71.236208 38.415058,69.964203 36.698137,68.435515 35.739855,66.159596 35.739855,61.408116 H 24.33174 c 0,6.656636 1.899451,12.936803 6.593891,17.112174 4.112625,3.656301 9.628449,5.17358 16.22234,5.527232 v 11.584941 h 5.704057 V 84.047522 c 9.411696,-0.541886 15.663343,-3.633485 19.07437,-8.019906 3.75327,-4.825633 3.741862,-10.341457 3.741862,-11.767471 0,-6.890502 -4.386421,-12.474774 -9.269094,-15.149978 -4.375013,-2.395704 -9.029524,-3.336873 -13.547138,-4.278043 V 27.360595 c 4.534726,0.342243 7.301194,1.403198 8.732913,2.675203 1.716921,1.528688 2.675203,3.804607 2.675203,8.556087 H 75.66826 c 0,-6.656636 -1.899452,-12.936803 -6.593891,-17.112174 -4.112626,-3.656301 -9.62845,-5.17358 -16.222341,-5.527232 V 4.3675374 Z m 0,22.9930576 V 43.40611 c -3.325466,-0.832793 -6.348617,-1.659881 -8.202436,-2.675203 -2.60105,-1.426015 -3.211384,-1.899452 -3.211384,-4.991051 0,-1.426015 0.01141,-3.040263 1.249189,-4.637399 1.078067,-1.386086 3.701933,-3.262721 10.158927,-3.741862 z m 5.704057,29.233296 c 3.325466,0.832793 6.348617,1.659881 8.202436,2.675203 2.60105,1.426015 3.211384,1.899452 3.211384,4.991051 0,1.426014 -0.01141,3.040263 -1.249189,4.637399 -1.078066,1.386086 -3.701933,3.262721 -10.158927,3.741862 V 56.593891 Z"
     id="path2"
     inkscape:connector-curvature="0"
     style="stroke-width:5.70405769" />
</svg>
