<?xml version="1.0" encoding="UTF-8" standalone="no"?>
<svg
   xmlns:dc="http://purl.org/dc/elements/1.1/"
   xmlns:cc="http://creativecommons.org/ns#"
   xmlns:rdf="http://www.w3.org/1999/02/22-rdf-syntax-ns#"
   xmlns:svg="http://www.w3.org/2000/svg"
   xmlns="http://www.w3.org/2000/svg"
   xmlns:sodipodi="http://sodipodi.sourceforge.net/DTD/sodipodi-0.dtd"
   xmlns:inkscape="http://www.inkscape.org/namespaces/inkscape"
   viewBox="0 0 60 60"
   version="1.1"
   x="0px"
   y="0px"
   id="svg16"
   sodipodi:docname="Bus Station.svg"
   width="60"
   height="60"
   inkscape:version="0.92.5 (2060ec1f9f, 2020-04-08)">
  <metadata
     id="metadata22">
    <rdf:RDF>
      <cc:Work
         rdf:about="">
        <dc:format>image/svg+xml</dc:format>
        <dc:type
           rdf:resource="http://purl.org/dc/dcmitype/StillImage" />
        <dc:title>bike black</dc:title>
      </cc:Work>
    </rdf:RDF>
  </metadata>
  <defs
     id="defs20" />
  <sodipodi:namedview
     pagecolor="#ffffff"
     bordercolor="#666666"
     borderopacity="1"
     objecttolerance="10"
     gridtolerance="10"
     guidetolerance="10"
     inkscape:pageopacity="0"
     inkscape:pageshadow="2"
     inkscape:window-width="1440"
     inkscape:window-height="824"
     id="namedview18"
     showgrid="false"
     inkscape:zoom="5.2444444"
     inkscape:cx="30"
     inkscape:cy="22.5"
     inkscape:window-x="0"
     inkscape:window-y="0"
     inkscape:window-maximized="1"
     inkscape:current-layer="svg16" />
  <title
     id="title2">bike black</title>
  <desc
     id="desc4">Created with Sketch.</desc>
  <path
     id="path6527"
     d="M 56.189392,4.6466293 C 54.172677,2.6228801 5.8424142,2.6299147 3.8257002,4.6466293 3.4945416,4.9669657 3.5746259,9.9933298 3.5746259,10.565283 v 39.958756 h 2.5913713 v 6.344507 h 9.5619418 v -6.345047 h 28.387135 v 6.344506 h 9.726445 v -6.344506 h 2.591913 V 10.565283 c 0,-0.516759 0.02218,-5.6708259 -0.24404,-5.9186537 z M 16.325323,47.120462 H 7.3169372 v -4.698993 h 9.0083858 z m 13.638659,-0.877679 c -0.924214,0 -1.670945,-0.749437 -1.670945,-1.674193 0,-0.924755 0.74619,-1.677979 1.670945,-1.677979 0.928543,0 1.685015,0.753224 1.685015,1.677979 0,0.924756 -0.756472,1.674193 -1.685015,1.674193 z m 22.723891,0.877679 h -8.986748 v -4.698993 h 8.986207 v 4.698993 z M 53.823662,36.9541 H 6.3267072 V 14.816779 H 53.823662 Z m 0,-22.960348 H 6.3267072 V 6.4593456 H 53.823662 Z"
     inkscape:connector-curvature="0"
     style="stroke-width:0.54110932" />
</svg>
