<?xml version="1.0" encoding="UTF-8" standalone="no"?>
<svg
   xmlns:dc="http://purl.org/dc/elements/1.1/"
   xmlns:cc="http://creativecommons.org/ns#"
   xmlns:rdf="http://www.w3.org/1999/02/22-rdf-syntax-ns#"
   xmlns:svg="http://www.w3.org/2000/svg"
   xmlns="http://www.w3.org/2000/svg"
   xmlns:sodipodi="http://sodipodi.sourceforge.net/DTD/sodipodi-0.dtd"
   xmlns:inkscape="http://www.inkscape.org/namespaces/inkscape"
   version="1.1"
   x="0px"
   y="0px"
   viewBox="0 0 28.540228 28.2649"
   enable-background="new 0 0 100 100"
   xml:space="preserve"
   id="svg2"
   inkscape:version="0.48.4 r9939"
   width="100%"
   height="100%"
   sodipodi:docname="Cafe.svg"><metadata
     id="metadata30"><rdf:RDF><cc:Work
         rdf:about=""><dc:format>image/svg+xml</dc:format><dc:type
           rdf:resource="http://purl.org/dc/dcmitype/StillImage" /><dc:title></dc:title></cc:Work></rdf:RDF></metadata><defs
     id="defs28" /><sodipodi:namedview
     pagecolor="#ffffff"
     bordercolor="#666666"
     borderopacity="1"
     objecttolerance="10"
     gridtolerance="10"
     guidetolerance="10"
     inkscape:pageopacity="0"
     inkscape:pageshadow="2"
     inkscape:window-width="1322"
     inkscape:window-height="812"
     id="namedview26"
     showgrid="false"
     fit-margin-top="0"
     fit-margin-left="0"
     fit-margin-right="0"
     fit-margin-bottom="0"
     inkscape:zoom="7.2407734"
     inkscape:cx="-7.4227895"
     inkscape:cy="-0.75678551"
     inkscape:window-x="571"
     inkscape:window-y="110"
     inkscape:window-maximized="0"
     inkscape:current-layer="g8341" /><g
     id="g3217"
     transform="translate(-1250.2073,7567.5429)"><g
       id="g3355"
       transform="translate(0.52596752,-1.51338)"><g
         id="g3394"
         transform="translate(-1.304037,6.1068216)"><g
           id="g3432"
           transform="translate(1.3243604,-7.0685396)"><g
             id="g3490"
             transform="translate(14.50543,16.201175)"><g
               id="g3544"
               transform="translate(1.7832223,7.9070624)"><g
                 id="g3595"
                 transform="translate(9.5264836,-0.46901412)"><g
                   id="g3646"
                   transform="translate(-52.35165,-3.5880634)"><g
                     id="g3767"
                     transform="translate(6.0048559,8.7552768)"><g
                       id="g4075"
                       transform="translate(0.55239017,0.07303033)"><g
                         id="g4264"
                         transform="translate(3.0880737,-2.6377741)"><g
                           id="g4355"
                           transform="translate(8.4601992,5.328404)"><g
                             id="g4421"
                             transform="translate(-6.5255081,7.0858766)"><g
                               id="g4462"
                               transform="translate(25.518018,13.531166)"><g
                                 id="g4500"
                                 transform="translate(80.26127,-61.023322)"><g
                                   id="g5344"
                                   transform="translate(-17.614831,53.929153)"><g
                                   id="g5294"
                                   display="none"
                                   style="display:none"><rect
                                   id="rect5296"
                                   height="196"
                                   width="394.5"
                                   display="inline"
                                   y="-80.754997"
                                   x="-43.5"
                                   style="fill:#000000;display:inline" /></g><g
                                   id="g5316"
                                   display="none"
                                   style="display:none"><g
                                   id="g5318"
                                   display="inline"
                                   style="display:inline"><path
                                   id="path5320"
                                   d="M 1.581,10.718 H 30.418 L 16,1.051 1.581,10.718 z M 17.592,6.594 c 0,0.879 -0.713,1.592 -1.592,1.592 -0.879,0 -1.592,-0.713 -1.592,-1.592 0,-0.879 0.713,-1.592 1.592,-1.592 0.879,0 1.592,0.712 1.592,1.592 z"
                                   inkscape:connector-curvature="0" /><rect
                                   id="rect5322"
                                   height="3.0209999"
                                   width="31"
                                   y="28.030001"
                                   x="0.5" /><rect
                                   id="rect5324"
                                   height="11.875"
                                   width="3.0209999"
                                   y="13.363"
                                   x="3.6670001" /><rect
                                   id="rect5326"
                                   height="11.875"
                                   width="3.0209999"
                                   y="13.363"
                                   x="8.349" /><rect
                                   id="rect5328"
                                   height="11.875"
                                   width="3.0209999"
                                   y="13.363"
                                   x="20.629999" /><rect
                                   id="rect5330"
                                   height="11.875"
                                   width="3.0209999"
                                   y="13.363"
                                   x="25.312" /></g><path
                                   id="path5332"
                                   d="m 19.055,22.809 c -0.386,0.262 -1.035,0.524 -1.857,0.524 -1.01,0 -1.907,-0.386 -2.53,-1.11 -0.474,-0.524 -0.785,-1.246 -0.897,-2.144 h -0.773 v -0.611 h 0.711 c 0,-0.062 0,-0.125 0,-0.187 0,-0.2 0.012,-0.387 0.025,-0.561 h -0.735 v -0.624 h 0.823 c 0.15,-0.872 0.524,-1.595 1.022,-2.106 0.636,-0.66 1.446,-1.035 2.468,-1.035 0.735,0 1.309,0.212 1.658,0.399 l -0.249,0.822 c -0.312,-0.187 -0.835,-0.349 -1.396,-0.349 -0.673,0 -1.221,0.237 -1.645,0.685 -0.374,0.361 -0.623,0.922 -0.748,1.583 h 3.478 v 0.624 h -3.59 c -0.013,0.162 -0.025,0.349 -0.025,0.523 0,0.075 0,0.137 0,0.225 h 3.615 v 0.611 h -3.53 c 0.1,0.723 0.349,1.259 0.685,1.633 0.461,0.486 1.085,0.723 1.757,0.723 0.661,0 1.234,-0.249 1.521,-0.411 l 0.212,0.786 z"
                                   display="inline"
                                   inkscape:connector-curvature="0"
                                   style="display:inline" /></g><g
                                   id="g5453"
                                   transform="translate(-52.625356,-10.750909)"><g
                                   id="g5403"
                                   display="none"
                                   style="display:none"><rect
                                   id="rect5405"
                                   height="196"
                                   width="394.5"
                                   display="inline"
                                   y="-80.754997"
                                   x="-43.5"
                                   style="fill:#000000;display:inline" /></g><g
                                   id="g5425"
                                   display="none"
                                   style="display:none"><g
                                   id="g5427"
                                   display="inline"
                                   style="display:inline"><path
                                   id="path5429"
                                   d="M 1.581,10.718 H 30.418 L 16,1.051 1.581,10.718 z M 17.592,6.594 c 0,0.879 -0.713,1.592 -1.592,1.592 -0.879,0 -1.592,-0.713 -1.592,-1.592 0,-0.879 0.713,-1.592 1.592,-1.592 0.879,0 1.592,0.712 1.592,1.592 z"
                                   inkscape:connector-curvature="0" /><rect
                                   id="rect5431"
                                   height="3.0209999"
                                   width="31"
                                   y="28.030001"
                                   x="0.5" /><rect
                                   id="rect5433"
                                   height="11.875"
                                   width="3.0209999"
                                   y="13.363"
                                   x="3.6670001" /><rect
                                   id="rect5435"
                                   height="11.875"
                                   width="3.0209999"
                                   y="13.363"
                                   x="8.349" /><rect
                                   id="rect5437"
                                   height="11.875"
                                   width="3.0209999"
                                   y="13.363"
                                   x="20.629999" /><rect
                                   id="rect5439"
                                   height="11.875"
                                   width="3.0209999"
                                   y="13.363"
                                   x="25.312" /></g><path
                                   id="path5441"
                                   d="m 19.055,22.809 c -0.386,0.262 -1.035,0.524 -1.857,0.524 -1.01,0 -1.907,-0.386 -2.53,-1.11 -0.474,-0.524 -0.785,-1.246 -0.897,-2.144 h -0.773 v -0.611 h 0.711 c 0,-0.062 0,-0.125 0,-0.187 0,-0.2 0.012,-0.387 0.025,-0.561 h -0.735 v -0.624 h 0.823 c 0.15,-0.872 0.524,-1.595 1.022,-2.106 0.636,-0.66 1.446,-1.035 2.468,-1.035 0.735,0 1.309,0.212 1.658,0.399 l -0.249,0.822 c -0.312,-0.187 -0.835,-0.349 -1.396,-0.349 -0.673,0 -1.221,0.237 -1.645,0.685 -0.374,0.361 -0.623,0.922 -0.748,1.583 h 3.478 v 0.624 h -3.59 c -0.013,0.162 -0.025,0.349 -0.025,0.523 0,0.075 0,0.137 0,0.225 h 3.615 v 0.611 h -3.53 c 0.1,0.723 0.349,1.259 0.685,1.633 0.461,0.486 1.085,0.723 1.757,0.723 0.661,0 1.234,-0.249 1.521,-0.411 l 0.212,0.786 z"
                                   display="inline"
                                   inkscape:connector-curvature="0"
                                   style="display:inline" /></g><g
                                   id="g5911"
                                   transform="translate(34.803917,-34.731522)"><g
                                   id="g5969"
                                   transform="translate(-76.820846,20.463898)"><g
                                   id="g6024"
                                   transform="translate(-1.5269147,1.6004891)"><g
                                   id="g6071"
                                   transform="translate(7.3886843,1.0351706)"><g
                                   id="g6187"
                                   transform="translate(-0.71000052,-4.6322855)"><g
                                   id="g6263"
                                   transform="translate(-0.66737304,-5.3488176)"><g
                                   id="g6319"
                                   transform="translate(0.79720466,3.5647493)"><g
                                   id="g6384"
                                   transform="translate(-9.1472004,2.261335)"><g
                                   id="g6488"
                                   transform="translate(-2.0348122,-3.4042665)"><g
                                   id="g6516"
                                   transform="translate(-0.63832329,-2.3294036)"><g
                                   id="g6769"
                                   transform="translate(1565.7794,-3801.8487)"><g
                                   id="g6910"
                                   transform="translate(-308.09512,-3790.9493)"><g
                                   id="g6983"
                                   transform="translate(-14.231122,-15.611848)"><g
                                   id="g7151"
                                   transform="translate(33.267081,-22.491026)"><g
                                   id="g7382"
                                   transform="translate(-23.229266,23.886871)"><g
                                   id="g7549"
                                   transform="translate(14.444681,15.529545)"><g
                                   id="g7800"
                                   transform="translate(-10.517025,-15.548079)"><g
                                   id="g7999"
                                   transform="matrix(0.53445343,0,0,0.59502607,5.6563057,11.962949)"><g
                                   id="g8217"
                                   transform="matrix(0.65157633,0,0,0.66199506,14.891666,27.68312)"><g
                                   id="g8341"
                                   transform="matrix(0.81955739,0,0,0.8373697,16.904811,-6.2861215)"><g
                                   id="g8313"><g
                                   id="g8315"><path
                                   id="path8317"
                                   d="m 18.922,55.932 c -1.789,-0.471 -4.439,3.857 -5.957,9.652 -1.518,5.798 -1.33,10.867 0.457,11.335 1.752,0.46 4.402,-3.866 5.92,-9.663 1.515,-5.797 1.33,-10.867 -0.42,-11.324 z"
                                   inkscape:connector-curvature="0"
                                   style="fill:#000000" /><path
                                   id="path8319"
                                   d="M 51.258,58.297 C 38.41,40.664 23.113,40.128 23.113,40.128 16.533,38.404 8.261,48.675 4.504,63.035 4.475,63.14 4.457,63.245 4.428,63.349 4.399,63.456 4.371,63.554 4.342,63.658 0.578,78.018 2.748,91.024 9.33,92.748 c 0,0 13.598,7.03 33.438,-2.039 19.25,-8.804 27.148,-6.56 29.834,-5.856 l 0.891,-3.415 0.896,-3.41 C 71.705,77.324 63.721,75.406 51.258,58.297 z M 26.357,69.092 C 22.957,82.058 15.673,91.377 10.07,89.91 4.341,88.41 2.552,76.711 5.949,63.748 9.349,50.785 16.633,41.463 22.365,42.966 c 5.604,1.467 7.389,13.163 3.992,26.126 z"
                                   inkscape:connector-curvature="0"
                                   style="fill:#000000" /></g><path
                                   id="path8321"
                                   d="m 86.395,79.597 c -1.084,-1.991 -3.588,-2.733 -5.58,-1.647 -0.602,0.326 -1.094,0.799 -1.455,1.363 l -5.051,-1.332 -1.809,6.855 5.047,1.328 c 0.072,0.461 0.225,0.908 0.453,1.328 1.088,1.994 3.592,2.73 5.58,1.644 1.674,-0.909 2.465,-2.819 2.031,-4.583 1.323,-1.255 1.694,-3.282 0.784,-4.956 z m -1.532,0.835 c 0.629,1.149 0.199,2.59 -0.949,3.217 -0.215,0.114 -0.439,0.162 -0.664,0.205 0.162,0.164 0.33,0.322 0.445,0.534 0.629,1.149 0.199,2.595 -0.949,3.22 -1.145,0.622 -2.586,0.199 -3.215,-0.952 -0.314,-0.581 -0.363,-1.233 -0.188,-1.819 l -4.711,-1.242 0.916,-3.482 4.906,1.298 c 0.059,-0.782 0.453,-1.528 1.193,-1.927 1.146,-0.629 2.591,-0.207 3.216,0.948 z"
                                   inkscape:connector-curvature="0"
                                   style="fill:#000000" /><path
                                   id="path8323"
                                   d="M 97.172,39.377 C 95.197,36.711 92.461,34.184 88.565,32.252 66.73,21.401 50.5,23.99 50.5,23.99 c 0,0 0.258,-9.447 -4.217,-14.336 0,0 0.453,1.495 0.105,2.142 -0.344,0.648 -3.834,5.241 -3.73,7.38 0.105,2.142 -0.758,3.761 -0.758,3.761 0,0 -0.867,1.621 -2.705,2.721 -1.836,1.104 -3.709,6.563 -4.059,7.206 -0.348,0.648 -1.836,1.104 -1.836,1.104 6.549,1.002 14.252,-4.467 14.252,-4.467 0,0 7.039,14.658 28.029,27.062 3.996,2.358 7.582,3.474 10.75,3.844 -0.254,-3.899 0.582,-8.194 2.756,-12.257 2.048,-3.839 4.929,-6.803 8.085,-8.773 z"
                                   inkscape:connector-curvature="0"
                                   style="fill:#000000" /><path
                                   id="path8325"
                                   d="m 64.697,22.941 c 4.908,0.604 16.346,2.502 25.068,7.762 -1.025,-3.512 -5.57,-12.209 -25.068,-7.762 z"
                                   inkscape:connector-curvature="0"
                                   style="fill:#000000" /><path
                                   id="path8327"
                                   d="m 61.145,52.877 c -0.82,2.516 -1.105,4.087 -1.105,4.087 0,0 5.779,0.601 9.682,-1.616 -2.471,-1.903 -5.357,-4.047 -6.449,-5.092 -0.779,0.455 -1.679,1.252 -2.128,2.621 z"
                                   inkscape:connector-curvature="0"
                                   style="fill:#000000" /><path
                                   id="path8329"
                                   d="m 98.518,41.01 c -2.961,1.832 -5.68,4.619 -7.617,8.247 -2.07,3.884 -2.855,7.977 -2.574,11.646 9.051,0.38 14.154,-5.456 14.154,-5.456 0,0 0.529,-7.447 -3.963,-14.437 z m -1.403,8.513 c -1.178,0 -2.137,-0.956 -2.137,-2.137 0,-1.18 0.959,-2.137 2.137,-2.137 1.184,0 2.137,0.957 2.137,2.137 0,1.181 -0.953,2.137 -2.137,2.137 z"
                                   inkscape:connector-curvature="0"
                                   style="fill:#000000" /></g></g></g></g></g></g></g></g></g></g></g></g></g></g></g></g></g></g></g></g></g></g></g></g></g></g></g></g></g></g></g></g></g></g></g></g></g></g></svg>