<?xml version="1.0" encoding="UTF-8" standalone="no"?>
<svg
   xmlns:dc="http://purl.org/dc/elements/1.1/"
   xmlns:cc="http://creativecommons.org/ns#"
   xmlns:rdf="http://www.w3.org/1999/02/22-rdf-syntax-ns#"
   xmlns:svg="http://www.w3.org/2000/svg"
   xmlns="http://www.w3.org/2000/svg"
   xmlns:sodipodi="http://sodipodi.sourceforge.net/DTD/sodipodi-0.dtd"
   xmlns:inkscape="http://www.inkscape.org/namespaces/inkscape"
   data-name="Layer 1"
   viewBox="0 0 100 100"
   x="0px"
   y="0px"
   version="1.1"
   id="svg10"
   sodipodi:docname="Cafe.svg"
   width="100"
   height="100"
   inkscape:version="0.92.5 (2060ec1f9f, 2020-04-08)">
  <metadata
     id="metadata16">
    <rdf:RDF>
      <cc:Work
         rdf:about="">
        <dc:format>image/svg+xml</dc:format>
        <dc:type
           rdf:resource="http://purl.org/dc/dcmitype/StillImage" />
        <dc:title>Artboard 12</dc:title>
      </cc:Work>
    </rdf:RDF>
  </metadata>
  <defs
     id="defs14" />
  <sodipodi:namedview
     pagecolor="#ffffff"
     bordercolor="#666666"
     borderopacity="1"
     objecttolerance="10"
     gridtolerance="10"
     guidetolerance="10"
     inkscape:pageopacity="0"
     inkscape:pageshadow="2"
     inkscape:window-width="691"
     inkscape:window-height="480"
     id="namedview12"
     showgrid="false"
     inkscape:zoom="1.888"
     inkscape:cx="56.620763"
     inkscape:cy="62.5"
     inkscape:window-x="0"
     inkscape:window-y="0"
     inkscape:window-maximized="0"
     inkscape:current-layer="svg10" />
  <title
     id="title2">Artboard 12</title>
  <path
     d="m 49.27329,27.799012 a 3.56,3.56 0 0 0 -0.33,0.25 c -0.5,0.41 -1,0.84 -1.44,1.29 l -0.09,0.1 c -0.39,0.46 -0.75,0.94 -1.1,1.43 l -0.06,0.09 c -0.16,0.28 -0.31,0.56 -0.46,0.87 l -0.08,0.17 a 5.11,5.11 0 0 0 -0.33,0.77 c -0.1,0.3 -0.19,0.6 -0.26,0.9 l -0.11,0.45 a 4,4 0 0 0 -0.06,0.44 v 0.11 a 7,7 0 0 0 0,1.88 v 0.17 a 6.16,6.16 0 0 0 0.13,0.7 v 0.12 c 0.06,0.21 0.12,0.42 0.17,0.55 a 6.48,6.48 0 0 0 0.53,1.2 l 0.11,0.2 a 9.15,9.15 0 0 0 0.7,1 l 0.08,0.09 0.1,0.11 a 7.69,7.69 0 0 0 0.65,0.64 l 0.1,0.08 a 6.58,6.58 0 0 0 0.57,0.43 6.5,6.5 0 0 0 1,0.56 l 0.12,0.05 a 3.19,3.19 0 0 0 0.58,0.19 h 0.05 a 1.42,1.42 0 0 0 1.16,-0.27 1.39,1.39 0 0 0 0.53,-1 v -0.4 c 0,-0.12 0,-0.28 0,-0.47 l 0.08,-0.81 0.11,-0.62 a 4.51,4.51 0 0 1 0.31,-0.92 c 0.05,-0.09 0.1,-0.18 0.14,-0.26 l 0.07,-0.09 0.11,-0.14 0.19,-0.19 v 0 0 l 0.26,-0.19 h 0.06 l 0.34,-0.22 a 5.19,5.19 0 0 0 0.47,-0.28 3.42,3.42 0 0 0 0.62,-0.32 l 0.35,-0.18 0.57,-0.3 1.16,-0.64 a 12.13,12.13 0 0 0 2.85,-2.45 10.29,10.29 0 0 0 1.94,-3.44 9.6,9.6 0 0 0 0.48,-3.61 9.4,9.4 0 0 0 -0.68,-3 9,9 0 0 0 -2.44,-3.42 6.76,6.76 0 0 0 -0.88,-0.65 l -0.13,-0.08 a 3.56,3.56 0 0 0 -0.5,-0.27 1.41,1.41 0 0 0 -1.19,0.07 1.39,1.39 0 0 0 -0.7,1 l -0.07,0.41 c 0,0.1 0,0.23 -0.07,0.38 l -0.09,0.45 a 17.78,17.78 0 0 1 -0.71,2.59 6.59,6.59 0 0 1 -0.54,1.14 4.59,4.59 0 0 1 -0.64,0.82 7.67,7.67 0 0 1 -0.81,0.71 c -0.32,0.24 -0.68,0.49 -1.08,0.74 l -0.61,0.3 -0.16,0.1 -0.25,0.16 -0.53,0.36 z m 3.08,9.85 z m -2.35,-27.48 a 13.26,13.26 0 0 1 0.08,5 14.23,14.23 0 0 1 -2,5.09 16.81,16.81 0 0 1 -3.43,3.94 l -1.48,1.13 -0.73,0.54 -0.49,0.35 a 4.41,4.41 0 0 1 -0.78,0.57 7.36,7.36 0 0 1 -0.64,0.51 c -0.13,0.13 -0.28,0.26 -0.43,0.38 l -0.11,0.09 a 4.08,4.08 0 0 1 -0.31,0.32 c 0,0 -0.06,0.06 -0.09,0.1 l -0.26,0.33 a 2.53,2.53 0 0 1 -0.13,0.24 l -0.08,0.14 v 0.1 c 0,0.13 -0.08,0.25 -0.14,0.39 a 6.81,6.81 0 0 0 -0.28,1.51 v 0.92 l -0.04,1.21 c 0,0.29 0,0.54 0.06,0.72 l 0.07,0.55 a 1.47,1.47 0 0 1 -1.46,1.65 h -0.11 a 4.68,4.68 0 0 1 -0.77,-0.14 h -0.15 a 8.68,8.68 0 0 1 -1.5,-0.55 9.26,9.26 0 0 1 -0.88,-0.48 l -0.14,-0.08 a 10.09,10.09 0 0 1 -1,-0.72 l -0.18,-0.14 -0.09,-0.08 a 12.78,12.78 0 0 1 -1.14,-1.2 l -0.18,-0.24 a 8.93,8.93 0 0 1 -0.94,-1.49 c -0.1,-0.19 -0.22,-0.45 -0.34,-0.73 l -0.07,-0.17 a 8.09,8.09 0 0 1 -0.3,-0.9 l -0.07,-0.25 a 9.71,9.71 0 0 1 -0.38,-2.54 v -0.21 a 5.25,5.25 0 0 1 0,-0.57 l 0.06,-0.64 c 0,-0.43 0.1,-0.86 0.18,-1.3 a 6.94,6.94 0 0 1 0.28,-1.09 l 0.08,-0.26 c 0.14,-0.44 0.29,-0.86 0.45,-1.28 l 0.05,-0.11 c 0.37,-0.75 0.79,-1.5 1.23,-2.22 l 0.08,-0.12 c 0.54,-0.72 1.13,-1.42 1.74,-2.09 a 4.47,4.47 0 0 1 0.38,-0.39 l 0.37,-0.35 c 0.21,-0.2 0.44,-0.4 0.67,-0.61 l 0.4,-0.36 0.09,-0.08 0.86,-0.69 c 0.53,-0.45 1,-0.89 1.42,-1.31 a 11.68,11.68 0 0 0 1.05,-1.23 7.11,7.11 0 0 0 0.79,-1.4000001 9.93,9.93 0 0 0 0.56,-1.81 25.93,25.93 0 0 0 0.48,-3.88 c 0,-0.22 0,-0.45 0,-0.66 0,-0.21 0,-0.43 0,-0.59 v -0.57 a 1.48,1.48 0 0 1 1.89,-1.39 4.63,4.63 0 0 1 0.71,0.25 l 0.19,0.08 a 9.48,9.48 0 0 1 1.31,0.7 12.4,12.4 0 0 1 4,4.16 12.91,12.91 0 0 1 1.59,3.9500001 z m 43.31,56.78 a 16.57,16.57 0 0 0 -16.08,-20.57 h -66.68 a 4.35,4.35 0 0 0 -4.3500003,4.59 113.18,113.18 0 0 0 4.0600003,23.47 31.82,31.82 0 0 0 9.29,14.92 h -5.74 a 4.835,4.835 0 1 0 0,9.67 h 54.38 a 4.835,4.835 0 0 0 0,-9.67 h -5.75 a 31.83,31.83 0 0 0 7.36,-9.84 h 7.43 a 16.57,16.57 0 0 0 16.08,-12.57 z m -9.74,-2.42 a 6.52,6.52 0 0 1 -6.34,5 h -4.23 a 116,116 0 0 0 2.31,-13.07 h 1.92 a 6.53,6.53 0 0 1 6.34,8.11 z"
     id="path4"
     inkscape:connector-curvature="0" />
</svg>
