<?xml version="1.0" encoding="UTF-8" standalone="no"?>
<svg
   xmlns:dc="http://purl.org/dc/elements/1.1/"
   xmlns:cc="http://creativecommons.org/ns#"
   xmlns:rdf="http://www.w3.org/1999/02/22-rdf-syntax-ns#"
   xmlns:svg="http://www.w3.org/2000/svg"
   xmlns="http://www.w3.org/2000/svg"
   xmlns:sodipodi="http://sodipodi.sourceforge.net/DTD/sodipodi-0.dtd"
   xmlns:inkscape="http://www.inkscape.org/namespaces/inkscape"
   version="1.1"
   x="0px"
   y="0px"
   viewBox="0 0 100 100"
   id="svg8"
   sodipodi:docname="Car Wash.svg"
   width="100"
   height="100"
   inkscape:version="0.92.5 (2060ec1f9f, 2020-04-08)">
  <metadata
     id="metadata14">
    <rdf:RDF>
      <cc:Work
         rdf:about="">
        <dc:format>image/svg+xml</dc:format>
        <dc:type
           rdf:resource="http://purl.org/dc/dcmitype/StillImage" />
        <dc:title></dc:title>
      </cc:Work>
    </rdf:RDF>
  </metadata>
  <defs
     id="defs12" />
  <sodipodi:namedview
     pagecolor="#ffffff"
     bordercolor="#666666"
     borderopacity="1"
     objecttolerance="10"
     gridtolerance="10"
     guidetolerance="10"
     inkscape:pageopacity="0"
     inkscape:pageshadow="2"
     inkscape:window-width="1680"
     inkscape:window-height="884"
     id="namedview10"
     showgrid="false"
     inkscape:zoom="1.888"
     inkscape:cx="89.448538"
     inkscape:cy="62.5"
     inkscape:window-x="0"
     inkscape:window-y="0"
     inkscape:window-maximized="1"
     inkscape:current-layer="svg8" />
  <path
     d="m 49.931524,23.930276 c 2.747545,0 6.453535,-1.980787 6.453535,-6.51743 0,-3.00313 -1.789099,-5.047814 -6.453535,-11.629142 -4.40885,6.581328 -6.325741,8.626012 -6.325741,11.629142 0,4.536643 3.578197,6.51743 6.325741,6.51743 z m -19.041122,6.389639 c 2.747545,0 6.325743,-2.044684 6.325743,-6.581327 0,-3.003131 -1.916892,-5.047815 -6.325743,-11.629142 -4.600539,6.517431 -6.389638,8.626011 -6.389638,11.629142 0,4.536643 3.450405,6.581327 6.389638,6.581327 z m 38.210037,-0.06389 c 2.939233,0 6.389638,-1.980789 6.389638,-6.645224 0,-2.939234 -1.725202,-4.983918 -6.389638,-11.501349 -4.408851,6.517431 -6.325742,8.562115 -6.325742,11.501349 0,4.664435 3.578198,6.645224 6.325742,6.645224 z M 80.793476,53.514302 H 74.659424 L 72.486948,44.377119 C 70.889538,37.795792 69.036543,36.709553 59.004811,36.709553 H 40.410964 c -9.20108,0 -11.373557,1.022342 -12.970966,7.667566 l -2.236373,9.137183 h -6.070156 c -3.578198,0 -3.386509,7.795358 -0.89455,8.689907 l 2.939234,1.08624 v 27.667133 c 0,1.852994 1.40572,3.258714 3.258715,3.258714 h 3.130923 c 1.852995,0 3.258715,-1.40572 3.258715,-3.258714 v -4.344955 c 10.287318,0.255586 28.242201,0.255586 38.273933,0 v 4.344955 c 0,1.852994 1.40572,3.258714 3.258715,3.258714 h 3.067027 c 1.852995,0 3.258715,-1.40572 3.258715,-3.258714 V 63.354345 l 3.00313,-1.150136 c 2.619748,-0.830652 2.747546,-8.689907 -0.89455,-8.689907 z M 31.401574,73.769454 c -2.683649,0 -4.792229,-2.10858 -4.792229,-4.792228 0,-2.81144 2.10858,-4.856125 4.792229,-4.856125 2.811441,0 4.920021,2.044685 4.920021,4.856125 0,2.683648 -2.10858,4.792228 -4.920021,4.792228 z m 36.868212,0 c -2.683648,0 -4.856125,-2.10858 -4.856125,-4.792228 0,-2.81144 2.172477,-4.856125 4.856125,-4.856125 2.875337,0 4.920022,2.044685 4.920022,4.856125 0,2.683648 -2.044685,4.792228 -4.920022,4.792228 z m 0,0"
     id="path2"
     inkscape:connector-curvature="0"
     style="fill:#000000;stroke:none;stroke-width:0.06389639;stroke-linecap:inherit;stroke-linejoin:inherit;stroke-dasharray:none" />
</svg>
