<?xml version="1.0" encoding="UTF-8" standalone="no"?>
<svg
   xmlns:dc="http://purl.org/dc/elements/1.1/"
   xmlns:cc="http://creativecommons.org/ns#"
   xmlns:rdf="http://www.w3.org/1999/02/22-rdf-syntax-ns#"
   xmlns:svg="http://www.w3.org/2000/svg"
   xmlns="http://www.w3.org/2000/svg"
   xmlns:sodipodi="http://sodipodi.sourceforge.net/DTD/sodipodi-0.dtd"
   xmlns:inkscape="http://www.inkscape.org/namespaces/inkscape"
   version="1.1"
   x="0px"
   y="0px"
   viewBox="0 0 100 100"
   xml:space="preserve"
   id="svg12"
   sodipodi:docname="Car Rental.svg"
   width="100"
   height="100"
   inkscape:version="0.92.5 (2060ec1f9f, 2020-04-08)"><metadata
     id="metadata18"><rdf:RDF><cc:Work
         rdf:about=""><dc:format>image/svg+xml</dc:format><dc:type
           rdf:resource="http://purl.org/dc/dcmitype/StillImage" /><dc:title /></cc:Work></rdf:RDF></metadata><defs
     id="defs16" /><sodipodi:namedview
     pagecolor="#ffffff"
     bordercolor="#666666"
     borderopacity="1"
     objecttolerance="10"
     gridtolerance="10"
     guidetolerance="10"
     inkscape:pageopacity="0"
     inkscape:pageshadow="2"
     inkscape:window-width="1680"
     inkscape:window-height="884"
     id="namedview14"
     showgrid="false"
     inkscape:zoom="1.888"
     inkscape:cx="-11.970339"
     inkscape:cy="62.5"
     inkscape:window-x="0"
     inkscape:window-y="0"
     inkscape:window-maximized="1"
     inkscape:current-layer="g6" /><g
     id="g6"
     transform="translate(0.1,0.05)"><path
       d="m 27.181325,24.72842 c -13.862241,0 -25.2215788,11.359337 -25.2215788,25.221581 0,13.862241 11.3593378,25.221579 25.2215788,25.221579 10.204151,0 19.060583,-6.160997 23.103737,-14.824897 H 86.480917 L 97.840254,48.987343 V 39.553318 H 50.285062 C 46.241908,30.889416 37.385476,24.72842 27.181325,24.72842 Z M 16.592113,56.110996 c -3.46556,0 -6.160997,-2.695435 -6.160997,-6.160995 0,-3.465562 2.695437,-6.160998 6.160997,-6.160998 3.465561,0 6.160997,2.695435 6.160997,6.160998 0,3.465561 -2.695436,6.160995 -6.160997,6.160995 z"
       id="path4"
       inkscape:connector-curvature="0"
       style="stroke-width:1.92531145" /></g></svg>