<?xml version="1.0" encoding="UTF-8" standalone="no"?>
<svg
   xmlns:dc="http://purl.org/dc/elements/1.1/"
   xmlns:cc="http://creativecommons.org/ns#"
   xmlns:rdf="http://www.w3.org/1999/02/22-rdf-syntax-ns#"
   xmlns:svg="http://www.w3.org/2000/svg"
   xmlns="http://www.w3.org/2000/svg"
   xmlns:sodipodi="http://sodipodi.sourceforge.net/DTD/sodipodi-0.dtd"
   xmlns:inkscape="http://www.inkscape.org/namespaces/inkscape"
   version="1.1"
   x="0px"
   y="0px"
   viewBox="0 0 11.935532 11.505063"
   enable-background="new 0 0 100 100"
   xml:space="preserve"
   id="svg2"
   inkscape:version="0.48.4 r9939"
   width="100%"
   height="100%"
   sodipodi:docname="Gas Station.svg"><metadata
     id="metadata30"><rdf:RDF><cc:Work
         rdf:about=""><dc:format>image/svg+xml</dc:format><dc:type
           rdf:resource="http://purl.org/dc/dcmitype/StillImage" /><dc:title></dc:title></cc:Work></rdf:RDF></metadata><defs
     id="defs28" /><sodipodi:namedview
     pagecolor="#ffffff"
     bordercolor="#666666"
     borderopacity="1"
     objecttolerance="10"
     gridtolerance="10"
     guidetolerance="10"
     inkscape:pageopacity="0"
     inkscape:pageshadow="2"
     inkscape:window-width="1322"
     inkscape:window-height="812"
     id="namedview26"
     showgrid="false"
     fit-margin-top="0"
     fit-margin-left="0"
     fit-margin-right="0"
     fit-margin-bottom="0"
     inkscape:zoom="28.963094"
     inkscape:cx="3.9904235"
     inkscape:cy="3.1582777"
     inkscape:window-x="571"
     inkscape:window-y="110"
     inkscape:window-maximized="0"
     inkscape:current-layer="g9819" /><g
     id="g3217"
     transform="translate(-1261.9182,7562.0827)"><g
       id="g3355"
       transform="translate(0.52596752,-1.51338)"><g
         id="g3394"
         transform="translate(-1.304037,6.1068216)"><g
           id="g3432"
           transform="translate(1.3243604,-7.0685396)"><g
             id="g3490"
             transform="translate(14.50543,16.201175)"><g
               id="g3544"
               transform="translate(1.7832223,7.9070624)"><g
                 id="g3595"
                 transform="translate(9.5264836,-0.46901412)"><g
                   id="g3646"
                   transform="translate(-52.35165,-3.5880634)"><g
                     id="g3767"
                     transform="translate(6.0048559,8.7552768)"><g
                       id="g4075"
                       transform="translate(0.55239017,0.07303033)"><g
                         id="g4264"
                         transform="translate(3.0880737,-2.6377741)"><g
                           id="g4355"
                           transform="translate(8.4601992,5.328404)"><g
                             id="g4421"
                             transform="translate(-6.5255081,7.0858766)"><g
                               id="g4462"
                               transform="translate(25.518018,13.531166)"><g
                                 id="g4500"
                                 transform="translate(80.26127,-61.023322)"><g
                                   id="g5344"
                                   transform="translate(-17.614831,53.929153)"><g
                                   id="g5294"
                                   display="none"
                                   style="display:none"><rect
                                   id="rect5296"
                                   height="196"
                                   width="394.5"
                                   display="inline"
                                   y="-80.754997"
                                   x="-43.5"
                                   style="fill:#000000;display:inline" /></g><g
                                   id="g5316"
                                   display="none"
                                   style="display:none"><g
                                   id="g5318"
                                   display="inline"
                                   style="display:inline"><path
                                   id="path5320"
                                   d="M 1.581,10.718 H 30.418 L 16,1.051 1.581,10.718 z M 17.592,6.594 c 0,0.879 -0.713,1.592 -1.592,1.592 -0.879,0 -1.592,-0.713 -1.592,-1.592 0,-0.879 0.713,-1.592 1.592,-1.592 0.879,0 1.592,0.712 1.592,1.592 z"
                                   inkscape:connector-curvature="0" /><rect
                                   id="rect5322"
                                   height="3.0209999"
                                   width="31"
                                   y="28.030001"
                                   x="0.5" /><rect
                                   id="rect5324"
                                   height="11.875"
                                   width="3.0209999"
                                   y="13.363"
                                   x="3.6670001" /><rect
                                   id="rect5326"
                                   height="11.875"
                                   width="3.0209999"
                                   y="13.363"
                                   x="8.349" /><rect
                                   id="rect5328"
                                   height="11.875"
                                   width="3.0209999"
                                   y="13.363"
                                   x="20.629999" /><rect
                                   id="rect5330"
                                   height="11.875"
                                   width="3.0209999"
                                   y="13.363"
                                   x="25.312" /></g><path
                                   id="path5332"
                                   d="m 19.055,22.809 c -0.386,0.262 -1.035,0.524 -1.857,0.524 -1.01,0 -1.907,-0.386 -2.53,-1.11 -0.474,-0.524 -0.785,-1.246 -0.897,-2.144 h -0.773 v -0.611 h 0.711 c 0,-0.062 0,-0.125 0,-0.187 0,-0.2 0.012,-0.387 0.025,-0.561 h -0.735 v -0.624 h 0.823 c 0.15,-0.872 0.524,-1.595 1.022,-2.106 0.636,-0.66 1.446,-1.035 2.468,-1.035 0.735,0 1.309,0.212 1.658,0.399 l -0.249,0.822 c -0.312,-0.187 -0.835,-0.349 -1.396,-0.349 -0.673,0 -1.221,0.237 -1.645,0.685 -0.374,0.361 -0.623,0.922 -0.748,1.583 h 3.478 v 0.624 h -3.59 c -0.013,0.162 -0.025,0.349 -0.025,0.523 0,0.075 0,0.137 0,0.225 h 3.615 v 0.611 h -3.53 c 0.1,0.723 0.349,1.259 0.685,1.633 0.461,0.486 1.085,0.723 1.757,0.723 0.661,0 1.234,-0.249 1.521,-0.411 l 0.212,0.786 z"
                                   display="inline"
                                   inkscape:connector-curvature="0"
                                   style="display:inline" /></g><g
                                   id="g5453"
                                   transform="translate(-52.625356,-10.750909)"><g
                                   id="g5403"
                                   display="none"
                                   style="display:none"><rect
                                   id="rect5405"
                                   height="196"
                                   width="394.5"
                                   display="inline"
                                   y="-80.754997"
                                   x="-43.5"
                                   style="fill:#000000;display:inline" /></g><g
                                   id="g5425"
                                   display="none"
                                   style="display:none"><g
                                   id="g5427"
                                   display="inline"
                                   style="display:inline"><path
                                   id="path5429"
                                   d="M 1.581,10.718 H 30.418 L 16,1.051 1.581,10.718 z M 17.592,6.594 c 0,0.879 -0.713,1.592 -1.592,1.592 -0.879,0 -1.592,-0.713 -1.592,-1.592 0,-0.879 0.713,-1.592 1.592,-1.592 0.879,0 1.592,0.712 1.592,1.592 z"
                                   inkscape:connector-curvature="0" /><rect
                                   id="rect5431"
                                   height="3.0209999"
                                   width="31"
                                   y="28.030001"
                                   x="0.5" /><rect
                                   id="rect5433"
                                   height="11.875"
                                   width="3.0209999"
                                   y="13.363"
                                   x="3.6670001" /><rect
                                   id="rect5435"
                                   height="11.875"
                                   width="3.0209999"
                                   y="13.363"
                                   x="8.349" /><rect
                                   id="rect5437"
                                   height="11.875"
                                   width="3.0209999"
                                   y="13.363"
                                   x="20.629999" /><rect
                                   id="rect5439"
                                   height="11.875"
                                   width="3.0209999"
                                   y="13.363"
                                   x="25.312" /></g><path
                                   id="path5441"
                                   d="m 19.055,22.809 c -0.386,0.262 -1.035,0.524 -1.857,0.524 -1.01,0 -1.907,-0.386 -2.53,-1.11 -0.474,-0.524 -0.785,-1.246 -0.897,-2.144 h -0.773 v -0.611 h 0.711 c 0,-0.062 0,-0.125 0,-0.187 0,-0.2 0.012,-0.387 0.025,-0.561 h -0.735 v -0.624 h 0.823 c 0.15,-0.872 0.524,-1.595 1.022,-2.106 0.636,-0.66 1.446,-1.035 2.468,-1.035 0.735,0 1.309,0.212 1.658,0.399 l -0.249,0.822 c -0.312,-0.187 -0.835,-0.349 -1.396,-0.349 -0.673,0 -1.221,0.237 -1.645,0.685 -0.374,0.361 -0.623,0.922 -0.748,1.583 h 3.478 v 0.624 h -3.59 c -0.013,0.162 -0.025,0.349 -0.025,0.523 0,0.075 0,0.137 0,0.225 h 3.615 v 0.611 h -3.53 c 0.1,0.723 0.349,1.259 0.685,1.633 0.461,0.486 1.085,0.723 1.757,0.723 0.661,0 1.234,-0.249 1.521,-0.411 l 0.212,0.786 z"
                                   display="inline"
                                   inkscape:connector-curvature="0"
                                   style="display:inline" /></g><g
                                   id="g5911"
                                   transform="translate(34.803917,-34.731522)"><g
                                   id="g5969"
                                   transform="translate(-76.820846,20.463898)"><g
                                   id="g6024"
                                   transform="translate(-1.5269147,1.6004891)"><g
                                   id="g6071"
                                   transform="translate(7.3886843,1.0351706)"><g
                                   id="g6187"
                                   transform="translate(-0.71000052,-4.6322855)"><g
                                   id="g6263"
                                   transform="translate(-0.66737304,-5.3488176)"><g
                                   id="g6319"
                                   transform="translate(0.79720466,3.5647493)"><g
                                   id="g6384"
                                   transform="translate(-9.1472004,2.261335)"><g
                                   id="g6488"
                                   transform="translate(-2.0348122,-3.4042665)"><g
                                   id="g6516"
                                   transform="translate(-0.63832329,-2.3294036)"><g
                                   id="g6769"
                                   transform="translate(1565.7794,-3801.8487)"><g
                                   id="g6910"
                                   transform="translate(-308.09512,-3790.9493)"><g
                                   id="g6983"
                                   transform="translate(-14.231122,-15.611848)"><g
                                   id="g7151"
                                   transform="translate(33.267081,-22.491026)"><g
                                   id="g7382"
                                   transform="translate(-23.229266,23.886871)"><g
                                   id="g7549"
                                   transform="translate(14.444681,15.529545)"><g
                                   id="g7800"
                                   transform="translate(-10.517025,-15.548079)"><g
                                   id="g7999"
                                   transform="matrix(0.53445343,0,0,0.59502607,5.6563057,11.962949)"><g
                                   id="g8217"
                                   transform="matrix(0.65157633,0,0,0.66199506,14.891666,27.68312)"><g
                                   id="g8341"
                                   transform="matrix(0.81955739,0,0,0.8373697,16.904811,-6.2861215)"><g
                                   id="g8463"
                                   transform="matrix(1.0901467,0,0,0.7755316,14.691042,9.5565496)"><g
                                   id="g8628"
                                   transform="matrix(3.2141084,0,0,3.9092417,-42.983003,-211.13796)"><g
                                   id="g8709"
                                   transform="matrix(0.28046364,0,0,0.26137124,8.2602788,58.166419)"><line
                                   id="line8689"
                                   y2="46.813301"
                                   x2="90.136131"
                                   y1="46.813301"
                                   x1="85.334206"
                                   style="fill:none" /><g
                                   id="g8982"
                                   transform="matrix(0.85470616,0,0,0.82928987,-24.416347,-291.09779)"><g
                                   id="g9029"
                                   transform="matrix(0.56179905,0,0,0.59146659,71.827756,364.20217)"><g
                                   id="g9231"
                                   transform="matrix(1.6434845,0,0,1.6275903,-1.9010194,-26.060019)"><g
                                   id="g9437"
                                   transform="matrix(0.71903998,0,0,0.65801134,3.2171324,7.0571502)"><g
                                   id="g9598"
                                   transform="matrix(0.80108296,0,0,0.9233293,9.6403445,4.2821143)"><g
                                   id="g9708"
                                   transform="matrix(0.94363907,0,0,1.1480868,25.922318,9.4839725)"><g
                                   id="g9819"
                                   transform="matrix(1.095798,0,0,0.98226973,-24.771036,-19.505567)"><path
                                   id="path9805"
                                   d="m 94.186,77.77 -0.401,0.044 c -0.012,-1.502 -0.211,-3.021 -0.2,-4.514 0.037,-5.142 -0.36,-9.154 -6.294,-11.104 2.265,-0.854 2.871,0.859 2.129,-2.695 -0.666,-3.406 -4.83,-0.883 -7.243,-1.997 -0.213,-0.276 -0.77,-0.925 -1.242,-1.633 -1.19,-1.786 -2.584,-2.943 -4.3,-3.626 1.739,-2.627 2.817,-6.39 2.817,-10.65 0,-1.028 -0.064,-2.027 -0.184,-2.99 0.988,-1.414 1.801,-2.986 2.374,-4.706 C 84.844,24.294 79.654,13.912 70.049,10.71 60.444,7.508 50.062,12.697 46.86,22.302 c -0.797,2.39 -1.073,4.826 -0.892,7.191 -0.243,0.278 -0.562,0.518 -0.894,0.691 l -0.073,0.038 c -0.624,0.324 -1.354,0.226 -1.866,-0.189 L 42.982,29.744 C 42.87,29.528 42.717,29.346 42.539,29.202 l -0.079,-0.153 -0.078,0.04 C 41.883,28.773 41.233,28.721 40.673,29.012 L 40.6,29.05 c -0.563,0.292 -0.894,0.853 -0.92,1.443 0,0 0.055,0.588 0.082,0.708 0.139,0.613 0.6,1.834 0.6,1.834 L 7.576,50.078 c 0,0 -0.751,0.398 -0.929,0.625 -0.199,0.25 -0.404,1.145 -0.404,1.145 l -1.212,4.901 c 0,0 -0.099,0.232 0.057,0.532 0.125,0.241 0.267,0.325 0.454,0.379 l 5.766,1.553 c 0.007,0.002 0.014,0.005 0.022,0.009 0.179,-0.178 0.444,-0.257 0.702,-0.18 0,0 1.358,0.687 1.759,0.473 0.423,-0.226 0.81,-1.672 0.81,-1.672 0.114,-0.377 0.51,-0.591 0.887,-0.48 0,0 3.268,0.676 3.915,0.364 0.661,-0.317 0.874,-1.84 0.874,-1.84 0.112,-0.376 0.387,-0.808 0.763,-0.697 0,0 1.671,0.85 2.315,0.482 0.565,-0.319 2.055,-3.563 2.055,-3.563 0.112,-0.379 0.51,-0.595 0.889,-0.483 0,0 1.433,0.597 2.194,0.199 1.008,-0.523 0.145,-2.035 2.741,-3.306 1.736,-0.849 3.955,0.4 5.003,-0.197 0.391,-0.221 0.685,-1.153 0.685,-1.153 0.113,-0.376 0.51,-0.591 0.887,-0.48 l 2.639,0.784 4.593,-2.388 c 0.84,-0.438 1.875,-0.111 2.311,0.729 l 0.375,0.61 c 0.494,0.656 1.402,0.88 2.155,0.489 l 0.075,-0.039 c 0.839,-0.436 1.165,-1.469 0.729,-2.31 l -0.48,-0.923 c -0.045,-0.659 0.295,-1.313 0.917,-1.637 l 0.073,-0.038 c 0.251,-0.129 0.558,-0.176 0.878,-0.156 1.8,1.601 3.948,2.872 6.377,3.682 6.943,2.313 14.272,0.229 19.022,-4.719 0.013,0.274 0.024,0.545 0.024,0.823 0,4.089 -1.153,7.786 -2.885,10.087 -0.737,-0.129 -1.519,-0.204 -2.371,-0.213 -3.711,-0.033 -18.368,-0.033 -22.08,0 -3.965,0.037 -6.618,1.295 -8.692,4.401 -0.471,0.708 -1.029,1.356 -1.242,1.633 -2.414,1.114 -6.577,-1.409 -7.243,1.997 -0.741,3.555 -0.135,1.841 2.129,2.695 -5.935,1.95 -6.331,5.963 -6.293,11.104 0.01,1.492 -0.188,3.012 -0.201,4.514 L 28.217,77.77 c -0.38,-0.044 -0.724,0.227 -0.767,0.604 l 0.559,4.812 c -0.043,0.379 0.229,0.723 0.607,0.766 l 1.961,0.23 c 0.179,0.817 0.157,1.867 0.26,2.791 0.28,2.583 -0.15,3.304 2.821,3.263 1.723,-0.025 3.455,-0.04 5.185,-0.022 6.176,0.062 4.699,-0.003 5.326,-4.44 l 16.887,1.98 c 0.049,0.006 0.238,0.006 0.292,0 l 16.884,-1.98 c 0.626,4.438 -0.851,4.502 5.325,4.44 1.729,-0.018 3.463,-0.003 5.186,0.022 2.97,0.041 2.541,-0.68 2.821,-3.263 0.101,-0.924 0.081,-1.974 0.26,-2.791 l 1.962,-0.23 c 0.378,-0.043 0.65,-0.387 0.606,-0.766 l 0.559,-4.812 C 94.909,77.996 94.565,77.726 94.186,77.77 z M 71.925,42.86 c -4.03,2.097 -8.624,2.459 -12.936,1.023 -4.216,-1.406 -7.631,-4.369 -9.618,-8.344 -1.988,-3.974 -2.308,-8.485 -0.902,-12.702 1.373,-4.122 4.252,-7.496 8.109,-9.498 4.031,-2.096 8.625,-2.459 12.936,-1.021 8.703,2.901 13.422,12.341 10.52,21.043 -0.324,0.969 -0.735,1.893 -1.219,2.771 -0.177,-0.724 -0.39,-1.414 -0.632,-2.072 0.163,-0.382 0.318,-0.768 0.451,-1.166 2.644,-7.931 -1.658,-16.534 -9.587,-19.177 -3.928,-1.311 -8.116,-0.979 -11.789,0.93 -3.513,1.826 -6.138,4.901 -7.39,8.658 -1.282,3.842 -0.989,7.953 0.821,11.575 1.812,3.622 4.925,6.322 8.767,7.603 3.928,1.311 8.114,0.979 11.789,-0.931 2.308,-1.199 4.221,-2.945 5.626,-5.062 0.158,0.629 0.288,1.285 0.39,1.962 -1.436,1.806 -3.235,3.316 -5.336,4.408 z m 2.388,-14.43 c -1.127,-0.832 -2.382,-1.306 -3.719,-1.306 -0.996,0 -1.946,0.266 -2.833,0.74 0.527,0.596 1.175,1.067 1.918,1.342 0.301,-0.076 0.603,-0.129 0.915,-0.129 0.62,0 1.218,0.17 1.795,0.462 -0.917,0.269 -1.919,0.275 -2.893,-0.049 -2.538,-0.847 -3.912,-3.593 -3.065,-6.132 0.848,-2.54 3.592,-3.913 6.133,-3.065 2.54,0.846 3.914,3.591 3.066,6.132 -0.266,0.801 -0.739,1.469 -1.317,2.005 z M 34.279,82.49 c -0.795,0 -1.44,-0.646 -1.44,-1.441 0,-0.796 0.645,-1.441 1.44,-1.441 0.796,0 1.44,0.646 1.44,1.441 0,0.795 -0.644,1.441 -1.44,1.441 z m 9.63,-6.124 -9.082,-0.714 c -0.366,-0.03 -0.64,-0.351 -0.612,-0.717 0.028,-0.365 -0.182,-0.642 0.184,-0.613 l 9.613,0.715 c 0.368,0.027 0.641,0.349 0.613,0.717 -0.028,0.365 -0.35,0.64 -0.716,0.612 z m 4.256,-3.489 c 0,0.383 -1.914,1.581 -2.295,1.581 L 34.714,73.57 c -0.382,0 -0.691,-0.311 -0.691,-0.693 v -2.762 c 0,-0.383 0.31,-0.692 0.691,-0.692 h 12.76 c 0.381,0 0.691,0.31 0.691,0.692 v 2.762 z m 5.394,7.266 -1.59,-0.254 c -0.026,0 -0.044,-0.011 -0.066,-0.013 V 68.991 c 0.022,-0.002 0.04,-0.013 0.066,-0.013 h 1.59 v 11.165 z m 2.462,0.391 -1.654,-0.265 v -11.29 h 1.654 v 11.555 z m 2.463,0.393 -1.656,-0.265 V 68.979 h 1.656 v 11.948 z m 0.807,0.127 v -4.707 l 1.656,0.976 v 3.957 c 0,0.013 0.008,0.026 0.008,0.04 l -1.664,-0.266 z m 0,-8.061 v -4.015 h 1.656 v 3.077 l -1.656,0.938 z M 40.761,61.5 c 3.569,-5.977 4.59,-8.072 13.105,-8.072 2.445,0 12.227,0 14.672,0 1.511,0 2.777,0.07 3.872,0.213 -0.582,0.299 -1.19,0.472 -1.816,0.472 -0.535,0 -1.058,-0.12 -1.561,-0.341 h -3.27 c 1.381,1.45 3.031,2.295 4.83,2.295 1.604,0 3.095,-0.672 4.381,-1.848 3.049,1.074 4.306,3.322 6.669,7.281 -6.386,0 -34.495,0 -40.882,0 z M 63.113,81.054 61.45,81.32 c 0,-0.014 0.008,-0.027 0.008,-0.04 v -3.957 l 1.655,-0.976 v 4.707 z m 0,-8.061 -1.655,-0.938 v -3.077 h 1.655 v 4.015 z m 2.465,7.669 -1.657,0.265 V 68.979 h 1.657 v 11.683 z m 2.461,-0.392 -1.655,0.265 V 68.979 h 1.655 V 80.27 z m 2.465,-0.394 c -0.021,0.002 -0.042,0.013 -0.067,0.013 l -1.591,0.254 V 68.979 h 1.591 c 0.025,0 0.046,0.011 0.067,0.013 v 10.884 z m 3.737,-6.999 v -2.762 c 0,-0.383 0.308,-0.692 0.689,-0.692 h 12.762 c 0.381,0 0.691,0.31 0.691,0.692 v 2.762 c 0,0.383 -0.311,0.693 -0.691,0.693 l -11.157,0.888 c -0.382,0 -2.294,-1.198 -2.294,-1.581 z m 4.256,3.489 c -0.368,0.027 -0.687,-0.247 -0.718,-0.612 -0.028,-0.368 0.248,-0.689 0.614,-0.717 l 9.612,-0.715 c 0.368,-0.028 0.155,0.248 0.183,0.613 0.03,0.366 -0.244,0.687 -0.609,0.717 l -9.082,0.714 z m 9.628,6.124 c -0.795,0 -1.438,-0.646 -1.438,-1.441 0,-0.796 0.644,-1.441 1.438,-1.441 0.797,0 1.441,0.646 1.441,1.441 0,0.795 -0.644,1.441 -1.441,1.441 z"
                                   inkscape:connector-curvature="0" /><path
                                   id="path9807"
                                   d="m 64.372,46.897 c -0.004,0 -0.008,0 -0.013,0 -0.689,0 -1.369,-0.039 -2.037,-0.095 0.355,1.549 0.873,2.958 1.509,4.191 h 2.266 C 65.38,49.856 64.789,48.461 64.372,46.897 z"
                                   inkscape:connector-curvature="0" /></g></g></g></g></g></g></g></g></g></g></g></g></g></g></g></g></g></g></g></g></g></g></g></g></g></g></g></g></g></g></g></g></g></g></g></g></g></g></g></g></g></g></g></g></g></g></g></svg>