<?xml version="1.0" encoding="UTF-8" standalone="no"?>
<svg
   xmlns:dc="http://purl.org/dc/elements/1.1/"
   xmlns:cc="http://creativecommons.org/ns#"
   xmlns:rdf="http://www.w3.org/1999/02/22-rdf-syntax-ns#"
   xmlns:svg="http://www.w3.org/2000/svg"
   xmlns="http://www.w3.org/2000/svg"
   xmlns:sodipodi="http://sodipodi.sourceforge.net/DTD/sodipodi-0.dtd"
   xmlns:inkscape="http://www.inkscape.org/namespaces/inkscape"
   version="1.1"
   x="0px"
   y="0px"
   viewBox="0 0 100 100"
   enable-background="new 0 0 68 68"
   xml:space="preserve"
   id="svg38"
   sodipodi:docname="Caravan Site.svg"
   width="100"
   height="100"
   inkscape:version="0.92.5 (2060ec1f9f, 2020-04-08)"><metadata
     id="metadata44"><rdf:RDF><cc:Work
         rdf:about=""><dc:format>image/svg+xml</dc:format><dc:type
           rdf:resource="http://purl.org/dc/dcmitype/StillImage" /><dc:title></dc:title></cc:Work></rdf:RDF></metadata><defs
     id="defs42" /><sodipodi:namedview
     pagecolor="#ffffff"
     bordercolor="#666666"
     borderopacity="1"
     objecttolerance="10"
     gridtolerance="10"
     guidetolerance="10"
     inkscape:pageopacity="0"
     inkscape:pageshadow="2"
     inkscape:window-width="1680"
     inkscape:window-height="884"
     id="namedview40"
     showgrid="false"
     inkscape:zoom="2.7764706"
     inkscape:cx="38.502119"
     inkscape:cy="42.5"
     inkscape:window-x="0"
     inkscape:window-y="0"
     inkscape:window-maximized="1"
     inkscape:current-layer="g32" /><g
     id="g32"
     transform="translate(0,15)"><g
       id="g58"
       transform="translate(-0.1294935,13.985164)"><path
         style="stroke-width:1.503968"
         inkscape:connector-curvature="0"
         id="path2"
         d="m 5.8451481,47.112583 h 3.0531002 c 0.4210659,0 0.751984,-0.330828 0.751984,-0.751984 0,-2.31608 0.8121127,-4.451685 2.1657137,-6.121165 H 1.995005 v 3.038046 c 0,2.120655 1.7295933,3.835103 3.8501431,3.835103 z" /><circle
         style="stroke-width:1.503968"
         id="circle4"
         r="2.1692934"
         cy="46.364178"
         cx="19.444944" /><circle
         style="stroke-width:1.503968"
         id="circle6"
         r="2.1692934"
         cy="46.364178"
         cx="73.091362" /><path
         style="stroke-width:1.503968"
         inkscape:connector-curvature="0"
         id="path8"
         d="m 57.526512,18.438516 c 0.6366,0 1.152671,-0.516072 1.152671,-1.152671 V 9.9728152 c 0,-0.6365996 -0.516071,-1.1526711 -1.152671,-1.1526711 h -9.050789 c -0.6366,0 -1.152671,0.5160715 -1.152671,1.1526711 v 7.3130298 c 0,0.636599 0.516071,1.152671 1.152671,1.152671 z" /><path
         style="stroke-width:1.503968"
         inkscape:connector-curvature="0"
         id="path10"
         d="m 24.982013,15.538715 1.486326,-1.486341 c 0.29377,-0.29374 0.29377,-0.769611 0,-1.063351 -0.293725,-0.29374 -0.76958,-0.29374 -1.063335,0 l -1.486342,1.486342 c -0.29374,0.29374 -0.29374,0.76961 0,1.06335 0.29371,0.29374 0.769596,0.29374 1.063351,0 z" /><path
         style="stroke-width:1.503968"
         inkscape:connector-curvature="0"
         id="path12"
         d="m 25.622372,18.969642 c 0.29374,0.29374 0.769611,0.29374 1.063351,0 l 4.670497,-4.669054 c 0.29377,-0.29374 0.29377,-0.76961 0,-1.06335 -0.293725,-0.29374 -0.76958,-0.29374 -1.063335,0 l -4.670528,4.669054 c -0.29374,0.29374 -0.29374,0.76961 1.5e-5,1.06335 z" /><path
         style="stroke-width:1.503968"
         inkscape:connector-curvature="0"
         id="path14"
         d="M 60.181316,-5.9001684 H 45.818723 c -1.244007,0 -2.255952,1.0119449 -2.255952,2.255952 v 0.5874951 c 0,1.2440071 1.011945,2.25595196 2.255952,2.25595196 h 14.362593 c 1.244007,0 2.255952,-1.01194486 2.255952,-2.25595196 v -0.5874951 c 0,-1.2440071 -1.011945,-2.255952 -2.255952,-2.255952 z" /><path
         style="stroke-width:1.503968"
         inkscape:connector-curvature="0"
         id="path22"
         d="M 97.505877,52.293392 H 77.525331 c 1.814327,-1.354428 3.006928,-3.496004 3.006928,-5.932793 0,-4.090748 -3.338854,-7.429602 -7.444656,-7.429602 -4.090748,0 -7.429602,3.338854 -7.429602,7.429602 0,2.436789 1.192421,4.578365 3.00371,5.932793 H 23.878822 c 1.814327,-1.354428 3.006929,-3.496004 3.006929,-5.932793 0,-4.090748 -3.338854,-7.429602 -7.444657,-7.429602 -4.090838,0 -7.429602,3.338854 -7.429602,7.429602 0,2.436789 1.192421,4.578365 3.00371,5.932793 H 2.7558925 c -0.4156516,0 -0.751984,0.336332 -0.751984,0.751984 0,0.415652 0.3363324,0.751984 0.751984,0.751984 H 97.505877 c 0.415651,0 0.751984,-0.336332 0.751984,-0.751984 0,-0.415652 -0.336348,-0.751984 -0.751984,-0.751984 z M 73.091333,42.690917 c 2.025378,0 3.673291,1.647898 3.673291,3.673262 0,2.025363 -1.647898,3.673261 -3.673291,3.673261 -2.025334,0 -3.673247,-1.647898 -3.673247,-3.673261 0,-2.025364 1.647913,-3.673262 3.673247,-3.673262 z m -53.646389,0 c 2.025364,0 3.673262,1.647898 3.673262,3.673262 0,2.025363 -1.647898,3.673261 -3.673262,3.673261 -2.025363,0 -3.673261,-1.647898 -3.673261,-3.673261 0,-2.025364 1.647898,-3.673262 3.673261,-3.673262 z" /><path
         style="stroke-width:1.503968"
         inkscape:connector-curvature="0"
         id="path24"
         d="M 87.518582,9.8459555 H 74.154713 c -1.244007,0 -2.255952,1.0119445 -2.255952,2.2559525 v 9.9535 c 0,1.244008 1.011945,2.255952 2.255952,2.255952 h 13.363869 c 1.244007,0 2.255952,-1.011944 2.255952,-2.255952 v -9.9535 c 0,-1.244008 -1.011945,-2.2559525 -2.255952,-2.2559525 z" /><path
         style="stroke-width:1.503968"
         inkscape:connector-curvature="0"
         id="path26"
         d="m 94.504077,-6.0526406 h -19.98769 c -0.586562,0 -1.188195,-0.1354023 -1.714538,-0.4061015 l -9.294507,-4.7374389 c -0.73693,-0.375992 -1.564097,-0.571508 -2.391355,-0.571508 H 31.081776 c -0.661746,0 -1.323492,0.120257 -1.925124,0.375992 l -15.776609,6.1963482 c -0.767039,0.3458826 -1.263288,1.0828118 -1.323492,1.9100694 -0.04507,0.8422221 0.360937,1.6242253 1.067847,2.0604362 l 2.947808,1.81974113 C 16.899373,1.1062922 17.861928,1.3769914 18.839462,1.3769914 H 35.38311 V 4.2495251 L 22.103042,8.5358941 C 20.79459,8.95696 19.802016,10.069881 19.516262,11.423483 l -2.271006,11.129393 c -0.165422,0.812113 -0.767039,1.488913 -1.549042,1.744558 C 13.319914,25.651035 1.99499,26.32776 1.99499,36.795408 v 1.940088 h 11.324924 c 1.684444,-1.353511 3.804994,-2.165623 6.121165,-2.165623 2.316081,0 4.436721,0.812112 6.121165,2.165623 h 11.324834 v -0.01489 h 5.925634 V 7.3177552 c 0,-1.6694797 1.338546,-3.007936 3.007936,-3.007936 h 14.362879 c 1.654425,0 3.007936,1.3384563 3.007936,3.007936 V 38.720607 h 3.820139 c 1.669389,-1.338546 3.774975,-2.150659 6.091055,-2.150659 2.301026,0 4.421666,0.812113 6.091056,2.150659 H 98.263997 V -2.2927206 c 0,-2.0754909 -1.684429,-3.75992 -3.75992,-3.75992 z M 30.946389,27.99721 H 27.86327 c -0.421066,0 -0.751984,-0.330918 -0.751984,-0.751984 0,-0.421156 0.330918,-0.751984 0.751984,-0.751984 h 3.083119 c 0.421156,0 0.751984,0.330828 0.751984,0.751984 0,0.421066 -0.330843,0.751984 -0.751984,0.751984 z M 35.38311,21.484998 H 18.989904 l 2.000217,-9.760737 c 0.180476,-0.827167 0.782093,-1.488913 1.579151,-1.7596123 L 35.38311,5.8287367 Z M 63.943447,-3.0597594 c 0,2.07547589 -1.684444,3.75992005 -3.75992,3.75992005 H 45.820648 c -2.075476,0 -3.75992,-1.68444416 -3.75992,-3.75992005 V -3.646337 c 0,-2.0754758 1.684444,-3.75992 3.75992,-3.75992 h 14.362879 c 2.075476,0 3.75992,1.6844442 3.75992,3.75992 z M 91.278502,22.055408 c 0,2.053263 -1.653779,3.726141 -3.698227,3.75992 -0.0089,0 -0.0191,0 -0.0279,0 H 74.154728 c -2.073836,0 -3.75992,-1.686083 -3.75992,-3.75992 v -9.9535 c 0,-2.06355 1.671405,-3.7437679 3.730548,-3.7599205 0.0044,0 0.0089,0 0.01324,0 h 13.380021 c 2.073836,0 3.75992,1.6860835 3.75992,3.7599205 v 9.9535 z" /><path
         style="stroke-width:1.503968"
         inkscape:connector-curvature="0"
         id="path28"
         d="m 35.38311,40.239434 h -8.316898 c 1.353511,1.684535 2.165714,3.805085 2.165714,6.121165 0,0.421156 0.345882,0.751984 0.751984,0.751984 h 6.151184 26.424733 c 0.406101,0 0.751984,-0.330828 0.751984,-0.751984 0,-2.322322 0.797148,-4.413499 2.189672,-6.134189 H 35.38311 Z" /><path
         style="stroke-width:1.503968"
         inkscape:connector-curvature="0"
         id="path30"
         d="m 82.878434,46.360599 c 0,0.386084 0.327986,0.751984 0.751984,0.751984 h 2.225843 c 0.328076,0 -0.08087,0.06581 11.114339,-4.43663 0.85305,-0.413727 1.293397,-1.263559 1.293397,-2.045472 V 40.226395 H 80.68207 c 1.499741,1.848482 2.196364,3.940486 2.196364,6.134204 z" /></g></g></svg>