<?xml version="1.0" encoding="UTF-8" standalone="no"?>
<svg
   xmlns:dc="http://purl.org/dc/elements/1.1/"
   xmlns:cc="http://creativecommons.org/ns#"
   xmlns:rdf="http://www.w3.org/1999/02/22-rdf-syntax-ns#"
   xmlns:svg="http://www.w3.org/2000/svg"
   xmlns="http://www.w3.org/2000/svg"
   xmlns:sodipodi="http://sodipodi.sourceforge.net/DTD/sodipodi-0.dtd"
   xmlns:inkscape="http://www.inkscape.org/namespaces/inkscape"
   version="1.1"
   x="0px"
   y="0px"
   viewBox="0 0 100 125"
   enable-background="new 0 0 100 100"
   xml:space="preserve"
   id="svg2"
   inkscape:version="0.91 r13725"
   sodipodi:docname="Casino.svg"><metadata
     id="metadata26"><rdf:RDF><cc:Work
         rdf:about=""><dc:format>image/svg+xml</dc:format><dc:type
           rdf:resource="http://purl.org/dc/dcmitype/StillImage" /></cc:Work></rdf:RDF></metadata><defs
     id="defs24" /><sodipodi:namedview
     pagecolor="#ffffff"
     bordercolor="#666666"
     borderopacity="1"
     objecttolerance="10"
     gridtolerance="10"
     guidetolerance="10"
     inkscape:pageopacity="0"
     inkscape:pageshadow="2"
     inkscape:window-width="668"
     inkscape:window-height="480"
     id="namedview22"
     showgrid="false"
     inkscape:zoom="1.888"
     inkscape:cx="50"
     inkscape:cy="62.5"
     inkscape:window-x="75"
     inkscape:window-y="34"
     inkscape:window-maximized="0"
     inkscape:current-layer="svg2" /><g
     id="g4"><g
       id="g6"><path
         d="M49.834,1C22.864,1,1,22.864,1,49.833c0,26.972,21.864,48.833,48.835,48.833c26.97,0,48.833-21.861,48.833-48.833    C98.668,22.864,76.805,1,49.834,1 M83.212,80.034l-4.392-5.24c-0.617,0.716-1.264,1.411-1.939,2.088    c-5.561,5.56-12.529,9.194-20.104,10.574l2.533,6.382L40.371,93.84l2.341-6.416c-7.504-1.404-14.409-5.027-19.925-10.542    c-0.719-0.719-1.405-1.463-2.059-2.228l-4.264,5.39L6.991,63.645l6.719-1.18c-1.397-4.006-2.126-8.262-2.126-12.631    c0-4.428,0.749-8.742,2.185-12.797l-6.783-0.995l9.466-16.405l4.391,5.242c0.62-0.717,1.269-1.416,1.945-2.092    c5.561-5.562,12.534-9.197,20.109-10.577l-2.532-6.382h18.939l-2.345,6.417c7.503,1.406,14.407,5.026,19.921,10.542    c0.721,0.72,1.406,1.465,2.062,2.231l4.265-5.39l9.47,16.402l-6.719,1.177c1.396,4.006,2.125,8.26,2.125,12.626    c0,4.431-0.749,8.747-2.186,12.802l6.781,0.996L83.212,80.034z"
         id="path8" /></g><g
       id="g10"><path
         d="M49.834,16.597c-8.877,0-17.225,3.458-23.502,9.734c-6.278,6.278-9.734,14.625-9.734,23.502s3.457,17.226,9.734,23.501    c6.278,6.277,14.625,9.736,23.502,9.736s17.225-3.459,23.501-9.736c6.276-6.275,9.733-14.624,9.733-23.501    s-3.457-17.224-9.733-23.502C67.059,20.055,58.712,16.597,49.834,16.597 M69.791,69.791c-5.331,5.33-12.418,8.268-19.957,8.268    s-14.627-2.938-19.957-8.268c-5.331-5.331-8.266-12.418-8.266-19.958c0-7.538,2.936-14.626,8.266-19.957    s12.418-8.266,19.957-8.266s14.625,2.936,19.957,8.266s8.268,12.419,8.268,19.957C78.059,57.373,75.122,64.46,69.791,69.791"
         id="path12" /></g><g
       id="g14"><path
         d="M51.945,46.388c-4.684-1.938-6.038-3.101-6.038-5.189c0-1.742,1.23-3.605,4.682-3.605c3.304,0,5.384,1.188,6.271,1.695    l1.037,0.592l2.076-5.475l-0.744-0.438c-1.91-1.118-4.041-1.765-6.492-1.965v-5.275h-5.377v5.614    c-4.963,1.13-8.122,4.782-8.122,9.501c0,5.733,4.577,8.319,9.513,10.254c3.866,1.567,5.443,3.147,5.443,5.459    c0,2.541-2.164,4.25-5.38,4.25c-2.524,0-5.142-0.781-7.181-2.143l-1.087-0.725L38.552,64.5l0.627,0.448    c1.882,1.346,4.861,2.291,7.804,2.513v5.48h5.431v-5.778c5.12-1.181,8.501-5.103,8.501-9.983    C60.916,52.18,58.23,48.951,51.945,46.388"
         id="path16" /></g></g></svg>