<?xml version="1.0" encoding="UTF-8" standalone="no"?>
<svg
   xmlns:dc="http://purl.org/dc/elements/1.1/"
   xmlns:cc="http://creativecommons.org/ns#"
   xmlns:rdf="http://www.w3.org/1999/02/22-rdf-syntax-ns#"
   xmlns:svg="http://www.w3.org/2000/svg"
   xmlns="http://www.w3.org/2000/svg"
   xmlns:sodipodi="http://sodipodi.sourceforge.net/DTD/sodipodi-0.dtd"
   xmlns:inkscape="http://www.inkscape.org/namespaces/inkscape"
   version="1.1"
   x="0px"
   y="0px"
   viewBox="-120 78.1 73.638997 99.999996"
   xml:space="preserve"
   id="svg2"
   inkscape:version="0.48.4 r9939"
   width="100%"
   height="100%"
   sodipodi:docname="Battlefield.svg"><metadata
     id="metadata18"><rdf:RDF><cc:Work
         rdf:about=""><dc:format>image/svg+xml</dc:format><dc:type
           rdf:resource="http://purl.org/dc/dcmitype/StillImage" /><dc:title></dc:title></cc:Work></rdf:RDF></metadata><defs
     id="defs16" /><sodipodi:namedview
     pagecolor="#ffffff"
     bordercolor="#666666"
     borderopacity="1"
     objecttolerance="10"
     gridtolerance="10"
     guidetolerance="10"
     inkscape:pageopacity="0"
     inkscape:pageshadow="2"
     inkscape:window-width="725"
     inkscape:window-height="735"
     id="namedview14"
     showgrid="false"
     fit-margin-top="0"
     fit-margin-left="0"
     fit-margin-right="0"
     fit-margin-bottom="0"
     inkscape:zoom="2.6700352"
     inkscape:cx="40.488471"
     inkscape:cy="45.620347"
     inkscape:window-x="137"
     inkscape:window-y="103"
     inkscape:window-maximized="0"
     inkscape:current-layer="g3297" /><g
     id="g3032"
     transform="translate(-121.84875,96.88045)"><g
       id="g3082"
       transform="translate(-11.778449,-19.681681)"><g
         id="g3297"
         transform="translate(113.35527,48.840676)"><g
           id="g3223"
           transform="translate(-112.35807,-47.939445)"><polygon
             id="polygon3225"
             points="22.877,42.289 27.47,42.289 27.995,32.314 23.508,32.314 " /><polygon
             id="polygon3227"
             points="21.41,65.453 25.671,65.453 26.201,55.485 22.042,55.485 " /><polygon
             id="polygon3229"
             points="22.143,53.869 34.997,53.869 35.233,43.9 22.775,43.9 " /><polygon
             id="polygon3231"
             points="69.041,32.314 29.612,32.314 29.082,42.289 43.215,42.289 43.215,40.045 49.447,32.433 55.685,40.045 55.685,42.289 69.571,42.289 " /><polygon
             id="polygon3233"
             points="43.215,53.869 43.215,43.9 36.839,43.9 36.614,53.869 " /><polygon
             id="polygon3235"
             points="37.225,67.065 35.018,73.297 63.832,73.297 61.628,67.065 " /><polygon
             id="polygon3237"
             points="43.215,65.453 43.215,55.485 27.818,55.485 27.283,65.453 " /><polygon
             id="polygon3239"
             points="24.814,74.908 24.387,86.247 48.584,86.247 48.584,74.908 " /><polygon
             id="polygon3241"
             points="50.196,74.908 50.196,86.247 74.267,86.247 73.844,74.908 " /><polygon
             id="polygon3243"
             points="16.265,73.297 33.305,73.297 35.511,67.065 20.778,67.065 " /><polygon
             id="polygon3245"
             points="14.247,86.247 22.775,86.247 23.198,74.908 15.584,74.908 " /><polygon
             id="polygon3247"
             points="59.779,0 46.99,0 45.373,0 39.119,0 39.119,9.92 59.779,9.92 " /><polygon
             id="polygon3249"
             points="75.342,0 67.473,0 67.473,9.92 83.213,9.92 83.213,0 " /><rect
             id="rect3251"
             height="11.339"
             width="24.225"
             y="11.532"
             x="24.360001" /><polygon
             id="polygon3253"
             points="23.551,0 15.681,0 15.681,9.92 31.426,9.92 31.426,0 " /><polygon
             id="polygon3255"
             points="34.494,100 34.703,87.859 14.059,87.859 12.63,100 " /><polygon
             id="polygon3257"
             points="35.035,24.482 37.235,30.703 61.616,30.703 63.815,24.482 " /><polygon
             id="polygon3259"
             points="22.705,30.703 35.527,30.703 33.327,24.482 16.484,24.482 " /><rect
             id="rect3261"
             height="11.339"
             width="24.225"
             y="11.532"
             x="50.195999" /><polygon
             id="polygon3263"
             points="55.685,43.9 55.685,53.869 62.044,53.869 61.814,43.9 " /><rect
             id="rect3265"
             height="11.339"
             width="7.0669999"
             y="11.532"
             x="15.681" /><polygon
             id="polygon3267"
             points="55.685,55.485 55.685,65.453 71.369,65.453 70.839,55.485 " /><rect
             id="rect3269"
             height="11.339"
             width="7.1810002"
             y="11.532"
             x="76.031998" /><polygon
             id="polygon3271"
             points="76.124,43.9 63.426,43.9 63.655,53.869 76.755,53.869 " /><polygon
             id="polygon3273"
             points="84.838,87.859 63.956,87.859 64.164,100 86.269,100 " /><polygon
             id="polygon3275"
             points="83.31,74.908 75.454,74.908 75.879,86.247 84.646,86.247 " /><polygon
             id="polygon3277"
             points="75.386,32.314 70.658,32.314 71.188,42.289 76.017,42.289 " /><polygon
             id="polygon3279"
             points="82.409,24.482 65.524,24.482 63.324,30.703 76.188,30.703 " /><polygon
             id="polygon3281"
             points="76.853,55.485 72.451,55.485 72.986,65.453 77.483,65.453 " /><polygon
             id="polygon3283"
             points="78.121,67.065 63.34,67.065 65.545,73.297 82.633,73.297 " /><polygon
             id="polygon3285"
             points="62.547,100 62.344,87.859 36.314,87.859 36.105,100 " /></g></g></g></g></svg>