<?xml version="1.0" encoding="UTF-8" standalone="no"?>
<svg
   xmlns:dc="http://purl.org/dc/elements/1.1/"
   xmlns:cc="http://creativecommons.org/ns#"
   xmlns:rdf="http://www.w3.org/1999/02/22-rdf-syntax-ns#"
   xmlns:svg="http://www.w3.org/2000/svg"
   xmlns="http://www.w3.org/2000/svg"
   xmlns:sodipodi="http://sodipodi.sourceforge.net/DTD/sodipodi-0.dtd"
   xmlns:inkscape="http://www.inkscape.org/namespaces/inkscape"
   version="1.1"
   x="0px"
   y="0px"
   viewBox="0 0 90 112.5"
   enable-background="new 0 0 90 90"
   xml:space="preserve"
   id="svg2"
   inkscape:version="0.91 r13725"
   sodipodi:docname="Cemetery.svg"><metadata
     id="metadata16"><rdf:RDF><cc:Work
         rdf:about=""><dc:format>image/svg+xml</dc:format><dc:type
           rdf:resource="http://purl.org/dc/dcmitype/StillImage" /></cc:Work></rdf:RDF></metadata><defs
     id="defs14" /><sodipodi:namedview
     pagecolor="#ffffff"
     bordercolor="#666666"
     borderopacity="1"
     objecttolerance="10"
     gridtolerance="10"
     guidetolerance="10"
     inkscape:pageopacity="0"
     inkscape:pageshadow="2"
     inkscape:window-width="668"
     inkscape:window-height="480"
     id="namedview12"
     showgrid="false"
     inkscape:zoom="2.0977778"
     inkscape:cx="45"
     inkscape:cy="56.25"
     inkscape:window-x="75"
     inkscape:window-y="34"
     inkscape:window-maximized="0"
     inkscape:current-layer="svg2" /><polygon
     points="31.954,32.726 40.97,32.726 40.97,22.628 48.796,22.628 48.796,32.726 57.813,32.726 57.813,40.554 48.796,40.554   48.796,64.247 40.97,64.247 40.97,40.554 31.954,40.554 "
     id="polygon4" /><path
     d="M80.964,69.614V37.675c0-19.893-16.186-36.08-36.078-36.08c-19.898,0-36.08,16.188-36.08,36.08v31.951  c-3.23,0.205-5.787,2.893-5.787,6.176v6.41c0,3.42,2.771,6.193,6.191,6.193h5.787h59.775h6.018c3.42,0,6.191-2.773,6.191-6.193  v-6.41C86.981,72.44,84.304,69.704,80.964,69.614z M44.886,7.786c16.504,0,29.887,13.382,29.887,29.889v35.031H14.997V37.675  C14.997,21.168,28.378,7.786,44.886,7.786z M80.79,82.212H9.21v-6.41h71.58V82.212z"
     id="path6" /></svg>