<?xml version="1.0" encoding="UTF-8" standalone="no"?>
<svg
   xmlns:dc="http://purl.org/dc/elements/1.1/"
   xmlns:cc="http://creativecommons.org/ns#"
   xmlns:rdf="http://www.w3.org/1999/02/22-rdf-syntax-ns#"
   xmlns:svg="http://www.w3.org/2000/svg"
   xmlns="http://www.w3.org/2000/svg"
   xmlns:sodipodi="http://sodipodi.sourceforge.net/DTD/sodipodi-0.dtd"
   xmlns:inkscape="http://www.inkscape.org/namespaces/inkscape"
   xml:space="preserve"
   version="1.1"
   style="clip-rule:evenodd;fill-rule:evenodd;image-rendering:optimizeQuality;shape-rendering:geometricPrecision;text-rendering:geometricPrecision"
   viewBox="0 0 100 100"
   x="0px"
   y="0px"
   id="svg14"
   sodipodi:docname="Charging Station.svg"
   width="100"
   height="100"
   inkscape:version="0.92.5 (2060ec1f9f, 2020-04-08)"><metadata
     id="metadata18"><rdf:RDF><cc:Work
         rdf:about=""><dc:format>image/svg+xml</dc:format><dc:type
           rdf:resource="http://purl.org/dc/dcmitype/StillImage" /><dc:title></dc:title></cc:Work></rdf:RDF></metadata><sodipodi:namedview
     pagecolor="#ffffff"
     bordercolor="#666666"
     borderopacity="1"
     objecttolerance="10"
     gridtolerance="10"
     guidetolerance="10"
     inkscape:pageopacity="0"
     inkscape:pageshadow="2"
     inkscape:window-width="1680"
     inkscape:window-height="884"
     id="namedview16"
     showgrid="false"
     inkscape:zoom="1.7839511"
     inkscape:cx="106.12875"
     inkscape:cy="61.733721"
     inkscape:window-x="0"
     inkscape:window-y="0"
     inkscape:window-maximized="1"
     inkscape:current-layer="svg14" /><defs
     id="defs4"><style
       type="text/css"
       id="style2">
   
    .fil0 {fill:black;fill-rule:nonzero}
   
  </style></defs><g
     id="g8"
     transform="matrix(0.11964677,0,0,0.11964677,-0.64976803,-0.64946891)"><path
       class="fil0"
       d="M 662.76,34.09 H 219.64 c -13.67,0 -24.77,11.1 -24.77,24.78 V 527.03 H 152.64 V 226.67 c 0,-13.68 -11.1,-24.77 -24.77,-24.77 H 68.19 c -32.58,0 -32.58,49.54 0,49.54 h 34.9 V 551.8 c 0,13.68 11.1,24.78 24.78,24.78 h 67 v 86.79 h -90.61 c -13.67,0 -24.77,11.09 -24.77,24.77 v 99.64 c 0,13.68 11.1,24.78 24.77,24.78 h 673.86 c 13.68,0 24.78,-11.1 24.78,-24.78 v -99.64 c 0,-13.68 -11.1,-24.77 -24.78,-24.77 H 687.54 V 58.87 c 0,-13.68 -11.1,-24.78 -24.78,-24.78 z m -219.47,146.83 -66.65,91.06 c -6.62,9.05 -0.03,21.49 10.95,21.6 h 26.67 l -4.91,64.2 c -1.02,13.85 16.99,19.96 24.72,8.68 l 71.53,-93.81 c 6.45,-8.45 1.08,-20.44 -9.19,-21.71 l -31.71,-3.87 3.07,-57.45 c 0.66,-13.46 -16.59,-19.41 -24.48,-8.7 z M 291.75,117.99 h 298.9 c 13.67,0 24.77,11.1 24.77,24.77 v 262.21 c 0,13.67 -11.1,24.77 -24.77,24.77 h -298.9 c -13.68,0 -24.78,-11.1 -24.78,-24.77 V 142.76 c 0,-13.67 11.1,-24.77 24.78,-24.77 z"
       id="path6"
       inkscape:connector-curvature="0"
       style="fill:#000000;fill-rule:nonzero" /></g></svg>