<?xml version="1.0" encoding="UTF-8" standalone="no"?>
<svg
   xmlns:dc="http://purl.org/dc/elements/1.1/"
   xmlns:cc="http://creativecommons.org/ns#"
   xmlns:rdf="http://www.w3.org/1999/02/22-rdf-syntax-ns#"
   xmlns:svg="http://www.w3.org/2000/svg"
   xmlns="http://www.w3.org/2000/svg"
   xmlns:sodipodi="http://sodipodi.sourceforge.net/DTD/sodipodi-0.dtd"
   xmlns:inkscape="http://www.inkscape.org/namespaces/inkscape"
   viewBox="0 0 99.999997 124.99999625"
   version="1.1"
   x="0px"
   y="0px"
   id="svg10"
   sodipodi:docname="Charging Station.svg"
   inkscape:version="0.92.5 (2060ec1f9f, 2020-04-08)">
  <metadata
     id="metadata16">
    <rdf:RDF>
      <cc:Work
         rdf:about="">
        <dc:format>image/svg+xml</dc:format>
        <dc:type
           rdf:resource="http://purl.org/dc/dcmitype/StillImage" />
      </cc:Work>
    </rdf:RDF>
  </metadata>
  <defs
     id="defs14" />
  <sodipodi:namedview
     pagecolor="#ffffff"
     bordercolor="#666666"
     borderopacity="1"
     objecttolerance="10"
     gridtolerance="10"
     guidetolerance="10"
     inkscape:pageopacity="0"
     inkscape:pageshadow="2"
     inkscape:window-width="1440"
     inkscape:window-height="824"
     id="namedview12"
     showgrid="false"
     inkscape:zoom="1.888"
     inkscape:cx="50"
     inkscape:cy="62.5"
     inkscape:window-x="0"
     inkscape:window-y="0"
     inkscape:window-maximized="1"
     inkscape:current-layer="svg10" />
  <g
     transform="matrix(1.4264808,0,0,1.4264808,-22.681555,-1367.3521)"
     id="g4">
    <path
       style="color:#000000;font-style:normal;font-variant:normal;font-weight:normal;font-stretch:normal;font-size:medium;line-height:normal;font-family:Sans;-inkscape-font-specification:Sans;text-indent:0;text-align:start;text-decoration:none;text-decoration-line:none;letter-spacing:normal;word-spacing:normal;text-transform:none;writing-mode:lr-tb;direction:ltr;baseline-shift:baseline;text-anchor:start;display:inline;overflow:visible;visibility:visible;opacity:1;fill:#000000;fill-opacity:1;stroke:none;stroke-width:3.99999976;marker:none;enable-background:accumulate"
       d="m 33,6 c -3.289401,0 -6,2.7105999 -6,6 V 90 H 22 A 2.0002,2.0002 0 0 0 21.8125,90 2.0021962,2.0021962 0 1 0 22,94 h 56 a 2.0002,2.0002 0 1 0 0,-4 h -5 v -6 h 3 c 3.289401,0 6,-2.7106 6,-6 V 24 c 0,-3.2894 -2.710599,-6 -6,-6 H 73 V 12 C 73,8.7105999 70.289401,6 67,6 Z m 0,4 h 34 c 1.142583,0 2,0.85742 2,2 V 90 H 31 V 12 c 0,-1.14258 0.857417,-2 2,-2 z m 3.8125,4 A 2.0002,2.0002 0 0 0 35,16 v 20 a 2.0002,2.0002 0 0 0 2,2 h 26 a 2.0002,2.0002 0 0 0 2,-2 V 16 A 2.0002,2.0002 0 0 0 63,14 H 37 a 2.0002,2.0002 0 0 0 -0.1875,0 z M 39,18 H 61 V 34 H 39 Z m 34,4 h 3 c 1.142583,0 2,0.85742 2,2 v 6 h -5 z m 0,12 h 5 v 44 c 0,1.1426 -0.857417,2 -2,2 H 73 Z M 54.75,44 a 2.0002,2.0002 0 0 0 -1.375,0.8125 l -16,22 A 2.0002,2.0002 0 0 0 39,70 h 4 v 12 a 2.0002,2.0002 0 0 0 3.625,1.15625 l 16,-21.96875 A 2.0002,2.0002 0 0 0 61,58.03125 L 57,58 V 46 A 2.0002,2.0002 0 0 0 54.75,44 Z M 53,52.125 V 60 a 2.0002,2.0002 0 0 0 2,2 h 2.0625 L 47,75.84375 V 68 a 2.0002,2.0002 0 0 0 -2,-2 h -2.09375 z"
       transform="translate(0,952.36223)"
       id="path2"
       inkscape:connector-curvature="0" />
  </g>
</svg>
