<?xml version="1.0" encoding="UTF-8" standalone="no"?>
<svg
   xmlns:dc="http://purl.org/dc/elements/1.1/"
   xmlns:cc="http://creativecommons.org/ns#"
   xmlns:rdf="http://www.w3.org/1999/02/22-rdf-syntax-ns#"
   xmlns:svg="http://www.w3.org/2000/svg"
   xmlns="http://www.w3.org/2000/svg"
   xmlns:sodipodi="http://sodipodi.sourceforge.net/DTD/sodipodi-0.dtd"
   xmlns:inkscape="http://www.inkscape.org/namespaces/inkscape"
   version="1.1"
   x="0px"
   y="0px"
   viewBox="-120 78.1 97.060608 87.999996"
   xml:space="preserve"
   id="svg2"
   inkscape:version="0.48.4 r9939"
   width="100%"
   height="100%"
   sodipodi:docname="Casino.svg"><metadata
     id="metadata18"><rdf:RDF><cc:Work
         rdf:about=""><dc:format>image/svg+xml</dc:format><dc:type
           rdf:resource="http://purl.org/dc/dcmitype/StillImage" /><dc:title></dc:title></cc:Work></rdf:RDF></metadata><defs
     id="defs16" /><sodipodi:namedview
     pagecolor="#ffffff"
     bordercolor="#666666"
     borderopacity="1"
     objecttolerance="10"
     gridtolerance="10"
     guidetolerance="10"
     inkscape:pageopacity="0"
     inkscape:pageshadow="2"
     inkscape:window-width="725"
     inkscape:window-height="735"
     id="namedview14"
     showgrid="false"
     fit-margin-top="0"
     fit-margin-left="0"
     fit-margin-right="0"
     fit-margin-bottom="0"
     inkscape:zoom="2.6700352"
     inkscape:cx="39.8463"
     inkscape:cy="27.105564"
     inkscape:window-x="427"
     inkscape:window-y="110"
     inkscape:window-maximized="0"
     inkscape:current-layer="g3673" /><g
     id="g3032"
     transform="translate(-122.49091,103.39522)"><g
       id="g3082"
       transform="translate(-11.778449,-19.681681)"><g
         id="g3297"
         transform="translate(113.35527,48.840676)"><g
           id="g3451"
           transform="translate(-110.35024,-41.106017)"><g
             id="g3508"
             transform="translate(37.661621,37.801481)"><g
               id="g3556"
               transform="translate(-33.173714,-53.557494)"><g
                 id="g3600"
                 transform="translate(1.6437441,2.3337983)"><g
                   id="g3673"
                   transform="translate(3.1326802,-1.9259882)"><path
                     id="path3627"
                     d="M 20,88.582 C 20,89.365 19.365,90 18.583,90 H 3.417 C 2.635,90 2,89.365 2,88.582 V 84.418 C 2,83.635 2.635,83 3.417,83 H 18.582 C 19.365,83 20,83.635 20,84.418 v 4.164 z"
                     inkscape:connector-curvature="0" /><path
                     id="path3629"
                     d="M 59,44.527 C 59,44.789 58.708,45 58.349,45 H 42.651 C 42.292,45 42,44.789 42,44.527 V 40.472 C 42,40.211 42.292,40 42.651,40 H 58.349 C 58.708,40 59,40.211 59,40.473 v 4.054 z"
                     inkscape:connector-curvature="0" /><path
                     id="path3631"
                     d="M 59,51.527 C 59,51.789 58.708,52 58.349,52 H 42.651 C 42.292,52 42,51.789 42,51.527 V 47.472 C 42,47.211 42.292,47 42.651,47 H 58.349 C 58.708,47 59,47.211 59,47.473 v 4.054 z"
                     inkscape:connector-curvature="0" /><path
                     id="path3633"
                     d="M 59,58.527 C 59,58.789 58.708,59 58.349,59 H 42.651 C 42.292,59 42,58.789 42,58.527 V 54.472 C 42,54.211 42.292,54 42.651,54 H 58.349 C 58.708,54 59,54.211 59,54.473 v 4.054 z"
                     inkscape:connector-curvature="0" /><path
                     id="path3635"
                     d="M 59,66.527 C 59,66.789 58.708,67 58.349,67 H 42.651 C 42.292,67 42,66.789 42,66.527 V 62.472 C 42,62.211 42.292,62 42.651,62 H 58.349 C 58.708,62 59,62.211 59,62.473 v 4.054 z"
                     inkscape:connector-curvature="0" /><path
                     id="path3637"
                     d="M 59,74.527 C 59,74.789 58.708,75 58.349,75 H 42.651 C 42.292,75 42,74.789 42,74.527 V 70.472 C 42,70.211 42.292,70 42.651,70 H 58.349 C 58.708,70 59,70.211 59,70.473 v 4.054 z"
                     inkscape:connector-curvature="0" /><path
                     id="path3639"
                     d="M 59,82.527 C 59,82.789 58.708,83 58.349,83 H 42.651 C 42.292,83 42,82.789 42,82.527 V 78.472 C 42,78.211 42.292,78 42.651,78 H 58.349 C 58.708,78 59,78.211 59,78.473 v 4.054 z"
                     inkscape:connector-curvature="0" /><path
                     id="path3641"
                     d="M 59,89.527 C 59,89.789 58.708,90 58.349,90 H 42.651 C 42.292,90 42,89.789 42,89.527 V 85.472 C 42,85.211 42.292,85 42.651,85 H 58.349 C 58.708,85 59,85.211 59,85.473 v 4.054 z"
                     inkscape:connector-curvature="0" /><path
                     id="path3643"
                     d="M 30.951,40 15.015,83.789 c -0.853,2.34 -0.946,4.453 -0.209,4.72 l 3.913,1.424 c 0.736,0.268 2.023,-1.41 2.875,-3.75 L 38.086,40.872 C 38.194,40.574 38.279,40.287 38.362,40 h -7.411 z"
                     inkscape:connector-curvature="0" /><rect
                     id="rect3645"
                     height="74"
                     width="2"
                     y="16"
                     x="39" /><rect
                     id="rect3647"
                     height="74"
                     width="2"
                     y="16"
                     x="60" /><rect
                     id="rect3649"
                     height="61"
                     width="2"
                     y="16"
                     x="79" /><path
                     id="path3651"
                     d="m 98.947,50.105 c 0,2.396 0.471,5.044 -0.505,7.324 -1.557,3.64 -4.881,2.651 -7.717,1.696 -3.153,-1.061 -6.285,-2.2 -9.322,-3.563 -1.528,-0.686 -3.034,-1.425 -4.5,-2.238 C 75.424,52.501 74.122,51.498 72.462,51.038 71.301,50.717 69.818,50.464 68.649,50.173 68.26,50.078 63,49.063 63,48.842 V 40 l 9.132,1.263 c 0,0 19.236,8.842 26.815,8.842 z"
                     inkscape:connector-curvature="0" /><path
                     id="path3653"
                     d="m 92.105,60.211 c 0,0 -10.105,2.526 -10.105,3.789 0,1.263 0,-7.579 0,-7.579 0,0 3.79,2.526 10.105,3.79 z"
                     inkscape:connector-curvature="0" /><path
                     id="path3655"
                     d="m 77.952,57.038 c 0.05,0.06 0.097,0.126 0.139,0.199 0.514,0.896 0.309,1.96 0.227,2.938 -0.114,1.362 -0.036,2.726 -0.037,4.09 -0.002,1.421 -0.107,2.839 -0.18,4.258 -0.046,0.898 -0.086,1.798 -0.096,2.697 -0.009,0.81 -0.091,1.653 0.324,2.393 0.403,0.716 1.303,1.058 2.027,1.349 3.809,1.531 9.681,5.337 7.597,10.219 -0.854,2.002 -3.122,2.541 -5.021,1.935 -2.378,-0.758 -3.225,-3.026 -3.995,-5.194 -1.123,-3.151 -4.474,-3.159 -6.947,-4.491 -2.969,-1.599 -5.547,-4.436 -6.119,-7.835 -0.506,-3.005 0.119,-6.322 2.334,-8.512 1.643,-1.624 3.949,-2.232 5.948,-3.275 0.646,-0.338 1.286,-0.688 1.952,-0.988 0.644,-0.293 1.394,-0.32 1.847,0.217 z"
                     inkscape:connector-curvature="0" /><path
                     id="path3659"
                     d="m 63.579,67.263 c 0,0 0,10.105 10.104,12.632 C 78.877,81.194 78.407,88.766 83.789,90 83.78,89.997 58.526,84.945 63.579,67.263 z"
                     inkscape:connector-curvature="0" /><path
                     id="path3661"
                     d="M 91.987,28 C 91.764,13.608 78.24,2 61.581,2 44.922,2 31.399,13.608 31.175,28 h 60.812 z"
                     inkscape:connector-curvature="0" /></g></g></g></g></g></g></g></g></svg>