<?xml version="1.0" encoding="UTF-8" standalone="no"?>
<svg
   xmlns:dc="http://purl.org/dc/elements/1.1/"
   xmlns:cc="http://creativecommons.org/ns#"
   xmlns:rdf="http://www.w3.org/1999/02/22-rdf-syntax-ns#"
   xmlns:svg="http://www.w3.org/2000/svg"
   xmlns="http://www.w3.org/2000/svg"
   xmlns:sodipodi="http://sodipodi.sourceforge.net/DTD/sodipodi-0.dtd"
   xmlns:inkscape="http://www.inkscape.org/namespaces/inkscape"
   version="1.1"
   x="0px"
   y="0px"
   viewBox="0 0 100 100"
   xml:space="preserve"
   id="svg8"
   sodipodi:docname="Church.svg"
   width="100"
   height="100"
   inkscape:version="0.92.5 (2060ec1f9f, 2020-04-08)"><metadata
     id="metadata14"><rdf:RDF><cc:Work
         rdf:about=""><dc:format>image/svg+xml</dc:format><dc:type
           rdf:resource="http://purl.org/dc/dcmitype/StillImage" /><dc:title></dc:title></cc:Work></rdf:RDF></metadata><defs
     id="defs12" /><sodipodi:namedview
     pagecolor="#ffffff"
     bordercolor="#666666"
     borderopacity="1"
     objecttolerance="10"
     gridtolerance="10"
     guidetolerance="10"
     inkscape:pageopacity="0"
     inkscape:pageshadow="2"
     inkscape:window-width="1680"
     inkscape:window-height="884"
     id="namedview10"
     showgrid="false"
     inkscape:zoom="1.475"
     inkscape:cx="357.22885"
     inkscape:cy="144.02759"
     inkscape:window-x="0"
     inkscape:window-y="0"
     inkscape:window-maximized="1"
     inkscape:current-layer="svg8" /><path
     d="M 93.32072,62.61044 C 91.245349,61.315808 89.160102,60.021176 87.084738,58.716659 83.675209,56.591877 80.255799,54.457217 76.84627,52.332437 76.302723,51.996426 75.759175,51.650532 75.215627,51.314521 V 47.89511 c 0,-2.213728 0.06918,-4.42745 0.0099,-6.641173 0,-0.02964 0,-0.0593 0,-0.09883 0,-0.03954 -0.0099,-0.06918 -0.0099,-0.10871 0,0 0,0 0,0 0,-0.355777 -0.148241,-0.701672 -0.424955,-0.938856 -2.67821,-2.342197 -5.346536,-4.684395 -8.024751,-7.01671 -4.259439,-3.72577 -8.518878,-7.451544 -12.778317,-11.177318 -0.336012,-0.296481 -0.672024,-0.583085 -1.008035,-0.879565 v -6.206329 h 3.369997 c 1.551583,0 3.033986,-1.363811 2.964807,-2.964807 -0.06918,-1.610878 -1.304515,-2.9648066 -2.964807,-2.9648066 h -3.37988 V 5.7651926 c 0,-1.5515828 -1.363811,-3.0339862 -2.964806,-2.9648069 -1.610879,0.069183 -2.964808,1.3045145 -2.964808,2.9648069 v 3.1328128 h -3.369997 c -1.551588,0 -3.033992,1.3638116 -2.964812,2.9648066 0.06918,1.610878 1.304514,2.964807 2.964812,2.964807 h 3.369997 v 6.206329 c -0.751084,0.662146 -1.512051,1.314403 -2.263135,1.976543 -2.964813,2.599148 -5.939503,5.198296 -8.914192,7.797442 -2.737505,2.391612 -5.47501,4.783223 -8.212515,7.184717 -0.711554,0.622609 -1.423108,1.245219 -2.134663,1.877711 -0.454604,0.395306 -0.711553,0.889441 -0.711553,1.512051 v 9.951874 c -1.897478,1.185923 -3.804838,2.371845 -5.702314,3.557769 -3.409529,2.124778 -6.82894,4.259435 -10.2384695,6.384213 -0.760966,0.474371 -1.521933,0.948742 -2.292784,1.423113 -0.494135,0.237179 -0.849911,0.721435 -0.849911,1.324275 v 31.71357 c 0,0.800491 0.721437,1.423101 1.521935,1.423101 H 41.110453 V 80.606818 c 0,-2.520081 -0.01975,-5.040174 -0.0099,-7.560255 0,-0.04942 -0.0099,-0.08899 -0.0099,-0.138354 0,-0.276719 0.0099,-0.553438 0.02964,-0.830146 0.0099,-0.158124 0.02964,-0.306374 0.03954,-0.464497 -0.0099,0.02959 -0.0099,0.04942 -0.0099,0.04942 0,-0.01009 0.0099,-0.108711 0.01975,-0.128469 0,0 0,0 0,0 0,0 0,0.02959 -0.0099,0.06915 0,0 0,0.01009 0,0.01009 v -0.01972 c 0.01975,-0.108711 0.03954,-0.217422 0.0593,-0.336017 0.128475,-0.681908 0.326129,-1.324287 0.573195,-1.966655 0,-0.01009 0.0099,-0.01972 0.0099,-0.01972 0,0 0,0.01009 -0.0099,0.01009 -0.01975,0.03956 -0.02964,0.05929 -0.02964,0.05929 0.0099,-0.01973 0.07906,-0.187767 0.03954,-0.07901 0.02964,-0.06915 0.06918,-0.148239 0.09883,-0.217421 0.0593,-0.138354 0.128476,-0.276719 0.197654,-0.405188 0.158124,-0.306363 0.336011,-0.602851 0.523783,-0.899329 0.09883,-0.148239 0.187777,-0.286593 0.296486,-0.424958 0.03954,-0.05929 0.08894,-0.128469 0.138358,-0.187767 -0.0099,0.01973 -0.02964,0.0297 -0.02964,0.03956 0.0099,-0.01009 0.01975,-0.02959 0.02964,-0.03956 0,0 0,-0.01009 0.0099,-0.01009 0.0099,-0.01009 0.0099,-0.01009 0.01975,-0.01973 0.217419,-0.266834 0.444722,-0.523784 0.681906,-0.770848 0.207537,-0.217422 0.424956,-0.424958 0.66214,-0.62261 0.108711,-0.09885 0.227302,-0.187767 0.336011,-0.276719 h 0.0099 v 0 c 0,0 0.286598,-0.217421 0.326129,-0.247065 0.553431,-0.385429 1.136509,-0.701665 1.749236,-0.988269 0,0 0,0 0,0 0.02964,-0.01009 0.09883,-0.03956 0.118592,-0.04942 0.03954,-0.01973 0.07907,-0.02959 0.128475,-0.04942 0.148241,-0.05929 0.286598,-0.10871 0.434839,-0.148238 0.336011,-0.108711 0.681905,-0.197652 1.027799,-0.276719 0.177889,-0.03956 0.345895,-0.06915 0.523783,-0.09885 0.01975,0 0.03954,-0.01009 0.06918,-0.01009 0,0 0.0099,0 0.0099,0 0,0 0,0 0.0099,0 0,0 0.0099,0 0.0099,0 0,0 0.0099,0 0.01975,0 0,0 0.0099,0 0.0099,0 0,0 0,0 0.0099,0 0,0 0,0 0,0 0,0 0,0 0.0099,0 v 0 c 0,0 0.0099,0 0.0099,0 0,0 0.0099,0 0.0099,0 0.01975,0 0.02964,0 0.03954,0 0.36566,-0.03956 0.73132,-0.05929 1.096979,-0.06915 0.36566,0 0.741202,0.01009 1.106862,0.03956 0.04943,0 0.247067,0.02959 0.336011,0.03956 -0.0099,0 -0.01975,0 -0.02964,-0.01009 -0.0099,0 -0.01975,0 -0.01975,0 0.0099,0 0.02964,0 0.0593,0.01009 0.0099,0 0.01975,0 0.01975,0 0,0 -0.0099,0 -0.0099,0 0.04939,0.01009 0.108711,0.01973 0.128476,0.01973 0.108711,0.01973 0.217419,0.03956 0.326129,0.05929 0.326129,0.06915 0.652258,0.148238 0.968504,0.247064 0.14824,0.04942 0.29648,0.08899 0.444721,0.138365 0.07906,0.02959 0.168005,0.05929 0.247067,0.08899 0.01975,0 0.09883,0.03956 0.168006,0.05929 0,0 0,0 0,0 0,0 0.0099,0 0.02964,0.01009 0.0099,0 0.01975,0.01009 0.02964,0.01009 -0.0099,0 -0.02964,-0.01009 -0.04939,-0.01973 0.04939,0.02959 0.266832,0.118596 0.316246,0.138354 0.158123,0.07912 0.316246,0.148239 0.464486,0.237191 0.306363,0.158112 0.602844,0.336006 0.889443,0.533657 0.14824,0.09885 0.286598,0.187778 0.424955,0.286604 0.01975,0.01009 0.0593,0.05929 0.07907,0.05929 v 0 c 0,0 0,0.01009 0,0.01009 0,0 0,0 0,0.01009 0,0 0,0 0.0099,0.01009 0,0 0.0099,0.01009 0.0099,0.01009 0,0 0,0 0,0 0.01975,0.01009 0.02964,0.02959 0.04944,0.03956 0.266833,0.217421 0.523782,0.444716 0.77085,0.691792 0.227302,0.227295 0.444721,0.464486 0.66214,0.71155 0.02964,0.03956 0.227302,0.286593 0.227302,0.286593 0.08894,0.118596 0.168006,0.227306 0.247067,0.345902 0.375543,0.543542 0.691789,1.126623 0.958621,1.729463 0,0.01009 0.08894,0.227306 0.10871,0.286604 0.0593,0.168009 0.118594,0.336006 0.168006,0.494129 0.108711,0.336017 0.197654,0.681908 0.266834,1.027809 0.02964,0.148239 0.0593,0.306363 0.08894,0.464486 0.0099,0.02959 0.0099,0.04942 0.0099,0.06915 0,0 0,0 0,0 0.0099,0.06915 0.01975,0.138354 0.01975,0.207537 0.03954,0.36566 0.04938,0.73132 0.04938,1.09698 0,0.08899 0.0099,0.187767 0.02964,0.276708 v 23.945766 h 7.906157 c 1.917242,0 3.844365,0.08899 5.751726,0.02959 0.02964,0 0.04944,-0.01009 0.07906,-0.01009 0.0593,0 0.108711,-0.01972 0.168006,-0.01972 H 92.75753 c 0.800499,0 1.521935,-0.622609 1.521935,-1.423101 v -31.7235 c 0,-0.592955 -0.40519,-1.176037 -0.958621,-1.393458 z M 56.715226,43.39848 c -0.08894,3.06364 -2.282901,5.899972 -5.356418,6.463286 -2.796801,0.5139 -5.652898,-0.681907 -7.125419,-3.142696 -1.472527,-2.470678 -1.126627,-5.593608 0.681905,-7.787565 1.719588,-2.085248 4.81287,-2.915394 7.342839,-1.956773 2.628795,0.98827 4.387914,3.419411 4.466976,6.235978 0,0.02964 0,0.0593 0,0.08894 -0.0099,0.02964 -0.0099,0.0593 -0.0099,0.09883 z"
     id="path2"
     inkscape:connector-curvature="0"
     style="stroke-width:0.09882692" /></svg>