<?xml version="1.0" encoding="UTF-8" standalone="no"?>
<svg
   xmlns:dc="http://purl.org/dc/elements/1.1/"
   xmlns:cc="http://creativecommons.org/ns#"
   xmlns:rdf="http://www.w3.org/1999/02/22-rdf-syntax-ns#"
   xmlns:svg="http://www.w3.org/2000/svg"
   xmlns="http://www.w3.org/2000/svg"
   xmlns:sodipodi="http://sodipodi.sourceforge.net/DTD/sodipodi-0.dtd"
   xmlns:inkscape="http://www.inkscape.org/namespaces/inkscape"
   version="1.1"
   x="0px"
   y="0px"
   viewBox="0 0 19.08538 20.536777"
   enable-background="new 0 0 100 100"
   xml:space="preserve"
   id="svg2"
   inkscape:version="0.92.5 (2060ec1f9f, 2020-04-08)"
   width="100%"
   height="100%"
   sodipodi:docname="Cinema.svg"><metadata
     id="metadata30"><rdf:RDF><cc:Work
         rdf:about=""><dc:format>image/svg+xml</dc:format><dc:type
           rdf:resource="http://purl.org/dc/dcmitype/StillImage" /><dc:title></dc:title></cc:Work></rdf:RDF></metadata><defs
     id="defs28" /><sodipodi:namedview
     pagecolor="#ffffff"
     bordercolor="#666666"
     borderopacity="1"
     objecttolerance="10"
     gridtolerance="10"
     guidetolerance="10"
     inkscape:pageopacity="0"
     inkscape:pageshadow="2"
     inkscape:window-width="1322"
     inkscape:window-height="812"
     id="namedview26"
     showgrid="false"
     fit-margin-top="0"
     fit-margin-left="0"
     fit-margin-right="0"
     fit-margin-bottom="0"
     inkscape:zoom="14.481547"
     inkscape:cx="3.7547848"
     inkscape:cy="6.8061459"
     inkscape:window-x="118"
     inkscape:window-y="12"
     inkscape:window-maximized="0"
     inkscape:current-layer="g8890" /><g
     id="g3217"
     transform="translate(-1254.5606,7563.4097)"><g
       id="g3355"
       transform="translate(0.52596752,-1.51338)"><g
         id="g3394"
         transform="translate(-1.304037,6.1068216)"><g
           id="g3432"
           transform="translate(1.3243604,-7.0685396)"><g
             id="g3490"
             transform="translate(14.50543,16.201175)"><g
               id="g3544"
               transform="translate(1.7832223,7.9070624)"><g
                 id="g3595"
                 transform="translate(9.5264836,-0.46901412)"><g
                   id="g3646"
                   transform="translate(-52.35165,-3.5880634)"><g
                     id="g3767"
                     transform="translate(6.0048559,8.7552768)"><g
                       id="g4075"
                       transform="translate(0.55239017,0.07303033)"><g
                         id="g4264"
                         transform="translate(3.0880737,-2.6377741)"><g
                           id="g4355"
                           transform="translate(8.4601992,5.328404)"><g
                             id="g4421"
                             transform="translate(-6.5255081,7.0858766)"><g
                               id="g4462"
                               transform="translate(25.518018,13.531166)"><g
                                 id="g4500"
                                 transform="translate(80.26127,-61.023322)"><g
                                   id="g5344"
                                   transform="translate(-17.614831,53.929153)"><g
                                   id="g5294"
                                   display="none"
                                   style="display:none"><rect
                                   id="rect5296"
                                   height="196"
                                   width="394.5"
                                   display="inline"
                                   y="-80.754997"
                                   x="-43.5"
                                   style="fill:#000000;display:inline" /></g><g
                                   id="g5316"
                                   display="none"
                                   style="display:none"><g
                                   id="g5318"
                                   display="inline"
                                   style="display:inline"><path
                                   id="path5320"
                                   d="M 1.581,10.718 H 30.418 L 16,1.051 1.581,10.718 z M 17.592,6.594 c 0,0.879 -0.713,1.592 -1.592,1.592 -0.879,0 -1.592,-0.713 -1.592,-1.592 0,-0.879 0.713,-1.592 1.592,-1.592 0.879,0 1.592,0.712 1.592,1.592 z"
                                   inkscape:connector-curvature="0" /><rect
                                   id="rect5322"
                                   height="3.0209999"
                                   width="31"
                                   y="28.030001"
                                   x="0.5" /><rect
                                   id="rect5324"
                                   height="11.875"
                                   width="3.0209999"
                                   y="13.363"
                                   x="3.6670001" /><rect
                                   id="rect5326"
                                   height="11.875"
                                   width="3.0209999"
                                   y="13.363"
                                   x="8.349" /><rect
                                   id="rect5328"
                                   height="11.875"
                                   width="3.0209999"
                                   y="13.363"
                                   x="20.629999" /><rect
                                   id="rect5330"
                                   height="11.875"
                                   width="3.0209999"
                                   y="13.363"
                                   x="25.312" /></g><path
                                   id="path5332"
                                   d="m 19.055,22.809 c -0.386,0.262 -1.035,0.524 -1.857,0.524 -1.01,0 -1.907,-0.386 -2.53,-1.11 -0.474,-0.524 -0.785,-1.246 -0.897,-2.144 h -0.773 v -0.611 h 0.711 c 0,-0.062 0,-0.125 0,-0.187 0,-0.2 0.012,-0.387 0.025,-0.561 h -0.735 v -0.624 h 0.823 c 0.15,-0.872 0.524,-1.595 1.022,-2.106 0.636,-0.66 1.446,-1.035 2.468,-1.035 0.735,0 1.309,0.212 1.658,0.399 l -0.249,0.822 c -0.312,-0.187 -0.835,-0.349 -1.396,-0.349 -0.673,0 -1.221,0.237 -1.645,0.685 -0.374,0.361 -0.623,0.922 -0.748,1.583 h 3.478 v 0.624 h -3.59 c -0.013,0.162 -0.025,0.349 -0.025,0.523 0,0.075 0,0.137 0,0.225 h 3.615 v 0.611 h -3.53 c 0.1,0.723 0.349,1.259 0.685,1.633 0.461,0.486 1.085,0.723 1.757,0.723 0.661,0 1.234,-0.249 1.521,-0.411 l 0.212,0.786 z"
                                   display="inline"
                                   inkscape:connector-curvature="0"
                                   style="display:inline" /></g><g
                                   id="g5453"
                                   transform="translate(-52.625356,-10.750909)"><g
                                   id="g5403"
                                   display="none"
                                   style="display:none"><rect
                                   id="rect5405"
                                   height="196"
                                   width="394.5"
                                   display="inline"
                                   y="-80.754997"
                                   x="-43.5"
                                   style="fill:#000000;display:inline" /></g><g
                                   id="g5425"
                                   display="none"
                                   style="display:none"><g
                                   id="g5427"
                                   display="inline"
                                   style="display:inline"><path
                                   id="path5429"
                                   d="M 1.581,10.718 H 30.418 L 16,1.051 1.581,10.718 z M 17.592,6.594 c 0,0.879 -0.713,1.592 -1.592,1.592 -0.879,0 -1.592,-0.713 -1.592,-1.592 0,-0.879 0.713,-1.592 1.592,-1.592 0.879,0 1.592,0.712 1.592,1.592 z"
                                   inkscape:connector-curvature="0" /><rect
                                   id="rect5431"
                                   height="3.0209999"
                                   width="31"
                                   y="28.030001"
                                   x="0.5" /><rect
                                   id="rect5433"
                                   height="11.875"
                                   width="3.0209999"
                                   y="13.363"
                                   x="3.6670001" /><rect
                                   id="rect5435"
                                   height="11.875"
                                   width="3.0209999"
                                   y="13.363"
                                   x="8.349" /><rect
                                   id="rect5437"
                                   height="11.875"
                                   width="3.0209999"
                                   y="13.363"
                                   x="20.629999" /><rect
                                   id="rect5439"
                                   height="11.875"
                                   width="3.0209999"
                                   y="13.363"
                                   x="25.312" /></g><path
                                   id="path5441"
                                   d="m 19.055,22.809 c -0.386,0.262 -1.035,0.524 -1.857,0.524 -1.01,0 -1.907,-0.386 -2.53,-1.11 -0.474,-0.524 -0.785,-1.246 -0.897,-2.144 h -0.773 v -0.611 h 0.711 c 0,-0.062 0,-0.125 0,-0.187 0,-0.2 0.012,-0.387 0.025,-0.561 h -0.735 v -0.624 h 0.823 c 0.15,-0.872 0.524,-1.595 1.022,-2.106 0.636,-0.66 1.446,-1.035 2.468,-1.035 0.735,0 1.309,0.212 1.658,0.399 l -0.249,0.822 c -0.312,-0.187 -0.835,-0.349 -1.396,-0.349 -0.673,0 -1.221,0.237 -1.645,0.685 -0.374,0.361 -0.623,0.922 -0.748,1.583 h 3.478 v 0.624 h -3.59 c -0.013,0.162 -0.025,0.349 -0.025,0.523 0,0.075 0,0.137 0,0.225 h 3.615 v 0.611 h -3.53 c 0.1,0.723 0.349,1.259 0.685,1.633 0.461,0.486 1.085,0.723 1.757,0.723 0.661,0 1.234,-0.249 1.521,-0.411 l 0.212,0.786 z"
                                   display="inline"
                                   inkscape:connector-curvature="0"
                                   style="display:inline" /></g><g
                                   id="g5911"
                                   transform="translate(34.803917,-34.731522)"><g
                                   id="g5969"
                                   transform="translate(-76.820846,20.463898)"><g
                                   id="g6024"
                                   transform="translate(-1.5269147,1.6004891)"><g
                                   id="g6071"
                                   transform="translate(7.3886843,1.0351706)"><g
                                   id="g6187"
                                   transform="translate(-0.71000052,-4.6322855)"><g
                                   id="g6263"
                                   transform="translate(-0.66737304,-5.3488176)"><g
                                   id="g6319"
                                   transform="translate(0.79720466,3.5647493)"><g
                                   id="g6384"
                                   transform="translate(-9.1472004,2.261335)"><g
                                   id="g6488"
                                   transform="translate(-2.0348122,-3.4042665)"><g
                                   id="g6516"
                                   transform="translate(-0.63832329,-2.3294036)"><g
                                   id="g6769"
                                   transform="translate(1565.7794,-3801.8487)"><g
                                   id="g6910"
                                   transform="translate(-308.09512,-3790.9493)"><g
                                   id="g6983"
                                   transform="translate(-14.231122,-15.611848)"><g
                                   id="g7151"
                                   transform="translate(33.267081,-22.491026)"><g
                                   id="g7382"
                                   transform="translate(-23.229266,23.886871)"><g
                                   id="g7549"
                                   transform="translate(14.444681,15.529545)"><g
                                   id="g7800"
                                   transform="translate(-10.517025,-15.548079)"><g
                                   id="g7999"
                                   transform="matrix(0.53445343,0,0,0.59502607,5.6563057,11.962949)"><g
                                   id="g8217"
                                   transform="matrix(0.65157633,0,0,0.66199506,14.891666,27.68312)"><g
                                   id="g8341"
                                   transform="matrix(0.81955739,0,0,0.8373697,16.904811,-6.2861215)"><g
                                   id="g8463"
                                   transform="matrix(1.0901467,0,0,0.7755316,14.691042,9.5565496)"><g
                                   id="g8628"
                                   transform="matrix(3.2141084,0,0,3.9092417,-42.983003,-211.13796)"><g
                                   id="g8709"
                                   transform="matrix(0.28046364,0,0,0.26137124,8.2602788,58.166419)"><g
                                   id="g8773"
                                   transform="matrix(0.86370418,0,0,0.92454556,9.6420157,2.5614409)"><g
                                   id="g8835"
                                   transform="matrix(0.97814233,0,0,1.0462785,0.68229169,-16.527925)"><g
                                   id="g8890"
                                   transform="matrix(1.9709364,0,0,1.9312021,6.9683949,1.4399748)"><path
                                   id="path3716"
                                   d="m 37.33185,36.859767 c -0.138234,-0.107595 -0.319377,-0.151308 -0.492172,-0.118803 l -6.224307,1.111802 v -1.999453 c 0,-0.309329 -0.266944,-0.560381 -0.595854,-0.560381 H 22.810859 V 32.619899 C 28.980348,32.068483 34.055842,27.467726 34.644547,21.45368 35.308328,14.657338 29.989723,8.6388095 22.759616,8.0134212 15.528316,7.389153 9.132406,12.391144 8.466239,19.189727 c -0.6280313,6.441058 4.118553,12.17379 10.769489,13.290077 v 2.812009 h -4.690573 c -0.328912,0 -0.595856,0.251047 -0.595856,0.560381 v 9.916561 c 0,0.309333 0.266944,0.560385 0.595856,0.560385 h 15.473173 c 0.32891,0 0.595854,-0.251052 0.595854,-0.560385 v -2.001692 l 6.224302,1.114045 c 0.03693,0.0067 0.07388,0.01007 0.112022,0.01007 0.137045,0 0.2729,-0.04483 0.378965,-0.128887 0.137045,-0.106476 0.21689,-0.263383 0.21689,-0.431499 v -7.039549 c 0.0013,-0.168116 -0.07865,-0.325019 -0.214511,-0.431494 z m -3.901659,-15.927245 -0.07627,0.799108 c -0.172799,1.738313 -1.766116,2.75373 -3.547722,2.254986 L 28.31656,23.570811 c -1.77565,-0.500983 -3.14254,-1.834697 -3.030519,-2.970036 0.109637,-1.131977 1.713678,-2.20007 3.558449,-2.370426 l 1.536113,-0.142338 c 1.843577,-0.17596 3.218812,1.106199 3.049586,2.844511 z M 23.547337,13.293362 24.392259,12.065 c 1.015338,-1.458121 2.928033,-1.653134 4.254407,-0.433738 l 0.610154,0.562627 c 1.321611,1.223879 1.154769,3.031679 -0.370622,4.025801 l -1.267978,0.824885 c -1.52658,0.99188 -3.484562,1.148788 -4.34736,0.354163 -0.866374,-0.797987 -0.743627,-2.646134 0.276477,-4.105376 z M 22.66428,23.537189 c 1.00342,-0.638839 2.895856,-0.151304 4.210313,1.0793 l 1.091608,1.028865 c 1.313263,1.235089 1.126164,3.047372 -0.407566,4.02356 l -0.706686,0.446068 c -1.538496,0.980671 -3.37969,0.468479 -4.100675,-1.143184 L 22.145885,27.62351 c -0.715026,-1.610544 -0.483834,-3.448604 0.518395,-4.086321 z m -7.02871,-12.779006 0.742437,-0.392269 c 1.619533,-0.8540255 3.4214,-0.201738 4.007722,1.45812 l 0.488601,1.377425 c 0.586321,1.655376 0.200207,3.463176 -0.854456,4.02356 -1.057048,0.558143 -2.91135,-0.06949 -4.11736,-1.391994 L 14.889559,14.721221 C 13.682356,13.393112 14.01961,11.61445 15.63557,10.758183 Z m -5.951403,8.926924 0.07865,-0.80135 c 0.168031,-1.736071 1.766116,-2.762695 3.550107,-2.271799 l 1.482487,0.402357 c 1.7828,0.484172 3.152075,1.8078 3.042437,2.942018 -0.11202,1.134218 -1.708912,2.213517 -3.556064,2.399565 l -1.550415,0.153546 c -1.843577,0.182685 -3.21762,-1.088266 -3.047204,-2.824337 z m 4.620262,9.449203 -0.628031,-0.540213 c -1.37285,-1.171202 -1.279897,-2.981244 0.216892,-4.019076 l 1.254871,-0.862992 c 1.492021,-1.040073 3.445235,-1.258624 4.344976,-0.494259 0.8914,0.766606 0.835389,2.611393 -0.129896,4.099772 l -0.805596,1.238451 c -0.966478,1.493983 -2.880365,1.74952 -4.253216,0.578317 z"
                                   inkscape:connector-curvature="0"
                                   style="stroke-width:0.52010423" /></g></g></g></g></g></g></g></g></g></g></g></g></g></g></g></g></g></g></g></g></g></g></g></g></g></g></g></g></g></g></g></g></g></g></g></g></g></g></g></g></g></g></g></svg>