<?xml version="1.0" encoding="UTF-8" standalone="no"?>
<svg
   xmlns:dc="http://purl.org/dc/elements/1.1/"
   xmlns:cc="http://creativecommons.org/ns#"
   xmlns:rdf="http://www.w3.org/1999/02/22-rdf-syntax-ns#"
   xmlns:svg="http://www.w3.org/2000/svg"
   xmlns="http://www.w3.org/2000/svg"
   xmlns:sodipodi="http://sodipodi.sourceforge.net/DTD/sodipodi-0.dtd"
   xmlns:inkscape="http://www.inkscape.org/namespaces/inkscape"
   data-name="Layer 1"
   viewBox="0 0 100 100"
   x="0px"
   y="0px"
   version="1.1"
   id="svg20"
   sodipodi:docname="Cinema.svg"
   width="100"
   height="100"
   inkscape:version="0.92.5 (2060ec1f9f, 2020-04-08)">
  <metadata
     id="metadata26">
    <rdf:RDF>
      <cc:Work
         rdf:about="">
        <dc:format>image/svg+xml</dc:format>
        <dc:type
           rdf:resource="http://purl.org/dc/dcmitype/StillImage" />
        <dc:title>69 all</dc:title>
      </cc:Work>
    </rdf:RDF>
  </metadata>
  <defs
     id="defs24" />
  <sodipodi:namedview
     pagecolor="#ffffff"
     bordercolor="#666666"
     borderopacity="1"
     objecttolerance="10"
     gridtolerance="10"
     guidetolerance="10"
     inkscape:pageopacity="0"
     inkscape:pageshadow="2"
     inkscape:window-width="1680"
     inkscape:window-height="884"
     id="namedview22"
     showgrid="false"
     inkscape:zoom="1.888"
     inkscape:cx="-18.591102"
     inkscape:cy="62.5"
     inkscape:window-x="0"
     inkscape:window-y="0"
     inkscape:window-maximized="1"
     inkscape:current-layer="svg20" />
  <title
     id="title2">69 all</title>
  <g
     id="g34"
     transform="matrix(1.0808511,0,0,1.0808511,-4.0159539,22.935488)">
    <path
       inkscape:connector-curvature="0"
       id="path4"
       d="m 36.47,58.61 h 18.6 a 25.07,25.07 0 0 0 25,-25 v -30 a 8.15,8.15 0 0 1 8.14,-8.14 h 4.51 a 2,2 0 0 0 0,-4 H 88.25 A 12.15,12.15 0 0 0 76.11,3.53 v 30 a 21.07,21.07 0 0 1 -21,21 h -3.37 a 31.22,31.22 0 1 0 -15.27,4 z m 0,-58.47 A 27.24,27.24 0 1 1 9.24,27.37 27.27,27.27 0 0 1 36.47,0.14 Z" />
    <circle
       id="circle6"
       r="7.9200001"
       cy="11.75"
       cx="36.470001" />
    <circle
       id="circle8"
       r="7.9200001"
       cy="43"
       cx="36.470001" />
    <circle
       id="circle10"
       r="3.95"
       cy="27.369999"
       cx="36.470001" />
    <circle
       id="circle12"
       r="7.9200001"
       cy="27.369999"
       cx="52.099998" />
    <circle
       id="circle14"
       r="7.9200001"
       cy="27.369999"
       cx="20.85" />
  </g>
</svg>
