<?xml version="1.0" encoding="UTF-8" standalone="no"?>
<svg
   xmlns:dc="http://purl.org/dc/elements/1.1/"
   xmlns:cc="http://creativecommons.org/ns#"
   xmlns:rdf="http://www.w3.org/1999/02/22-rdf-syntax-ns#"
   xmlns:svg="http://www.w3.org/2000/svg"
   xmlns="http://www.w3.org/2000/svg"
   xmlns:sodipodi="http://sodipodi.sourceforge.net/DTD/sodipodi-0.dtd"
   xmlns:inkscape="http://www.inkscape.org/namespaces/inkscape"
   version="1.1"
   x="0px"
   y="0px"
   viewBox="-120 78.1 54.785472 75.431911"
   xml:space="preserve"
   id="svg2"
   inkscape:version="0.48.4 r9939"
   width="100%"
   height="100%"
   sodipodi:docname="Children Playground.svg"><metadata
     id="metadata18"><rdf:RDF><cc:Work
         rdf:about=""><dc:format>image/svg+xml</dc:format><dc:type
           rdf:resource="http://purl.org/dc/dcmitype/StillImage" /><dc:title></dc:title></cc:Work></rdf:RDF></metadata><defs
     id="defs16" /><sodipodi:namedview
     pagecolor="#ffffff"
     bordercolor="#666666"
     borderopacity="1"
     objecttolerance="10"
     gridtolerance="10"
     guidetolerance="10"
     inkscape:pageopacity="0"
     inkscape:pageshadow="2"
     inkscape:window-width="725"
     inkscape:window-height="735"
     id="namedview14"
     showgrid="false"
     fit-margin-top="0"
     fit-margin-left="0"
     fit-margin-right="0"
     fit-margin-bottom="0"
     inkscape:zoom="2.6700352"
     inkscape:cx="17.666094"
     inkscape:cy="20.750707"
     inkscape:window-x="114"
     inkscape:window-y="170"
     inkscape:window-maximized="0"
     inkscape:current-layer="g3728" /><g
     id="g3032"
     transform="translate(-144.67112,97.181997)"><g
       id="g3082"
       transform="translate(-11.778449,-19.681681)"><g
         id="g3297"
         transform="translate(113.35527,48.840676)"><g
           id="g3451"
           transform="translate(-110.35024,-41.106017)"><g
             id="g3508"
             transform="translate(37.661621,37.801481)"><g
               id="g3556"
               transform="translate(-33.173714,-53.557494)"><g
                 id="g3600"
                 transform="translate(1.6437441,2.3337983)"><g
                   id="g3673"
                   transform="translate(3.1326802,-1.9259882)"><g
                     id="g3728"
                     transform="translate(16.15499,5.0801784)"><path
                       id="path3716"
                       d="m 62.407316,59.94823 c -0.259935,-0.211529 -0.600541,-0.297463 -0.92546,-0.233563 l -11.70383,2.185796 v -3.930908 c 0,-0.608145 -0.501945,-1.101712 -1.120413,-1.101712 H 35.102862 V 51.612677 C 46.703614,50.528592 56.247288,41.483537 57.354256,29.659964 58.602395,16.298401 48.601593,4.4660144 35.006507,3.2365039 21.40918,2.0091967 9.3826712,11.843078 8.13005,25.209048 6.9491351,37.872125 15.874342,49.142639 28.380387,51.337249 v 5.528391 h -8.819888 c -0.618468,0 -1.120413,0.493567 -1.120413,1.101712 v 19.495895 c 0,0.608145 0.501945,1.101712 1.120413,1.101712 h 29.094874 c 0.618467,0 1.120412,-0.493567 1.120412,-1.101712 v -3.935315 l 11.70383,2.190203 c 0.06946,0.01322 0.138931,0.01983 0.210637,0.01983 0.257695,0 0.513149,-0.08814 0.712583,-0.253394 0.257695,-0.209325 0.40783,-0.517805 0.40783,-0.848318 V 60.796548 c 0.0022,-0.330514 -0.147894,-0.638993 -0.403349,-0.848318 z m -7.336461,-31.312858 -0.143413,1.571041 c -0.324919,3.417511 -3.320903,5.413813 -6.670936,4.433289 l -2.801032,-0.81747 c -3.338829,-0.984931 -5.909056,-3.607005 -5.698418,-5.839074 0.206156,-2.225458 3.222307,-4.325321 6.691104,-4.660241 l 2.888423,-0.279835 c 3.466557,-0.345938 6.052469,2.174779 5.734272,5.59229 z M 36.487692,13.616834 38.076437,11.201881 c 1.909183,-2.8666541 5.505707,-3.2500499 7.999746,-0.852725 l 1.147302,1.106119 c 2.485075,2.406139 2.17136,5.960262 -0.696896,7.914699 l -2.384238,1.62172 c -2.870497,1.95003 -6.552173,2.25851 -8.17453,0.696282 -1.62908,-1.568838 -1.398275,-5.202284 0.519871,-8.071142 z m -1.660451,20.139295 c 1.886774,-1.255952 5.445205,-0.297462 7.916835,2.121897 l 2.052596,2.022744 c 2.469389,2.428173 2.117579,5.991109 -0.766362,7.910292 l -1.32881,0.876962 c -2.892905,1.927996 -6.35498,0.921032 -7.710679,-2.247492 l -1.138339,-2.650719 c -1.344495,-3.16632 -0.909775,-6.779936 0.974759,-8.033684 z M 21.610854,8.6326891 23.006888,7.8614907 c 3.045281,-1.679009 6.433409,-0.3966163 7.535895,2.8666543 l 0.918738,2.708008 c 1.102486,3.254458 0.376459,6.80858 -1.606671,7.910292 -1.987612,1.097305 -5.474336,-0.136612 -7.742051,-2.736652 L 20.208097,16.423996 C 17.938142,13.812939 18.572295,10.316105 21.610854,8.6326891 z M 10.420173,26.182961 10.568068,24.607513 c 0.315956,-3.413104 3.320903,-5.43144 6.675418,-4.466341 l 2.787586,0.79103 c 3.352275,0.951879 5.926983,3.554123 5.720827,5.783988 -0.210638,2.229865 -3.213343,4.351762 -6.686622,4.71753 l -2.915314,0.301869 c -3.466556,0.359158 -6.050228,-2.139524 -5.72979,-5.552628 z m 8.687679,18.577067 -1.180915,-1.06205 C 15.345507,41.3954 15.520291,37.83687 18.334768,35.7965 l 2.359589,-1.696637 c 2.805513,-2.044777 6.478225,-2.474445 8.170048,-0.97171 1.676137,1.507142 1.570818,5.133978 -0.24425,8.060125 l -1.514798,2.434784 c -1.817309,2.937164 -5.416074,3.439544 -7.997505,1.136966 z"
                       inkscape:connector-curvature="0" /></g></g></g></g></g></g></g></g></g></svg>