<?xml version="1.0" encoding="UTF-8" standalone="no"?>
<svg
   xmlns:dc="http://purl.org/dc/elements/1.1/"
   xmlns:cc="http://creativecommons.org/ns#"
   xmlns:rdf="http://www.w3.org/1999/02/22-rdf-syntax-ns#"
   xmlns:svg="http://www.w3.org/2000/svg"
   xmlns="http://www.w3.org/2000/svg"
   xmlns:sodipodi="http://sodipodi.sourceforge.net/DTD/sodipodi-0.dtd"
   xmlns:inkscape="http://www.inkscape.org/namespaces/inkscape"
   version="1.1"
   x="0px"
   y="0px"
   viewBox="0 0 41.467475 39.510683"
   enable-background="new 0 0 100 100"
   xml:space="preserve"
   id="svg2"
   inkscape:version="0.48.4 r9939"
   width="100%"
   height="100%"
   sodipodi:docname="Drinking water.svg"><metadata
     id="metadata30"><rdf:RDF><cc:Work
         rdf:about=""><dc:format>image/svg+xml</dc:format><dc:type
           rdf:resource="http://purl.org/dc/dcmitype/StillImage" /><dc:title></dc:title></cc:Work></rdf:RDF></metadata><defs
     id="defs28" /><sodipodi:namedview
     pagecolor="#ffffff"
     bordercolor="#666666"
     borderopacity="1"
     objecttolerance="10"
     gridtolerance="10"
     guidetolerance="10"
     inkscape:pageopacity="0"
     inkscape:pageshadow="2"
     inkscape:window-width="1322"
     inkscape:window-height="812"
     id="namedview26"
     showgrid="false"
     fit-margin-top="0"
     fit-margin-left="0"
     fit-margin-right="0"
     fit-margin-bottom="0"
     inkscape:zoom="7.2407734"
     inkscape:cx="1.2684674"
     inkscape:cy="15.243761"
     inkscape:window-x="571"
     inkscape:window-y="110"
     inkscape:window-maximized="0"
     inkscape:current-layer="g7999" /><g
     id="g3217"
     transform="translate(-1241.5161,7573.8367)"><g
       id="g3355"
       transform="translate(0.52596752,-1.51338)"><g
         id="g3394"
         transform="translate(-1.304037,6.1068216)"><g
           id="g3432"
           transform="translate(1.3243604,-7.0685396)"><g
             id="g3490"
             transform="translate(14.50543,16.201175)"><g
               id="g3544"
               transform="translate(1.7832223,7.9070624)"><g
                 id="g3595"
                 transform="translate(9.5264836,-0.46901412)"><g
                   id="g3646"
                   transform="translate(-52.35165,-3.5880634)"><g
                     id="g3767"
                     transform="translate(6.0048559,8.7552768)"><g
                       id="g4075"
                       transform="translate(0.55239017,0.07303033)"><g
                         id="g4264"
                         transform="translate(3.0880737,-2.6377741)"><g
                           id="g4355"
                           transform="translate(8.4601992,5.328404)"><g
                             id="g4421"
                             transform="translate(-6.5255081,7.0858766)"><g
                               id="g4462"
                               transform="translate(25.518018,13.531166)"><g
                                 id="g4500"
                                 transform="translate(80.26127,-61.023322)"><g
                                   id="g5344"
                                   transform="translate(-17.614831,53.929153)"><g
                                   id="g5294"
                                   display="none"
                                   style="display:none"><rect
                                   id="rect5296"
                                   height="196"
                                   width="394.5"
                                   display="inline"
                                   y="-80.754997"
                                   x="-43.5"
                                   style="fill:#000000;display:inline" /></g><g
                                   id="g5316"
                                   display="none"
                                   style="display:none"><g
                                   id="g5318"
                                   display="inline"
                                   style="display:inline"><path
                                   id="path5320"
                                   d="M 1.581,10.718 H 30.418 L 16,1.051 1.581,10.718 z M 17.592,6.594 c 0,0.879 -0.713,1.592 -1.592,1.592 -0.879,0 -1.592,-0.713 -1.592,-1.592 0,-0.879 0.713,-1.592 1.592,-1.592 0.879,0 1.592,0.712 1.592,1.592 z"
                                   inkscape:connector-curvature="0" /><rect
                                   id="rect5322"
                                   height="3.0209999"
                                   width="31"
                                   y="28.030001"
                                   x="0.5" /><rect
                                   id="rect5324"
                                   height="11.875"
                                   width="3.0209999"
                                   y="13.363"
                                   x="3.6670001" /><rect
                                   id="rect5326"
                                   height="11.875"
                                   width="3.0209999"
                                   y="13.363"
                                   x="8.349" /><rect
                                   id="rect5328"
                                   height="11.875"
                                   width="3.0209999"
                                   y="13.363"
                                   x="20.629999" /><rect
                                   id="rect5330"
                                   height="11.875"
                                   width="3.0209999"
                                   y="13.363"
                                   x="25.312" /></g><path
                                   id="path5332"
                                   d="m 19.055,22.809 c -0.386,0.262 -1.035,0.524 -1.857,0.524 -1.01,0 -1.907,-0.386 -2.53,-1.11 -0.474,-0.524 -0.785,-1.246 -0.897,-2.144 h -0.773 v -0.611 h 0.711 c 0,-0.062 0,-0.125 0,-0.187 0,-0.2 0.012,-0.387 0.025,-0.561 h -0.735 v -0.624 h 0.823 c 0.15,-0.872 0.524,-1.595 1.022,-2.106 0.636,-0.66 1.446,-1.035 2.468,-1.035 0.735,0 1.309,0.212 1.658,0.399 l -0.249,0.822 c -0.312,-0.187 -0.835,-0.349 -1.396,-0.349 -0.673,0 -1.221,0.237 -1.645,0.685 -0.374,0.361 -0.623,0.922 -0.748,1.583 h 3.478 v 0.624 h -3.59 c -0.013,0.162 -0.025,0.349 -0.025,0.523 0,0.075 0,0.137 0,0.225 h 3.615 v 0.611 h -3.53 c 0.1,0.723 0.349,1.259 0.685,1.633 0.461,0.486 1.085,0.723 1.757,0.723 0.661,0 1.234,-0.249 1.521,-0.411 l 0.212,0.786 z"
                                   display="inline"
                                   inkscape:connector-curvature="0"
                                   style="display:inline" /></g><g
                                   id="g5453"
                                   transform="translate(-52.625356,-10.750909)"><g
                                   id="g5403"
                                   display="none"
                                   style="display:none"><rect
                                   id="rect5405"
                                   height="196"
                                   width="394.5"
                                   display="inline"
                                   y="-80.754997"
                                   x="-43.5"
                                   style="fill:#000000;display:inline" /></g><g
                                   id="g5425"
                                   display="none"
                                   style="display:none"><g
                                   id="g5427"
                                   display="inline"
                                   style="display:inline"><path
                                   id="path5429"
                                   d="M 1.581,10.718 H 30.418 L 16,1.051 1.581,10.718 z M 17.592,6.594 c 0,0.879 -0.713,1.592 -1.592,1.592 -0.879,0 -1.592,-0.713 -1.592,-1.592 0,-0.879 0.713,-1.592 1.592,-1.592 0.879,0 1.592,0.712 1.592,1.592 z"
                                   inkscape:connector-curvature="0" /><rect
                                   id="rect5431"
                                   height="3.0209999"
                                   width="31"
                                   y="28.030001"
                                   x="0.5" /><rect
                                   id="rect5433"
                                   height="11.875"
                                   width="3.0209999"
                                   y="13.363"
                                   x="3.6670001" /><rect
                                   id="rect5435"
                                   height="11.875"
                                   width="3.0209999"
                                   y="13.363"
                                   x="8.349" /><rect
                                   id="rect5437"
                                   height="11.875"
                                   width="3.0209999"
                                   y="13.363"
                                   x="20.629999" /><rect
                                   id="rect5439"
                                   height="11.875"
                                   width="3.0209999"
                                   y="13.363"
                                   x="25.312" /></g><path
                                   id="path5441"
                                   d="m 19.055,22.809 c -0.386,0.262 -1.035,0.524 -1.857,0.524 -1.01,0 -1.907,-0.386 -2.53,-1.11 -0.474,-0.524 -0.785,-1.246 -0.897,-2.144 h -0.773 v -0.611 h 0.711 c 0,-0.062 0,-0.125 0,-0.187 0,-0.2 0.012,-0.387 0.025,-0.561 h -0.735 v -0.624 h 0.823 c 0.15,-0.872 0.524,-1.595 1.022,-2.106 0.636,-0.66 1.446,-1.035 2.468,-1.035 0.735,0 1.309,0.212 1.658,0.399 l -0.249,0.822 c -0.312,-0.187 -0.835,-0.349 -1.396,-0.349 -0.673,0 -1.221,0.237 -1.645,0.685 -0.374,0.361 -0.623,0.922 -0.748,1.583 h 3.478 v 0.624 h -3.59 c -0.013,0.162 -0.025,0.349 -0.025,0.523 0,0.075 0,0.137 0,0.225 h 3.615 v 0.611 h -3.53 c 0.1,0.723 0.349,1.259 0.685,1.633 0.461,0.486 1.085,0.723 1.757,0.723 0.661,0 1.234,-0.249 1.521,-0.411 l 0.212,0.786 z"
                                   display="inline"
                                   inkscape:connector-curvature="0"
                                   style="display:inline" /></g><g
                                   id="g5911"
                                   transform="translate(34.803917,-34.731522)"><g
                                   id="g5969"
                                   transform="translate(-76.820846,20.463898)"><g
                                   id="g6024"
                                   transform="translate(-1.5269147,1.6004891)"><g
                                   id="g6071"
                                   transform="translate(7.3886843,1.0351706)"><g
                                   id="g6187"
                                   transform="translate(-0.71000052,-4.6322855)"><g
                                   id="g6263"
                                   transform="translate(-0.66737304,-5.3488176)"><g
                                   id="g6319"
                                   transform="translate(0.79720466,3.5647493)"><g
                                   id="g6384"
                                   transform="translate(-9.1472004,2.261335)"><g
                                   id="g6488"
                                   transform="translate(-2.0348122,-3.4042665)"><g
                                   id="g6516"
                                   transform="translate(-0.63832329,-2.3294036)"><g
                                   id="g6769"
                                   transform="translate(1565.7794,-3801.8487)"><g
                                   id="g6910"
                                   transform="translate(-308.09512,-3790.9493)"><g
                                   id="g6983"
                                   transform="translate(-14.231122,-15.611848)"><g
                                   id="g7151"
                                   transform="translate(33.267081,-22.491026)"><g
                                   id="g7382"
                                   transform="translate(-23.229266,23.886871)"><g
                                   id="g7549"
                                   transform="translate(14.444681,15.529545)"><g
                                   id="g7800"
                                   transform="translate(-10.517025,-15.548079)"><g
                                   id="g7999"
                                   transform="matrix(0.53445343,0,0,0.59502607,5.6563057,11.962949)"><path
                                   id="path8103"
                                   d="M 85.24392,18.296028 H 14.303304 c -1.836934,0 -3.323975,1.366619 -3.323975,3.054795 v 6.833094 c 0,1.688176 1.487041,3.054795 3.323975,3.054795 h 0.612311 v 7.797766 0 41.80246 c 0,2.09012 1.924406,3.85869 4.198705,3.85869 H 41.594886 58.21476 80.520377 c 2.274301,0 4.198706,-1.76857 4.198706,-3.85869 v -44.21414 -0.321557 -5.064529 h 0.524837 c 1.836934,0 3.323976,-1.366619 3.323976,-3.054795 V 21.350823 C 88.480426,19.662647 87.080854,18.296028 85.24392,18.296028 z M 39.932898,81.723218 H 19.11432 c -0.524838,0 -0.962203,-0.40195 -0.962203,-0.88428 v -9.48594 h 21.780781 v 10.37022 z m 16.619871,0 H 43.169401 v -26.93043 c 0,-0.16078 0.174945,-0.24117 0.262419,-0.24117 h 12.771057 c 0.174949,0 0.262423,0.16078 0.262423,0.24117 v 26.93043 z m 24.842338,-0.88428 c 0,0.48233 -0.437363,0.88428 -0.9622,0.88428 H 59.789271 v -9.40555 h 21.693311 v 8.52127 z m 0,-11.49568 H 59.789271 v -14.55047 c 0,-1.76856 -1.574511,-3.21557 -3.498919,-3.21557 H 43.43182 c -1.924407,0 -3.498922,1.44701 -3.498922,3.21557 v 13.5858 H 18.152117 v -23.79524 c 0,0 0.08747,0 0.08747,0.0804 0.174945,0.16078 0.437365,0.24117 0.699784,0.32156 0.08747,0 0.174946,0.0804 0.174946,0.0804 0.262419,0.0804 0.524838,0.24117 0.874729,0.32156 0,0 0.08747,0 0.08747,0 0.26242,0.0804 0.524838,0.16078 0.787257,0.16078 0.08747,0 0.174946,0 0.262419,0 0.349893,0 0.612311,0.0804 0.962203,0.0804 0.26242,0 0.524838,0 0.787257,-0.0804 1.924407,-0.16078 3.586395,-1.04506 4.723544,-2.33129 1.137149,1.28623 2.799136,2.17051 4.723543,2.33129 0.262419,0 0.524838,0.0804 0.787257,0.0804 0.262419,0 0.524838,0 0.787257,-0.0804 1.924407,-0.16078 3.586393,-1.04506 4.723543,-2.33129 1.137149,1.28623 2.799136,2.17051 4.723543,2.33129 0.262418,0 0.524837,0.0804 0.787255,0.0804 0.262418,0 0.524842,0 0.78726,-0.0804 1.924404,-0.16078 3.58639,-1.04506 4.723543,-2.33129 1.137149,1.28623 2.799135,2.17051 4.723543,2.33129 0.262419,0 0.524838,0.0804 0.787256,0.0804 0.262418,0 0.524837,0 0.787255,-0.0804 1.924409,-0.16078 3.586395,-1.04506 4.723543,-2.33129 1.137149,1.28623 2.799139,2.17051 4.723544,2.33129 0.262418,0 0.524841,0.0804 0.78726,0.0804 0.262418,0 0.524836,0 0.787255,-0.0804 1.924409,-0.16078 3.586394,-1.04506 4.723543,-2.33129 1.137148,1.28623 2.799139,2.17051 4.723543,2.33129 0.262419,0 0.524837,0.0804 0.787255,0.0804 0.349894,0 0.699786,0 0.962205,-0.0804 0.08747,0 0.174949,0 0.262418,0 0.349893,-0.0804 0.612312,-0.0804 0.962204,-0.24117 0,0 0.08747,0 0.08747,0 0.262418,-0.0804 0.524837,-0.16078 0.787255,-0.32156 0.08747,0 0.08747,-0.0804 0.174949,-0.0804 0.262419,-0.16078 0.524837,-0.24117 0.787256,-0.40194 0,0 0,0 0,0 v 24.8403 z m -63.24299,-30.30678 v -7.717377 h 7.785098 v 7.717377 c 0,1.44701 -0.962203,2.73324 -2.361771,3.29596 -0.437365,0.16078 -0.962204,0.32156 -1.487042,0.32156 -0.524838,0 -1.049676,-0.0804 -1.487041,-0.32156 -1.487041,-0.48233 -2.449244,-1.76856 -2.449244,-3.29596 z m 11.0216,0 v -7.717377 h 7.785099 v 7.717377 c 0,1.44701 -0.962204,2.73324 -2.361772,3.29596 -0.437365,0.16078 -0.962203,0.32156 -1.487041,0.32156 -0.524838,0 -1.049676,-0.0804 -1.487041,-0.32156 -1.487042,-0.48233 -2.449245,-1.76856 -2.449245,-3.29596 z m 11.0216,0 v -7.717377 h 7.785097 v 7.717377 c 0,1.44701 -0.962204,2.73324 -2.361771,3.29596 -0.437363,0.16078 -0.9622,0.32156 -1.487042,0.32156 -0.524837,0 -1.049674,-0.0804 -1.487042,-0.32156 -1.399566,-0.48233 -2.449242,-1.76856 -2.449242,-3.29596 z m 11.109073,0 v -7.717377 h 7.785101 v 7.717377 c 0,1.44701 -0.962205,2.73324 -2.361773,3.29596 -0.437366,0.16078 -0.962203,0.32156 -1.487041,0.32156 -0.524841,0 -1.049679,-0.0804 -1.487041,-0.32156 -1.487042,-0.48233 -2.449246,-1.76856 -2.449246,-3.29596 z m 11.021602,0 v -7.717377 h 7.785095 v 7.717377 c 0,1.44701 -0.9622,2.73324 -2.361771,3.29596 -0.437363,0.16078 -0.9622,0.32156 -1.487042,0.32156 -0.524837,0 -1.049674,-0.0804 -1.487042,-0.32156 -1.399566,-0.48233 -2.44924,-1.76856 -2.44924,-3.29596 z m 11.109071,0 v -7.717377 h 7.7851 v 4.099857 3.61752 c 0,1.44701 -0.962205,2.73324 -2.361772,3.29596 -0.437367,0.16078 -0.962204,0.32156 -1.487041,0.32156 -0.524837,0 -1.049679,-0.0804 -1.487041,-0.32156 -1.487041,-0.48233 -2.449246,-1.76856 -2.449246,-3.29596 z M 85.24392,28.183917 c 0,0.08039 0,0.08039 0,0 H 14.303304 l 0.08747,-6.913484 70.853144,0.08039 v 6.833094 z"
                                   inkscape:connector-curvature="0" /></g></g></g></g></g></g></g></g></g></g></g></g></g></g></g></g></g></g></g></g></g></g></g></g></g></g></g></g></g></g></g></g></g></g></g></svg>