<?xml version="1.0" encoding="UTF-8" standalone="no"?>
<svg
   xmlns:dc="http://purl.org/dc/elements/1.1/"
   xmlns:cc="http://creativecommons.org/ns#"
   xmlns:rdf="http://www.w3.org/1999/02/22-rdf-syntax-ns#"
   xmlns:svg="http://www.w3.org/2000/svg"
   xmlns="http://www.w3.org/2000/svg"
   xmlns:sodipodi="http://sodipodi.sourceforge.net/DTD/sodipodi-0.dtd"
   xmlns:inkscape="http://www.inkscape.org/namespaces/inkscape"
   version="1.1"
   x="0px"
   y="0px"
   viewBox="-120 78.1 47.776087 52.814283"
   xml:space="preserve"
   id="svg2"
   inkscape:version="0.48.4 r9939"
   width="100%"
   height="100%"
   sodipodi:docname="University.svg"><metadata
     id="metadata18"><rdf:RDF><cc:Work
         rdf:about=""><dc:format>image/svg+xml</dc:format><dc:type
           rdf:resource="http://purl.org/dc/dcmitype/StillImage" /><dc:title></dc:title></cc:Work></rdf:RDF></metadata><defs
     id="defs16" /><sodipodi:namedview
     pagecolor="#ffffff"
     bordercolor="#666666"
     borderopacity="1"
     objecttolerance="10"
     gridtolerance="10"
     guidetolerance="10"
     inkscape:pageopacity="0"
     inkscape:pageshadow="2"
     inkscape:window-width="725"
     inkscape:window-height="735"
     id="namedview14"
     showgrid="false"
     fit-margin-top="0"
     fit-margin-left="0"
     fit-margin-right="0"
     fit-margin-bottom="0"
     inkscape:zoom="3.776"
     inkscape:cx="18.559125"
     inkscape:cy="24.353003"
     inkscape:window-x="114"
     inkscape:window-y="170"
     inkscape:window-maximized="0"
     inkscape:current-layer="g4327" /><g
     id="g3032"
     transform="translate(-152.06223,78.148663)"><g
       id="g3082"
       transform="translate(-11.778449,-19.681681)"><g
         id="g3297"
         transform="translate(113.35527,48.840676)"><g
           id="g3451"
           transform="translate(-110.35024,-41.106017)"><g
             id="g3508"
             transform="translate(37.661621,37.801481)"><g
               id="g3556"
               transform="translate(-33.173714,-53.557494)"><g
                 id="g3600"
                 transform="translate(1.6437441,2.3337983)"><g
                   id="g3673"
                   transform="translate(3.1326802,-1.9259882)"><g
                     id="g3728"
                     transform="translate(16.15499,5.0801784)"><g
                       id="g3774"
                       transform="matrix(1.3062103,0,0,1.1506075,-1.2423141,14.177607)"><g
                         id="g3814"
                         transform="matrix(0.76557355,0,0,0.86910615,-9.6088369,-25.571004)"><g
                           id="g3898"
                           transform="translate(-253.23308,-590.39679)"><g
                             id="g4071"
                             transform="translate(255.74688,596.01847)"><g
                               id="g4160"
                               transform="translate(-2.9830857,2.4410756)"><g
                                 id="g4272"
                                 transform="matrix(0.87809547,0,0,0.86067766,11.546476,7.0690494)"><g
                                   id="g4327"
                                   transform="matrix(1.1388283,0,0,1.1618751,13.689337,21.712146)"><path
                                   id="path4309"
                                   d="m 38.246,18.221 c -0.288,-0.392 -0.661,-0.619 -1.027,-0.75 -0.044,-0.314 -0.108,-0.607 -0.174,-0.898 0.029,-0.082 0.06,-0.168 0.092,-0.26 0.152,-0.202 0.243,-0.561 0.266,-1.117 0.016,-0.162 0.012,-0.325 -0.003,-0.485 -0.011,-0.477 -0.076,-0.944 -0.165,-1.402 0.034,-3.506 0.168,-5.853 0.168,-5.853 0,0 -3.943,-3.864 -11.16,-3.864 -7.219,0 -11.16,3.607 -11.16,3.607 l 0.162,6.074 c -0.106,0.533 -0.173,1.076 -0.173,1.635 0,0.176 0.005,0.326 0.011,0.463 l -0.011,0.021 c 0,0 0.006,0.022 0.016,0.061 0.029,0.435 0.098,0.662 0.21,0.733 0.042,0.14 0.071,0.298 0.096,0.463 -0.053,0.268 -0.108,0.534 -0.144,0.821 -0.37,0.132 -0.747,0.36 -1.038,0.756 -0.54,0.732 -0.499,1.717 -0.466,2.508 0.007,0.157 0.013,0.308 0.013,0.446 0,1.734 0.907,3.172 2.197,3.686 1.685,5.393 5.742,8.961 10.289,8.961 4.551,0 8.61,-3.575 10.292,-8.978 1.274,-0.526 2.17,-1.959 2.17,-3.67 0,-0.138 0.007,-0.29 0.013,-0.447 0.03,-0.79 0.071,-1.776 -0.474,-2.511 z M 22.723,7.111 h 2.639 V 4.472 h 1.759 V 7.111 H 29.76 V 8.87 h -2.639 v 2.639 H 25.362 V 8.87 H 22.723 V 7.111 z m 14.66,14.07 c 0,1.406 -0.852,2.545 -1.906,2.565 -1.332,5.098 -4.958,8.762 -9.235,8.762 -4.277,0 -7.903,-3.662 -9.236,-8.759 -1.066,-0.003 -1.929,-1.152 -1.929,-2.568 0,-0.701 -0.144,-1.711 0.197,-2.173 0.082,-0.112 0.198,-0.185 0.324,-0.244 0.154,0.992 0.526,1.812 1.71,1.777 0,0 -0.087,-4.98 0.771,-6.44 0.045,-0.076 0.101,-0.129 0.15,-0.197 0.666,-0.23 1.436,-0.457 2.315,-0.652 0.826,0.221 1.842,0.737 3.116,1.623 3.091,2.146 5.323,-0.344 6.44,-1.116 1.116,-0.773 4.464,-0.602 4.464,6.782 1.192,0.226 1.89,-0.773 2.181,-1.825 0.175,0.06 0.332,0.147 0.439,0.292 0.344,0.462 0.199,1.472 0.199,2.173 z"
                                   inkscape:connector-curvature="0" /><path
                                   id="path4311"
                                   d="m 37.014,41.785 c 0.064,-0.334 0.134,-0.696 0.182,-0.973 -1.113,-2.798 -1.519,-5.348 -1.555,-7.226 -1.11,-0.302 -2.184,-0.526 -3.177,-0.68 -0.435,6.258 -1.884,19.444 -6.393,20.282 -4.496,-0.835 -5.95,-13.949 -6.39,-20.226 -1.9,0.314 -4.051,0.861 -6.233,1.782 -0.637,0.238 -0.917,0.465 -1.439,0.661 -2.031,1.018 -4.044,2.391 -5.857,4.243 -0.171,3.607 0.172,8.413 1.718,10.476 1.392,1.856 3.765,5.387 14.531,6.066 0,0 3.819,0.39 7.568,0.009 2.43,-0.148 4.415,-0.445 6.08,-0.83 -0.532,-5.742 0.434,-10.811 0.965,-13.584 z"
                                   inkscape:connector-curvature="0" /><g
                                   id="g4313"><path
                                   id="path4315"
                                   d="m 53.737,31.758 c -0.231,-0.693 -0.693,-2.465 -3.466,-2.465 -2.773,0 -4.236,1.155 -4.621,1.079 -0.385,0.077 -1.849,-1.079 -4.621,-1.079 -2.773,0 -3.235,1.771 -3.466,2.465 -0.231,0.693 -0.462,4.235 1.463,8.703 0,1.231 -2.002,7.855 -1.155,15.325 0.154,2.002 3.389,-1.232 4.158,-4.159 0.77,-2.926 1.926,-6.469 3.62,-6.855 1.694,0.385 2.85,3.928 3.62,6.855 0.77,2.927 4.004,6.161 4.158,4.159 0.848,-7.47 -1.155,-14.094 -1.155,-15.325 1.927,-4.467 1.696,-8.009 1.465,-8.703 z"
                                   inkscape:connector-curvature="0" /></g></g></g></g></g></g></g></g></g></g></g></g></g></g></g></g></g></svg>