<?xml version="1.0" encoding="UTF-8" standalone="no"?>
<svg
   xmlns:dc="http://purl.org/dc/elements/1.1/"
   xmlns:cc="http://creativecommons.org/ns#"
   xmlns:rdf="http://www.w3.org/1999/02/22-rdf-syntax-ns#"
   xmlns:svg="http://www.w3.org/2000/svg"
   xmlns="http://www.w3.org/2000/svg"
   xmlns:sodipodi="http://sodipodi.sourceforge.net/DTD/sodipodi-0.dtd"
   xmlns:inkscape="http://www.inkscape.org/namespaces/inkscape"
   version="1.1"
   x="0px"
   y="0px"
   viewBox="-120 78.1 54.319292 50.197998"
   xml:space="preserve"
   id="svg2"
   inkscape:version="0.48.4 r9939"
   width="100%"
   height="100%"
   sodipodi:docname="Dentist.svg"><metadata
     id="metadata18"><rdf:RDF><cc:Work
         rdf:about=""><dc:format>image/svg+xml</dc:format><dc:type
           rdf:resource="http://purl.org/dc/dcmitype/StillImage" /><dc:title></dc:title></cc:Work></rdf:RDF></metadata><defs
     id="defs16" /><sodipodi:namedview
     pagecolor="#ffffff"
     bordercolor="#666666"
     borderopacity="1"
     objecttolerance="10"
     gridtolerance="10"
     guidetolerance="10"
     inkscape:pageopacity="0"
     inkscape:pageshadow="2"
     inkscape:window-width="725"
     inkscape:window-height="735"
     id="namedview14"
     showgrid="false"
     fit-margin-top="0"
     fit-margin-left="0"
     fit-margin-right="0"
     fit-margin-bottom="0"
     inkscape:zoom="3.776"
     inkscape:cx="20.938963"
     inkscape:cy="24.2738"
     inkscape:window-x="114"
     inkscape:window-y="170"
     inkscape:window-maximized="0"
     inkscape:current-layer="g4372" /><g
     id="g3032"
     transform="translate(-149.68239,75.611582)"><g
       id="g3082"
       transform="translate(-11.778449,-19.681681)"><g
         id="g3297"
         transform="translate(113.35527,48.840676)"><g
           id="g3451"
           transform="translate(-110.35024,-41.106017)"><g
             id="g3508"
             transform="translate(37.661621,37.801481)"><g
               id="g3556"
               transform="translate(-33.173714,-53.557494)"><g
                 id="g3600"
                 transform="translate(1.6437441,2.3337983)"><g
                   id="g3673"
                   transform="translate(3.1326802,-1.9259882)"><g
                     id="g3728"
                     transform="translate(16.15499,5.0801784)"><g
                       id="g3774"
                       transform="matrix(1.3062103,0,0,1.1506075,-1.2423141,14.177607)"><g
                         id="g3814"
                         transform="matrix(0.76557355,0,0,0.86910615,-9.6088369,-25.571004)"><g
                           id="g3898"
                           transform="translate(-253.23308,-590.39679)"><g
                             id="g4071"
                             transform="translate(255.74688,596.01847)"><g
                               id="g4160"
                               transform="translate(-2.9830857,2.4410756)"><g
                                 id="g4272"
                                 transform="matrix(0.87809547,0,0,0.86067766,11.546476,7.0690494)"><g
                                   id="g4327"
                                   transform="matrix(1.1388283,0,0,1.1618751,13.689337,21.712146)"><g
                                   id="g4372"
                                   transform="translate(0.89151921,1.2290808)"><path
                                   id="path4356"
                                   d="m 31.499,19.117 c -0.098,-0.134 -0.243,-0.214 -0.405,-0.268 0.14,-0.506 0.181,-1.026 0.126,-1.406 -0.019,-0.14 0.104,-0.438 0.233,-0.81 0.141,-0.187 0.225,-0.518 0.245,-1.03 0.014,-0.151 0.011,-0.301 -0.003,-0.449 -0.01,-0.44 -0.07,-0.87 -0.152,-1.293 0.031,-3.232 0.155,-5.398 0.155,-5.398 0,0 -3.636,-3.563 -10.293,-3.563 -6.658,0 -10.292,3.325 -10.292,3.325 l 0.149,5.602 c -0.097,0.491 -0.159,0.994 -0.159,1.508 0,0.162 0.004,0.301 0.011,0.427 l -0.011,0.019 c 0,0 0.006,0.02 0.015,0.057 0.027,0.4 0.091,0.61 0.194,0.675 0.186,0.627 0.152,1.566 0.278,2.379 -0.117,0.054 -0.223,0.121 -0.299,0.224 -0.315,0.426 -0.182,1.358 -0.182,2.004 0,1.307 0.796,2.367 1.78,2.37 1.229,4.7 4.574,8.077 8.517,8.077 3.945,0 7.289,-3.379 8.517,-8.08 0.973,-0.019 1.758,-1.07 1.758,-2.367 0,-0.645 0.134,-1.577 -0.182,-2.003 z M 18.161,8.146 h 2.433 V 5.712 h 1.622 v 2.433 h 2.433 v 1.622 h -2.433 v 2.434 H 20.594 V 9.768 H 18.161 V 8.146 z m 12.162,12.975 c 0,0.667 -0.345,1.007 -0.427,1.009 l -1.028,0.02 -0.26,0.995 c -1.104,4.226 -3.999,7.065 -7.203,7.065 -3.204,0 -6.099,-2.838 -7.204,-7.063 l -0.265,-1.011 -1.045,-0.003 c -0.081,0 -0.426,-0.338 -0.426,-1.012 0,-0.16 -0.007,-0.336 -0.014,-0.517 -0.002,-0.061 -0.005,-0.134 -0.008,-0.208 0.196,0.092 0.43,0.145 0.722,0.136 l 0.525,0.075 0.063,-1.792 c 0.154,-3.135 1.316,-3.915 2.53,-4.288 l 0.009,0 h 0 c 0.312,0 1.052,0.402 1.592,0.695 1.039,0.564 2.216,1.203 3.52,1.203 1.353,0 2.475,-0.676 3.376,-1.219 0.509,-0.307 1.086,-0.654 1.379,-0.654 0.026,0 0.041,0.004 0.053,0.007 0.903,0.269 1.77,0.712 2.308,1.854 0.34,0.979 0.562,2.308 0.562,4.119 0.522,0.099 0.941,-0.057 1.267,-0.352 -0.002,0.147 -0.007,0.302 -0.012,0.421 -0.007,0.183 -0.014,0.36 -0.014,0.52 z"
                                   inkscape:connector-curvature="0" /><path
                                   id="path4358"
                                   d="m 27.302,37.635 c 0,-2.044 0.717,-3.881 1.908,-5.285 -0.714,-0.168 -1.413,-0.313 -2.067,-0.413 -0.401,5.77 -1.737,17.931 -5.895,18.705 -4.147,-0.77 -5.488,-12.864 -5.894,-18.654 -1.752,0.29 -3.736,0.796 -5.748,1.643 -0.588,0.22 -0.846,0.429 -1.327,0.61 -1.874,0.939 -3.73,2.205 -5.401,3.913 -0.159,3.327 0.158,7.76 1.583,9.662 1.284,1.712 3.472,4.968 13.401,5.595 0,0 3.523,0.36 6.98,0.006 4.806,-0.292 7.802,-1.199 9.772,-2.251 C 29.363,46.38 27.302,40.892 27.302,37.635 z"
                                   inkscape:connector-curvature="0" /><path
                                   id="path4360"
                                   d="m 56.005,42.513 c 0.812,-1.924 1.155,-3.635 1.155,-4.878 0,-3.839 -2.861,-7.226 -7.076,-7.226 -4.215,0 -6.549,3.688 -6.549,3.688 0,0 -2.334,-3.688 -6.549,-3.688 -4.215,0 -7.076,3.387 -7.076,7.226 0,3.839 3.237,12.119 13.624,17.463 5.863,-3.017 9.447,-6.968 11.458,-10.529 l 1.013,-2.056 z"
                                   inkscape:connector-curvature="0" /></g></g></g></g></g></g></g></g></g></g></g></g></g></g></g></g></g></svg>