<?xml version="1.0" encoding="UTF-8" standalone="no"?>
<svg
   xmlns:dc="http://purl.org/dc/elements/1.1/"
   xmlns:cc="http://creativecommons.org/ns#"
   xmlns:rdf="http://www.w3.org/1999/02/22-rdf-syntax-ns#"
   xmlns:svg="http://www.w3.org/2000/svg"
   xmlns="http://www.w3.org/2000/svg"
   xmlns:sodipodi="http://sodipodi.sourceforge.net/DTD/sodipodi-0.dtd"
   xmlns:inkscape="http://www.inkscape.org/namespaces/inkscape"
   version="1.1"
   x="0px"
   y="0px"
   viewBox="0 0 100 100"
   xml:space="preserve"
   id="svg12"
   sodipodi:docname="Doctor.svg"
   width="100"
   height="100"
   inkscape:version="0.92.5 (2060ec1f9f, 2020-04-08)"><metadata
     id="metadata18"><rdf:RDF><cc:Work
         rdf:about=""><dc:format>image/svg+xml</dc:format><dc:type
           rdf:resource="http://purl.org/dc/dcmitype/StillImage" /><dc:title></dc:title></cc:Work></rdf:RDF></metadata><defs
     id="defs16" /><sodipodi:namedview
     pagecolor="#ffffff"
     bordercolor="#666666"
     borderopacity="1"
     objecttolerance="10"
     gridtolerance="10"
     guidetolerance="10"
     inkscape:pageopacity="0"
     inkscape:pageshadow="2"
     inkscape:window-width="1680"
     inkscape:window-height="884"
     id="namedview14"
     showgrid="false"
     inkscape:zoom="4.17193"
     inkscape:cx="-35.951495"
     inkscape:cy="58.649584"
     inkscape:window-x="0"
     inkscape:window-y="0"
     inkscape:window-maximized="1"
     inkscape:current-layer="g6" /><g
     id="g6"
     transform="matrix(1.5373427,0,0,1.5373427,0.83219,0.8050336)"><polygon
       points="23.4,30.6 14.9,30.6 14.9,37.4 23.6,37.4 23.6,45.9 30.3,45.9 30.3,37.2 38.9,37.2 38.9,30.6 30.3,30.6 30.3,21.9 23.4,21.9 "
       id="polygon2" /><path
       d="M 61.4,6.9 C 60.5,6.1 59.4,5.5 58.4,5 58.3,4.9 58.2,4.9 58.1,4.8 57.5,4.4 56.7,4 56,4 55.6,4 55.3,4.1 55,4.3 54.2,4.9 53.8,5.6 53.8,6.4 53.9,7 54.3,7.6 55.1,8 c 0.3,0.1 0.5,0.2 0.8,0.2 0.4,0 0.8,-0.1 1.1,-0.3 0.3,-0.1 0.5,-0.2 0.8,-0.2 0.7,0 1.5,0.9 2.2,2.4 0.9,2.1 -0.1,4.6 -1,6.8 l -0.6,1.5 c -0.8,2.1 -1.6,4.3 -2.4,6.4 -0.6,0.3 -1,0.8 -1.1,1.5 -0.7,4.5 -3,4.9 -3.7,4.9 H 51.1 51 c -1.1,0 -2,-0.8 -2.7,-2.2 L 48,28.5 c -0.5,-1.1 -0.7,-2.1 -0.7,-2.2 -0.1,-0.6 -0.4,-1 -0.9,-1.3 0,-0.1 -0.1,-0.3 -0.2,-0.4 -1.1,-3.1 -2.6,-7.2 -3.9,-11.3 -0.6,-1.9 -0.1,-3.6 1.4,-5 0.4,-0.3 0.8,-0.6 1.2,-0.5 0.2,0 0.3,0.1 0.5,0.2 0.3,0.1 0.6,0.3 1,0.3 h 0.1 c 1.2,0 2.4,-0.8 2.4,-2.1 0,-0.6 -0.2,-1.1 -0.6,-1.5 -0.4,-0.4 -0.9,-0.6 -1.6,-0.5 -0.6,0 -1.1,0.2 -1.6,0.4 l -0.9,0.3 c -1.7,0.4 -3.1,1.6 -4,3.2 -1,1.9 -1.3,4.2 -0.6,6.3 1.2,3.7 2.5,7.6 3.8,11.6 -0.1,0.3 -0.2,0.7 -0.1,1.1 0.2,1.1 0.5,2.1 0.9,3.1 0.7,1.6 1.8,3.2 3.4,4.2 l 1.2,0.6 h 0.4 c 0,0.7 -0.1,1.4 -0.2,2.1 -0.3,3.9 -2,7.7 -4.5,10.9 -5,6.2 -12.7,9.3 -20.5,8.2 -2.4,-0.3 -4.7,-1 -6.8,-2 C 8.390301,51.162189 3.3579847,40.829029 4.6,30.9 5.1,26.8 6.8,23 9.4,19.8 c 3.9,-4.8 9.2,-7.7 15.2,-8.3 0.7,1.4 2.2,2.5 3.9,2.5 2.4,0 4.3,-1.9 4.3,-4.3 0,-2.4 -1.9,-4.3 -4.3,-4.3 -1.8,0 -3.3,1.1 -4,2.6 C 17.4,8.6 11,12 6.5,17.7 -5.3766977,35.048539 4.7786397,57.9169 23.3,59.8 24.6,60 25.8,60 27,60 c 7.8,0 15.2,-3.5 20.3,-9.8 3,-3.7 4.9,-8.2 5.5,-12.9 0.1,-0.9 0.2,-1.7 0.2,-2.6 1.4,-0.3 2.8,-1.4 3.6,-2.5 1.2,-1.5 1.8,-3.5 2.2,-5.4 V 26 c 0.1,-0.4 0.3,-0.8 0.4,-1.3 0.5,-1.5 1.1,-3.1 1.6,-4.6 0.6,-1.8 1.3,-3.6 1.9,-5.5 0.3,-0.8 0.5,-1.8 0.5,-2.8 0.1,-2 -0.6,-3.8 -1.8,-4.9 z"
       id="path4"
       inkscape:connector-curvature="0"
       sodipodi:nodetypes="cccscccscscccccscscccccccccssssccccccccccccccccscssscccscccccccsccc" /></g></svg>