<?xml version="1.0" encoding="UTF-8" standalone="no"?>
<svg
   xmlns:dc="http://purl.org/dc/elements/1.1/"
   xmlns:cc="http://creativecommons.org/ns#"
   xmlns:rdf="http://www.w3.org/1999/02/22-rdf-syntax-ns#"
   xmlns:svg="http://www.w3.org/2000/svg"
   xmlns="http://www.w3.org/2000/svg"
   xmlns:sodipodi="http://sodipodi.sourceforge.net/DTD/sodipodi-0.dtd"
   xmlns:inkscape="http://www.inkscape.org/namespaces/inkscape"
   height="100px"
   width="100px"
   fill="#000000"
   version="1.0"
   x="0px"
   y="0px"
   viewBox="0 0 76.536 100"
   enable-background="new 0 0 76.536 100"
   xml:space="preserve"
   id="svg4"
   sodipodi:docname="Drinking Water.svg"
   inkscape:version="0.92.5 (2060ec1f9f, 2020-04-08)"><metadata
     id="metadata10"><rdf:RDF><cc:Work
         rdf:about=""><dc:format>image/svg+xml</dc:format><dc:type
           rdf:resource="http://purl.org/dc/dcmitype/StillImage" /><dc:title></dc:title></cc:Work></rdf:RDF></metadata><defs
     id="defs8" /><sodipodi:namedview
     pagecolor="#ffffff"
     bordercolor="#666666"
     borderopacity="1"
     objecttolerance="10"
     gridtolerance="10"
     guidetolerance="10"
     inkscape:pageopacity="0"
     inkscape:pageshadow="2"
     inkscape:window-width="691"
     inkscape:window-height="480"
     id="namedview6"
     showgrid="false"
     inkscape:zoom="2.36"
     inkscape:cx="50"
     inkscape:cy="50"
     inkscape:window-x="0"
     inkscape:window-y="0"
     inkscape:window-maximized="0"
     inkscape:current-layer="svg4" /><path
     d="M 14.277762,49.217674 V 34.353481 c 1.737361,-6.954111 6.692714,-10.4307 14.863258,-10.4307 h 10.431635 c 0,-2.160265 1.751364,-3.91163 3.910696,-3.91163 v 0 V 9.5804507 H 33.053583 c -1.728959,0 -3.130237,-1.4003447 -3.130237,-3.1293036 0,-1.7280253 1.401278,-3.1293036 3.130237,-3.1293036 h 27.380473 c 1.728959,0 3.130237,1.4012783 3.130237,3.1293036 0,1.7289589 -1.401278,3.1293036 -3.130237,3.1293036 H 50.003355 V 20.011151 c 2.160266,0 3.91163,1.750431 3.91163,3.91163 v 0 h 14.341397 v -9.127447 c 0,-1.008248 0.817801,-1.826049 1.826049,-1.826049 h 3.910696 v 31.293036 h -3.910696 c -1.008248,0 -1.826049,-0.816868 -1.826049,-1.82605 V 33.309758 H 53.914985 c 0,2.160266 -1.751364,3.911629 -3.91163,3.911629 v 0 h -6.519071 c -2.159331,0 -3.910696,-1.751364 -3.910696,-3.911629 v 0 H 29.14102 c -2.591571,0 -4.693022,2.101451 -4.693022,4.693955 V 49.21674 H 14.277762 Z M 2.542873,57.822325 6.9763643,96.678156 H 30.705672 L 35.139163,57.823259 H 2.542873 Z m 3.6502318,3.390701 H 31.488931 l -0.783259,7.823259 H 7.2368284"
     id="path2"
     inkscape:connector-curvature="0"
     style="stroke-width:0.93356311" /></svg>