<?xml version="1.0" encoding="UTF-8" standalone="no"?>
<svg
   xmlns:dc="http://purl.org/dc/elements/1.1/"
   xmlns:cc="http://creativecommons.org/ns#"
   xmlns:rdf="http://www.w3.org/1999/02/22-rdf-syntax-ns#"
   xmlns:svg="http://www.w3.org/2000/svg"
   xmlns="http://www.w3.org/2000/svg"
   xmlns:sodipodi="http://sodipodi.sourceforge.net/DTD/sodipodi-0.dtd"
   xmlns:inkscape="http://www.inkscape.org/namespaces/inkscape"
   version="1.1"
   x="0px"
   y="0px"
   viewBox="0 0 45.075194 55.234372"
   enable-background="new 0 0 100 100"
   xml:space="preserve"
   id="svg2"
   inkscape:version="0.48.4 r9939"
   width="100%"
   height="100%"
   sodipodi:docname="Gifts.svg"><metadata
     id="metadata30"><rdf:RDF><cc:Work
         rdf:about=""><dc:format>image/svg+xml</dc:format><dc:type
           rdf:resource="http://purl.org/dc/dcmitype/StillImage" /><dc:title></dc:title></cc:Work></rdf:RDF></metadata><defs
     id="defs28"><style
       id="style10827"
       type="text/css">
   
    .fil1 {fill:none}
    .fil0 {fill:black}
    .fil2 {fill:black;fill-rule:nonzero}
   
  </style><style
       id="style11273"
       type="text/css">
   
    .str3 {stroke:#0A0B0C;stroke-width:0.755909}
    .str2 {stroke:#0A0B0C;stroke-width:2.83466}
    .str1 {stroke:#0A0B0C;stroke-width:3.77955}
    .str0 {stroke:#0A0B0C;stroke-width:5.66932}
    .fil0 {fill:none}
    .fil1 {fill:#0A0B0C}
    .fil2 {fill:white}
   
  </style></defs><sodipodi:namedview
     pagecolor="#ffffff"
     bordercolor="#666666"
     borderopacity="1"
     objecttolerance="10"
     gridtolerance="10"
     guidetolerance="10"
     inkscape:pageopacity="0"
     inkscape:pageshadow="2"
     inkscape:window-width="909"
     inkscape:window-height="812"
     id="namedview26"
     showgrid="false"
     fit-margin-top="0"
     fit-margin-left="0"
     fit-margin-right="0"
     fit-margin-bottom="0"
     inkscape:zoom="5.12"
     inkscape:cx="13.878049"
     inkscape:cy="13.829234"
     inkscape:window-x="74"
     inkscape:window-y="59"
     inkscape:window-maximized="0"
     inkscape:current-layer="g11528" /><g
     id="g3217"
     transform="translate(-1271.6234,7657.7914)"><g
       id="g3355"
       transform="translate(0.52596752,-1.51338)"><g
         id="g3394"
         transform="translate(-1.304037,6.1068216)"><g
           id="g3432"
           transform="translate(1.3243604,-7.0685396)"><g
             id="g3490"
             transform="translate(14.50543,16.201175)"><g
               id="g3544"
               transform="translate(1.7832223,7.9070624)"><g
                 id="g3595"
                 transform="translate(9.5264836,-0.46901412)"><g
                   id="g3646"
                   transform="translate(-52.35165,-3.5880634)"><g
                     id="g3767"
                     transform="translate(6.0048559,8.7552768)"><g
                       id="g4075"
                       transform="translate(0.55239017,0.07303033)"><g
                         id="g4264"
                         transform="translate(3.0880737,-2.6377741)"><g
                           id="g4355"
                           transform="translate(8.4601992,5.328404)"><g
                             id="g4421"
                             transform="translate(-6.5255081,7.0858766)"><g
                               id="g4462"
                               transform="translate(25.518018,13.531166)"><g
                                 id="g4500"
                                 transform="translate(80.26127,-61.023322)"><g
                                   id="g5344"
                                   transform="translate(-17.614831,53.929153)"><g
                                   id="g5294"
                                   display="none"
                                   style="display:none"><rect
                                   id="rect5296"
                                   height="196"
                                   width="394.5"
                                   display="inline"
                                   y="-80.754997"
                                   x="-43.5"
                                   style="fill:#000000;display:inline" /></g><g
                                   id="g5316"
                                   display="none"
                                   style="display:none"><g
                                   id="g5318"
                                   display="inline"
                                   style="display:inline"><path
                                   id="path5320"
                                   d="M 1.581,10.718 H 30.418 L 16,1.051 1.581,10.718 z M 17.592,6.594 c 0,0.879 -0.713,1.592 -1.592,1.592 -0.879,0 -1.592,-0.713 -1.592,-1.592 0,-0.879 0.713,-1.592 1.592,-1.592 0.879,0 1.592,0.712 1.592,1.592 z"
                                   inkscape:connector-curvature="0" /><rect
                                   id="rect5322"
                                   height="3.0209999"
                                   width="31"
                                   y="28.030001"
                                   x="0.5" /><rect
                                   id="rect5324"
                                   height="11.875"
                                   width="3.0209999"
                                   y="13.363"
                                   x="3.6670001" /><rect
                                   id="rect5326"
                                   height="11.875"
                                   width="3.0209999"
                                   y="13.363"
                                   x="8.349" /><rect
                                   id="rect5328"
                                   height="11.875"
                                   width="3.0209999"
                                   y="13.363"
                                   x="20.629999" /><rect
                                   id="rect5330"
                                   height="11.875"
                                   width="3.0209999"
                                   y="13.363"
                                   x="25.312" /></g><path
                                   id="path5332"
                                   d="m 19.055,22.809 c -0.386,0.262 -1.035,0.524 -1.857,0.524 -1.01,0 -1.907,-0.386 -2.53,-1.11 -0.474,-0.524 -0.785,-1.246 -0.897,-2.144 h -0.773 v -0.611 h 0.711 c 0,-0.062 0,-0.125 0,-0.187 0,-0.2 0.012,-0.387 0.025,-0.561 h -0.735 v -0.624 h 0.823 c 0.15,-0.872 0.524,-1.595 1.022,-2.106 0.636,-0.66 1.446,-1.035 2.468,-1.035 0.735,0 1.309,0.212 1.658,0.399 l -0.249,0.822 c -0.312,-0.187 -0.835,-0.349 -1.396,-0.349 -0.673,0 -1.221,0.237 -1.645,0.685 -0.374,0.361 -0.623,0.922 -0.748,1.583 h 3.478 v 0.624 h -3.59 c -0.013,0.162 -0.025,0.349 -0.025,0.523 0,0.075 0,0.137 0,0.225 h 3.615 v 0.611 h -3.53 c 0.1,0.723 0.349,1.259 0.685,1.633 0.461,0.486 1.085,0.723 1.757,0.723 0.661,0 1.234,-0.249 1.521,-0.411 l 0.212,0.786 z"
                                   display="inline"
                                   inkscape:connector-curvature="0"
                                   style="display:inline" /></g><g
                                   id="g5453"
                                   transform="translate(-52.625356,-10.750909)"><g
                                   id="g5403"
                                   display="none"
                                   style="display:none"><rect
                                   id="rect5405"
                                   height="196"
                                   width="394.5"
                                   display="inline"
                                   y="-80.754997"
                                   x="-43.5"
                                   style="fill:#000000;display:inline" /></g><g
                                   id="g5425"
                                   display="none"
                                   style="display:none"><g
                                   id="g5427"
                                   display="inline"
                                   style="display:inline"><path
                                   id="path5429"
                                   d="M 1.581,10.718 H 30.418 L 16,1.051 1.581,10.718 z M 17.592,6.594 c 0,0.879 -0.713,1.592 -1.592,1.592 -0.879,0 -1.592,-0.713 -1.592,-1.592 0,-0.879 0.713,-1.592 1.592,-1.592 0.879,0 1.592,0.712 1.592,1.592 z"
                                   inkscape:connector-curvature="0" /><rect
                                   id="rect5431"
                                   height="3.0209999"
                                   width="31"
                                   y="28.030001"
                                   x="0.5" /><rect
                                   id="rect5433"
                                   height="11.875"
                                   width="3.0209999"
                                   y="13.363"
                                   x="3.6670001" /><rect
                                   id="rect5435"
                                   height="11.875"
                                   width="3.0209999"
                                   y="13.363"
                                   x="8.349" /><rect
                                   id="rect5437"
                                   height="11.875"
                                   width="3.0209999"
                                   y="13.363"
                                   x="20.629999" /><rect
                                   id="rect5439"
                                   height="11.875"
                                   width="3.0209999"
                                   y="13.363"
                                   x="25.312" /></g><path
                                   id="path5441"
                                   d="m 19.055,22.809 c -0.386,0.262 -1.035,0.524 -1.857,0.524 -1.01,0 -1.907,-0.386 -2.53,-1.11 -0.474,-0.524 -0.785,-1.246 -0.897,-2.144 h -0.773 v -0.611 h 0.711 c 0,-0.062 0,-0.125 0,-0.187 0,-0.2 0.012,-0.387 0.025,-0.561 h -0.735 v -0.624 h 0.823 c 0.15,-0.872 0.524,-1.595 1.022,-2.106 0.636,-0.66 1.446,-1.035 2.468,-1.035 0.735,0 1.309,0.212 1.658,0.399 l -0.249,0.822 c -0.312,-0.187 -0.835,-0.349 -1.396,-0.349 -0.673,0 -1.221,0.237 -1.645,0.685 -0.374,0.361 -0.623,0.922 -0.748,1.583 h 3.478 v 0.624 h -3.59 c -0.013,0.162 -0.025,0.349 -0.025,0.523 0,0.075 0,0.137 0,0.225 h 3.615 v 0.611 h -3.53 c 0.1,0.723 0.349,1.259 0.685,1.633 0.461,0.486 1.085,0.723 1.757,0.723 0.661,0 1.234,-0.249 1.521,-0.411 l 0.212,0.786 z"
                                   display="inline"
                                   inkscape:connector-curvature="0"
                                   style="display:inline" /></g><g
                                   id="g5911"
                                   transform="translate(34.803917,-34.731522)"><g
                                   id="g5969"
                                   transform="translate(-76.820846,20.463898)"><g
                                   id="g6024"
                                   transform="translate(-1.5269147,1.6004891)"><g
                                   id="g6071"
                                   transform="translate(7.3886843,1.0351706)"><g
                                   id="g6187"
                                   transform="translate(-0.71000052,-4.6322855)"><g
                                   id="g6263"
                                   transform="translate(-0.66737304,-5.3488176)"><g
                                   id="g6319"
                                   transform="translate(0.79720466,3.5647493)"><g
                                   id="g6384"
                                   transform="translate(-9.1472004,2.261335)"><g
                                   id="g6488"
                                   transform="translate(-2.0348122,-3.4042665)"><g
                                   id="g6516"
                                   transform="translate(-0.63832329,-2.3294036)"><g
                                   id="g6769"
                                   transform="translate(1565.7794,-3801.8487)"><g
                                   id="g6910"
                                   transform="translate(-308.09512,-3790.9493)"><g
                                   id="g6983"
                                   transform="translate(-14.231122,-15.611848)"><g
                                   id="g7151"
                                   transform="translate(33.267081,-22.491026)"><g
                                   id="g7382"
                                   transform="translate(-23.229266,23.886871)"><g
                                   id="g7549"
                                   transform="translate(14.444681,15.529545)"><g
                                   id="g7800"
                                   transform="translate(-10.517025,-15.548079)"><g
                                   id="g7999"
                                   transform="matrix(0.53445343,0,0,0.59502607,5.6563057,11.962949)"><g
                                   id="g8217"
                                   transform="matrix(0.65157633,0,0,0.66199506,14.891666,27.68312)"><g
                                   id="g8341"
                                   transform="matrix(0.81955739,0,0,0.8373697,16.904811,-6.2861215)"><g
                                   id="g8463"
                                   transform="matrix(1.0901467,0,0,0.7755316,14.691042,9.5565496)"><g
                                   id="g8628"
                                   transform="matrix(3.2141084,0,0,3.9092417,-42.983003,-211.13796)"><g
                                   id="g8709"
                                   transform="matrix(0.28046364,0,0,0.26137124,8.2602788,58.166419)"><g
                                   id="g8982"
                                   transform="matrix(0.85470616,0,0,0.82928987,-24.416347,-291.09779)"><g
                                   id="g9029"
                                   transform="matrix(0.56179905,0,0,0.59146659,71.827756,364.20217)"><g
                                   id="g9231"
                                   transform="matrix(1.6434845,0,0,1.6275903,-1.9010194,-26.060019)"><g
                                   id="g9437"
                                   transform="matrix(0.71903998,0,0,0.65801134,3.2171324,7.0571502)"><g
                                   id="g9598"
                                   transform="matrix(0.80108296,0,0,0.9233293,9.6403445,4.2821143)"><g
                                   id="g9708"
                                   transform="matrix(0.94363907,0,0,1.1480868,25.922318,9.4839725)"><g
                                   id="g9819"
                                   transform="matrix(1.095798,0,0,0.98226973,-24.771036,-19.505567)"><g
                                   id="g9923"
                                   transform="matrix(1.4565749,0,0,1.1402449,-4.0661436,-21.558968)"><g
                                   id="g10097"
                                   transform="matrix(0.11168619,0,0,0.17855319,5.2962471,-4.487068)"><g
                                   id="g10271"
                                   transform="matrix(13.365969,0,0,8.1997528,-133.46038,-213.50307)"><g
                                   style="fill-rule:evenodd"
                                   id="g10860"
                                   transform="matrix(3.4886731,0,0,4.1898505,17.112225,-334.18238)"><g
                                   id="g10926"
                                   transform="translate(-3.4835301,11.933542)"><g
                                   id="g10977"
                                   transform="translate(-23.300771,-27.486778)"><g
                                   id="g11027"
                                   transform="matrix(0.43252474,0,0,0.37672697,-8.3080623,-3.9894485)"><g
                                   id="g11075"
                                   transform="matrix(2.3120065,0,0,2.6544423,31.801403,32.696975)"><g
                                   id="g11120"
                                   transform="matrix(0.80941525,0,0,0.85267959,9.9659797,8.8655352)"><g
                                   id="g11165"
                                   transform="matrix(1.2354598,0,0,1.1727735,63.229892,29.359769)"><g
                                   id="g11232"
                                   transform="translate(-34.923095,-12.499473)"><g
                                   style="fill-rule:evenodd"
                                   id="g11310"
                                   transform="translate(-21.549182,-35.279603)"><g
                                   id="g11372"
                                   transform="translate(-5.4679176,-5.8668947)"><g
                                   id="g11436"
                                   transform="translate(2.7982997,0.93576032)"><g
                                   id="g11488"
                                   transform="translate(-3.587236,-5.6258516)"><g
                                   id="g11528"
                                   transform="translate(15.507114,-3.254385)"><path
                                   id="path11516"
                                   d="m 60.289174,64.564746 c -4.095683,-0.389095 -9.833191,2.127138 -14.683809,6.818991 -3.314737,3.207276 -5.576371,6.814081 -6.548905,10.041609 V 61.138374 c 0.07676,0.114151 0.138933,0.231984 0.223943,0.343067 2.266709,2.954425 6.578087,3.57305 9.632086,1.381473 3.054633,-2.19035 3.693474,-6.361159 1.428668,-9.316198 -0.42251,-0.548661 -0.912901,-1.01754 -1.455313,-1.401726 0.08755,-0.242417 0.166847,-0.486062 0.236631,-0.735231 0.673098,-0.01841 1.35254,-0.131948 2.021831,-0.352272 3.599583,-1.181402 5.528157,-4.963729 4.305669,-8.447177 -1.220584,-3.482834 -5.131022,-5.348529 -8.732508,-4.164672 -0.671194,0.21971 -1.282755,0.53025 -1.828339,0.911981 -0.159869,-0.117833 -0.3172,-0.240576 -0.484047,-0.351045 0.194761,-0.619239 0.301974,-1.274687 0.301974,-1.955297 -6.34e-4,-3.677996 -3.083181,-6.660652 -6.883868,-6.660652 -3.803224,0 -6.885137,2.982656 -6.885137,6.660038 0,0.68061 0.107214,1.336058 0.303243,1.955297 -0.221405,0.144837 -0.431392,0.303789 -0.641378,0.462741 -0.550658,-0.371297 -1.166026,-0.672018 -1.839758,-0.881295 -3.621152,-1.125554 -7.497967,0.801512 -8.660821,4.303372 -1.162854,3.501859 0.82916,7.252273 4.448409,8.377213 0.671829,0.20805 1.351905,0.311154 2.021831,0.319132 0.07613,0.247941 0.164309,0.490359 0.256297,0.730935 -0.535433,0.394619 -1.020114,0.869635 -1.43184,1.425661 -2.214688,2.990021 -1.504795,7.15101 1.586633,9.294104 3.06415,2.124682 7.317163,1.463097 9.547712,-1.465552 V 81.42596 C 35.555844,78.197818 33.29421,74.589785 29.978204,71.383123 25.12822,66.690042 19.390712,64.175037 15.295029,64.564133 c -0.400306,3.960918 2.198828,9.509518 7.049446,14.203212 4.656492,4.505898 10.130091,6.995741 14.183268,6.842312 v 0.01534 h 2.527448 v -0.01473 c 4.055715,0.152201 9.526142,-2.337028 14.183268,-6.842312 4.853156,-4.692467 7.453559,-10.242294 7.050715,-14.203213 z M 29.731422,48.617969 c 0,-4.30644 3.608464,-7.796639 8.061314,-7.796639 4.45285,0 8.060045,3.490199 8.060045,7.796639 0,4.307054 -3.60783,7.79848 -8.060045,7.79848 -4.452215,0 -8.061314,-3.491426 -8.061314,-7.79848 z"
                                   inkscape:connector-curvature="0" /></g></g></g></g></g></g></g></g></g></g></g></g></g></g></g></g></g></g></g></g></g></g></g></g></g></g></g></g></g></g></g></g></g></g></g></g></g></g></g></g></g></g></g></g></g></g></g></g></g></g></g></g></g></g></g></g></g></g></g></g></g></g></g></svg>