<?xml version="1.0" encoding="UTF-8" standalone="no"?>
<svg
   xmlns:dc="http://purl.org/dc/elements/1.1/"
   xmlns:cc="http://creativecommons.org/ns#"
   xmlns:rdf="http://www.w3.org/1999/02/22-rdf-syntax-ns#"
   xmlns:svg="http://www.w3.org/2000/svg"
   xmlns="http://www.w3.org/2000/svg"
   xmlns:sodipodi="http://sodipodi.sourceforge.net/DTD/sodipodi-0.dtd"
   xmlns:inkscape="http://www.inkscape.org/namespaces/inkscape"
   version="1.1"
   x="0px"
   y="0px"
   viewBox="0 0 100 125"
   enable-background="new 0 0 100 100"
   xml:space="preserve"
   id="svg2"
   inkscape:version="0.91 r13725"
   sodipodi:docname="Gym.svg"><metadata
     id="metadata28"><rdf:RDF><cc:Work
         rdf:about=""><dc:format>image/svg+xml</dc:format><dc:type
           rdf:resource="http://purl.org/dc/dcmitype/StillImage" /></cc:Work></rdf:RDF></metadata><defs
     id="defs26" /><sodipodi:namedview
     pagecolor="#ffffff"
     bordercolor="#666666"
     borderopacity="1"
     objecttolerance="10"
     gridtolerance="10"
     guidetolerance="10"
     inkscape:pageopacity="0"
     inkscape:pageshadow="2"
     inkscape:window-width="668"
     inkscape:window-height="480"
     id="namedview24"
     showgrid="false"
     inkscape:zoom="1.888"
     inkscape:cx="50"
     inkscape:cy="62.5"
     inkscape:window-x="65"
     inkscape:window-y="24"
     inkscape:window-maximized="0"
     inkscape:current-layer="svg2" /><g
     id="g4"><rect
       x="36.213"
       y="43.757"
       width="27.574"
       height="12.485"
       id="rect6" /><path
       d="M98.611,43.757h-2.437v12.485h2.437c0.764,0,1.389-0.626,1.389-1.39v-9.707C100,44.382,99.375,43.757,98.611,43.757z"
       id="path8" /><path
       d="M1.389,43.757C0.625,43.757,0,44.382,0,45.146v9.707c0,0.764,0.625,1.39,1.389,1.39h2.437V43.757H1.389z"
       id="path10" /><path
       d="M32.383,24.484h-9.754c-0.765,0-1.389,0.625-1.389,1.389v17.883v12.485v17.883c0,0.764,0.624,1.389,1.389,1.389h9.754   c0.764,0,1.389-0.625,1.389-1.389V56.242V43.757V25.874C33.771,25.11,33.146,24.484,32.383,24.484z"
       id="path12" /><path
       d="M17.41,30.563H7.655c-0.764,0-1.389,0.625-1.389,1.389v11.804v12.485v11.803c0,0.764,0.625,1.389,1.389,1.389h9.755   c0.762,0,1.389-0.625,1.389-1.389V56.242V43.757V31.953C18.799,31.189,18.172,30.563,17.41,30.563z"
       id="path14" /><path
       d="M77.371,24.484h-9.754c-0.764,0-1.389,0.625-1.389,1.389v17.883v12.485v17.885c0,0.764,0.625,1.389,1.389,1.389h9.754   c0.764,0,1.389-0.625,1.389-1.389V56.242V43.757V25.874C78.76,25.11,78.135,24.484,77.371,24.484z"
       id="path16" /><path
       d="M92.345,30.565H82.59c-0.764,0-1.389,0.625-1.389,1.389v11.803v12.485v11.804c0,0.764,0.625,1.389,1.389,1.389h9.755   c0.764,0,1.389-0.625,1.389-1.389V56.242V43.757V31.954C93.733,31.19,93.108,30.565,92.345,30.565z"
       id="path18" /></g></svg>