<?xml version="1.0" encoding="UTF-8" standalone="no"?>
<svg
   xmlns:dc="http://purl.org/dc/elements/1.1/"
   xmlns:cc="http://creativecommons.org/ns#"
   xmlns:rdf="http://www.w3.org/1999/02/22-rdf-syntax-ns#"
   xmlns:svg="http://www.w3.org/2000/svg"
   xmlns="http://www.w3.org/2000/svg"
   xmlns:sodipodi="http://sodipodi.sourceforge.net/DTD/sodipodi-0.dtd"
   xmlns:inkscape="http://www.inkscape.org/namespaces/inkscape"
   version="1.1"
   x="0px"
   y="0px"
   viewBox="0 0 100 100"
   enable-background="new 0 0 100 100"
   xml:space="preserve"
   id="svg2"
   inkscape:version="0.91 r13725"
   sodipodi:docname="noun_591066_cc.svg"
   width="100"
   height="100"><metadata
     id="metadata14"><rdf:RDF><cc:Work
         rdf:about=""><dc:format>image/svg+xml</dc:format><dc:type
           rdf:resource="http://purl.org/dc/dcmitype/StillImage" /><dc:title></dc:title></cc:Work></rdf:RDF></metadata><defs
     id="defs12" /><sodipodi:namedview
     pagecolor="#ffffff"
     bordercolor="#666666"
     borderopacity="1"
     objecttolerance="10"
     gridtolerance="10"
     guidetolerance="10"
     inkscape:pageopacity="0"
     inkscape:pageshadow="2"
     inkscape:window-width="676"
     inkscape:window-height="480"
     id="namedview10"
     showgrid="false"
     inkscape:zoom="1.888"
     inkscape:cx="52.118644"
     inkscape:cy="62.5"
     inkscape:window-x="0"
     inkscape:window-y="24"
     inkscape:window-maximized="0"
     inkscape:current-layer="svg2" /><path
     d="m 84.219,26.517531 c -8.202,-6.162 -17.584,-10.243 -27.312,-13.252 -4.391,-1.358 -9.73,-0.993 -13.78,1.642 -3.7,2.408 -12.542,5.072 -16.869,6.139 -9.629,2.373 -17.33,7.881 -19.647,17.196 -4.229,17.005 8.899,49.264 8.899,49.264 0.073,-0.497 0.07,-1.006 0.072,-1.504 0.033,-7.939 0.203,-15.883 -0.021,-23.815 -0.177,-6.285 3.423,-9.894 8.631,-12.141 4.062,-1.752 7.316,0.547 10.473,3.088 7.15,5.757 15.363,8.063 24.588,6.323 0.565,-0.107 -2.519,-0.065 -3.779,-2.485 6.57,-1.001 13.343,1.332 19.531,-1.363 4.778,-2.081 6.114,0.45 6.71,4.044 0.429,2.584 0.24,5.273 0.248,7.915 0.022,6.63 0.012,13.266 0.009,19.937 0,0 12.251,-35.495 12.252,-41.006 0.004,-8.221 -3.324,-14.963 -10.005,-19.982 z"
     id="path4"
     inkscape:connector-curvature="0" /></svg>