<?xml version="1.0" encoding="UTF-8" standalone="no"?>
<svg
   xmlns:dc="http://purl.org/dc/elements/1.1/"
   xmlns:cc="http://creativecommons.org/ns#"
   xmlns:rdf="http://www.w3.org/1999/02/22-rdf-syntax-ns#"
   xmlns:svg="http://www.w3.org/2000/svg"
   xmlns="http://www.w3.org/2000/svg"
   xmlns:sodipodi="http://sodipodi.sourceforge.net/DTD/sodipodi-0.dtd"
   xmlns:inkscape="http://www.inkscape.org/namespaces/inkscape"
   version="1.1"
   x="0px"
   y="0px"
   viewBox="-120 78.1 43.326271 42.265946"
   xml:space="preserve"
   id="svg2"
   inkscape:version="0.48.4 r9939"
   width="100%"
   height="100%"
   sodipodi:docname="Doctor.svg"><metadata
     id="metadata18"><rdf:RDF><cc:Work
         rdf:about=""><dc:format>image/svg+xml</dc:format><dc:type
           rdf:resource="http://purl.org/dc/dcmitype/StillImage" /><dc:title></dc:title></cc:Work></rdf:RDF></metadata><defs
     id="defs16" /><sodipodi:namedview
     pagecolor="#ffffff"
     bordercolor="#666666"
     borderopacity="1"
     objecttolerance="10"
     gridtolerance="10"
     guidetolerance="10"
     inkscape:pageopacity="0"
     inkscape:pageshadow="2"
     inkscape:window-width="725"
     inkscape:window-height="735"
     id="namedview14"
     showgrid="false"
     fit-margin-top="0"
     fit-margin-left="0"
     fit-margin-right="0"
     fit-margin-bottom="0"
     inkscape:zoom="3.776"
     inkscape:cx="15.059726"
     inkscape:cy="21.307196"
     inkscape:window-x="114"
     inkscape:window-y="170"
     inkscape:window-maximized="0"
     inkscape:current-layer="g4372" /><g
     id="g3032"
     transform="translate(-155.56163,70.646133)"><g
       id="g3082"
       transform="translate(-11.778449,-19.681681)"><g
         id="g3297"
         transform="translate(113.35527,48.840676)"><g
           id="g3451"
           transform="translate(-110.35024,-41.106017)"><g
             id="g3508"
             transform="translate(37.661621,37.801481)"><g
               id="g3556"
               transform="translate(-33.173714,-53.557494)"><g
                 id="g3600"
                 transform="translate(1.6437441,2.3337983)"><g
                   id="g3673"
                   transform="translate(3.1326802,-1.9259882)"><g
                     id="g3728"
                     transform="translate(16.15499,5.0801784)"><g
                       id="g3774"
                       transform="matrix(1.3062103,0,0,1.1506075,-1.2423141,14.177607)"><g
                         id="g3814"
                         transform="matrix(0.76557355,0,0,0.86910615,-9.6088369,-25.571004)"><g
                           id="g3898"
                           transform="translate(-253.23308,-590.39679)"><g
                             id="g4071"
                             transform="translate(255.74688,596.01847)"><g
                               id="g4160"
                               transform="translate(-2.9830857,2.4410756)"><g
                                 id="g4272"
                                 transform="matrix(0.87809547,0,0,0.86067766,11.546476,7.0690494)"><g
                                   id="g4327"
                                   transform="matrix(1.1388283,0,0,1.1618751,13.689337,21.712146)"><g
                                   id="g4372"
                                   transform="translate(0.89151921,1.2290808)"><g
                                   id="g4410"
                                   transform="matrix(0.43326271,0,0,0.4226637,8.7199452,9.8654478)"><polygon
                                   id="polygon4400"
                                   points="42.2,57.8 42.2,87.456 57.801,87.456 57.801,57.8 87.457,57.8 87.457,42.199 57.801,42.199 57.801,12.543 42.2,12.543 42.2,42.199 12.544,42.199 12.544,57.8 " /><path
                                   id="path4402"
                                   d="M 50,99.999 C 22.429,99.999 0,77.57 0,50 0,22.43 22.429,0 50,0 c 27.57,0 50,22.43 50,50 0,27.57 -22.429,49.999 -50,49.999 l 0,0 z M 50,5.4 C 25.406,5.4 5.4,25.407 5.4,50 5.4,74.593 25.406,94.6 50,94.6 74.592,94.6 94.599,74.593 94.599,50 94.599,25.407 74.592,5.4 50,5.4 l 0,0 z"
                                   inkscape:connector-curvature="0" /></g></g></g></g></g></g></g></g></g></g></g></g></g></g></g></g></g></g></svg>