<?xml version="1.0" encoding="UTF-8" standalone="no"?>
<svg
   xmlns:dc="http://purl.org/dc/elements/1.1/"
   xmlns:cc="http://creativecommons.org/ns#"
   xmlns:rdf="http://www.w3.org/1999/02/22-rdf-syntax-ns#"
   xmlns:svg="http://www.w3.org/2000/svg"
   xmlns="http://www.w3.org/2000/svg"
   xmlns:sodipodi="http://sodipodi.sourceforge.net/DTD/sodipodi-0.dtd"
   xmlns:inkscape="http://www.inkscape.org/namespaces/inkscape"
   data-name="Layer 1"
   viewBox="0 0 98 102.25"
   x="0px"
   y="0px"
   version="1.1"
   id="svg10"
   sodipodi:docname="Hotel.svg"
   inkscape:version="0.92.5 (2060ec1f9f, 2020-04-08)">
  <metadata
     id="metadata16">
    <rdf:RDF>
      <cc:Work
         rdf:about="">
        <dc:format>image/svg+xml</dc:format>
        <dc:type
           rdf:resource="http://purl.org/dc/dcmitype/StillImage" />
        <dc:title>200 Hotel 2 stars</dc:title>
      </cc:Work>
    </rdf:RDF>
  </metadata>
  <defs
     id="defs14" />
  <sodipodi:namedview
     pagecolor="#ffffff"
     bordercolor="#666666"
     borderopacity="1"
     objecttolerance="10"
     gridtolerance="10"
     guidetolerance="10"
     inkscape:pageopacity="0"
     inkscape:pageshadow="2"
     inkscape:window-width="691"
     inkscape:window-height="480"
     id="namedview12"
     showgrid="false"
     inkscape:zoom="2.3080685"
     inkscape:cx="54.415784"
     inkscape:cy="51.125"
     inkscape:window-x="0"
     inkscape:window-y="0"
     inkscape:window-maximized="0"
     inkscape:current-layer="svg10" />
  <title
     id="title2">200 Hotel 2 stars</title>
  <g
     id="g19"
     transform="matrix(0.87621087,0,0,0.87621087,6.0656674,15.2737)">
    <path
       id="path4"
       transform="translate(-1,-9.16)"
       d="M 89.84,39 H 83.17 V 19.61 h 7.6 A 1.2751961,1.2751961 0 0 0 91,17.07 H 4.85 v -6.76 a 1.27,1.27 0 0 0 -2.53,0 v 16 a 1.27,1.27 0 1 0 2.53,0 v -6.7 H 17.93 V 39 H 10.16 A 9.17,9.17 0 0 0 1,48.18 V 81.79 A 9.17,9.17 0 0 0 10.16,91 H 89.84 A 9.17,9.17 0 0 0 99,81.79 V 48.18 A 9.17,9.17 0 0 0 89.84,39 Z M 20.47,19.61 H 80.63 V 39 H 20.47 Z M 48.2,62 42.14,66.4 A 0.38,0.38 0 0 0 42,66.82 l 2.3,7.12 a 0.38,0.38 0 0 1 -0.58,0.42 L 37.66,70 a 0.38,0.38 0 0 0 -0.45,0 l -6.06,4.4 a 0.38,0.38 0 0 1 -0.58,-0.42 l 2.32,-7.13 A 0.38,0.38 0 0 0 32.75,66.43 L 26.69,62 a 0.38,0.38 0 0 1 0.22,-0.69 h 7.48 a 0.38,0.38 0 0 0 0.36,-0.26 l 2.32,-7.13 a 0.38,0.38 0 0 1 0.72,0 L 40.11,61 a 0.38,0.38 0 0 0 0.36,0.26 H 48 a 0.38,0.38 0 0 1 0.2,0.7 z m 25,0 -6.06,4.4 A 0.38,0.38 0 0 0 67,66.82 l 2.3,7.12 a 0.38,0.38 0 0 1 -0.58,0.42 L 62.66,70 a 0.38,0.38 0 0 0 -0.45,0 l -6.06,4.4 a 0.38,0.38 0 0 1 -0.58,-0.42 l 2.32,-7.13 A 0.38,0.38 0 0 0 57.75,66.43 L 51.69,62 a 0.38,0.38 0 0 1 0.22,-0.69 h 7.48 a 0.38,0.38 0 0 0 0.36,-0.26 l 2.32,-7.13 a 0.38,0.38 0 0 1 0.72,0 L 65.11,61 a 0.38,0.38 0 0 0 0.36,0.26 H 73 a 0.38,0.38 0 0 1 0.2,0.7 z"
       inkscape:connector-curvature="0" />
  </g>
</svg>
