<?xml version="1.0" encoding="UTF-8" standalone="no"?>
<svg
   xmlns:dc="http://purl.org/dc/elements/1.1/"
   xmlns:cc="http://creativecommons.org/ns#"
   xmlns:rdf="http://www.w3.org/1999/02/22-rdf-syntax-ns#"
   xmlns:svg="http://www.w3.org/2000/svg"
   xmlns="http://www.w3.org/2000/svg"
   xmlns:sodipodi="http://sodipodi.sourceforge.net/DTD/sodipodi-0.dtd"
   xmlns:inkscape="http://www.inkscape.org/namespaces/inkscape"
   viewBox="0 0 100 100"
   x="0px"
   y="0px"
   version="1.1"
   id="svg26"
   sodipodi:docname="Laundry.svg"
   width="100"
   height="100"
   inkscape:version="0.92.5 (2060ec1f9f, 2020-04-08)">
  <metadata
     id="metadata32">
    <rdf:RDF>
      <cc:Work
         rdf:about="">
        <dc:format>image/svg+xml</dc:format>
        <dc:type
           rdf:resource="http://purl.org/dc/dcmitype/StillImage" />
        <dc:title>laundry</dc:title>
      </cc:Work>
    </rdf:RDF>
  </metadata>
  <defs
     id="defs30" />
  <sodipodi:namedview
     pagecolor="#ffffff"
     bordercolor="#666666"
     borderopacity="1"
     objecttolerance="10"
     gridtolerance="10"
     guidetolerance="10"
     inkscape:pageopacity="0"
     inkscape:pageshadow="2"
     inkscape:window-width="1680"
     inkscape:window-height="884"
     id="namedview28"
     showgrid="false"
     inkscape:zoom="2.95"
     inkscape:cx="36.237288"
     inkscape:cy="40"
     inkscape:window-x="0"
     inkscape:window-y="0"
     inkscape:window-maximized="1"
     inkscape:current-layer="svg26" />
  <title
     id="title2">laundry</title>
  <g
     id="g43"
     transform="translate(5.1670699,-19.966102)">
    <g
       transform="matrix(1.6416465,0,0,1.6416465,-7.6997579,17.433414)"
       id="g20">
      <path
         inkscape:connector-curvature="0"
         id="path4"
         d="M 50,4 H 14 a 2,2 0 0 0 -2,2 v 52 a 2,2 0 0 0 2,2 h 36 a 2,2 0 0 0 2,-2 V 6 A 2,2 0 0 0 50,4 Z M 14,14 H 50 V 50 H 14 Z M 50,6 v 6 H 14 V 6 Z M 14,58 v -6 h 36 v 6 z" />
      <path
         inkscape:connector-curvature="0"
         id="path6"
         d="m 33.25,17.5 a 14.51,14.51 0 0 0 -13.77,10 h -2.23 a 1,1 0 0 0 -1,1 v 7 a 1,1 0 0 0 1,1 h 2.23 a 14.49,14.49 0 1 0 13.77,-19 z m -15,12 h 5.33 a 9.63,9.63 0 0 0 0,5 h -5.33 z m 7.63,5.62 v 0 a 7.94,7.94 0 0 1 0,-6.2 v 0 a 8,8 0 1 1 0,6.24 z m 7.37,9.38 a 12.52,12.52 0 0 1 -11.66,-8 h 2.74 a 10,10 0 1 0 0,-9 h -2.74 a 12.5,12.5 0 1 1 11.66,17 z" />
      <path
         inkscape:connector-curvature="0"
         id="path8"
         d="m 47,10 v 0 a 1,1 0 1 0 -1,-1 1,1 0 0 0 1,1 z" />
      <path
         inkscape:connector-curvature="0"
         id="path10"
         d="m 44,10 v 0 a 1,1 0 1 0 -1,-1 1,1 0 0 0 1,1 z" />
      <path
         inkscape:connector-curvature="0"
         id="path12"
         d="m 41,10 v 0 a 1,1 0 1 0 -1,-1 1,1 0 0 0 1,1 z" />
      <path
         inkscape:connector-curvature="0"
         id="path14"
         d="m 38,10 v 0 a 1,1 0 1 0 -1,-1 1,1 0 0 0 1,1 z" />
      <path
         inkscape:connector-curvature="0"
         id="path16"
         d="m 22,55 h -6 a 1,1 0 0 0 0,2 h 6 a 1,1 0 0 0 0,-2 z" />
      <path
         inkscape:connector-curvature="0"
         id="path18"
         d="m 35,10 v 0 a 1,1 0 1 0 -1,-1 1,1 0 0 0 1,1 z" />
    </g>
  </g>
</svg>
