<?xml version="1.0" encoding="UTF-8" standalone="no"?>
<svg
   xmlns:dc="http://purl.org/dc/elements/1.1/"
   xmlns:cc="http://creativecommons.org/ns#"
   xmlns:rdf="http://www.w3.org/1999/02/22-rdf-syntax-ns#"
   xmlns:svg="http://www.w3.org/2000/svg"
   xmlns="http://www.w3.org/2000/svg"
   xmlns:sodipodi="http://sodipodi.sourceforge.net/DTD/sodipodi-0.dtd"
   xmlns:inkscape="http://www.inkscape.org/namespaces/inkscape"
   version="1.1"
   x="0px"
   y="0px"
   viewBox="0 0 86.000001 87.437001"
   enable-background="new 0 0 100 100"
   xml:space="preserve"
   id="svg2"
   inkscape:version="0.92.5 (2060ec1f9f, 2020-04-08)"
   width="100%"
   height="100%"
   sodipodi:docname="Laundry.svg"><metadata
     id="metadata30"><rdf:RDF><cc:Work
         rdf:about=""><dc:format>image/svg+xml</dc:format><dc:type
           rdf:resource="http://purl.org/dc/dcmitype/StillImage" /><dc:title /></cc:Work></rdf:RDF></metadata><defs
     id="defs28" /><sodipodi:namedview
     pagecolor="#ffffff"
     bordercolor="#666666"
     borderopacity="1"
     objecttolerance="10"
     gridtolerance="10"
     guidetolerance="10"
     inkscape:pageopacity="0"
     inkscape:pageshadow="2"
     inkscape:window-width="1440"
     inkscape:window-height="824"
     id="namedview26"
     showgrid="false"
     fit-margin-top="0"
     fit-margin-left="0"
     fit-margin-right="0"
     fit-margin-bottom="0"
     inkscape:zoom="3.6203867"
     inkscape:cx="-4.7582134"
     inkscape:cy="36.210015"
     inkscape:window-x="0"
     inkscape:window-y="0"
     inkscape:window-maximized="1"
     inkscape:current-layer="g6983" /><g
     id="g3217"
     transform="translate(-1223.0264,7591.7825)"><g
       id="g3355"
       transform="translate(0.52596752,-1.51338)"><g
         id="g3394"
         transform="translate(-1.304037,6.1068216)"><g
           id="g3432"
           transform="translate(1.3243604,-7.0685396)"><g
             id="g3490"
             transform="translate(14.50543,16.201175)"><g
               id="g3544"
               transform="translate(1.7832223,7.9070624)"><g
                 id="g3595"
                 transform="translate(9.5264836,-0.46901412)"><g
                   id="g3646"
                   transform="translate(-52.35165,-3.5880634)"><g
                     id="g3767"
                     transform="translate(6.0048559,8.7552768)"><g
                       id="g4075"
                       transform="translate(0.55239017,0.07303033)"><g
                         id="g4264"
                         transform="translate(3.0880737,-2.6377741)"><g
                           id="g4355"
                           transform="translate(8.4601992,5.328404)"><g
                             id="g4421"
                             transform="translate(-6.5255081,7.0858766)"><g
                               id="g4462"
                               transform="translate(25.518018,13.531166)"><g
                                 id="g4500"
                                 transform="translate(80.26127,-61.023322)"><g
                                   id="g5344"
                                   transform="translate(-17.614831,53.929153)"><g
                                   id="g5294"
                                   display="none"
                                   style="display:none"><rect
                                   id="rect5296"
                                   height="196"
                                   width="394.5"
                                   display="inline"
                                   y="-80.754997"
                                   x="-43.5"
                                   style="fill:#000000;display:inline" /></g><g
                                   id="g5316"
                                   display="none"
                                   style="display:none"><g
                                   id="g5318"
                                   display="inline"
                                   style="display:inline"><path
                                   id="path5320"
                                   d="M 1.581,10.718 H 30.418 L 16,1.051 1.581,10.718 z M 17.592,6.594 c 0,0.879 -0.713,1.592 -1.592,1.592 -0.879,0 -1.592,-0.713 -1.592,-1.592 0,-0.879 0.713,-1.592 1.592,-1.592 0.879,0 1.592,0.712 1.592,1.592 z"
                                   inkscape:connector-curvature="0" /><rect
                                   id="rect5322"
                                   height="3.0209999"
                                   width="31"
                                   y="28.030001"
                                   x="0.5" /><rect
                                   id="rect5324"
                                   height="11.875"
                                   width="3.0209999"
                                   y="13.363"
                                   x="3.6670001" /><rect
                                   id="rect5326"
                                   height="11.875"
                                   width="3.0209999"
                                   y="13.363"
                                   x="8.349" /><rect
                                   id="rect5328"
                                   height="11.875"
                                   width="3.0209999"
                                   y="13.363"
                                   x="20.629999" /><rect
                                   id="rect5330"
                                   height="11.875"
                                   width="3.0209999"
                                   y="13.363"
                                   x="25.312" /></g><path
                                   id="path5332"
                                   d="m 19.055,22.809 c -0.386,0.262 -1.035,0.524 -1.857,0.524 -1.01,0 -1.907,-0.386 -2.53,-1.11 -0.474,-0.524 -0.785,-1.246 -0.897,-2.144 h -0.773 v -0.611 h 0.711 c 0,-0.062 0,-0.125 0,-0.187 0,-0.2 0.012,-0.387 0.025,-0.561 h -0.735 v -0.624 h 0.823 c 0.15,-0.872 0.524,-1.595 1.022,-2.106 0.636,-0.66 1.446,-1.035 2.468,-1.035 0.735,0 1.309,0.212 1.658,0.399 l -0.249,0.822 c -0.312,-0.187 -0.835,-0.349 -1.396,-0.349 -0.673,0 -1.221,0.237 -1.645,0.685 -0.374,0.361 -0.623,0.922 -0.748,1.583 h 3.478 v 0.624 h -3.59 c -0.013,0.162 -0.025,0.349 -0.025,0.523 0,0.075 0,0.137 0,0.225 h 3.615 v 0.611 h -3.53 c 0.1,0.723 0.349,1.259 0.685,1.633 0.461,0.486 1.085,0.723 1.757,0.723 0.661,0 1.234,-0.249 1.521,-0.411 l 0.212,0.786 z"
                                   display="inline"
                                   inkscape:connector-curvature="0"
                                   style="display:inline" /></g><g
                                   id="g5453"
                                   transform="translate(-52.625356,-10.750909)"><g
                                   id="g5403"
                                   display="none"
                                   style="display:none"><rect
                                   id="rect5405"
                                   height="196"
                                   width="394.5"
                                   display="inline"
                                   y="-80.754997"
                                   x="-43.5"
                                   style="fill:#000000;display:inline" /></g><g
                                   id="g5425"
                                   display="none"
                                   style="display:none"><g
                                   id="g5427"
                                   display="inline"
                                   style="display:inline"><path
                                   id="path5429"
                                   d="M 1.581,10.718 H 30.418 L 16,1.051 1.581,10.718 z M 17.592,6.594 c 0,0.879 -0.713,1.592 -1.592,1.592 -0.879,0 -1.592,-0.713 -1.592,-1.592 0,-0.879 0.713,-1.592 1.592,-1.592 0.879,0 1.592,0.712 1.592,1.592 z"
                                   inkscape:connector-curvature="0" /><rect
                                   id="rect5431"
                                   height="3.0209999"
                                   width="31"
                                   y="28.030001"
                                   x="0.5" /><rect
                                   id="rect5433"
                                   height="11.875"
                                   width="3.0209999"
                                   y="13.363"
                                   x="3.6670001" /><rect
                                   id="rect5435"
                                   height="11.875"
                                   width="3.0209999"
                                   y="13.363"
                                   x="8.349" /><rect
                                   id="rect5437"
                                   height="11.875"
                                   width="3.0209999"
                                   y="13.363"
                                   x="20.629999" /><rect
                                   id="rect5439"
                                   height="11.875"
                                   width="3.0209999"
                                   y="13.363"
                                   x="25.312" /></g><path
                                   id="path5441"
                                   d="m 19.055,22.809 c -0.386,0.262 -1.035,0.524 -1.857,0.524 -1.01,0 -1.907,-0.386 -2.53,-1.11 -0.474,-0.524 -0.785,-1.246 -0.897,-2.144 h -0.773 v -0.611 h 0.711 c 0,-0.062 0,-0.125 0,-0.187 0,-0.2 0.012,-0.387 0.025,-0.561 h -0.735 v -0.624 h 0.823 c 0.15,-0.872 0.524,-1.595 1.022,-2.106 0.636,-0.66 1.446,-1.035 2.468,-1.035 0.735,0 1.309,0.212 1.658,0.399 l -0.249,0.822 c -0.312,-0.187 -0.835,-0.349 -1.396,-0.349 -0.673,0 -1.221,0.237 -1.645,0.685 -0.374,0.361 -0.623,0.922 -0.748,1.583 h 3.478 v 0.624 h -3.59 c -0.013,0.162 -0.025,0.349 -0.025,0.523 0,0.075 0,0.137 0,0.225 h 3.615 v 0.611 h -3.53 c 0.1,0.723 0.349,1.259 0.685,1.633 0.461,0.486 1.085,0.723 1.757,0.723 0.661,0 1.234,-0.249 1.521,-0.411 l 0.212,0.786 z"
                                   display="inline"
                                   inkscape:connector-curvature="0"
                                   style="display:inline" /></g><g
                                   id="g5911"
                                   transform="translate(34.803917,-34.731522)"><g
                                   id="g5969"
                                   transform="translate(-76.820846,20.463898)"><g
                                   id="g6024"
                                   transform="translate(-1.5269147,1.6004891)"><g
                                   id="g6071"
                                   transform="translate(7.3886843,1.0351706)"><g
                                   id="g6187"
                                   transform="translate(-0.71000052,-4.6322855)"><g
                                   id="g6263"
                                   transform="translate(-0.66737304,-5.3488176)"><g
                                   id="g6319"
                                   transform="translate(0.79720466,3.5647493)"><g
                                   id="g6384"
                                   transform="translate(-9.1472004,2.261335)"><g
                                   id="g6488"
                                   transform="translate(-2.0348122,-3.4042665)"><g
                                   id="g6516"
                                   transform="translate(-0.63832329,-2.3294036)"><g
                                   id="g6769"
                                   transform="translate(1565.7794,-3801.8487)"><g
                                   id="g6910"
                                   transform="translate(-308.09512,-3790.9493)"><g
                                   id="g6983"
                                   transform="translate(-14.231122,-15.611848)"><g
                                   style="fill-rule:evenodd"
                                   id="g11275"
                                   transform="matrix(0.84879393,0,0,0.92972968,7.7034282,3.355651)"><path
                                   id="path11277"
                                   d="m 18.776,6.89767 h 62.1108 c 0.822051,0 1.49443,0.672381 1.49443,1.49443 v 83.5544 c 0,0.822051 -0.672381,1.49443 -1.49443,1.49443 H 18.776 c -0.822051,0 -1.49443,-0.672381 -1.49443,-1.49443 V 8.3921 c 0,-0.822051 0.672381,-1.49443 1.49443,-1.49443 z"
                                   class="fil0 str0"
                                   inkscape:connector-curvature="0"
                                   style="fill:none;stroke:#0a0b0c;stroke-width:5.66932011" /><line
                                   id="line11279"
                                   y2="20.871"
                                   x2="82.381302"
                                   y1="20.871"
                                   x1="17.281601"
                                   class="fil0 str1"
                                   style="fill:none;stroke:#0a0b0c;stroke-width:3.77955008" /><path
                                   id="path11281"
                                   d="m 49.8314,28.4479 c 13.2594,0 24.0126,10.7528 24.0126,24.0122 0,13.2594 -10.7532,24.0126 -24.0126,24.0126 -13.2594,0 -24.0122,-10.7532 -24.0122,-24.0126 0,-13.2594 10.7528,-24.0122 24.0122,-24.0122 z"
                                   class="fil0 str0"
                                   inkscape:connector-curvature="0"
                                   style="fill:none;stroke:#0a0b0c;stroke-width:5.66932011" /><path
                                   id="path11283"
                                   d="m 26.3699,57.1592 1.95705,-1.20832 c 0.26419,-0.162898 0.413482,-0.429734 0.413482,-0.740413 v -2.75038 m -2.37053,-4.69873 1.95705,1.20832 c 0.26419,0.162898 0.413482,0.429734 0.413482,0.740413 v 2.75"
                                   class="fil0 str0"
                                   inkscape:connector-curvature="0"
                                   style="fill:none;stroke:#0a0b0c;stroke-width:5.66932011" /><line
                                   id="line11285"
                                   y2="86.626801"
                                   x2="82.381302"
                                   y1="86.626801"
                                   x1="15.7879"
                                   class="fil0 str1"
                                   style="fill:none;stroke:#0a0b0c;stroke-width:3.77955008" /><path
                                   id="path11287"
                                   d="m 49.8314,36.5588 c 8.78064,0 15.9013,7.12067 15.9013,15.9013 0,8.78064 -7.12067,15.9013 -15.9013,15.9013 -8.78064,0 -15.9013,-7.12067 -15.9013,-15.9013 0,-8.78064 7.12067,-15.9013 15.9013,-15.9013 z"
                                   class="fil0 str2"
                                   inkscape:connector-curvature="0"
                                   style="fill:none;stroke:#0a0b0c;stroke-width:2.83466005" /><path
                                   id="path11289"
                                   d="m 63.0651,12.44 c 1.06092,0 1.92077,0.860225 1.92077,1.92077 0,1.06092 -0.859847,1.92114 -1.92077,1.92114 -1.06092,0 -1.92114,-0.860225 -1.92114,-1.92114 0,-1.06054 0.860225,-1.92077 1.92114,-1.92077 z"
                                   class="fil1 str3"
                                   inkscape:connector-curvature="0"
                                   style="fill:#0a0b0c;stroke:#0a0b0c;stroke-width:0.75590903" /><path
                                   id="path11291"
                                   d="m 70.6424,12.44 c 1.06054,0 1.92077,0.860225 1.92077,1.92077 0,1.06092 -0.860225,1.92114 -1.92077,1.92114 -1.06092,0 -1.92114,-0.860225 -1.92114,-1.92114 0,-1.06054 0.860225,-1.92077 1.92114,-1.92077 z"
                                   class="fil1 str3"
                                   inkscape:connector-curvature="0"
                                   style="fill:#0a0b0c;stroke:#0a0b0c;stroke-width:0.75590903" /><path
                                   id="path11293"
                                   d="m 49.8106,37.6617 c 8.17138,0 14.7984,6.62706 14.7984,14.7984 0,8.17176 -6.62706,14.7984 -14.7984,14.7984 -8.17176,0 -14.7988,-6.62668 -14.7988,-14.7984 0,-8.17138 6.62706,-14.7984 14.7988,-14.7984 z"
                                   class="fil0 str3"
                                   inkscape:connector-curvature="0"
                                   style="fill:none;stroke:#0a0b0c;stroke-width:0.75590903" /><path
                                   id="path11295"
                                   d="m 35.2042,49.5105 c 0.798996,0.146268 9.35665,-4.30906 15.1087,2.44726 5.75171,6.75632 11.3254,6.56696 13.7402,2.29834 2.11239,-3.73457 -0.102426,6.97289 -5.58768,10.4697 -5.48526,3.49684 -14.5184,2.37053 -16.8628,0.239623 -2.34445,-2.13091 -7.35122,-7.13276 -6.39839,-15.4549 z"
                                   class="fil1"
                                   inkscape:connector-curvature="0"
                                   style="fill:#0a0b0c" /><path
                                   id="path11297"
                                   d="m 55.8129,59.5392 c 0.942619,0 1.7076,0.76498 1.7076,1.7076 0,0.942997 -0.76498,1.7076 -1.7076,1.7076 -0.942619,0 -1.7076,-0.764602 -1.7076,-1.7076 0,-0.942619 0.76498,-1.7076 1.7076,-1.7076 z"
                                   class="fil2"
                                   inkscape:connector-curvature="0"
                                   style="fill:#ffffff" /><path
                                   id="path11299"
                                   d="m 52.2159,57.9877 c 0.414238,0 0.749862,0.336002 0.749862,0.749862 0,0.414238 -0.335624,0.75024 -0.749862,0.75024 -0.41386,0 -0.749862,-0.336002 -0.749862,-0.75024 0,-0.41386 0.336002,-0.749862 0.749862,-0.749862 z"
                                   class="fil2"
                                   inkscape:connector-curvature="0"
                                   style="fill:#ffffff" /></g></g></g></g></g></g></g></g></g></g></g></g></g></g></g></g></g></g></g></g></g></g></g></g></g></g></g></g></g></g></g></svg>