<?xml version="1.0" encoding="UTF-8" standalone="no"?>
<svg
   xmlns:dc="http://purl.org/dc/elements/1.1/"
   xmlns:cc="http://creativecommons.org/ns#"
   xmlns:rdf="http://www.w3.org/1999/02/22-rdf-syntax-ns#"
   xmlns:svg="http://www.w3.org/2000/svg"
   xmlns="http://www.w3.org/2000/svg"
   xmlns:sodipodi="http://sodipodi.sourceforge.net/DTD/sodipodi-0.dtd"
   xmlns:inkscape="http://www.inkscape.org/namespaces/inkscape"
   version="1.1"
   x="0px"
   y="0px"
   viewBox="0 0 100 100"
   enable-background="new 0 0 25 25"
   xml:space="preserve"
   id="svg8"
   sodipodi:docname="Library.svg"
   width="100"
   height="100"
   inkscape:version="0.92.5 (2060ec1f9f, 2020-04-08)"><metadata
     id="metadata14"><rdf:RDF><cc:Work
         rdf:about=""><dc:format>image/svg+xml</dc:format><dc:type
           rdf:resource="http://purl.org/dc/dcmitype/StillImage" /><dc:title></dc:title></cc:Work></rdf:RDF></metadata><defs
     id="defs12" /><sodipodi:namedview
     pagecolor="#ffffff"
     bordercolor="#666666"
     borderopacity="1"
     objecttolerance="10"
     gridtolerance="10"
     guidetolerance="10"
     inkscape:pageopacity="0"
     inkscape:pageshadow="2"
     inkscape:window-width="1680"
     inkscape:window-height="884"
     id="namedview10"
     showgrid="false"
     inkscape:zoom="2.6700352"
     inkscape:cx="-47.610489"
     inkscape:cy="24.997306"
     inkscape:window-x="0"
     inkscape:window-y="0"
     inkscape:window-maximized="1"
     inkscape:current-layer="svg8" /><g
     id="g17"
     transform="matrix(4.3548272,0,0,4.3548272,-7.3285026,-306.00646)"><path
       inkscape:connector-curvature="0"
       id="path2"
       d="m 20.613,72.96 c -0.021,-0.131 -0.094,-0.249 -0.2,-0.326 -0.106,-0.077 -0.235,-0.109 -0.373,-0.088 l -3.949,0.638 C 16.057,73.19 16.026,73.208 15.994,73.22 15.979,72.958 15.766,72.75 15.5,72.75 h -4 -4 -4 c -0.276,0 -0.5,0.224 -0.5,0.5 v 17 c 0,0.275 0.224,0.5 0.5,0.5 h 4 4 4 c 0.275,0 0.5,-0.225 0.5,-0.5 V 75.754 l 2.387,14.785 c 0.021,0.131 0.094,0.248 0.2,0.326 0.086,0.063 0.188,0.095 0.293,0.095 0.026,0 0.054,-0.002 0.08,-0.006 l 3.949,-0.638 c 0.272,-0.045 0.458,-0.301 0.413,-0.573 z M 5,74.75 c 0,-0.276 0.224,-0.5 0.5,-0.5 0.276,0 0.5,0.224 0.5,0.5 v 3 c 0,0.276 -0.224,0.5 -0.5,0.5 -0.276,0 -0.5,-0.224 -0.5,-0.5 z m 2,15 H 4 v -2 h 3 z m 2,-15 c 0,-0.276 0.224,-0.5 0.5,-0.5 0.276,0 0.5,0.224 0.5,0.5 v 3 c 0,0.276 -0.224,0.5 -0.5,0.5 -0.276,0 -0.5,-0.224 -0.5,-0.5 z m 2,15 H 8 v -2 h 3 z m 2,-15 c 0,-0.276 0.225,-0.5 0.5,-0.5 0.275,0 0.5,0.224 0.5,0.5 v 3 c 0,0.276 -0.225,0.5 -0.5,0.5 -0.275,0 -0.5,-0.224 -0.5,-0.5 z m 2,15 h -3 v -2 h 3 z m 3.943,-11.456 c -0.026,0.004 -0.055,0.006 -0.082,0.006 -0.238,0 -0.451,-0.174 -0.49,-0.42 l -0.479,-2.96 c -0.045,-0.272 0.142,-0.529 0.412,-0.573 0.276,-0.048 0.53,0.141 0.572,0.414 l 0.479,2.96 c 0.045,0.272 -0.14,0.529 -0.412,0.573 z m 0.351,11.593 -0.317,-1.975 2.961,-0.479 0.318,1.975 z" /></g></svg>