<?xml version="1.0" encoding="UTF-8" standalone="no"?>
<svg
   xmlns:dc="http://purl.org/dc/elements/1.1/"
   xmlns:cc="http://creativecommons.org/ns#"
   xmlns:rdf="http://www.w3.org/1999/02/22-rdf-syntax-ns#"
   xmlns:svg="http://www.w3.org/2000/svg"
   xmlns="http://www.w3.org/2000/svg"
   xmlns:sodipodi="http://sodipodi.sourceforge.net/DTD/sodipodi-0.dtd"
   xmlns:inkscape="http://www.inkscape.org/namespaces/inkscape"
   viewBox="0 0 99.999994 100"
   version="1.1"
   x="0px"
   y="0px"
   id="svg10"
   sodipodi:docname="Mall.svg"
   width="100"
   height="100"
   inkscape:version="0.92.5 (2060ec1f9f, 2020-04-08)">
  <metadata
     id="metadata16">
    <rdf:RDF>
      <cc:Work
         rdf:about="">
        <dc:format>image/svg+xml</dc:format>
        <dc:type
           rdf:resource="http://purl.org/dc/dcmitype/StillImage" />
        <dc:title></dc:title>
      </cc:Work>
    </rdf:RDF>
  </metadata>
  <defs
     id="defs14" />
  <sodipodi:namedview
     pagecolor="#ffffff"
     bordercolor="#666666"
     borderopacity="1"
     objecttolerance="10"
     gridtolerance="10"
     guidetolerance="10"
     inkscape:pageopacity="0"
     inkscape:pageshadow="2"
     inkscape:window-width="1680"
     inkscape:window-height="884"
     id="namedview12"
     showgrid="false"
     inkscape:zoom="2.7874014"
     inkscape:cx="42.65931"
     inkscape:cy="0.79890754"
     inkscape:window-x="0"
     inkscape:window-y="0"
     inkscape:window-maximized="1"
     inkscape:current-layer="svg10" />
  <g
     id="g4"
     transform="matrix(10.745763,0,0,10.745763,4.5096034,4.5096032)">
    <path
       style="color:#000000;font-style:normal;font-variant:normal;font-weight:normal;font-stretch:normal;font-size:medium;line-height:normal;font-family:sans-serif;font-variant-ligatures:normal;font-variant-position:normal;font-variant-caps:normal;font-variant-numeric:normal;font-variant-alternates:normal;font-feature-settings:normal;text-indent:0;text-align:start;text-decoration:none;text-decoration-line:none;text-decoration-style:solid;text-decoration-color:#000000;letter-spacing:normal;word-spacing:normal;text-transform:none;writing-mode:lr-tb;direction:ltr;text-orientation:mixed;dominant-baseline:auto;baseline-shift:baseline;text-anchor:start;white-space:normal;shape-padding:0;clip-rule:nonzero;display:inline;overflow:visible;visibility:visible;opacity:1;isolation:auto;mix-blend-mode:normal;color-interpolation:sRGB;color-interpolation-filters:linearRGB;solid-color:#000000;solid-opacity:1;vector-effect:none;fill:#000000;fill-opacity:1;fill-rule:nonzero;stroke:none;stroke-width:0.5291667;stroke-linecap:round;stroke-linejoin:round;stroke-miterlimit:4;stroke-dasharray:none;stroke-dashoffset:0;stroke-opacity:1;paint-order:stroke fill markers;color-rendering:auto;image-rendering:auto;shape-rendering:auto;text-rendering:auto;enable-background:accumulate"
       d="M 3.8015772,-1.1431494e-7 C 3.1802059,-1.1431494e-7 2.6708962,0.50775951 2.6708962,1.1291299 V 1.7947224 H 3.2000629 V 1.1291299 c 0,-0.33736535 0.2641468,-0.59996335 0.6015143,-0.59996335 h 0.8650631 c 0.337365,0 0.5999639,0.262598 0.5999639,0.59996335 V 1.7947224 H 5.7957709 V 1.1291299 C 5.7957709,0.50775951 5.2880116,-1.1431494e-7 4.6666403,-1.1431494e-7 Z M 5.7957709,1.7947224 v 0.7766967 c 0.00802,0.360698 -0.5371756,0.360698 -0.5291667,0 V 1.7947224 H 3.2000629 v 0.7766967 c -0.00762,0.3450641 -0.5215361,0.3450641 -0.5291667,0 V 1.7947224 H 1.5123123 c -0.00844,-4.048e-4 -0.016883,-4.048e-4 -0.025323,0 C 1.3593381,1.8071038 1.2589446,1.909241 1.2487608,2.0370848 L 0.71959416,8.1798624 c -0.012991,0.1542991 0.10870671,0.2867302 0.26355146,0.2868041 H 7.4830055 C 7.6380567,8.4668951 7.7600772,8.3343661 7.7470729,8.1798624 L 7.2173903,2.0370848 C 7.205828,1.9001027 7.0913084,1.7947855 6.9538389,1.7947224 Z"
       id="path2"
       inkscape:connector-curvature="0" />
  </g>
</svg>
