<?xml version="1.0" encoding="UTF-8" standalone="no"?>
<svg
   xmlns:dc="http://purl.org/dc/elements/1.1/"
   xmlns:cc="http://creativecommons.org/ns#"
   xmlns:rdf="http://www.w3.org/1999/02/22-rdf-syntax-ns#"
   xmlns:svg="http://www.w3.org/2000/svg"
   xmlns="http://www.w3.org/2000/svg"
   xmlns:sodipodi="http://sodipodi.sourceforge.net/DTD/sodipodi-0.dtd"
   xmlns:inkscape="http://www.inkscape.org/namespaces/inkscape"
   version="1.1"
   x="0px"
   y="0px"
   viewBox="0 0 100 100"
   xml:space="preserve"
   id="svg8"
   sodipodi:docname="Marketplace.svg"
   width="100"
   height="100"
   inkscape:version="0.92.5 (2060ec1f9f, 2020-04-08)"><metadata
     id="metadata14"><rdf:RDF><cc:Work
         rdf:about=""><dc:format>image/svg+xml</dc:format><dc:type
           rdf:resource="http://purl.org/dc/dcmitype/StillImage" /><dc:title></dc:title></cc:Work></rdf:RDF></metadata><defs
     id="defs12" /><sodipodi:namedview
     pagecolor="#ffffff"
     bordercolor="#666666"
     borderopacity="1"
     objecttolerance="10"
     gridtolerance="10"
     guidetolerance="10"
     inkscape:pageopacity="0"
     inkscape:pageshadow="2"
     inkscape:window-width="691"
     inkscape:window-height="480"
     id="namedview10"
     showgrid="false"
     inkscape:zoom="1.888"
     inkscape:cx="56.620763"
     inkscape:cy="62.5"
     inkscape:window-x="0"
     inkscape:window-y="0"
     inkscape:window-maximized="0"
     inkscape:current-layer="svg8" /><path
     d="m 88.539549,32.565439 c 0,-0.0092 0,-0.0092 0,-0.01836 0,-0.0367 -0.0092,-0.07341 -0.0092,-0.110119 -0.0092,-0.10094 -0.01836,-0.192697 -0.0367,-0.284458 0,-0.0092 0,-0.01836 0,-0.0367 l -5.50563,-22.02259 C 82.776971,9.2765405 82.042884,8.7076238 81.198684,8.7076238 H 65.599343 50.000002 34.40066 18.80132 c -0.8442,0 -1.578287,0.5689167 -1.780161,1.3947642 l -5.505648,22.022599 c 0,0.0092 0,0.01836 0,0.0367 -0.01836,0.09176 -0.02752,0.192698 -0.0367,0.284459 -0.0092,0.02752 -0.01836,0.06424 -0.01836,0.10094 0,0.0092 0,0.0092 0,0.01836 v 3.670431 c 0,2.78953 1.046074,5.322128 2.762001,7.267458 0,0.02752 -0.0092,0.04588 -0.0092,0.07341 v 45.880414 c 0,1.009369 0.825848,1.835217 1.835217,1.835217 h 9.176081 16.51695 33.033899 9.176082 c 1.009369,0 1.835216,-0.825848 1.835216,-1.835217 V 43.576738 c 0,-0.02752 -0.0092,-0.04588 -0.0092,-0.07341 1.715928,-1.94533 2.762002,-4.477929 2.762002,-7.267458 z m -3.670432,3.670432 c 0,4.046654 -3.294215,7.340867 -7.340866,7.340867 -4.046653,0 -7.340867,-3.294213 -7.340867,-7.340867 v -1.835216 h 14.681733 z m -18.352165,0 c 0,4.046654 -3.294214,7.340867 -7.340868,7.340867 -4.046652,0 -7.340867,-3.294213 -7.340867,-7.340867 v -1.835216 h 14.681735 z m -18.352167,0 c 0,4.046654 -3.294213,7.340867 -7.340865,7.340867 -4.046653,0 -7.340867,-3.294213 -7.340867,-7.340867 v -1.835216 h 14.681732 z m -18.352166,0 c 0,4.046654 -3.294212,7.340867 -7.340865,7.340867 -4.046653,0 -7.340866,-3.294213 -7.340866,-7.340867 V 34.400655 H 29.812619 Z M 84.355255,30.730222 H 69.976334 l -2.29402,-18.352165 h 12.084902 z m -18.086058,0 H 51.835217 V 12.378057 h 12.13996 z M 48.164784,12.378057 V 30.730222 H 33.730807 l 2.29402,-18.352165 z m -27.931995,0 H 32.31769 L 30.02367,30.730222 H 15.644748 Z M 43.576744,56.423255 H 72.940208 V 78.445853 H 43.576744 Z M 39.90631,87.621935 H 27.059794 V 56.423255 H 39.90631 Z m 3.670434,0 v -5.50565 h 29.363464 v 5.50565 z m 33.033897,0 V 54.588038 c 0,-1.009369 -0.825846,-1.835217 -1.835216,-1.835217 H 41.741527 25.224577 c -1.009369,0 -1.835217,0.825848 -1.835217,1.835217 V 87.621935 H 17.883712 V 46.228626 c 1.394764,0.642326 2.945522,1.018545 4.588041,1.018545 3.826426,0 7.203225,-1.963682 9.176082,-4.936732 1.972859,2.97305 5.349657,4.936732 9.176085,4.936732 3.826427,0 7.203225,-1.963682 9.176082,-4.936732 1.972857,2.97305 5.349657,4.936732 9.176083,4.936732 3.826426,0 7.203226,-1.963682 9.176083,-4.936732 1.972858,2.97305 5.349656,4.936732 9.176083,4.936732 1.64252,0 3.193277,-0.367043 4.588041,-1.018545 v 41.393309 z"
     id="path2"
     inkscape:connector-curvature="0"
     style="stroke-width:0.91760826" /></svg>