<?xml version="1.0" encoding="UTF-8" standalone="no"?>
<svg
   xmlns:dc="http://purl.org/dc/elements/1.1/"
   xmlns:cc="http://creativecommons.org/ns#"
   xmlns:rdf="http://www.w3.org/1999/02/22-rdf-syntax-ns#"
   xmlns:svg="http://www.w3.org/2000/svg"
   xmlns="http://www.w3.org/2000/svg"
   xmlns:sodipodi="http://sodipodi.sourceforge.net/DTD/sodipodi-0.dtd"
   xmlns:inkscape="http://www.inkscape.org/namespaces/inkscape"
   data-name="Layer 1"
   viewBox="0 0 100 100"
   x="0px"
   y="0px"
   version="1.1"
   id="svg10"
   sodipodi:docname="Monument.svg"
   width="100"
   height="100"
   inkscape:version="0.92.5 (2060ec1f9f, 2020-04-08)">
  <metadata
     id="metadata16">
    <rdf:RDF>
      <cc:Work
         rdf:about="">
        <dc:format>image/svg+xml</dc:format>
        <dc:type
           rdf:resource="http://purl.org/dc/dcmitype/StillImage" />
        <dc:title>city elements solid ai</dc:title>
      </cc:Work>
    </rdf:RDF>
  </metadata>
  <defs
     id="defs14" />
  <sodipodi:namedview
     pagecolor="#ffffff"
     bordercolor="#666666"
     borderopacity="1"
     objecttolerance="10"
     gridtolerance="10"
     guidetolerance="10"
     inkscape:pageopacity="0"
     inkscape:pageshadow="2"
     inkscape:window-width="691"
     inkscape:window-height="480"
     id="namedview12"
     showgrid="false"
     inkscape:zoom="1.475"
     inkscape:cx="72.474576"
     inkscape:cy="80"
     inkscape:window-x="0"
     inkscape:window-y="0"
     inkscape:window-maximized="0"
     inkscape:current-layer="svg10" />
  <title
     id="title2">city elements solid ai</title>
  <path
     d="m 83.574153,93.791904 h -8.062322 a 72.111849,72.111849 0 0 1 -9.62244,-15.521557 4.3796241,4.3796241 0 0 0 -1.291933,-8.564248 h -2.198793 a 120.58679,120.58679 0 0 1 -3.633242,-12.408568 1.4593954,1.4593954 0 0 0 -0.0069,-2.918762 H 58.108341 A 166.21103,166.21103 0 0 1 54.579478,22.264363 h 0.164696 a 1.4597458,1.4597458 0 0 0 0,-2.919492 h -0.15801 c 0.006,-0.365206 0.01296,-0.645412 0.01831,-0.827881 l 1.543499,-3.668611 a 1.4595049,1.4595049 0 0 0 -0.446551,-1.71634 L 51.459744,9.8173225 v -5.069909 a 1.4597458,1.4597458 0 0 0 -2.919491,0 v 5.197585 l -3.988639,3.1984485 a 1.4595487,1.4595487 0 0 0 -0.457959,1.639718 L 45.480698,18.579 c 0.01105,0.259004 0.01292,0.508248 0.02263,0.765871 h -0.247499 a 1.4597458,1.4597458 0 0 0 0,2.919492 h 0.333661 a 135.3163,135.3163 0 0 1 -3.040886,32.114406 h -1.307078 a 1.4597458,1.4597458 0 0 0 0,2.919491 h 0.617436 A 109.89047,109.89047 0 0 1 37.98303,69.706099 h -2.580487 a 4.376909,4.376909 0 0 0 -1.143711,8.602377 81.302292,81.302292 0 0 1 -9.76351,15.483428 h -8.069474 a 1.459746,1.459746 0 0 0 0,2.919492 h 67.148305 a 1.459746,1.459746 0 0 0 0,-2.919492 z M 48.51357,22.264363 h 3.122141 c 0.0118,3.061816 0.136895,7.631054 0.612312,13.137711 h -4.058538 c 0.286088,-4.167056 0.411269,-8.537651 0.324085,-13.137711 z M 44.861695,57.29826 h 10.803017 a 123.57059,123.57059 0 0 0 3.562633,12.407839 H 41.091712 A 113.71374,113.71374 0 0 0 44.861695,57.29826 Z m -3.61433,36.493644 a 8.7526611,8.7526611 0 1 1 17.505322,0 z M 64.597458,75.545082 H 35.402543 a 1.4597458,1.4597458 0 0 1 0,-2.919491 h 29.194915 a 1.4597458,1.4597458 0 0 1 0,2.919491 z"
     id="path4"
     inkscape:connector-curvature="0"
     style="stroke-width:0.72987288" />
</svg>
