<?xml version="1.0" encoding="UTF-8" standalone="no"?>
<svg
   xmlns:dc="http://purl.org/dc/elements/1.1/"
   xmlns:cc="http://creativecommons.org/ns#"
   xmlns:rdf="http://www.w3.org/1999/02/22-rdf-syntax-ns#"
   xmlns:svg="http://www.w3.org/2000/svg"
   xmlns="http://www.w3.org/2000/svg"
   xmlns:sodipodi="http://sodipodi.sourceforge.net/DTD/sodipodi-0.dtd"
   xmlns:inkscape="http://www.inkscape.org/namespaces/inkscape"
   version="1.1"
   x="0px"
   y="0px"
   viewBox="0 0 100 100"
   enable-background="new 0 0 50 50"
   xml:space="preserve"
   id="svg10"
   sodipodi:docname="Motel.svg"
   width="100"
   height="100"
   inkscape:version="0.92.5 (2060ec1f9f, 2020-04-08)"><metadata
     id="metadata16"><rdf:RDF><cc:Work
         rdf:about=""><dc:format>image/svg+xml</dc:format><dc:type
           rdf:resource="http://purl.org/dc/dcmitype/StillImage" /><dc:title></dc:title></cc:Work></rdf:RDF></metadata><defs
     id="defs14" /><sodipodi:namedview
     pagecolor="#ffffff"
     bordercolor="#666666"
     borderopacity="1"
     objecttolerance="10"
     gridtolerance="10"
     guidetolerance="10"
     inkscape:pageopacity="0"
     inkscape:pageshadow="2"
     inkscape:window-width="1680"
     inkscape:window-height="884"
     id="namedview12"
     showgrid="false"
     inkscape:zoom="3.776"
     inkscape:cx="36.413431"
     inkscape:cy="32.661469"
     inkscape:window-x="0"
     inkscape:window-y="0"
     inkscape:window-maximized="1"
     inkscape:current-layer="svg10" /><g
     id="g4"
     transform="matrix(1.979697,0,0,1.979697,0.507575,0.50746502)"><path
       d="M 40.192,15.969 H 9.808 v -2.587 h 30.383 v 2.587 z m -3.844,5.689 H 13.652 V 18.813 H 36.348 Z M 5.222,24.502 H 44.777 V 36.614 C 31.592,36.615 18.407,36.62 5.222,36.616 Z m 6.84,1.779 H 7.241 v 2.853 h 4.821 z m 2.853,0 v 2.853 h 4.821 v -2.853 z m 7.675,0 v 2.853 h 4.821 v -2.853 z m 4.821,5.706 H 22.59 v 2.853 h 4.821 z m 2.853,0 v 2.853 h 4.821 v -2.853 z m 0,-2.853 h 4.821 v -2.853 h -4.821 z m 7.675,-2.853 v 2.853 h 4.821 v -2.853 z m 4.821,5.706 H 37.939 V 34.84 H 42.76 Z M 19.736,34.84 v -2.853 h -4.821 v 2.853 z m -7.674,0 V 31.987 H 7.241 V 34.84 Z M 10.808,21.658 H 2.378 V 36.61 H 0 v 2.849 c 14.733,0.007 35.268,0 50,0 V 36.61 H 47.622 V 21.658 h -8.429 v -2.845 h 3.843 V 10.538 H 6.964 v 8.275 h 3.843 v 2.845 z"
       id="path2"
       inkscape:connector-curvature="0"
       style="clip-rule:evenodd;fill-rule:evenodd" /></g></svg>