<?xml version="1.0" encoding="UTF-8" standalone="no"?>
<svg
   xmlns:dc="http://purl.org/dc/elements/1.1/"
   xmlns:cc="http://creativecommons.org/ns#"
   xmlns:rdf="http://www.w3.org/1999/02/22-rdf-syntax-ns#"
   xmlns:svg="http://www.w3.org/2000/svg"
   xmlns="http://www.w3.org/2000/svg"
   xmlns:sodipodi="http://sodipodi.sourceforge.net/DTD/sodipodi-0.dtd"
   xmlns:inkscape="http://www.inkscape.org/namespaces/inkscape"
   version="1.1"
   x="0px"
   y="0px"
   viewBox="0 0 86.202997 84.083998"
   enable-background="new 0 0 100 100"
   xml:space="preserve"
   id="svg2"
   inkscape:version="0.91 r13725"
   width="100%"
   height="100%"
   sodipodi:docname="Motorcycle Shop.svg"><metadata
     id="metadata30"><rdf:RDF><cc:Work
         rdf:about=""><dc:format>image/svg+xml</dc:format><dc:type
           rdf:resource="http://purl.org/dc/dcmitype/StillImage" /><dc:title /></cc:Work></rdf:RDF></metadata><defs
     id="defs28" /><sodipodi:namedview
     pagecolor="#ffffff"
     bordercolor="#666666"
     borderopacity="1"
     objecttolerance="10"
     gridtolerance="10"
     guidetolerance="10"
     inkscape:pageopacity="0"
     inkscape:pageshadow="2"
     inkscape:window-width="1680"
     inkscape:window-height="974"
     id="namedview26"
     showgrid="false"
     fit-margin-top="0"
     fit-margin-left="0"
     fit-margin-right="0"
     fit-margin-bottom="0"
     inkscape:zoom="7.2407734"
     inkscape:cx="-13.486097"
     inkscape:cy="40.819855"
     inkscape:window-x="0"
     inkscape:window-y="24"
     inkscape:window-maximized="1"
     inkscape:current-layer="g6769" /><g
     id="g3217"
     transform="translate(-1545.2506,3783.5434)"><g
       id="g3355"
       transform="translate(0.52596752,-1.51338)"><g
         id="g3394"
         transform="translate(-1.304037,6.1068216)"><g
           id="g3432"
           transform="translate(1.3243604,-7.0685396)"><g
             id="g3490"
             transform="translate(14.50543,16.201175)"><g
               id="g3544"
               transform="translate(1.7832223,7.9070624)"><g
                 id="g3595"
                 transform="translate(9.5264836,-0.46901412)"><g
                   id="g3646"
                   transform="translate(-52.35165,-3.5880634)"><g
                     id="g3767"
                     transform="translate(6.0048559,8.7552768)"><g
                       id="g4075"
                       transform="translate(0.55239017,0.07303033)"><g
                         id="g4264"
                         transform="translate(3.0880737,-2.6377741)"><g
                           id="g4355"
                           transform="translate(8.4601992,5.328404)"><g
                             id="g4421"
                             transform="translate(-6.5255081,7.0858766)"><g
                               id="g4462"
                               transform="translate(25.518018,13.531166)"><g
                                 id="g4500"
                                 transform="translate(80.26127,-61.023322)"><g
                                   id="g5344"
                                   transform="translate(-17.614831,53.929153)"><g
                                   id="g5294"
                                   display="none"
                                   style="display:none"><rect
                                   id="rect5296"
                                   height="196"
                                   width="394.5"
                                   display="inline"
                                   y="-80.754997"
                                   x="-43.5"
                                   style="fill:#000000;display:inline" /></g><g
                                   id="g5316"
                                   display="none"
                                   style="display:none"><g
                                   id="g5318"
                                   display="inline"
                                   style="display:inline"><path
                                   id="path5320"
                                   d="M 1.581,10.718 H 30.418 L 16,1.051 1.581,10.718 z M 17.592,6.594 c 0,0.879 -0.713,1.592 -1.592,1.592 -0.879,0 -1.592,-0.713 -1.592,-1.592 0,-0.879 0.713,-1.592 1.592,-1.592 0.879,0 1.592,0.712 1.592,1.592 z"
                                   inkscape:connector-curvature="0" /><rect
                                   id="rect5322"
                                   height="3.0209999"
                                   width="31"
                                   y="28.030001"
                                   x="0.5" /><rect
                                   id="rect5324"
                                   height="11.875"
                                   width="3.0209999"
                                   y="13.363"
                                   x="3.6670001" /><rect
                                   id="rect5326"
                                   height="11.875"
                                   width="3.0209999"
                                   y="13.363"
                                   x="8.349" /><rect
                                   id="rect5328"
                                   height="11.875"
                                   width="3.0209999"
                                   y="13.363"
                                   x="20.629999" /><rect
                                   id="rect5330"
                                   height="11.875"
                                   width="3.0209999"
                                   y="13.363"
                                   x="25.312" /></g><path
                                   id="path5332"
                                   d="m 19.055,22.809 c -0.386,0.262 -1.035,0.524 -1.857,0.524 -1.01,0 -1.907,-0.386 -2.53,-1.11 -0.474,-0.524 -0.785,-1.246 -0.897,-2.144 h -0.773 v -0.611 h 0.711 c 0,-0.062 0,-0.125 0,-0.187 0,-0.2 0.012,-0.387 0.025,-0.561 h -0.735 v -0.624 h 0.823 c 0.15,-0.872 0.524,-1.595 1.022,-2.106 0.636,-0.66 1.446,-1.035 2.468,-1.035 0.735,0 1.309,0.212 1.658,0.399 l -0.249,0.822 c -0.312,-0.187 -0.835,-0.349 -1.396,-0.349 -0.673,0 -1.221,0.237 -1.645,0.685 -0.374,0.361 -0.623,0.922 -0.748,1.583 h 3.478 v 0.624 h -3.59 c -0.013,0.162 -0.025,0.349 -0.025,0.523 0,0.075 0,0.137 0,0.225 h 3.615 v 0.611 h -3.53 c 0.1,0.723 0.349,1.259 0.685,1.633 0.461,0.486 1.085,0.723 1.757,0.723 0.661,0 1.234,-0.249 1.521,-0.411 l 0.212,0.786 z"
                                   display="inline"
                                   inkscape:connector-curvature="0"
                                   style="display:inline" /></g><g
                                   id="g5453"
                                   transform="translate(-52.625356,-10.750909)"><g
                                   id="g5403"
                                   display="none"
                                   style="display:none"><rect
                                   id="rect5405"
                                   height="196"
                                   width="394.5"
                                   display="inline"
                                   y="-80.754997"
                                   x="-43.5"
                                   style="fill:#000000;display:inline" /></g><g
                                   id="g5425"
                                   display="none"
                                   style="display:none"><g
                                   id="g5427"
                                   display="inline"
                                   style="display:inline"><path
                                   id="path5429"
                                   d="M 1.581,10.718 H 30.418 L 16,1.051 1.581,10.718 z M 17.592,6.594 c 0,0.879 -0.713,1.592 -1.592,1.592 -0.879,0 -1.592,-0.713 -1.592,-1.592 0,-0.879 0.713,-1.592 1.592,-1.592 0.879,0 1.592,0.712 1.592,1.592 z"
                                   inkscape:connector-curvature="0" /><rect
                                   id="rect5431"
                                   height="3.0209999"
                                   width="31"
                                   y="28.030001"
                                   x="0.5" /><rect
                                   id="rect5433"
                                   height="11.875"
                                   width="3.0209999"
                                   y="13.363"
                                   x="3.6670001" /><rect
                                   id="rect5435"
                                   height="11.875"
                                   width="3.0209999"
                                   y="13.363"
                                   x="8.349" /><rect
                                   id="rect5437"
                                   height="11.875"
                                   width="3.0209999"
                                   y="13.363"
                                   x="20.629999" /><rect
                                   id="rect5439"
                                   height="11.875"
                                   width="3.0209999"
                                   y="13.363"
                                   x="25.312" /></g><path
                                   id="path5441"
                                   d="m 19.055,22.809 c -0.386,0.262 -1.035,0.524 -1.857,0.524 -1.01,0 -1.907,-0.386 -2.53,-1.11 -0.474,-0.524 -0.785,-1.246 -0.897,-2.144 h -0.773 v -0.611 h 0.711 c 0,-0.062 0,-0.125 0,-0.187 0,-0.2 0.012,-0.387 0.025,-0.561 h -0.735 v -0.624 h 0.823 c 0.15,-0.872 0.524,-1.595 1.022,-2.106 0.636,-0.66 1.446,-1.035 2.468,-1.035 0.735,0 1.309,0.212 1.658,0.399 l -0.249,0.822 c -0.312,-0.187 -0.835,-0.349 -1.396,-0.349 -0.673,0 -1.221,0.237 -1.645,0.685 -0.374,0.361 -0.623,0.922 -0.748,1.583 h 3.478 v 0.624 h -3.59 c -0.013,0.162 -0.025,0.349 -0.025,0.523 0,0.075 0,0.137 0,0.225 h 3.615 v 0.611 h -3.53 c 0.1,0.723 0.349,1.259 0.685,1.633 0.461,0.486 1.085,0.723 1.757,0.723 0.661,0 1.234,-0.249 1.521,-0.411 l 0.212,0.786 z"
                                   display="inline"
                                   inkscape:connector-curvature="0"
                                   style="display:inline" /></g><g
                                   id="g5911"
                                   transform="translate(34.803917,-34.731522)"><g
                                   id="g5969"
                                   transform="translate(-76.820846,20.463898)"><g
                                   id="g6024"
                                   transform="translate(-1.5269147,1.6004891)"><g
                                   id="g6071"
                                   transform="translate(7.3886843,1.0351706)"><g
                                   id="g6187"
                                   transform="translate(-0.71000052,-4.6322855)"><g
                                   id="g6263"
                                   transform="translate(-0.66737304,-5.3488176)"><g
                                   id="g6319"
                                   transform="translate(0.79720466,3.5647493)"><g
                                   id="g6384"
                                   transform="translate(-9.1472004,2.261335)"><g
                                   id="g6488"
                                   transform="translate(-2.0348122,-3.4042665)"><g
                                   id="g6516"
                                   transform="translate(-0.63832329,-2.3294036)"><g
                                   id="g6769"
                                   transform="translate(1565.7794,-3801.8487)"><g
                                   transform="matrix(0.66234635,0,0,0.66234635,28.313164,4.8186266)"
                                   id="g18"><path
                                   inkscape:connector-curvature="0"
                                   d="m 56.07,29.299 c 0.932,0 1.736,-0.641 1.949,-1.547 L 63.455,10.041 C 63.705,8.964 63.037,7.888 61.961,7.637 60.885,7.386 59.811,8.054 59.559,9.128 l -0.574,2.446 -36.763,0 -1.062,-4.99 C 20.964,5.66 20.148,5 19.203,5 L 10.017,5 C 8.912,5 8.015,5.896 8.015,7 c 0,1.105 0.896,2.002 2.002,2.002 l 7.566,0 5.094,23.925 c -0.004,0.019 -0.014,0.035 -0.018,0.055 l -1.303,6.385 c -0.1,0.488 0.025,0.996 0.342,1.383 0.314,0.385 0.787,0.609 1.285,0.609 l 33.584,0 c 0.918,0 1.66,-0.744 1.66,-1.66 0,-0.916 -0.742,-1.66 -1.66,-1.66 l -31.552,0 0.691,-3.384 30.364,-5.356 z"
                                   id="path20" /><path
                                   inkscape:connector-curvature="0"
                                   d="m 27.062,45.003 c -2.598,0 -4.703,2.104 -4.703,4.699 0,2.6 2.105,4.701 4.703,4.701 2.596,0 4.699,-2.102 4.699,-4.701 0,-2.596 -2.103,-4.699 -4.699,-4.699 z"
                                   id="path22" /><path
                                   inkscape:connector-curvature="0"
                                   d="m 51.894,45.003 c -2.598,0 -4.701,2.104 -4.701,4.699 0,2.6 2.104,4.701 4.701,4.701 2.596,0 4.699,-2.102 4.699,-4.701 0,-2.596 -2.103,-4.699 -4.699,-4.699 z"
                                   id="path24" /></g><g
                                   transform="matrix(-0.94837129,0,0,0.94837129,97.619443,19.035544)"
                                   id="g4"><path
                                   inkscape:connector-curvature="0"
                                   d="M 25.8,52.3 23,50.7 c -0.2,-0.1 -0.7,0.1 -0.8,0.3 l -2.3,7.1 c -0.8,0.5 -1.4,1.3 -1.4,2.4 0,1.5 1.2,2.7 2.7,2.7 1.5,0 2.7,-1.2 2.7,-2.7 0,-0.4 -0.1,-0.7 -0.2,-1.1 l 2.4,-6.3 c 0.1,-0.3 0,-0.6 -0.3,-0.8 z"
                                   id="path6" /><path
                                   inkscape:connector-curvature="0"
                                   d="m 32.7,62 4.1,0 c 0.1,0 0.2,-0.1 0.2,-0.2 0.1,-0.4 0.1,-1 0.1,-1.4 0,-5.8 -3,-10.9 -7.6,-13.7 l -1.8,4.5 c 2.8,2.1 4.8,5.4 4.8,9.2 0,0.4 0,0.8 -0.1,1.3 0,0.2 0.2,0.3 0.3,0.3 z"
                                   id="path8" /><path
                                   inkscape:connector-curvature="0"
                                   d="m 27,51.6 0.1,-0.2 C 27.2,51.2 27,50.7 26.8,50.6 l -3,-1.6 c -0.3,-0.2 -0.7,0 -0.8,0.3 l -0.1,0.2 c -0.1,0.2 0.1,0.5 0.3,0.7 l 3,1.6 C 26.5,52 26.8,52 27,51.6 Z"
                                   id="path10" /><path
                                   inkscape:connector-curvature="0"
                                   d="m 17.8,39.7 8.7,1.1 -0.1,0.1 c -0.1,0.2 0.1,0.5 0.3,0.7 l 3,1.6 c 0.2,0.1 0.5,0.1 0.7,-0.2 l 0.8,-1.6 7.1,0.9 c 1.2,0.1 2.3,-0.8 2.4,-2 l 0.5,-4.9 c 0.2,-1.5 -0.9,-2.5 -2.3,-2.5 L 17.8,33 c -2.8,0 -4.1,6.1 0,6.7 z"
                                   id="path12" /><path
                                   inkscape:connector-curvature="0"
                                   d="m 74.7,35.5 c 0.1,0.4 0.5,0.5 1,0.5 l 1.3,0 c 0.5,0 1.1,-0.4 1.1,-1 0.3,-4.7 3.3,-7 0,-7 L 74,28 c -0.9,0 -1.5,0.8 -1.2,1.6 l 1.9,5.9 z"
                                   id="path14" /><path
                                   inkscape:connector-curvature="0"
                                   d="M 47.9,51.8 44.7,44.7 C 44.6,44.4 44.3,44 43.9,44 L 32,42.8 c -0.5,1.1 -1,2 0.4,2.4 6,1.8 7.2,11 7.6,15.9 0.1,0.5 0.5,1 1.1,1 l 6.4,0.1 c 0.8,0 1.2,-1 0.8,-1.5 -2,-2.4 -1.2,-6.6 -0.4,-7.9 0.1,-0.4 0.1,-0.7 0,-1 z"
                                   id="path16" /><path
                                   inkscape:connector-curvature="0"
                                   d="m 28.3,48.4 0.1,-0.2 C 28.5,48 28.3,47.5 28.1,47.4 l -2.9,-1.6 c -0.3,-0.2 -0.7,0 -0.8,0.3 l -0.1,0.2 c -0.1,0.2 0.1,0.5 0.3,0.7 l 3,1.6 c 0.2,0.1 0.6,0.1 0.7,-0.2 z"
                                   id="path18" /><path
                                   inkscape:connector-curvature="0"
                                   d="m 58,52 2.2,-7.3 C 60.3,44.3 60,44 59.5,44 l -11.3,0 c -0.4,0 -0.7,0.4 -0.5,0.8 l 3,7.9 c -1,1 -1.6,2.4 -1.6,3.9 0,2.1 0.9,3.9 2.9,4.9 L 52,63 27.1,63 C 25.4,63 24,64.5 18,64.5 l 0,2.2 c 6,0 7.3,1.4 9.1,1.4 l 24.8,0 c 3.2,0 5.2,-1.5 5.2,-4.7 l 0,-1.4 c 2,-0.9 3.4,-2.9 3.4,-5.2 -0.1,-2 -1.1,-3.7 -2.5,-4.8 z"
                                   id="path20-3" /><path
                                   inkscape:connector-curvature="0"
                                   d="m 78.9,42.5 c -1.2,0 -2.4,0.1 -3.5,0.4 L 74.5,40.4 C 74.4,40.2 74,40 73.7,40.1 l -0.1,0 -1.2,-3 0.7,-0.3 c 0.2,-0.1 0.4,-0.5 0.3,-0.8 l -1.7,-4.9 c -0.1,-0.2 -0.5,-0.4 -0.8,-0.3 l -0.8,0.3 -2.2,-6 C 67.5,24 66.3,23 65.1,23 l -6.3,0 C 58.5,23 58,23.7 58,24 l 0,1.2 c 0,0.3 0.5,0.8 0.8,0.8 l 5.1,0 c 0.4,0 0.8,0.1 0.9,0.5 l 1.7,4.3 c -0.4,-0.3 -0.7,-0.5 -1.2,-0.5 -5.4,0 -15,2.8 -21.5,4.2 -0.9,0.2 -1.5,1 -1.6,1.8 L 42,40.4 c -0.1,1.3 1,2.6 2.3,2.6 l 21.1,0 c 1.7,-1 2.7,-2.2 3,-4.2 l 1.1,-0.5 1.2,2.9 c -0.3,0.1 -0.4,0.5 -0.3,0.7 l 1,2.5 c -5,2.7 -8.4,8 -8.4,14.1 0,8.9 7.2,16.1 16.1,16.1 8.9,0 16.1,-7.2 16.1,-16.1 -0.2,-8.8 -7.4,-16 -16.3,-16 z m 0,27.5 c -6.3,0 -11.4,-5.1 -11.4,-11.4 0,-4.1 2.2,-7.7 5.5,-9.7 l 3.5,8.6 c -0.2,0.4 -0.3,0.7 -0.3,1.2 0,1.5 1.2,2.7 2.7,2.7 1.5,0 2.7,-1.2 2.7,-2.7 0,-1 -0.5,-1.9 -1.4,-2.3 L 77,47.3 c 0.6,-0.1 1.3,-0.2 1.9,-0.2 6.3,0 11.4,5.1 11.4,11.4 0,6.4 -5.1,11.5 -11.4,11.5 z"
                                   id="path22-6" /><path
                                   inkscape:connector-curvature="0"
                                   d="m 34.1,69 -5.5,0 -0.1,0 c -2,2 -4.6,2.8 -7.4,2.8 C 14.8,71.8 9.7,66.7 9.7,60.4 9.7,54.1 14.8,49 21.1,49 c 0.4,0 0.9,0 1.3,0.1 l 1.5,-4.6 C 23,44.4 22.1,44.3 21.1,44.3 12.2,44.3 5,51.5 5,60.4 c 0,8.9 7.2,16.1 16.1,16.1 5.4,0 10.3,-2.8 13.3,-7 C 34.6,69.3 34.3,69 34.1,69 Z"
                                   id="path24-7" /><path
                                   inkscape:connector-curvature="0"
                                   d="m 27.5,49.9 0.1,-0.2 C 27.7,49.5 27.5,49 27.3,48.9 l -2.9,-1.6 c -0.3,-0.2 -0.7,0 -0.8,0.3 l -0.1,0.2 c -0.1,0.2 0.1,0.5 0.3,0.7 l 3,1.6 c 0.3,0.1 0.6,0.1 0.7,-0.2 z"
                                   id="path26" /><path
                                   inkscape:connector-curvature="0"
                                   d="m 25,44.2 -0.1,0.2 c -0.1,0.2 0.1,0.5 0.3,0.7 l 3,1.6 c 0.2,0.1 0.5,0.1 0.7,-0.2 L 29,46.3 c 0.1,-0.2 -0.1,-0.7 -0.3,-0.8 l -2.9,-1.6 c -0.4,-0.2 -0.7,0 -0.8,0.3 z"
                                   id="path28" /><path
                                   inkscape:connector-curvature="0"
                                   d="m 26,43.5 3,1.6 c 0.2,0.1 0.5,0.1 0.7,-0.2 l 0.1,-0.2 C 29.9,44.5 29.7,44 29.5,43.9 l -2.9,-1.6 c -0.3,-0.2 -0.7,0 -0.8,0.3 l -0.1,0.2 c -0.2,0.2 0.1,0.6 0.3,0.7 z"
                                   id="path30" /></g></g></g></g></g></g></g></g></g></g></g></g></g></g></g></g></g></g></g></g></g></g></g></g></g></g></g></g></g></svg>