<?xml version="1.0" encoding="UTF-8" standalone="no"?>
<svg
   xmlns:dc="http://purl.org/dc/elements/1.1/"
   xmlns:cc="http://creativecommons.org/ns#"
   xmlns:rdf="http://www.w3.org/1999/02/22-rdf-syntax-ns#"
   xmlns:svg="http://www.w3.org/2000/svg"
   xmlns="http://www.w3.org/2000/svg"
   xmlns:sodipodi="http://sodipodi.sourceforge.net/DTD/sodipodi-0.dtd"
   xmlns:inkscape="http://www.inkscape.org/namespaces/inkscape"
   version="1.1"
   x="0px"
   y="0px"
   viewBox="-120 78.1 80.3 89.9"
   xml:space="preserve"
   id="svg2"
   inkscape:version="0.48.4 r9939"
   width="100%"
   height="100%"
   sodipodi:docname="Gym.svg"><metadata
     id="metadata18"><rdf:RDF><cc:Work
         rdf:about=""><dc:format>image/svg+xml</dc:format><dc:type
           rdf:resource="http://purl.org/dc/dcmitype/StillImage" /><dc:title></dc:title></cc:Work></rdf:RDF></metadata><defs
     id="defs16" /><sodipodi:namedview
     pagecolor="#ffffff"
     bordercolor="#666666"
     borderopacity="1"
     objecttolerance="10"
     gridtolerance="10"
     guidetolerance="10"
     inkscape:pageopacity="0"
     inkscape:pageshadow="2"
     inkscape:window-width="725"
     inkscape:window-height="735"
     id="namedview14"
     showgrid="false"
     fit-margin-top="0"
     fit-margin-left="0"
     fit-margin-right="0"
     fit-margin-bottom="0"
     inkscape:zoom="2.6700352"
     inkscape:cx="29.584784"
     inkscape:cy="22.041165"
     inkscape:window-x="114"
     inkscape:window-y="170"
     inkscape:window-maximized="0"
     inkscape:current-layer="g3814" /><g
     id="g3032"
     transform="translate(-132.75243,110.35963)"><g
       id="g3082"
       transform="translate(-11.778449,-19.681681)"><g
         id="g3297"
         transform="translate(113.35527,48.840676)"><g
           id="g3451"
           transform="translate(-110.35024,-41.106017)"><g
             id="g3508"
             transform="translate(37.661621,37.801481)"><g
               id="g3556"
               transform="translate(-33.173714,-53.557494)"><g
                 id="g3600"
                 transform="translate(1.6437441,2.3337983)"><g
                   id="g3673"
                   transform="translate(3.1326802,-1.9259882)"><g
                     id="g3728"
                     transform="translate(16.15499,5.0801784)"><g
                       id="g3774"
                       transform="matrix(1.3062103,0,0,1.1506075,-1.2423141,14.177607)"><g
                         id="g3814"
                         transform="matrix(0.76557355,0,0,0.86910615,-9.6088369,-25.571004)"><path
                           id="path3802"
                           d="M 90,80.7 C 89.8,80.2 89.1,79.8 88.7,79.6 88.3,79.5 87.9,79.3 87.6,79.3 86.4,79 84.8,78.8 83,78.4 73.9,76.8 58.6,74.2 54.4,64.4 L 53.6,62.5 H 82 c 1.4,0 2.1,-0.4 2.3,-0.7 0.2,-0.3 0.5,-0.7 0.5,-1.2 0,-0.2 -0.1,-0.4 -0.1,-0.5 C 84.5,59.6 83.8,59.2 83.4,59 83,58.9 82.6,58.7 82.3,58.7 81.4,58.5 80.2,58.3 79,58 70.9,56.4 58.7,54 54.4,43.8 l -0.8,-1.9 h 17.7 c 1.4,0 2.1,-0.4 2.3,-0.7 0.2,-0.3 0.5,-0.7 0.5,-1.2 C 74.1,39.8 74,39.6 74,39.5 73.8,39 73.1,38.6 72.7,38.4 72.3,38.3 71.9,38.1 71.6,38.1 70.8,37.9 52.3,34.4 52.3,21.4 h 11 c 1.1,0 1.9,-0.3 2.3,-0.7 0.2,-0.3 0.5,-0.7 0.5,-1.2 0,-0.1 -0.1,-0.3 -0.1,-0.5 -0.2,-0.5 -0.9,-0.9 -1.3,-1.1 -0.3,-0.1 -0.6,-0.2 -0.8,-0.3 -0.1,0 -0.1,0 -0.2,0 h 0 c 0,0 -12,-2.6 -12,-10.7 l 0,0 c 0,0 0,-0.9 -0.7,-1.5 0,0 0,0 0,0 0,0 0,0 -0.1,0 -0.1,0 -0.1,-0.1 -0.2,-0.1 0,0 0,0 -0.1,0 0,0 -0.1,0 -0.1,0 -0.2,0 -0.3,-0.1 -0.5,-0.1 -0.2,0 -0.4,0 -0.5,0.1 0,0 -0.1,0 -0.1,0 0,0 -0.1,0 -0.1,0 -0.1,0 -0.1,0.1 -0.2,0.1 0,0 -0.1,0 -0.1,0 0,0 0,0 0,0 -0.7,0.5 -0.7,1.5 -0.7,1.5 l 0,0 c 0,8.2 -12,10.7 -12,10.7 h 0 c -0.1,0 -0.2,0 -0.2,0 -0.2,0.1 -0.5,0.1 -0.8,0.3 -0.5,0.2 -1.1,0.6 -1.3,1.1 -0.1,0.2 -0.1,0.4 -0.1,0.5 0,0.5 0.3,1 0.5,1.2 0.4,0.4 1.2,0.7 2.3,0.7 h 11 c 0,13 -18.5,16.6 -19.3,16.7 -0.3,0.1 -0.7,0.2 -1.1,0.3 -0.5,0.2 -1.1,0.6 -1.3,1.1 -0.1,0.2 -0.1,0.4 -0.1,0.5 0,0.5 0.3,1 0.5,1.2 0.3,0.3 1,0.7 2.3,0.7 h 17.7 l -0.8,1.9 C 41.3,54 29.1,56.4 21,58 c -1.2,0.2 -2.3,0.5 -3.3,0.7 -0.3,0.1 -0.7,0.2 -1.1,0.3 -0.5,0.2 -1.1,0.6 -1.3,1.1 -0.1,0.2 -0.1,0.4 -0.1,0.5 0,0.5 0.3,1 0.5,1.2 0.3,0.3 1,0.7 2.3,0.7 h 28.4 l -0.8,1.9 c -4.2,9.9 -19.5,12.5 -28.6,14 -1.8,0.3 -3.4,0.6 -4.6,0.9 -0.3,0.1 -0.7,0.2 -1.1,0.3 -0.5,0.2 -1.1,0.6 -1.3,1.1 -0.1,0.2 -0.1,0.4 -0.1,0.5 0,0.5 0.3,1 0.5,1.2 0.3,0.3 1,0.7 2.3,0.7 H 45.1 L 44.5,94 c 0,0.3 0.1,0.6 0.3,0.8 0.2,0.2 0.5,0.3 0.8,0.3 h 4.4 4.5 c 0.3,0 0.6,-0.1 0.8,-0.3 0.2,-0.2 0.3,-0.5 0.3,-0.8 L 55,83.2 h 32.4 c 1.4,0 2.1,-0.4 2.3,-0.7 0.2,-0.3 0.5,-0.7 0.5,-1.2 -0.1,-0.2 -0.1,-0.4 -0.2,-0.6 z"
                           inkscape:connector-curvature="0" /></g></g></g></g></g></g></g></g></g></g></g></svg>