<?xml version="1.0" encoding="UTF-8" standalone="no"?>
<svg
   xmlns:dc="http://purl.org/dc/elements/1.1/"
   xmlns:cc="http://creativecommons.org/ns#"
   xmlns:rdf="http://www.w3.org/1999/02/22-rdf-syntax-ns#"
   xmlns:svg="http://www.w3.org/2000/svg"
   xmlns="http://www.w3.org/2000/svg"
   xmlns:sodipodi="http://sodipodi.sourceforge.net/DTD/sodipodi-0.dtd"
   xmlns:inkscape="http://www.inkscape.org/namespaces/inkscape"
   version="1.1"
   x="0px"
   y="0px"
   viewBox="-120 78.1 69.624005 86.094006"
   xml:space="preserve"
   id="svg2"
   inkscape:version="0.48.4 r9939"
   width="100%"
   height="100%"
   sodipodi:docname="Nature Reserve\.svg"><metadata
     id="metadata18"><rdf:RDF><cc:Work
         rdf:about=""><dc:format>image/svg+xml</dc:format><dc:type
           rdf:resource="http://purl.org/dc/dcmitype/StillImage" /><dc:title></dc:title></cc:Work></rdf:RDF></metadata><defs
     id="defs16" /><sodipodi:namedview
     pagecolor="#ffffff"
     bordercolor="#666666"
     borderopacity="1"
     objecttolerance="10"
     gridtolerance="10"
     guidetolerance="10"
     inkscape:pageopacity="0"
     inkscape:pageshadow="2"
     inkscape:window-width="725"
     inkscape:window-height="735"
     id="namedview14"
     showgrid="false"
     fit-margin-top="0"
     fit-margin-left="0"
     fit-margin-right="0"
     fit-margin-bottom="0"
     inkscape:zoom="3.776"
     inkscape:cx="32.073621"
     inkscape:cy="27.645564"
     inkscape:window-x="114"
     inkscape:window-y="170"
     inkscape:window-maximized="0"
     inkscape:current-layer="g3898" /><g
     id="g3032"
     transform="translate(-138.54774,108.13582)"><g
       id="g3082"
       transform="translate(-11.778449,-19.681681)"><g
         id="g3297"
         transform="translate(113.35527,48.840676)"><g
           id="g3451"
           transform="translate(-110.35024,-41.106017)"><g
             id="g3508"
             transform="translate(37.661621,37.801481)"><g
               id="g3556"
               transform="translate(-33.173714,-53.557494)"><g
                 id="g3600"
                 transform="translate(1.6437441,2.3337983)"><g
                   id="g3673"
                   transform="translate(3.1326802,-1.9259882)"><g
                     id="g3728"
                     transform="translate(16.15499,5.0801784)"><g
                       id="g3774"
                       transform="matrix(1.3062103,0,0,1.1506075,-1.2423141,14.177607)"><g
                         id="g3814"
                         transform="matrix(0.76557355,0,0,0.86910615,-9.6088369,-25.571004)"><g
                           id="g3898"
                           transform="translate(-253.23308,-590.39679)"><path
                             id="path3862"
                             d="m 282.51039,630.2186 c 0,11.707 9.523,21.23 21.23,21.23 11.706,0 21.229,-9.523 21.229,-21.23 0,-9.773 -6.643,-18.021 -15.647,-20.479 v -2.281 h -4.401 v -9.638 h -2.362 v 9.638 h -4.403 v 2.281 c -9.005,2.458 -15.646,10.706 -15.646,20.479 z m 39.812,-0.787 h -6.951 c -0.065,-2.768 -0.483,-5.387 -1.178,-7.74 h 6.077 c 1.207,2.335 1.936,4.958 2.052,7.74 z m -37.165,1.576 h 6.952 c 0.067,2.767 0.483,5.387 1.178,7.74 h -6.078 c -1.208,-2.336 -1.937,-4.958 -2.052,-7.74 z m 8.528,0 h 9.267 v 7.74 h -8.047 c -0.717,-2.317 -1.15,-4.946 -1.22,-7.74 z m 9.267,9.317 v 7.649 c -3.105,-0.429 -5.818,-3.356 -7.496,-7.649 h 7.496 z m 1.575,0 h 7.496 c -1.677,4.292 -4.392,7.221 -7.496,7.649 v -7.649 z m 0,-1.577 v -7.74 h 9.269 c -0.07,2.793 -0.504,5.422 -1.221,7.74 h -8.048 z m 10.844,-7.74 h 6.951 c -0.116,2.782 -0.845,5.404 -2.052,7.74 h -6.077 c 0.694,-2.353 1.11,-4.973 1.178,-7.74 z m -1.575,-1.576 h -9.269 v -7.74 h 8.048 c 0.719,2.317 1.15,4.946 1.221,7.74 z m -9.269,-9.317 v -7.649 c 3.104,0.428 5.819,3.356 7.496,7.649 h -7.496 z m -1.575,0 h -7.496 c 1.678,-4.293 4.391,-7.221 7.496,-7.649 v 7.649 z m 0,1.576 v 7.74 h -9.267 c 0.069,-2.794 0.502,-5.422 1.22,-7.74 h 8.047 z m -10.843,7.741 h -6.952 c 0.115,-2.782 0.844,-5.405 2.052,-7.74 h 6.078 c -0.694,2.352 -1.11,4.972 -1.178,7.74 z m -3.985,10.893 h 5.685 c 1.343,3.649 3.392,6.504 5.827,8.038 -4.81,-1.084 -8.912,-4.027 -11.512,-8.038 z m 19.72,8.036 c 2.437,-1.533 4.484,-4.387 5.826,-8.037 h 5.685 c -2.6,4.011 -6.702,6.954 -11.511,8.037 z m 11.511,-28.246 h -5.685 c -1.342,-3.649 -3.391,-6.504 -5.826,-8.037 4.809,1.083 8.911,4.026 11.511,8.037 z m -19.72,-8.038 c -2.436,1.533 -4.484,4.387 -5.828,8.037 h -5.684 c 2.601,-4.01 6.703,-6.953 11.512,-8.037 z"
                             inkscape:connector-curvature="0" /><path
                             id="path3864"
                             d="m 277.17739,630.3216 c 0,-0.726 -0.587,-1.314 -1.313,-1.314 h -5.623 c -0.726,0 -1.313,0.588 -1.313,1.314 0,0.725 0.588,1.313 1.313,1.313 h 5.623 c 0.726,0 1.313,-0.588 1.313,-1.313 z"
                             inkscape:connector-curvature="0" /><path
                             id="path3866"
                             d="m 337.23939,629.0076 h -5.624 c -0.726,0 -1.313,0.588 -1.313,1.314 0,0.725 0.59,1.313 1.313,1.313 h 5.624 c 0.727,0 1.313,-0.588 1.313,-1.313 0,-0.726 -0.586,-1.314 -1.313,-1.314 z"
                             inkscape:connector-curvature="0" /><path
                             id="path3868"
                             d="m 283.09939,611.5396 c 0.257,0.256 0.593,0.384 0.929,0.384 0.336,0 0.673,-0.128 0.93,-0.385 0.513,-0.513 0.513,-1.345 0,-1.858 l -3.977,-3.976 c -0.514,-0.513 -1.345,-0.513 -1.858,0 -0.513,0.513 -0.513,1.345 0,1.858 l 3.976,3.977 z"
                             inkscape:connector-curvature="0" /><path
                             id="path3870"
                             d="m 324.38039,649.1026 c -0.514,-0.515 -1.344,-0.515 -1.856,0 -0.515,0.513 -0.515,1.345 0,1.856 l 3.978,3.978 c 0.256,0.257 0.592,0.385 0.928,0.385 0.336,0 0.672,-0.128 0.93,-0.385 0.513,-0.514 0.513,-1.346 0,-1.857 l -3.98,-3.977 z"
                             inkscape:connector-curvature="0" /><path
                             id="path3872"
                             d="m 284.95839,649.1026 c -0.514,-0.514 -1.346,-0.514 -1.858,0 l -3.976,3.977 c -0.513,0.514 -0.513,1.346 0,1.857 0.257,0.258 0.593,0.385 0.929,0.385 0.336,0 0.672,-0.127 0.929,-0.385 l 3.977,-3.977 c 0.511,-0.512 0.511,-1.343 -10e-4,-1.857 z"
                             inkscape:connector-curvature="0" /><path
                             id="path3874"
                             d="m 323.45039,611.9236 c 0.337,0 0.673,-0.128 0.93,-0.385 l 3.978,-3.977 c 0.513,-0.513 0.513,-1.345 0,-1.858 -0.515,-0.513 -1.347,-0.513 -1.859,0 l -3.975,3.977 c -0.515,0.512 -0.515,1.344 0,1.857 0.254,0.258 0.59,0.386 0.926,0.386 z"
                             inkscape:connector-curvature="0" /><path
                             id="path3876"
                             d="m 272.60939,617.8796 5.136,2.29 c 0.174,0.077 0.355,0.114 0.534,0.114 0.503,0 0.982,-0.291 1.2,-0.779 0.296,-0.663 -0.002,-1.44 -0.665,-1.735 l -5.135,-2.289 c -0.663,-0.296 -1.439,0.002 -1.735,0.665 -0.296,0.663 0.002,1.439 0.665,1.734 z"
                             inkscape:connector-curvature="0" /><path
                             id="path3878"
                             d="m 334.87039,642.7636 -5.136,-2.289 c -0.662,-0.296 -1.438,10e-4 -1.735,0.664 -0.296,0.664 0.004,1.439 0.665,1.735 l 5.136,2.289 c 0.174,0.078 0.355,0.114 0.535,0.114 0.502,0 0.981,-0.29 1.199,-0.778 0.296,-0.663 -10e-4,-1.441 -0.664,-1.735 z"
                             inkscape:connector-curvature="0" /><path
                             id="path3880"
                             d="m 279.06939,640.1666 c -0.269,-0.673 -1.032,-1.002 -1.707,-0.732 l -5.223,2.082 c -0.674,0.27 -1.002,1.033 -0.732,1.707 0.205,0.515 0.698,0.828 1.22,0.828 0.162,0 0.327,-0.031 0.487,-0.095 l 5.223,-2.085 c 0.673,-0.267 1.001,-1.031 0.732,-1.705 z"
                             inkscape:connector-curvature="0" /><path
                             id="path3882"
                             d="m 328.41039,620.4766 c 0.205,0.515 0.698,0.827 1.222,0.827 0.162,0 0.325,-0.029 0.484,-0.093 l 5.225,-2.085 c 0.672,-0.269 1.002,-1.033 0.731,-1.707 -0.269,-0.674 -1.033,-1.002 -1.706,-0.733 l -5.225,2.085 c -0.672,0.268 -1.002,1.033 -0.731,1.706 z"
                             inkscape:connector-curvature="0" /><path
                             id="path3884"
                             d="m 318.43439,661.4296 c -0.209,-0.162 -0.479,-0.221 -0.736,-0.158 l -11.82,2.9 c -0.385,0.096 -0.656,0.439 -0.656,0.836 v 3.006 1.233 8.112 c -0.528,-0.317 -1.146,-0.506 -1.809,-0.506 -1.947,0 -3.531,1.586 -3.531,3.531 0,1.947 1.584,3.531 3.531,3.531 1.947,0 3.53,-1.584 3.53,-3.531 0,-0.097 -0.006,-0.19 -0.015,-0.285 0.009,-0.047 0.015,-0.096 0.015,-0.145 v -10.032 l 10.101,-2.478 v 5.368 c -0.531,-0.317 -1.147,-0.504 -1.811,-0.504 -1.946,0 -3.53,1.584 -3.53,3.531 0,1.947 1.584,3.531 3.53,3.531 1.947,0 3.531,-1.584 3.531,-3.531 0,-0.097 -0.008,-0.19 -0.016,-0.285 0.008,-0.047 0.016,-0.096 0.016,-0.146 v -9.063 -2.879 -1.359 c 0,-0.263 -0.123,-0.513 -0.33,-0.677 z"
                             inkscape:connector-curvature="0" /><path
                             id="path3886"
                             d="m 298.69339,655.8716 c -0.208,-0.162 -0.479,-0.22 -0.736,-0.158 l -9.341,2.292 c -0.386,0.096 -0.656,0.44 -0.656,0.836 v 2.375 0.975 6.111 c -0.38,-0.178 -0.802,-0.279 -1.248,-0.279 -1.638,0 -2.972,1.334 -2.972,2.971 0,1.639 1.334,2.971 2.972,2.971 1.638,0 2.971,-1.332 2.971,-2.971 0,-0.075 -0.006,-0.15 -0.012,-0.227 0.004,-0.037 0.012,-0.073 0.012,-0.113 v -7.787 l 7.618,-1.868 v 3.713 c -0.38,-0.179 -0.802,-0.278 -1.249,-0.278 -1.638,0 -2.97,1.332 -2.97,2.97 0,1.639 1.332,2.972 2.97,2.972 1.639,0 2.972,-1.333 2.972,-2.972 0,-0.076 -0.006,-0.151 -0.012,-0.226 0.005,-0.039 0.012,-0.076 0.012,-0.115 v -7.165 -2.274 -1.074 c -10e-4,-0.265 -0.123,-0.515 -0.331,-0.679 z"
                             inkscape:connector-curvature="0" /></g></g></g></g></g></g></g></g></g></g></g></g></svg>