<?xml version="1.0" encoding="UTF-8" standalone="no"?>
<svg
   xmlns:dc="http://purl.org/dc/elements/1.1/"
   xmlns:cc="http://creativecommons.org/ns#"
   xmlns:rdf="http://www.w3.org/1999/02/22-rdf-syntax-ns#"
   xmlns:svg="http://www.w3.org/2000/svg"
   xmlns="http://www.w3.org/2000/svg"
   xmlns:sodipodi="http://sodipodi.sourceforge.net/DTD/sodipodi-0.dtd"
   xmlns:inkscape="http://www.inkscape.org/namespaces/inkscape"
   version="1.1"
   x="0px"
   y="0px"
   viewBox="-120 78.1 47.299199 70.604404"
   xml:space="preserve"
   id="svg2"
   inkscape:version="0.48.4 r9939"
   width="100%"
   height="100%"
   sodipodi:docname="College.svg"><metadata
     id="metadata18"><rdf:RDF><cc:Work
         rdf:about=""><dc:format>image/svg+xml</dc:format><dc:type
           rdf:resource="http://purl.org/dc/dcmitype/StillImage" /><dc:title></dc:title></cc:Work></rdf:RDF></metadata><defs
     id="defs16" /><sodipodi:namedview
     pagecolor="#ffffff"
     bordercolor="#666666"
     borderopacity="1"
     objecttolerance="10"
     gridtolerance="10"
     guidetolerance="10"
     inkscape:pageopacity="0"
     inkscape:pageshadow="2"
     inkscape:window-width="725"
     inkscape:window-height="735"
     id="namedview14"
     showgrid="false"
     fit-margin-top="0"
     fit-margin-left="0"
     fit-margin-right="0"
     fit-margin-bottom="0"
     inkscape:zoom="3.776"
     inkscape:cx="24.350742"
     inkscape:cy="26.535376"
     inkscape:window-x="114"
     inkscape:window-y="170"
     inkscape:window-maximized="0"
     inkscape:current-layer="g4160" /><g
     id="g3032"
     transform="translate(-146.27062,93.756412)"><g
       id="g3082"
       transform="translate(-11.778449,-19.681681)"><g
         id="g3297"
         transform="translate(113.35527,48.840676)"><g
           id="g3451"
           transform="translate(-110.35024,-41.106017)"><g
             id="g3508"
             transform="translate(37.661621,37.801481)"><g
               id="g3556"
               transform="translate(-33.173714,-53.557494)"><g
                 id="g3600"
                 transform="translate(1.6437441,2.3337983)"><g
                   id="g3673"
                   transform="translate(3.1326802,-1.9259882)"><g
                     id="g3728"
                     transform="translate(16.15499,5.0801784)"><g
                       id="g3774"
                       transform="matrix(1.3062103,0,0,1.1506075,-1.2423141,14.177607)"><g
                         id="g3814"
                         transform="matrix(0.76557355,0,0,0.86910615,-9.6088369,-25.571004)"><g
                           id="g3898"
                           transform="translate(-253.23308,-590.39679)"><g
                             id="g4071"
                             transform="translate(255.74688,596.01847)"><g
                               id="g4160"
                               transform="translate(-2.9830857,2.4410756)"><g
                                 id="g4210"
                                 transform="matrix(0.67244195,0,0,0.70603987,23.887571,13.740485)"><path
                                   id="path4194"
                                   d="M 35.171,28.241 C 42.967,28.233 49.292,21.911 49.292,14.12 49.292,6.306 42.968,-0.017 35.171,0 27.365,-0.018 21.042,6.306 21.048,14.12 c -0.006,7.791 6.317,14.113 14.123,14.121 l 0,0 z"
                                   inkscape:connector-curvature="0" /><path
                                   id="path4196"
                                   d="M 35.171,14.12"
                                   inkscape:connector-curvature="0" /><path
                                   id="path4198"
                                   d="M 35.171,57.791 H 20.198 V 46.956 L 8.798,58.47 C 3.633,63.635 -3.359,57.022 1.822,51.835 L 20.707,32.892 c 1.542,-1.508 3.22,-2.476 5.899,-2.497 h 8.565 l 0,0 h 8.393 c 2.646,0.021 4.442,0.96 6.011,2.497 l 19.113,19.169 c 4.917,4.896 -2.264,11.573 -6.976,6.578 L 49.972,46.9 V 57.79 H 35.171 l 0,10e-4 0,0 z"
                                   inkscape:connector-curvature="0" /><path
                                   id="path4200"
                                   d="m 49.915,63.349 -11.227,11.228 8.278,8.221 -8.448,8.452 c -5.001,4.977 1.873,12.104 7.029,6.977 L 58.875,84.332 c 2.887,-2.939 3.678,-8.34 0.626,-11.399 -0.031,-0.022 -9.586,-9.584 -9.586,-9.584 l 0,0 z"
                                   inkscape:connector-curvature="0" /><path
                                   id="path4202"
                                   d="m 20.198,63.349 11.229,11.228 -8.221,8.221 8.45,8.452 c 4.967,4.977 -1.906,12.104 -7.035,6.977 L 11.236,84.332 C 8.379,81.393 7.587,75.992 10.67,72.933 c 0,-0.022 9.528,-9.584 9.528,-9.584 l 0,0 z"
                                   inkscape:connector-curvature="0" /></g></g></g></g></g></g></g></g></g></g></g></g></g></g></g></svg>