<?xml version="1.0" encoding="UTF-8" standalone="no"?>
<svg
   xmlns:dc="http://purl.org/dc/elements/1.1/"
   xmlns:cc="http://creativecommons.org/ns#"
   xmlns:rdf="http://www.w3.org/1999/02/22-rdf-syntax-ns#"
   xmlns:svg="http://www.w3.org/2000/svg"
   xmlns="http://www.w3.org/2000/svg"
   xmlns:sodipodi="http://sodipodi.sourceforge.net/DTD/sodipodi-0.dtd"
   xmlns:inkscape="http://www.inkscape.org/namespaces/inkscape"
   version="1.1"
   x="0px"
   y="0px"
   viewBox="0 0 100 100"
   enable-background="new 0 0 100 100"
   xml:space="preserve"
   id="svg12"
   sodipodi:docname="Parking.svg"
   width="100"
   height="100"
   inkscape:version="0.92.5 (2060ec1f9f, 2020-04-08)"><metadata
     id="metadata18"><rdf:RDF><cc:Work
         rdf:about=""><dc:format>image/svg+xml</dc:format><dc:type
           rdf:resource="http://purl.org/dc/dcmitype/StillImage" /><dc:title></dc:title></cc:Work></rdf:RDF></metadata><defs
     id="defs16" /><sodipodi:namedview
     pagecolor="#ffffff"
     bordercolor="#666666"
     borderopacity="1"
     objecttolerance="10"
     gridtolerance="10"
     guidetolerance="10"
     inkscape:pageopacity="0"
     inkscape:pageshadow="2"
     inkscape:window-width="691"
     inkscape:window-height="480"
     id="namedview14"
     showgrid="false"
     inkscape:zoom="1.888"
     inkscape:cx="56.620763"
     inkscape:cy="62.5"
     inkscape:window-x="0"
     inkscape:window-y="0"
     inkscape:window-maximized="0"
     inkscape:current-layer="svg12" /><g
     id="g6"
     transform="translate(1)"><path
       d="M 52.183,33 H 43 v 15 h 9.033 c 2.529,0 4.455,-0.463 5.779,-1.729 1.327,-1.262 1.99,-2.962 1.99,-5.266 0,-2.529 -0.684,-4.368 -2.045,-5.88 C 56.395,33.614 54.537,33 52.183,33 Z"
       id="path2"
       inkscape:connector-curvature="0" /><path
       d="M 82.997,3 H 15.265 C 8.073,3 2,9.048 2,16.242 V 83.974 C 2,91.168 8.073,97 15.265,97 H 82.997 C 90.191,97 96,91.168 96,83.975 V 16.242 C 96,9.048 90.191,3 82.997,3 Z M 67.367,53.465 C 63.587,56.625 58.4,58 51.81,58 H 43 V 77 H 30 V 23 h 22.033 c 4.137,0 7.802,0.588 10.983,2.113 3.186,1.523 5.65,3.605 7.398,6.417 1.743,2.813 2.618,5.856 2.618,9.425 0.001,5.278 -1.887,9.353 -5.665,12.51 z"
       id="path4"
       inkscape:connector-curvature="0" /></g></svg>