<?xml version="1.0" encoding="UTF-8" standalone="no"?>
<svg
   xmlns:dc="http://purl.org/dc/elements/1.1/"
   xmlns:cc="http://creativecommons.org/ns#"
   xmlns:rdf="http://www.w3.org/1999/02/22-rdf-syntax-ns#"
   xmlns:svg="http://www.w3.org/2000/svg"
   xmlns="http://www.w3.org/2000/svg"
   xmlns:sodipodi="http://sodipodi.sourceforge.net/DTD/sodipodi-0.dtd"
   xmlns:inkscape="http://www.inkscape.org/namespaces/inkscape"
   version="1.1"
   x="0px"
   y="0px"
   viewBox="-120 78.1 48.251883 59.999799"
   xml:space="preserve"
   id="svg2"
   inkscape:version="0.48.4 r9939"
   width="100%"
   height="100%"
   sodipodi:docname="Hospital.svg"><metadata
     id="metadata18"><rdf:RDF><cc:Work
         rdf:about=""><dc:format>image/svg+xml</dc:format><dc:type
           rdf:resource="http://purl.org/dc/dcmitype/StillImage" /><dc:title></dc:title></cc:Work></rdf:RDF></metadata><defs
     id="defs16" /><sodipodi:namedview
     pagecolor="#ffffff"
     bordercolor="#666666"
     borderopacity="1"
     objecttolerance="10"
     gridtolerance="10"
     guidetolerance="10"
     inkscape:pageopacity="0"
     inkscape:pageshadow="2"
     inkscape:window-width="725"
     inkscape:window-height="735"
     id="namedview14"
     showgrid="false"
     fit-margin-top="0"
     fit-margin-left="0"
     fit-margin-right="0"
     fit-margin-bottom="0"
     inkscape:zoom="3.776"
     inkscape:cx="15.066252"
     inkscape:cy="26.520471"
     inkscape:window-x="114"
     inkscape:window-y="170"
     inkscape:window-maximized="0"
     inkscape:current-layer="g4455" /><g
     id="g3032"
     transform="translate(-155.5551,83.166712)"><g
       id="g3082"
       transform="translate(-11.778449,-19.681681)"><g
         id="g3297"
         transform="translate(113.35527,48.840676)"><g
           id="g3451"
           transform="translate(-110.35024,-41.106017)"><g
             id="g3508"
             transform="translate(37.661621,37.801481)"><g
               id="g3556"
               transform="translate(-33.173714,-53.557494)"><g
                 id="g3600"
                 transform="translate(1.6437441,2.3337983)"><g
                   id="g3673"
                   transform="translate(3.1326802,-1.9259882)"><g
                     id="g3728"
                     transform="translate(16.15499,5.0801784)"><g
                       id="g3774"
                       transform="matrix(1.3062103,0,0,1.1506075,-1.2423141,14.177607)"><g
                         id="g3814"
                         transform="matrix(0.76557355,0,0,0.86910615,-9.6088369,-25.571004)"><g
                           id="g3898"
                           transform="translate(-253.23308,-590.39679)"><g
                             id="g4071"
                             transform="translate(255.74688,596.01847)"><g
                               id="g4160"
                               transform="translate(-2.9830857,2.4410756)"><g
                                 id="g4272"
                                 transform="matrix(0.87809547,0,0,0.86067766,11.546476,7.0690494)"><g
                                   id="g4327"
                                   transform="matrix(1.1388283,0,0,1.1618751,13.689337,21.712146)"><g
                                   id="g4372"
                                   transform="translate(0.89151921,1.2290808)"><g
                                   id="g4455"
                                   transform="translate(0.83942136,-4.6551301)"><g
                                   id="g4435"><path
                                   id="path4437"
                                   d="M 50.633,51.707 31.065,50.494 c -3.203,-0.198 -5.949,1.945 -6.125,4.78 -0.174,2.834 2.285,5.302 5.486,5.5 l 19.568,1.213 c 3.201,0.199 5.947,-1.946 6.123,-4.78 0.176,-2.835 -2.285,-5.302 -5.484,-5.5 z M 40.189,60.319 30.49,59.718 c -2.617,-0.162 -4.635,-2.127 -4.494,-4.379 0.139,-2.252 2.383,-3.953 5.002,-3.791 l 9.699,0.602 -0.508,8.169 z"
                                   inkscape:connector-curvature="0" /><polygon
                                   id="polygon4439"
                                   points="16.584,10.954 18.309,10.954 18.309,4.845 19.342,4.845 19.342,10.954 21.067,10.954 21.067,4.845 22.1,4.845 22.1,10.954 23.825,10.954 23.825,4.845 24.858,4.845 24.858,10.954 26.583,10.954 26.583,4.845 27.616,4.845 27.616,10.954 29.34,10.954 29.34,4.845 30.374,4.845 30.374,10.954 32.098,10.954 32.098,4.845 33.13,4.845 33.13,10.954 34.508,10.954 34.508,3.465 33.301,3.465 33.301,2 12.624,2 12.624,3.465 11.417,3.465 11.417,10.954 12.793,10.954 12.793,4.845 13.827,4.845 13.827,10.954 15.551,10.954 15.551,4.845 16.584,4.845 " /><path
                                   id="path4441"
                                   d="m 30.655,49.628 c 0.152,0 0.307,0.005 0.463,0.015 l 1.4,0.087 5.533,-6.108 V 20.99 L 33.69,12.164 H 12.235 L 7.874,20.99 v 32.188 h 0.018 c -0.002,0.018 -0.006,0.033 -0.006,0.05 v 1.803 c 0,0.938 0.756,1.706 1.68,1.706 h 14.652 c -0.109,-0.49 -0.16,-0.996 -0.13,-1.515 0.194,-3.137 3.079,-5.594 6.567,-5.594 z M 13.12,25.012 H 32.805 V 46.761 H 13.12 V 25.012 z"
                                   inkscape:connector-curvature="0" /><path
                                   id="path4443"
                                   d="m 35.063,50.078 5.18,-5.377 6.529,3.997 -1.762,1.818 1.771,0.079 7.324,-8.086 c 2.152,-2.377 2.19,-5.861 0.086,-7.769 -2.104,-1.906 -5.568,-1.524 -7.721,0.854 l -13.052,14.412 1.645,0.072 z"
                                   inkscape:connector-curvature="0" /></g></g></g></g></g></g></g></g></g></g></g></g></g></g></g></g></g></g></g></svg>