<?xml version="1.0" encoding="UTF-8" standalone="no"?>
<svg
   xmlns:dc="http://purl.org/dc/elements/1.1/"
   xmlns:cc="http://creativecommons.org/ns#"
   xmlns:rdf="http://www.w3.org/1999/02/22-rdf-syntax-ns#"
   xmlns:svg="http://www.w3.org/2000/svg"
   xmlns="http://www.w3.org/2000/svg"
   xmlns:sodipodi="http://sodipodi.sourceforge.net/DTD/sodipodi-0.dtd"
   xmlns:inkscape="http://www.inkscape.org/namespaces/inkscape"
   version="1.1"
   x="0px"
   y="0px"
   viewBox="-120 78.1 36.074151 51.536015"
   xml:space="preserve"
   id="svg2"
   inkscape:version="0.48.4 r9939"
   width="100%"
   height="100%"
   sodipodi:docname="Crematorium.svg"><metadata
     id="metadata18"><rdf:RDF><cc:Work
         rdf:about=""><dc:format>image/svg+xml</dc:format><dc:type
           rdf:resource="http://purl.org/dc/dcmitype/StillImage" /><dc:title></dc:title></cc:Work></rdf:RDF></metadata><defs
     id="defs16" /><sodipodi:namedview
     pagecolor="#ffffff"
     bordercolor="#666666"
     borderopacity="1"
     objecttolerance="10"
     gridtolerance="10"
     guidetolerance="10"
     inkscape:pageopacity="0"
     inkscape:pageshadow="2"
     inkscape:window-width="725"
     inkscape:window-height="735"
     id="namedview14"
     showgrid="false"
     fit-margin-top="0"
     fit-margin-left="0"
     fit-margin-right="0"
     fit-margin-bottom="0"
     inkscape:zoom="3.776"
     inkscape:cx="26.839713"
     inkscape:cy="27.88991"
     inkscape:window-x="114"
     inkscape:window-y="170"
     inkscape:window-maximized="0"
     inkscape:current-layer="g4717" /><g
     id="g3032"
     transform="translate(-166.56586,73.33349)"><g
       id="g3082"
       transform="translate(-11.778449,-19.681681)"><g
         id="g3297"
         transform="translate(113.35527,48.840676)"><g
           id="g3451"
           transform="translate(-110.35024,-41.106017)"><g
             id="g3508"
             transform="translate(37.661621,37.801481)"><g
               id="g3556"
               transform="translate(-33.173714,-53.557494)"><g
                 id="g3600"
                 transform="translate(1.6437441,2.3337983)"><g
                   id="g3673"
                   transform="translate(3.1326802,-1.9259882)"><g
                     id="g3728"
                     transform="translate(16.15499,5.0801784)"><g
                       id="g3774"
                       transform="matrix(1.3062103,0,0,1.1506075,-1.2423141,14.177607)"><g
                         id="g3814"
                         transform="matrix(0.76557355,0,0,0.86910615,-9.6088369,-25.571004)"><g
                           id="g3898"
                           transform="translate(-253.23308,-590.39679)"><g
                             id="g4071"
                             transform="translate(255.74688,596.01847)"><g
                               id="g4160"
                               transform="translate(-2.9830857,2.4410756)"><g
                                 id="g4272"
                                 transform="matrix(0.87809547,0,0,0.86067766,11.546476,7.0690494)"><g
                                   id="g4327"
                                   transform="matrix(1.1388283,0,0,1.1618751,13.689337,21.712146)"><g
                                   id="g4372"
                                   transform="translate(0.89151921,1.2290808)"><g
                                   id="g4455"
                                   transform="translate(0.83942136,-4.6551301)"><g
                                   id="g4513"
                                   transform="translate(7.1555672,3.6004605)"><g
                                   id="g4571"
                                   transform="translate(-14.785669,-7.1687881)"><g
                                   id="g4625"
                                   transform="translate(5.4949718,-38.187748)"><g
                                   id="g4670"
                                   transform="translate(-2.3954106,9.1221103)"><g
                                   id="g4717"
                                   transform="translate(-7.6207232,6.0667631)"><g
                                   id="g4701"
                                   style="fill:none;stroke:none"
                                   transform="matrix(0.54657806,0,0,0.51536016,21.74419,38.400424)"><g
                                   id="g4703"
                                   style="fill:#000000"><path
                                   id="path4705"
                                   d="m 37.871544,0.30414437 c 1.600335,-0.7535397 3.500144,-0.0597533 4.248405,1.56057523 L 52.26708,23.837932 c 0.745994,1.615421 0.06483,3.530467 -1.54692,4.289383 l -5.806337,2.733995 c -1.600335,0.75354 -3.500144,0.05975 -4.248405,-1.560575 L 30.518287,7.3275228 C 29.772293,5.7121012 30.453453,3.7970555 32.065207,3.038139 l 5.806337,-2.73399463 0,0 0,0 z M 68.302477,66.201128 c 1.600334,-0.753539 3.500144,-0.05975 4.248404,1.560576 l 10.147131,21.973212 c 0.745995,1.615421 0.06483,3.530467 -1.546919,4.289383 l -5.806338,2.733995 c -1.600334,0.75354 -3.500144,0.05975 -4.248404,-1.560575 L 60.94922,73.224507 c -0.745995,-1.615422 -0.06483,-3.530467 1.546919,-4.289384 l 5.806338,-2.733995 0,0 0,0 z m -31.381712,-33.358972 0.07896,-0.03718 c 1.587404,-0.747451 2.284426,-2.672108 1.537429,-4.289701 L 29.746138,9.4786815 C 28.995476,7.8531526 27.09173,7.1627652 25.485817,7.9189317 l -0.08097,0.038126 c -0.750552,0.3534082 -6.472949,3.0478783 -7.991679,10.9944293 -2.433124,21.893152 6.614926,41.234857 8.01831,44.27383 1.403384,3.038972 10.260646,22.470513 28.433473,34.661068 7.004728,3.933165 12.727125,1.238692 13.477678,0.885284 l 0.08097,-0.03813 c 1.605913,-0.756166 2.305868,-2.672542 1.555205,-4.29807 L 60.187789,75.398876 c -0.746997,-1.617593 -2.655141,-2.315571 -4.242545,-1.56812 l -0.07896,0.03718 C 50.76059,76.272022 40.613246,60.684048 38.865632,56.899659 37.118018,53.115269 31.815069,35.246244 36.920765,32.842156 l 0,0 0,0 z"
                                   inkscape:connector-curvature="0" /></g></g></g></g></g></g></g></g></g></g></g></g></g></g></g></g></g></g></g></g></g></g></g></g></g></svg>