<?xml version="1.0" encoding="UTF-8" standalone="no"?>
<svg
   xmlns:dc="http://purl.org/dc/elements/1.1/"
   xmlns:cc="http://creativecommons.org/ns#"
   xmlns:rdf="http://www.w3.org/1999/02/22-rdf-syntax-ns#"
   xmlns:svg="http://www.w3.org/2000/svg"
   xmlns="http://www.w3.org/2000/svg"
   xmlns:sodipodi="http://sodipodi.sourceforge.net/DTD/sodipodi-0.dtd"
   xmlns:inkscape="http://www.inkscape.org/namespaces/inkscape"
   version="1.1"
   x="0px"
   y="0px"
   viewBox="0 0 68.57998 39.13359"
   enable-background="new 0 0 100 100"
   xml:space="preserve"
   id="svg2"
   inkscape:version="0.48.4 r9939"
   width="100%"
   height="100%"
   sodipodi:docname="Pub.svg"><metadata
     id="metadata30"><rdf:RDF><cc:Work
         rdf:about=""><dc:format>image/svg+xml</dc:format><dc:type
           rdf:resource="http://purl.org/dc/dcmitype/StillImage" /><dc:title></dc:title></cc:Work></rdf:RDF></metadata><defs
     id="defs28" /><sodipodi:namedview
     pagecolor="#ffffff"
     bordercolor="#666666"
     borderopacity="1"
     objecttolerance="10"
     gridtolerance="10"
     guidetolerance="10"
     inkscape:pageopacity="0"
     inkscape:pageshadow="2"
     inkscape:window-width="1322"
     inkscape:window-height="812"
     id="namedview26"
     showgrid="false"
     fit-margin-top="0"
     fit-margin-left="0"
     fit-margin-right="0"
     fit-margin-bottom="0"
     inkscape:zoom="5.12"
     inkscape:cx="30.710371"
     inkscape:cy="17.017108"
     inkscape:window-x="571"
     inkscape:window-y="110"
     inkscape:window-maximized="0"
     inkscape:current-layer="g7382" /><g
     id="g3217"
     transform="translate(-1229.6063,7575.7658)"><g
       id="g3355"
       transform="translate(0.52596752,-1.51338)"><g
         id="g3394"
         transform="translate(-1.304037,6.1068216)"><g
           id="g3432"
           transform="translate(1.3243604,-7.0685396)"><g
             id="g3490"
             transform="translate(14.50543,16.201175)"><g
               id="g3544"
               transform="translate(1.7832223,7.9070624)"><g
                 id="g3595"
                 transform="translate(9.5264836,-0.46901412)"><g
                   id="g3646"
                   transform="translate(-52.35165,-3.5880634)"><g
                     id="g3767"
                     transform="translate(6.0048559,8.7552768)"><g
                       id="g4075"
                       transform="translate(0.55239017,0.07303033)"><g
                         id="g4264"
                         transform="translate(3.0880737,-2.6377741)"><g
                           id="g4355"
                           transform="translate(8.4601992,5.328404)"><g
                             id="g4421"
                             transform="translate(-6.5255081,7.0858766)"><g
                               id="g4462"
                               transform="translate(25.518018,13.531166)"><g
                                 id="g4500"
                                 transform="translate(80.26127,-61.023322)"><g
                                   id="g5344"
                                   transform="translate(-17.614831,53.929153)"><g
                                   id="g5294"
                                   display="none"
                                   style="display:none"><rect
                                   id="rect5296"
                                   height="196"
                                   width="394.5"
                                   display="inline"
                                   y="-80.754997"
                                   x="-43.5"
                                   style="fill:#000000;display:inline" /></g><g
                                   id="g5316"
                                   display="none"
                                   style="display:none"><g
                                   id="g5318"
                                   display="inline"
                                   style="display:inline"><path
                                   id="path5320"
                                   d="M 1.581,10.718 H 30.418 L 16,1.051 1.581,10.718 z M 17.592,6.594 c 0,0.879 -0.713,1.592 -1.592,1.592 -0.879,0 -1.592,-0.713 -1.592,-1.592 0,-0.879 0.713,-1.592 1.592,-1.592 0.879,0 1.592,0.712 1.592,1.592 z"
                                   inkscape:connector-curvature="0" /><rect
                                   id="rect5322"
                                   height="3.0209999"
                                   width="31"
                                   y="28.030001"
                                   x="0.5" /><rect
                                   id="rect5324"
                                   height="11.875"
                                   width="3.0209999"
                                   y="13.363"
                                   x="3.6670001" /><rect
                                   id="rect5326"
                                   height="11.875"
                                   width="3.0209999"
                                   y="13.363"
                                   x="8.349" /><rect
                                   id="rect5328"
                                   height="11.875"
                                   width="3.0209999"
                                   y="13.363"
                                   x="20.629999" /><rect
                                   id="rect5330"
                                   height="11.875"
                                   width="3.0209999"
                                   y="13.363"
                                   x="25.312" /></g><path
                                   id="path5332"
                                   d="m 19.055,22.809 c -0.386,0.262 -1.035,0.524 -1.857,0.524 -1.01,0 -1.907,-0.386 -2.53,-1.11 -0.474,-0.524 -0.785,-1.246 -0.897,-2.144 h -0.773 v -0.611 h 0.711 c 0,-0.062 0,-0.125 0,-0.187 0,-0.2 0.012,-0.387 0.025,-0.561 h -0.735 v -0.624 h 0.823 c 0.15,-0.872 0.524,-1.595 1.022,-2.106 0.636,-0.66 1.446,-1.035 2.468,-1.035 0.735,0 1.309,0.212 1.658,0.399 l -0.249,0.822 c -0.312,-0.187 -0.835,-0.349 -1.396,-0.349 -0.673,0 -1.221,0.237 -1.645,0.685 -0.374,0.361 -0.623,0.922 -0.748,1.583 h 3.478 v 0.624 h -3.59 c -0.013,0.162 -0.025,0.349 -0.025,0.523 0,0.075 0,0.137 0,0.225 h 3.615 v 0.611 h -3.53 c 0.1,0.723 0.349,1.259 0.685,1.633 0.461,0.486 1.085,0.723 1.757,0.723 0.661,0 1.234,-0.249 1.521,-0.411 l 0.212,0.786 z"
                                   display="inline"
                                   inkscape:connector-curvature="0"
                                   style="display:inline" /></g><g
                                   id="g5453"
                                   transform="translate(-52.625356,-10.750909)"><g
                                   id="g5403"
                                   display="none"
                                   style="display:none"><rect
                                   id="rect5405"
                                   height="196"
                                   width="394.5"
                                   display="inline"
                                   y="-80.754997"
                                   x="-43.5"
                                   style="fill:#000000;display:inline" /></g><g
                                   id="g5425"
                                   display="none"
                                   style="display:none"><g
                                   id="g5427"
                                   display="inline"
                                   style="display:inline"><path
                                   id="path5429"
                                   d="M 1.581,10.718 H 30.418 L 16,1.051 1.581,10.718 z M 17.592,6.594 c 0,0.879 -0.713,1.592 -1.592,1.592 -0.879,0 -1.592,-0.713 -1.592,-1.592 0,-0.879 0.713,-1.592 1.592,-1.592 0.879,0 1.592,0.712 1.592,1.592 z"
                                   inkscape:connector-curvature="0" /><rect
                                   id="rect5431"
                                   height="3.0209999"
                                   width="31"
                                   y="28.030001"
                                   x="0.5" /><rect
                                   id="rect5433"
                                   height="11.875"
                                   width="3.0209999"
                                   y="13.363"
                                   x="3.6670001" /><rect
                                   id="rect5435"
                                   height="11.875"
                                   width="3.0209999"
                                   y="13.363"
                                   x="8.349" /><rect
                                   id="rect5437"
                                   height="11.875"
                                   width="3.0209999"
                                   y="13.363"
                                   x="20.629999" /><rect
                                   id="rect5439"
                                   height="11.875"
                                   width="3.0209999"
                                   y="13.363"
                                   x="25.312" /></g><path
                                   id="path5441"
                                   d="m 19.055,22.809 c -0.386,0.262 -1.035,0.524 -1.857,0.524 -1.01,0 -1.907,-0.386 -2.53,-1.11 -0.474,-0.524 -0.785,-1.246 -0.897,-2.144 h -0.773 v -0.611 h 0.711 c 0,-0.062 0,-0.125 0,-0.187 0,-0.2 0.012,-0.387 0.025,-0.561 h -0.735 v -0.624 h 0.823 c 0.15,-0.872 0.524,-1.595 1.022,-2.106 0.636,-0.66 1.446,-1.035 2.468,-1.035 0.735,0 1.309,0.212 1.658,0.399 l -0.249,0.822 c -0.312,-0.187 -0.835,-0.349 -1.396,-0.349 -0.673,0 -1.221,0.237 -1.645,0.685 -0.374,0.361 -0.623,0.922 -0.748,1.583 h 3.478 v 0.624 h -3.59 c -0.013,0.162 -0.025,0.349 -0.025,0.523 0,0.075 0,0.137 0,0.225 h 3.615 v 0.611 h -3.53 c 0.1,0.723 0.349,1.259 0.685,1.633 0.461,0.486 1.085,0.723 1.757,0.723 0.661,0 1.234,-0.249 1.521,-0.411 l 0.212,0.786 z"
                                   display="inline"
                                   inkscape:connector-curvature="0"
                                   style="display:inline" /></g><g
                                   id="g5911"
                                   transform="translate(34.803917,-34.731522)"><g
                                   id="g5969"
                                   transform="translate(-76.820846,20.463898)"><g
                                   id="g6024"
                                   transform="translate(-1.5269147,1.6004891)"><g
                                   id="g6071"
                                   transform="translate(7.3886843,1.0351706)"><g
                                   id="g6187"
                                   transform="translate(-0.71000052,-4.6322855)"><g
                                   id="g6263"
                                   transform="translate(-0.66737304,-5.3488176)"><g
                                   id="g6319"
                                   transform="translate(0.79720466,3.5647493)"><g
                                   id="g6384"
                                   transform="translate(-9.1472004,2.261335)"><g
                                   id="g6488"
                                   transform="translate(-2.0348122,-3.4042665)"><g
                                   id="g6516"
                                   transform="translate(-0.63832329,-2.3294036)"><g
                                   id="g6769"
                                   transform="translate(1565.7794,-3801.8487)"><g
                                   id="g6910"
                                   transform="translate(-308.09512,-3790.9493)"><g
                                   id="g6983"
                                   transform="translate(-14.231122,-15.611848)"><g
                                   id="g7151"
                                   transform="translate(33.267081,-22.491026)"><g
                                   id="g7382"
                                   transform="translate(-23.229266,23.886871)"><g
                                   id="g7290"
                                   transform="matrix(0.78006329,0,0,0.73564786,0.77904023,5.5254641)"><circle
                                   id="circle7292"
                                   r="1.645"
                                   cy="36.678001"
                                   cx="37.258999"
                                   sodipodi:cx="37.258999"
                                   sodipodi:cy="36.678001"
                                   sodipodi:rx="1.645"
                                   sodipodi:ry="1.645"
                                   style="fill:none"
                                   d="m 38.903999,36.678001 c 0,0.908509 -0.736492,1.645 -1.645,1.645 -0.908509,0 -1.645,-0.736491 -1.645,-1.645 0,-0.908508 0.736491,-1.645 1.645,-1.645 0.908508,0 1.645,0.736492 1.645,1.645 z" /><circle
                                   id="circle7294"
                                   r="1.645"
                                   cy="36.678001"
                                   cx="58.587002"
                                   sodipodi:cx="58.587002"
                                   sodipodi:cy="36.678001"
                                   sodipodi:rx="1.645"
                                   sodipodi:ry="1.645"
                                   style="fill:none"
                                   d="m 60.232002,36.678001 c 0,0.908509 -0.736492,1.645 -1.645,1.645 -0.908509,0 -1.645,-0.736491 -1.645,-1.645 0,-0.908508 0.736491,-1.645 1.645,-1.645 0.908508,0 1.645,0.736492 1.645,1.645 z" /><polygon
                                   id="polygon7296"
                                   points="35.344,62.886 40.844,58.012 35.867,52.797 30.368,57.671 " /><polygon
                                   id="polygon7298"
                                   points="11.898,52.071 11.898,61.129 12.112,61.353 16.796,57.201 " /><polygon
                                   id="polygon7300"
                                   points="47.368,63.292 52.868,58.416 47.892,53.201 42.392,58.077 " /><polygon
                                   id="polygon7302"
                                   points="35.281,64.378 29.781,69.253 34.405,74.098 34.784,74.098 35.177,74.098 40.259,69.595 " /><polygon
                                   id="polygon7304"
                                   points="41.063,68.881 46.563,64.005 41.587,58.79 36.086,63.664 " /><path
                                   id="path7306"
                                   d="m 14.88,71.399 c 1.738,1.668 4.093,2.698 6.692,2.698 h 1.123 l 0.051,-0.046 -4.976,-5.215 -2.89,2.563 z"
                                   inkscape:connector-curvature="0" /><path
                                   id="path7308"
                                   d="m 12.05,62.844 -0.151,0.135 v 1.447 c 0,2.355 0.845,4.513 2.244,6.189 l 2.885,-2.557 -4.978,-5.214 z"
                                   inkscape:connector-curvature="0" /><polygon
                                   id="polygon7310"
                                   points="53.088,69.284 58.588,64.409 53.611,59.193 48.11,64.069 " /><polygon
                                   id="polygon7312"
                                   points="32.918,74.098 28.977,69.967 24.316,74.098 " /><polygon
                                   id="polygon7314"
                                   points="17.538,57.98 12.855,62.13 17.833,67.346 22.515,63.196 " /><polygon
                                   id="polygon7316"
                                   points="28.234,69.188 23.257,63.974 18.574,68.123 23.552,73.338 " /><polygon
                                   id="polygon7318"
                                   points="29.562,58.385 24.062,63.261 29.039,68.476 34.538,63.6 " /><polygon
                                   id="polygon7320"
                                   points="82.922,55.339 78.464,59.29 82.922,63.963 " /><polygon
                                   id="polygon7322"
                                   points="59.393,63.695 64.893,58.821 59.917,53.606 54.416,58.48 " /><polygon
                                   id="polygon7324"
                                   points="72.745,53.297 77.722,58.512 82.922,53.901 83.222,53.636 82.922,53.322 78.244,48.421 " /><polygon
                                   id="polygon7326"
                                   points="82.922,44.275 79.05,47.708 82.922,51.765 82.922,47.542 " /><polygon
                                   id="polygon7328"
                                   points="77.659,60.003 72.159,64.879 77.161,70.121 82.661,65.246 " /><polygon
                                   id="polygon7330"
                                   points="71.417,64.101 76.917,59.226 71.94,54.01 66.44,58.886 " /><polygon
                                   id="polygon7332"
                                   points="65.112,69.688 70.612,64.814 65.636,59.6 60.135,64.474 " /><polygon
                                   id="polygon7334"
                                   points="56.194,74.098 53.025,70.776 49.276,74.098 " /><polygon
                                   id="polygon7336"
                                   points="77.503,47.644 72.526,42.428 67.025,47.304 72.003,52.519 " /><polygon
                                   id="polygon7338"
                                   points="60.502,42.022 55.002,46.898 59.979,52.113 65.479,47.239 " /><path
                                   id="path7340"
                                   d="m 79.08,72.131 c 1.75,-1.327 3.032,-3.231 3.562,-5.433 l -4.739,4.201 1.177,1.232 z"
                                   inkscape:connector-curvature="0" /><path
                                   id="path7342"
                                   d="m 74.374,74.027 c 1.377,-0.16 2.662,-0.611 3.801,-1.288 l -1.076,-1.127 -2.725,2.415 z"
                                   inkscape:connector-curvature="0" /><polygon
                                   id="polygon7344"
                                   points="66.221,48.018 60.721,52.894 65.697,58.108 71.197,53.232 " /><polygon
                                   id="polygon7346"
                                   points="42.172,47.208 36.672,52.082 41.648,57.299 47.149,52.423 " /><polygon
                                   id="polygon7348"
                                   points="48.478,41.619 42.978,46.495 47.955,51.71 53.454,46.834 " /><polygon
                                   id="polygon7350"
                                   points="30.148,46.803 24.647,51.679 29.625,56.894 35.125,52.018 " /><polygon
                                   id="polygon7352"
                                   points="36.453,41.213 30.953,46.089 35.93,51.304 41.43,46.43 " /><polygon
                                   id="polygon7354"
                                   points="23.843,52.392 18.344,57.268 23.319,62.482 28.819,57.606 " /><polygon
                                   id="polygon7356"
                                   points="67.833,74.098 65.05,71.182 61.758,74.098 " /><polygon
                                   id="polygon7358"
                                   points="18.124,46.398 12.624,51.272 17.601,56.487 23.102,51.614 " /><polygon
                                   id="polygon7360"
                                   points="69.319,74.098 72.674,74.098 76.356,70.835 71.354,65.592 65.854,70.468 " /><polygon
                                   id="polygon7362"
                                   points="46.042,74.098 47.656,74.098 52.282,69.998 47.306,64.783 41.806,69.659 " /><polygon
                                   id="polygon7364"
                                   points="54.196,47.611 48.696,52.487 53.674,57.702 59.174,52.828 " /><polygon
                                   id="polygon7366"
                                   points="57.681,74.098 60.137,74.098 64.307,70.403 59.33,65.187 53.83,70.062 " /><polygon
                                   id="polygon7368"
                                   points="44.558,74.098 41.002,70.372 36.797,74.098 " /><path
                                   id="path7370"
                                   d="m 91.385,22.417 c -0.299,-1.209 -1.431,-1.82 -2.527,-1.364 L 57.777,33.97 H 37.578 L 7.012,21.351 C 5.913,20.897 4.501,21.395 3.859,22.462 3.215,23.529 3.584,24.761 4.681,25.214 L 25.892,33.97 H 12.127 c -2.354,0 -4.263,1.561 -4.263,3.485 0,1.862 1.787,3.379 4.034,3.475 v 9.551 l 5.483,-4.859 -4.468,-4.681 H 14.4 l 3.786,3.967 4.476,-3.967 h 1.621 l -5.354,4.745 4.978,5.215 5.499,-4.876 -4.853,-5.084 h 1.486 l 4.171,4.371 4.934,-4.371 h 2.533 l 4.559,4.776 5.388,-4.776 h 1.692 l 4.943,5.18 5.5,-4.875 -0.291,-0.305 h 2.256 l -0.416,0.369 4.976,5.217 5.5,-4.876 -0.678,-0.71 h 3.101 l -0.875,0.774 4.978,5.215 4.613,-4.091 V 41.127 L 82.745,40.94 h 0.836 c 2.354,0 4.263,-1.561 4.263,-3.485 0,-1.924 -1.908,-3.485 -4.263,-3.485 H 69.399 l 20.54,-8.536 c 1.099,-0.456 1.745,-1.807 1.446,-3.017 z M 38.422,37.841 c -0.643,0.642 -1.685,0.643 -2.326,0 -0.643,-0.642 -0.643,-1.684 0,-2.326 0.642,-0.643 1.684,-0.642 2.326,0 0.642,0.642 0.642,1.684 0,2.326 z m 21.329,0 c -0.643,0.642 -1.685,0.643 -2.327,0 -0.642,-0.642 -0.642,-1.684 0,-2.326 0.643,-0.643 1.685,-0.642 2.327,0 0.642,0.642 0.642,1.684 0,2.326 z"
                                   inkscape:connector-curvature="0" /></g></g></g></g></g></g></g></g></g></g></g></g></g></g></g></g></g></g></g></g></g></g></g></g></g></g></g></g></g></g></g></g></g></svg>