<?xml version="1.0" encoding="UTF-8" standalone="no"?>
<svg
   xmlns:dc="http://purl.org/dc/elements/1.1/"
   xmlns:cc="http://creativecommons.org/ns#"
   xmlns:rdf="http://www.w3.org/1999/02/22-rdf-syntax-ns#"
   xmlns:svg="http://www.w3.org/2000/svg"
   xmlns="http://www.w3.org/2000/svg"
   xmlns:sodipodi="http://sodipodi.sourceforge.net/DTD/sodipodi-0.dtd"
   xmlns:inkscape="http://www.inkscape.org/namespaces/inkscape"
   version="1.1"
   x="0px"
   y="0px"
   viewBox="-120 78.1 47.020194 50.741523"
   xml:space="preserve"
   id="svg2"
   inkscape:version="0.48.4 r9939"
   width="100%"
   height="100%"
   sodipodi:docname="Phone.svg"><metadata
     id="metadata18"><rdf:RDF><cc:Work
         rdf:about=""><dc:format>image/svg+xml</dc:format><dc:type
           rdf:resource="http://purl.org/dc/dcmitype/StillImage" /><dc:title></dc:title></cc:Work></rdf:RDF></metadata><defs
     id="defs16" /><sodipodi:namedview
     pagecolor="#ffffff"
     bordercolor="#666666"
     borderopacity="1"
     objecttolerance="10"
     gridtolerance="10"
     guidetolerance="10"
     inkscape:pageopacity="0"
     inkscape:pageshadow="2"
     inkscape:window-width="725"
     inkscape:window-height="735"
     id="namedview14"
     showgrid="false"
     fit-margin-top="0"
     fit-margin-left="0"
     fit-margin-right="0"
     fit-margin-bottom="0"
     inkscape:zoom="3.776"
     inkscape:cx="32.738582"
     inkscape:cy="28.366604"
     inkscape:window-x="114"
     inkscape:window-y="170"
     inkscape:window-maximized="0"
     inkscape:current-layer="g4717" /><g
     id="g3032"
     transform="translate(-160.66699,72.062304)"><g
       id="g3082"
       transform="translate(-11.778449,-19.681681)"><g
         id="g3297"
         transform="translate(113.35527,48.840676)"><g
           id="g3451"
           transform="translate(-110.35024,-41.106017)"><g
             id="g3508"
             transform="translate(37.661621,37.801481)"><g
               id="g3556"
               transform="translate(-33.173714,-53.557494)"><g
                 id="g3600"
                 transform="translate(1.6437441,2.3337983)"><g
                   id="g3673"
                   transform="translate(3.1326802,-1.9259882)"><g
                     id="g3728"
                     transform="translate(16.15499,5.0801784)"><g
                       id="g3774"
                       transform="matrix(1.3062103,0,0,1.1506075,-1.2423141,14.177607)"><g
                         id="g3814"
                         transform="matrix(0.76557355,0,0,0.86910615,-9.6088369,-25.571004)"><g
                           id="g3898"
                           transform="translate(-253.23308,-590.39679)"><g
                             id="g4071"
                             transform="translate(255.74688,596.01847)"><g
                               id="g4160"
                               transform="translate(-2.9830857,2.4410756)"><g
                                 id="g4272"
                                 transform="matrix(0.87809547,0,0,0.86067766,11.546476,7.0690494)"><g
                                   id="g4327"
                                   transform="matrix(1.1388283,0,0,1.1618751,13.689337,21.712146)"><g
                                   id="g4372"
                                   transform="translate(0.89151921,1.2290808)"><g
                                   id="g4455"
                                   transform="translate(0.83942136,-4.6551301)"><g
                                   id="g4513"
                                   transform="translate(7.1555672,3.6004605)"><g
                                   id="g4571"
                                   transform="translate(-14.785669,-7.1687881)"><g
                                   id="g4625"
                                   transform="translate(5.4949718,-38.187748)"><g
                                   id="g4670"
                                   transform="translate(-2.3954106,9.1221103)"><g
                                   id="g4717"
                                   transform="translate(-7.6207232,6.0667631)"><g
                                   id="g4755"
                                   transform="matrix(0.5275566,0,0,0.50741524,25.136753,39.67161)"><path
                                   id="path4745"
                                   d="m 52.164,40.716 c 0,7.018 -5.918,7.018 -9.108,7.018 H 39.078 V 34.466 h 5 c 2.793,0 8.086,0 8.086,6.25 z"
                                   inkscape:connector-curvature="0" /><path
                                   id="path4747"
                                   d="m 82.71,33.711 c 0.593,-7.142 2.702,-13.698 6.419,-19.707 L 74.872,0 C 70.367,3.809 65.237,5.918 59.423,6.289 54.098,6.764 49.046,5.768 44.299,3.301 39.416,5.69 34.384,6.686 29.143,6.289 23.72,5.814 18.824,3.926 14.443,0.58 L 0.146,14.577 c 3.516,6.094 5.475,12.474 5.859,19.134 0.182,3.066 -0.71,7.285 -2.708,12.741 -1.048,3.027 -1.836,5.651 -2.376,7.845 -0.501,2.175 -0.813,3.945 -0.918,5.273 -0.072,5.814 1.588,11.062 4.993,15.73 2.663,3.404 7.051,7.168 13.145,11.282 6.667,3.333 11.83,5.495 15.443,6.419 1.035,0.476 2.051,0.932 2.995,1.367 0.944,0.443 1.953,0.873 3.008,1.348 2.272,1.335 3.867,2.787 4.713,4.284 1.029,-1.621 2.663,-3.034 4.831,-4.284 1.53,-0.657 2.826,-1.224 3.867,-1.725 1.042,-0.449 1.816,-0.788 2.266,-0.99 0.769,-0.377 1.784,-0.807 3.008,-1.282 1.237,-0.481 2.761,-1.062 4.584,-1.712 3.521,-1.225 6.087,-2.383 7.715,-3.425 C 76.482,82.468 80.805,78.77 83.552,75.456 87.08,70.774 88.793,65.501 88.715,59.57 88.506,56.914 87.361,52.669 85.283,46.881 83.303,41.244 82.424,36.869 82.71,33.711 z M 56.506,52.897 c -3.386,2.174 -8.041,2.174 -10.469,2.174 h -6.673 v 17.93 H 29.325 V 27.012 H 43.57 c 6.621,0 12.161,0.417 16.003,5.02 2.402,2.93 2.806,6.256 2.806,8.62 -10e-4,5.357 -2.247,9.875 -5.873,12.245 z"
                                   inkscape:connector-curvature="0" /></g></g></g></g></g></g></g></g></g></g></g></g></g></g></g></g></g></g></g></g></g></g></g></g></svg>