<?xml version="1.0" encoding="UTF-8" standalone="no"?>
<svg
   xmlns:dc="http://purl.org/dc/elements/1.1/"
   xmlns:cc="http://creativecommons.org/ns#"
   xmlns:rdf="http://www.w3.org/1999/02/22-rdf-syntax-ns#"
   xmlns:svg="http://www.w3.org/2000/svg"
   xmlns="http://www.w3.org/2000/svg"
   xmlns:sodipodi="http://sodipodi.sourceforge.net/DTD/sodipodi-0.dtd"
   xmlns:inkscape="http://www.inkscape.org/namespaces/inkscape"
   height="100px"
   width="100px"
   fill="#000000"
   viewBox="0 0 72 72"
   version="1.1"
   x="0px"
   y="0px"
   id="svg10"
   sodipodi:docname="noun_Post Office_2891644.svg"
   inkscape:version="0.92.5 (2060ec1f9f, 2020-04-08)">
  <metadata
     id="metadata16">
    <rdf:RDF>
      <cc:Work
         rdf:about="">
        <dc:format>image/svg+xml</dc:format>
        <dc:type
           rdf:resource="http://purl.org/dc/dcmitype/StillImage" />
        <dc:title>Post Office</dc:title>
      </cc:Work>
    </rdf:RDF>
  </metadata>
  <defs
     id="defs14" />
  <sodipodi:namedview
     pagecolor="#ffffff"
     bordercolor="#666666"
     borderopacity="1"
     objecttolerance="10"
     gridtolerance="10"
     guidetolerance="10"
     inkscape:pageopacity="0"
     inkscape:pageshadow="2"
     inkscape:window-width="691"
     inkscape:window-height="480"
     id="namedview12"
     showgrid="false"
     inkscape:zoom="2.36"
     inkscape:cx="50"
     inkscape:cy="50"
     inkscape:window-x="0"
     inkscape:window-y="0"
     inkscape:window-maximized="0"
     inkscape:current-layer="svg10" />
  <title
     id="title2">Post Office</title>
  <desc
     id="desc4">Created with Sketch.</desc>
  <g
     stroke="none"
     stroke-width="1"
     fill="none"
     fill-rule="evenodd"
     id="g8">
    <path
       d="M2.929,62 L67.729,62 L67.729,14.154 L2.929,14.154 L2.929,62 Z M60.181,18.451 L10.245,18.451 C17.794,25.883 25.392,33.265 32.891,40.747 C34.162,42.016 36.271,42.009 37.536,40.747 C45.035,33.266 52.633,25.883 60.181,18.451 L60.181,18.451 Z M62.843,54.459 L62.852,21.819 L46.594,37.844 L62.843,54.459 Z M10.362,57.703 L60.065,57.703 L43.574,40.98 C42.413,42.141 41.379,43.445 40.091,44.463 C36.428,47.361 33.998,47.361 30.336,44.463 C29.048,43.445 28.013,42.141 26.852,40.98 L10.362,57.703 Z M7.574,21.819 L7.589,54.421 L23.833,37.844 L7.574,21.819 Z"
       fill="#000000"
       id="path6" />
  </g>
</svg>
