<?xml version="1.0" encoding="UTF-8" standalone="no"?>
<svg
   xmlns:dc="http://purl.org/dc/elements/1.1/"
   xmlns:cc="http://creativecommons.org/ns#"
   xmlns:rdf="http://www.w3.org/1999/02/22-rdf-syntax-ns#"
   xmlns:svg="http://www.w3.org/2000/svg"
   xmlns="http://www.w3.org/2000/svg"
   xmlns:sodipodi="http://sodipodi.sourceforge.net/DTD/sodipodi-0.dtd"
   xmlns:inkscape="http://www.inkscape.org/namespaces/inkscape"
   version="1.1"
   x="0px"
   y="0px"
   viewBox="0 0 51.423624 71.484374"
   enable-background="new 0 0 100 100"
   xml:space="preserve"
   id="svg2"
   inkscape:version="0.48.4 r9939"
   width="100%"
   height="100%"
   sodipodi:docname="Restaurant.svg"><metadata
     id="metadata30"><rdf:RDF><cc:Work
         rdf:about=""><dc:format>image/svg+xml</dc:format><dc:type
           rdf:resource="http://purl.org/dc/dcmitype/StillImage" /><dc:title></dc:title></cc:Work></rdf:RDF></metadata><defs
     id="defs28" /><sodipodi:namedview
     pagecolor="#ffffff"
     bordercolor="#666666"
     borderopacity="1"
     objecttolerance="10"
     gridtolerance="10"
     guidetolerance="10"
     inkscape:pageopacity="0"
     inkscape:pageshadow="2"
     inkscape:window-width="1322"
     inkscape:window-height="812"
     id="namedview26"
     showgrid="false"
     fit-margin-top="0"
     fit-margin-left="0"
     fit-margin-right="0"
     fit-margin-bottom="0"
     inkscape:zoom="5.12"
     inkscape:cx="16.80878"
     inkscape:cy="41.297875"
     inkscape:window-x="571"
     inkscape:window-y="110"
     inkscape:window-maximized="0"
     inkscape:current-layer="g7151" /><g
     id="g3217"
     transform="translate(-1243.5079,7583.8358)"><g
       id="g3355"
       transform="translate(0.52596752,-1.51338)"><g
         id="g3394"
         transform="translate(-1.304037,6.1068216)"><g
           id="g3432"
           transform="translate(1.3243604,-7.0685396)"><g
             id="g3490"
             transform="translate(14.50543,16.201175)"><g
               id="g3544"
               transform="translate(1.7832223,7.9070624)"><g
                 id="g3595"
                 transform="translate(9.5264836,-0.46901412)"><g
                   id="g3646"
                   transform="translate(-52.35165,-3.5880634)"><g
                     id="g3767"
                     transform="translate(6.0048559,8.7552768)"><g
                       id="g4075"
                       transform="translate(0.55239017,0.07303033)"><g
                         id="g4264"
                         transform="translate(3.0880737,-2.6377741)"><g
                           id="g4355"
                           transform="translate(8.4601992,5.328404)"><g
                             id="g4421"
                             transform="translate(-6.5255081,7.0858766)"><g
                               id="g4462"
                               transform="translate(25.518018,13.531166)"><g
                                 id="g4500"
                                 transform="translate(80.26127,-61.023322)"><g
                                   id="g5344"
                                   transform="translate(-17.614831,53.929153)"><g
                                   id="g5294"
                                   display="none"
                                   style="display:none"><rect
                                   id="rect5296"
                                   height="196"
                                   width="394.5"
                                   display="inline"
                                   y="-80.754997"
                                   x="-43.5"
                                   style="fill:#000000;display:inline" /></g><g
                                   id="g5316"
                                   display="none"
                                   style="display:none"><g
                                   id="g5318"
                                   display="inline"
                                   style="display:inline"><path
                                   id="path5320"
                                   d="M 1.581,10.718 H 30.418 L 16,1.051 1.581,10.718 z M 17.592,6.594 c 0,0.879 -0.713,1.592 -1.592,1.592 -0.879,0 -1.592,-0.713 -1.592,-1.592 0,-0.879 0.713,-1.592 1.592,-1.592 0.879,0 1.592,0.712 1.592,1.592 z"
                                   inkscape:connector-curvature="0" /><rect
                                   id="rect5322"
                                   height="3.0209999"
                                   width="31"
                                   y="28.030001"
                                   x="0.5" /><rect
                                   id="rect5324"
                                   height="11.875"
                                   width="3.0209999"
                                   y="13.363"
                                   x="3.6670001" /><rect
                                   id="rect5326"
                                   height="11.875"
                                   width="3.0209999"
                                   y="13.363"
                                   x="8.349" /><rect
                                   id="rect5328"
                                   height="11.875"
                                   width="3.0209999"
                                   y="13.363"
                                   x="20.629999" /><rect
                                   id="rect5330"
                                   height="11.875"
                                   width="3.0209999"
                                   y="13.363"
                                   x="25.312" /></g><path
                                   id="path5332"
                                   d="m 19.055,22.809 c -0.386,0.262 -1.035,0.524 -1.857,0.524 -1.01,0 -1.907,-0.386 -2.53,-1.11 -0.474,-0.524 -0.785,-1.246 -0.897,-2.144 h -0.773 v -0.611 h 0.711 c 0,-0.062 0,-0.125 0,-0.187 0,-0.2 0.012,-0.387 0.025,-0.561 h -0.735 v -0.624 h 0.823 c 0.15,-0.872 0.524,-1.595 1.022,-2.106 0.636,-0.66 1.446,-1.035 2.468,-1.035 0.735,0 1.309,0.212 1.658,0.399 l -0.249,0.822 c -0.312,-0.187 -0.835,-0.349 -1.396,-0.349 -0.673,0 -1.221,0.237 -1.645,0.685 -0.374,0.361 -0.623,0.922 -0.748,1.583 h 3.478 v 0.624 h -3.59 c -0.013,0.162 -0.025,0.349 -0.025,0.523 0,0.075 0,0.137 0,0.225 h 3.615 v 0.611 h -3.53 c 0.1,0.723 0.349,1.259 0.685,1.633 0.461,0.486 1.085,0.723 1.757,0.723 0.661,0 1.234,-0.249 1.521,-0.411 l 0.212,0.786 z"
                                   display="inline"
                                   inkscape:connector-curvature="0"
                                   style="display:inline" /></g><g
                                   id="g5453"
                                   transform="translate(-52.625356,-10.750909)"><g
                                   id="g5403"
                                   display="none"
                                   style="display:none"><rect
                                   id="rect5405"
                                   height="196"
                                   width="394.5"
                                   display="inline"
                                   y="-80.754997"
                                   x="-43.5"
                                   style="fill:#000000;display:inline" /></g><g
                                   id="g5425"
                                   display="none"
                                   style="display:none"><g
                                   id="g5427"
                                   display="inline"
                                   style="display:inline"><path
                                   id="path5429"
                                   d="M 1.581,10.718 H 30.418 L 16,1.051 1.581,10.718 z M 17.592,6.594 c 0,0.879 -0.713,1.592 -1.592,1.592 -0.879,0 -1.592,-0.713 -1.592,-1.592 0,-0.879 0.713,-1.592 1.592,-1.592 0.879,0 1.592,0.712 1.592,1.592 z"
                                   inkscape:connector-curvature="0" /><rect
                                   id="rect5431"
                                   height="3.0209999"
                                   width="31"
                                   y="28.030001"
                                   x="0.5" /><rect
                                   id="rect5433"
                                   height="11.875"
                                   width="3.0209999"
                                   y="13.363"
                                   x="3.6670001" /><rect
                                   id="rect5435"
                                   height="11.875"
                                   width="3.0209999"
                                   y="13.363"
                                   x="8.349" /><rect
                                   id="rect5437"
                                   height="11.875"
                                   width="3.0209999"
                                   y="13.363"
                                   x="20.629999" /><rect
                                   id="rect5439"
                                   height="11.875"
                                   width="3.0209999"
                                   y="13.363"
                                   x="25.312" /></g><path
                                   id="path5441"
                                   d="m 19.055,22.809 c -0.386,0.262 -1.035,0.524 -1.857,0.524 -1.01,0 -1.907,-0.386 -2.53,-1.11 -0.474,-0.524 -0.785,-1.246 -0.897,-2.144 h -0.773 v -0.611 h 0.711 c 0,-0.062 0,-0.125 0,-0.187 0,-0.2 0.012,-0.387 0.025,-0.561 h -0.735 v -0.624 h 0.823 c 0.15,-0.872 0.524,-1.595 1.022,-2.106 0.636,-0.66 1.446,-1.035 2.468,-1.035 0.735,0 1.309,0.212 1.658,0.399 l -0.249,0.822 c -0.312,-0.187 -0.835,-0.349 -1.396,-0.349 -0.673,0 -1.221,0.237 -1.645,0.685 -0.374,0.361 -0.623,0.922 -0.748,1.583 h 3.478 v 0.624 h -3.59 c -0.013,0.162 -0.025,0.349 -0.025,0.523 0,0.075 0,0.137 0,0.225 h 3.615 v 0.611 h -3.53 c 0.1,0.723 0.349,1.259 0.685,1.633 0.461,0.486 1.085,0.723 1.757,0.723 0.661,0 1.234,-0.249 1.521,-0.411 l 0.212,0.786 z"
                                   display="inline"
                                   inkscape:connector-curvature="0"
                                   style="display:inline" /></g><g
                                   id="g5911"
                                   transform="translate(34.803917,-34.731522)"><g
                                   id="g5969"
                                   transform="translate(-76.820846,20.463898)"><g
                                   id="g6024"
                                   transform="translate(-1.5269147,1.6004891)"><g
                                   id="g6071"
                                   transform="translate(7.3886843,1.0351706)"><g
                                   id="g6187"
                                   transform="translate(-0.71000052,-4.6322855)"><g
                                   id="g6263"
                                   transform="translate(-0.66737304,-5.3488176)"><g
                                   id="g6319"
                                   transform="translate(0.79720466,3.5647493)"><g
                                   id="g6384"
                                   transform="translate(-9.1472004,2.261335)"><g
                                   id="g6488"
                                   transform="translate(-2.0348122,-3.4042665)"><g
                                   id="g6516"
                                   transform="translate(-0.63832329,-2.3294036)"><g
                                   id="g6769"
                                   transform="translate(1565.7794,-3801.8487)"><g
                                   id="g6910"
                                   transform="translate(-308.09512,-3790.9493)"><g
                                   id="g6983"
                                   transform="translate(-14.231122,-15.611848)"><g
                                   id="g7151"
                                   transform="translate(33.267081,-22.491026)"><g
                                   id="g7133"
                                   transform="matrix(0.70532211,0,0,0.71484375,-17.82259,36.71875)"><path
                                   id="path7135"
                                   d="m 86.769,49.677 0.22,-4.491 c 0.01,-0.199 -0.021,-0.39 -0.077,-0.569 1.833,-1.002 3.062,-2.335 3.062,-4.205 0,-2.433 -1.979,-4.412 -4.413,-4.412 -0.323,0 -0.644,0.035 -0.957,0.105 -1.219,-2.905 -4.112,-4.897 -7.341,-4.897 -0.936,0 -1.865,0.167 -2.74,0.489 -1.512,-2.488 -4.215,-4.04 -7.188,-4.04 -3.717,0 -6.939,2.423 -8.021,5.893 -2.316,0.114 -4.668,1.498 -6.065,3.589 -1.289,1.932 -1.562,4.165 -0.745,6.129 0.229,0.55 0.521,1.028 0.858,1.452 -0.036,0.148 -0.052,0.304 -0.044,0.464 l 0.207,4.21 c 0.004,0.092 -0.026,0.304 -0.098,0.538 -1.455,1.787 -2.222,3.812 -2.222,5.875 0,2.35 0.979,4.615 2.833,6.571 0.096,0.242 0.146,0.461 0.15,0.561 l 1.566,31.896 c 0.082,5.019 12.929,5.165 14.398,5.165 1.469,0 14.317,-0.146 14.398,-5.164 l 1.579,-32.168 c 0.006,-0.108 0.057,-0.345 0.155,-0.604 1.668,-1.883 2.547,-4.039 2.547,-6.256 0,-1.929 -0.676,-3.839 -1.959,-5.54 -0.077,-0.256 -0.109,-0.493 -0.103,-0.591 z M 55.264,38.487 c 1.006,-1.507 2.757,-2.519 4.357,-2.519 0.17,0 0.342,0.008 0.512,0.026 0.63,0.063 1.203,-0.368 1.315,-0.991 0.514,-2.851 2.989,-4.92 5.886,-4.92 2.416,0 4.583,1.44 5.521,3.668 0.134,0.318 0.396,0.564 0.723,0.676 0.327,0.112 0.687,0.08 0.986,-0.089 0.823,-0.461 1.756,-0.705 2.697,-0.705 2.577,0 4.848,1.825 5.399,4.341 0.085,0.387 0.354,0.708 0.72,0.86 0.365,0.151 0.782,0.115 1.116,-0.098 0.32,-0.204 0.688,-0.312 1.062,-0.312 1.097,0 1.988,0.891 1.988,1.987 0,2.458 -6.312,3.759 -10.491,4.62 -2.548,0.525 -4.747,0.979 -5.949,1.655 -4.507,2.537 -3.787,6.913 -3.152,10.772 0.238,1.447 0.463,2.814 0.439,4.042 -0.114,2.613 -1.383,4.058 -2.217,4.058 l 0,0 c -0.564,0 -1.393,-0.673 -2.021,-2.56 -0.588,-1.764 -0.34,-3.571 -0.078,-5.484 0.305,-2.226 0.621,-4.526 -0.275,-7.021 -1.024,-2.848 -3.33,-4.037 -5.363,-5.086 -1.656,-0.854 -3.086,-1.592 -3.698,-3.068 -0.684,-1.646 0.034,-3.12 0.523,-3.852 z m 14.888,58.225 c -6.581,0 -10.447,-1.358 -11.119,-2.11 L 57.471,62.779 C 57.44,62.15 57.23,61.398 56.895,60.717 c -0.079,-0.16 -0.184,-0.307 -0.31,-0.434 -0.955,-0.959 -2.093,-2.515 -2.093,-4.475 0,-1.377 0.547,-2.714 1.626,-3.972 0.114,-0.133 0.206,-0.282 0.272,-0.443 0.29,-0.704 0.445,-1.507 0.416,-2.154 l -0.098,-2 c 0.207,0.11 0.414,0.217 0.618,0.322 1.874,0.967 3.492,1.801 4.193,3.751 0.2,0.557 0.318,1.11 0.382,1.666 -1.642,-0.224 -1.77,-0.508 -3.253,-0.854 -0.923,1.174 -1.396,2.411 -1.396,3.684 0,1.96 1.139,3.516 2.093,4.475 0.126,0.127 0.231,0.273 0.31,0.434 0.336,0.681 0.545,1.433 0.576,2.062 l 0.117,31.823 c 0.648,0.727 4.279,2.019 10.46,2.105 -0.214,0.003 -0.433,0.005 -0.656,0.005 z m 0.02,-43.18 c -0.085,0 -0.168,-0.003 -0.252,-0.003 -0.073,-2.116 0.439,-3.64 2.377,-4.73 0.873,-0.491 2.998,-0.929 5.249,-1.393 1.991,-0.41 4.157,-0.858 6.114,-1.467 l -0.176,3.581 c -0.029,0.634 0.118,1.435 0.394,2.142 0.034,0.087 0.077,0.169 0.125,0.248 -4.027,1.027 -8.759,1.622 -13.831,1.622 z"
                                   inkscape:connector-curvature="0" /><path
                                   id="path7137"
                                   d="M 26.396,4.926 H 37.949 C 38.607,4.428 39.041,3.64 39.041,2.747 39.041,1.233 37.806,0 36.292,0 h -8.24 c -1.514,0 -2.748,1.233 -2.748,2.747 0,0.893 0.434,1.681 1.092,2.179 z"
                                   inkscape:connector-curvature="0"
                                   style="fill:#000000" /><path
                                   id="path7139"
                                   d="m 43.16,40.942 c -2.748,-2.748 -2.748,-5.491 -2.748,-9.615 0,-4.471 -1.264,-15.523 -2.078,-22.163 0.418,-0.242 0.707,-0.665 0.707,-1.178 0,-0.631 -0.434,-1.145 -1.012,-1.306 C 38.025,6.675 38.025,6.675 38.025,6.661 H 26.32 c 0,0.014 0,0.014 -0.004,0.019 -0.578,0.161 -1.012,0.675 -1.012,1.306 0,0.513 0.295,0.936 0.707,1.178 -0.811,6.64 -2.078,17.692 -2.078,22.163 0,4.124 0,6.867 -2.748,9.615 -2.748,2.747 -4.119,5.495 -4.119,9.615 v 46.694 c 0,1.514 1.23,2.748 2.744,2.748 h 24.721 c 1.52,0 2.748,-1.234 2.748,-2.748 V 50.559 c 0,-4.121 -1.371,-6.87 -4.119,-9.617 z M 23.645,57.758 c 0,-4.71 3.818,-8.528 8.528,-8.528 4.71,0 8.528,3.818 8.528,8.528 v 4.676 H 23.645 v -4.676 z m 17.056,22.143 c 0,4.709 -3.818,8.527 -8.528,8.527 -4.709,0 -8.528,-3.818 -8.528,-8.527 v -6.168 h 17.056 v 6.168 z m 3.132,-8.3 H 20.512 v -7.036 h 23.321 v 7.036 z"
                                   inkscape:connector-curvature="0"
                                   style="fill:#000000" /></g></g></g></g></g></g></g></g></g></g></g></g></g></g></g></g></g></g></g></g></g></g></g></g></g></g></g></g></g></g></g></g></svg>