<?xml version="1.0" encoding="UTF-8" standalone="no"?>
<svg
   xmlns:dc="http://purl.org/dc/elements/1.1/"
   xmlns:cc="http://creativecommons.org/ns#"
   xmlns:rdf="http://www.w3.org/1999/02/22-rdf-syntax-ns#"
   xmlns:svg="http://www.w3.org/2000/svg"
   xmlns="http://www.w3.org/2000/svg"
   xmlns:sodipodi="http://sodipodi.sourceforge.net/DTD/sodipodi-0.dtd"
   xmlns:inkscape="http://www.inkscape.org/namespaces/inkscape"
   version="1.1"
   x="0px"
   y="0px"
   viewBox="-120 78.1 66.699851 61.954582"
   xml:space="preserve"
   id="svg2"
   inkscape:version="0.48.4 r9939"
   width="100%"
   height="100%"
   sodipodi:docname="Monument.svg"><metadata
     id="metadata18"><rdf:RDF><cc:Work
         rdf:about=""><dc:format>image/svg+xml</dc:format><dc:type
           rdf:resource="http://purl.org/dc/dcmitype/StillImage" /><dc:title></dc:title></cc:Work></rdf:RDF></metadata><defs
     id="defs16" /><sodipodi:namedview
     pagecolor="#ffffff"
     bordercolor="#666666"
     borderopacity="1"
     objecttolerance="10"
     gridtolerance="10"
     guidetolerance="10"
     inkscape:pageopacity="0"
     inkscape:pageshadow="2"
     inkscape:window-width="725"
     inkscape:window-height="735"
     id="namedview14"
     showgrid="false"
     fit-margin-top="0"
     fit-margin-left="0"
     fit-margin-right="0"
     fit-margin-bottom="0"
     inkscape:zoom="2.6700352"
     inkscape:cx="31.924407"
     inkscape:cy="34.359928"
     inkscape:window-x="137"
     inkscape:window-y="103"
     inkscape:window-maximized="0"
     inkscape:current-layer="g3508" /><g
     id="g3032"
     transform="translate(-130.41281,70.095454)"><g
       id="g3082"
       transform="translate(-11.778449,-19.681681)"><g
         id="g3297"
         transform="translate(113.35527,48.840676)"><g
           id="g3451"
           transform="translate(-110.35024,-41.106017)"><g
             id="g3508"
             transform="translate(37.661621,37.801481)"><g
               id="g3492"
               transform="matrix(2.4703649,0,0,2.3828686,-687.94428,-499.18937)"><g
                 id="g3494"><path
                   id="path3496"
                   d="m 296,213 v -1 h 1 v -3 h 1 v -1 l -13,-6 h -1 l -2,1 v 2 h -3 v 1 h -2 v 2 h -2 v 4 h 4 v 1 h 1 v 11 h -1 v 1 h -1 v -1 h -1 v -5 h -3 v 5 h -1 v 1 h -1 v 1 h -1 v 2 h 27 v -2 h -1 v -1 h -1 v -1 h -1 v -11 h 1 z m -21,7 h 1 v 4 h -1 v -4 z m 21,6 v 1 h -23 v -1 h 1 v -1 h 3 v 1 h 3 v -1 h 3 v 1 h 3 v -1 h 3 v 1 h 3 v -1 h 3 v 1 h 1 z m -15,-2 v -11 h 1 v 11 h -1 z m 5,-11 v 11 h -1 v 1 h -1 v -1 h -1 v -11 h 1 v -1 h 1 v 1 h 1 z m 1,11 v -11 h 1 v 11 h -1 z m 5,-11 v 11 h -1 v 1 h -1 v -1 h -1 v -11 h 1 v -1 h 1 v 1 h 1 z m 1,11 v -11 h 1 v 11 h -1 z m -17,-13 v -2 h 2 v -2 h 2 v -1 h 3 v -2.438 l 1.22,-0.563 h 0.561 l 4.333,2 H 286 v 1 h 5.28 l 4.333,2 H 281 v 1 h 15 v 2 h -20 z"
                   inkscape:connector-curvature="0" /></g></g></g></g></g></g></g></svg>