<?xml version="1.0" encoding="UTF-8" standalone="no"?>
<svg
   xmlns:dc="http://purl.org/dc/elements/1.1/"
   xmlns:cc="http://creativecommons.org/ns#"
   xmlns:rdf="http://www.w3.org/1999/02/22-rdf-syntax-ns#"
   xmlns:svg="http://www.w3.org/2000/svg"
   xmlns="http://www.w3.org/2000/svg"
   xmlns:sodipodi="http://sodipodi.sourceforge.net/DTD/sodipodi-0.dtd"
   xmlns:inkscape="http://www.inkscape.org/namespaces/inkscape"
   version="1.1"
   x="0px"
   y="0px"
   viewBox="-120 78.1 96.000008 77.562009"
   xml:space="preserve"
   id="svg2"
   inkscape:version="0.48.4 r9939"
   width="100%"
   height="100%"
   sodipodi:docname="Theme Park.svg"><metadata
     id="metadata18"><rdf:RDF><cc:Work
         rdf:about=""><dc:format>image/svg+xml</dc:format><dc:type
           rdf:resource="http://purl.org/dc/dcmitype/StillImage" /><dc:title></dc:title></cc:Work></rdf:RDF></metadata><defs
     id="defs16" /><sodipodi:namedview
     pagecolor="#ffffff"
     bordercolor="#666666"
     borderopacity="1"
     objecttolerance="10"
     gridtolerance="10"
     guidetolerance="10"
     inkscape:pageopacity="0"
     inkscape:pageshadow="2"
     inkscape:window-width="725"
     inkscape:window-height="735"
     id="namedview14"
     showgrid="false"
     fit-margin-top="0"
     fit-margin-left="0"
     fit-margin-right="0"
     fit-margin-bottom="0"
     inkscape:zoom="3.776"
     inkscape:cx="48.238219"
     inkscape:cy="28.971521"
     inkscape:window-x="114"
     inkscape:window-y="170"
     inkscape:window-maximized="0"
     inkscape:current-layer="g4160" /><g
     id="g3032"
     transform="translate(-122.38314,98.277872)"><g
       id="g3082"
       transform="translate(-11.778449,-19.681681)"><g
         id="g3297"
         transform="translate(113.35527,48.840676)"><g
           id="g3451"
           transform="translate(-110.35024,-41.106017)"><g
             id="g3508"
             transform="translate(37.661621,37.801481)"><g
               id="g3556"
               transform="translate(-33.173714,-53.557494)"><g
                 id="g3600"
                 transform="translate(1.6437441,2.3337983)"><g
                   id="g3673"
                   transform="translate(3.1326802,-1.9259882)"><g
                     id="g3728"
                     transform="translate(16.15499,5.0801784)"><g
                       id="g3774"
                       transform="matrix(1.3062103,0,0,1.1506075,-1.2423141,14.177607)"><g
                         id="g3814"
                         transform="matrix(0.76557355,0,0,0.86910615,-9.6088369,-25.571004)"><g
                           id="g3898"
                           transform="translate(-253.23308,-590.39679)"><g
                             id="g4071"
                             transform="translate(255.74688,596.01847)"><g
                               id="g4160"
                               transform="translate(-2.9830857,2.4410756)"><g
                                 id="g4132"><g
                                   id="g4134"><path
                                   id="path4136"
                                   d="M 0,50.904 V 75.627 H 26.602 V 50.904 H 0 z M 7.633,71.277 H 4.45 v -6.262 h 3.183 v 6.262 z m 0,-10.011 H 4.45 v -6.26 h 3.183 v 6.26 z m 7.263,10.011 H 11.71 v -6.262 h 3.186 v 6.262 z m 0,-10.011 H 11.71 v -6.26 h 3.186 v 6.26 z m 7.258,10.011 h -3.183 v -6.262 h 3.183 v 6.262 z m 0,-10.011 h -3.183 v -6.26 h 3.183 v 6.26 z"
                                   inkscape:connector-curvature="0" /><path
                                   id="path4138"
                                   d="M 69.398,50.904 V 75.627 H 96 V 50.904 H 69.398 z m 7.633,20.373 H 73.85 v -6.262 h 3.182 v 6.262 z m 0,-10.011 H 73.85 v -6.26 h 3.182 v 6.26 z m 7.262,10.011 h -3.186 v -6.262 h 3.186 v 6.262 z m 0,-10.011 h -3.186 v -6.26 h 3.186 v 6.26 z m 7.26,10.011 h -3.184 v -6.262 h 3.184 v 6.262 z m 0,-10.011 h -3.184 v -6.26 h 3.184 v 6.26 z"
                                   inkscape:connector-curvature="0" /></g><path
                                   id="path4140"
                                   d="M 28.386,38.276 V 75.627 H 67.615 V 38.276 H 28.386 z m 13.994,4.839 h 3.184 V 53.818 H 42.38 V 43.115 z M 37.053,69.709 H 33.868 V 59.008 h 3.185 v 10.701 z m 0,-15.891 H 33.868 V 43.115 h 3.185 V 53.818 z M 53.621,72.844 H 42.38 V 59.008 H 53.621 V 72.844 z M 54.074,53.818 H 50.89 V 43.115 h 3.184 v 10.703 z m 8.512,15.891 H 59.402 V 59.008 h 3.184 v 10.701 z m 0,-15.891 H 59.402 V 43.115 h 3.184 v 10.703 z"
                                   inkscape:connector-curvature="0" /><polygon
                                   id="polygon4142"
                                   points="48,26.773 26.013,36.704 69.988,36.704 " /><rect
                                   id="rect4144"
                                   height="2.635"
                                   width="95.998001"
                                   y="78.609001"
                                   x="0.0020000001" /><rect
                                   id="rect4146"
                                   height="2.635"
                                   width="95.998001"
                                   y="84.146004"
                                   x="0.0020000001" /><path
                                   id="path4148"
                                   d="M 47.264,9.219 V 9.98 c -2.655,-0.939 -5.312,2.111 -7.967,0.356 0,1.998 0,3.995 0,5.992 2.655,1.755 5.312,-1.296 7.967,-0.356 v 13.156 h 1.473 V 9.219 h -1.473 z"
                                   inkscape:connector-curvature="0" /></g></g></g></g></g></g></g></g></g></g></g></g></g></g></g></svg>