<?xml version="1.0" encoding="UTF-8" standalone="no"?>
<svg
   xmlns:dc="http://purl.org/dc/elements/1.1/"
   xmlns:cc="http://creativecommons.org/ns#"
   xmlns:rdf="http://www.w3.org/1999/02/22-rdf-syntax-ns#"
   xmlns:svg="http://www.w3.org/2000/svg"
   xmlns="http://www.w3.org/2000/svg"
   xmlns:sodipodi="http://sodipodi.sourceforge.net/DTD/sodipodi-0.dtd"
   xmlns:inkscape="http://www.inkscape.org/namespaces/inkscape"
   viewBox="0 0 100 100"
   x="0px"
   y="0px"
   version="1.1"
   id="svg12"
   sodipodi:docname="School.svg"
   width="100"
   height="100"
   inkscape:version="0.92.5 (2060ec1f9f, 2020-04-08)">
  <metadata
     id="metadata18">
    <rdf:RDF>
      <cc:Work
         rdf:about="">
        <dc:format>image/svg+xml</dc:format>
        <dc:type
           rdf:resource="http://purl.org/dc/dcmitype/StillImage" />
        <dc:title>Artboard 14</dc:title>
      </cc:Work>
    </rdf:RDF>
  </metadata>
  <defs
     id="defs16" />
  <sodipodi:namedview
     pagecolor="#ffffff"
     bordercolor="#666666"
     borderopacity="1"
     objecttolerance="10"
     gridtolerance="10"
     guidetolerance="10"
     inkscape:pageopacity="0"
     inkscape:pageshadow="2"
     inkscape:window-width="1680"
     inkscape:window-height="884"
     id="namedview14"
     showgrid="false"
     inkscape:zoom="2.085965"
     inkscape:cx="-7.0234571"
     inkscape:cy="21.044464"
     inkscape:window-x="0"
     inkscape:window-y="0"
     inkscape:window-maximized="1"
     inkscape:current-layer="svg12" />
  <title
     id="title2">Artboard 14</title>
  <g
     data-name="14-school"
     id="g6"
     transform="matrix(3.4167051,0,0,3.4167051,-4.7532015,-4.6919716)">
    <path
       d="M 28,22.18 V 12 a 1,1 0 0 0 -0.07,-0.35 v -0.08 a 1.26,1.26 0 0 0 -0.19,-0.28 v 0 a 0.75,0.75 0 0 0 -0.2,-0.15 l -12,-7 a 1,1 0 0 0 -1,0 l -12,7 a 1,1 0 0 0 0,1.72 L 5,14.32 V 20 a 1,1 0 0 0 0.45,0.83 17.17,17.17 0 0 0 19.1,0 A 1,1 0 0 0 25,20 v -5.68 l 1,-0.58 v 8.44 a 3,3 0 1 0 2,0 z m -5,-2.73 a 15.18,15.18 0 0 1 -16,0 v -4 l 7.5,4.37 a 1,1 0 0 0 1,0 L 23,15.49 Z M 15,17.84 5,12 15,6.16 25,12 Z M 27,26 a 1,1 0 1 1 1,-1 1,1 0 0 1 -1,1 z"
       id="path4"
       inkscape:connector-curvature="0" />
  </g>
</svg>
