<?xml version="1.0" encoding="UTF-8" standalone="no"?>
<svg
   xmlns:dc="http://purl.org/dc/elements/1.1/"
   xmlns:cc="http://creativecommons.org/ns#"
   xmlns:rdf="http://www.w3.org/1999/02/22-rdf-syntax-ns#"
   xmlns:svg="http://www.w3.org/2000/svg"
   xmlns="http://www.w3.org/2000/svg"
   xmlns:sodipodi="http://sodipodi.sourceforge.net/DTD/sodipodi-0.dtd"
   xmlns:inkscape="http://www.inkscape.org/namespaces/inkscape"
   version="1.1"
   x="0px"
   y="0px"
   viewBox="0 0 83.796866 27.582042"
   enable-background="new 0 0 100 100"
   xml:space="preserve"
   id="svg2"
   inkscape:version="0.48.4 r9939"
   width="100%"
   height="100%"
   sodipodi:docname="Supermarket.svg"><metadata
     id="metadata30"><rdf:RDF><cc:Work
         rdf:about=""><dc:format>image/svg+xml</dc:format><dc:type
           rdf:resource="http://purl.org/dc/dcmitype/StillImage" /><dc:title></dc:title></cc:Work></rdf:RDF></metadata><defs
     id="defs28"><style
       id="style10827"
       type="text/css">
   
    .fil1 {fill:none}
    .fil0 {fill:black}
    .fil2 {fill:black;fill-rule:nonzero}
   
  </style></defs><sodipodi:namedview
     pagecolor="#ffffff"
     bordercolor="#666666"
     borderopacity="1"
     objecttolerance="10"
     gridtolerance="10"
     guidetolerance="10"
     inkscape:pageopacity="0"
     inkscape:pageshadow="2"
     inkscape:window-width="846"
     inkscape:window-height="812"
     id="namedview26"
     showgrid="false"
     fit-margin-top="0"
     fit-margin-left="0"
     fit-margin-right="0"
     fit-margin-bottom="0"
     inkscape:zoom="3.6203867"
     inkscape:cx="9.9353923"
     inkscape:cy="-26.275155"
     inkscape:window-x="74"
     inkscape:window-y="59"
     inkscape:window-maximized="0"
     inkscape:current-layer="g11027" /><g
     id="g3217"
     transform="translate(-1247.996,7632.553)"><g
       id="g3355"
       transform="translate(0.52596752,-1.51338)"><g
         id="g3394"
         transform="translate(-1.304037,6.1068216)"><g
           id="g3432"
           transform="translate(1.3243604,-7.0685396)"><g
             id="g3490"
             transform="translate(14.50543,16.201175)"><g
               id="g3544"
               transform="translate(1.7832223,7.9070624)"><g
                 id="g3595"
                 transform="translate(9.5264836,-0.46901412)"><g
                   id="g3646"
                   transform="translate(-52.35165,-3.5880634)"><g
                     id="g3767"
                     transform="translate(6.0048559,8.7552768)"><g
                       id="g4075"
                       transform="translate(0.55239017,0.07303033)"><g
                         id="g4264"
                         transform="translate(3.0880737,-2.6377741)"><g
                           id="g4355"
                           transform="translate(8.4601992,5.328404)"><g
                             id="g4421"
                             transform="translate(-6.5255081,7.0858766)"><g
                               id="g4462"
                               transform="translate(25.518018,13.531166)"><g
                                 id="g4500"
                                 transform="translate(80.26127,-61.023322)"><g
                                   id="g5344"
                                   transform="translate(-17.614831,53.929153)"><g
                                   id="g5294"
                                   display="none"
                                   style="display:none"><rect
                                   id="rect5296"
                                   height="196"
                                   width="394.5"
                                   display="inline"
                                   y="-80.754997"
                                   x="-43.5"
                                   style="fill:#000000;display:inline" /></g><g
                                   id="g5316"
                                   display="none"
                                   style="display:none"><g
                                   id="g5318"
                                   display="inline"
                                   style="display:inline"><path
                                   id="path5320"
                                   d="M 1.581,10.718 H 30.418 L 16,1.051 1.581,10.718 z M 17.592,6.594 c 0,0.879 -0.713,1.592 -1.592,1.592 -0.879,0 -1.592,-0.713 -1.592,-1.592 0,-0.879 0.713,-1.592 1.592,-1.592 0.879,0 1.592,0.712 1.592,1.592 z"
                                   inkscape:connector-curvature="0" /><rect
                                   id="rect5322"
                                   height="3.0209999"
                                   width="31"
                                   y="28.030001"
                                   x="0.5" /><rect
                                   id="rect5324"
                                   height="11.875"
                                   width="3.0209999"
                                   y="13.363"
                                   x="3.6670001" /><rect
                                   id="rect5326"
                                   height="11.875"
                                   width="3.0209999"
                                   y="13.363"
                                   x="8.349" /><rect
                                   id="rect5328"
                                   height="11.875"
                                   width="3.0209999"
                                   y="13.363"
                                   x="20.629999" /><rect
                                   id="rect5330"
                                   height="11.875"
                                   width="3.0209999"
                                   y="13.363"
                                   x="25.312" /></g><path
                                   id="path5332"
                                   d="m 19.055,22.809 c -0.386,0.262 -1.035,0.524 -1.857,0.524 -1.01,0 -1.907,-0.386 -2.53,-1.11 -0.474,-0.524 -0.785,-1.246 -0.897,-2.144 h -0.773 v -0.611 h 0.711 c 0,-0.062 0,-0.125 0,-0.187 0,-0.2 0.012,-0.387 0.025,-0.561 h -0.735 v -0.624 h 0.823 c 0.15,-0.872 0.524,-1.595 1.022,-2.106 0.636,-0.66 1.446,-1.035 2.468,-1.035 0.735,0 1.309,0.212 1.658,0.399 l -0.249,0.822 c -0.312,-0.187 -0.835,-0.349 -1.396,-0.349 -0.673,0 -1.221,0.237 -1.645,0.685 -0.374,0.361 -0.623,0.922 -0.748,1.583 h 3.478 v 0.624 h -3.59 c -0.013,0.162 -0.025,0.349 -0.025,0.523 0,0.075 0,0.137 0,0.225 h 3.615 v 0.611 h -3.53 c 0.1,0.723 0.349,1.259 0.685,1.633 0.461,0.486 1.085,0.723 1.757,0.723 0.661,0 1.234,-0.249 1.521,-0.411 l 0.212,0.786 z"
                                   display="inline"
                                   inkscape:connector-curvature="0"
                                   style="display:inline" /></g><g
                                   id="g5453"
                                   transform="translate(-52.625356,-10.750909)"><g
                                   id="g5403"
                                   display="none"
                                   style="display:none"><rect
                                   id="rect5405"
                                   height="196"
                                   width="394.5"
                                   display="inline"
                                   y="-80.754997"
                                   x="-43.5"
                                   style="fill:#000000;display:inline" /></g><g
                                   id="g5425"
                                   display="none"
                                   style="display:none"><g
                                   id="g5427"
                                   display="inline"
                                   style="display:inline"><path
                                   id="path5429"
                                   d="M 1.581,10.718 H 30.418 L 16,1.051 1.581,10.718 z M 17.592,6.594 c 0,0.879 -0.713,1.592 -1.592,1.592 -0.879,0 -1.592,-0.713 -1.592,-1.592 0,-0.879 0.713,-1.592 1.592,-1.592 0.879,0 1.592,0.712 1.592,1.592 z"
                                   inkscape:connector-curvature="0" /><rect
                                   id="rect5431"
                                   height="3.0209999"
                                   width="31"
                                   y="28.030001"
                                   x="0.5" /><rect
                                   id="rect5433"
                                   height="11.875"
                                   width="3.0209999"
                                   y="13.363"
                                   x="3.6670001" /><rect
                                   id="rect5435"
                                   height="11.875"
                                   width="3.0209999"
                                   y="13.363"
                                   x="8.349" /><rect
                                   id="rect5437"
                                   height="11.875"
                                   width="3.0209999"
                                   y="13.363"
                                   x="20.629999" /><rect
                                   id="rect5439"
                                   height="11.875"
                                   width="3.0209999"
                                   y="13.363"
                                   x="25.312" /></g><path
                                   id="path5441"
                                   d="m 19.055,22.809 c -0.386,0.262 -1.035,0.524 -1.857,0.524 -1.01,0 -1.907,-0.386 -2.53,-1.11 -0.474,-0.524 -0.785,-1.246 -0.897,-2.144 h -0.773 v -0.611 h 0.711 c 0,-0.062 0,-0.125 0,-0.187 0,-0.2 0.012,-0.387 0.025,-0.561 h -0.735 v -0.624 h 0.823 c 0.15,-0.872 0.524,-1.595 1.022,-2.106 0.636,-0.66 1.446,-1.035 2.468,-1.035 0.735,0 1.309,0.212 1.658,0.399 l -0.249,0.822 c -0.312,-0.187 -0.835,-0.349 -1.396,-0.349 -0.673,0 -1.221,0.237 -1.645,0.685 -0.374,0.361 -0.623,0.922 -0.748,1.583 h 3.478 v 0.624 h -3.59 c -0.013,0.162 -0.025,0.349 -0.025,0.523 0,0.075 0,0.137 0,0.225 h 3.615 v 0.611 h -3.53 c 0.1,0.723 0.349,1.259 0.685,1.633 0.461,0.486 1.085,0.723 1.757,0.723 0.661,0 1.234,-0.249 1.521,-0.411 l 0.212,0.786 z"
                                   display="inline"
                                   inkscape:connector-curvature="0"
                                   style="display:inline" /></g><g
                                   id="g5911"
                                   transform="translate(34.803917,-34.731522)"><g
                                   id="g5969"
                                   transform="translate(-76.820846,20.463898)"><g
                                   id="g6024"
                                   transform="translate(-1.5269147,1.6004891)"><g
                                   id="g6071"
                                   transform="translate(7.3886843,1.0351706)"><g
                                   id="g6187"
                                   transform="translate(-0.71000052,-4.6322855)"><g
                                   id="g6263"
                                   transform="translate(-0.66737304,-5.3488176)"><g
                                   id="g6319"
                                   transform="translate(0.79720466,3.5647493)"><g
                                   id="g6384"
                                   transform="translate(-9.1472004,2.261335)"><g
                                   id="g6488"
                                   transform="translate(-2.0348122,-3.4042665)"><g
                                   id="g6516"
                                   transform="translate(-0.63832329,-2.3294036)"><g
                                   id="g6769"
                                   transform="translate(1565.7794,-3801.8487)"><g
                                   id="g6910"
                                   transform="translate(-308.09512,-3790.9493)"><g
                                   id="g6983"
                                   transform="translate(-14.231122,-15.611848)"><g
                                   id="g7151"
                                   transform="translate(33.267081,-22.491026)"><g
                                   id="g7382"
                                   transform="translate(-23.229266,23.886871)"><g
                                   id="g7549"
                                   transform="translate(14.444681,15.529545)"><g
                                   id="g7800"
                                   transform="translate(-10.517025,-15.548079)"><g
                                   id="g7999"
                                   transform="matrix(0.53445343,0,0,0.59502607,5.6563057,11.962949)"><g
                                   id="g8217"
                                   transform="matrix(0.65157633,0,0,0.66199506,14.891666,27.68312)"><g
                                   id="g8341"
                                   transform="matrix(0.81955739,0,0,0.8373697,16.904811,-6.2861215)"><g
                                   id="g8463"
                                   transform="matrix(1.0901467,0,0,0.7755316,14.691042,9.5565496)"><g
                                   id="g8628"
                                   transform="matrix(3.2141084,0,0,3.9092417,-42.983003,-211.13796)"><g
                                   id="g8709"
                                   transform="matrix(0.28046364,0,0,0.26137124,8.2602788,58.166419)"><g
                                   id="g8982"
                                   transform="matrix(0.85470616,0,0,0.82928987,-24.416347,-291.09779)"><g
                                   id="g9029"
                                   transform="matrix(0.56179905,0,0,0.59146659,71.827756,364.20217)"><g
                                   id="g9231"
                                   transform="matrix(1.6434845,0,0,1.6275903,-1.9010194,-26.060019)"><g
                                   id="g9437"
                                   transform="matrix(0.71903998,0,0,0.65801134,3.2171324,7.0571502)"><g
                                   id="g9598"
                                   transform="matrix(0.80108296,0,0,0.9233293,9.6403445,4.2821143)"><g
                                   id="g9708"
                                   transform="matrix(0.94363907,0,0,1.1480868,25.922318,9.4839725)"><g
                                   id="g9819"
                                   transform="matrix(1.095798,0,0,0.98226973,-24.771036,-19.505567)"><g
                                   id="g9923"
                                   transform="matrix(1.4565749,0,0,1.1402449,-4.0661436,-21.558968)"><g
                                   id="g10097"
                                   transform="matrix(0.11168619,0,0,0.17855319,5.2962471,-4.487068)"><g
                                   id="g10271"
                                   transform="matrix(13.365969,0,0,8.1997528,-133.46038,-213.50307)"><g
                                   style="fill-rule:evenodd"
                                   id="g10860"
                                   transform="matrix(3.4886731,0,0,4.1898505,17.112225,-334.18238)"><g
                                   id="g10926"
                                   transform="translate(-3.4835301,11.933542)"><g
                                   id="g10977"
                                   transform="translate(-23.300771,-27.486778)"><g
                                   id="g11027"
                                   transform="matrix(0.43252474,0,0,0.37672697,-8.3080623,-3.9894485)"><path
                                   id="path11015"
                                   d="m 236.73292,154.6087 c -3.71682,-9.43748 -15.43878,-10.8656 -23.19435,-11.81191 -0.85433,-0.10379 -1.6602,-0.20118 -2.41471,-0.30433 -3.21044,-0.43824 -8.57662,-1.49795 -15.13423,-3.16441 0.0673,-0.1102 0.12587,-0.22681 0.17,-0.35046 0.36676,-1.0296 -0.27924,-2.12968 -1.44101,-2.45516 l -0.25247,-0.0711 c -1.5148,-0.42927 -4.44818,-1.25769 -7.04591,0.52921 -1.87794,-0.55036 -3.80725,-1.14108 -5.77273,-1.76961 0.11358,-0.13006 0.21051,-0.27293 0.28575,-0.43183 0.47238,-0.99628 -0.0572,-2.14377 -1.18131,-2.56151 -1.11549,-0.41389 -3.72551,-1.38519 -6.32468,-0.40043 -0.38992,0.14736 -0.7603,0.33508 -1.11476,0.55548 -0.52736,-0.19028 -1.05472,-0.38185 -1.58425,-0.57791 -0.95705,-0.3543 -1.90471,-0.71053 -2.84296,-1.06484 0.0803,-0.0935 0.15409,-0.19285 0.21485,-0.30177 0.55268,-0.96489 0.11647,-2.14121 -0.97152,-2.62942 -1.71301,-0.76948 -4.29338,-1.50564 -6.86072,-0.65351 -0.27417,0.0916 -0.53749,0.19925 -0.79285,0.32035 -1.52565,-0.60674 -3.00934,-1.20259 -4.4489,-1.78563 0.0861,-0.0878 0.16566,-0.18003 0.23438,-0.28126 0.62574,-0.92838 0.28429,-2.12969 -0.76319,-2.68389 -2.31126,-1.22373 -4.70354,-1.56522 -6.73195,-0.96233 -0.40945,0.12109 -0.79936,0.28063 -1.17046,0.47028 -1.58569,-0.65352 -3.10628,-1.2814 -4.55525,-1.87212 0.0398,-0.0513 0.076,-0.1038 0.11141,-0.1589 0.58957,-0.94375 0.204,-2.1348 -0.8623,-2.65889 -1.05109,-0.51448 -3.80797,-1.61328 -6.73122,-0.69452 -0.0767,0.0237 -0.15192,0.0512 -0.22787,0.0775 l -19.78353,-9.80715 c -0.98961,-0.49205 -2.2382,-0.23898 -2.88925,0.58432 -0.14034,0.17747 -3.45062,4.41121 -3.78194,8.81856 -0.33276,4.41633 0.35519,6.76834 0.94766,7.93377 -8.93109,5.25436 -16.815419,8.88071 -21.623131,9.85585 -10.214398,2.07202 -23.012779,-1.90095 -25.789185,-11.11931 -0.156978,-0.52281 -0.55123,-0.96489 -1.088716,-1.21989 -0.536762,-0.25628 -1.169737,-0.30305 -1.748456,-0.13134 -7.845265,2.33278 -13.703353,9.97823 -14.925898,19.47722 -7.24e-4,0.0102 0,0.0173 -0.0014,0.0276 -0.0051,0.0397 -0.0072,0.0827 -0.0087,0.12365 -0.0015,0.025 -0.0029,0.0487 -0.0029,0.075 0,0.0365 0.0029,0.0711 0.0051,0.10764 0.0014,0.0301 0.0036,0.0615 0.0065,0.0903 0.0043,0.0301 0.0087,0.0577 0.01447,0.0865 0.0058,0.0365 0.01157,0.0711 0.01953,0.10636 0.0058,0.0224 0.01302,0.0461 0.01881,0.0711 0.01085,0.0378 0.02098,0.075 0.03472,0.11148 0.008,0.0237 0.01736,0.0461 0.02677,0.0685 0.01447,0.0365 0.02821,0.0724 0.04485,0.10764 0.01157,0.0263 0.02604,0.05 0.03979,0.0762 0.01519,0.0301 0.03111,0.0602 0.04919,0.0903 0.01736,0.0301 0.03834,0.0589 0.05787,0.0891 0.01519,0.0224 0.03111,0.0474 0.04774,0.0698 0.02387,0.0314 0.04991,0.0615 0.07596,0.0929 0.01591,0.0186 0.03183,0.0391 0.04847,0.0577 0.02749,0.0301 0.05642,0.0589 0.08536,0.0878 0.01953,0.0186 0.03834,0.0378 0.05787,0.0551 0.02749,0.025 0.05642,0.0487 0.08608,0.0724 0.0246,0.0199 0.04919,0.0397 0.07523,0.0589 0.02532,0.0186 0.05209,0.0365 0.07813,0.0538 0.03328,0.0224 0.06655,0.0448 0.101276,0.0654 0.0217,0.0128 0.04485,0.0263 0.06872,0.0378 0.04123,0.0237 0.08247,0.0449 0.125871,0.0654 0.0087,0.005 0.01519,0.009 0.02387,0.0128 0.01157,0.006 0.02243,0.009 0.034,0.0135 0.05642,0.025 0.114297,0.0474 0.174339,0.0686 0.02315,0.008 0.04557,0.0147 0.06872,0.0224 0.05353,0.0173 0.107787,0.0314 0.163489,0.0448 0.02749,0.006 0.05425,0.0128 0.08102,0.0186 0.05136,0.0115 0.104169,0.0186 0.156977,0.025 0.0463,0.006 0.09259,0.0128 0.13817,0.0147 0.05932,0.005 0.118637,0.009 0.176509,0.0102 0.0072,0 0.01302,10e-4 0.01881,10e-4 0.02242,0 0.04485,-0.004 0.06728,-0.004 0.06149,-0.003 0.122978,-0.006 0.182296,-0.0128 0.03472,-0.003 0.06945,-0.008 0.103447,-0.0128 0.05787,-0.008 0.114297,-0.0186 0.171445,-0.0314 0.02894,-0.006 0.05859,-0.0115 0.08826,-0.0186 0.0774,-0.0199 0.154084,-0.0436 0.227871,-0.0711 0.03328,-0.0115 0.06583,-0.0263 0.09838,-0.0397 0.04485,-0.0186 0.09042,-0.0378 0.133829,-0.0589 0.03617,-0.0186 0.07162,-0.0365 0.10634,-0.0551 0.04413,-0.025 0.08608,-0.0525 0.128765,-0.0801 0.0463,-0.0301 0.09332,-0.0615 0.136722,-0.0948 0.04123,-0.0327 0.0803,-0.0641 0.118638,-0.0974 0.02677,-0.0237 0.05208,-0.0487 0.07813,-0.0724 0.04485,-0.0436 0.08536,-0.0891 0.125148,-0.13647 0,0 0.0014,0 0.0014,-0.001 -0.275616,2.14633 -0.418125,4.33368 -0.418125,6.55241 0,7.10022 0.269828,13.09907 3.580103,19.78412 -0.503486,1.02127 -1.064121,2.91325 -0.262594,5.51448 1.239906,4.02551 6.18217,5.48566 9.200916,5.48566 h 66.129544 c 3.97508,0 9.49896,-0.0173 15.34837,-0.0365 12.71735,-0.041 27.13181,-0.0878 30.20987,0.034 0.63659,0.025 1.30863,0.0378 2.00888,0.0378 10.29832,0 26.74842,-2.55767 27.50364,-2.67556 l 0.4637,-0.0762 c 0.18881,0.0903 0.39643,0.15761 0.61779,0.1967 0.14468,0.025 0.28791,0.0365 0.43042,0.0365 0.13238,0 0.26259,-0.0103 0.39063,-0.0301 0.9057,-0.14544 1.7962,-0.28767 2.67224,-0.42542 4.92635,-0.77973 9.17922,-1.4531 12.71013,-2.26999 6.75076,-1.56203 12.37591,-3.11572 17.89834,-5.62854 l 0,0 c 0.6771,-0.30753 1.15527,-0.91748 1.1965,-1.63954 0.30962,-5.19286 -0.21412,-9.55153 -1.55386,-12.95235 z m -16.61576,-5.75539 c -0.29659,-0.39531 -0.73642,-0.86366 -1.5025,-1.38775 2.72433,0.47283 5.42044,1.14877 7.75557,2.25525 0.18157,0.11917 0.36966,0.33188 0.12804,0.63557 -1.35203,1.44414 -2.97317,2.64801 -4.8569,3.58023 -0.43621,0.21527 -0.884,0.43311 -1.34263,0.65543 -0.79936,0.3889 -1.63488,0.79575 -2.48994,1.23014 1.51914,-1.53191 2.58615,-2.79408 2.94062,-4.18184 0.16855,-0.66184 0.19531,-1.68183 -0.63226,-2.78703 z m -88.70032,-28.69238 c -0.21051,0.34405 -0.40438,0.70797 -0.58234,1.09623 -0.45791,1.00205 0.0883,2.1425 1.22038,2.54806 0.27127,0.0974 0.55195,0.14416 0.82757,0.14416 0.87314,0 1.70143,-0.46323 2.04866,-1.22374 0.18953,-0.41517 0.40004,-0.77332 0.62864,-1.07765 0.43259,0.16786 0.87097,0.34021 1.32454,0.51961 0.0673,0.0301 0.136,0.0577 0.20544,0.0827 2.25267,0.89377 4.74767,1.91824 7.44957,3.03178 -0.14974,0.26525 -0.29225,0.54331 -0.42464,0.83611 -0.45791,1.00205 0.0868,2.14249 1.21966,2.54805 0.27055,0.0961 0.55195,0.14288 0.82829,0.14288 0.87314,0 1.70071,-0.46194 2.04794,-1.22373 0.10779,-0.23642 0.22281,-0.44913 0.34072,-0.64967 2.70335,1.11225 5.6295,2.30908 8.73577,3.55267 -0.16421,0.28255 -0.32119,0.58047 -0.46514,0.8957 -0.45719,1.00077 0.089,2.14249 1.22109,2.54677 0.27056,0.0974 0.55196,0.14416 0.82757,0.14416 0.87315,0 1.70144,-0.46195 2.04795,-1.22374 0.12876,-0.28126 0.26765,-0.53562 0.41306,-0.76115 2.78653,1.09111 5.69026,2.20337 8.69164,3.31626 0.16277,0.0602 0.32336,0.11789 0.48468,0.17747 -0.12587,0.24539 -0.24813,0.4991 -0.3617,0.76564 -0.43621,1.00974 0.13527,2.13993 1.27535,2.52627 0.25898,0.0878 0.52519,0.12878 0.78706,0.12878 0.88978,0 1.7282,-0.48053 2.0653,-1.25897 0.10779,-0.25308 0.22209,-0.48309 0.34,-0.69836 3.41734,1.18529 6.80791,2.2764 10.09287,3.26115 -0.10562,0.21399 -0.20906,0.43183 -0.30962,0.6644 -0.43548,1.00974 0.136,2.13993 1.27536,2.52499 0.2597,0.0891 0.52591,0.13006 0.78778,0.13006 0.88906,0 1.7282,-0.47924 2.06458,-1.25897 0.13528,-0.31138 0.26694,-0.58816 0.39715,-0.83483 3.65895,1.02961 7.12837,1.91697 10.29108,2.65442 -1.65876,2.1111 -5.94345,5.67338 -18.36133,1.22885 -6.63212,-2.37378 -22.96937,-8.41428 -37.38382,-13.74489 -9.73479,-3.60008 -18.48647,-6.83625 -23.56401,-8.69171 0.29008,-0.18772 0.58089,-0.37545 0.8717,-0.56702 0.089,-0.0577 0.17216,-0.12109 0.25029,-0.19028 0.0412,-0.0417 4.23767,-3.67505 10.39091,-2.06241 z m -18.13273,-3.38865 c 0.14685,-1.96117 1.16468,-3.98962 1.97344,-5.32228 l 9.54742,4.73412 c -3.71104,0.79574 -6.15975,2.65441 -6.76885,3.15607 -1.11765,0.73232 -2.22951,1.44414 -3.33125,2.13609 -0.43259,0.0852 -0.82974,0.28511 -1.13719,0.57535 -0.24306,-0.89313 -0.49046,-2.53524 -0.28357,-5.27935 z m -47.900605,16.8747 c 1.124886,0.80344 2.347431,1.53639 3.661124,2.17837 5.942002,2.90813 13.094974,3.72182 20.14233,2.28986 5.988299,-1.21476 15.641341,-5.7791 26.469181,-12.44876 1.36722,0.49333 3.40142,1.23654 5.91234,2.16107 -2.71419,2.13865 -7.99211,5.96618 -14.79134,9.2741 -3.21045,1.56267 -6.44694,3.13238 -9.655214,4.60598 -0.58306,0.26653 -1.944498,0.86815 -3.25168,1.53896 -24.499364,-2.45516 -32.896583,-5.96041 -35.754734,-7.92351 2.211432,-0.82522 4.663032,-1.40313 7.267993,-1.67607 z m -14.035393,0.55933 c 1.809945,-3.54242 4.480012,-6.34675 7.624628,-7.88251 0.663358,1.3775 1.551692,2.6967 2.63028,3.9294 -3.849931,0.76243 -7.35263,2.12456 -10.254908,3.95311 z m 1.260885,15.04615 c 0,-2.5692 0.202552,-5.09034 0.598974,-7.54294 3.535253,10.93672 10.095761,20.08589 16.290953,25.74453 -5.943449,-0.0173 -11.682176,-0.0737 -13.823438,-0.27806 -2.839342,-5.88417 -3.066489,-11.1821 -3.066489,-17.92353 z m 74.229443,26.87088 H 60.708899 c -1.668159,0 -4.391034,-0.82586 -4.9372,-2.60188 -0.339998,-1.10136 -0.269828,-1.91312 -0.135999,-2.42632 0.05425,0.004 0.107786,0.008 0.162041,0.0128 1.127779,0.0814 2.712747,0.14031 4.846052,0.1826 3.932398,0.0762 9.21032,0.0814 14.800026,0.0865 4.511118,0.005 9.17632,0.009 13.518886,0.0513 30.073875,0.29024 42.257365,2.80177 50.321095,4.46374 0.33132,0.0686 0.65757,0.13519 0.98093,0.20118 -5.12745,0.016 -9.8932,0.0301 -13.42629,0.0301 z m 13.44583,-4.04345 c -8.24965,-1.70041 -20.71599,-4.26961 -51.272374,-4.56625 -4.17112,-0.0397 -8.622919,-0.0448 -12.955358,-0.0487 -7.972583,-5.551 -15.751296,-17.0573 -19.029018,-28.21441 -0.196041,-0.66697 -0.378338,-1.33906 -0.555571,-2.00987 2.861768,2.64928 11.069456,7.98245 32.808328,11.49988 27.819043,4.50091 48.716603,3.18235 52.165763,21.89137 0.10996,0.59842 0.23294,1.18401 0.36604,1.76064 -0.49914,-0.10123 -1.0048,-0.20502 -1.52781,-0.31266 z m 17.12792,-22.00862 c -7.28318,-2.52371 -16.6324,-4.23117 -28.61261,-4.63993 -10.45023,-0.35815 -19.38927,-0.86751 -27.03488,-1.47681 2.37709,-1.1225 4.76793,-2.26871 7.13778,-3.42261 8.87032,-4.31446 15.16318,-9.35163 17.16554,-11.04819 4.60155,1.69785 10.0784,3.72309 15.6956,5.80023 6.38978,2.3629 13.15718,4.86546 19.29233,7.12777 l -3.64376,7.65954 z m 44.48038,21.3282 c -3.45496,0.64967 -10.82423,1.87212 -20.43965,2.56664 -1.64573,-7.76206 -6.73412,-16.55436 -19.99765,-22.32449 0.008,-0.0147 0.0174,-0.0276 0.0239,-0.041 l 3.65678,-7.68581 c 5.9666,2.19503 11.02099,4.04536 14.05782,5.13199 4.53933,1.62417 8.4739,2.43017 11.91511,2.43017 1.32672,0 2.57964,-0.12046 3.76747,-0.35944 3.20538,-0.64582 5.81974,-2.16491 7.79462,-4.52012 1.42004,0.25884 3.73708,0.71566 6.11345,1.32753 4.57261,1.17504 6.452,2.16235 7.20072,2.69541 0.19242,0.16274 0.37978,0.41902 0.1671,0.72335 -0.5505,0.82073 -1.76364,2.00474 -2.94496,3.1612 -3.54972,3.4649 -8.83053,8.62764 -11.31468,16.89457 z m 32.03646,-5.17684 c -4.81495,2.06113 -9.86066,3.4335 -15.8504,4.81869 -3.20322,0.74065 -7.14285,1.37494 -11.68507,2.09572 3.08746,-8.81856 10.20499,-12.28218 16.03197,-15.11406 0.46732,-0.22873 0.92523,-0.45041 1.37012,-0.67081 2.55505,-1.2641 4.73537,-2.91838 6.50842,-4.93146 0.9491,0.96874 1.72025,2.11367 2.25773,3.47643 1.054,2.6794 1.51191,6.14942 1.36723,10.32549 z"
                                   inkscape:connector-curvature="0"
                                   style="fill:#000000" /></g></g></g></g></g></g></g></g></g></g></g></g></g></g></g></g></g></g></g></g></g></g></g></g></g></g></g></g></g></g></g></g></g></g></g></g></g></g></g></g></g></g></g></g></g></g></g></g></g></g></g></g></g></g></svg>