<?xml version="1.0" encoding="UTF-8" standalone="no"?>
<svg
   xmlns:dc="http://purl.org/dc/elements/1.1/"
   xmlns:cc="http://creativecommons.org/ns#"
   xmlns:rdf="http://www.w3.org/1999/02/22-rdf-syntax-ns#"
   xmlns:svg="http://www.w3.org/2000/svg"
   xmlns="http://www.w3.org/2000/svg"
   xmlns:sodipodi="http://sodipodi.sourceforge.net/DTD/sodipodi-0.dtd"
   xmlns:inkscape="http://www.inkscape.org/namespaces/inkscape"
   version="1.1"
   x="0px"
   y="0px"
   viewBox="-120 78.1 64.736546 54.937001"
   xml:space="preserve"
   id="svg2"
   inkscape:version="0.92.5 (2060ec1f9f, 2020-04-08)"
   width="100%"
   height="100%"
   sodipodi:docname="Sports Centre.svg"><metadata
     id="metadata18"><rdf:RDF><cc:Work
         rdf:about=""><dc:format>image/svg+xml</dc:format><dc:type
           rdf:resource="http://purl.org/dc/dcmitype/StillImage" /><dc:title /></cc:Work></rdf:RDF></metadata><defs
     id="defs16" /><sodipodi:namedview
     pagecolor="#ffffff"
     bordercolor="#666666"
     borderopacity="1"
     objecttolerance="10"
     gridtolerance="10"
     guidetolerance="10"
     inkscape:pageopacity="0"
     inkscape:pageshadow="2"
     inkscape:window-width="1680"
     inkscape:window-height="884"
     id="namedview14"
     showgrid="false"
     fit-margin-top="0"
     fit-margin-left="0"
     fit-margin-right="0"
     fit-margin-bottom="0"
     inkscape:zoom="3.776"
     inkscape:cx="2.3074392"
     inkscape:cy="28.781324"
     inkscape:window-x="0"
     inkscape:window-y="0"
     inkscape:window-maximized="1"
     inkscape:current-layer="g4780" /><g
     id="g3032"
     transform="translate(-156.80258,75.843061)"><g
       id="g3082"
       transform="translate(-11.778449,-19.681681)"><g
         id="g3297"
         transform="translate(113.35527,48.840676)"><g
           id="g3451"
           transform="translate(-110.35024,-41.106017)"><g
             id="g3508"
             transform="translate(37.661621,37.801481)"><g
               id="g3556"
               transform="translate(-33.173714,-53.557494)"><g
                 id="g3600"
                 transform="translate(1.6437441,2.3337983)"><g
                   id="g3673"
                   transform="translate(3.1326802,-1.9259882)"><g
                     id="g3728"
                     transform="translate(16.15499,5.0801784)"><g
                       id="g3774"
                       transform="matrix(1.3062103,0,0,1.1506075,-1.2423141,14.177607)"><g
                         id="g3814"
                         transform="matrix(0.76557355,0,0,0.86910615,-9.6088369,-25.571004)"><g
                           id="g3898"
                           transform="translate(-253.23308,-590.39679)"><g
                             id="g4071"
                             transform="translate(255.74688,596.01847)"><g
                               id="g4160"
                               transform="translate(-2.9830857,2.4410756)"><g
                                 id="g4272"
                                 transform="matrix(0.87809547,0,0,0.86067766,11.546476,7.0690494)"><g
                                   id="g4327"
                                   transform="matrix(1.1388283,0,0,1.1618751,13.689337,21.712146)"><g
                                   id="g4372"
                                   transform="translate(0.89151921,1.2290808)"><g
                                   id="g4455"
                                   transform="translate(0.83942136,-4.6551301)"><g
                                   id="g4513"
                                   transform="translate(7.1555672,3.6004605)"><g
                                   id="g4571"
                                   transform="translate(-14.785669,-7.1687881)"><g
                                   id="g4625"
                                   transform="translate(5.4949718,-38.187748)"><g
                                   id="g4670"
                                   transform="translate(-2.3954106,9.1221103)"><g
                                   id="g4717"
                                   transform="translate(-7.6207232,6.0667631)"><g
                                   id="g4812"
                                   transform="translate(1.2712846,13.781853)"><g
                                   id="g4780"><g
                                   id="g4784"
                                   transform="matrix(1.45811,0,0,1.45811,-44.212845,-9.6334301)"><path
                                   id="path4786"
                                   d="m 48.155,39.982 c -0.134,0 -0.27,10e-4 -0.406,0.004 -0.166,4.913 1.621,9.688 4.965,13.272 l 7.915,-7.915 C 60.523,45.23 60.415,45.119 60.307,45.011 57.063,41.769 52.747,39.982 48.155,39.982 Z"
                                   inkscape:connector-curvature="0" /><path
                                   id="path4788"
                                   d="m 62.28,47.38 -7.651,7.652 c 3.009,2.43 6.73,3.861 10.602,4.075 0.463,-4.122 -0.596,-8.328 -2.951,-11.727 z"
                                   inkscape:connector-curvature="0" /><path
                                   id="path4790"
                                   d="m 48.155,37.373 c 5.287,0 10.258,2.059 13.998,5.797 0.106,0.107 0.213,0.217 0.321,0.33 L 64.881,41.095 52.27,28.485 c -2.206,2.537 -3.662,5.584 -4.247,8.889 0.043,-0.001 0.088,-0.001 0.132,-0.001 z"
                                   inkscape:connector-curvature="0" /><path
                                   id="path4792"
                                   d="M 67.854,59.071 C 71.746,58.733 75.44,57.167 78.39,54.604 L 66.724,42.937 64.151,45.509 c 2.832,3.884 4.16,8.758 3.703,13.562 z"
                                   inkscape:connector-curvature="0" /><path
                                   id="path4794"
                                   d="m 63.002,22.393 c -3.305,0.585 -6.354,2.041 -8.889,4.248 L 66.724,39.25 69.13,36.844 C 69.017,36.737 68.908,36.63 68.799,36.521 65.058,32.78 62.97,27.668 63.002,22.393 Z"
                                   inkscape:connector-curvature="0" /><path
                                   id="path4796"
                                   d="m 82.796,42.315 c -4.179,0 -8.296,-1.344 -11.657,-3.794 l -2.573,2.572 11.669,11.667 c 2.563,-2.951 4.129,-6.646 4.466,-10.535 -0.633,0.06 -1.27,0.09 -1.905,0.09 z"
                                   inkscape:connector-curvature="0" /><path
                                   id="path4798"
                                   d="m 66.253,22.109 c -0.212,0 -0.425,0.004 -0.637,0.011 -0.108,4.689 1.706,9.237 5.027,12.557 0.107,0.108 0.217,0.215 0.33,0.322 l 7.915,-7.915 C 75.451,23.871 70.989,22.109 66.253,22.109 Z"
                                   inkscape:connector-curvature="0" /><path
                                   id="path4800"
                                   d="M 84.738,39.601 C 84.524,35.73 83.093,32.009 80.662,28.998 l -7.651,7.652 c 2.855,1.978 6.303,3.06 9.79,3.06 0.645,0 1.295,-0.037 1.937,-0.109 z"
                                   inkscape:connector-curvature="0" /></g></g></g></g></g></g></g></g></g></g></g></g></g></g></g></g></g></g></g></g></g></g></g></g></g></g></svg>