<?xml version="1.0" encoding="UTF-8" standalone="no"?>
<svg
   xmlns:dc="http://purl.org/dc/elements/1.1/"
   xmlns:cc="http://creativecommons.org/ns#"
   xmlns:rdf="http://www.w3.org/1999/02/22-rdf-syntax-ns#"
   xmlns:svg="http://www.w3.org/2000/svg"
   xmlns="http://www.w3.org/2000/svg"
   xmlns:sodipodi="http://sodipodi.sourceforge.net/DTD/sodipodi-0.dtd"
   xmlns:inkscape="http://www.inkscape.org/namespaces/inkscape"
   viewBox="0 0 100 100"
   version="1.1"
   x="0px"
   y="0px"
   id="svg20"
   sodipodi:docname="Subway Entrance.svg"
   width="100"
   height="100"
   inkscape:version="0.92.5 (2060ec1f9f, 2020-04-08)">
  <metadata
     id="metadata26">
    <rdf:RDF>
      <cc:Work
         rdf:about="">
        <dc:format>image/svg+xml</dc:format>
        <dc:type
           rdf:resource="http://purl.org/dc/dcmitype/StillImage" />
        <dc:title>Underground 4.3</dc:title>
      </cc:Work>
    </rdf:RDF>
  </metadata>
  <defs
     id="defs24" />
  <sodipodi:namedview
     pagecolor="#ffffff"
     bordercolor="#666666"
     borderopacity="1"
     objecttolerance="10"
     gridtolerance="10"
     guidetolerance="10"
     inkscape:pageopacity="0"
     inkscape:pageshadow="2"
     inkscape:window-width="691"
     inkscape:window-height="480"
     id="namedview22"
     showgrid="false"
     inkscape:zoom="1.888"
     inkscape:cx="56.620763"
     inkscape:cy="62.5"
     inkscape:window-x="0"
     inkscape:window-y="0"
     inkscape:window-maximized="0"
     inkscape:current-layer="svg20" />
  <title
     id="title2">Underground 4.3</title>
  <desc
     id="desc4">Created with Sketch.</desc>
  <g
     id="g14"
     style="fill:none;fill-rule:evenodd;stroke:none;stroke-width:1"
     transform="matrix(2.158108,0,0,2.158108,-57.9054,-57.9054)">
    <g
       id="g12"
       style="fill:#000000">
      <path
         d="M 33.411819,57 C 36.142845,63.463883 42.541689,68 50,68 57.458311,68 63.857154,63.463883 66.588182,57 H 58.485671 C 56.468092,59.443007 53.415874,61 50,61 46.584126,61 43.531908,59.443007 41.514324,57 Z"
         id="path6"
         inkscape:connector-curvature="0" />
      <path
         d="M 66.588182,43 C 63.857154,36.536117 57.458311,32 50,32 42.541689,32 36.142845,36.536117 33.411819,43 h 8.10251 C 43.531908,40.556993 46.584126,39 50,39 c 3.415874,0 6.468092,1.556993 8.485676,4 z"
         id="path8"
         inkscape:connector-curvature="0" />
      <rect
         x="29"
         y="45.5"
         width="42"
         height="9"
         id="rect10" />
    </g>
  </g>
</svg>
