<?xml version="1.0" encoding="UTF-8" standalone="no"?>
<svg
   xmlns:dc="http://purl.org/dc/elements/1.1/"
   xmlns:cc="http://creativecommons.org/ns#"
   xmlns:rdf="http://www.w3.org/1999/02/22-rdf-syntax-ns#"
   xmlns:svg="http://www.w3.org/2000/svg"
   xmlns="http://www.w3.org/2000/svg"
   xmlns:sodipodi="http://sodipodi.sourceforge.net/DTD/sodipodi-0.dtd"
   xmlns:inkscape="http://www.inkscape.org/namespaces/inkscape"
   version="1.1"
   x="0px"
   y="0px"
   viewBox="0 0 100 100"
   enable-background="new 0 0 100 100"
   xml:space="preserve"
   id="svg12"
   sodipodi:docname="Supermarket.svg"
   width="100"
   height="100"
   inkscape:version="0.92.5 (2060ec1f9f, 2020-04-08)"><metadata
     id="metadata18"><rdf:RDF><cc:Work
         rdf:about=""><dc:format>image/svg+xml</dc:format><dc:type
           rdf:resource="http://purl.org/dc/dcmitype/StillImage" /><dc:title></dc:title></cc:Work></rdf:RDF></metadata><defs
     id="defs16" /><sodipodi:namedview
     pagecolor="#ffffff"
     bordercolor="#666666"
     borderopacity="1"
     objecttolerance="10"
     gridtolerance="10"
     guidetolerance="10"
     inkscape:pageopacity="0"
     inkscape:pageshadow="2"
     inkscape:window-width="691"
     inkscape:window-height="480"
     id="namedview14"
     showgrid="false"
     inkscape:zoom="1.888"
     inkscape:cx="56.620763"
     inkscape:cy="62.5"
     inkscape:window-x="0"
     inkscape:window-y="0"
     inkscape:window-maximized="0"
     inkscape:current-layer="svg12" /><g
     id="g23"
     transform="matrix(-0.94173729,0,0,0.94173729,97.086864,25.431957)"><circle
       style="fill:#000000"
       id="circle2"
       r="6.763"
       cy="62.261002"
       cx="10.616" /><circle
       style="fill:#000000"
       id="circle4"
       r="7.6059999"
       cy="61.417"
       cx="65.592003" /><path
       style="fill:#000000"
       inkscape:connector-curvature="0"
       id="path6"
       d="m 99.992,-16.848 -18.975,0.027 -0.064,-0.027 -0.008,0.027 h -0.063 v 0.138 L 78.22,-9.78 0,-3.602 4.458,34.883 H 60.989 L 57.375,44.248 6.384,47.424 4.898,52.869 64.54,51.81 65.126,49.542 86.99,-7.653 100,-7.672 Z M 75.118,-1.742 69.611,12.532 H 56.663 v -13.18 l 18.011,-1.423 c 0.143,0.116 0.298,0.216 0.444,0.329 z M 36.362,15.493 V 27.476 H 24.569 V 15.493 Z M 24.569,12.532 V 1.887 L 36.361,0.955 v 11.577 z m 16.007,2.961 H 52.45 V 27.476 H 40.576 Z m 0,-2.961 V 0.622 L 52.451,-0.316 V 12.532 Z M 20.355,2.22 V 12.532 H 9.325 L 8.242,3.177 Z M 9.667,15.493 h 10.688 v 11.983 h -9.3 z M 56.663,27.477 V 15.493 h 11.806 l -4.623,11.983 h -7.183 z" /></g></svg>