<?xml version="1.0" encoding="UTF-8" standalone="no"?>
<svg
   xmlns:dc="http://purl.org/dc/elements/1.1/"
   xmlns:cc="http://creativecommons.org/ns#"
   xmlns:rdf="http://www.w3.org/1999/02/22-rdf-syntax-ns#"
   xmlns:svg="http://www.w3.org/2000/svg"
   xmlns="http://www.w3.org/2000/svg"
   xmlns:sodipodi="http://sodipodi.sourceforge.net/DTD/sodipodi-0.dtd"
   xmlns:inkscape="http://www.inkscape.org/namespaces/inkscape"
   version="1.1"
   x="0px"
   y="0px"
   viewBox="-120 78.1 78.178388 87.334006"
   xml:space="preserve"
   id="svg2"
   inkscape:version="0.48.4 r9939"
   width="100%"
   height="100%"
   sodipodi:docname="Park.svg"><metadata
     id="metadata18"><rdf:RDF><cc:Work
         rdf:about=""><dc:format>image/svg+xml</dc:format><dc:type
           rdf:resource="http://purl.org/dc/dcmitype/StillImage" /><dc:title></dc:title></cc:Work></rdf:RDF></metadata><defs
     id="defs16" /><sodipodi:namedview
     pagecolor="#ffffff"
     bordercolor="#666666"
     borderopacity="1"
     objecttolerance="10"
     gridtolerance="10"
     guidetolerance="10"
     inkscape:pageopacity="0"
     inkscape:pageshadow="2"
     inkscape:window-width="725"
     inkscape:window-height="735"
     id="namedview14"
     showgrid="false"
     fit-margin-top="0"
     fit-margin-left="0"
     fit-margin-right="0"
     fit-margin-bottom="0"
     inkscape:zoom="3.776"
     inkscape:cx="39.43313"
     inkscape:cy="28.12044"
     inkscape:window-x="114"
     inkscape:window-y="170"
     inkscape:window-maximized="0"
     inkscape:current-layer="g4071" /><g
     id="g3032"
     transform="translate(-131.18823,108.90095)"><g
       id="g3082"
       transform="translate(-11.778449,-19.681681)"><g
         id="g3297"
         transform="translate(113.35527,48.840676)"><g
           id="g3451"
           transform="translate(-110.35024,-41.106017)"><g
             id="g3508"
             transform="translate(37.661621,37.801481)"><g
               id="g3556"
               transform="translate(-33.173714,-53.557494)"><g
                 id="g3600"
                 transform="translate(1.6437441,2.3337983)"><g
                   id="g3673"
                   transform="translate(3.1326802,-1.9259882)"><g
                     id="g3728"
                     transform="translate(16.15499,5.0801784)"><g
                       id="g3774"
                       transform="matrix(1.3062103,0,0,1.1506075,-1.2423141,14.177607)"><g
                         id="g3814"
                         transform="matrix(0.76557355,0,0,0.86910615,-9.6088369,-25.571004)"><g
                           id="g3898"
                           transform="translate(-253.23308,-590.39679)"><g
                             id="g4071"
                             transform="translate(255.74688,596.01847)"><g
                               id="g3989"><circle
                                 id="circle3991"
                                 r="2.8080001"
                                 cy="14.502"
                                 cx="19.016001"
                                 sodipodi:cx="19.016001"
                                 sodipodi:cy="14.502"
                                 sodipodi:rx="2.8080001"
                                 sodipodi:ry="2.8080001"
                                 d="m 21.824001,14.502 c 0,1.550815 -1.257185,2.808 -2.808,2.808 -1.550816,0 -2.808,-1.257185 -2.808,-2.808 0,-1.550816 1.257184,-2.808 2.808,-2.808 1.550815,0 2.808,1.257184 2.808,2.808 z" /><circle
                                 id="circle3993"
                                 r="2.8080001"
                                 cy="24.900999"
                                 cx="11.828"
                                 sodipodi:cx="11.828"
                                 sodipodi:cy="24.900999"
                                 sodipodi:rx="2.8080001"
                                 sodipodi:ry="2.8080001"
                                 d="m 14.636,24.900999 c 0,1.550816 -1.257184,2.808 -2.808,2.808 -1.550816,0 -2.808,-1.257184 -2.808,-2.808 0,-1.550816 1.257184,-2.808 2.808,-2.808 1.550816,0 2.808,1.257184 2.808,2.808 z" /><circle
                                 id="circle3995"
                                 r="2.8080001"
                                 cy="37.132"
                                 cx="8.6300001"
                                 sodipodi:cx="8.6300001"
                                 sodipodi:cy="37.132"
                                 sodipodi:rx="2.8080001"
                                 sodipodi:ry="2.8080001"
                                 d="m 11.438,37.132 c 0,1.550816 -1.257184,2.808 -2.8079999,2.808 C 7.0791845,39.94 5.822,38.682816 5.822,37.132 c 0,-1.550816 1.2571845,-2.808 2.8080001,-2.808 1.5508159,0 2.8079999,1.257184 2.8079999,2.808 z" /><circle
                                 id="circle3997"
                                 r="2.8080001"
                                 cy="49.719002"
                                 cx="9.8079996"
                                 sodipodi:cx="9.8079996"
                                 sodipodi:cy="49.719002"
                                 sodipodi:rx="2.8080001"
                                 sodipodi:ry="2.8080001"
                                 d="m 12.616,49.719002 c 0,1.550815 -1.257185,2.808 -2.8080004,2.808 -1.5508156,0 -2.8080001,-1.257185 -2.8080001,-2.808 0,-1.550816 1.2571845,-2.808 2.8080001,-2.808 1.5508154,0 2.8080004,1.257184 2.8080004,2.808 z" /><circle
                                 id="circle3999"
                                 r="2.8080001"
                                 cy="61.144001"
                                 cx="15.22"
                                 sodipodi:cx="15.22"
                                 sodipodi:cy="61.144001"
                                 sodipodi:rx="2.8080001"
                                 sodipodi:ry="2.8080001"
                                 d="m 18.028,61.144001 c 0,1.550816 -1.257184,2.808 -2.808,2.808 -1.550815,0 -2.808,-1.257184 -2.808,-2.808 0,-1.550816 1.257185,-2.808 2.808,-2.808 1.550816,0 2.808,1.257184 2.808,2.808 z" /><circle
                                 id="circle4001"
                                 r="2.8069999"
                                 cy="70.028999"
                                 cx="24.212999"
                                 sodipodi:cx="24.212999"
                                 sodipodi:cy="70.028999"
                                 sodipodi:rx="2.8069999"
                                 sodipodi:ry="2.8069999"
                                 d="m 27.019999,70.028999 c 0,1.550264 -1.256736,2.807 -2.807,2.807 -1.550263,0 -2.807,-1.256736 -2.807,-2.807 0,-1.550263 1.256737,-2.807 2.807,-2.807 1.550264,0 2.807,1.256737 2.807,2.807 z" /><circle
                                 id="circle4003"
                                 r="2.8080001"
                                 cy="76.330002"
                                 cx="48.303001"
                                 sodipodi:cx="48.303001"
                                 sodipodi:cy="76.330002"
                                 sodipodi:rx="2.8080001"
                                 sodipodi:ry="2.8080001"
                                 d="m 51.111001,76.330002 c 0,1.550815 -1.257184,2.808 -2.808,2.808 -1.550815,0 -2.808,-1.257185 -2.808,-2.808 0,-1.550816 1.257185,-2.808 2.808,-2.808 1.550816,0 2.808,1.257184 2.808,2.808 z" /><circle
                                 id="circle4005"
                                 r="2.8080001"
                                 cy="72.982002"
                                 cx="60.494999"
                                 sodipodi:cx="60.494999"
                                 sodipodi:cy="72.982002"
                                 sodipodi:rx="2.8080001"
                                 sodipodi:ry="2.8080001"
                                 d="m 63.302999,72.982002 c 0,1.550816 -1.257184,2.808 -2.808,2.808 -1.550816,0 -2.808,-1.257184 -2.808,-2.808 0,-1.550815 1.257184,-2.808 2.808,-2.808 1.550816,0 2.808,1.257185 2.808,2.808 z" /><circle
                                 id="circle4007"
                                 r="2.8080001"
                                 cy="65.668999"
                                 cx="70.806"
                                 sodipodi:cx="70.806"
                                 sodipodi:cy="65.668999"
                                 sodipodi:rx="2.8080001"
                                 sodipodi:ry="2.8080001"
                                 d="m 73.614,65.668999 c 0,1.550815 -1.257185,2.808 -2.808,2.808 -1.550816,0 -2.808,-1.257185 -2.808,-2.808 0,-1.550816 1.257184,-2.808 2.808,-2.808 1.550815,0 2.808,1.257184 2.808,2.808 z" /><circle
                                 id="circle4009"
                                 r="2.8080001"
                                 cy="55.27"
                                 cx="77.995003"
                                 sodipodi:cx="77.995003"
                                 sodipodi:cy="55.27"
                                 sodipodi:rx="2.8080001"
                                 sodipodi:ry="2.8080001"
                                 d="m 80.803003,55.27 c 0,1.550816 -1.257185,2.808001 -2.808,2.808001 -1.550816,0 -2.808,-1.257185 -2.808,-2.808001 0,-1.550815 1.257184,-2.808 2.808,-2.808 1.550815,0 2.808,1.257185 2.808,2.808 z" /><path
                                 id="path4011"
                                 d="m 83.344,41.235 c -0.996,-1.189 -2.769,-1.344 -3.956,-0.346 -1.188,0.997 -1.343,2.767 -0.348,3.956 1.001,1.187 2.771,1.343 3.958,0.346 1.187,-0.997 1.342,-2.767 0.346,-3.956 z"
                                 inkscape:connector-curvature="0" /><path
                                 id="path4013"
                                 d="m 78.609,32.884 c 1.346,0.774 3.063,0.316 3.838,-1.029 0.775,-1.342 0.314,-3.057 -1.029,-3.833 -1.341,-0.778 -3.06,-0.316 -3.835,1.027 -0.775,1.342 -0.315,3.059 1.026,3.835 z"
                                 inkscape:connector-curvature="0" /><circle
                                 id="circle4015"
                                 r="2.8080001"
                                 cy="19.027"
                                 cx="74.601997"
                                 sodipodi:cx="74.601997"
                                 sodipodi:cy="19.027"
                                 sodipodi:rx="2.8080001"
                                 sodipodi:ry="2.8080001"
                                 d="m 77.409997,19.027 c 0,1.550816 -1.257184,2.808001 -2.808,2.808001 -1.550815,0 -2.808,-1.257185 -2.808,-2.808001 0,-1.550815 1.257185,-2.808 2.808,-2.808 1.550816,0 2.808,1.257185 2.808,2.808 z" /><circle
                                 id="circle4017"
                                 r="2.8080001"
                                 cy="10.142"
                                 cx="65.609001"
                                 sodipodi:cx="65.609001"
                                 sodipodi:cy="10.142"
                                 sodipodi:rx="2.8080001"
                                 sodipodi:ry="2.8080001"
                                 d="m 68.417001,10.142 c 0,1.550816 -1.257184,2.808 -2.808,2.808 -1.550815,0 -2.808,-1.257184 -2.808,-2.808 0,-1.5508154 1.257185,-2.8079999 2.808,-2.8079999 1.550816,0 2.808,1.2571845 2.808,2.8079999 z" /><path
                                 id="path4019"
                                 d="M 55.523,7.301 C 56.867,6.524 57.329,4.808 56.551,3.465 55.777,2.121 54.06,1.662 52.715,2.44 c -1.343,0.772 -1.803,2.492 -1.027,3.833 0.775,1.342 2.493,1.802 3.835,1.028 z"
                                 inkscape:connector-curvature="0" /><circle
                                 id="circle4021"
                                 r="2.8069999"
                                 cy="3.8440001"
                                 cx="41.52"
                                 sodipodi:cx="41.52"
                                 sodipodi:cy="3.8440001"
                                 sodipodi:rx="2.8069999"
                                 sodipodi:ry="2.8069999"
                                 d="M 44.327,3.8440001 C 44.327,5.3942634 43.070264,6.651 41.52,6.651 c -1.550263,0 -2.806999,-1.2567366 -2.806999,-2.8069999 0,-1.5502632 1.256736,-2.8069999 2.806999,-2.8069999 1.550264,0 2.807,1.2567367 2.807,2.8069999 z" /><path
                                 id="path4023"
                                 d="m 28.369,9.828 c 1.458,0.53 3.067,-0.222 3.598,-1.677 0.529,-1.461 -0.22,-3.072 -1.679,-3.603 -1.457,-0.53 -3.067,0.222 -3.598,1.681 -0.532,1.457 0.221,3.068 1.679,3.599 z"
                                 inkscape:connector-curvature="0" /><path
                                 id="path4025"
                                 d="m 36.434,44.352 -20.04,10.152 c 0.145,0.286 0.294,0.569 0.447,0.85 L 36.564,44.601 c -0.045,-0.084 -0.088,-0.166 -0.13,-0.249 z"
                                 inkscape:connector-curvature="0" /><path
                                 id="path4027"
                                 d="M 35.6,38.254 13.55,33.958 c -0.061,0.316 -0.118,0.633 -0.17,0.953 l 22.171,3.617 c 0.015,-0.092 0.031,-0.183 0.049,-0.274 z"
                                 inkscape:connector-curvature="0" /><path
                                 id="path4029"
                                 d="M 38.299,46.888 22.598,62.953 c 0.234,0.229 0.473,0.454 0.714,0.675 l 15.177,-16.56 c -0.064,-0.059 -0.128,-0.119 -0.19,-0.18 z"
                                 inkscape:connector-curvature="0" /><path
                                 id="path4031"
                                 d="m 35.512,41.391 -22.255,3.057 c 0.044,0.314 0.091,0.629 0.144,0.939 L 35.557,41.682 C 35.541,41.586 35.525,41.49 35.512,41.391 z"
                                 inkscape:connector-curvature="0" /><path
                                 id="path4033"
                                 d="M 44.365,30.614 43.148,8.183 c -0.32,0.019 -0.639,0.039 -0.955,0.067 l 1.885,22.384 c 0.096,-0.007 0.192,-0.015 0.287,-0.02 z"
                                 inkscape:connector-curvature="0" /><path
                                 id="path4035"
                                 d="m 31.233,68.965 c 0.288,0.138 0.581,0.27 0.874,0.398 l 9.008,-20.578 c -0.088,-0.039 -0.174,-0.078 -0.26,-0.119 l -9.622,20.299 z"
                                 inkscape:connector-curvature="0" /><path
                                 id="path4037"
                                 d="m 31.994,10.857 9.08,20.548 c 0.091,-0.041 0.182,-0.08 0.273,-0.117 L 32.863,10.489 c -0.292,0.118 -0.582,0.241 -0.869,0.368 z"
                                 inkscape:connector-curvature="0" /><path
                                 id="path4039"
                                 d="m 53.79,43.441 21.025,7.91 c 0.113,-0.298 0.221,-0.6 0.325,-0.902 L 53.888,43.168 c -0.032,0.093 -0.064,0.184 -0.098,0.273 z"
                                 inkscape:connector-curvature="0" /><path
                                 id="path4041"
                                 d="M 50.304,32.279 63.097,13.813 c -0.26,-0.181 -0.523,-0.357 -0.79,-0.53 L 50.06,32.113 c 0.082,0.054 0.164,0.11 0.244,0.166 z"
                                 inkscape:connector-curvature="0" /><path
                                 id="path4043"
                                 d="M 52.551,34.46 70.632,21.13 C 70.443,20.871 70.248,20.616 70.05,20.363 L 52.38,34.235 c 0.058,0.074 0.115,0.149 0.171,0.225 z"
                                 inkscape:connector-curvature="0" /><path
                                 id="path4045"
                                 d="M 53.561,9.324 C 53.259,9.238 52.955,9.158 52.65,9.082 l -5.434,21.796 c 0.098,0.024 0.194,0.05 0.291,0.078 L 53.561,9.324 z"
                                 inkscape:connector-curvature="0" /><path
                                 id="path4047"
                                 d="M 53.963,37.229 75.4,30.512 c -0.099,-0.313 -0.201,-0.624 -0.31,-0.933 l -21.21,7.4 c 0.03,0.084 0.057,0.166 0.083,0.25 z"
                                 inkscape:connector-curvature="0" /><path
                                 id="path4049"
                                 d="M 38.691,32.923 23.916,16.002 c -0.235,0.206 -0.468,0.415 -0.698,0.627 l 15.245,16.499 c 0.076,-0.069 0.152,-0.138 0.228,-0.205 z"
                                 inkscape:connector-curvature="0" /><path
                                 id="path4051"
                                 d="m 54.397,40.085 c 0,0.099 -10e-4,0.195 -0.004,0.292 l 22.454,0.661 c 0.009,-0.316 0.014,-0.633 0.014,-0.953 V 39.999 H 54.397 v 0.086 z"
                                 inkscape:connector-curvature="0" /><path
                                 id="path4053"
                                 d="M 52.241,46.107 69.51,60.475 c 0.213,-0.255 0.422,-0.516 0.625,-0.778 L 52.396,45.914 c -0.05,0.065 -0.101,0.129 -0.155,0.193 z"
                                 inkscape:connector-curvature="0" /><path
                                 id="path4055"
                                 d="m 49.843,48.192 11.77,19.135 c 0.269,-0.165 0.533,-0.333 0.795,-0.506 L 50.099,48.03 c -0.083,0.056 -0.169,0.11 -0.256,0.162 z"
                                 inkscape:connector-curvature="0" /><path
                                 id="path4057"
                                 d="M 36.691,35.342 17.242,24.102 c -0.16,0.275 -0.315,0.554 -0.466,0.835 l 19.772,10.66 c 0.048,-0.086 0.095,-0.171 0.143,-0.255 z"
                                 inkscape:connector-curvature="0" /><path
                                 id="path4059"
                                 d="M 53.681,72.42 C 67.916,68.556 78.419,55.527 78.419,40.085 78.419,21.61 63.388,6.577 44.91,6.577 c -18.476,0 -33.507,15.033 -33.507,33.508 0,15.47 10.54,28.519 24.814,32.357 L 36.19,72.55 c -0.628,-0.112 -1.295,-0.022 -1.891,0.319 -1.344,0.778 -1.805,2.495 -1.027,3.837 0.355,0.618 0.914,1.037 1.541,1.247 l -1.494,5.863 h -4.614 v 4.555 H 61.341 V 83.816 H 56.585 L 53.681,72.42 z M 12.651,40.085 c 0,-17.789 14.472,-32.259 32.259,-32.259 17.789,0 32.261,14.471 32.261,32.259 0,14.861 -10.103,27.398 -23.798,31.126 L 45.881,41.812 c 0.604,-0.34 1.018,-0.982 1.018,-1.725 0,-1.098 -0.889,-1.989 -1.988,-1.989 -1.097,0 -1.986,0.891 -1.986,1.989 0,0.772 0.445,1.435 1.09,1.764 L 36.527,71.234 C 22.791,67.532 12.651,54.973 12.651,40.085 z M 42.334,71.933 44.11,49.539 c -0.041,-0.004 -0.081,-0.008 -0.122,-0.011 l 0.963,-3.781 6.603,25.906 c -2.146,0.45 -4.366,0.692 -6.644,0.692 -2.248,0 -4.443,-0.234 -6.565,-0.674 l 5.41,-21.227 -2.409,21.393 c 0.328,0.038 0.658,0.069 0.988,0.096 z m -5.573,5.958 c 0.117,-0.048 0.234,-0.091 0.346,-0.156 1.343,-0.774 1.804,-2.491 1.028,-3.835 -0.077,-0.134 -0.17,-0.251 -0.264,-0.366 l 0.166,-0.651 c 2.22,0.465 4.518,0.713 6.873,0.713 2.384,0 4.708,-0.255 6.952,-0.731 l 2.791,10.954 H 35.25 l 1.511,-5.928 z"
                                 inkscape:connector-curvature="0" /></g></g></g></g></g></g></g></g></g></g></g></g></g></g></svg>