<?xml version="1.0" encoding="UTF-8" standalone="no"?>
<svg
   xmlns:dc="http://purl.org/dc/elements/1.1/"
   xmlns:cc="http://creativecommons.org/ns#"
   xmlns:rdf="http://www.w3.org/1999/02/22-rdf-syntax-ns#"
   xmlns:svg="http://www.w3.org/2000/svg"
   xmlns="http://www.w3.org/2000/svg"
   xmlns:sodipodi="http://sodipodi.sourceforge.net/DTD/sodipodi-0.dtd"
   xmlns:inkscape="http://www.inkscape.org/namespaces/inkscape"
   version="1.1"
   x="0px"
   y="0px"
   viewBox="0 0 100 100"
   enable-background="new 0 0 100 100"
   xml:space="preserve"
   id="svg16"
   sodipodi:docname="Toilet.svg"
   width="100"
   height="100"
   inkscape:version="0.92.5 (2060ec1f9f, 2020-04-08)"><metadata
     id="metadata22"><rdf:RDF><cc:Work
         rdf:about=""><dc:format>image/svg+xml</dc:format><dc:type
           rdf:resource="http://purl.org/dc/dcmitype/StillImage" /><dc:title></dc:title></cc:Work></rdf:RDF></metadata><defs
     id="defs20" /><sodipodi:namedview
     pagecolor="#ffffff"
     bordercolor="#666666"
     borderopacity="1"
     objecttolerance="10"
     gridtolerance="10"
     guidetolerance="10"
     inkscape:pageopacity="0"
     inkscape:pageshadow="2"
     inkscape:window-width="1680"
     inkscape:window-height="884"
     id="namedview18"
     showgrid="false"
     inkscape:zoom="1.888"
     inkscape:cx="56.620763"
     inkscape:cy="62.5"
     inkscape:window-x="0"
     inkscape:window-y="0"
     inkscape:window-maximized="1"
     inkscape:current-layer="svg16" /><g
     id="g39"
     transform="translate(-9.2206904)"><g
       transform="translate(-48)"
       id="g30"><circle
         cx="78.560997"
         cy="13.279"
         r="6.7789998"
         id="circle2" /><path
         inkscape:connector-curvature="0"
         d="M 93.814,30.045 C 93.467,26.008 90.086,22.838 85.959,22.838 H 71.163 c -4.127,0 -7.508,3.17 -7.855,7.207 h -0.034 v 24.238 c 0,1.416 1.148,2.564 2.564,2.564 1.416,0 2.564,-1.148 2.564,-2.564 V 30.728 h 1.42 v 24.847 0.589 33.429 c 0,2.157 1.749,3.905 3.905,3.905 2.157,0 3.905,-1.749 3.905,-3.905 V 56.165 h 1.857 v 33.429 c 0,2.157 1.749,3.905 3.905,3.905 2.156,0 3.905,-1.749 3.905,-3.905 V 56.165 55.576 30.728 h 1.42 v 23.555 c 0,1.416 1.148,2.564 2.564,2.564 1.416,0 2.564,-1.148 2.564,-2.564 V 30.045 Z"
         id="path6" /></g><g
       transform="translate(56)"
       id="g26"><circle
         cx="26.659"
         cy="13.279"
         r="6.7789998"
         id="circle4" /><path
         inkscape:connector-curvature="0"
         d="M 41.859,29.615 C 41.317,25.787 38.035,22.839 34.057,22.839 H 19.261 c -3.978,0 -7.26,2.948 -7.802,6.777 L 6.216,52.671 c -0.314,1.381 0.551,2.755 1.932,3.069 1.381,0.314 2.755,-0.551 3.069,-1.932 l 5.249,-23.08 h 3.493 l -7.153,32.304 h 6.914 v 27.631 c 0,1.567 1.27,2.836 2.836,2.836 h 0.406 c 1.566,0 2.836,-1.27 2.836,-2.836 v -27.63 h 0.86 0.585 v 27.631 c 0,1.567 1.27,2.836 2.836,2.836 h 0.406 c 1.566,0 2.836,-1.27 2.836,-2.836 V 63.033 h 6.914 L 33.36,30.728 h 3.493 l 5.249,23.08 c 0.314,1.381 1.688,2.246 3.069,1.932 1.381,-0.314 2.246,-1.688 1.932,-3.069 z"
         id="path8" /></g><rect
       id="rect10"
       height="87"
       width="4"
       y="6.5"
       x="53.220001" /></g></svg>