<?xml version="1.0" encoding="UTF-8" standalone="no"?>
<svg
   xmlns:dc="http://purl.org/dc/elements/1.1/"
   xmlns:cc="http://creativecommons.org/ns#"
   xmlns:rdf="http://www.w3.org/1999/02/22-rdf-syntax-ns#"
   xmlns:svg="http://www.w3.org/2000/svg"
   xmlns="http://www.w3.org/2000/svg"
   xmlns:sodipodi="http://sodipodi.sourceforge.net/DTD/sodipodi-0.dtd"
   xmlns:inkscape="http://www.inkscape.org/namespaces/inkscape"
   version="1.1"
   x="0px"
   y="0px"
   viewBox="0 0 100 100"
   xml:space="preserve"
   id="svg8"
   sodipodi:docname="Tourism Information.svg"
   width="100"
   height="100"
   inkscape:version="0.92.5 (2060ec1f9f, 2020-04-08)"><metadata
     id="metadata14"><rdf:RDF><cc:Work
         rdf:about=""><dc:format>image/svg+xml</dc:format><dc:type
           rdf:resource="http://purl.org/dc/dcmitype/StillImage" /><dc:title></dc:title></cc:Work></rdf:RDF></metadata><defs
     id="defs12" /><sodipodi:namedview
     pagecolor="#ffffff"
     bordercolor="#666666"
     borderopacity="1"
     objecttolerance="10"
     gridtolerance="10"
     guidetolerance="10"
     inkscape:pageopacity="0"
     inkscape:pageshadow="2"
     inkscape:window-width="691"
     inkscape:window-height="480"
     id="namedview10"
     showgrid="false"
     inkscape:zoom="1.888"
     inkscape:cx="56.620763"
     inkscape:cy="62.5"
     inkscape:window-x="0"
     inkscape:window-y="0"
     inkscape:window-maximized="0"
     inkscape:current-layer="svg8" /><path
     d="M 50,7.4834746 C 26.516484,7.4834746 7.4834746,26.516484 7.4834746,50 7.4834746,73.483515 26.516484,92.516525 50,92.516525 73.483515,92.516525 92.516525,73.483515 92.516525,50 92.516525,26.516484 73.483515,7.4834746 50,7.4834746 Z M 57.670019,78.975627 H 42.329981 V 42.329981 H 57.76471 V 78.975627 Z M 50,37.216634 c -4.355814,0 -7.859403,-3.503588 -7.859403,-7.859402 0,-4.355813 3.503589,-7.859402 7.859403,-7.859402 4.355813,0 7.859402,3.503589 7.859402,7.859402 0,4.355814 -3.503589,7.859402 -7.859402,7.859402 z"
     id="path2"
     inkscape:connector-curvature="0"
     style="stroke-width:0.94691592" /></svg>