<?xml version="1.0" encoding="UTF-8" standalone="no"?>
<svg
   xmlns:dc="http://purl.org/dc/elements/1.1/"
   xmlns:cc="http://creativecommons.org/ns#"
   xmlns:rdf="http://www.w3.org/1999/02/22-rdf-syntax-ns#"
   xmlns:svg="http://www.w3.org/2000/svg"
   xmlns="http://www.w3.org/2000/svg"
   xmlns:sodipodi="http://sodipodi.sourceforge.net/DTD/sodipodi-0.dtd"
   xmlns:inkscape="http://www.inkscape.org/namespaces/inkscape"
   version="1.1"
   x="0px"
   y="0px"
   viewBox="0 0 100 100"
   enable-background="new 0 0 100 100"
   xml:space="preserve"
   id="svg22"
   sodipodi:docname="Town Hall.svg"
   width="100"
   height="100"
   inkscape:version="0.92.5 (2060ec1f9f, 2020-04-08)"><metadata
     id="metadata28"><rdf:RDF><cc:Work
         rdf:about=""><dc:format>image/svg+xml</dc:format><dc:type
           rdf:resource="http://purl.org/dc/dcmitype/StillImage" /><dc:title></dc:title></cc:Work></rdf:RDF></metadata><defs
     id="defs26" /><sodipodi:namedview
     pagecolor="#ffffff"
     bordercolor="#666666"
     borderopacity="1"
     objecttolerance="10"
     gridtolerance="10"
     guidetolerance="10"
     inkscape:pageopacity="0"
     inkscape:pageshadow="2"
     inkscape:window-width="691"
     inkscape:window-height="480"
     id="namedview24"
     showgrid="false"
     inkscape:zoom="1.888"
     inkscape:cx="56.620763"
     inkscape:cy="62.5"
     inkscape:window-x="0"
     inkscape:window-y="0"
     inkscape:window-maximized="0"
     inkscape:current-layer="svg22" /><g
     id="g38"
     transform="matrix(1.0464297,0,0,1.0464297,-4.5906678,-1.5534056)"><path
       id="path2"
       d="M 43.494,37.254 V 55.812 H 60.841 V 37.254 Z m 8.676,12.089 c -2.618,0 -4.737,-2.124 -4.737,-4.74 0,-2.616 2.119,-4.736 4.737,-4.736 2.615,0 4.73,2.121 4.73,4.736 0,2.615 -2.115,4.74 -4.73,4.74 z"
       inkscape:connector-curvature="0"
       style="fill:#000000" /><path
       id="path4"
       d="m 52.17,41.769 c -1.566,0 -2.837,1.272 -2.837,2.834 0,1.562 1.271,2.839 2.837,2.839 1.561,0 2.836,-1.277 2.836,-2.839 0,-1.562 -1.276,-2.834 -2.836,-2.834 z m 0,4.43 c -0.882,0 -1.598,-0.717 -1.598,-1.596 0,-0.878 0.716,-1.595 1.598,-1.595 0.88,0 1.594,0.717 1.594,1.595 0,0.879 -0.714,1.596 -1.594,1.596 z"
       inkscape:connector-curvature="0"
       style="fill:#000000" /><polygon
       id="polygon6"
       points="65.721,17.893 55.265,17.893 55.265,10.613 65.721,10.613 62.082,14.252 "
       style="fill:#000000" /><path
       id="path8"
       d="m 51.477,19.271 h 0.032 V 15.835 8.153 C 50.939,7.899 50.54,7.33 50.54,6.666 c 0,-0.897 0.729,-1.626 1.63,-1.626 0.897,0 1.627,0.729 1.627,1.626 0,0.665 -0.4,1.234 -0.97,1.487 v 7.683 3.436 h 0.032 l 7.095,10.509 H 44.382 Z"
       inkscape:connector-curvature="0"
       style="fill:#000000" /><rect
       id="rect10"
       height="2.5829999"
       width="21.427"
       y="32.287998"
       x="41.456001"
       style="fill:#000000" /><rect
       id="rect12"
       height="2.5829999"
       width="55.213001"
       y="64.069"
       x="24.561001"
       style="fill:#000000" /><path
       id="path14"
       d="M 78.341,90.203 V 69.159 H 25.995 v 21.044 h -2.346 v 3.289 h 2.346 52.346 2.347 v -3.289 z m -37.578,0 H 36.325 V 76.165 h 4.438 z m 9.083,0 H 45.409 V 76.165 h 4.437 z m 9.083,0 H 54.491 V 76.165 h 4.438 z m 9.083,0 H 63.573 V 76.165 h 4.439 z"
       inkscape:connector-curvature="0"
       style="fill:#000000" /><polygon
       id="polygon16"
       points="79.774,61.561 69.833,52.88 63.362,52.88 63.362,58.271 40.973,58.271 40.973,52.88 34.501,52.88 24.561,61.561 "
       style="fill:#000000" /></g></svg>