<?xml version="1.0" encoding="UTF-8" standalone="no"?>
<svg
   xmlns:dc="http://purl.org/dc/elements/1.1/"
   xmlns:cc="http://creativecommons.org/ns#"
   xmlns:rdf="http://www.w3.org/1999/02/22-rdf-syntax-ns#"
   xmlns:svg="http://www.w3.org/2000/svg"
   xmlns="http://www.w3.org/2000/svg"
   xmlns:sodipodi="http://sodipodi.sourceforge.net/DTD/sodipodi-0.dtd"
   xmlns:inkscape="http://www.inkscape.org/namespaces/inkscape"
   version="1.1"
   x="0px"
   y="0px"
   viewBox="0 0 100 100"
   enable-background="new 0 0 49 49"
   xml:space="preserve"
   id="svg10"
   sodipodi:docname="Travel Agency.svg"
   width="100"
   height="100"
   inkscape:version="0.92.5 (2060ec1f9f, 2020-04-08)"><metadata
     id="metadata16"><rdf:RDF><cc:Work
         rdf:about=""><dc:format>image/svg+xml</dc:format><dc:type
           rdf:resource="http://purl.org/dc/dcmitype/StillImage" /><dc:title></dc:title></cc:Work></rdf:RDF></metadata><defs
     id="defs14" /><sodipodi:namedview
     pagecolor="#ffffff"
     bordercolor="#666666"
     borderopacity="1"
     objecttolerance="10"
     gridtolerance="10"
     guidetolerance="10"
     inkscape:pageopacity="0"
     inkscape:pageshadow="2"
     inkscape:window-width="1680"
     inkscape:window-height="884"
     id="namedview12"
     showgrid="false"
     inkscape:zoom="3.8530612"
     inkscape:cx="27.744174"
     inkscape:cy="30.625"
     inkscape:window-x="0"
     inkscape:window-y="0"
     inkscape:window-maximized="1"
     inkscape:current-layer="svg10" /><g
     id="g20"
     transform="matrix(1.0781945,0,0,1.0781945,-1.9680813,3.6302445)"><path
       style="stroke-width:2.12280679"
       inkscape:connector-curvature="0"
       id="path2"
       d="m 54.73259,4.7337119 c -5.122333,0 -10.006911,1.0168244 -14.475419,2.8509294 0.399088,1.0147016 0.677175,2.2374383 0.719631,3.7764727 0.0085,0.399088 0,0.796053 -0.0191,1.190895 0.653825,-0.297193 1.301281,-0.600754 1.978456,-0.855491 -0.776947,0.904316 -1.498701,1.927508 -2.199228,3.001649 -0.180438,1.163298 -0.435175,2.144034 -0.641087,2.71507 l -2.067614,4.982227 3.451684,4.752964 c 3.75949,1.430772 7.688806,2.269281 11.660577,2.436982 V 41.413689 H 48.7951 l 0.07854,1.22486 c 0.04458,0.704772 -0.08067,1.364965 -0.329035,1.959351 h 4.595876 V 56.428302 C 48.332328,56.632091 43.56875,57.763547 39.119347,59.818424 37.733154,55.256512 36.877663,50.072618 36.73968,44.5979 h 4.001491 l -7.077438,-5.115965 c -0.03609,0.647456 -0.0934,1.275807 -0.108263,1.931754 H 30.12926 L 28.806751,44.5979 h 4.748719 c 0.137983,6.103069 1.065649,11.785823 2.60893,16.751068 -2.114316,1.218491 -4.128859,2.661999 -6.016035,4.332648 -2.169508,-2.349947 -3.980262,-5.022561 -5.408911,-7.913823 -0.220772,-0.08491 -0.447912,-0.163457 -0.655948,-0.290825 L 17.995297,53.725969 C 22.642121,69.627914 37.348926,81.28 54.73259,81.28 75.835412,81.28 93.006796,64.110739 93.006796,43.007917 93.006796,21.905096 75.837535,4.7337119 54.73259,4.7337119 Z M 32.415523,67.914809 c 1.522052,-1.326754 3.133263,-2.492175 4.816648,-3.502631 1.51993,3.922947 3.453807,7.285472 5.703982,9.905016 -3.91021,-1.479596 -7.463788,-3.661842 -10.52063,-6.402385 z m 20.724962,8.506086 C 52.157626,76.374194 51.187503,76.291404 50.230117,76.161913 46.150083,74.077317 42.592258,69.2543 40.151031,62.845546 44.26503,60.89681 48.682591,59.818424 53.140485,59.612512 Z m 0,-50.019695 C 48.678345,26.193165 44.26503,25.116902 40.151031,23.166043 42.592258,16.755166 46.152205,11.930027 50.230117,9.8475533 51.189626,9.7180621 52.157626,9.6352726 53.140485,9.5906937 Z M 88.147691,41.413689 H 75.90971 C 75.771728,35.31062 74.846184,29.627866 73.300781,24.664744 c 2.114315,-1.218491 4.124613,-2.664122 6.013911,-4.332648 5.177526,5.606332 8.450894,12.963981 8.832999,21.081593 z M 77.049657,18.09678 c -1.524175,1.326754 -3.13114,2.494298 -4.814525,3.504754 -1.522053,-3.925069 -3.458052,-7.287595 -5.706105,-9.907139 3.91021,1.477474 7.463789,3.661842 10.52063,6.402385 z M 56.324695,9.5906937 c 0.98286,0.044579 1.95086,0.1273684 2.908245,0.2568596 4.082158,2.0824737 7.639982,6.9097357 10.08121,13.3206127 -4.114,1.948736 -8.531561,3.027122 -12.989455,3.235157 z m 0,19.9947163 c 4.808157,-0.203789 9.571736,-1.335245 14.021139,-3.390122 1.38407,4.561912 2.241684,9.743683 2.379666,15.218401 H 56.322572 V 29.58541 Z m 0,15.01249 H 72.727623 C 72.58964,50.072618 71.732027,55.256512 70.345834,59.818424 65.896431,57.763547 61.132852,56.632091 56.326818,56.428302 V 44.5979 Z m 2.910368,31.566136 c -0.957386,0.129491 -1.927508,0.21228 -2.910368,0.258982 V 59.614634 c 4.460017,0.205913 8.875455,1.282176 12.987332,3.233035 -2.439105,6.408754 -5.996929,11.231771 -10.076964,13.316367 z m 7.296087,-1.846842 c 2.250175,-2.619544 4.184052,-5.982069 5.706105,-9.905016 1.683385,1.010456 3.29035,2.175877 4.814525,3.504754 -3.058964,2.73842 -6.612543,4.920666 -10.52063,6.400262 z m 12.785665,-8.637701 c -1.889298,-1.670649 -3.901719,-3.112034 -6.016034,-4.332648 1.547526,-4.963122 2.470947,-10.647999 2.608929,-16.751068 h 12.237981 c -0.382105,8.121858 -3.655473,15.477384 -8.830876,21.083716 z" /><path
       style="stroke-width:2.12280679"
       inkscape:connector-curvature="0"
       id="path4"
       d="m 25.754155,54.764021 c 0.348141,0.214404 0.670807,0.05944 0.723877,-0.346017 l 0.365123,-2.933719 c 0.05095,-0.405456 -0.09553,-1.010456 -0.329035,-1.34586 L 24.353103,47.015776 30.163225,33.024357 44.58982,43.451584 c 0.660192,0.477631 1.159052,0.203789 1.105982,-0.613491 l -0.216526,-3.417719 c -0.05095,-0.815158 -0.486123,-2.020912 -0.965877,-2.681105 L 34.40247,22.822148 37.100557,16.319991 C 37.590926,14.972009 39.098119,7.9370272 35.147575,6.4977643 31.194909,5.0585013 27.83026,11.420553 27.339892,12.768535 L 25.231945,19.48085 8.5360699,23.643674 c -0.7939297,0.197421 -1.9020348,0.840632 -2.4645786,1.432895 l -2.3626839,2.479438 c -0.5625438,0.59014 -0.3566315,1.120842 0.4564035,1.182403 l 17.7551551,1.284299 -4.540683,14.452068 -3.66821,1.004087 c -0.394842,0.108264 -0.897947,0.477632 -1.118719,0.819404 l -1.602719,2.481561 c -0.220772,0.343895 -0.07005,0.67293 0.33328,0.732368 l 7.754613,1.139947 z" /></g></svg>