<?xml version="1.0" encoding="UTF-8" standalone="no"?>
<svg
   xmlns:dc="http://purl.org/dc/elements/1.1/"
   xmlns:cc="http://creativecommons.org/ns#"
   xmlns:rdf="http://www.w3.org/1999/02/22-rdf-syntax-ns#"
   xmlns:svg="http://www.w3.org/2000/svg"
   xmlns="http://www.w3.org/2000/svg"
   xmlns:sodipodi="http://sodipodi.sourceforge.net/DTD/sodipodi-0.dtd"
   xmlns:inkscape="http://www.inkscape.org/namespaces/inkscape"
   version="1.1"
   x="0px"
   y="0px"
   viewBox="0 0 52.044138 92.686778"
   enable-background="new 0 0 100 100"
   xml:space="preserve"
   id="svg2"
   inkscape:version="0.48.4 r9939"
   width="100%"
   height="100%"
   sodipodi:docname="Train Station.svg"><metadata
     id="metadata30"><rdf:RDF><cc:Work
         rdf:about=""><dc:format>image/svg+xml</dc:format><dc:type
           rdf:resource="http://purl.org/dc/dcmitype/StillImage" /><dc:title></dc:title></cc:Work></rdf:RDF></metadata><defs
     id="defs28"><style
       id="style10827"
       type="text/css">
   
    .fil1 {fill:none}
    .fil0 {fill:black}
    .fil2 {fill:black;fill-rule:nonzero}
   
  </style></defs><sodipodi:namedview
     pagecolor="#ffffff"
     bordercolor="#666666"
     borderopacity="1"
     objecttolerance="10"
     gridtolerance="10"
     guidetolerance="10"
     inkscape:pageopacity="0"
     inkscape:pageshadow="2"
     inkscape:window-width="1753"
     inkscape:window-height="812"
     id="namedview26"
     showgrid="false"
     fit-margin-top="0"
     fit-margin-left="0"
     fit-margin-right="0"
     fit-margin-bottom="0"
     inkscape:zoom="3.6203867"
     inkscape:cx="21.090052"
     inkscape:cy="50.677414"
     inkscape:window-x="140"
     inkscape:window-y="110"
     inkscape:window-maximized="0"
     inkscape:current-layer="g10860" /><g
     id="g3217"
     transform="translate(-1263.7829,7653.2667)"><g
       id="g3355"
       transform="translate(0.52596752,-1.51338)"><g
         id="g3394"
         transform="translate(-1.304037,6.1068216)"><g
           id="g3432"
           transform="translate(1.3243604,-7.0685396)"><g
             id="g3490"
             transform="translate(14.50543,16.201175)"><g
               id="g3544"
               transform="translate(1.7832223,7.9070624)"><g
                 id="g3595"
                 transform="translate(9.5264836,-0.46901412)"><g
                   id="g3646"
                   transform="translate(-52.35165,-3.5880634)"><g
                     id="g3767"
                     transform="translate(6.0048559,8.7552768)"><g
                       id="g4075"
                       transform="translate(0.55239017,0.07303033)"><g
                         id="g4264"
                         transform="translate(3.0880737,-2.6377741)"><g
                           id="g4355"
                           transform="translate(8.4601992,5.328404)"><g
                             id="g4421"
                             transform="translate(-6.5255081,7.0858766)"><g
                               id="g4462"
                               transform="translate(25.518018,13.531166)"><g
                                 id="g4500"
                                 transform="translate(80.26127,-61.023322)"><g
                                   id="g5344"
                                   transform="translate(-17.614831,53.929153)"><g
                                   id="g5294"
                                   display="none"
                                   style="display:none"><rect
                                   id="rect5296"
                                   height="196"
                                   width="394.5"
                                   display="inline"
                                   y="-80.754997"
                                   x="-43.5"
                                   style="fill:#000000;display:inline" /></g><g
                                   id="g5316"
                                   display="none"
                                   style="display:none"><g
                                   id="g5318"
                                   display="inline"
                                   style="display:inline"><path
                                   id="path5320"
                                   d="M 1.581,10.718 H 30.418 L 16,1.051 1.581,10.718 z M 17.592,6.594 c 0,0.879 -0.713,1.592 -1.592,1.592 -0.879,0 -1.592,-0.713 -1.592,-1.592 0,-0.879 0.713,-1.592 1.592,-1.592 0.879,0 1.592,0.712 1.592,1.592 z"
                                   inkscape:connector-curvature="0" /><rect
                                   id="rect5322"
                                   height="3.0209999"
                                   width="31"
                                   y="28.030001"
                                   x="0.5" /><rect
                                   id="rect5324"
                                   height="11.875"
                                   width="3.0209999"
                                   y="13.363"
                                   x="3.6670001" /><rect
                                   id="rect5326"
                                   height="11.875"
                                   width="3.0209999"
                                   y="13.363"
                                   x="8.349" /><rect
                                   id="rect5328"
                                   height="11.875"
                                   width="3.0209999"
                                   y="13.363"
                                   x="20.629999" /><rect
                                   id="rect5330"
                                   height="11.875"
                                   width="3.0209999"
                                   y="13.363"
                                   x="25.312" /></g><path
                                   id="path5332"
                                   d="m 19.055,22.809 c -0.386,0.262 -1.035,0.524 -1.857,0.524 -1.01,0 -1.907,-0.386 -2.53,-1.11 -0.474,-0.524 -0.785,-1.246 -0.897,-2.144 h -0.773 v -0.611 h 0.711 c 0,-0.062 0,-0.125 0,-0.187 0,-0.2 0.012,-0.387 0.025,-0.561 h -0.735 v -0.624 h 0.823 c 0.15,-0.872 0.524,-1.595 1.022,-2.106 0.636,-0.66 1.446,-1.035 2.468,-1.035 0.735,0 1.309,0.212 1.658,0.399 l -0.249,0.822 c -0.312,-0.187 -0.835,-0.349 -1.396,-0.349 -0.673,0 -1.221,0.237 -1.645,0.685 -0.374,0.361 -0.623,0.922 -0.748,1.583 h 3.478 v 0.624 h -3.59 c -0.013,0.162 -0.025,0.349 -0.025,0.523 0,0.075 0,0.137 0,0.225 h 3.615 v 0.611 h -3.53 c 0.1,0.723 0.349,1.259 0.685,1.633 0.461,0.486 1.085,0.723 1.757,0.723 0.661,0 1.234,-0.249 1.521,-0.411 l 0.212,0.786 z"
                                   display="inline"
                                   inkscape:connector-curvature="0"
                                   style="display:inline" /></g><g
                                   id="g5453"
                                   transform="translate(-52.625356,-10.750909)"><g
                                   id="g5403"
                                   display="none"
                                   style="display:none"><rect
                                   id="rect5405"
                                   height="196"
                                   width="394.5"
                                   display="inline"
                                   y="-80.754997"
                                   x="-43.5"
                                   style="fill:#000000;display:inline" /></g><g
                                   id="g5425"
                                   display="none"
                                   style="display:none"><g
                                   id="g5427"
                                   display="inline"
                                   style="display:inline"><path
                                   id="path5429"
                                   d="M 1.581,10.718 H 30.418 L 16,1.051 1.581,10.718 z M 17.592,6.594 c 0,0.879 -0.713,1.592 -1.592,1.592 -0.879,0 -1.592,-0.713 -1.592,-1.592 0,-0.879 0.713,-1.592 1.592,-1.592 0.879,0 1.592,0.712 1.592,1.592 z"
                                   inkscape:connector-curvature="0" /><rect
                                   id="rect5431"
                                   height="3.0209999"
                                   width="31"
                                   y="28.030001"
                                   x="0.5" /><rect
                                   id="rect5433"
                                   height="11.875"
                                   width="3.0209999"
                                   y="13.363"
                                   x="3.6670001" /><rect
                                   id="rect5435"
                                   height="11.875"
                                   width="3.0209999"
                                   y="13.363"
                                   x="8.349" /><rect
                                   id="rect5437"
                                   height="11.875"
                                   width="3.0209999"
                                   y="13.363"
                                   x="20.629999" /><rect
                                   id="rect5439"
                                   height="11.875"
                                   width="3.0209999"
                                   y="13.363"
                                   x="25.312" /></g><path
                                   id="path5441"
                                   d="m 19.055,22.809 c -0.386,0.262 -1.035,0.524 -1.857,0.524 -1.01,0 -1.907,-0.386 -2.53,-1.11 -0.474,-0.524 -0.785,-1.246 -0.897,-2.144 h -0.773 v -0.611 h 0.711 c 0,-0.062 0,-0.125 0,-0.187 0,-0.2 0.012,-0.387 0.025,-0.561 h -0.735 v -0.624 h 0.823 c 0.15,-0.872 0.524,-1.595 1.022,-2.106 0.636,-0.66 1.446,-1.035 2.468,-1.035 0.735,0 1.309,0.212 1.658,0.399 l -0.249,0.822 c -0.312,-0.187 -0.835,-0.349 -1.396,-0.349 -0.673,0 -1.221,0.237 -1.645,0.685 -0.374,0.361 -0.623,0.922 -0.748,1.583 h 3.478 v 0.624 h -3.59 c -0.013,0.162 -0.025,0.349 -0.025,0.523 0,0.075 0,0.137 0,0.225 h 3.615 v 0.611 h -3.53 c 0.1,0.723 0.349,1.259 0.685,1.633 0.461,0.486 1.085,0.723 1.757,0.723 0.661,0 1.234,-0.249 1.521,-0.411 l 0.212,0.786 z"
                                   display="inline"
                                   inkscape:connector-curvature="0"
                                   style="display:inline" /></g><g
                                   id="g5911"
                                   transform="translate(34.803917,-34.731522)"><g
                                   id="g5969"
                                   transform="translate(-76.820846,20.463898)"><g
                                   id="g6024"
                                   transform="translate(-1.5269147,1.6004891)"><g
                                   id="g6071"
                                   transform="translate(7.3886843,1.0351706)"><g
                                   id="g6187"
                                   transform="translate(-0.71000052,-4.6322855)"><g
                                   id="g6263"
                                   transform="translate(-0.66737304,-5.3488176)"><g
                                   id="g6319"
                                   transform="translate(0.79720466,3.5647493)"><g
                                   id="g6384"
                                   transform="translate(-9.1472004,2.261335)"><g
                                   id="g6488"
                                   transform="translate(-2.0348122,-3.4042665)"><g
                                   id="g6516"
                                   transform="translate(-0.63832329,-2.3294036)"><g
                                   id="g6769"
                                   transform="translate(1565.7794,-3801.8487)"><g
                                   id="g6910"
                                   transform="translate(-308.09512,-3790.9493)"><g
                                   id="g6983"
                                   transform="translate(-14.231122,-15.611848)"><g
                                   id="g7151"
                                   transform="translate(33.267081,-22.491026)"><g
                                   id="g7382"
                                   transform="translate(-23.229266,23.886871)"><g
                                   id="g7549"
                                   transform="translate(14.444681,15.529545)"><g
                                   id="g7800"
                                   transform="translate(-10.517025,-15.548079)"><g
                                   id="g7999"
                                   transform="matrix(0.53445343,0,0,0.59502607,5.6563057,11.962949)"><g
                                   id="g8217"
                                   transform="matrix(0.65157633,0,0,0.66199506,14.891666,27.68312)"><g
                                   id="g8341"
                                   transform="matrix(0.81955739,0,0,0.8373697,16.904811,-6.2861215)"><g
                                   id="g8463"
                                   transform="matrix(1.0901467,0,0,0.7755316,14.691042,9.5565496)"><g
                                   id="g8628"
                                   transform="matrix(3.2141084,0,0,3.9092417,-42.983003,-211.13796)"><g
                                   id="g8709"
                                   transform="matrix(0.28046364,0,0,0.26137124,8.2602788,58.166419)"><g
                                   id="g8982"
                                   transform="matrix(0.85470616,0,0,0.82928987,-24.416347,-291.09779)"><g
                                   id="g9029"
                                   transform="matrix(0.56179905,0,0,0.59146659,71.827756,364.20217)"><g
                                   id="g9231"
                                   transform="matrix(1.6434845,0,0,1.6275903,-1.9010194,-26.060019)"><g
                                   id="g9437"
                                   transform="matrix(0.71903998,0,0,0.65801134,3.2171324,7.0571502)"><g
                                   id="g9598"
                                   transform="matrix(0.80108296,0,0,0.9233293,9.6403445,4.2821143)"><g
                                   id="g9708"
                                   transform="matrix(0.94363907,0,0,1.1480868,25.922318,9.4839725)"><g
                                   id="g9819"
                                   transform="matrix(1.095798,0,0,0.98226973,-24.771036,-19.505567)"><g
                                   id="g9923"
                                   transform="matrix(1.4565749,0,0,1.1402449,-4.0661436,-21.558968)"><g
                                   id="g10097"
                                   transform="matrix(0.11168619,0,0,0.17855319,5.2962471,-4.487068)"><g
                                   id="g10271"
                                   transform="matrix(13.365969,0,0,8.1997528,-133.46038,-213.50307)"><g
                                   style="fill-rule:evenodd"
                                   id="g10860"
                                   transform="matrix(3.4886731,0,0,4.1898505,17.112225,-334.18238)"><g
                                   id="g10829"><path
                                   id="path10831"
                                   d="m 0,0 52.0441,0 0,88.1989 0,4.48788 -3.51697,0 0,-4.48788 -45.0102,0 0,4.48788 -3.51697,0 0,-4.48788 L -4e-5,0 z m 10.5936,72.0776 23.6041,0 0,11.7451 -23.6041,0 0,-11.7451 z m 37.0228,-45.0091 0.599844,0 c 0.143393,0 0.261611,0.117123 0.261611,0.260516 l 0,0.600938 c 0,0.143393 -0.118217,0.260516 -0.261611,0.260516 l -0.599844,0 c -0.143393,0 -0.261611,-0.117123 -0.261611,-0.260516 l 0,-0.600938 c 0,-0.143393 0.118217,-0.260516 0.261611,-0.260516 z m -1.7853,0 0.600938,0 c 0.143393,0 0.260516,0.117123 0.260516,0.260516 l 0,0.600938 c 0,0.143393 -0.117123,0.260516 -0.260516,0.260516 l -0.600938,0 c -0.143393,0 -0.260516,-0.117123 -0.260516,-0.260516 l 0,-0.600938 c 0,-0.143393 0.117123,-0.260516 0.260516,-0.260516 z m -1.71196,0 0.599844,0 c 0.143393,0 0.261611,0.117123 0.261611,0.260516 l 0,0.600938 c 0,0.143393 -0.118217,0.260516 -0.261611,0.260516 l -0.599844,0 c -0.144488,0 -0.261611,-0.117123 -0.261611,-0.260516 l 0,-0.600938 c 0,-0.143393 0.117123,-0.260516 0.261611,-0.260516 z m 3.49726,-1.5828 0.599844,0 c 0.143393,0 0.261611,0.117123 0.261611,0.260516 l 0,0.600938 c 0,0.143393 -0.118217,0.260516 -0.261611,0.260516 l -0.599844,0 c -0.143393,0 -0.261611,-0.117123 -0.261611,-0.260516 l 0,-0.600938 c 0,-0.143393 0.118217,-0.260516 0.261611,-0.260516 z m -1.7853,0 0.600938,0 c 0.143393,0 0.260516,0.117123 0.260516,0.260516 l 0,0.600938 c 0,0.143393 -0.117123,0.260516 -0.260516,0.260516 l -0.600938,0 c -0.143393,0 -0.260516,-0.117123 -0.260516,-0.260516 l 0,-0.600938 c 0,-0.143393 0.117123,-0.260516 0.260516,-0.260516 z m -1.71196,0 0.599844,0 c 0.143393,0 0.261611,0.117123 0.261611,0.260516 l 0,0.600938 c 0,0.143393 -0.118217,0.260516 -0.261611,0.260516 l -0.599844,0 c -0.144488,0 -0.261611,-0.117123 -0.261611,-0.260516 l 0,-0.600938 c 0,-0.143393 0.117123,-0.260516 0.261611,-0.260516 z m 3.49726,-1.55543 0.599844,0 c 0.143393,0 0.261611,0.118217 0.261611,0.261611 l 0,0.599844 c 0,0.143393 -0.118217,0.261611 -0.261611,0.261611 l -0.599844,0 c -0.143393,0 -0.261611,-0.118217 -0.261611,-0.261611 l 0,-0.599844 c 0,-0.143393 0.118217,-0.261611 0.261611,-0.261611 z m -1.7853,0 0.600938,0 c 0.143393,0 0.260516,0.118217 0.260516,0.261611 l 0,0.599844 c 0,0.143393 -0.117123,0.261611 -0.260516,0.261611 l -0.600938,0 c -0.143393,0 -0.260516,-0.118217 -0.260516,-0.261611 l 0,-0.599844 c 0,-0.143393 0.117123,-0.261611 0.260516,-0.261611 z m -1.71196,0 0.599844,0 c 0.143393,0 0.261611,0.118217 0.261611,0.261611 l 0,0.599844 c 0,0.143393 -0.118217,0.261611 -0.261611,0.261611 l -0.599844,0 c -0.144488,0 -0.261611,-0.118217 -0.261611,-0.261611 l 0,-0.599844 c 0,-0.143393 0.117123,-0.261611 0.261611,-0.261611 z m 3.49726,-1.62658 0.599844,0 c 0.143393,0 0.261611,0.118217 0.261611,0.261611 l 0,0.599844 c 0,0.144488 -0.118217,0.261611 -0.261611,0.261611 l -0.599844,0 c -0.143393,0 -0.261611,-0.117123 -0.261611,-0.261611 l 0,-0.599844 c 0,-0.143393 0.118217,-0.261611 0.261611,-0.261611 z m -1.7853,0 0.600938,0 c 0.143393,0 0.260516,0.118217 0.260516,0.261611 l 0,0.599844 c 0,0.144488 -0.117123,0.261611 -0.260516,0.261611 l -0.600938,0 c -0.143393,0 -0.260516,-0.117123 -0.260516,-0.261611 l 0,-0.599844 c 0,-0.143393 0.117123,-0.261611 0.260516,-0.261611 z m -1.71196,0 0.599844,0 c 0.143393,0 0.261611,0.118217 0.261611,0.261611 l 0,0.599844 c 0,0.144488 -0.118217,0.261611 -0.261611,0.261611 l -0.599844,0 c -0.144488,0 -0.261611,-0.117123 -0.261611,-0.261611 l 0,-0.599844 c 0,-0.143393 0.117123,-0.261611 0.261611,-0.261611 z m -0.800156,-2.55809 0.385301,0 c 0.02955,0 0.05254,0.02408 0.05254,0.05254 l 0,1.39234 c 0,0.02846 -0.02299,0.05254 -0.05254,0.05254 l -0.385301,0 c -0.02846,0 -0.05254,-0.02408 -0.05254,-0.05254 l 0,-1.39234 c 0,-0.02846 0.02408,-0.05254 0.05254,-0.05254 z m 1.06505,0.374355 4.27115,0 c 0.02846,0 0.05254,0.02408 0.05254,0.05254 l 0,0.585614 c 0,0.02955 -0.02408,0.05254 -0.05254,0.05254 l -4.27115,0 c -0.02846,0 -0.05254,-0.02299 -0.05254,-0.05254 l 0,-0.585614 c 0,-0.02846 0.02408,-0.05254 0.05254,-0.05254 z m 0.240813,15.1833 3.33088,0 c 0.286787,0 0.522127,0.234246 0.522127,0.522127 l 0,3.33088 c 0,0.286787 -0.23534,0.522127 -0.522127,0.522127 l -3.33088,0 c -0.287881,0 -0.522127,-0.23534 -0.522127,-0.522127 l 0,-3.33088 c 0,-0.287881 0.234246,-0.522127 0.522127,-0.522127 z m 0,-5.64269 3.33088,0 c 0.286787,0 0.522127,0.23534 0.522127,0.522127 l 0,3.33088 c 0,0.287881 -0.23534,0.523221 -0.522127,0.523221 l -3.33088,0 c -0.287881,0 -0.522127,-0.23534 -0.522127,-0.523221 l 0,-3.33088 c 0,-0.286787 0.234246,-0.522127 0.522127,-0.522127 z m -40.2453,-21.37 36.0355,0 0,61.2541 -36.0355,0 0,-61.2541 z"
                                   class="fil0"
                                   inkscape:connector-curvature="0"
                                   style="fill:#000000" /><line
                                   id="line10833"
                                   y2="65.8153"
                                   x2="28.0996"
                                   y1="59.1371"
                                   x1="28.0996"
                                   class="fil1"
                                   style="fill:none" /><line
                                   id="line10835"
                                   y2="65.8153"
                                   x2="16.4694"
                                   y1="59.1371"
                                   x1="16.4694"
                                   class="fil1"
                                   style="fill:none" /><polygon
                                   id="polygon10837"
                                   points="36.5007,55.6125 8.17561,55.6125 8.17561,54.3066 36.5007,54.3066 "
                                   class="fil0"
                                   style="fill:#000000" /><polygon
                                   id="polygon10839"
                                   points="36.5007,44.0984 8.17561,44.0984 8.17561,42.7925 36.5007,42.7925 "
                                   class="fil0"
                                   style="fill:#000000" /><polygon
                                   id="polygon10841"
                                   points="36.5007,32.0851 8.17561,32.0851 8.17561,30.7803 36.5007,30.7803 "
                                   class="fil0"
                                   style="fill:#000000" /><polygon
                                   id="polygon10843"
                                   points="36.5007,20.5709 8.17561,20.5709 8.17561,19.2661 36.5007,19.2661 "
                                   class="fil0"
                                   style="fill:#000000" /><line
                                   id="line10845"
                                   y2="19.918501"
                                   x2="37.7672"
                                   y1="19.918501"
                                   x1="9.4420605"
                                   class="fil1"
                                   style="fill:none" /><path
                                   id="path10847"
                                   d="m 28.0996,10.6625 0,6.67819 m -11.6302,-6.67819 0,6.67819 m 11.6302,28.44 0,6.67819 m -11.6302,-6.67819 0,6.67819 m 11.6302,-18.6532 0,6.67819 m -11.6302,-6.67819 0,6.67819 m 11.6302,-18.1923 0,6.67819 m -11.6302,-6.67819 0,6.67819"
                                   class="fil1"
                                   inkscape:connector-curvature="0"
                                   style="fill:none" /><path
                                   id="path10849"
                                   d="m 28.4258,10.6625 0,6.67819 -0.653479,0 0,-6.67819 0.653479,0 z m -11.6302,0 0,6.67819 -0.652385,0 0,-6.67819 0.652385,0 z m 11.6302,35.1182 0,6.67819 -0.653479,0 0,-6.67819 0.653479,0 z m -11.6302,0 0,6.67819 -0.652385,0 0,-6.67819 0.652385,0 z m 11.6302,-11.975 0,6.67819 -0.653479,0 0,-6.67819 0.653479,0 z m -11.6302,0 0,6.67819 -0.652385,0 0,-6.67819 0.652385,0 z m 11.6302,-11.5142 0,6.67819 -0.653479,0 0,-6.67819 0.653479,0 z m -11.6302,0 0,6.67819 -0.652385,0 0,-6.67819 0.652385,0 z"
                                   class="fil2"
                                   inkscape:connector-curvature="0"
                                   style="fill:#000000;fill-rule:nonzero" /></g></g></g></g></g></g></g></g></g></g></g></g></g></g></g></g></g></g></g></g></g></g></g></g></g></g></g></g></g></g></g></g></g></g></g></g></g></g></g></g></g></g></g></g></g></g></g></g></g></g></g></g></svg>