<?xml version="1.0" encoding="UTF-8" standalone="no"?>
<svg
   xmlns:dc="http://purl.org/dc/elements/1.1/"
   xmlns:cc="http://creativecommons.org/ns#"
   xmlns:rdf="http://www.w3.org/1999/02/22-rdf-syntax-ns#"
   xmlns:svg="http://www.w3.org/2000/svg"
   xmlns="http://www.w3.org/2000/svg"
   xmlns:sodipodi="http://sodipodi.sourceforge.net/DTD/sodipodi-0.dtd"
   xmlns:inkscape="http://www.inkscape.org/namespaces/inkscape"
   version="1.1"
   x="0px"
   y="0px"
   viewBox="0 0 100 100"
   enable-background="new 0 0 100 100"
   xml:space="preserve"
   id="svg10"
   sodipodi:docname="Veterinary.svg"
   width="100"
   height="100"
   inkscape:version="0.92.5 (2060ec1f9f, 2020-04-08)"><metadata
     id="metadata16"><rdf:RDF><cc:Work
         rdf:about=""><dc:format>image/svg+xml</dc:format><dc:type
           rdf:resource="http://purl.org/dc/dcmitype/StillImage" /><dc:title></dc:title></cc:Work></rdf:RDF></metadata><defs
     id="defs14" /><sodipodi:namedview
     pagecolor="#ffffff"
     bordercolor="#666666"
     borderopacity="1"
     objecttolerance="10"
     gridtolerance="10"
     guidetolerance="10"
     inkscape:pageopacity="0"
     inkscape:pageshadow="2"
     inkscape:window-width="1440"
     inkscape:window-height="824"
     id="namedview12"
     showgrid="false"
     inkscape:zoom="1.888"
     inkscape:cx="50"
     inkscape:cy="62.5"
     inkscape:window-x="0"
     inkscape:window-y="0"
     inkscape:window-maximized="1"
     inkscape:current-layer="svg10" /><g
     id="g4"
     transform="matrix(1.0549893,0,0,1.0549893,-4.1361727,-7.9850164)"><path
       d="m 94.482,45.342 -5.664,5.475 c 0,0 -5.227,4.275 -14.635,-2.567 L 71.226,54.236 55.1,38.5 56.041,38 79,18.067 v 8.487 z M 17.858,42 C 14.274,42 13.689,32.029 9.058,33.678 4.428,35.326 14,46.938 14,46.938 v 19.799 0.436 17.933 c 0,2.322 2.252,4.203 5,4.203 2.747,0 5,-1.881 5,-4.203 V 69.229 l 34,5.266 v 9.969 c 0,2.676 2.253,4.846 5,4.846 2.748,0 5,-2.17 5,-4.846 V 62.944 L 68.938,58.957 51.914,42 Z M 34.4,73.719 27,72.118 V 82.91 c 0,0 0.237,7.16 5.634,6.527 5.396,-0.632 3.659,-7.46 3.659,-7.46 z"
       id="path2"
       inkscape:connector-curvature="0" /></g></svg>