<?xml version="1.0" encoding="UTF-8" standalone="no"?>
<svg
   xmlns:dc="http://purl.org/dc/elements/1.1/"
   xmlns:cc="http://creativecommons.org/ns#"
   xmlns:rdf="http://www.w3.org/1999/02/22-rdf-syntax-ns#"
   xmlns:svg="http://www.w3.org/2000/svg"
   xmlns="http://www.w3.org/2000/svg"
   xmlns:sodipodi="http://sodipodi.sourceforge.net/DTD/sodipodi-0.dtd"
   xmlns:inkscape="http://www.inkscape.org/namespaces/inkscape"
   version="1.1"
   x="0px"
   y="0px"
   viewBox="-120 78.1 55.250648 48.628999"
   xml:space="preserve"
   id="svg2"
   inkscape:version="0.48.4 r9939"
   width="100%"
   height="100%"
   sodipodi:docname="Pharmacy.svg"><metadata
     id="metadata18"><rdf:RDF><cc:Work
         rdf:about=""><dc:format>image/svg+xml</dc:format><dc:type
           rdf:resource="http://purl.org/dc/dcmitype/StillImage" /><dc:title></dc:title></cc:Work></rdf:RDF></metadata><defs
     id="defs16" /><sodipodi:namedview
     pagecolor="#ffffff"
     bordercolor="#666666"
     borderopacity="1"
     objecttolerance="10"
     gridtolerance="10"
     guidetolerance="10"
     inkscape:pageopacity="0"
     inkscape:pageshadow="2"
     inkscape:window-width="725"
     inkscape:window-height="735"
     id="namedview14"
     showgrid="false"
     fit-margin-top="0"
     fit-margin-left="0"
     fit-margin-right="0"
     fit-margin-bottom="0"
     inkscape:zoom="3.776"
     inkscape:cx="13.409327"
     inkscape:cy="22.268131"
     inkscape:window-x="114"
     inkscape:window-y="170"
     inkscape:window-maximized="0"
     inkscape:current-layer="g4513" /><g
     id="g3032"
     transform="translate(-157.21202,76.048251)"><g
       id="g3082"
       transform="translate(-11.778449,-19.681681)"><g
         id="g3297"
         transform="translate(113.35527,48.840676)"><g
           id="g3451"
           transform="translate(-110.35024,-41.106017)"><g
             id="g3508"
             transform="translate(37.661621,37.801481)"><g
               id="g3556"
               transform="translate(-33.173714,-53.557494)"><g
                 id="g3600"
                 transform="translate(1.6437441,2.3337983)"><g
                   id="g3673"
                   transform="translate(3.1326802,-1.9259882)"><g
                     id="g3728"
                     transform="translate(16.15499,5.0801784)"><g
                       id="g3774"
                       transform="matrix(1.3062103,0,0,1.1506075,-1.2423141,14.177607)"><g
                         id="g3814"
                         transform="matrix(0.76557355,0,0,0.86910615,-9.6088369,-25.571004)"><g
                           id="g3898"
                           transform="translate(-253.23308,-590.39679)"><g
                             id="g4071"
                             transform="translate(255.74688,596.01847)"><g
                               id="g4160"
                               transform="translate(-2.9830857,2.4410756)"><g
                                 id="g4272"
                                 transform="matrix(0.87809547,0,0,0.86067766,11.546476,7.0690494)"><g
                                   id="g4327"
                                   transform="matrix(1.1388283,0,0,1.1618751,13.689337,21.712146)"><g
                                   id="g4372"
                                   transform="translate(0.89151921,1.2290808)"><g
                                   id="g4455"
                                   transform="translate(0.83942136,-4.6551301)"><g
                                   id="g4513"
                                   transform="translate(7.1555672,3.6004605)"><path
                                   id="path4485"
                                   d="m 29.062,51.757 c -0.594,-0.441 -2.383,-1.696 -3.396,-1.696 -1.013,0 -2.8,1.255 -3.396,1.696 -0.137,0.002 -0.159,0.207 -0.166,0.451 0.236,1.095 1.739,1.939 3.562,1.939 1.824,0 3.327,-0.843 3.563,-1.939 0.006,-0.199 -0.029,-0.449 -0.167,-0.451 z"
                                   inkscape:connector-curvature="0" /><path
                                   id="path4487"
                                   d="m 12.477,25.666 c 0.357,-1.217 1.003,-2.161 1.817,-2.899 -2.723,1.372 -11.383,6.432 -11.907,10.223 -0.219,1.577 2.699,5.472 4.647,6.597 1.95,1.125 1.04,2.173 0.89,3.822 -0.15,1.649 1.658,2.998 2.558,3.074 0.899,0.076 3.074,-3.673 3.224,-5.248 0.038,-0.403 -0.032,-1.259 -0.118,-2.359 -1.233,-3.813 -2.339,-9.014 -1.111,-13.21 z"
                                   inkscape:connector-curvature="0" /><path
                                   id="path4489"
                                   d="m 47.134,36.405 -0.775,-0.775 -2.523,-2.523 -0.246,0.248 -0.737,0.736 -0.475,0.474 -0.585,0.584 0,0 -0.015,0.014 -0.032,-0.061 -0.728,-0.728 -1.729,-1.728 c -0.29,2.246 -0.863,4.439 -1.468,6.294 -0.084,1.068 -0.15,1.901 -0.112,2.294 0.15,1.575 2.324,5.324 3.223,5.248 0.9,-0.076 2.709,-1.424 2.559,-3.074 -0.149,-1.649 -1.059,-2.698 0.89,-3.822 1.103,-0.637 2.753,-3.181 2.753,-3.181 z"
                                   inkscape:connector-curvature="0" /><path
                                   id="path4491"
                                   d="m 25.666,20.799 c 0,0 -0.738,-0.085 -1.847,-0.085 -1.883,0 -4.835,0.253 -7.067,1.593 -1.267,0.76 -2.307,1.867 -2.78,3.485 -1.003,3.425 -0.376,7.593 0.532,10.978 0.721,2.691 1.619,4.885 2.018,5.815 0.899,2.099 1.049,3.523 0.899,4.422 -0.15,0.899 0.375,2.324 1.2,2.773 0,0.714 -0.068,1.43 1.94,1.43 0.098,0 0.201,-0.002 0.308,-0.005 0.235,-0.007 0.707,-0.115 0.707,-0.115 l 0.191,-0.148 c 0.255,-0.201 2.543,-1.953 3.9,-1.953 1.358,0 3.645,1.752 3.901,1.953 l 0.19,0.148 c 0,0 0.471,0.108 0.707,0.115 0.108,0.004 0.211,0.005 0.309,0.005 2.007,0 1.94,-0.716 1.94,-1.43 0.825,-0.45 1.35,-1.874 1.2,-2.773 -0.15,-0.899 0,-2.324 0.899,-4.422 0.395,-0.921 1.28,-3.082 1.997,-5.737 0.473,-1.749 0.868,-3.711 1.006,-5.675 L 27.357,20.714 c -1.019,0.009 -1.691,0.085 -1.691,0.085 z m -3.461,8.858 c 0.226,0.674 -1.049,3.074 -2.548,3.224 -1.5,0.149 -2.549,-1.35 -2.549,-1.35 0.15,-1.274 1.799,-2.174 2.923,-1.874 1.125,0.3 1.574,0.225 2.174,0 z m 7.284,12.575 c -0.02,0.185 -0.029,0.41 -0.041,0.66 -0.079,1.727 -0.228,4.939 -3.781,4.939 -3.553,0 -3.702,-3.212 -3.781,-4.939 -0.012,-0.25 -0.022,-0.475 -0.04,-0.66 l -0.006,-0.068 0.031,-0.059 c 0.801,-1.523 3.669,-1.617 3.791,-1.619 0.133,0.002 3.001,0.095 3.803,1.619 l 0.031,0.059 -0.007,0.068 z M 27.928,29.657 c 0.6,0.225 1.049,0.299 2.174,0 1.125,-0.299 2.774,0.6 2.923,1.874 0,0 -1.049,1.499 -2.548,1.35 -1.5,-0.15 -2.774,-2.549 -2.549,-3.224 z"
                                   inkscape:connector-curvature="0" /><g
                                   id="g4493"><path
                                   id="path4495"
                                   d="m 25.662,41.339 c -0.013,0 -2.305,0.076 -2.941,1.156 0.013,0.157 0.021,0.338 0.031,0.538 0.073,1.57 0.183,3.944 2.915,3.944 2.733,0 2.843,-2.374 2.916,-3.944 0.009,-0.2 0.017,-0.381 0.031,-0.538 -0.638,-1.083 -2.929,-1.156 -2.952,-1.156 z"
                                   inkscape:connector-curvature="0" /></g><circle
                                   id="circle4497"
                                   r="1.067"
                                   cy="31.402"
                                   cx="19.431"
                                   sodipodi:cx="19.431"
                                   sodipodi:cy="31.402"
                                   sodipodi:rx="1.067"
                                   sodipodi:ry="1.067"
                                   d="m 20.498,31.402 c 0,0.589288 -0.477712,1.067 -1.067,1.067 -0.589288,0 -1.067,-0.477712 -1.067,-1.067 0,-0.589287 0.477712,-1.067 1.067,-1.067 0.589288,0 1.067,0.477713 1.067,1.067 z" /><circle
                                   id="circle4499"
                                   r="1.067"
                                   cy="31.402"
                                   cx="30.653999"
                                   sodipodi:cx="30.653999"
                                   sodipodi:cy="31.402"
                                   sodipodi:rx="1.067"
                                   sodipodi:ry="1.067"
                                   d="m 31.720999,31.402 c 0,0.589288 -0.477712,1.067 -1.067,1.067 -0.589288,0 -1.067,-0.477712 -1.067,-1.067 0,-0.589287 0.477712,-1.067 1.067,-1.067 0.589288,0 1.067,0.477713 1.067,1.067 z" /><path
                                   id="path4501"
                                   d="m 48.235,33.756 0.433,-0.435 -3.298,-3.298 1.458,-1.456 -16.345,-16.344 0.886,-0.887 -1.195,-1.195 -1.907,1.908 -4.11,-4.11 1.226,-1.227 -1.195,-1.194 -1.226,1.226 -2.147,2.146 -1.227,1.227 1.195,1.195 1.227,-1.227 4.11,4.111 -1.909,1.909 1.195,1.194 0.886,-0.885 16.344,16.343 1.458,-1.455 3.297,3.297 0.435,-0.435 9.391,9.39 0.409,-0.408 -9.391,-9.39 z m -5.763,-1.98 -15.77,-15.771 0.612,-0.613 2.147,-2.148 0.613,-0.614 2.456,2.458 -1.686,1.686 0.642,0.643 1.687,-1.688 1.912,1.912 -0.742,0.741 0.642,0.644 0.742,-0.741 1.911,1.91 -1.686,1.687 0.641,0.642 1.687,-1.687 1.911,1.912 -0.739,0.742 0.641,0.642 0.742,-0.741 1.912,1.911 -1.688,1.687 0.643,0.642 1.686,-1.687 2.457,2.457 -3.373,3.374 z"
                                   inkscape:connector-curvature="0" /></g></g></g></g></g></g></g></g></g></g></g></g></g></g></g></g></g></g></g></svg>