<?xml version="1.0" encoding="UTF-8" standalone="no"?>
<svg
   xmlns:dc="http://purl.org/dc/elements/1.1/"
   xmlns:cc="http://creativecommons.org/ns#"
   xmlns:rdf="http://www.w3.org/1999/02/22-rdf-syntax-ns#"
   xmlns:svg="http://www.w3.org/2000/svg"
   xmlns="http://www.w3.org/2000/svg"
   xmlns:sodipodi="http://sodipodi.sourceforge.net/DTD/sodipodi-0.dtd"
   xmlns:inkscape="http://www.inkscape.org/namespaces/inkscape"
   version="1.1"
   x="0px"
   y="0px"
   viewBox="0 0 91 91"
   xml:space="preserve"
   id="svg2"
   inkscape:version="0.91 r13725"
   sodipodi:docname="Zoo.svg"
   width="91"
   height="91"><metadata
     id="metadata24"><rdf:RDF><cc:Work
         rdf:about=""><dc:format>image/svg+xml</dc:format><dc:type
           rdf:resource="http://purl.org/dc/dcmitype/StillImage" /><dc:title></dc:title></cc:Work></rdf:RDF></metadata><defs
     id="defs22" /><sodipodi:namedview
     pagecolor="#ffffff"
     bordercolor="#666666"
     borderopacity="1"
     objecttolerance="10"
     gridtolerance="10"
     guidetolerance="10"
     inkscape:pageopacity="0"
     inkscape:pageshadow="2"
     inkscape:window-width="640"
     inkscape:window-height="480"
     id="namedview20"
     showgrid="false"
     inkscape:zoom="2.0747253"
     inkscape:cx="45.5"
     inkscape:cy="56.875"
     inkscape:window-x="0"
     inkscape:window-y="0"
     inkscape:window-maximized="0"
     inkscape:current-layer="svg2" /><g
     id="g4"
     transform="translate(0.48199153,0.86758475)"><path
       d="m 5.1,56.8 c 0.8,-1.4 1.7,-2.7 2.7,-3.8 -1.4,5.1 -2,10.3 -2,15.6 0,2.2 3.1,3.1 4.2,1.1 0.6,-1 1.2,-2 1.9,-3.1 0,5.4 1.1,10.7 3,15.9 0.7,1.9 3.7,2.3 4.2,0 0.5,-2.5 1.4,-4.9 2.6,-7.2 2.1,1.7 4.3,3.5 6.7,4.6 0.5,0.2 0.9,0.3 1.3,0.2 0.5,0.1 1,0.1 1.6,-0.1 0.3,-0.2 0.7,-0.3 1,-0.5 1.5,2.8 7,5.4 8.7,5.9 7,2 13.4,-0.6 18.5,-5.4 0,0 0,-0.1 0.1,-0.1 0.1,0 0.2,0.1 0.2,0.1 0.6,0.3 1.1,0.3 1.6,0.1 0.4,0 0.9,0 1.3,-0.2 2.4,-1.2 4.6,-2.9 6.7,-4.6 1.1,2.3 2,4.7 2.6,7.2 0.5,2.3 3.5,1.9 4.2,0 1.9,-5.2 2.9,-10.5 3,-15.9 0.6,1 1.3,2 1.9,3.1 1.1,2 4.2,1.1 4.2,-1.1 0.1,-5.3 -0.6,-10.5 -2,-15.5 1,1.1 1.9,2.4 2.7,3.7 1,1.7 4,1.1 3.9,-1.1 C 89.4,47 86.6,36.8 79.6,31.2 79.8,31 79.9,30.8 80.1,30.5 83,24.5 86.5,12.5 78.6,8.7 74.1,6.6 65.7,8.6 62.3,13.1 57.7,10.2 52.8,8.5 47,8.3 39.8,8.1 32.6,9.6 26.4,13.1 23.9,11 21.4,9 17.9,8.5 14.2,8 10.7,9.4 8.6,12.6 c -2,3 -2.5,6.9 -1.7,10.4 0.6,2.7 1.9,6.5 4.2,8.6 -6.2,6.1 -9.5,15.9 -9.9,24.1 -0.1,2.2 2.9,3 3.9,1.1 z m 38.2,24 c -2.7,-0.5 -5.1,-1.7 -7.3,-3.2 1.6,-0.9 3.1,-1.9 4.7,-2.8 1.6,-0.9 3.5,-1.9 4.9,-3.2 1.3,1.1 3,2 4.4,2.9 1.6,0.9 3.1,1.9 4.7,2.9 -3.3,2.6 -7.1,4.2 -11.4,3.4 z M 7.4,42.8 c 2.2,-5.4 6.2,-9.5 9.1,-14.5 0.2,-0.3 -0.1,-0.5 -0.4,-0.4 -0.8,0.4 -1.6,0.9 -2.4,1.5 -0.4,-1.6 -1.2,-3.2 -1.7,-4.7 -0.6,-2.2 -1,-4.7 -0.4,-6.9 0.8,-2.9 2.9,-4.7 6,-4.2 2.8,0.5 4.7,2.8 6.8,4.5 0.9,0.7 2.1,1 3.1,0.4 5.1,-3.1 10.6,-4.6 16.5,-4.9 0,0.5 0,1.1 0,1.6 -2.4,-0.4 -5.1,0.9 -7,2.1 -0.8,0.6 -2.2,1.4 -2.3,2.6 0,0.6 0.4,1.3 1.1,1.3 1,0.1 2.4,-0.6 3.5,-1 0.8,-0.3 1.5,-0.7 2.3,-0.9 0.9,-0.2 1.7,-0.1 2.6,-0.1 0.1,1.3 0.2,2.5 0.2,3.8 -1.7,-0.2 -3.6,0.3 -5.2,1 -1.9,0.8 -3.6,1.7 -3.9,3.9 -0.1,0.8 1,1.3 1.6,0.9 1,-0.7 2.7,-0.9 3.9,-1.2 1.2,-0.3 2.4,-0.3 3.6,-0.3 0,2 0,4 0.7,5.8 0.3,0.7 1.2,0.9 1.6,0.2 1,-1.6 1.3,-3.7 1.5,-5.7 0.2,0 0.3,0.1 0.5,0.1 1.3,0.1 2.6,0.3 3.8,0.7 1.1,0.4 2,1.1 3,1.6 1.4,0.7 2.6,-0.7 2,-2 -1.3,-2.9 -5.5,-3.8 -8.3,-4.3 -0.3,-0.1 -0.5,-0.1 -0.7,0 0,0 0,-0.1 0,-0.1 0.1,-1.1 0.3,-2.2 0.4,-3.3 0.1,0 0.1,0 0.1,0 1.4,-0.4 2.4,-0.4 3.8,0.3 1,0.5 2,1.4 3.1,1 0.4,-0.1 0.6,-0.5 0.7,-0.9 0.2,-1.5 -1.8,-2.9 -2.9,-3.6 -1.3,-0.8 -2.9,-1.4 -4.5,-1.6 0,-0.6 0,-1.2 0,-1.7 4.9,0.6 9.1,2.6 13.2,5.8 2.6,2 6.3,-1.6 3.7,-3.7 -0.1,-0.1 -0.3,-0.2 -0.4,-0.3 2.9,-1.6 5.9,-3.6 9.4,-3 6.2,1.2 2.1,11.9 0.3,15.3 -0.9,1.7 0.3,3.4 1.7,3.8 2.6,3.9 5.6,7.4 7.2,11.8 0.7,2.1 1.1,4 1.3,6.1 -1.5,-1.4 -3.3,-2.5 -5.2,-3.4 -1.4,-0.7 -3.5,0.5 -2.9,2.2 1.5,4.2 2.4,8.5 2.8,12.9 -0.7,-0.8 -1.4,-1.5 -2.1,-2.2 -0.9,-0.9 -2.4,0 -2.1,1.2 0,0 0,0.1 0,0.1 -0.2,4.9 -0.9,9.8 -2.1,14.5 -0.7,-1.4 -1.6,-2.8 -2.7,-4 -0.7,-0.8 -2,-0.6 -2.7,0 -2.4,2.1 -5.3,3.3 -8,4.9 -2.9,-2 -6,-3.7 -9.1,-5.4 -1.4,-0.8 -3.1,-1.3 -3.8,-2.6 0.1,-0.7 0.1,-1.5 -0.1,-2.2 0.5,-1.5 2.2,-2.2 3.5,-3.2 1.2,-0.9 -0.1,-2.8 -1.4,-2.4 -1.5,0.4 -3,1.3 -4.2,2.4 -1.2,-1.1 -2.8,-2 -4.2,-2.4 -1.3,-0.4 -2.6,1.5 -1.4,2.4 1,0.8 3.1,1.7 3.6,2.8 -0.3,0.8 -0.4,1.7 -0.2,2.7 -0.8,1.1 -2.6,1.8 -3.8,2.5 -3,1.7 -6.2,3.4 -9.1,5.4 -2.7,-1.6 -5.5,-2.8 -8,-4.9 -0.8,-0.6 -2,-0.8 -2.7,0 -1.1,1.3 -2,2.6 -2.7,4 -1.3,-4.7 -1.9,-9.6 -2.1,-14.5 0,0 0,-0.1 0,-0.1 0.3,-1.2 -1.2,-2.2 -2.1,-1.2 -0.7,0.7 -1.4,1.5 -2.1,2.2 0.4,-4.4 1.3,-8.7 2.8,-12.9 0.6,-1.7 -1.5,-2.9 -2.9,-2.2 -1.8,0.9 -3.5,2 -4.9,3.3 0.2,-2.2 0.8,-4.4 1.7,-6.7 z"
       id="path6"
       inkscape:connector-curvature="0" /><path
       d="m 19.9,58.4 c 0.4,-0.6 0.9,-1.3 1.3,-1.9 0.4,3 1.3,5.8 2.4,8.7 0.6,1.4 2.5,1.9 3.4,0.4 1.9,-3.1 3.6,-6.2 5.1,-9.5 1,-2.3 -2.4,-4.4 -3.5,-2 -0.9,2.1 -1.9,4.2 -3,6.2 -0.9,-2.8 -1.4,-5.7 -1.5,-8.7 -0.1,-1.7 -2.3,-2.3 -3.2,-0.9 -0.4,0.6 -0.8,1.2 -1.2,1.8 0,-1.7 0,-3.4 0.2,-5.1 0.3,-3.3 1.5,-6.8 1,-10 -0.1,-0.6 -0.8,-1.1 -1.3,-0.5 -1.9,2.5 -2.3,5.8 -2.7,8.9 -0.5,4 -0.6,7.9 -0.2,11.9 0.3,1.5 2.3,2.1 3.2,0.7 z"
       id="path8"
       inkscape:connector-curvature="0" /><path
       d="m 58.5,58.3 c 1.5,3.3 3.2,6.5 5.1,9.5 0.9,1.5 2.8,1 3.4,-0.4 1.2,-2.8 2,-5.7 2.4,-8.7 0.4,0.6 0.9,1.3 1.3,1.9 0.9,1.4 2.9,0.8 3.1,-0.8 0.3,-4 0.3,-7.9 -0.2,-11.9 -0.4,-3.1 -0.7,-6.4 -2.7,-8.9 -0.5,-0.6 -1.2,0 -1.3,0.5 -0.4,3.3 0.8,6.8 1,10 0.1,1.7 0.2,3.4 0.2,5.1 -0.4,-0.6 -0.8,-1.2 -1.2,-1.8 -0.9,-1.4 -3.1,-0.9 -3.2,0.9 -0.1,3 -0.6,5.9 -1.5,8.7 -1.1,-2 -2.1,-4.1 -3,-6.2 -1,-2.3 -4.4,-0.3 -3.4,2.1 z"
       id="path10"
       inkscape:connector-curvature="0" /><path
       d="m 26.7,44.5 c 2.1,1.3 5.8,2.8 8,1 0.4,-0.3 0.5,-0.9 0.4,-1.4 -0.3,-1.1 -1.4,-2 -2.4,-2.7 -1,-0.7 -2,-1.4 -3,-2.1 -1.3,-0.9 -3.3,-0.2 -4.1,1.1 -0.8,1.4 -0.3,3.3 1.1,4.1 z"
       id="path12"
       inkscape:connector-curvature="0" /><path
       d="m 63,44.5 c 1.4,-0.8 1.9,-2.7 1.1,-4.1 -0.8,-1.3 -2.8,-2 -4.1,-1.1 -1,0.7 -2,1.4 -3,2.1 -1,0.7 -2,1.5 -2.4,2.7 -0.1,0.4 0,1.1 0.4,1.4 2.2,1.8 5.8,0.3 8,-1 z"
       id="path14"
       inkscape:connector-curvature="0" /></g></svg>