<?xml version="1.0" encoding="UTF-8" standalone="no"?>
<svg
   xmlns:dc="http://purl.org/dc/elements/1.1/"
   xmlns:cc="http://creativecommons.org/ns#"
   xmlns:rdf="http://www.w3.org/1999/02/22-rdf-syntax-ns#"
   xmlns:svg="http://www.w3.org/2000/svg"
   xmlns="http://www.w3.org/2000/svg"
   xmlns:sodipodi="http://sodipodi.sourceforge.net/DTD/sodipodi-0.dtd"
   xmlns:inkscape="http://www.inkscape.org/namespaces/inkscape"
   height="40"
   width="40"
   version="1.1"
   viewBox="0 0 10.583333 10.583334"
   id="svg10"
   sodipodi:docname="car.svg"
   inkscape:version="0.92.5 (2060ec1f9f, 2020-04-08)">
  <metadata
     id="metadata16">
    <rdf:RDF>
      <cc:Work
         rdf:about="">
        <dc:format>image/svg+xml</dc:format>
        <dc:type
           rdf:resource="http://purl.org/dc/dcmitype/StillImage" />
        <dc:title></dc:title>
      </cc:Work>
    </rdf:RDF>
  </metadata>
  <defs
     id="defs14" />
  <sodipodi:namedview
     pagecolor="#ffffff"
     bordercolor="#666666"
     borderopacity="1"
     objecttolerance="10"
     gridtolerance="10"
     guidetolerance="10"
     inkscape:pageopacity="0"
     inkscape:pageshadow="2"
     inkscape:window-width="1680"
     inkscape:window-height="974"
     id="namedview12"
     showgrid="false"
     inkscape:zoom="5.9"
     inkscape:cx="20"
     inkscape:cy="20"
     inkscape:window-x="0"
     inkscape:window-y="0"
     inkscape:window-maximized="1"
     inkscape:current-layer="svg10" />
  <g
     transform="matrix(1.1925578,0,0,1.1925578,-1.3479584,-342.60434)"
     id="g8"
     style="fill-rule:evenodd">
    <path
       d="m 5.815,294.5 -3.37,1.531 c 0.08006,-0.009 2.366,-6.404 3.042,-7.878 0.09652,-0.2104 0.2629,-0.311 0.3283,-0.311 0.06443,0 0.2234,0.0994 0.3188,0.3025 0.6949,1.48 2.87,7.886 2.933,7.886 z"
       id="path2"
       inkscape:connector-curvature="0"
       style="opacity:0.2" />
    <path
       d="m 5.503,294.2 -3.435,1.56 c 0.08159,-0.008 2.412,-6.527 3.1,-8.029 0.09837,-0.2145 0.268,-0.3169 0.3346,-0.3169 0.06566,0 0.2277,0.1013 0.3249,0.3083 0.7083,1.508 2.925,8.037 2.989,8.037 z"
       id="path4"
       inkscape:connector-curvature="0"
       style="fill:#377ef0" />
    <path
       d="m 5.503,294.2 c 0,0 -0.06661,-6.785 0,-6.785 0.06566,0 0.2277,0.1013 0.3249,0.3083 0.7083,1.508 2.925,8.037 2.989,8.037 z"
       id="path6"
       inkscape:connector-curvature="0"
       style="opacity:0.1;fill:#1b1b1b" />
  </g>
</svg>
