<?xml version="1.0" encoding="UTF-8" standalone="no"?>
<svg
   xmlns:dc="http://purl.org/dc/elements/1.1/"
   xmlns:cc="http://creativecommons.org/ns#"
   xmlns:rdf="http://www.w3.org/1999/02/22-rdf-syntax-ns#"
   xmlns:svg="http://www.w3.org/2000/svg"
   xmlns="http://www.w3.org/2000/svg"
   xmlns:sodipodi="http://sodipodi.sourceforge.net/DTD/sodipodi-0.dtd"
   xmlns:inkscape="http://www.inkscape.org/namespaces/inkscape"
   version="1.1"
   x="0px"
   y="0px"
   viewBox="0 0 100 100"
   id="svg2"
   inkscape:version="0.91 r13725"
   sodipodi:docname="north.svg"
   width="100"
   height="100">
  <metadata
     id="metadata16">
    <rdf:RDF>
      <cc:Work
         rdf:about="">
        <dc:format>image/svg+xml</dc:format>
        <dc:type
           rdf:resource="http://purl.org/dc/dcmitype/StillImage" />
        <dc:title></dc:title>
      </cc:Work>
    </rdf:RDF>
  </metadata>
  <defs
     id="defs14" />
  <sodipodi:namedview
     pagecolor="#ffffff"
     bordercolor="#666666"
     borderopacity="1"
     objecttolerance="10"
     gridtolerance="10"
     guidetolerance="10"
     inkscape:pageopacity="0"
     inkscape:pageshadow="2"
     inkscape:window-width="1680"
     inkscape:window-height="968"
     id="namedview12"
     showgrid="false"
     inkscape:zoom="5.6568543"
     inkscape:cx="35.186507"
     inkscape:cy="58.253012"
     inkscape:window-x="0"
     inkscape:window-y="24"
     inkscape:window-maximized="1"
     inkscape:current-layer="g4" />
  <g
     transform="translate(0,-977.36218)"
     id="g4">
    <path
       style="color:#000000;text-indent:0;text-transform:none;direction:ltr;block-progression:tb;baseline-shift:baseline;display:inline;overflow:visible;visibility:visible;fill:#989898;fill-opacity:1;stroke:none;marker:none;enable-background:accumulate"
       d="m 81.112724,1058.4749 c 17.17469,-17.1747 17.174562,-45.0508 -2.4e-5,-62.22541 -17.174624,-17.17464 -45.050696,-17.17469 -62.225391,-1e-5 -17.1747133,17.17472 -17.1746172,45.05082 0,62.22542 17.174588,17.1746 45.050708,17.1747 62.225415,0 z m -1.414216,-1.4142 c -16.41039,16.4104 -42.986625,16.4103 -59.396993,0 -16.4103107,-16.4103 -16.4103996,-42.9866 1e-6,-59.39701 16.410389,-16.41038 42.986658,-16.41031 59.39698,10e-6 16.410325,16.4103 16.410396,42.9866 1.2e-5,59.397 z m -28.74827,0.6408 10.982203,-29.9857 c 0.0873,-0.216 0.0949,-0.4635 0.0221,-0.685 L 50.950206,997.02292 c -0.288499,-0.76055 -1.607799,-0.74506 -1.878203,0.0221 l -11.004407,29.96368 c -0.08501,0.2252 -0.08497,0.4817 0,0.7071 l 11.004332,30.0078 c 0.701347,1.1294 1.67607,0.7169 1.87831,-0.022 z m -0.95012,-3.2482 -9.546049,-26.0746 19.091922,0 z m 9.567946,-28.0855 -19.091843,0 9.545886,-26.0746 z"
       visibility="visible"
       display="inline"
       overflow="visible"
       id="path6"
       inkscape:connector-curvature="0" />
    <path
       style="opacity:1;fill:#ff0000;fill-opacity:1;stroke:#ffffff;stroke-width:0.08838835;stroke-opacity:1"
       d="m 40.59244,48.839471 c 0.672423,-1.978985 9.412024,-25.672085 9.453656,-25.628904 0.03318,0.03442 2.156685,5.790139 4.718899,12.790497 2.562214,7.000357 4.677531,12.77764 4.700704,12.838407 0.03354,0.08796 -1.889614,0.110485 -9.434333,0.110485 -7.542269,0 -9.468804,-0.02255 -9.438926,-0.110485 z"
       id="path3386"
       inkscape:connector-curvature="0"
       transform="translate(0,977.36218)" />
  </g>
</svg>
