<?xml version="1.0" encoding="UTF-8" standalone="no"?>
<svg xmlns="http://www.w3.org/2000/svg" height="40" width="26" version="1.1" xmlns:xlink="http://www.w3.org/1999/xlink">
 <path d="m13.04 0.6387c-6.783 0-12.43 5.649-12.43 11.78 0 2.757 1.613 6.26 2.779 8.68l9.611 17.73 9.56-17.73c1.166-2.42 2.824-5.747 2.824-8.68 0-6.128-5.555-11.78-12.34-11.78zm0 1.461c5.895 0.0373 10.68 4.656 10.68 10.33 0 5.678-4.781 10.23-10.68 10.27-5.895-0.0373-10.67-4.585-10.67-10.27 0-5.678 4.779-10.3 10.67-10.33z" stroke="#d45500" stroke-linecap="round" fill="#f60"/>
 <rect id="replace" height="12.91" width="12.91" y="6.02" x="6.543" fill="none"/>
</svg>
