<?xml version="1.0" encoding="UTF-8" standalone="no"?>
<svg xmlns="http://www.w3.org/2000/svg" height="96" viewBox="0 0 96 96.000001" width="96" version="1.1">
 <g transform="translate(67.86 -78.51)">
  <g transform="matrix(0 -1 -1 0 373.5 516.5)">
   <g transform="matrix(-.9996 0 0 1 575.9 -611)">
    <g transform="matrix(-1 0 0 1 576 611)">
     <rect opacity="0" style="color-rendering:auto;color:#000000;isolation:auto;mix-blend-mode:normal;paint-order:stroke fill markers;shape-rendering:auto;solid-color:#000000;image-rendering:auto" transform="matrix(0,-1,-1,0,0,0)" height="96.04" width="96" y="-438" x="-441.4" stroke-width="2"/>
     <rect opacity="0" style="color:#000000" transform="scale(-1,1)" height="96" width="96.04" y="345.4" x="-438" stroke-width="4"/>
     <path fill="#808080" d="m364.1 369c-0.0215-0.0161-0.0354-0.0404-0.0567-0.0566-0.0253-0.0201-0.057-0.0305-0.0821-0.0508z"/>
     <path fill="#808080" d="m364.1 417.8-0.1387 0.1074c0.0251-0.0203 0.0569-0.0307 0.0821-0.0508 0.0214-0.0162 0.0353-0.0405 0.0567-0.0566z"/>
     <path style="color-rendering:auto;text-decoration-color:#000000;color:#000000;font-variant-numeric:normal;shape-rendering:auto;font-variant-ligatures:none;text-decoration-line:none;font-variant-position:normal;mix-blend-mode:normal;font-feature-settings:normal;shape-padding:0;font-variant-alternates:normal;text-indent:0;font-variant-caps:normal;image-rendering:auto;white-space:normal;text-decoration-style:solid;solid-color:#000000;isolation:auto;text-transform:none" d="m432 393.4c0 23.17-18.84 42-42.02 42s-42.02-18.83-42.02-42 18.84-42 42.02-42 42.02 18.83 42.02 42zm-4.002 0c0-21.01-16.99-38-38.01-38s-38.02 16.99-38.02 38 17 38 38.02 38 38.01-16.99 38.01-38z" fill="#4d4d4d"/>
     <path style="color-rendering:auto;text-decoration-color:#000000;color:#000000;font-variant-numeric:normal;shape-rendering:auto;font-variant-ligatures:none;text-decoration-line:none;font-variant-position:normal;mix-blend-mode:normal;font-feature-settings:normal;shape-padding:0;font-variant-alternates:normal;text-indent:0;font-variant-caps:normal;image-rendering:auto;white-space:normal;text-decoration-style:solid;solid-color:#000000;isolation:auto;text-transform:none" d="m406.6 373.9-36.01 36 2.828 2.83 36.01-36z" fill="#4d4d4d"/>
     <path style="color-rendering:auto;text-decoration-color:#000000;color:#000000;font-variant-numeric:normal;shape-rendering:auto;font-variant-ligatures:none;text-decoration-line:none;font-variant-position:normal;mix-blend-mode:normal;font-feature-settings:normal;shape-padding:0;font-variant-alternates:normal;text-indent:0;font-variant-caps:normal;image-rendering:auto;white-space:normal;text-decoration-style:solid;solid-color:#000000;isolation:auto;text-transform:none" d="m373.4 373.9-2.828 2.83 36.01 36 2.828-2.83z" fill="#4d4d4d"/>
    </g>
   </g>
  </g>
 </g>
</svg>
