<?xml version="1.0" encoding="UTF-8" standalone="no"?>
<svg xmlns="http://www.w3.org/2000/svg" height="100" width="100" version="1.1" y="0px" x="0px" viewBox="0 0 100 100">
 <rect opacity="0" style="color-rendering:auto;color:#000000;isolation:auto;mix-blend-mode:normal;paint-order:stroke fill markers;shape-rendering:auto;solid-color:#000000;image-rendering:auto" height="96" width="96" y="2" x="2" stroke-width="2"/>
 <rect opacity="0" style="color:#000000" transform="rotate(90)" height="96" width="96" y="-98" x="2" stroke-width="3.999"/>
 <g transform="translate(0 -952.4)">
  <path style="color:#000000;text-indent:0;text-transform:none" d="m12 973.4c-3.289 0-6 2.711-6 6v46c0 3.289 2.711 6 6 6h76c3.289 0 6-2.711 6-6v-46c0-3.289-2.711-6-6-6zm1.125 4h73.75l-35.06 31.38c-0.8513 0.762-2.774 0.762-3.625 0zm-3.12 2.5 24.88 22.1-24.88 23zm80 0v44.81l-24.88-23zm-52.12 24.97 7.625 6.813c2.544 2.277 6.456 2.277 9 0l7.625-6.813 24.81 22.47h-73.88z" overflow="visible" fill="#4d4d4d"/>
 </g>
</svg>
