<?xml version="1.0" encoding="UTF-8" standalone="no"?>
<svg xmlns="http://www.w3.org/2000/svg" height="96" viewBox="0 0 96 96.000001" width="96" version="1.1">
 <g transform="translate(67.86 -78.51)">
  <g transform="matrix(0 -1 -1 0 373.5 516.5)">
   <g transform="matrix(-.9996 0 0 1 575.9 -611)">
    <g transform="matrix(-1 0 0 1 576 611)">
     <rect opacity="0" style="color-rendering:auto;color:#000000;isolation:auto;mix-blend-mode:normal;paint-order:stroke fill markers;shape-rendering:auto;solid-color:#000000;image-rendering:auto" transform="matrix(0,-1,-1,0,0,0)" height="96.04" width="96" y="-438" x="-441.4" stroke-width="2"/>
     <rect opacity="0" style="color:#000000" transform="scale(-1,1)" height="96" width="96.04" y="345.4" x="-438" stroke-width="4"/>
     <rect style="color:#000000" transform="scale(-1,1)" height="96" width="96.04" y="345.4" x="-438" fill="none"/>
     <path style="color:#000000" d="m435.6 393.3l-0.002-0.002 0.002-0.002zm-0.002-0.002c-0.00055 0.003-0.00098 0.007-0.006 0.009-0.00099 0.007-0.005 0.01-0.009 0.0112-0.003 0.007-0.0105 0.007-0.0133 0.009-0.003 0.007-0.002 0.007-0.006 0.0112-12.39 5.771-25.02 10.23-32.76 12.77-0.007 8.342-0.3232 22.08-2.023 35.18-0.004 0.00098-0.005 0.002-0.009-0.002-0.007 0.00098-0.0124-0.005-0.0156-0.01-0.007-0.00098-0.0111-0.003-0.0134-0.006-0.007-0.00098-0.005-0.002-0.009-0.004-9.32-9.996-17.47-20.63-22.27-27.2-7.938 2.572-21.11 6.518-34.1 8.948-0.002-0.003-0.003-0.005 0-0.0112-0.003-0.007 0.003-0.0105 0.004-0.0134-0.00098-0.007 0.00098-0.0134 0.002-0.0156-0.00098-0.007-0.00098-0.007 0-0.0112 6.631-11.95 14.22-22.98 18.99-29.58-4.9-6.752-12.72-18.05-19.05-29.65 0.002-0.003 0.007-0.003 0.0134-0.002 0.004-0.004 0.0122-0.002 0.0156-0.002 0.007-0.003 0.0112-0.002 0.0134-0.002 0.007-0.003 0.007-0.006 0.0134-0.006 13.42 2.611 26.26 6.424 34.01 8.919 4.91-6.745 13.25-17.67 22.32-27.27 0.003 0.00098 0.005 0.002 0.006 0.009 0.007 0.003 0.007 0.0105 0.009 0.0134 0.004 0.004 0.005 0.0137 0.006 0.0156 0.004 0.004 0.01 0.003 0.0112 0.009 1.662 13.56 2.002 26.95 2.023 35.09 7.935 2.583 20.91 7.132 32.84 12.79zm-11.74 0.002c-8.528-3.523-16.86-6.617-22.51-8.456l-3.144-1.022-0.01-3.304c-0.0153-5.826-0.3921-14.65-1.114-23.99-5.992 7.024-11.51 13.99-15.01 18.8l-1.945 2.671-3.142-1.014c-5.547-1.785-14.06-4.154-23.17-6.353 4.83 7.864 9.755 15.26 13.24 20.07l1.939 2.675-1.934 2.68c-3.411 4.719-8.294 12.08-13.2 20.05 8.975-2.162 17.54-4.557 23.19-6.389l3.14-1.018 1.95 2.666c3.437 4.703 8.93 11.62 15 18.75 0.7165-9.199 1.085-18.08 1.09-24.02l0.002-3.304 3.14-1.029c5.535-1.814 13.81-4.899 22.47-8.469z" fill="#4d4d4d"/>
    </g>
   </g>
  </g>
 </g>
</svg>
