<?xml version="1.0" encoding="UTF-8" standalone="no"?>
<svg xmlns="http://www.w3.org/2000/svg" height="100" width="100" version="1.1" y="0px" x="0px" viewBox="0 0 100 100">
 <rect opacity="0" style="color-rendering:auto;color:#000000;isolation:auto;mix-blend-mode:normal;paint-order:stroke fill markers;shape-rendering:auto;solid-color:#000000;image-rendering:auto" height="96" width="96" y="2" x="2" stroke-width="2"/>
 <rect opacity="0" style="color:#000000" transform="rotate(90)" height="96" width="96" y="-98" x="2" stroke-width="3.999"/>
 <g transform="translate(1.011e-7 -952.4)">
  <path style="color:#000000;text-indent:0;text-transform:none" d="m12.72 961.4c-1.617 0.007-3.026 0.7543-4.062 1.781-1.021 1.391-1.685 2.773-1.656 4.125 0.8159 23.91 8.375 43.04 22.03 56.12 13.67 13.1 33.34 20.01 57.91 19.97 1.58-0.2191 3.115-0.901 4.094-1.844 1.038-1.023 1.837-2.404 1.844-4.031 0.0413-5.696 0.0846-11.4 0.125-17.09-0.0463-1.593-0.8306-2.914-1.875-3.906-1.044-0.9917-2.44-1.732-4.062-1.719-5.356 0.021-12.51-1.848-18.28-3.281-0.655-0.1644-1.389 0.031-1.875 0.4999l-10.12 9.812c-12.32-7.326-17.7-12.55-25.22-24.5l10.06-9.75c0.5109-0.4977 0.7224-1.282 0.5312-1.969-1.539-5.761-4.187-13.43-3.75-19.12-0.083-1.542-1.409-2.929-2.406-3.687-1.053-0.7882-2.451-1.449-4.094-1.406h-19.19zm0 4h19.28c0.4474-0.0168 1.051 0.2189 1.594 0.625 0.4837 0.3621 0.7894 0.8043 0.875 0.9375-0.2802 6.477 2.035 13.36 3.5 18.56l-10.37 10.09c-0.6553 0.6292-0.7927 1.729-0.3125 2.5 8.506 13.79 14.61 19.7 28.78 27.97 0.7466 0.4416 1.782 0.3206 2.406-0.2813l10.44-10.16c5.539 1.393 12.28 3.18 18.19 3.156 0.3147 0 0.8637 0.1973 1.281 0.5938 0.4175 0.3964 0.619 0.9186 0.625 1.125l-0.125 16.97c-0.001 0.257-0.1954 0.7957-0.625 1.219-0.4296 0.423-1.048 0.6648-1.437 0.6874-23.76 0.017-42.22-6.63-55-18.87-12.8-12.27-20.04-30.27-20.81-53.47 0.0184-0.4607 0.3339-0.7543 0.5-1.031 0.3306-0.3735 0.8358-0.4692 1.219-0.625z" overflow="visible" fill="#4d4d4d"/>
 </g>
</svg>
