<?xml version="1.0" encoding="UTF-8" standalone="no"?>
<svg xmlns="http://www.w3.org/2000/svg" height="96" viewBox="0 0 96 96.000001" width="96" version="1.1">
 <g transform="translate(67.86 -78.51)">
  <rect opacity="0" style="color-rendering:auto;color:#000000;isolation:auto;mix-blend-mode:normal;paint-order:stroke fill markers;shape-rendering:auto;solid-color:#000000;image-rendering:auto" height="96" width="96" y="78.51" x="-67.86" stroke-width="2"/>
  <rect opacity="0" style="color:#000000" transform="rotate(90)" height="96" width="96" y="-28.14" x="78.51" stroke-width="3.999"/>
  <rect style="color:#000000" transform="rotate(90)" height="96" width="96" y="-28.14" x="78.51" fill="none"/>
  <path style="color:#000000" d="m91.87 4c-46.25 15.59-87.85 37.7-87.85 37.7l33.5 16.74 16.75 33.49 0.0332 0.0332 0.04 0.04s23.2-43.82 37.64-87.98c-0.0049-0.0048-0.01198-0.00969-0.02539-0.00391-0.0056-0.0056-0.01875-0.00241-0.02734-0.00391-0.0056-0.0056-0.02497 0.0000057-0.03125-0.00391 0-0.017-0.01-0.015-0.02-0.02zm-6.408 6.537c-10.79 30.84-24.73 59.93-31.1 72.62l-13.86-27.7-27.62-13.8c12.56-6.31 40.92-19.85 72.58-31.12z" transform="translate(-67.86 78.51)" fill="#4d4d4d"/>
  <path style="color:#000000" d="m-29.86 136.5l2 2c7.8-7.8 29.2-33.2 37-41-7.8 7.8-33.2 29.2-41 37l2 2z" fill="#4d4d4d"/>
 </g>
</svg>
