<?xml version="1.0" encoding="UTF-8" standalone="no"?>
<svg xmlns="http://www.w3.org/2000/svg" data-name="Layer 1" height="96" width="96" version="1.1" y="0px" x="0px" viewBox="0 0 96 96">
 <title>Artboard 77</title>
 <rect opacity="0" style="color-rendering:auto;color:#000000;isolation:auto;mix-blend-mode:normal;paint-order:stroke fill markers;shape-rendering:auto;solid-color:#000000;image-rendering:auto" height="96" width="96" y="-.000004090" x="-7.105e-15" stroke-width="2"/>
 <rect opacity="0" style="color:#000000" transform="rotate(90)" height="96" width="96" y="-96" x=".000004090" stroke-width="3.999"/>
 <path fill="#4d4d4d" d="m82.36 78.54a45.88 45.88 0 0 0 0.07 -61 2.46 2.46 0 0 0 -0.29 -0.34 45.93 45.93 0 0 0 -68.27 0 2 2 0 0 0 -0.3 0.34 45.88 45.88 0 0 0 0 60.92 2.46 2.46 0 0 0 0.29 0.34 45.94 45.94 0 0 0 68.28 0 2.75 2.75 0 0 0 0.22 -0.26zm-76.31-28.54h17.95a81 81 0 0 0 3 20.59 56.67 56.67 0 0 0 -11.3 4.22 41.76 41.76 0 0 1 -9.65 -24.81zm9.65-28.81a56.67 56.67 0 0 0 11.3 4.22 81 81 0 0 0 -3 20.59h-18a41.76 41.76 0 0 1 9.7 -24.81zm74.3 24.81h-18a81 81 0 0 0 -3 -20.59 56.67 56.67 0 0 0 11.3 -4.22 41.76 41.76 0 0 1 9.7 24.81zm-44-22a79.23 79.23 0 0 1 -13.76 -1.46c3.3-8.93 8.24-15.11 13.76-16.32zm-15 2.33a83.74 83.74 0 0 0 15 1.67v18h-18a76.27 76.27 0 0 1 3 -19.67zm15 23.67v18a83.74 83.74 0 0 0 -15 1.64 76.27 76.27 0 0 1 -3 -19.64zm0 22v17.78c-5.52-1.21-10.46-7.39-13.76-16.29a79.23 79.23 0 0 1 13.76 -1.49zm4 0a79.23 79.23 0 0 1 13.76 1.46c-3.3 8.9-8.24 15.08-13.76 16.29zm15-2.36a83.74 83.74 0 0 0 -15 -1.64v-18h18a76.27 76.27 0 0 1 -3 19.67zm-15-23.64v-18a83.74 83.74 0 0 0 15 -1.64 76.27 76.27 0 0 1 3 19.64zm0-22v-17.78c5.52 1.21 10.46 7.39 13.76 16.29a79.23 79.23 0 0 1 -13.76 1.49zm17.76-2.38a39.57 39.57 0 0 0 -8.05 -13.95 42 42 0 0 1 17.77 10.45 54.2 54.2 0 0 1 -9.72 3.47zm-39.52 0a54.2 54.2 0 0 1 -9.72 -3.47 42 42 0 0 1 17.77 -10.48 39.57 39.57 0 0 0 -8.05 13.92zm0 52.82a39.57 39.57 0 0 0 8.05 13.92 42 42 0 0 1 -17.77 -10.48 54.2 54.2 0 0 1 9.72 -3.47zm39.52 0a54.2 54.2 0 0 1 9.72 3.47 42 42 0 0 1 -17.77 10.42 39.57 39.57 0 0 0 8.05 -13.92zm1.24-3.85a81 81 0 0 0 3 -20.59h18a41.76 41.76 0 0 1 -9.7 24.81 56.67 56.67 0 0 0 -11.3 -4.22z"/>
</svg>
