<?xml version="1.0" encoding="UTF-8" standalone="no"?>
<!-- Created with Inkscape (http://www.inkscape.org/) -->

<svg
   xmlns:dc="http://purl.org/dc/elements/1.1/"
   xmlns:cc="http://creativecommons.org/ns#"
   xmlns:rdf="http://www.w3.org/1999/02/22-rdf-syntax-ns#"
   xmlns:svg="http://www.w3.org/2000/svg"
   xmlns="http://www.w3.org/2000/svg"
   xmlns:sodipodi="http://sodipodi.sourceforge.net/DTD/sodipodi-0.dtd"
   xmlns:inkscape="http://www.inkscape.org/namespaces/inkscape"
   width="96"
   height="96"
   id="svg4874"
   version="1.1"
   inkscape:version="0.91 r13725"
   viewBox="0 0 96 96.000001"
   sodipodi:docname="favorite-new.svg">
  <defs
     id="defs4876" />
  <sodipodi:namedview
     id="base"
     pagecolor="#ffffff"
     bordercolor="#666666"
     borderopacity="1.0"
     inkscape:pageopacity="0.0"
     inkscape:pageshadow="2"
     inkscape:zoom="6.2092806"
     inkscape:cx="0.76817265"
     inkscape:cy="61.44092"
     inkscape:document-units="px"
     inkscape:current-layer="g4780"
     showgrid="true"
     showborder="true"
     fit-margin-top="0"
     fit-margin-left="0"
     fit-margin-right="0"
     fit-margin-bottom="0"
     inkscape:snap-bbox="true"
     inkscape:bbox-paths="true"
     inkscape:bbox-nodes="true"
     inkscape:snap-bbox-edge-midpoints="true"
     inkscape:snap-bbox-midpoints="true"
     inkscape:object-paths="true"
     inkscape:snap-intersection-paths="true"
     inkscape:object-nodes="true"
     inkscape:snap-smooth-nodes="true"
     inkscape:snap-midpoints="true"
     inkscape:snap-object-midpoints="true"
     inkscape:snap-center="true"
     showguides="true"
     inkscape:guide-bbox="true"
     inkscape:snap-global="true"
     inkscape:window-width="1680"
     inkscape:window-height="974"
     inkscape:window-x="0"
     inkscape:window-y="24"
     inkscape:window-maximized="1">
    <inkscape:grid
       type="xygrid"
       id="grid5451"
       empspacing="8" />
    <sodipodi:guide
       orientation="1,0"
       position="8,-8.0000001"
       id="guide4063" />
    <sodipodi:guide
       orientation="1,0"
       position="4,-8.0000001"
       id="guide4065" />
    <sodipodi:guide
       orientation="0,1"
       position="-8,88.000001"
       id="guide4067" />
    <sodipodi:guide
       orientation="0,1"
       position="-8,92.000001"
       id="guide4069" />
    <sodipodi:guide
       orientation="0,1"
       position="104,4"
       id="guide4071" />
    <sodipodi:guide
       orientation="0,1"
       position="-5,8.0000001"
       id="guide4073" />
    <sodipodi:guide
       orientation="1,0"
       position="88,-8.0000001"
       id="guide4077" />
    <sodipodi:guide
       orientation="0,1"
       position="-8,84.000001"
       id="guide4074" />
    <sodipodi:guide
       orientation="1,0"
       position="12,-8.0000001"
       id="guide4076" />
    <sodipodi:guide
       orientation="1,0"
       position="84,-8.0000001"
       id="guide4080" />
    <sodipodi:guide
       position="48,-8.0000001"
       orientation="1,0"
       id="guide4170" />
    <sodipodi:guide
       position="-8,48"
       orientation="0,1"
       id="guide4172" />
    <sodipodi:guide
       position="92,-8.0000001"
       orientation="1,0"
       id="guide4760" />
  </sodipodi:namedview>
  <metadata
     id="metadata4879">
    <rdf:RDF>
      <cc:Work
         rdf:about="">
        <dc:format>image/svg+xml</dc:format>
        <dc:type
           rdf:resource="http://purl.org/dc/dcmitype/StillImage" />
        <dc:title></dc:title>
      </cc:Work>
    </rdf:RDF>
  </metadata>
  <g
     inkscape:label="Layer 1"
     inkscape:groupmode="layer"
     id="layer1"
     transform="translate(67.857146,-78.50504)">
    <g
       transform="matrix(0,-1,-1,0,373.50506,516.50504)"
       id="g4845"
       style="display:inline">
      <g
         inkscape:export-ydpi="90"
         inkscape:export-xdpi="90"
         inkscape:export-filename="next01.png"
         transform="matrix(-0.9996045,0,0,1,575.94296,-611.00001)"
         id="g4778"
         inkscape:label="Layer 1">
        <g
           transform="matrix(-1,0,0,1,575.99999,611)"
           id="g4780"
           style="display:inline">
          <rect
             style="color:#000000;display:inline;overflow:visible;visibility:visible;fill:none;stroke:none;stroke-width:4;marker:none;enable-background:accumulate"
             id="rect4782"
             width="96.037987"
             height="96"
             x="-438.00244"
             y="345.36221"
             transform="scale(-1,1)" />
          <path
             style="color:#000000;display:inline;overflow:visible;visibility:visible;fill:#ffffff;fill-opacity:1;fill-rule:nonzero;stroke:none;stroke-width:7.5;marker:none;enable-background:accumulate"
             d="m 384.98148,371.3622 1.0004,-3.99998 -40.01574,0 0,3.99998 z"
             id="rect3470"
             inkscape:connector-curvature="0"
             sodipodi:nodetypes="ccccc" />
          <rect
             transform="scale(-1,1)"
             style="color:#000000;display:inline;overflow:visible;visibility:visible;fill:#ffffff;fill-opacity:1;fill-rule:nonzero;stroke:none;stroke-width:7.5;marker:none;enable-background:accumulate"
             id="rect3472"
             width="4.0014911"
             height="40.000053"
             x="-367.97476"
             y="349.36221" />
          <path
             inkscape:connector-curvature="0"
             style="color:#000000;display:inline;overflow:visible;visibility:visible;fill:#ffffff;fill-opacity:1;fill-rule:nonzero;stroke:none;stroke-width:3;marker:none;enable-background:accumulate"
             d="m 429.87217,403.86909 c 0,0 -10e-4,-0.001 -10e-4,-0.001 0,0 10e-4,-10e-4 10e-4,-10e-4 l 0,0.003 z m -10e-4,-0.001 c -3.4e-4,0.002 -7e-4,0.004 -0.004,0.006 -7e-4,0.005 -0.003,0.006 -0.006,0.007 -0.002,0.004 -0.006,0.005 -0.008,0.006 -0.002,0.004 -10e-4,0.005 -0.004,0.007 -7.57639,3.52891 -15.29871,6.25546 -20.02997,7.80588 -0.004,5.10041 -0.1976,13.50139 -1.23722,21.50803 -0.003,7e-4 -0.003,10e-4 -0.006,-0.001 -0.005,6.9e-4 -0.008,-0.003 -0.01,-0.006 -0.005,-7e-4 -0.007,-0.002 -0.008,-0.004 -0.005,-6.9e-4 -0.003,-10e-4 -0.006,-0.003 -5.69885,-6.11218 -10.67899,-12.61165 -13.61628,-16.63055 -4.85374,1.5727 -12.90814,3.98545 -20.84752,5.47133 -0.001,-0.002 -0.002,-0.003 0,-0.007 -0.002,-0.004 0.002,-0.006 0.003,-0.008 -7e-4,-0.005 6.7e-4,-0.008 10e-4,-0.01 -6.9e-4,-0.005 -6.9e-4,-0.005 0,-0.007 4.0545,-7.30694 8.69592,-14.05096 11.61193,-18.08522 -2.99628,-4.12851 -7.77926,-11.03952 -11.64599,-18.12744 0.001,-0.002 0.005,-0.002 0.008,-10e-4 0.003,-0.003 0.008,-0.001 0.01,-0.001 0.004,-0.002 0.007,-10e-4 0.008,-10e-4 0.004,-0.002 0.006,-0.004 0.008,-0.004 8.20504,1.59657 16.05496,3.92808 20.79438,5.45362 3.00218,-4.12436 8.0992,-10.80552 13.64762,-16.67141 0.002,6.9e-4 0.003,10e-4 0.004,0.006 0.004,0.002 0.005,0.006 0.006,0.008 0.003,0.003 0.003,0.008 0.004,0.01 0.003,0.003 0.006,0.002 0.007,0.006 1.01629,8.29358 1.22397,16.47659 1.2371,21.45374 4.85156,1.57961 12.7833,4.36085 20.07766,7.82222 z m -7.17945,0.001 c -5.21419,-2.15404 -10.30743,-4.04597 -13.76072,-5.17031 l -1.92261,-0.62518 -0.006,-2.01991 c -0.009,-3.56222 -0.23977,-8.95944 -0.68129,-14.67058 -3.66375,4.29469 -7.03852,8.55652 -9.17699,11.49429 l -1.18954,1.63309 -1.92124,-0.61973 c -3.39138,-1.09164 -8.59712,-2.53965 -14.16678,-3.88455 2.95316,4.80856 5.96462,9.33271 8.09784,12.27201 l 1.18544,1.63582 -1.18272,1.63854 c -2.08576,2.88561 -5.07118,7.38507 -8.07058,12.26248 5.48789,-1.32193 10.72429,-2.78649 14.1804,-3.90634 l 1.91988,-0.62246 1.19226,1.63037 c 2.10167,2.87558 5.45994,7.10584 9.17427,11.46569 0.43811,-5.62496 0.66351,-11.0538 0.6663,-14.68556 l 0.001,-2.01991 1.91988,-0.62927 c 3.38452,-1.10909 8.44564,-2.99517 13.74028,-5.17849 z"
             id="path4170" />
        </g>
      </g>
    </g>
  </g>
</svg>
