<?xml version="1.0" encoding="UTF-8" standalone="no"?>
<!-- Created with Inkscape (http://www.inkscape.org/) -->

<svg
   xmlns:dc="http://purl.org/dc/elements/1.1/"
   xmlns:cc="http://creativecommons.org/ns#"
   xmlns:rdf="http://www.w3.org/1999/02/22-rdf-syntax-ns#"
   xmlns:svg="http://www.w3.org/2000/svg"
   xmlns="http://www.w3.org/2000/svg"
   xmlns:sodipodi="http://sodipodi.sourceforge.net/DTD/sodipodi-0.dtd"
   xmlns:inkscape="http://www.inkscape.org/namespaces/inkscape"
   width="96"
   height="96"
   id="svg4874"
   version="1.1"
   inkscape:version="0.91 r13725"
   viewBox="0 0 96 96.000001"
   sodipodi:docname="poiConfig.svg">
  <defs
     id="defs4876" />
  <sodipodi:namedview
     id="base"
     pagecolor="#ffffff"
     bordercolor="#666666"
     borderopacity="1.0"
     inkscape:pageopacity="0.0"
     inkscape:pageshadow="2"
     inkscape:zoom="5.7646076"
     inkscape:cx="82.687528"
     inkscape:cy="35.845324"
     inkscape:document-units="px"
     inkscape:current-layer="g4780"
     showgrid="false"
     showborder="true"
     fit-margin-top="0"
     fit-margin-left="0"
     fit-margin-right="0"
     fit-margin-bottom="0"
     inkscape:snap-bbox="true"
     inkscape:bbox-paths="true"
     inkscape:bbox-nodes="true"
     inkscape:snap-bbox-edge-midpoints="true"
     inkscape:snap-bbox-midpoints="true"
     inkscape:object-paths="true"
     inkscape:snap-intersection-paths="true"
     inkscape:object-nodes="true"
     inkscape:snap-smooth-nodes="true"
     inkscape:snap-midpoints="true"
     inkscape:snap-object-midpoints="true"
     inkscape:snap-center="true"
     showguides="false"
     inkscape:guide-bbox="true"
     inkscape:window-width="1680"
     inkscape:window-height="974"
     inkscape:window-x="0"
     inkscape:window-y="24"
     inkscape:window-maximized="1">
    <inkscape:grid
       type="xygrid"
       id="grid5451"
       empspacing="8" />
    <sodipodi:guide
       orientation="1,0"
       position="8,-8.0000001"
       id="guide4063" />
    <sodipodi:guide
       orientation="1,0"
       position="4,-8.0000001"
       id="guide4065" />
    <sodipodi:guide
       orientation="0,1"
       position="-8,88.000001"
       id="guide4067" />
    <sodipodi:guide
       orientation="0,1"
       position="-8,92.000001"
       id="guide4069" />
    <sodipodi:guide
       orientation="0,1"
       position="104,4"
       id="guide4071" />
    <sodipodi:guide
       orientation="0,1"
       position="-5,8.0000001"
       id="guide4073" />
    <sodipodi:guide
       orientation="1,0"
       position="92,-8.0000001"
       id="guide4075" />
    <sodipodi:guide
       orientation="1,0"
       position="88,-8.0000001"
       id="guide4077" />
    <sodipodi:guide
       orientation="0,1"
       position="-8,84.000001"
       id="guide4074" />
    <sodipodi:guide
       orientation="1,0"
       position="12,-8.0000001"
       id="guide4076" />
    <sodipodi:guide
       orientation="0,1"
       position="-5,12"
       id="guide4078" />
    <sodipodi:guide
       orientation="1,0"
       position="84,-9.0000001"
       id="guide4080" />
    <sodipodi:guide
       position="48,-8.0000001"
       orientation="1,0"
       id="guide4170" />
    <sodipodi:guide
       position="-8,48"
       orientation="0,1"
       id="guide4172" />
  </sodipodi:namedview>
  <metadata
     id="metadata4879">
    <rdf:RDF>
      <cc:Work
         rdf:about="">
        <dc:format>image/svg+xml</dc:format>
        <dc:type
           rdf:resource="http://purl.org/dc/dcmitype/StillImage" />
        <dc:title />
      </cc:Work>
    </rdf:RDF>
  </metadata>
  <g
     inkscape:label="Layer 1"
     inkscape:groupmode="layer"
     id="layer1"
     transform="translate(67.857146,-78.50504)">
    <g
       transform="matrix(0,-1,-1,0,373.50506,516.50504)"
       id="g4845"
       style="display:inline">
      <g
         inkscape:export-ydpi="90"
         inkscape:export-xdpi="90"
         inkscape:export-filename="next01.png"
         transform="matrix(-0.9996045,0,0,1,575.94296,-611.00001)"
         id="g4778"
         inkscape:label="Layer 1">
        <g
           transform="matrix(-1,0,0,1,575.99999,611)"
           id="g4780"
           style="display:inline">
          <path
             style="color:#000000;display:inline;overflow:visible;visibility:visible;opacity:1;fill:#191919;fill-opacity:1;fill-rule:nonzero;stroke:none;stroke-width:2.99940658;marker:none;enable-background:accumulate"
             d="m 434.00087,406.61221 a 22.758997,22.749993 0 0 1 -22.75899,22.75001 22.758997,22.749993 0 0 1 -7.93626,-1.44409 22.759,22.749993 0 0 0 1.09249,0.38453 c -12.50395,-4.16624 -36.30903,-12.54166 -54.43048,-21.68874 8.8e-4,-8.4e-4 0.003,-8.4e-4 0.003,-0.002 l -0.003,-0.002 c 18.12145,-9.14708 41.92653,-17.5225 54.43048,-21.68873 a 22.758997,22.749993 0 0 1 6.84377,-1.05956 22.758997,22.749993 0 0 1 22.75899,22.74997 z m -3.50138,0 a 19.257622,19.250002 0 0 0 -19.25761,-19.24998 19.257622,19.250002 0 0 0 -19.25765,19.24998 19.257622,19.250002 0 0 0 19.25765,19.25002 19.257622,19.250002 0 0 0 19.25761,-19.25002 z"
             id="path4176"
             inkscape:connector-curvature="0" />
          <rect
             style="color:#000000;display:inline;overflow:visible;visibility:visible;fill:none;stroke:none;stroke-width:4;marker:none;enable-background:accumulate"
             id="rect4782"
             width="96.037987"
             height="96"
             x="-438.00244"
             y="345.36221"
             transform="scale(-1,1)" />
          <rect
             style="color:#000000;display:inline;overflow:visible;visibility:visible;fill:none;stroke:none;stroke-width:4;marker:none;enable-background:accumulate"
             id="rect4782-9"
             width="47.169224"
             height="47.150566"
             x="-393.25696"
             y="354.67883"
             transform="scale(-1,1)" />
          <path
             inkscape:connector-curvature="0"
             style="font-style:normal;font-variant:normal;font-weight:normal;font-stretch:normal;font-size:15px;line-height:125%;font-family:Ubuntu;-inkscape-font-specification:Ubuntu;text-align:center;letter-spacing:0px;word-spacing:0px;writing-mode:lr-tb;text-anchor:middle;display:inline;fill:#808080;fill-opacity:1;stroke:none"
             d="m 356.95492,366.27175 c -0.0106,-0.008 -0.0174,-0.0199 -0.0279,-0.0278 -0.0124,-0.01 -0.028,-0.015 -0.0403,-0.0249 z"
             id="path4157" />
          <path
             inkscape:connector-curvature="0"
             style="font-style:normal;font-variant:normal;font-weight:normal;font-stretch:normal;font-size:15px;line-height:125%;font-family:Ubuntu;-inkscape-font-specification:Ubuntu;text-align:center;letter-spacing:0px;word-spacing:0px;writing-mode:lr-tb;text-anchor:middle;display:inline;fill:#808080;fill-opacity:1;stroke:none"
             d="m 356.9482,390.2576 -0.0681,0.0528 c 0.0123,-0.01 0.0279,-0.0151 0.0403,-0.0249 0.0105,-0.008 0.0173,-0.0199 0.0279,-0.0278 z"
             id="path4344" />
          <path
             inkscape:connector-curvature="0"
             style="color:#000000;display:inline;overflow:visible;visibility:visible;fill:#191919;fill-opacity:1;fill-rule:nonzero;stroke:none;stroke-width:7.49851656;marker:none;enable-background:accumulate"
             d="m 389.3233,365.74223 -27.47507,27.08241 -0.0691,0.0422 c -0.18999,0.11899 -1.29082,0.77766 -3.16016,1.69697 -1.86935,0.91931 -4.42819,2.05074 -7.29726,2.96034 l -1.35408,0.42976 0.42801,-1.35451 c 0.91016,-2.87043 2.04299,-5.42982 2.96247,-7.2982 0.91948,-1.86838 1.57833,-2.96718 1.69668,-3.15604 l 0.0413,-0.0691 27.09121,-27.46516 6.61206,6.60656 0.52397,0.52473 z m -25.54712,2.68886 -1.96538,0 0,-9.82303 1.96538,0 0,9.82303 z m -2.92792,23.2712 -4.6294,-4.62662 c -0.0872,0.14609 -0.70887,1.19142 -1.53834,2.87689 -0.39818,0.8091 -0.83107,1.78008 -1.26771,2.83947 l 1.71683,1.71615 c 1.05904,-0.43598 2.02949,-0.86831 2.83868,-1.26625 1.68563,-0.82896 2.73232,-1.45159 2.87994,-1.53964 z"
             id="rect3972-1" />
          <rect
             style="color:#000000;display:inline;overflow:visible;visibility:visible;fill:#191919;fill-opacity:1;fill-rule:nonzero;stroke:none;stroke-width:7.5;marker:none;enable-background:accumulate"
             id="rect3974-0"
             width="15.71686"
             height="1.9653834"
             x="-374.32489"
             y="-357.88004"
             transform="matrix(0,-1,-1,0,0,0)" />
          <rect
             style="color:#000000;display:inline;overflow:visible;visibility:visible;fill:#191919;fill-opacity:1;fill-rule:nonzero;stroke:none;stroke-width:7.5;marker:none;enable-background:accumulate"
             id="rect3976-5"
             width="21.610626"
             height="1.9653106"
             x="-380.21872"
             y="-351.98389"
             transform="matrix(0,-1,-1,0,0,0)" />
        </g>
      </g>
    </g>
  </g>
</svg>
