<?xml version="1.0" encoding="UTF-8" standalone="no"?>
<!-- Created with Inkscape (http://www.inkscape.org/) -->

<svg
   xmlns:dc="http://purl.org/dc/elements/1.1/"
   xmlns:cc="http://creativecommons.org/ns#"
   xmlns:rdf="http://www.w3.org/1999/02/22-rdf-syntax-ns#"
   xmlns:svg="http://www.w3.org/2000/svg"
   xmlns="http://www.w3.org/2000/svg"
   xmlns:sodipodi="http://sodipodi.sourceforge.net/DTD/sodipodi-0.dtd"
   xmlns:inkscape="http://www.inkscape.org/namespaces/inkscape"
   width="96"
   height="96"
   id="svg4874"
   version="1.1"
   inkscape:version="0.91 r13725"
   viewBox="0 0 96 96.000001"
   sodipodi:docname="poimap.svg">
  <defs
     id="defs4876" />
  <sodipodi:namedview
     id="base"
     pagecolor="#ffffff"
     bordercolor="#666666"
     borderopacity="1.0"
     inkscape:pageopacity="0.0"
     inkscape:pageshadow="2"
     inkscape:zoom="2.8823038"
     inkscape:cx="-64.464648"
     inkscape:cy="54.894583"
     inkscape:document-units="px"
     inkscape:current-layer="g4780"
     showgrid="false"
     showborder="true"
     fit-margin-top="0"
     fit-margin-left="0"
     fit-margin-right="0"
     fit-margin-bottom="0"
     inkscape:snap-bbox="true"
     inkscape:bbox-paths="true"
     inkscape:bbox-nodes="true"
     inkscape:snap-bbox-edge-midpoints="true"
     inkscape:snap-bbox-midpoints="true"
     inkscape:object-paths="true"
     inkscape:snap-intersection-paths="true"
     inkscape:object-nodes="true"
     inkscape:snap-smooth-nodes="true"
     inkscape:snap-midpoints="true"
     inkscape:snap-object-midpoints="true"
     inkscape:snap-center="true"
     showguides="true"
     inkscape:guide-bbox="true"
     inkscape:window-width="1375"
     inkscape:window-height="876"
     inkscape:window-x="65"
     inkscape:window-y="24"
     inkscape:window-maximized="1">
    <inkscape:grid
       type="xygrid"
       id="grid5451"
       empspacing="8" />
    <sodipodi:guide
       orientation="1,0"
       position="8,-8.0000001"
       id="guide4063" />
    <sodipodi:guide
       orientation="1,0"
       position="4,-8.0000001"
       id="guide4065" />
    <sodipodi:guide
       orientation="0,1"
       position="-8,88.000001"
       id="guide4067" />
    <sodipodi:guide
       orientation="0,1"
       position="-8,92.000001"
       id="guide4069" />
    <sodipodi:guide
       orientation="0,1"
       position="104,4"
       id="guide4071" />
    <sodipodi:guide
       orientation="0,1"
       position="-5,8.0000001"
       id="guide4073" />
    <sodipodi:guide
       orientation="1,0"
       position="92,-8.0000001"
       id="guide4075" />
    <sodipodi:guide
       orientation="1,0"
       position="88,-8.0000001"
       id="guide4077" />
    <sodipodi:guide
       orientation="0,1"
       position="-8,84.000001"
       id="guide4074" />
    <sodipodi:guide
       orientation="1,0"
       position="12,-8.0000001"
       id="guide4076" />
    <sodipodi:guide
       orientation="0,1"
       position="-5,12"
       id="guide4078" />
    <sodipodi:guide
       orientation="1,0"
       position="84,-9.0000001"
       id="guide4080" />
    <sodipodi:guide
       position="48,-8.0000001"
       orientation="1,0"
       id="guide4170" />
    <sodipodi:guide
       position="-8,48"
       orientation="0,1"
       id="guide4172" />
  </sodipodi:namedview>
  <metadata
     id="metadata4879">
    <rdf:RDF>
      <cc:Work
         rdf:about="">
        <dc:format>image/svg+xml</dc:format>
        <dc:type
           rdf:resource="http://purl.org/dc/dcmitype/StillImage" />
        <dc:title />
      </cc:Work>
    </rdf:RDF>
  </metadata>
  <g
     inkscape:label="Layer 1"
     inkscape:groupmode="layer"
     id="layer1"
     transform="translate(67.857146,-78.50504)">
    <g
       transform="matrix(0,-1,-1,0,373.50506,516.50504)"
       id="g4845"
       style="display:inline">
      <g
         inkscape:export-ydpi="90"
         inkscape:export-xdpi="90"
         inkscape:export-filename="next01.png"
         transform="matrix(-0.9996045,0,0,1,575.94296,-611.00001)"
         id="g4778"
         inkscape:label="Layer 1">
        <g
           transform="matrix(-1,0,0,1,575.99999,611)"
           id="g4780"
           style="display:inline">
          <path
             style="fill:none;stroke:#ffffff;stroke-width:2.53988194;stroke-miterlimit:4;stroke-opacity:1"
             d="m 363.25706,419.10291 0,-66.34027 c 0,-3.97046 -1.76417,-4.71192 -3.81607,-3.75585 l -8.06072,3.75585 c -2.0519,0.95607 -3.81608,3.19643 -3.81608,7.1669 l 0,68.29487 c 0,3.97046 1.92229,8.9317 3.81608,7.1669 l 8.06072,-7.51171 c 1.89378,-1.76478 3.81607,-4.80623 3.81607,-8.77669 z"
             id="rect3012"
             inkscape:connector-curvature="0"
             sodipodi:nodetypes="sssssssss" />
          <path
             style="color:#000000;display:inline;overflow:visible;visibility:visible;fill:#ffffff;fill-opacity:1;fill-rule:nonzero;stroke:none;stroke-width:2.99940658;marker:none;enable-background:accumulate"
             d="m 429.99929,410.78123 a 21.922143,21.913468 0 0 1 -21.92215,21.91347 21.922143,21.913468 0 0 1 -7.64443,-1.39099 21.922146,21.913468 0 0 0 1.05231,0.37038 c -12.04415,-4.01305 -34.97393,-12.0805 -52.42904,-20.89121 8.5e-4,-8.4e-4 0.002,-10e-4 0.004,-10e-4 l -0.004,-10e-4 c 17.45511,-8.81072 40.38489,-16.87816 52.42904,-20.8912 a 21.922143,21.913468 0 0 1 6.59212,-1.02062 21.922143,21.913468 0 0 1 21.92215,21.91347 z m -3.37265,0 a 18.549514,18.542175 0 0 0 -18.5495,-18.54216 18.549514,18.542175 0 0 0 -18.54951,18.54216 18.549514,18.542175 0 0 0 18.54951,18.54217 18.549514,18.542175 0 0 0 18.5495,-18.54217 z"
             id="path4176"
             inkscape:connector-curvature="0" />
          <rect
             style="color:#000000;display:inline;overflow:visible;visibility:visible;fill:none;stroke:none;stroke-width:4;marker:none;enable-background:accumulate"
             id="rect4782"
             width="96.037987"
             height="96"
             x="-438.00244"
             y="345.36221"
             transform="scale(-1,1)" />
          <path
             style="color:#000000;display:inline;overflow:visible;visibility:visible;fill:#ffffff;fill-opacity:1;fill-rule:nonzero;stroke:none;stroke-width:2.99940658;marker:none;enable-background:accumulate"
             d="m 399.22855,389.24686 a 11.715851,11.711215 0 0 1 -11.71586,11.71121 11.715851,11.711215 0 0 1 -4.08542,-0.74339 11.715852,11.711215 0 0 0 0.5624,0.19795 c -6.43677,-2.14469 -18.69113,-6.45618 -28.01966,-11.16489 4.7e-4,-4.5e-4 10e-4,-6.1e-4 10e-4,-6.7e-4 l -10e-4,-6.6e-4 c 9.32853,-4.70872 21.58289,-9.02019 28.01966,-11.16489 a 11.715851,11.711215 0 0 1 3.52302,-0.54544 11.715851,11.711215 0 0 1 11.71586,11.71122 z m -1.80244,0 a 9.9134171,9.909495 0 0 0 -9.91342,-9.9095 9.9134171,9.909495 0 0 0 -9.91342,9.9095 9.9134171,9.909495 0 0 0 9.91342,9.90948 9.9134171,9.909495 0 0 0 9.91342,-9.90948 z"
             id="path4176-7-3-5"
             inkscape:connector-curvature="0" />
          <path
             style="color:#000000;display:inline;overflow:visible;visibility:visible;fill:#ffffff;fill-opacity:1;fill-rule:nonzero;stroke:none;stroke-width:2.99940658;marker:none;enable-background:accumulate"
             d="m 408.49072,364.66361 a 15.308121,15.302064 0 0 1 -15.3081,15.30207 15.308121,15.302064 0 0 1 -5.33809,-0.97133 15.308121,15.302064 0 0 0 0.73482,0.25865 c -8.41037,-2.80229 -24.4221,-8.43576 -36.61092,-14.58823 6e-4,-5.9e-4 8.2e-4,-7.7e-4 8.2e-4,-8.2e-4 l -8.2e-4,-8.3e-4 c 12.18882,-6.15248 28.20055,-11.78593 36.61092,-14.58822 a 15.308121,15.302064 0 0 1 4.60327,-0.71268 15.308121,15.302064 0 0 1 15.3081,15.30206 z m -2.35508,0 a 12.953031,12.947907 0 0 0 -12.95302,-12.94789 12.953031,12.947907 0 0 0 -12.95305,12.94789 12.953031,12.947907 0 0 0 12.95305,12.94792 12.953031,12.947907 0 0 0 12.95302,-12.94792 z"
             id="path4176-7-3"
             inkscape:connector-curvature="0" />
        </g>
      </g>
    </g>
  </g>
</svg>
