<?xml version="1.0" encoding="UTF-8" standalone="no"?>
<svg
   xmlns:dc="http://purl.org/dc/elements/1.1/"
   xmlns:cc="http://creativecommons.org/ns#"
   xmlns:rdf="http://www.w3.org/1999/02/22-rdf-syntax-ns#"
   xmlns:svg="http://www.w3.org/2000/svg"
   xmlns="http://www.w3.org/2000/svg"
   xmlns:sodipodi="http://sodipodi.sourceforge.net/DTD/sodipodi-0.dtd"
   xmlns:inkscape="http://www.inkscape.org/namespaces/inkscape"
   version="1.1"
   x="0px"
   y="0px"
   viewBox="-16 -6.667 1024 1280"
   enable-background="new -16 -6.667 1024 1024"
   xml:space="preserve"
   id="svg2"
   inkscape:version="0.91 r13725"
   sodipodi:docname="4.svg"><metadata
     id="metadata168"><rdf:RDF><cc:Work
         rdf:about=""><dc:format>image/svg+xml</dc:format><dc:type
           rdf:resource="http://purl.org/dc/dcmitype/StillImage" /></cc:Work></rdf:RDF></metadata><defs
     id="defs166" /><sodipodi:namedview
     pagecolor="#ffffff"
     bordercolor="#666666"
     borderopacity="1"
     objecttolerance="10"
     gridtolerance="10"
     guidetolerance="10"
     inkscape:pageopacity="0"
     inkscape:pageshadow="2"
     inkscape:window-width="1680"
     inkscape:window-height="974"
     id="namedview164"
     showgrid="false"
     inkscape:zoom="1.0429825"
     inkscape:cx="489.35365"
     inkscape:cy="590.90053"
     inkscape:window-x="0"
     inkscape:window-y="24"
     inkscape:window-maximized="1"
     inkscape:current-layer="svg2" /><path
     display="none"
     d="M497.434,13.739c-183.13,0-331.583,148.452-331.583,331.572c0,183.121,211.313,514.005,331.583,655.859  c120.004-141.875,331.57-472.738,331.57-655.859C829.004,162.191,680.554,13.739,497.434,13.739z M497.434,531.116  c-103.103,0-186.678-83.574-186.678-186.676c0-103.103,83.575-186.677,186.678-186.677c103.092,0,186.676,83.574,186.676,186.677  C684.109,447.542,600.525,531.116,497.434,531.116z"
     id="path4" /><path
     display="none"
     d="M497.432,32.47c-159.948,0-289.608,129.659-289.608,289.6c0,159.939,184.564,448.937,289.608,572.835  C602.246,770.988,787.03,482.009,787.03,322.069C787.03,162.129,657.372,32.47,497.432,32.47z M497.432,484.354  c-90.05,0-163.046-72.996-163.046-163.046c0-90.051,72.996-163.046,163.046-163.046c90.043,0,163.047,72.995,163.047,163.046  C660.479,411.359,587.475,484.354,497.432,484.354z"
     id="path6" /><g
     display="none"
     id="g8"><g
       display="inline"
       id="g10"><path
         d="M649.73,806.5c12.062,5.599,23.674,12.051,34.5,19.789c1.691,1.21,6.279,4.833-1.251-1.004    c1.171,0.908,2.315,1.852,3.458,2.795c2.218,1.83,4.349,3.764,6.44,5.735c3.942,3.715,7.563,7.757,10.896,12.022    c-1.592-2.046-3.184-4.093-4.775-6.14c4.025,5.303,7.466,10.934,10.137,17.038c-1.033-2.476-2.066-4.951-3.1-7.426    c2.263,5.427,3.822,11.014,4.587,16.846c-0.344-2.66-0.687-5.32-1.029-7.98c0.543,4.902,0.521,9.776-0.103,14.669    c0.355-2.568,0.711-5.137,1.066-7.705c-0.655,4.597-1.812,9.055-3.423,13.408c-2.065,5.582,3.056-7.01,1.259-2.989    c-0.489,1.094-1.027,2.165-1.571,3.233c-1.255,2.464-2.693,4.83-4.203,7.145c-0.689,1.059-1.421,2.089-2.157,3.115    c-2.623,3.656,5.631-7.168,1.708-2.266c-1.875,2.344-3.893,4.571-5.964,6.742c-4.179,4.381-8.761,8.366-13.512,12.111    c2.047-1.592,4.093-3.184,6.14-4.776c-14.735,11.439-31.298,20.221-48.469,27.401c2.475-1.033,4.95-2.066,7.426-3.1    c-30.599,12.62-63.078,20.149-95.842,24.399c2.66-0.343,5.32-0.686,7.98-1.028c-42.949,5.413-86.63,5.22-129.52-0.66    c2.568,0.355,5.136,0.711,7.705,1.066c-17.307-2.438-34.452-5.824-51.333-10.361c-7.594-2.041-15.108-4.37-22.544-6.923    c-3.565-1.224-7.099-2.534-10.617-3.888c-1.72-0.662-3.428-1.352-5.135-2.046c9.909,4.03,1.819,0.747-0.398-0.232    c-12.541-5.54-24.639-12.144-35.882-20.002c-1.249-0.872-2.476-1.775-3.7-2.683c4.596,3.527,5.738,4.396,3.426,2.604    c-0.582-0.456-1.161-0.916-1.736-1.38c-2.527-2.023-4.96-4.16-7.334-6.359c-4.203-3.895-8.082-8.132-11.614-12.642    c1.592,2.047,3.184,4.093,4.776,6.14c-4.141-5.401-7.681-11.178-10.38-17.433c1.033,2.476,2.066,4.95,3.099,7.426    c-2.125-5.108-3.626-10.388-4.408-15.868c0.343,2.66,0.686,5.32,1.029,7.98c-0.673-5.276-0.644-10.536,0.047-15.813    c-0.355,2.568-0.711,5.137-1.066,7.705c0.701-4.636,1.893-9.108,3.54-13.497c1.781-4.744-3.211,7.329-1.086,2.692    c0.505-1.102,1.066-2.177,1.625-3.25c1.147-2.2,2.456-4.313,3.806-6.392c0.693-1.067,1.434-2.103,2.174-3.138    c3.084-4.315-4.834,6.158-1.477,1.981c1.684-2.095,3.494-4.085,5.336-6.041c4.257-4.521,8.961-8.607,13.826-12.458    c-2.046,1.592-4.093,3.185-6.139,4.776c11.652-9.034,24.415-16.392,37.727-22.687c14.796-6.997,18.395-27.923,10.688-41.069    c-8.811-15.03-26.3-17.672-41.069-10.688c-27.002,12.769-51.182,30.238-69.305,54.115c-7.418,9.773-12.923,21.167-16.154,33.004    c-3.619,13.257-3.242,25.795-1.337,39.158c2.803,19.657,14.619,37.631,27.634,52.062c14.061,15.59,32.45,27.853,50.977,37.494    c48.756,25.37,104.177,36.381,158.606,40.105c57.182,3.914,116.596-1.41,171.525-18.154    c44.822-13.663,88.925-35.621,117.182-74.132c11.374-15.503,17.783-35.457,17.59-54.672c-0.28-27.855-14.501-53.077-33.92-72.25    c-16.063-15.859-35.979-28.131-56.363-37.591c-7.478-3.471-14.54-5.201-22.765-2.997c-7.654,2.051-14.256,7.118-18.216,13.978    C631.122,778.731,634.882,799.608,649.73,806.5L649.73,806.5z"
         id="path12" /></g></g><path
     display="none"
     d="M497.428,12.434c-132.386,0-239.827,107.318-239.827,239.703c0,113.041,78.399,207.8,183.399,233.076  v447.771l57.512,69.491L554,932.983v-447.71c105-25.179,183.455-120.006,183.455-233.136  C737.455,119.752,629.813,12.434,497.428,12.434z M496,905.256c0,7.669-6.315,13.888-13.983,13.888c-3.83,0-7.365-1.557-9.885-4.066  c-2.51-2.52-4.132-5.992-4.132-9.821V490.054c9,1.111,18,1.716,28,1.776V905.256z"
     id="path14" /><g
     display="none"
     id="g16"><g
       display="inline"
       id="g18"><path
         fill="#000000"
         d="M553.035,134.043c-8.298-3.375,0.823,0.515,2.906,1.602c2.91,1.518,5.721,3.222,8.479,4.999    c1.455,0.938,2.878,1.926,4.293,2.925c0.577,0.411,1.15,0.827,1.722,1.247c3.413,2.495-4.499-3.492-1.133-0.862    c2.958,2.311,5.794,4.774,8.563,7.305c5.629,5.143,10.812,10.76,15.653,16.644c0.528,0.646,1.052,1.297,1.57,1.952    c-4.342-5.44-1.397-1.787-0.503-0.593c1.282,1.71,2.512,3.458,3.728,5.215c2.483,3.589,4.784,7.301,6.979,11.072    c2.023,3.476,3.877,7.048,5.64,10.662c0.995,2.041,1.922,4.114,2.83,6.194c-3.059-7.006,0.159,0.523,0.755,2.108    c3.334,8.864,5.738,18.058,7.384,27.378c0.165,0.958,0.319,1.917,0.466,2.878c0.812,5.185-0.616-5.398-0.006-0.157    c0.287,2.464,0.476,4.939,0.639,7.415c0.335,5.072,0.33,10.16,0.146,15.237c-0.096,2.608-0.3,5.21-0.529,7.809    c-0.1,1.054-0.209,2.106-0.33,3.158c-0.604,5.502,0.772-4.93-0.068,0.591c-0.833,5.471-2.044,10.877-3.441,16.229    c-3.1,11.871,3.846,24.372,15.765,27.646c11.718,3.219,24.552-3.916,27.646-15.764c11.796-45.173,5.384-92.358-17.417-133.018    c-17.896-31.914-45.767-59.421-79.853-73.283c-11.39-4.633-24.688,4.996-27.646,15.764    C533.729,119.287,541.698,129.433,553.035,134.043L553.035,134.043z"
         id="path20" /></g></g><g
     display="none"
     id="g22"><g
       display="inline"
       id="g24"><path
         d="M813.137,506.873c-0.031,16.244-1.129,32.448-3.313,48.545c0.444-3.21,0.889-6.421,1.333-9.631    c-4.17,29.863-12.101,59.059-23.636,86.919c1.233-2.95,2.466-5.899,3.699-8.849c-11.718,28-26.965,54.374-45.35,78.524    c1.938-2.543,3.875-5.086,5.813-7.628c-18.615,24.267-40.244,46.054-64.372,64.85c2.559-1.99,5.116-3.98,7.675-5.971    c-24.707,19.1-51.793,34.893-80.602,46.949c3.095-1.291,6.188-2.583,9.283-3.874c-28.71,11.888-58.837,19.942-89.643,24    c3.325-0.429,6.65-0.857,9.976-1.286c-31.331,4.002-63.066,3.882-94.365-0.364c3.21,0.444,6.421,0.889,9.631,1.333    c-29.863-4.17-59.059-12.101-86.919-23.636c2.95,1.233,5.899,2.467,8.849,3.699c-28.001-11.718-54.374-26.964-78.525-45.35    c2.542,1.938,5.085,3.875,7.628,5.813c-24.267-18.616-46.055-40.244-64.85-64.372c1.99,2.558,3.98,5.115,5.97,7.674    c-19.1-24.707-34.893-51.792-46.949-80.601c1.292,3.094,2.583,6.188,3.874,9.282c-11.887-28.709-19.943-58.836-24-89.643    c0.429,3.325,0.857,6.65,1.286,9.976c-4.002-31.331-3.882-63.066,0.364-94.365c-0.444,3.21-0.889,6.42-1.333,9.631    c4.17-29.863,12.1-59.059,23.636-86.918c-1.233,2.949-2.466,5.899-3.699,8.849c11.718-28.001,26.964-54.374,45.35-78.525    c-1.938,2.542-3.875,5.085-5.813,7.628c18.616-24.267,40.244-46.055,64.372-64.85c-2.558,1.99-5.116,3.98-7.674,5.97    c24.708-19.1,51.792-34.893,80.602-46.95c-3.094,1.292-6.188,2.583-9.283,3.874c28.709-11.887,58.836-19.943,89.643-24    c-3.325,0.429-6.651,0.857-9.976,1.286c31.331-4.002,63.066-3.882,94.366,0.364c-3.211-0.444-6.421-0.889-9.632-1.333    c29.864,4.17,59.06,12.101,86.919,23.636c-2.949-1.233-5.898-2.466-8.849-3.7c28.001,11.718,54.374,26.965,78.524,45.351    c-2.542-1.938-5.085-3.875-7.628-5.813c24.267,18.616,46.055,40.245,64.85,64.373c-1.99-2.559-3.979-5.116-5.97-7.675    c19.1,24.708,34.893,51.792,46.949,80.602c-1.291-3.094-2.583-6.188-3.874-9.283c11.887,28.709,19.942,58.836,24,89.643    c-0.429-3.326-0.857-6.651-1.286-9.976C812.13,476.256,813.107,491.546,813.137,506.873c0.04,20.429,16.679,37.643,37.238,37.779    c20.296,0.134,37.819-16.808,37.779-37.238c-0.194-98.984-38.218-194.377-105.365-266.935    c-31.405-33.936-69.859-62.473-111.344-82.861c-45.738-22.478-94.539-35.546-145.304-39.627    c-48.341-3.886-98.356,2.055-144.589,16.605c-23.828,7.499-47.14,17.408-69.17,29.175c-21.877,11.686-41.947,25.964-61.316,41.399    c-72.955,58.141-123.64,145.996-137.965,238.1c-8.015,51.535-6.689,103.356,5.122,154.27    c10.601,45.696,30.303,90.152,56.88,128.791c54.794,79.662,137.841,138.174,232.214,160.451    c97.162,22.936,201.36,7.596,287.613-42.714c83.475-48.688,146.184-128.513,175.479-220.371    c11.903-37.32,17.667-77.146,17.744-116.283c0.04-20.43-16.738-37.643-37.238-37.779    C830.559,469.5,813.177,486.443,813.137,506.873z"
         id="path26" /></g></g><path
     display="none"
     d="M281,507.832c0,22.368-18.132,40.501-40.5,40.501h-200C18.132,548.333,0,530.2,0,507.832v-0.998  c0-22.368,18.132-40.501,40.5-40.501h200c22.368,0,40.5,18.133,40.5,40.501V507.832z"
     id="path28" /><path
     display="none"
     d="M995,507.832c0,22.368-18.133,40.501-40.5,40.501h-200c-22.367,0-40.5-18.133-40.5-40.501v-0.998  c0-22.368,18.133-40.501,40.5-40.501h200c22.367,0,40.5,18.133,40.5,40.501V507.832z"
     id="path30" /><path
     display="none"
     d="M538,964.832c0,22.368-18.132,40.501-40.499,40.501h-1.002c-22.367,0-40.499-18.133-40.499-40.501V764.834  c0-22.368,18.132-40.501,40.499-40.501h1.002c22.367,0,40.499,18.133,40.499,40.501V964.832z"
     id="path32" /><path
     display="none"
     d="M538,250.833c0,22.367-18.132,40.5-40.499,40.5h-1.002c-22.367,0-40.499-18.132-40.499-40.5V50.833  c0-22.367,18.132-40.5,40.499-40.5h1.002c22.367,0,40.499,18.132,40.499,40.5V250.833z"
     id="path34" /><g
     display="none"
     id="g36"><g
       display="inline"
       id="g38"><path
         d="M591.637,506.983c-0.017,2.792-0.115,5.574-0.296,8.36c-0.115,1.766-1.356,11.038-0.276,3.772    c-0.859,5.78-2.256,11.47-3.979,17.05c-0.784,2.542-1.7,5.041-2.659,7.522c-1.739,4.503,2.113-4.841,0.173-0.431    c-0.531,1.207-1.104,2.396-1.675,3.584c-2.466,5.122-5.393,10.012-8.579,14.714c-0.733,1.082-1.502,2.138-2.271,3.194    c3.932-5.401,1.196-1.567,0.3-0.445c-1.627,2.037-3.355,3.991-5.114,5.915c-3.813,4.168-7.99,7.989-12.361,11.561    c-3.717,3.037,4.323-3.263,0.473-0.394c-1.048,0.78-2.121,1.525-3.194,2.271c-2.15,1.492-4.375,2.875-6.62,4.219    c-2.254,1.35-4.575,2.583-6.915,3.775c-1.174,0.599-2.367,1.156-3.561,1.715c-0.8,0.368-1.604,0.727-2.411,1.076    c3.543-1.455,4.177-1.726,1.899-0.809c-4.962,1.982-10.087,3.53-15.271,4.806c-2.629,0.647-5.289,1.154-7.956,1.615    c-1.466,0.253-6.402,0.87,0.576,0c-1.823,0.228-3.654,0.379-5.486,0.521c-5.563,0.428-11.157,0.362-16.721,0    c-1.765-0.115-11.038-1.356-3.772-0.276c-3.127-0.465-6.224-1.112-9.301-1.831c-5.203-1.216-10.292-2.883-15.272-4.807    c-4.503-1.739,4.84,2.113,0.43,0.173c-1.207-0.53-2.396-1.103-3.583-1.675c-2.762-1.33-5.447-2.815-8.094-4.359    c-2.261-1.319-4.454-2.752-6.621-4.22c-1.082-0.732-2.138-1.502-3.194-2.271c5.401,3.932,1.567,1.196,0.445,0.301    c-4.414-3.525-8.506-7.439-12.362-11.562c-1.781-1.904-3.465-3.896-5.114-5.915c-3.037-3.717,3.263,4.323,0.394,0.473    c-0.781-1.047-1.526-2.12-2.271-3.193c-3.242-4.67-6.057-9.625-8.579-14.715c-0.585-1.182-1.13-2.383-1.675-3.583    c-2.023-4.459,2.097,5.245,0.277,0.69c-0.987-2.471-1.845-4.99-2.659-7.522c-1.788-5.563-3.052-11.284-3.979-17.05    c-0.794-4.939,0.625,5.547,0.063,0.557c-0.154-1.371-0.26-2.746-0.366-4.122c-0.214-2.781-0.28-5.571-0.296-8.36    c-0.016-2.79,0.115-5.578,0.296-8.361c0.09-1.376,0.228-2.75,0.366-4.122c0.097-0.909,0.205-1.817,0.323-2.724    c-0.5,3.52-0.566,4.097-0.198,1.729c0.855-5.321,2.174-10.56,3.763-15.706c0.785-2.542,1.701-5.042,2.659-7.522    c1.739-4.503-2.113,4.84-0.172,0.43c0.708-1.608,1.479-3.188,2.259-4.763c2.329-4.7,5.054-9.195,7.995-13.535    c0.733-1.082,1.502-2.138,2.271-3.194c-3.932,5.401-1.196,1.567-0.3,0.445c1.898-2.377,3.927-4.646,6.004-6.867    c3.562-3.808,7.437-7.313,11.472-10.61c3.717-3.037-4.323,3.264-0.473,0.395c1.047-0.781,2.121-1.526,3.194-2.271    c2.51-1.742,5.115-3.342,7.753-4.88c2.271-1.324,4.607-2.532,6.962-3.699c1.182-0.585,2.383-1.13,3.583-1.675    c4.459-2.022-5.246,2.098-0.691,0.278c5.379-2.149,10.948-3.796,16.584-5.113c2.641-0.617,5.312-1.094,7.989-1.524    c4.939-0.794-5.547,0.625-0.557,0.063c1.371-0.154,2.747-0.26,4.122-0.366c6.023-0.464,12.082-0.357,18.1,0.106    c1.372,0.106,2.74,0.26,4.107,0.414c2.385,0.302,1.813,0.221-1.714-0.245c0.896,0.139,1.791,0.288,2.684,0.448    c3.546,0.612,7.048,1.452,10.519,2.392c3.433,0.93,6.803,2.078,10.133,3.32c0.826,0.313,1.648,0.637,2.468,0.969    c-3.269-1.384-3.822-1.605-1.661-0.665c1.609,0.708,3.188,1.479,4.764,2.26c5.871,2.909,11.435,6.412,16.729,10.265    c-5.705-4.153-0.615-0.439,0.564,0.525c1.347,1.1,2.648,2.251,3.943,3.41c2.591,2.317,5.036,4.79,7.409,7.327    c2.078,2.222,4.03,4.558,5.928,6.934c-4.502-5.637-0.582-0.637,0.317,0.629c1.011,1.421,1.964,2.881,2.909,4.346    c1.897,2.939,3.61,5.994,5.233,9.091c0.815,1.556,1.568,3.143,2.312,4.733c0.368,0.799,0.728,1.603,1.077,2.411    c-1.456-3.544-1.726-4.177-0.809-1.9c2.483,6.216,4.312,12.679,5.681,19.226c0.371,1.773,0.669,3.56,0.957,5.348    c0.353,2.438,0.28,1.798-0.217-1.921c0.108,0.91,0.205,1.822,0.292,2.734C591.484,499.562,591.614,503.274,591.637,506.983    c0.072,12.257,9.971,22.585,22.343,22.667c12.141,0.081,22.739-10.084,22.667-22.343c-0.302-51.063-28.786-99.171-74.188-122.967    c-45.437-23.814-103.104-20.603-144.796,9.744c-20.066,14.605-36.679,33.922-46.463,56.873    c-10.972,25.736-13.989,52.294-9.882,79.923c7.489,50.376,45.923,91.627,93.157,108.021c40.72,14.133,88.931,6.6,123.685-18.696    c36.228-26.369,58.223-67.893,58.488-112.896c0.072-12.258-10.079-22.586-22.343-22.667    C602.053,484.559,591.709,494.726,591.637,506.983z"
         id="path40" /></g></g><path
     display="none"
     d="M497.25,31.113c-157.804,0-285.726,127.922-285.726,285.718S393.613,759.747,497.25,881.986  c103.409-122.254,285.715-407.36,285.715-565.155S655.046,31.113,497.25,31.113z M497.25,476.94  c-88.844,0-160.861-72.016-160.861-160.861c0-88.844,72.017-160.86,160.861-160.86c88.836,0,160.858,72.016,160.858,160.86  C658.108,404.924,586.086,476.94,497.25,476.94z"
     id="path42" /><g
     display="none"
     id="g44"><g
       display="inline"
       id="g46"><path
         d="M680.052,751.166c11.013,0,22.503-0.982,33.449,0.412c-2.568-0.355-5.137-0.711-7.705-1.066    c1.789,0.298,3.521,0.688,5.264,1.195c2.838,0.989,1.673,0.46-3.493-1.589c1.141,0.491,2.216,1.121,3.285,1.748    c6.035,3.538-4.79-4.116-1.268-0.973c1.518,1.354,2.825,2.927,4.074,4.524c-1.592-2.047-3.184-4.093-4.775-6.14    c2.255,3.087,4.05,6.369,5.556,9.88c-1.033-2.476-2.065-4.951-3.099-7.427c2.127,5.307,3.434,10.9,4.952,16.402    c3.01,10.904,6.02,21.81,9.029,32.715c8.497,30.788,16.994,61.576,25.491,92.364c4.668,16.914,9.336,33.827,14.003,50.74    c2.175,7.879,5.166,15.979,6.31,24.107c-0.343-2.66-0.686-5.321-1.029-7.981c0.213,1.978,0.238,3.904-0.012,5.879    c0.355-2.568,0.711-5.137,1.066-7.705c-0.134,0.774-0.298,1.522-0.505,2.281c-1.083,3.979,3.657-7.938,1.799-4.266    c-1.098,2.167-4.131,5.241,2.912-3.556c-0.681,0.851-1.507,1.574-2.335,2.275c2.047-1.592,4.094-3.184,6.14-4.776    c-2.019,1.562-4.195,2.729-6.545,3.712c2.476-1.032,4.95-2.065,7.426-3.099c-4.311,1.653-8.778,2.574-13.342,3.206    c2.66-0.344,5.32-0.687,7.981-1.029c-9.887,1.199-19.886,0.784-29.824,0.784c-19.449,0-38.899,0-58.349,0    c-60.507,0-121.014,0-181.521,0c-61.748,0-123.496,0-185.243,0c-29.905,0-59.81,0-89.714,0c-3.315,0-6.597-0.169-9.89-0.557    c2.568,0.355,5.137,0.711,7.705,1.066c-1.869-0.269-3.708-0.601-5.548-1.02c-2.726-0.619-9.942-3.843,0.089,0.572    c-1.638-0.722-3.162-1.666-4.63-2.682c8.556,5.924,3.95,3.118,1.941,0.733c1.592,2.046,3.184,4.093,4.776,6.14    c-1.088-1.423-1.965-2.896-2.683-4.537c1.033,2.476,2.066,4.951,3.099,7.426c-0.517-1.359-0.887-2.711-1.138-4.145    c0.343,2.66,0.686,5.32,1.029,7.98c-0.267-2.083-0.241-4.101,0.032-6.182c-0.355,2.568-0.711,5.137-1.066,7.705    c0.849-4.951,2.536-9.829,3.87-14.66c3.04-11.016,6.08-22.031,9.121-33.048c8.507-30.824,17.014-61.647,25.521-92.472    c4.996-18.104,9.993-36.208,14.989-54.312c1.223-4.431,2.445-8.86,3.667-13.29c1.573-5.7-3.546,7.779-1.409,2.863    c1.55-3.566,3.363-7.004,5.461-10.277c3.782-5.902-4.112,4.931-1.046,1.361c1.249-1.455,2.679-2.732,4.161-3.941    c-2.046,1.592-4.093,3.185-6.14,4.776c2.185-1.644,4.466-2.952,6.988-4.008c-2.476,1.033-4.951,2.065-7.426,3.099    c2.385-0.884,4.778-1.479,7.291-1.873c-2.66,0.343-5.321,0.687-7.981,1.029c11.692-1.396,23.925-0.37,35.681-0.37    c16.343,0,30.114-13.367,30.223-29.791c0.108-16.261-13.446-30.223-29.791-30.223c-11.757,0-23.989-1.025-35.681,0.37    c-9.79,1.168-18.159,3.046-26.872,8.065c-8.658,4.987-14.098,11.754-19.987,19.518c-4.745,6.255-9.037,15.165-11.088,22.599    c-5.156,18.684-10.313,37.367-15.469,56.051c-13.73,49.75-27.46,99.5-41.19,149.25c-2.502,9.066-2.552,17.856-0.505,27    c3.939,17.6,18.562,28.909,34.387,35.229c9.953,3.975,21.034,4.566,31.674,4.566c12.316,0,24.632,0,36.948,0    c53.684,0,107.367,0,161.051,0c64.849,0,129.698,0,194.547,0c42.932,0,85.862,0,128.794,0c22.48,0,47.242-1.195,63.954-18.287    c13.453-13.759,14.754-32.764,9.885-50.406c-2.173-7.874-4.346-15.748-6.519-23.621C805.5,865.843,790.144,810.2,774.787,754.559    c-1.08-3.913-2.16-7.825-3.239-11.737c-3.355-12.157-9.182-22.369-17.226-31.967c-18.548-22.134-48.028-19.702-73.839-19.702    c-16.343,0-30.113,13.367-30.223,29.791C650.153,737.204,663.707,751.166,680.052,751.166L680.052,751.166z"
         id="path48" /></g></g><path
     display="none"
     d="M627.346,393.362c0,72.16-58.5,130.66-130.649,130.66c-72.16,0-130.649-58.5-130.649-130.66  s58.49-130.65,130.649-130.65C568.846,262.712,627.346,321.202,627.346,393.362z"
     id="path50" /><path
     display="none"
     d="M497.004,11.442c-273.938,0-496.012,222.075-496.012,496.012c0,273.948,222.074,496.012,496.012,496.012  s496.012-222.063,496.012-496.012C993.016,233.517,770.941,11.442,497.004,11.442z M496.696,853.007  c-84.173-99.282-232.074-330.87-232.074-459.03c0-128.17,103.905-232.064,232.074-232.064c128.16,0,232.064,103.894,232.064,232.064  C728.761,522.137,580.691,753.705,496.696,853.007z"
     id="path52" /><g
     display="none"
     id="g54"><g
       display="inline"
       id="g56"><path
         d="M466.762,523.734c-27.496-15.265-54.992-30.529-82.488-45.793c-55.711-30.928-111.423-61.856-167.134-92.784    c-43.763-24.294-87.525-48.589-131.288-72.884c-5.163-2.866-10.326-5.732-15.49-8.599c-3.015,22.899-6.029,45.799-9.044,68.698    c16.464-5.081,32.927-10.162,49.391-15.243c42.459-13.103,84.917-26.207,127.376-39.31    c58.056-17.917,116.111-35.833,174.167-53.75c63.255-19.521,126.509-39.043,189.764-58.564    c58.056-17.917,116.111-35.833,174.168-53.75c42.458-13.104,84.917-26.207,127.376-39.31    c16.463-5.081,32.927-10.162,49.391-15.243c19.526-6.026,31.957-25.622,26.517-45.928c-5.141-19.185-26.385-32.548-45.929-26.517    c-16.463,5.081-32.927,10.162-49.391,15.243c-42.458,13.103-84.917,26.207-127.376,39.31    c-58.056,17.917-116.111,35.833-174.167,53.75c-63.255,19.521-126.51,39.043-189.764,58.564    c-58.056,17.917-116.112,35.833-174.167,53.75c-42.458,13.104-84.917,26.207-127.376,39.31    c-16.464,5.081-32.927,10.162-49.391,15.243c-12.777,3.943-22.868,13.208-26.47,26.321c-4.409,16.048,2.738,34.224,17.425,42.377    c27.496,15.264,54.992,30.528,82.488,45.792c55.711,30.928,111.423,61.856,167.134,92.784    c43.763,24.295,87.525,48.589,131.288,72.884c5.164,2.866,10.327,5.732,15.49,8.599c17.861,9.916,40.881,4.191,51.226-13.726    C490.575,557.488,484.629,533.653,466.762,523.734L466.762,523.734z"
         id="path58" /></g></g><g
     display="none"
     id="g60"><polyline
       display="inline"
       points="447.9,557.529 667.958,953.929 943.13,62.299  "
       id="polyline62" /><g
       display="inline"
       id="g64"><path
         d="M415.552,576.518c15.264,27.496,30.528,54.992,45.792,82.487c30.928,55.712,61.855,111.423,92.783,167.135    c24.295,43.763,48.59,87.525,72.884,131.287c2.866,5.164,5.732,10.327,8.599,15.49c6.3,11.348,19.246,18.436,32.078,18.521    c17.23,0.114,31.468-11.478,36.446-27.607c5.081-16.464,10.161-32.927,15.242-49.391c13.104-42.458,26.207-84.917,39.311-127.376    c17.917-58.055,35.834-116.11,53.751-174.166c19.521-63.255,39.043-126.51,58.564-189.764    c17.917-58.056,35.833-116.111,53.75-174.167c13.104-42.459,26.207-84.917,39.311-127.376    c5.081-16.463,10.162-32.927,15.243-49.391c6.032-19.548-7.054-40.797-26.274-46.077c-20.187-5.546-40.061,6.78-46.077,26.274    c-5.081,16.463-10.161,32.927-15.242,49.391c-13.104,42.458-26.207,84.917-39.311,127.375    c-17.917,58.056-35.834,116.111-53.751,174.167c-19.521,63.254-39.043,126.509-58.564,189.764    c-17.917,58.055-35.833,116.11-53.75,174.166c-13.104,42.459-26.207,84.917-39.311,127.376    c-5.081,16.464-10.162,32.927-15.243,49.391c22.842-3.029,45.683-6.058,68.524-9.087c-15.265-27.496-30.528-54.992-45.793-82.487    c-30.928-55.712-61.855-111.423-92.783-167.135c-24.295-43.763-48.589-87.524-72.883-131.287    c-2.866-5.164-5.733-10.327-8.599-15.49c-9.918-17.866-34.027-23.507-51.336-13.36    C410.979,535.693,405.638,558.659,415.552,576.518L415.552,576.518z"
         id="path66" /></g></g><g
     display="none"
     id="g68"><g
       display="inline"
       id="g70"><path
         d="M145.015,571.629c19.096,43.223,38.192,86.444,57.288,129.667c0.339,0.768,0.678,1.535,1.018,2.303    c-1.033-2.476-2.066-4.95-3.1-7.426c2.438,9.162,6.486,18.056,10.531,26.574c7.647,16.105,18.517,31.226,31.297,43.626    c17.333,16.818,39.897,29.159,63.775,33.283c20.649,3.566,39.999,2.77,60.585-0.93c9.887-1.777,19.655-4.169,29.627-5.458    c-2.66,0.343-5.32,0.686-7.98,1.029c8.631-1.063,17.269-1.184,25.9-0.046c-2.568-0.355-5.137-0.711-7.705-1.066    c8.829,1.256,17.355,3.73,25.639,7.004c4.799,1.896-7.307-3.128-2.484-1.026c1.192,0.521,2.371,1.07,3.549,1.619    c2.494,1.162,4.945,2.416,7.381,3.694c5.967,3.128,11.736,6.626,17.403,10.263c6.147,3.945,12.107,8.178,17.981,12.517    c1.809,1.336,3.6,2.696,5.393,4.053c0.796,0.603,1.59,1.206,2.384,1.81c-8.853-6.729-3.957-3.017-1.971-1.496    c7.699,5.896,15.346,11.859,22.975,17.845c30.164,23.664,60.029,47.712,89.806,71.861c3.941,3.196,7.882,6.395,11.815,9.601    c6.289,5.126,12.5,8.621,20.887,8.677c8.03,0.054,15.904-3.19,21.546-8.904c10.658-10.793,12.474-32.079-0.228-42.433    c-20.71-16.881-41.515-33.647-62.379-50.337c-16.511-13.207-33.069-26.354-49.754-39.341    c-19.589-15.247-39.111-30.923-60.717-43.259c-23.123-13.203-49.29-22.535-76.215-21.902c-19.563,0.459-38.331,6.227-57.6,8.798    c2.661-0.344,5.321-0.687,7.981-1.029c-10.802,1.379-21.619,1.451-32.42,0.007c2.568,0.355,5.136,0.711,7.705,1.066    c-6.73-0.962-13.294-2.499-19.713-4.748c-2.28-0.8-8.458-3.513,1.319,0.675c-1.485-0.636-2.939-1.34-4.388-2.053    c-2.82-1.389-5.539-2.975-8.203-4.64c-1.299-0.813-2.563-1.681-3.822-2.555c-5.595-3.886,5.305,4.19,1.58,1.271    c-2.313-1.812-4.515-3.762-6.664-5.764c-4.338-4.043-8.277-8.503-11.932-13.167c1.592,2.047,3.184,4.094,4.776,6.14    c-7.558-9.805-13.711-20.605-18.478-32.024c1.033,2.476,2.066,4.951,3.1,7.426c-2.816-6.832-4.867-13.824-7.86-20.599    c-3.599-8.146-7.198-16.292-10.797-24.438c-12.477-28.239-24.953-56.479-37.429-84.718c-3.215-7.276-6.43-14.554-9.645-21.83    c-2.972-6.728-11.172-11.886-17.957-13.75c-7.743-2.127-16.184-0.999-23.112,3.062c-6.709,3.934-11.691,10.463-13.75,17.958    C139.632,556.968,141.607,563.916,145.015,571.629L145.015,571.629z"
         id="path72" /></g></g><path
     display="none"
     d="M152.709,73.919c-81.041,0-146.737,65.695-146.737,146.732c0,81.038,93.514,227.464,146.737,290.239  c53.106-62.783,146.73-209.202,146.73-290.239C299.44,139.614,233.747,73.919,152.709,73.919z M152.709,302.877  c-45.626,0-82.612-36.985-82.612-82.611c0-45.626,36.985-82.611,82.612-82.611c45.623,0,82.611,36.985,82.611,82.611  C235.32,265.892,198.332,302.877,152.709,302.877z"
     id="path74" /><path
     display="none"
     d="M709.921,110.236c-154.071,0-278.969,124.897-278.969,278.96c0,154.064,177.782,432.447,278.969,551.792  c100.965-119.362,278.961-397.728,278.961-551.792C988.882,235.134,863.986,110.236,709.921,110.236z M709.921,545.52  c-86.744,0-157.057-70.313-157.057-157.056c0-86.742,70.313-157.057,157.057-157.057c86.734,0,157.056,70.314,157.056,157.057  C866.977,475.207,796.655,545.52,709.921,545.52z"
     id="path76" /><g
     id="g4296"
     transform="translate(9.8741424,115.30795)"><g
       id="g78"><path
         id="path80"
         d="m 922.516,460.332 c 10.1,26.809 1.752,39.001 -40.074,40.001 l -540.25,0 C 320.059,500.333 302,482.54 302,460.407 l 0,-396.298 c 0,-22.133 18.059,-39.776 40.192,-39.776 l 540.25,0 c 35.146,-1 53.515,7.199 40.074,39.925 l -89.055,188.576 89.055,207.498 z"
         inkscape:connector-curvature="0"
         style="fill:#ffffff" /></g><path
       id="path82"
       d="m 274.5,901.619 c 0,13.373 -7.094,24.214 -15.844,24.214 l -36.312,0 c -8.75,0 -15.844,-10.841 -15.844,-24.214 l 0,-853.572 c 0,-13.373 7.094,-24.214 15.844,-24.214 l 36.312,0 c 8.75,0 15.844,10.841 15.844,24.214 l 0,853.572 z"
       stroke-miterlimit="10"
       inkscape:connector-curvature="0"
       style="fill:#ffffff;stroke:#ffffff;stroke-width:3;stroke-miterlimit:10" /><g
       id="g84"><g
         id="g86"><path
           id="path88"
           d="m 316.521,893.166 c 13.691,2.965 27.184,6.744 40.22,11.901 4.905,1.941 -4.583,-1.987 0.16,0.078 1.313,0.572 2.611,1.18 3.908,1.788 2.475,1.16 4.898,2.425 7.298,3.732 2.243,1.223 4.425,2.555 6.576,3.932 1.02,0.652 2.013,1.344 3.006,2.036 3.266,2.276 -4.554,-3.696 0,0.003 1.667,1.354 3.233,2.823 4.75,4.341 1.503,1.505 5.924,7.431 0.891,0.653 1.09,1.467 2.021,3.042 2.877,4.655 0.881,1.66 2.043,5.157 -0.917,-2.397 0.411,1.048 0.709,2.135 0.986,3.224 0.461,1.809 0.755,5.475 -0.217,-2.716 0.098,0.823 0.112,1.653 0.126,2.48 0.012,0.699 -0.04,1.399 -0.09,2.096 -0.242,3.39 1.027,-6.356 0.404,-3.011 -0.26,1.397 -0.694,2.756 -1.173,4.091 -1.159,3.227 2.549,-5.753 1.061,-2.627 -0.432,0.909 -0.939,1.78 -1.452,2.645 -0.398,0.67 -0.838,1.313 -1.278,1.956 -2.024,2.962 3.821,-4.846 1.538,-2.007 -1.067,1.326 -2.243,2.563 -3.44,3.771 -1.279,1.291 -2.65,2.488 -4.038,3.66 -3.021,2.548 4.796,-3.636 1.591,-1.207 -1.064,0.806 -2.162,1.565 -3.263,2.319 -3.583,2.454 -7.374,4.598 -11.221,6.604 -2.094,1.092 -4.23,2.102 -6.376,3.088 -1.115,0.513 -2.243,0.999 -3.37,1.486 7.111,-3.073 1.259,-0.547 -0.306,0.064 -10.972,4.284 -22.357,7.48 -33.824,10.13 -6.143,1.419 -12.338,2.604 -18.551,3.668 -3.245,0.557 -6.501,1.046 -9.76,1.515 -1.131,0.162 -6.862,0.893 -0.686,0.113 -2.262,0.285 -4.529,0.537 -6.795,0.783 -29.862,3.25 -60.146,3.225 -90.036,0.353 -3.418,-0.328 -6.829,-0.721 -10.237,-1.136 -1.033,-0.126 -6.771,-0.905 -0.892,-0.086 -1.642,-0.229 -3.28,-0.479 -4.918,-0.729 -6.837,-1.045 -13.636,-2.328 -20.396,-3.784 -11.665,-2.513 -23.181,-5.758 -34.382,-9.874 -1.667,-0.612 -10.015,-4.063 -3.005,-1.094 -2.232,-0.945 -4.433,-1.964 -6.619,-3.011 -4.347,-2.084 -8.561,-4.438 -12.625,-7.029 -1.706,-1.088 -3.359,-2.257 -4.986,-3.458 6.636,4.899 0.956,0.624 -0.529,-0.702 -1.312,-1.172 -2.545,-2.428 -3.742,-3.717 -0.57,-0.613 -1.107,-1.256 -1.644,-1.898 5.196,6.222 2.3,3.013 1.188,1.385 -0.859,-1.258 -1.6,-2.592 -2.286,-3.95 -2.184,-4.324 2.208,6.537 0.493,0.852 -0.204,-0.676 -0.353,-1.366 -0.501,-2.056 -0.729,-3.39 0.721,6.664 0.376,3.218 -0.237,-2.359 0.784,-8.921 -0.526,-0.527 0.265,-1.698 0.788,-3.347 1.376,-4.956 -2.802,7.668 -0.583,1.656 0.631,-0.32 0.499,-0.813 1.06,-1.586 1.618,-2.357 -4.296,5.942 -2.112,2.799 -0.973,1.49 1.641,-1.884 3.478,-3.59 5.354,-5.234 1.183,-1.037 4.636,-3.651 -1.022,0.693 0.955,-0.733 1.943,-1.423 2.929,-2.113 2.086,-1.462 4.263,-2.791 6.456,-4.085 4.868,-2.873 9.99,-5.302 15.172,-7.547 -6.142,2.66 -1.129,0.498 0.115,0.01 1.477,-0.58 2.967,-1.123 4.457,-1.666 3.102,-1.132 6.243,-2.153 9.392,-3.145 6.767,-2.129 13.645,-3.892 20.555,-5.481 11.959,-2.752 18.999,-16.029 15.91,-27.557 -3.26,-12.166 -15.608,-18.66 -27.557,-15.91 -27.483,6.325 -54.397,16.039 -76.658,33.693 -16.648,13.202 -27.087,35.832 -20.141,56.856 6.437,19.482 22.954,33.027 40.527,42.392 21.557,11.487 45.653,18.234 69.556,22.671 58.729,10.902 121.278,10.208 179.429,-3.846 36.862,-8.909 92.217,-28.97 94.17,-74.456 0.964,-22.461 -15.747,-39.932 -32.979,-51.602 -20.474,-13.865 -45.875,-21.363 -69.803,-26.544 -11.988,-2.596 -24.27,3.476 -27.646,15.765 -3.115,11.338 3.787,25.052 15.764,27.645 l 0,0 z"
           inkscape:connector-curvature="0"
           style="fill:#ffffff" /></g></g></g><path
     display="none"
     stroke="#000000"
     stroke-width="3"
     stroke-miterlimit="10"
     d="M887.838,763.902  c-164.5,164.499-449.62,146.742-636.424-40.063C64.601,537.028,46.845,251.91,211.344,87.411l21.313,21.312  c-44.785,63.211,50.712,244.466,220.061,413.813c169.341,169.34,350.595,264.836,413.805,220.052L887.838,763.902z"
     id="path90" /><g
     display="none"
     id="g92"><g
       display="inline"
       id="g94"><path
         d="M739.75,436.833c2.497,3.091,4.981,6.192,7.453,9.303c1.226,1.542,2.443,3.091,3.661,4.64    c0.39,0.495,4.398,5.652,1.229,1.567c5.107,6.584,10.127,13.236,15.086,19.932c9.142,12.341,17.99,24.899,26.562,37.642    c15.493,23.034,29.938,46.801,42.844,71.383c5.688,10.836,11.012,21.864,15.938,33.067c0.732,1.666,4.438,10.532,1.449,3.31    c1.025,2.478,2.014,4.97,2.989,7.467c2.025,5.188,3.911,10.429,5.688,15.705c3.118,9.257,5.762,18.676,7.828,28.223    c0.899,4.153,1.641,8.339,2.263,12.542c0.256,1.728,0.729,5.892-0.237-1.959c0.121,0.987,0.225,1.978,0.327,2.968    c0.233,2.244,0.394,4.495,0.52,6.747c0.204,3.654,0.216,7.316,0.082,10.974c-0.063,1.734-0.192,3.466-0.347,5.194    c-0.075,0.843-0.173,1.683-0.271,2.523c-0.419,3.585,1.029-6.662,0.202-1.688c-0.52,3.122-1.271,6.201-2.188,9.229    c-0.439,1.451-0.955,2.878-1.497,4.293c-1.247,3.254,2.472-5.74,1.07-2.569c-0.395,0.894-0.829,1.769-1.271,2.64    c-1.297,2.565-2.847,4.995-4.548,7.311c5.195-7.069,1.758-2.34,0.319-0.747c-1.032,1.144-2.143,2.216-3.278,3.255    c-1.596,1.459-6.006,4.732,1.252-0.813c-0.992,0.758-2.025,1.459-3.07,2.142c-2.305,1.504-4.753,2.777-7.257,3.911    c-3.058,1.384,6.301-2.571,3.173-1.319c-0.61,0.244-1.229,0.469-1.846,0.693c-1.258,0.457-2.536,0.854-3.818,1.231    c-2.895,0.853-5.855,1.47-8.831,1.964c-5.936,0.985,5.796-0.625,0.922-0.108c-1.499,0.159-3.003,0.264-4.507,0.352    c-3.422,0.201-6.854,0.193-10.279,0.082c-3.371-0.109-6.735-0.385-10.088-0.739c-0.871-0.092-1.74-0.198-2.609-0.305    c-3.791-0.465,6.056,0.868,2.246,0.318c-2.114-0.306-4.221-0.666-6.323-1.046c-8.104-1.464-16.102-3.491-24-5.811    c-8.812-2.586-17.479-5.647-26.04-8.966c-2.185-0.847-4.358-1.723-6.528-2.608c-1.388-0.566-5.524-2.322,0.9,0.385    c-1.114-0.47-2.225-0.948-3.335-1.428c-4.951-2.134-9.855-4.376-14.731-6.677c-20.733-9.779-40.791-20.969-60.359-32.896    c-22.264-13.57-43.832-28.268-64.875-43.654c-5.387-3.939-10.728-7.939-16.041-11.976c4.578,3.477-0.024-0.031-0.801-0.628    c-1.351-1.038-2.696-2.082-4.043-3.126c-3.167-2.458-6.316-4.938-9.459-7.429c-11.517-9.124-22.846-18.483-34.033-28.008    c-47.545-40.478-92.243-84.361-133.935-130.833c-10.074-11.229-19.938-22.646-29.621-34.213    c-4.524-5.405-8.992-10.856-13.424-16.336c-2.185-2.701-4.352-5.416-6.513-8.136c-1.072-1.35-2.139-2.705-3.206-4.059    c-0.693-0.879-5.414-6.95-1.686-2.145c-16.605-21.402-32.429-43.418-47.302-66.06c-13.236-20.149-25.635-40.863-36.875-62.193    c-5.033-9.551-9.783-19.25-14.24-29.083c-1.015-2.239-2.003-4.489-2.982-6.744c-0.482-1.109-0.955-2.223-1.427-3.335    c-1.802-4.244,2.231,5.397,0.489,1.161c-1.906-4.633-3.707-9.308-5.431-14.012c-5.803-15.839-10.499-32.177-13-48.88    c-0.268-1.791-0.751-5.673,0.29,2.454c-0.111-0.869-0.208-1.739-0.305-2.609c-0.189-1.702-0.336-3.408-0.466-5.115    c-0.269-3.524-0.371-7.06-0.343-10.594c0.024-3.061,0.206-6.119,0.504-9.165c0.583-5.956-0.87,5.385-0.137,0.715    c0.256-1.627,0.582-3.242,0.939-4.85c0.587-2.644,1.359-5.245,2.256-7.8c0.218-0.62,0.456-1.233,0.693-1.846    c1.186-3.057-2.527,5.902-1.214,2.913c0.6-1.366,1.276-2.697,1.983-4.009c1.256-2.332,6.838-9.928,0.959-2.235    c1.699-2.224,3.627-4.262,5.676-6.165c0.53-0.493,1.083-0.961,1.634-1.43c2.636-2.239-5.094,3.871-2.329,1.789    c1.164-0.876,2.383-1.675,3.617-2.447c1.25-0.782,2.548-1.484,3.857-2.159c0.664-0.342,1.341-0.657,2.018-0.972    c4.433-2.065-5.403,2.156-2.078,0.861c2.93-1.14,5.963-1.999,9.021-2.713c1.602-0.374,3.22-0.669,4.842-0.94    c1.801-0.301,5.544-0.738-2.639,0.298c1.144-0.145,2.292-0.251,3.44-0.353c7.83-0.692,15.732-0.34,23.534,0.499    c1.018,0.109,2.034,0.239,3.049,0.368c-7.432-0.944-3.277-0.458-1.642-0.209c2.126,0.324,4.243,0.704,6.356,1.101    c4.828,0.907,9.613,2.031,14.369,3.258c10.095,2.606,20.006,5.901,29.771,9.54c2.523,0.94,5.031,1.921,7.533,2.915    c1.276,0.507,2.548,1.026,3.819,1.546c4.613,1.885-4.79-2.029-0.163-0.067c5.765,2.445,11.465,5.041,17.127,7.712    c24.983,11.787,48.996,25.594,72.32,40.366c12.815,8.116,25.389,16.611,37.792,25.344c6.76,4.76,13.447,9.621,20.093,14.538    c3.134,2.319,6.248,4.663,9.356,7.014c5.204,3.937-3.515-2.699,1.687,1.292c2.101,1.612,4.191,3.237,6.281,4.864    c9.658,7.517,22.436,9.337,31.825-0.17c7.849-7.949,9.532-24.272-0.171-31.825c-47.41-36.902-97.212-71.347-151.294-97.805    c-38.081-18.63-81.003-36.077-124.162-35.636c-31.394,0.321-64.004,14.088-76.968,44.518    c-12.976,30.456-9.122,64.021-0.487,95.196c11.464,41.395,31.494,80.66,53.345,117.439c28.345,47.71,61.745,92.412,97.214,135.026    c77.265,92.829,167.306,176.973,267.212,245.027c39.439,26.865,80.897,50.635,125.128,68.682    c30.285,12.357,64.752,22.92,97.85,19.948c14.742-1.324,29.472-4.782,42.032-12.979c14.382-9.385,23.813-22.639,29.895-38.511    c5.629-14.688,6.332-31.63,4.927-47.151c-1.847-20.396-6.706-40.186-13.453-59.484c-28.314-80.982-79.62-153.431-133.077-219.602    c-7.711-9.544-23.937-7.817-31.824,0.17C730.26,414.447,732.043,427.293,739.75,436.833L739.75,436.833z"
         id="path96" /></g></g><g
     display="none"
     id="g98"><g
       display="inline"
       id="g100"><path
         d="M631.878,199.321c2.092,0.156,4.179,0.341,6.265,0.556c1.043,0.112,2.085,0.234,3.125,0.366    c-3.178-0.457-3.546-0.503-1.103-0.14c4.68,0.705,9.315,1.674,13.916,2.774c4.107,0.981,8.16,2.176,12.179,3.466    c2.018,0.648,4.013,1.363,6.003,2.087c0.996,0.368,1.988,0.745,2.977,1.131c5.139,1.982-4.478-1.962,0.591,0.22    c8.399,3.617,16.432,8.048,24.114,12.998c1.833,1.181,3.624,2.424,5.409,3.676c0.894,0.633,1.781,1.276,2.662,1.927    c-4.713-3.446-0.168-0.112,0.656,0.542c3.929,3.12,7.668,6.472,11.301,9.929c3.282,3.123,6.391,6.423,9.411,9.798    c1.497,1.672,2.935,3.397,4.363,5.127c1.565,1.957,1.409,1.733-0.468-0.672c1.021,1.314,2,2.658,2.979,4.002    c5.793,7.946,10.749,16.479,15.038,25.319c0.941,1.94,1.816,3.912,2.682,5.887c-2.704-6.177,0.21,0.646,0.688,1.9    c1.712,4.495,3.162,9.085,4.478,13.71c1.309,4.604,2.353,9.28,3.261,13.978c0.402,2.083,0.735,4.18,1.059,6.277    c0.354,2.517,0.309,2.098-0.136-1.259c0.197,1.577,0.349,3.159,0.501,4.74c1.172,12.197,9.148,22.58,22.343,22.667    c11.299,0.075,23.842-10.12,22.667-22.343c-4.376-45.531-23.344-87.622-56-119.95c-32.313-31.991-75.54-50.361-120.637-53.723    c-12.237-0.913-22.59,10.707-22.667,22.343C609.449,189.545,619.659,198.41,631.878,199.321L631.878,199.321z"
         id="path102" /></g></g><g
     display="none"
     id="g104"><g
       display="inline"
       id="g106"><path
         d="M606.399,45.057c6.321,0.455,12.625,1.061,18.917,1.817c1.573,0.189,3.145,0.399,4.715,0.608    c-6.102-0.814-0.646-0.066,0.498,0.107c3.661,0.554,7.309,1.187,10.95,1.852c13.046,2.382,25.939,5.563,38.644,9.356    c6.127,1.83,12.191,3.862,18.212,6.013c3.02,1.079,6.017,2.218,9.006,3.377c1.497,0.581,2.985,1.181,4.475,1.781    c2.27,0.933,1.984,0.807-0.853-0.377c0.988,0.417,1.975,0.837,2.959,1.263c12.397,5.322,24.453,11.422,36.174,18.099    c11.892,6.775,23.344,14.306,34.388,22.384c1.338,0.979,2.663,1.977,3.988,2.974c-4.647-3.499-0.112-0.055,0.691,0.574    c2.632,2.057,5.22,4.169,7.794,6.298c5.625,4.653,11.076,9.512,16.412,14.492c10.376,9.683,20.124,20.03,29.312,30.842    c2.182,2.567,4.31,5.179,6.419,7.806c0.654,0.815,4.18,5.359,0.558,0.674c1.022,1.323,2.027,2.66,3.031,3.998    c4.327,5.759,8.441,11.675,12.415,17.682c8.151,12.318,15.455,25.186,22.031,38.408c3.134,6.302,6.04,12.715,8.8,19.189    c-2.517-5.905-0.313-0.721,0.146,0.414c0.81,1.997,1.587,4.006,2.36,6.018c1.351,3.513,2.622,7.055,3.862,10.608    c4.761,13.642,8.608,27.595,11.706,41.704c1.486,6.767,2.732,13.584,3.829,20.424c0.253,1.577,0.485,3.156,0.717,4.736    c0.195,1.328,1.126,8.689,0.284,1.924c0.46,3.693,0.839,7.396,1.186,11.102c1.141,12.2,9.172,22.58,22.343,22.667    c11.323,0.075,23.811-10.118,22.667-22.343c-5.305-56.706-22.096-111.466-50.696-160.83    c-29.444-50.82-70.963-94.026-119.506-126.884c-55.598-37.633-121.33-58.96-188.109-63.767    c-12.239-0.881-22.59,10.684-22.667,22.343C583.971,35.258,594.178,44.178,606.399,45.057L606.399,45.057z"
         id="path108" /></g></g><circle
     display="none"
     stroke="#000000"
     stroke-width="3"
     stroke-miterlimit="10"
     cx="623.664"
     cy="337.842"
     r="61.849"
     id="circle110" /><g
     display="none"
     id="g112"><line
       display="inline"
       x1="628.521"
       y1="381.576"
       x2="603.253"
       y2="480.707"
       id="line114" /><g
       display="inline"
       id="g116"><path
         d="M614.051,377.615c-8.422,33.043-16.846,66.087-25.268,99.131c-2.021,7.925,2.529,16.238,10.509,18.431    c7.777,2.137,16.414-2.598,18.431-10.51c8.424-33.043,16.846-66.087,25.27-99.131c2.02-7.925-2.53-16.238-10.51-18.431    C624.705,364.969,616.068,369.703,614.051,377.615L614.051,377.615z"
         id="path118" /></g></g><g
     display="none"
     id="g120"><line
       display="inline"
       x1="579.929"
       y1="332.983"
       x2="480.798"
       y2="358.25"
       id="line122" /><g
       display="inline"
       id="g124"><path
         d="M576.047,318.494c-33.044,8.422-66.088,16.845-99.131,25.268c-7.925,2.02-12.703,10.546-10.606,18.371    c2.136,7.971,10.449,12.626,18.371,10.606c33.043-8.422,66.087-16.845,99.13-25.268c7.925-2.02,12.704-10.546,10.607-18.371    C592.281,321.129,583.969,316.475,576.047,318.494L576.047,318.494z"
         id="path126" /></g></g><path
     display="none"
     stroke="#000000"
     stroke-width="3"
     stroke-miterlimit="10"
     d="M522.382,991.833H52.325  c0-110,75.649-202.193,177.797-227.744c80.157,78.219,177.756,125.7,275.958,141.697  C516.596,932.465,522.382,961.833,522.382,991.833z"
     id="path128" /><path
     display="none"
     d="M510.334,14.19c-118.706,0-222.848,62.378-281.428,156.145l107.248,107.248  c27.013-69.849,94.808-119.371,174.18-119.371c103.09,0,186.668,83.568,186.668,186.679c0,79.372-49.541,147.177-119.38,174.17  l152.86,152.86c63.331-117.981,111.415-238.86,111.415-326.167C841.897,162.636,693.451,14.19,510.334,14.19z M178.749,345.754  c0,183.128,211.312,514.007,331.585,655.867c46.119-54.531,105.76-136.968,161.729-228.216L184.206,285.548  C180.624,305.071,178.749,325.19,178.749,345.754z"
     id="path130" /><path
     display="none"
     d="M901.38,883.489c14.287,14.285,17.076,34.661,6.228,45.509l0,0c-10.849,10.848-31.225,8.061-45.509-6.226  L93.473,154.146c-14.286-14.286-17.074-34.661-6.226-45.508l0,0c10.847-10.847,31.222-8.06,45.508,6.227L901.38,883.489z"
     id="path132" /><path
     display="none"
     d="M497.434,13.739c-183.13,0-331.583,148.452-331.583,331.572c0,183.121,211.313,514.005,331.583,655.859  c120.004-141.875,331.57-472.738,331.57-655.859C829.004,162.191,680.554,13.739,497.434,13.739z M497.434,575.764  c-127.76,0-231.323-103.563-231.323-231.324s103.563-231.322,231.323-231.322c127.747,0,231.32,103.562,231.32,231.322  S625.181,575.764,497.434,575.764z"
     id="path134" /><path
     display="none"
     d="M643.515,345.333c0,19.721-15.991,36-35.712,36H534v74.242c0,19.722-16.291,35.713-36.013,35.713  c-9.861,0-18.926-3.997-25.395-10.456C466.135,474.364,462,465.436,462,455.575v-74.242h-74.427  c-19.722,0-35.713-16.071-35.713-35.792c0-9.861,3.997-19.037,10.456-25.505c6.468-6.458,15.396-10.703,25.257-10.703H462v-73.987  c0-19.721,15.979-35.713,35.7-35.713c9.86,0,19.081,3.998,25.55,10.456c6.459,6.468,10.75,15.396,10.75,25.257v73.987h73.803  C627.523,309.333,643.515,325.612,643.515,345.333z"
     id="path136" /><path
     display="none"
     d="M497.434,13.739c-183.13,0-331.583,148.452-331.583,331.572c0,183.121,211.313,514.005,331.583,655.859  c120.004-141.875,331.57-472.738,331.57-655.859C829.004,162.191,680.554,13.739,497.434,13.739z M497.434,575.764  c-127.76,0-231.323-103.563-231.323-231.324s103.563-231.322,231.323-231.322c127.747,0,231.32,103.562,231.32,231.322  S625.181,575.764,497.434,575.764z"
     id="path138" /><path
     display="none"
     d="M643.515,345.333c0,19.721-15.991,36-35.712,36H387.573c-19.722,0-35.713-16.071-35.713-35.792  c0-9.861,3.997-19.037,10.456-25.505c6.468-6.458,15.396-10.703,25.257-10.703h220.229  C627.523,309.333,643.515,325.612,643.515,345.333z"
     id="path140" /><path
     display="none"
     d="M497.434,13.739c-183.13,0-331.582,148.452-331.582,331.572c0,183.121,211.313,514.005,331.582,655.859  c120.003-141.875,331.569-472.738,331.569-655.859C829.003,162.191,680.553,13.739,497.434,13.739z M497.434,575.764  c-127.76,0-231.322-103.563-231.322-231.324s103.563-231.322,231.322-231.322c127.746,0,231.319,103.562,231.319,231.322  S625.18,575.764,497.434,575.764z"
     id="path142" /><circle
     display="none"
     cx="497.427"
     cy="343.477"
     r="160.708"
     id="circle144" /><path
     display="none"
     d="M530,881.773c0,17.43-14.129,31.56-31.559,31.56h-0.883c-17.43,0-31.559-14.13-31.559-31.56V132.893  c0-17.43,14.129-31.56,31.559-31.56h0.883c17.43,0,31.559,14.13,31.559,31.56V881.773z"
     id="path146" /><path
     display="none"
     d="M614,889.085c0,13.944-11.304,25.248-25.247,25.248H407.247c-13.943,0-25.247-11.304-25.247-25.248v-0.504  c0-13.944,11.304-25.248,25.247-25.248h181.506c13.943,0,25.247,11.304,25.247,25.248V889.085z"
     id="path148" /><path
     display="none"
     d="M872.379,473.699c0,0-35.17,31.634-52.599,31.634H32.894C15.463,505.333,1,491.054,1,473.625V233.771  c0-17.429,14.463-30.438,31.894-30.438H819.78c17.429,0,52.599,30.999,52.599,30.999s101.967,84.187,111.157,98.154  c13.679,20.791,12.979,24.194-0.458,43.534C973.422,389.915,872.379,473.699,872.379,473.699z"
     id="path150" /><circle
     display="none"
     cx="497.427"
     cy="507.455"
     r="255.473"
     id="circle152" /><g
     display="none"
     id="g154"><g
       display="inline"
       id="g156"><path
         d="M877.977,507.077c-0.032,19.965-1.383,39.889-4.077,59.671c0.622-4.494,1.244-8.989,1.866-13.483    c-5.16,37.002-15.045,73.194-29.439,107.67c1.727-4.129,3.453-8.258,5.18-12.388c-14.176,33.659-32.531,65.408-54.59,94.514    c2.713-3.56,5.426-7.119,8.139-10.679c-22.794,29.887-49.333,56.746-78.943,79.899c3.581-2.786,7.162-5.572,10.744-8.358    c-30.572,23.756-64.167,43.384-99.896,58.302c4.332-1.809,8.664-3.616,12.996-5.424c-35.385,14.645-72.557,24.543-110.532,29.47    c4.655-0.6,9.311-1.2,13.966-1.801c-38.262,4.841-77.04,4.661-115.254-0.543c4.494,0.622,8.989,1.244,13.483,1.866    c-37.002-5.16-73.194-15.045-107.671-29.439c4.129,1.727,8.259,3.453,12.388,5.18c-33.659-14.175-65.408-32.531-94.514-54.59    c3.56,2.713,7.12,5.426,10.679,8.139c-29.887-22.794-56.747-49.333-79.9-78.943c2.786,3.581,5.572,7.163,8.358,10.744    c-23.757-30.572-43.384-64.167-58.302-99.896c1.808,4.332,3.616,8.664,5.424,12.996c-14.646-35.384-24.543-72.557-29.47-110.532    c0.6,4.655,1.2,9.311,1.801,13.966c-4.841-38.262-4.661-77.04,0.543-115.254c-0.622,4.495-1.244,8.989-1.866,13.484    c5.159-37.002,15.044-73.195,29.439-107.671c-1.727,4.129-3.453,8.259-5.18,12.388c14.175-33.659,32.531-65.409,54.59-94.514    c-2.713,3.56-5.426,7.12-8.139,10.679c22.794-29.887,49.333-56.747,78.943-79.899c-3.581,2.786-7.163,5.572-10.744,8.358    c30.572-23.756,64.167-43.384,99.896-58.301c-4.332,1.808-8.664,3.616-12.996,5.423c35.384-14.645,72.557-24.543,110.533-29.47    c-4.655,0.601-9.311,1.201-13.966,1.801c38.262-4.84,77.041-4.661,115.254,0.544c-4.494-0.622-8.989-1.244-13.483-1.866    c37.002,5.159,73.194,15.044,107.67,29.438c-4.129-1.726-8.258-3.453-12.388-5.179c33.659,14.175,65.408,32.531,94.514,54.59    c-3.56-2.713-7.119-5.426-10.68-8.139c29.888,22.794,56.747,49.333,79.9,78.943c-2.786-3.581-5.572-7.163-8.358-10.744    c23.757,30.572,43.384,64.167,58.302,99.896c-1.809-4.332-3.616-8.664-5.424-12.996c14.645,35.384,24.543,72.557,29.47,110.533    c-0.6-4.655-1.2-9.311-1.801-13.966C876.775,469.936,877.946,488.488,877.977,507.077c0.046,28.6,23.357,52.699,52.133,52.89    c28.423,0.188,52.937-23.53,52.891-52.134c-0.156-98.151-30.015-196.87-86.789-277.188c-27.643-39.105-59.97-74.577-97.915-103.88    c-20.607-15.914-41.684-30.805-64.438-43.505c-22.797-12.724-46.892-23.219-71.32-32.368    c-46.223-17.312-95.833-26.293-145.063-28.573c-49.905-2.311-101.041,3.733-149.192,16.951    c-92.535,25.401-178.21,79.562-240.049,153.018c-30.945,36.758-57.146,77.24-75.817,121.574    c-10.269,24.384-19.4,48.918-25.849,74.611c-6.532,26.022-10.538,52.797-12.97,79.493c-4.562,50.067-0.134,101.346,11.015,150.301    c10.75,47.206,29.563,93.371,54.037,135.104c48.184,82.158,122.039,150.792,208.216,191.545    c23.691,11.203,48.258,20.942,73.383,28.436c25.734,7.675,51.924,12.166,78.492,15.785c50.213,6.839,101.104,4.019,150.865-5.022    c47.946-8.711,94.645-26.057,137.633-48.859c42.065-22.313,81.071-51.884,114.662-85.576    c67.817-68.021,115.715-157.793,132.604-252.458c5.262-29.487,8.448-59.42,8.496-89.387c0.046-28.601-23.426-52.699-52.133-52.89    C902.375,454.754,878.022,478.475,877.977,507.077z"
         id="path158" /></g></g></svg>