<?xml version="1.0" encoding="UTF-8" standalone="no"?>
<svg
   xmlns:dc="http://purl.org/dc/elements/1.1/"
   xmlns:cc="http://creativecommons.org/ns#"
   xmlns:rdf="http://www.w3.org/1999/02/22-rdf-syntax-ns#"
   xmlns:svg="http://www.w3.org/2000/svg"
   xmlns="http://www.w3.org/2000/svg"
   xmlns:sodipodi="http://sodipodi.sourceforge.net/DTD/sodipodi-0.dtd"
   xmlns:inkscape="http://www.inkscape.org/namespaces/inkscape"
   viewBox="0 0 64 64"
   x="0px"
   y="0px"
   version="1.1"
   id="svg12"
   sodipodi:docname="11.svg"
   inkscape:version="0.92.5 (2060ec1f9f, 2020-04-08)"
   width="64"
   height="64">
  <metadata
     id="metadata18">
    <rdf:RDF>
      <cc:Work
         rdf:about="">
        <dc:format>image/svg+xml</dc:format>
        <dc:type
           rdf:resource="http://purl.org/dc/dcmitype/StillImage" />
        <dc:title>start, flag, marker</dc:title>
      </cc:Work>
    </rdf:RDF>
  </metadata>
  <defs
     id="defs16" />
  <sodipodi:namedview
     pagecolor="#ffffff"
     bordercolor="#666666"
     borderopacity="1"
     objecttolerance="10"
     gridtolerance="10"
     guidetolerance="10"
     inkscape:pageopacity="0"
     inkscape:pageshadow="2"
     inkscape:window-width="1440"
     inkscape:window-height="824"
     id="namedview14"
     showgrid="false"
     inkscape:zoom="2.95"
     inkscape:cx="35.389831"
     inkscape:cy="40"
     inkscape:window-x="0"
     inkscape:window-y="0"
     inkscape:window-maximized="1"
     inkscape:current-layer="svg12" />
  <title
     id="title2">start, flag, marker</title>
  <g
     id="g6"
     transform="matrix(1.2203598,0,0,1.2203598,-10.552293,-12.253774)">
    <path
       d="m 57.17,17.84 c -0.2,2.56 -1.96,5.34 -4.7,7.42 -2.45,1.86 -7.76,4.73 -15.87,3.13 -7.08,-1.4 -11.86,1.51 -14.22,8.65 l 6.9,23.02 a 1.5164,1.5164 0 0 1 -1.01,1.87 1.59,1.59 0 0 1 -0.43,0.06 1.5057,1.5057 0 0 1 -1.44,-1.07 L 19.46,37.77 A 1.5581,1.5581 0 0 1 19.3,37.24 L 13.9,19.22 a 1.4949,1.4949 0 0 1 -0.2,-0.69 l -1.07,-3.56 a 1.4981,1.4981 0 1 1 2.87,-0.86 l 0.19,0.65 a 11.6805,11.6805 0 0 1 4.78,-3.23 c 4.75,-1.78 11.06,-1.14 16.46,1.68 3.32,1.73 11.76,5.51 18.22,3.1 a 1.5082,1.5082 0 0 1 2.02,1.53 z"
       id="path4"
       style="fill:#4d4d4d"
       inkscape:connector-curvature="0" />
  </g>
</svg>
