<?xml version="1.0" encoding="UTF-8" standalone="no"?>
<svg
   xmlns:dc="http://purl.org/dc/elements/1.1/"
   xmlns:cc="http://creativecommons.org/ns#"
   xmlns:rdf="http://www.w3.org/1999/02/22-rdf-syntax-ns#"
   xmlns:svg="http://www.w3.org/2000/svg"
   xmlns="http://www.w3.org/2000/svg"
   xmlns:sodipodi="http://sodipodi.sourceforge.net/DTD/sodipodi-0.dtd"
   xmlns:inkscape="http://www.inkscape.org/namespaces/inkscape"
   version="1.1"
   x="0px"
   y="0px"
   viewBox="0 0 100 100"
   enable-background="new 0 0 100 100"
   xml:space="preserve"
   id="svg2"
   inkscape:version="0.91 r13725"
   sodipodi:docname="11.svg"
   width="100"
   height="100"><metadata
     id="metadata20"><rdf:RDF><cc:Work
         rdf:about=""><dc:format>image/svg+xml</dc:format><dc:type
           rdf:resource="http://purl.org/dc/dcmitype/StillImage" /><dc:title></dc:title></cc:Work></rdf:RDF></metadata><defs
     id="defs18" /><sodipodi:namedview
     pagecolor="#000000"
     bordercolor="#666666"
     borderopacity="1"
     objecttolerance="10"
     gridtolerance="10"
     guidetolerance="10"
     inkscape:pageopacity="0.39215686"
     inkscape:pageshadow="2"
     inkscape:window-width="1680"
     inkscape:window-height="964"
     id="namedview16"
     showgrid="false"
     inkscape:zoom="5.3400704"
     inkscape:cx="29.733459"
     inkscape:cy="48.060733"
     inkscape:window-x="0"
     inkscape:window-y="24"
     inkscape:window-maximized="1"
     inkscape:current-layer="g3363" /><g
     id="g4"
     transform="translate(-0.167625,5e-4)"><g
       id="g3363"
       transform="matrix(-2.3083065,0,0,3.3235517,158.32702,-122.35248)"><path
         sodipodi:nodetypes="csscccccccc"
         inkscape:connector-curvature="0"
         id="path10"
         d="m 58.104493,38.436603 0.481522,-0.0391 c 1.651563,-0.134119 3,1.343 3,3 l 0,24 -6,0 0,-21 -7.104986,0.842686 -3.651637,5.305685 2.539444,-4.226417 3.921145,-2.916572 z"
         style="fill:#4d4d4d" /><path
         sodipodi:nodetypes="csscccccccc"
         inkscape:connector-curvature="0"
         id="path10-8"
         d="M 39.774222,50.972572 56.785691,38.858786 c 1.34515,-0.957875 3.228533,-0.616616 4.177271,0.741892 l 0.539443,19.863919 -3.140161,4.55896 -0.600756,-18.527918 -13.117771,9.161011 3.243726,2.463793 -14.893818,2.420468 3.689312,-11.043065 z"
         style="fill:#4d4d4d" /></g></g></svg>
