<?xml version="1.0" encoding="UTF-8" standalone="no"?>
<svg
   xmlns:dc="http://purl.org/dc/elements/1.1/"
   xmlns:cc="http://creativecommons.org/ns#"
   xmlns:rdf="http://www.w3.org/1999/02/22-rdf-syntax-ns#"
   xmlns:svg="http://www.w3.org/2000/svg"
   xmlns="http://www.w3.org/2000/svg"
   xmlns:sodipodi="http://sodipodi.sourceforge.net/DTD/sodipodi-0.dtd"
   xmlns:inkscape="http://www.inkscape.org/namespaces/inkscape"
   version="1.1"
   x="0px"
   y="0px"
   viewBox="0 0 100 100"
   enable-background="new 0 0 100 100"
   xml:space="preserve"
   id="svg2"
   inkscape:version="0.91 r13725"
   sodipodi:docname="261.svg"
   width="100"
   height="100"><metadata
     id="metadata24"><rdf:RDF><cc:Work
         rdf:about=""><dc:format>image/svg+xml</dc:format><dc:type
           rdf:resource="http://purl.org/dc/dcmitype/StillImage" /><dc:title /></cc:Work></rdf:RDF></metadata><defs
     id="defs22" /><sodipodi:namedview
     pagecolor="#000000"
     bordercolor="#666666"
     borderopacity="1"
     objecttolerance="10"
     gridtolerance="10"
     guidetolerance="10"
     inkscape:pageopacity="0.39215686"
     inkscape:pageshadow="2"
     inkscape:window-width="1680"
     inkscape:window-height="974"
     id="namedview20"
     showgrid="false"
     inkscape:zoom="3.776"
     inkscape:cx="-80.190678"
     inkscape:cy="34.070167"
     inkscape:window-x="0"
     inkscape:window-y="24"
     inkscape:window-maximized="1"
     inkscape:current-layer="svg2" /><text
     xml:space="preserve"
     style="font-style:normal;font-variant:normal;font-weight:normal;font-stretch:normal;font-size:42.94048691px;line-height:125%;font-family:Ubuntu;-inkscape-font-specification:Ubuntu;letter-spacing:-10px;word-spacing:0px;fill:#000000;fill-opacity:1;stroke:none"
     x="36.98317"
     y="68.381294"
     id="text2984"
     sodipodi:linespacing="125%"
     transform="scale(1.0105328,0.98957699)"><tspan
       sodipodi:role="line"
       id="tspan2986"
       x="36.98317"
       y="68.381294"
       style="font-weight:500;font-size:51.52858353px;-inkscape-font-specification:'Ubuntu Medium';letter-spacing:-10px;fill:#4d4d4d">1</tspan></text>
<path
     inkscape:connector-curvature="0"
     style="fill:#4d4d4d;fill-opacity:1"
     d="M 49.999998,6.9091815 A 43.432205,43.432205 0 0 0 15.167966,24.479494 l 8.833984,4.990234 A 33.368645,33.368645 0 0 1 49.999998,16.971682 33.368645,33.368645 0 0 1 75.537107,28.913088 l 8.857422,-5.003907 A 43.432205,43.432205 0 0 0 49.999998,6.9091815 Z m 42.246095,33.5507775 -9.240236,5.22071 a 33.368645,33.368645 0 0 1 0.363281,4.66015 33.368645,33.368645 0 0 1 -22.697265,31.57227 l 0,10.47266 a 43.432205,43.432205 0 0 0 32.759765,-42.04493 43.432205,43.432205 0 0 0 -1.185545,-9.88086 z m -84.6503915,0.73047 a 43.432205,43.432205 0 0 0 -1.02734,9.15039 43.432205,43.432205 0 0 0 35.8300745,42.75 l 0,-10.29492 a 33.368645,33.368645 0 0 1 -25.767578,-32.45508 33.368645,33.368645 0 0 1 0.251953,-3.90429 l -9.2871095,-5.2461 z"
     id="path4162" /></svg>
