<?xml version="1.0" encoding="UTF-8" standalone="no"?>
<svg
   xmlns:dc="http://purl.org/dc/elements/1.1/"
   xmlns:cc="http://creativecommons.org/ns#"
   xmlns:rdf="http://www.w3.org/1999/02/22-rdf-syntax-ns#"
   xmlns:svg="http://www.w3.org/2000/svg"
   xmlns="http://www.w3.org/2000/svg"
   xmlns:sodipodi="http://sodipodi.sourceforge.net/DTD/sodipodi-0.dtd"
   xmlns:inkscape="http://www.inkscape.org/namespaces/inkscape"
   version="1.1"
   x="0px"
   y="0px"
   viewBox="0 0 100 100"
   enable-background="new 0 0 100 100"
   xml:space="preserve"
   id="svg2"
   inkscape:version="0.91 r13725"
   sodipodi:docname="262.svg"
   width="100"
   height="100"><metadata
     id="metadata24"><rdf:RDF><cc:Work
         rdf:about=""><dc:format>image/svg+xml</dc:format><dc:type
           rdf:resource="http://purl.org/dc/dcmitype/StillImage" /><dc:title /></cc:Work></rdf:RDF></metadata><defs
     id="defs22" /><sodipodi:namedview
     pagecolor="#000000"
     bordercolor="#666666"
     borderopacity="1"
     objecttolerance="10"
     gridtolerance="10"
     guidetolerance="10"
     inkscape:pageopacity="0.39215686"
     inkscape:pageshadow="2"
     inkscape:window-width="1680"
     inkscape:window-height="974"
     id="namedview20"
     showgrid="false"
     inkscape:zoom="3.776"
     inkscape:cx="-114.3848"
     inkscape:cy="34.070167"
     inkscape:window-x="0"
     inkscape:window-y="24"
     inkscape:window-maximized="1"
     inkscape:current-layer="svg2" /><text
     xml:space="preserve"
     style="font-style:normal;font-variant:normal;font-weight:normal;font-stretch:normal;font-size:42.94048691px;line-height:125%;font-family:Ubuntu;-inkscape-font-specification:Ubuntu;letter-spacing:-5px;word-spacing:0px;fill:#000000;fill-opacity:1;stroke:none"
     x="35.360016"
     y="68.793526"
     id="text2984"
     sodipodi:linespacing="125%"
     transform="scale(1.0105328,0.98957699)"><tspan
       sodipodi:role="line"
       id="tspan2986"
       x="35.360016"
       y="68.793526"
       style="font-weight:500;font-size:51.52858353px;-inkscape-font-specification:'Ubuntu Medium';letter-spacing:-5px;fill:#4d4d4d">2</tspan></text>
<path
     inkscape:connector-curvature="0"
     style="fill:#4d4d4d;fill-opacity:1"
     d="M 50,6.90918 A 43.432205,43.432205 0 0 0 15.167969,24.479492 l 8.833983,4.990234 A 33.368645,33.368645 0 0 1 50,16.97168 33.368645,33.368645 0 0 1 75.537109,28.913086 l 8.857422,-5.003907 A 43.432205,43.432205 0 0 0 50,6.90918 Z m 42.246094,33.55078 -9.240235,5.220704 A 33.368645,33.368645 0 0 1 83.36914,50.34082 33.368645,33.368645 0 0 1 60.671875,81.913086 l 0,10.472656 A 43.432205,43.432205 0 0 0 93.43164,50.34082 43.432205,43.432205 0 0 0 92.246094,40.45996 Z M 7.5957038,41.190429 a 43.432205,43.432205 0 0 0 -1.027344,9.150391 43.432205,43.432205 0 0 0 35.8300772,42.75 l 0,-10.294922 A 33.368645,33.368645 0 0 1 16.630859,50.34082 33.368645,33.368645 0 0 1 16.882812,46.436523 L 7.5957038,41.190429 Z"
     id="path4162" /></svg>
