<?xml version="1.0" encoding="UTF-8" standalone="no"?>
<svg
   xmlns:dc="http://purl.org/dc/elements/1.1/"
   xmlns:cc="http://creativecommons.org/ns#"
   xmlns:rdf="http://www.w3.org/1999/02/22-rdf-syntax-ns#"
   xmlns:svg="http://www.w3.org/2000/svg"
   xmlns="http://www.w3.org/2000/svg"
   xmlns:sodipodi="http://sodipodi.sourceforge.net/DTD/sodipodi-0.dtd"
   xmlns:inkscape="http://www.inkscape.org/namespaces/inkscape"
   version="1.1"
   x="0px"
   y="0px"
   viewBox="0 0 100 100"
   enable-background="new 0 0 100 100"
   xml:space="preserve"
   id="svg2"
   inkscape:version="0.91 r13725"
   sodipodi:docname="264.svg"
   width="100"
   height="100"><metadata
     id="metadata24"><rdf:RDF><cc:Work
         rdf:about=""><dc:format>image/svg+xml</dc:format><dc:type
           rdf:resource="http://purl.org/dc/dcmitype/StillImage" /><dc:title /></cc:Work></rdf:RDF></metadata><defs
     id="defs22" /><sodipodi:namedview
     pagecolor="#000000"
     bordercolor="#666666"
     borderopacity="1"
     objecttolerance="10"
     gridtolerance="10"
     guidetolerance="10"
     inkscape:pageopacity="0.39215686"
     inkscape:pageshadow="2"
     inkscape:window-width="1680"
     inkscape:window-height="974"
     id="namedview20"
     showgrid="false"
     inkscape:zoom="3.776"
     inkscape:cx="-69.496027"
     inkscape:cy="34.070167"
     inkscape:window-x="0"
     inkscape:window-y="24"
     inkscape:window-maximized="1"
     inkscape:current-layer="g3378" /><g
     id="g3378"
     transform="translate(0.8332546,-1.2509074)"><text
       transform="scale(1.0105328,0.98957699)"
       sodipodi:linespacing="125%"
       id="text2984"
       y="69.645378"
       x="34.07169"
       style="font-style:normal;font-variant:normal;font-weight:normal;font-stretch:normal;font-size:42.94048691px;line-height:125%;font-family:Ubuntu;-inkscape-font-specification:Ubuntu;letter-spacing:-5px;word-spacing:0px;fill:#000000;fill-opacity:1;stroke:none"
       xml:space="preserve"><tspan
         style="font-weight:500;font-size:51.52858353px;-inkscape-font-specification:'Ubuntu Medium';letter-spacing:-5px;fill:#4d4d4d"
         y="69.645378"
         x="34.07169"
         id="tspan2986"
         sodipodi:role="line">4</tspan></text>
<path
       inkscape:connector-curvature="0"
       style="fill:#4d4d4d;fill-opacity:1"
       d="M 49.166746,8.1600874 A 43.432205,43.432205 0 0 0 14.334714,25.730399 l 8.833984,4.990234 A 33.368645,33.368645 0 0 1 49.166746,18.222587 33.368645,33.368645 0 0 1 74.703855,30.163993 l 8.857422,-5.003907 A 43.432205,43.432205 0 0 0 49.166746,8.1600874 Z M 91.41284,41.710867 82.172605,46.931571 a 33.368645,33.368645 0 0 1 0.363281,4.660156 33.368645,33.368645 0 0 1 -22.697265,31.572266 l 0,10.472656 A 43.432205,43.432205 0 0 0 92.598386,51.591727 43.432205,43.432205 0 0 0 91.41284,41.710867 Z M 6.7624489,42.441336 a 43.432205,43.432205 0 0 0 -1.027344,9.150391 43.432205,43.432205 0 0 0 35.8300781,42.75 l 0,-10.294922 A 33.368645,33.368645 0 0 1 15.797605,51.591727 33.368645,33.368645 0 0 1 16.049558,47.68743 L 6.7624489,42.441336 Z"
       id="path4162" /></g></svg>
