<?xml version="1.0" encoding="UTF-8" standalone="no"?>
<svg
   xmlns:dc="http://purl.org/dc/elements/1.1/"
   xmlns:cc="http://creativecommons.org/ns#"
   xmlns:rdf="http://www.w3.org/1999/02/22-rdf-syntax-ns#"
   xmlns:svg="http://www.w3.org/2000/svg"
   xmlns="http://www.w3.org/2000/svg"
   xmlns:sodipodi="http://sodipodi.sourceforge.net/DTD/sodipodi-0.dtd"
   xmlns:inkscape="http://www.inkscape.org/namespaces/inkscape"
   version="1.1"
   x="0px"
   y="0px"
   viewBox="0 0 100 100"
   enable-background="new 0 0 100 100"
   xml:space="preserve"
   id="svg2"
   inkscape:version="0.91 r13725"
   sodipodi:docname="266.svg"
   width="100"
   height="100"><metadata
     id="metadata24"><rdf:RDF><cc:Work
         rdf:about=""><dc:format>image/svg+xml</dc:format><dc:type
           rdf:resource="http://purl.org/dc/dcmitype/StillImage" /><dc:title /></cc:Work></rdf:RDF></metadata><defs
     id="defs22" /><sodipodi:namedview
     pagecolor="#000000"
     bordercolor="#666666"
     borderopacity="1"
     objecttolerance="10"
     gridtolerance="10"
     guidetolerance="10"
     inkscape:pageopacity="0.39215686"
     inkscape:pageshadow="2"
     inkscape:window-width="1680"
     inkscape:window-height="974"
     id="namedview20"
     showgrid="false"
     inkscape:zoom="3.776"
     inkscape:cx="-75.454713"
     inkscape:cy="34.070167"
     inkscape:window-x="0"
     inkscape:window-y="24"
     inkscape:window-maximized="1"
     inkscape:current-layer="svg2" /><g
     id="g3581"
     transform="translate(0.8332546,-1.2509074)"><path
       inkscape:connector-curvature="0"
       style="fill:#ffffff;fill-opacity:1"
       d="M 49.166747,8.1600889 A 43.432205,43.432205 0 0 0 14.334715,25.7304 l 8.833984,4.990234 A 33.368645,33.368645 0 0 1 49.166747,18.222588 33.368645,33.368645 0 0 1 74.703855,30.163994 l 8.85742,-5.003907 A 43.432205,43.432205 0 0 0 49.166747,8.1600889 Z m 42.246098,33.5507791 -9.24024,5.220704 a 33.368645,33.368645 0 0 1 0.36328,4.660156 33.368645,33.368645 0 0 1 -22.697263,31.572268 l 0,10.47265 a 43.432205,43.432205 0 0 0 32.759763,-42.044918 43.432205,43.432205 0 0 0 -1.18554,-9.88086 z M 6.7624499,42.441337 a 43.432205,43.432205 0 0 0 -1.027344,9.150391 43.432205,43.432205 0 0 0 35.8300781,42.749998 l 0,-10.29492 A 33.368645,33.368645 0 0 1 15.797606,51.591728 33.368645,33.368645 0 0 1 16.049559,47.687431 L 6.7624499,42.441337 Z"
       id="path4162" /></g><text
     transform="scale(1.0105328,0.98957699)"
     sodipodi:linespacing="125%"
     id="text2984"
     y="68.097885"
     x="34.612854"
     style="font-style:normal;font-variant:normal;font-weight:normal;font-stretch:normal;font-size:42.94048691px;line-height:125%;font-family:Ubuntu;-inkscape-font-specification:Ubuntu;letter-spacing:-5px;word-spacing:0px;fill:#000000;fill-opacity:1;stroke:none"
     xml:space="preserve"><tspan
       style="font-weight:500;font-size:51.52858353px;-inkscape-font-specification:'Ubuntu Medium';letter-spacing:-5px;fill:#ffffff"
       y="68.097885"
       x="34.612854"
       id="tspan2986"
       sodipodi:role="line">6</tspan></text>
</svg>