<?xml version="1.0" encoding="UTF-8" standalone="no"?>
<svg
   xmlns:dc="http://purl.org/dc/elements/1.1/"
   xmlns:cc="http://creativecommons.org/ns#"
   xmlns:rdf="http://www.w3.org/1999/02/22-rdf-syntax-ns#"
   xmlns:svg="http://www.w3.org/2000/svg"
   xmlns="http://www.w3.org/2000/svg"
   xmlns:sodipodi="http://sodipodi.sourceforge.net/DTD/sodipodi-0.dtd"
   xmlns:inkscape="http://www.inkscape.org/namespaces/inkscape"
   version="1.1"
   x="0px"
   y="0px"
   viewBox="0 0 100 100"
   enable-background="new 0 0 100 100"
   xml:space="preserve"
   id="svg2"
   inkscape:version="0.92.5 (2060ec1f9f, 2020-04-08)"
   sodipodi:docname="7.svg"
   width="100"
   height="100"><metadata
   id="metadata24"><rdf:RDF><cc:Work
       rdf:about=""><dc:format>image/svg+xml</dc:format><dc:type
         rdf:resource="http://purl.org/dc/dcmitype/StillImage" /><dc:title /></cc:Work></rdf:RDF></metadata><defs
   id="defs22" /><sodipodi:namedview
   pagecolor="#000000"
   bordercolor="#666666"
   borderopacity="1"
   objecttolerance="10"
   gridtolerance="10"
   guidetolerance="10"
   inkscape:pageopacity="0.39215686"
   inkscape:pageshadow="2"
   inkscape:window-width="1680"
   inkscape:window-height="974"
   id="namedview20"
   showgrid="false"
   inkscape:zoom="3.776"
   inkscape:cx="-57.997139"
   inkscape:cy="34.070167"
   inkscape:window-x="0"
   inkscape:window-y="0"
   inkscape:window-maximized="1"
   inkscape:current-layer="svg2" /><g
   id="g3581"
   transform="translate(0.8332546,-1.2509074)"><path
     inkscape:connector-curvature="0"
     style="fill:#4d4d4d;fill-opacity:1"
     d="M 49.166745,8.1600874 A 43.432205,43.432205 0 0 0 14.334714,25.730399 l 8.833983,4.990234 A 33.368645,33.368645 0 0 1 49.166745,18.222587 33.368645,33.368645 0 0 1 74.703854,30.163993 l 8.857422,-5.003907 A 43.432205,43.432205 0 0 0 49.166745,8.1600874 Z m 42.246094,33.5507796 -9.240235,5.220704 a 33.368645,33.368645 0 0 1 0.363281,4.660156 33.368645,33.368645 0 0 1 -22.697265,31.572266 l 0,10.472656 A 43.432205,43.432205 0 0 0 92.598385,51.591727 43.432205,43.432205 0 0 0 91.412839,41.710867 Z M 6.7624493,42.441336 a 43.432205,43.432205 0 0 0 -1.027344,9.150391 43.432205,43.432205 0 0 0 35.8300767,42.75 l 0,-10.294922 A 33.368645,33.368645 0 0 1 15.797605,51.591727 33.368645,33.368645 0 0 1 16.049558,47.68743 L 6.7624493,42.441336 Z"
     id="path4162" /></g>
</svg>