<?xml version="1.0" encoding="UTF-8" standalone="no"?>
<svg
   xmlns:dc="http://purl.org/dc/elements/1.1/"
   xmlns:cc="http://creativecommons.org/ns#"
   xmlns:rdf="http://www.w3.org/1999/02/22-rdf-syntax-ns#"
   xmlns:svg="http://www.w3.org/2000/svg"
   xmlns="http://www.w3.org/2000/svg"
   xmlns:sodipodi="http://sodipodi.sourceforge.net/DTD/sodipodi-0.dtd"
   xmlns:inkscape="http://www.inkscape.org/namespaces/inkscape"
   version="1.1"
   x="0px"
   y="0px"
   viewBox="0 0 46 46"
   enable-background="new 0 0 100 100"
   xml:space="preserve"
   id="svg2"
   inkscape:version="0.92.5 (2060ec1f9f, 2020-04-08)"
   sodipodi:docname="99.svg"
   width="46"
   height="46"><metadata
     id="metadata22"><rdf:RDF><cc:Work
         rdf:about=""><dc:format>image/svg+xml</dc:format><dc:type
           rdf:resource="http://purl.org/dc/dcmitype/StillImage" /><dc:title /></cc:Work></rdf:RDF></metadata><defs
     id="defs20" /><sodipodi:namedview
     pagecolor="#ffffff"
     bordercolor="#666666"
     borderopacity="1"
     objecttolerance="10"
     gridtolerance="10"
     guidetolerance="10"
     inkscape:pageopacity="0"
     inkscape:pageshadow="2"
     inkscape:window-width="1680"
     inkscape:window-height="974"
     id="namedview18"
     showgrid="false"
     inkscape:zoom="7.552"
     inkscape:cx="-25.715501"
     inkscape:cy="36.796403"
     inkscape:window-x="0"
     inkscape:window-y="0"
     inkscape:window-maximized="1"
     inkscape:current-layer="svg2" /><g
     id="g4"
     transform="translate(-27.012712,-25.504237)"><g
       id="g6"><path
         d="M 49.994,25.464 C 37.374,25.485 27.147,35.612 26.971,48.144 26.787,61.135 37.188,71.254 49.458,71.525 62.374,71.812 72.766,61.466 73.027,49.006 73.296,36.143 62.93,25.472 49.994,25.464 Z m -0.28,43.268 C 38.704,68.583 29.653,59.524 29.769,48.278 29.885,37.183 38.981,28.254 50.02,28.271 61.18,28.283 70.226,37.357 70.226,48.546 70.22,59.678 61.051,68.882 49.714,68.732 Z"
         id="path8"
         inkscape:connector-curvature="0"
         style="clip-rule:evenodd;fill:#4d4d4d;fill-rule:evenodd" /><path
         d="m 49.779,43.147 c -1,-0.003 -1.747,0.669 -1.747,1.583 0,5.159 0,10.322 0.002,15.481 0,0.947 0.696,1.587 1.719,1.591 1.052,0.003 1.747,-0.636 1.747,-1.608 0.002,-2.575 0,-5.146 0,-7.721 0,-2.584 0.002,-5.171 0,-7.758 -10e-4,-0.895 -0.739,-1.559 -1.721,-1.568 z"
         id="path10"
         inkscape:connector-curvature="0"
         style="clip-rule:evenodd;fill:#4d4d4d;fill-rule:evenodd" /><path
         d="m 49.898,36.47 c -1.265,-0.008 -2.257,0.952 -2.257,2.183 0,1.264 0.958,2.239 2.203,2.239 1.249,0.004 2.249,-0.979 2.251,-2.207 0,-1.21 -0.99,-2.21 -2.197,-2.215 z"
         id="path12"
         inkscape:connector-curvature="0"
         style="clip-rule:evenodd;fill:#4d4d4d;fill-rule:evenodd" /></g></g></svg>